M48
; DRILL file {KiCad 6.0.9} date 2023-01-31T22:29:57 CET
; FORMAT={-:-/ absolute / inch / decimal}
; #@! TF.CreationDate,2023-01-31T22:29:57+01:00
; #@! TF.GenerationSoftware,Kicad,Pcbnew,6.0.9
; #@! TF.FileFunction,Plated,1,2,PTH
FMAT,2
INCH
; #@! TA.AperFunction,Plated,PTH,ComponentDrill
T1C0.0098
%
G90
G05
T1
X3.6275Y-3.2313
X3.6275Y-3.2569
X3.6275Y-3.2825
X3.6275Y-3.3081
X3.6275Y-3.3337
X3.6275Y-3.3593
X3.6275Y-3.3848
X3.6275Y-3.4104
X3.6275Y-3.436
X3.6275Y-3.4616
X3.6275Y-3.625
X3.6275Y-3.6506
X3.6275Y-3.6762
X3.6275Y-3.7018
X3.6275Y-3.7274
X3.6275Y-3.753
X3.6275Y-3.7785
X3.6275Y-3.8041
X3.6275Y-3.8297
X3.6275Y-3.8553
X3.6275Y-4.0187
X3.6275Y-4.0443
X3.6275Y-4.0699
X3.6275Y-4.0955
X3.6275Y-4.1211
X3.6275Y-4.1467
X3.6275Y-4.1722
X3.6275Y-4.1978
X3.6275Y-4.2234
X3.6275Y-4.249
X3.8529Y-3.2313
X3.8529Y-3.2569
X3.8529Y-3.2825
X3.8529Y-3.3081
X3.8529Y-3.3337
X3.8529Y-3.3593
X3.8529Y-3.3848
X3.8529Y-3.4104
X3.8529Y-3.436
X3.8529Y-3.4616
X3.8529Y-3.625
X3.8529Y-3.6506
X3.8529Y-3.6762
X3.8529Y-3.7018
X3.8529Y-3.7274
X3.8529Y-3.753
X3.8529Y-3.7785
X3.8529Y-3.8041
X3.8529Y-3.8297
X3.8529Y-3.8553
X3.8529Y-4.0187
X3.8529Y-4.0443
X3.8529Y-4.0699
X3.8529Y-4.0955
X3.8529Y-4.1211
X3.8529Y-4.1467
X3.8529Y-4.1722
X3.8529Y-4.1978
X3.8529Y-4.2234
X3.8529Y-4.249
X4.0212Y-3.2313
X4.0212Y-3.2569
X4.0212Y-3.2825
X4.0212Y-3.3081
X4.0212Y-3.3337
X4.0212Y-3.3593
X4.0212Y-3.3848
X4.0212Y-3.4104
X4.0212Y-3.436
X4.0212Y-3.4616
X4.0212Y-3.625
X4.0212Y-3.6506
X4.0212Y-3.6762
X4.0212Y-3.7018
X4.0212Y-3.7274
X4.0212Y-3.753
X4.0212Y-3.7785
X4.0212Y-3.8041
X4.0212Y-3.8297
X4.0212Y-3.8553
X4.0212Y-4.0187
X4.0212Y-4.0443
X4.0212Y-4.0699
X4.0212Y-4.0955
X4.0212Y-4.1211
X4.0212Y-4.1467
X4.0212Y-4.1722
X4.0212Y-4.1978
X4.0212Y-4.2234
X4.0212Y-4.249
X4.2466Y-3.2313
X4.2466Y-3.2569
X4.2466Y-3.2825
X4.2466Y-3.3081
X4.2466Y-3.3337
X4.2466Y-3.3593
X4.2466Y-3.3848
X4.2466Y-3.4104
X4.2466Y-3.436
X4.2466Y-3.4616
X4.2466Y-3.625
X4.2466Y-3.6506
X4.2466Y-3.6762
X4.2466Y-3.7018
X4.2466Y-3.7274
X4.2466Y-3.753
X4.2466Y-3.7785
X4.2466Y-3.8041
X4.2466Y-3.8297
X4.2466Y-3.8553
X4.2466Y-4.0187
X4.2466Y-4.0443
X4.2466Y-4.0699
X4.2466Y-4.0955
X4.2466Y-4.1211
X4.2466Y-4.1467
X4.2466Y-4.1722
X4.2466Y-4.1978
X4.2466Y-4.2234
X4.2466Y-4.249
X4.4149Y-3.2313
X4.4149Y-3.2569
X4.4149Y-3.2825
X4.4149Y-3.3081
X4.4149Y-3.3337
X4.4149Y-3.3593
X4.4149Y-3.3848
X4.4149Y-3.4104
X4.4149Y-3.436
X4.4149Y-3.4616
X4.4149Y-3.625
X4.4149Y-3.6506
X4.4149Y-3.6762
X4.4149Y-3.7018
X4.4149Y-3.7274
X4.4149Y-3.753
X4.4149Y-3.7785
X4.4149Y-3.8041
X4.4149Y-3.8297
X4.4149Y-3.8553
X4.4149Y-4.0187
X4.4149Y-4.0443
X4.4149Y-4.0699
X4.4149Y-4.0955
X4.4149Y-4.1211
X4.4149Y-4.1467
X4.4149Y-4.1722
X4.4149Y-4.1978
X4.4149Y-4.2234
X4.4149Y-4.249
X4.6403Y-3.2313
X4.6403Y-3.2569
X4.6403Y-3.2825
X4.6403Y-3.3081
X4.6403Y-3.3337
X4.6403Y-3.3593
X4.6403Y-3.3848
X4.6403Y-3.4104
X4.6403Y-3.436
X4.6403Y-3.4616
X4.6403Y-3.625
X4.6403Y-3.6506
X4.6403Y-3.6762
X4.6403Y-3.7018
X4.6403Y-3.7274
X4.6403Y-3.753
X4.6403Y-3.7785
X4.6403Y-3.8041
X4.6403Y-3.8297
X4.6403Y-3.8553
X4.6403Y-4.0187
X4.6403Y-4.0443
X4.6403Y-4.0699
X4.6403Y-4.0955
X4.6403Y-4.1211
X4.6403Y-4.1467
X4.6403Y-4.1722
X4.6403Y-4.1978
X4.6403Y-4.2234
X4.6403Y-4.249
X4.8086Y-3.2313
X4.8086Y-3.2569
X4.8086Y-3.2825
X4.8086Y-3.3081
X4.8086Y-3.3337
X4.8086Y-3.3593
X4.8086Y-3.3848
X4.8086Y-3.4104
X4.8086Y-3.436
X4.8086Y-3.4616
X4.8086Y-3.625
X4.8086Y-3.6506
X4.8086Y-3.6762
X4.8086Y-3.7018
X4.8086Y-3.7274
X4.8086Y-3.753
X4.8086Y-3.7785
X4.8086Y-3.8041
X4.8086Y-3.8297
X4.8086Y-3.8553
X4.8086Y-4.0187
X4.8086Y-4.0443
X4.8086Y-4.0699
X4.8086Y-4.0955
X4.8086Y-4.1211
X4.8086Y-4.1467
X4.8086Y-4.1722
X4.8086Y-4.1978
X4.8086Y-4.2234
X4.8086Y-4.249
X5.034Y-3.2313
X5.034Y-3.2569
X5.034Y-3.2825
X5.034Y-3.3081
X5.034Y-3.3337
X5.034Y-3.3593
X5.034Y-3.3848
X5.034Y-3.4104
X5.034Y-3.436
X5.034Y-3.4616
X5.034Y-3.625
X5.034Y-3.6506
X5.034Y-3.6762
X5.034Y-3.7018
X5.034Y-3.7274
X5.034Y-3.753
X5.034Y-3.7785
X5.034Y-3.8041
X5.034Y-3.8297
X5.034Y-3.8553
X5.034Y-4.0187
X5.034Y-4.0443
X5.034Y-4.0699
X5.034Y-4.0955
X5.034Y-4.1211
X5.034Y-4.1467
X5.034Y-4.1722
X5.034Y-4.1978
X5.034Y-4.2234
X5.034Y-4.249
X5.2023Y-3.2313
X5.2023Y-3.2569
X5.2023Y-3.2825
X5.2023Y-3.3081
X5.2023Y-3.3337
X5.2023Y-3.3593
X5.2023Y-3.3848
X5.2023Y-3.4104
X5.2023Y-3.436
X5.2023Y-3.4616
X5.2023Y-3.625
X5.2023Y-3.6506
X5.2023Y-3.6762
X5.2023Y-3.7018
X5.2023Y-3.7274
X5.2023Y-3.753
X5.2023Y-3.7785
X5.2023Y-3.8041
X5.2023Y-3.8297
X5.2023Y-3.8553
X5.2023Y-4.0187
X5.2023Y-4.0443
X5.2023Y-4.0699
X5.2023Y-4.0955
X5.2023Y-4.1211
X5.2023Y-4.1467
X5.2023Y-4.1722
X5.2023Y-4.1978
X5.2023Y-4.2234
X5.2023Y-4.249
X5.4277Y-3.2313
X5.4277Y-3.2569
X5.4277Y-3.2825
X5.4277Y-3.3081
X5.4277Y-3.3337
X5.4277Y-3.3593
X5.4277Y-3.3848
X5.4277Y-3.4104
X5.4277Y-3.436
X5.4277Y-3.4616
X5.4277Y-3.625
X5.4277Y-3.6506
X5.4277Y-3.6762
X5.4277Y-3.7018
X5.4277Y-3.7274
X5.4277Y-3.753
X5.4277Y-3.7785
X5.4277Y-3.8041
X5.4277Y-3.8297
X5.4277Y-3.8553
X5.4277Y-4.0187
X5.4277Y-4.0443
X5.4277Y-4.0699
X5.4277Y-4.0955
X5.4277Y-4.1211
X5.4277Y-4.1467
X5.4277Y-4.1722
X5.4277Y-4.1978
X5.4277Y-4.2234
X5.4277Y-4.249
T0
M30
