%TF.GenerationSoftware,KiCad,Pcbnew,6.0.9*%
%TF.CreationDate,2023-01-31T22:29:55+01:00*%
%TF.ProjectId,hc245t-bypass-esd-panel,68633234-3574-42d6-9279-706173732d65,${revision}*%
%TF.SameCoordinates,Original*%
%TF.FileFunction,Copper,L2,Bot*%
%TF.FilePolarity,Positive*%
%FSLAX46Y46*%
G04 Gerber Fmt 4.6, Leading zero omitted, Abs format (unit mm)*
G04 Created by KiCad (PCBNEW 6.0.9) date 2023-01-31 22:29:55*
%MOMM*%
%LPD*%
G01*
G04 APERTURE LIST*
G04 Aperture macros list*
%AMRoundRect*
0 Rectangle with rounded corners*
0 $1 Rounding radius*
0 $2 $3 $4 $5 $6 $7 $8 $9 X,Y pos of 4 corners*
0 Add a 4 corners polygon primitive as box body*
4,1,4,$2,$3,$4,$5,$6,$7,$8,$9,$2,$3,0*
0 Add four circle primitives for the rounded corners*
1,1,$1+$1,$2,$3*
1,1,$1+$1,$4,$5*
1,1,$1+$1,$6,$7*
1,1,$1+$1,$8,$9*
0 Add four rect primitives between the rounded corners*
20,1,$1+$1,$2,$3,$4,$5,0*
20,1,$1+$1,$4,$5,$6,$7,0*
20,1,$1+$1,$6,$7,$8,$9,0*
20,1,$1+$1,$8,$9,$2,$3,0*%
G04 Aperture macros list end*
%TA.AperFunction,ComponentPad*%
%ADD10RoundRect,0.100000X-0.637500X-0.100000X0.637500X-0.100000X0.637500X0.100000X-0.637500X0.100000X0*%
%TD*%
%TA.AperFunction,Conductor*%
%ADD11C,0.250000*%
%TD*%
G04 APERTURE END LIST*
D10*
%TO.P,U1,1,A->B*%
%TO.N,unconnected-(U1-Pad1)*%
X102137500Y-82075000D03*
%TO.P,U1,2,A0*%
%TO.N,/D0*%
X102137500Y-82725000D03*
%TO.P,U1,3,A1*%
%TO.N,/D1*%
X102137500Y-83375000D03*
%TO.P,U1,4,A2*%
%TO.N,/D2*%
X102137500Y-84025000D03*
%TO.P,U1,5,A3*%
%TO.N,/D3*%
X102137500Y-84675000D03*
%TO.P,U1,6,A4*%
%TO.N,/D4*%
X102137500Y-85325000D03*
%TO.P,U1,7,A5*%
%TO.N,/D5*%
X102137500Y-85975000D03*
%TO.P,U1,8,A6*%
%TO.N,/D6*%
X102137500Y-86625000D03*
%TO.P,U1,9,A7*%
%TO.N,/D7*%
X102137500Y-87275000D03*
%TO.P,U1,10,GND*%
%TO.N,GND*%
X102137500Y-87925000D03*
%TO.P,U1,11,B7*%
%TO.N,/D7*%
X107862500Y-87925000D03*
%TO.P,U1,12,B6*%
%TO.N,/D6*%
X107862500Y-87275000D03*
%TO.P,U1,13,B5*%
%TO.N,/D5*%
X107862500Y-86625000D03*
%TO.P,U1,14,B4*%
%TO.N,/D4*%
X107862500Y-85975000D03*
%TO.P,U1,15,B3*%
%TO.N,/D3*%
X107862500Y-85325000D03*
%TO.P,U1,16,B2*%
%TO.N,/D2*%
X107862500Y-84675000D03*
%TO.P,U1,17,B1*%
%TO.N,/D1*%
X107862500Y-84025000D03*
%TO.P,U1,18,B0*%
%TO.N,/D0*%
X107862500Y-83375000D03*
%TO.P,U1,19,CE*%
%TO.N,unconnected-(U1-Pad19)*%
X107862500Y-82725000D03*
%TO.P,U1,20,VCC*%
%TO.N,VCC*%
X107862500Y-82075000D03*
%TD*%
%TO.P,U1,1,A->B*%
%TO.N,unconnected-(U1-Pad1)*%
X102137500Y-102075000D03*
%TO.P,U1,2,A0*%
%TO.N,/D0*%
X102137500Y-102725000D03*
%TO.P,U1,3,A1*%
%TO.N,/D1*%
X102137500Y-103375000D03*
%TO.P,U1,4,A2*%
%TO.N,/D2*%
X102137500Y-104025000D03*
%TO.P,U1,5,A3*%
%TO.N,/D3*%
X102137500Y-104675000D03*
%TO.P,U1,6,A4*%
%TO.N,/D4*%
X102137500Y-105325000D03*
%TO.P,U1,7,A5*%
%TO.N,/D5*%
X102137500Y-105975000D03*
%TO.P,U1,8,A6*%
%TO.N,/D6*%
X102137500Y-106625000D03*
%TO.P,U1,9,A7*%
%TO.N,/D7*%
X102137500Y-107275000D03*
%TO.P,U1,10,GND*%
%TO.N,GND*%
X102137500Y-107925000D03*
%TO.P,U1,11,B7*%
%TO.N,/D7*%
X107862500Y-107925000D03*
%TO.P,U1,12,B6*%
%TO.N,/D6*%
X107862500Y-107275000D03*
%TO.P,U1,13,B5*%
%TO.N,/D5*%
X107862500Y-106625000D03*
%TO.P,U1,14,B4*%
%TO.N,/D4*%
X107862500Y-105975000D03*
%TO.P,U1,15,B3*%
%TO.N,/D3*%
X107862500Y-105325000D03*
%TO.P,U1,16,B2*%
%TO.N,/D2*%
X107862500Y-104675000D03*
%TO.P,U1,17,B1*%
%TO.N,/D1*%
X107862500Y-104025000D03*
%TO.P,U1,18,B0*%
%TO.N,/D0*%
X107862500Y-103375000D03*
%TO.P,U1,19,CE*%
%TO.N,unconnected-(U1-Pad19)*%
X107862500Y-102725000D03*
%TO.P,U1,20,VCC*%
%TO.N,VCC*%
X107862500Y-102075000D03*
%TD*%
%TO.P,U1,1,A->B*%
%TO.N,unconnected-(U1-Pad1)*%
X122137500Y-82075000D03*
%TO.P,U1,2,A0*%
%TO.N,/D0*%
X122137500Y-82725000D03*
%TO.P,U1,3,A1*%
%TO.N,/D1*%
X122137500Y-83375000D03*
%TO.P,U1,4,A2*%
%TO.N,/D2*%
X122137500Y-84025000D03*
%TO.P,U1,5,A3*%
%TO.N,/D3*%
X122137500Y-84675000D03*
%TO.P,U1,6,A4*%
%TO.N,/D4*%
X122137500Y-85325000D03*
%TO.P,U1,7,A5*%
%TO.N,/D5*%
X122137500Y-85975000D03*
%TO.P,U1,8,A6*%
%TO.N,/D6*%
X122137500Y-86625000D03*
%TO.P,U1,9,A7*%
%TO.N,/D7*%
X122137500Y-87275000D03*
%TO.P,U1,10,GND*%
%TO.N,GND*%
X122137500Y-87925000D03*
%TO.P,U1,11,B7*%
%TO.N,/D7*%
X127862500Y-87925000D03*
%TO.P,U1,12,B6*%
%TO.N,/D6*%
X127862500Y-87275000D03*
%TO.P,U1,13,B5*%
%TO.N,/D5*%
X127862500Y-86625000D03*
%TO.P,U1,14,B4*%
%TO.N,/D4*%
X127862500Y-85975000D03*
%TO.P,U1,15,B3*%
%TO.N,/D3*%
X127862500Y-85325000D03*
%TO.P,U1,16,B2*%
%TO.N,/D2*%
X127862500Y-84675000D03*
%TO.P,U1,17,B1*%
%TO.N,/D1*%
X127862500Y-84025000D03*
%TO.P,U1,18,B0*%
%TO.N,/D0*%
X127862500Y-83375000D03*
%TO.P,U1,19,CE*%
%TO.N,unconnected-(U1-Pad19)*%
X127862500Y-82725000D03*
%TO.P,U1,20,VCC*%
%TO.N,VCC*%
X127862500Y-82075000D03*
%TD*%
%TO.P,U1,1,A->B*%
%TO.N,unconnected-(U1-Pad1)*%
X92137500Y-82075000D03*
%TO.P,U1,2,A0*%
%TO.N,/D0*%
X92137500Y-82725000D03*
%TO.P,U1,3,A1*%
%TO.N,/D1*%
X92137500Y-83375000D03*
%TO.P,U1,4,A2*%
%TO.N,/D2*%
X92137500Y-84025000D03*
%TO.P,U1,5,A3*%
%TO.N,/D3*%
X92137500Y-84675000D03*
%TO.P,U1,6,A4*%
%TO.N,/D4*%
X92137500Y-85325000D03*
%TO.P,U1,7,A5*%
%TO.N,/D5*%
X92137500Y-85975000D03*
%TO.P,U1,8,A6*%
%TO.N,/D6*%
X92137500Y-86625000D03*
%TO.P,U1,9,A7*%
%TO.N,/D7*%
X92137500Y-87275000D03*
%TO.P,U1,10,GND*%
%TO.N,GND*%
X92137500Y-87925000D03*
%TO.P,U1,11,B7*%
%TO.N,/D7*%
X97862500Y-87925000D03*
%TO.P,U1,12,B6*%
%TO.N,/D6*%
X97862500Y-87275000D03*
%TO.P,U1,13,B5*%
%TO.N,/D5*%
X97862500Y-86625000D03*
%TO.P,U1,14,B4*%
%TO.N,/D4*%
X97862500Y-85975000D03*
%TO.P,U1,15,B3*%
%TO.N,/D3*%
X97862500Y-85325000D03*
%TO.P,U1,16,B2*%
%TO.N,/D2*%
X97862500Y-84675000D03*
%TO.P,U1,17,B1*%
%TO.N,/D1*%
X97862500Y-84025000D03*
%TO.P,U1,18,B0*%
%TO.N,/D0*%
X97862500Y-83375000D03*
%TO.P,U1,19,CE*%
%TO.N,unconnected-(U1-Pad19)*%
X97862500Y-82725000D03*
%TO.P,U1,20,VCC*%
%TO.N,VCC*%
X97862500Y-82075000D03*
%TD*%
%TO.P,U1,1,A->B*%
%TO.N,unconnected-(U1-Pad1)*%
X112137500Y-82075000D03*
%TO.P,U1,2,A0*%
%TO.N,/D0*%
X112137500Y-82725000D03*
%TO.P,U1,3,A1*%
%TO.N,/D1*%
X112137500Y-83375000D03*
%TO.P,U1,4,A2*%
%TO.N,/D2*%
X112137500Y-84025000D03*
%TO.P,U1,5,A3*%
%TO.N,/D3*%
X112137500Y-84675000D03*
%TO.P,U1,6,A4*%
%TO.N,/D4*%
X112137500Y-85325000D03*
%TO.P,U1,7,A5*%
%TO.N,/D5*%
X112137500Y-85975000D03*
%TO.P,U1,8,A6*%
%TO.N,/D6*%
X112137500Y-86625000D03*
%TO.P,U1,9,A7*%
%TO.N,/D7*%
X112137500Y-87275000D03*
%TO.P,U1,10,GND*%
%TO.N,GND*%
X112137500Y-87925000D03*
%TO.P,U1,11,B7*%
%TO.N,/D7*%
X117862500Y-87925000D03*
%TO.P,U1,12,B6*%
%TO.N,/D6*%
X117862500Y-87275000D03*
%TO.P,U1,13,B5*%
%TO.N,/D5*%
X117862500Y-86625000D03*
%TO.P,U1,14,B4*%
%TO.N,/D4*%
X117862500Y-85975000D03*
%TO.P,U1,15,B3*%
%TO.N,/D3*%
X117862500Y-85325000D03*
%TO.P,U1,16,B2*%
%TO.N,/D2*%
X117862500Y-84675000D03*
%TO.P,U1,17,B1*%
%TO.N,/D1*%
X117862500Y-84025000D03*
%TO.P,U1,18,B0*%
%TO.N,/D0*%
X117862500Y-83375000D03*
%TO.P,U1,19,CE*%
%TO.N,unconnected-(U1-Pad19)*%
X117862500Y-82725000D03*
%TO.P,U1,20,VCC*%
%TO.N,VCC*%
X117862500Y-82075000D03*
%TD*%
%TO.P,U1,1,A->B*%
%TO.N,unconnected-(U1-Pad1)*%
X92137500Y-92075000D03*
%TO.P,U1,2,A0*%
%TO.N,/D0*%
X92137500Y-92725000D03*
%TO.P,U1,3,A1*%
%TO.N,/D1*%
X92137500Y-93375000D03*
%TO.P,U1,4,A2*%
%TO.N,/D2*%
X92137500Y-94025000D03*
%TO.P,U1,5,A3*%
%TO.N,/D3*%
X92137500Y-94675000D03*
%TO.P,U1,6,A4*%
%TO.N,/D4*%
X92137500Y-95325000D03*
%TO.P,U1,7,A5*%
%TO.N,/D5*%
X92137500Y-95975000D03*
%TO.P,U1,8,A6*%
%TO.N,/D6*%
X92137500Y-96625000D03*
%TO.P,U1,9,A7*%
%TO.N,/D7*%
X92137500Y-97275000D03*
%TO.P,U1,10,GND*%
%TO.N,GND*%
X92137500Y-97925000D03*
%TO.P,U1,11,B7*%
%TO.N,/D7*%
X97862500Y-97925000D03*
%TO.P,U1,12,B6*%
%TO.N,/D6*%
X97862500Y-97275000D03*
%TO.P,U1,13,B5*%
%TO.N,/D5*%
X97862500Y-96625000D03*
%TO.P,U1,14,B4*%
%TO.N,/D4*%
X97862500Y-95975000D03*
%TO.P,U1,15,B3*%
%TO.N,/D3*%
X97862500Y-95325000D03*
%TO.P,U1,16,B2*%
%TO.N,/D2*%
X97862500Y-94675000D03*
%TO.P,U1,17,B1*%
%TO.N,/D1*%
X97862500Y-94025000D03*
%TO.P,U1,18,B0*%
%TO.N,/D0*%
X97862500Y-93375000D03*
%TO.P,U1,19,CE*%
%TO.N,unconnected-(U1-Pad19)*%
X97862500Y-92725000D03*
%TO.P,U1,20,VCC*%
%TO.N,VCC*%
X97862500Y-92075000D03*
%TD*%
%TO.P,U1,1,A->B*%
%TO.N,unconnected-(U1-Pad1)*%
X112137500Y-102075000D03*
%TO.P,U1,2,A0*%
%TO.N,/D0*%
X112137500Y-102725000D03*
%TO.P,U1,3,A1*%
%TO.N,/D1*%
X112137500Y-103375000D03*
%TO.P,U1,4,A2*%
%TO.N,/D2*%
X112137500Y-104025000D03*
%TO.P,U1,5,A3*%
%TO.N,/D3*%
X112137500Y-104675000D03*
%TO.P,U1,6,A4*%
%TO.N,/D4*%
X112137500Y-105325000D03*
%TO.P,U1,7,A5*%
%TO.N,/D5*%
X112137500Y-105975000D03*
%TO.P,U1,8,A6*%
%TO.N,/D6*%
X112137500Y-106625000D03*
%TO.P,U1,9,A7*%
%TO.N,/D7*%
X112137500Y-107275000D03*
%TO.P,U1,10,GND*%
%TO.N,GND*%
X112137500Y-107925000D03*
%TO.P,U1,11,B7*%
%TO.N,/D7*%
X117862500Y-107925000D03*
%TO.P,U1,12,B6*%
%TO.N,/D6*%
X117862500Y-107275000D03*
%TO.P,U1,13,B5*%
%TO.N,/D5*%
X117862500Y-106625000D03*
%TO.P,U1,14,B4*%
%TO.N,/D4*%
X117862500Y-105975000D03*
%TO.P,U1,15,B3*%
%TO.N,/D3*%
X117862500Y-105325000D03*
%TO.P,U1,16,B2*%
%TO.N,/D2*%
X117862500Y-104675000D03*
%TO.P,U1,17,B1*%
%TO.N,/D1*%
X117862500Y-104025000D03*
%TO.P,U1,18,B0*%
%TO.N,/D0*%
X117862500Y-103375000D03*
%TO.P,U1,19,CE*%
%TO.N,unconnected-(U1-Pad19)*%
X117862500Y-102725000D03*
%TO.P,U1,20,VCC*%
%TO.N,VCC*%
X117862500Y-102075000D03*
%TD*%
%TO.P,U1,1,A->B*%
%TO.N,unconnected-(U1-Pad1)*%
X132137500Y-92075000D03*
%TO.P,U1,2,A0*%
%TO.N,/D0*%
X132137500Y-92725000D03*
%TO.P,U1,3,A1*%
%TO.N,/D1*%
X132137500Y-93375000D03*
%TO.P,U1,4,A2*%
%TO.N,/D2*%
X132137500Y-94025000D03*
%TO.P,U1,5,A3*%
%TO.N,/D3*%
X132137500Y-94675000D03*
%TO.P,U1,6,A4*%
%TO.N,/D4*%
X132137500Y-95325000D03*
%TO.P,U1,7,A5*%
%TO.N,/D5*%
X132137500Y-95975000D03*
%TO.P,U1,8,A6*%
%TO.N,/D6*%
X132137500Y-96625000D03*
%TO.P,U1,9,A7*%
%TO.N,/D7*%
X132137500Y-97275000D03*
%TO.P,U1,10,GND*%
%TO.N,GND*%
X132137500Y-97925000D03*
%TO.P,U1,11,B7*%
%TO.N,/D7*%
X137862500Y-97925000D03*
%TO.P,U1,12,B6*%
%TO.N,/D6*%
X137862500Y-97275000D03*
%TO.P,U1,13,B5*%
%TO.N,/D5*%
X137862500Y-96625000D03*
%TO.P,U1,14,B4*%
%TO.N,/D4*%
X137862500Y-95975000D03*
%TO.P,U1,15,B3*%
%TO.N,/D3*%
X137862500Y-95325000D03*
%TO.P,U1,16,B2*%
%TO.N,/D2*%
X137862500Y-94675000D03*
%TO.P,U1,17,B1*%
%TO.N,/D1*%
X137862500Y-94025000D03*
%TO.P,U1,18,B0*%
%TO.N,/D0*%
X137862500Y-93375000D03*
%TO.P,U1,19,CE*%
%TO.N,unconnected-(U1-Pad19)*%
X137862500Y-92725000D03*
%TO.P,U1,20,VCC*%
%TO.N,VCC*%
X137862500Y-92075000D03*
%TD*%
%TO.P,U1,1,A->B*%
%TO.N,unconnected-(U1-Pad1)*%
X132137500Y-102075000D03*
%TO.P,U1,2,A0*%
%TO.N,/D0*%
X132137500Y-102725000D03*
%TO.P,U1,3,A1*%
%TO.N,/D1*%
X132137500Y-103375000D03*
%TO.P,U1,4,A2*%
%TO.N,/D2*%
X132137500Y-104025000D03*
%TO.P,U1,5,A3*%
%TO.N,/D3*%
X132137500Y-104675000D03*
%TO.P,U1,6,A4*%
%TO.N,/D4*%
X132137500Y-105325000D03*
%TO.P,U1,7,A5*%
%TO.N,/D5*%
X132137500Y-105975000D03*
%TO.P,U1,8,A6*%
%TO.N,/D6*%
X132137500Y-106625000D03*
%TO.P,U1,9,A7*%
%TO.N,/D7*%
X132137500Y-107275000D03*
%TO.P,U1,10,GND*%
%TO.N,GND*%
X132137500Y-107925000D03*
%TO.P,U1,11,B7*%
%TO.N,/D7*%
X137862500Y-107925000D03*
%TO.P,U1,12,B6*%
%TO.N,/D6*%
X137862500Y-107275000D03*
%TO.P,U1,13,B5*%
%TO.N,/D5*%
X137862500Y-106625000D03*
%TO.P,U1,14,B4*%
%TO.N,/D4*%
X137862500Y-105975000D03*
%TO.P,U1,15,B3*%
%TO.N,/D3*%
X137862500Y-105325000D03*
%TO.P,U1,16,B2*%
%TO.N,/D2*%
X137862500Y-104675000D03*
%TO.P,U1,17,B1*%
%TO.N,/D1*%
X137862500Y-104025000D03*
%TO.P,U1,18,B0*%
%TO.N,/D0*%
X137862500Y-103375000D03*
%TO.P,U1,19,CE*%
%TO.N,unconnected-(U1-Pad19)*%
X137862500Y-102725000D03*
%TO.P,U1,20,VCC*%
%TO.N,VCC*%
X137862500Y-102075000D03*
%TD*%
%TO.P,U1,1,A->B*%
%TO.N,unconnected-(U1-Pad1)*%
X122137500Y-102075000D03*
%TO.P,U1,2,A0*%
%TO.N,/D0*%
X122137500Y-102725000D03*
%TO.P,U1,3,A1*%
%TO.N,/D1*%
X122137500Y-103375000D03*
%TO.P,U1,4,A2*%
%TO.N,/D2*%
X122137500Y-104025000D03*
%TO.P,U1,5,A3*%
%TO.N,/D3*%
X122137500Y-104675000D03*
%TO.P,U1,6,A4*%
%TO.N,/D4*%
X122137500Y-105325000D03*
%TO.P,U1,7,A5*%
%TO.N,/D5*%
X122137500Y-105975000D03*
%TO.P,U1,8,A6*%
%TO.N,/D6*%
X122137500Y-106625000D03*
%TO.P,U1,9,A7*%
%TO.N,/D7*%
X122137500Y-107275000D03*
%TO.P,U1,10,GND*%
%TO.N,GND*%
X122137500Y-107925000D03*
%TO.P,U1,11,B7*%
%TO.N,/D7*%
X127862500Y-107925000D03*
%TO.P,U1,12,B6*%
%TO.N,/D6*%
X127862500Y-107275000D03*
%TO.P,U1,13,B5*%
%TO.N,/D5*%
X127862500Y-106625000D03*
%TO.P,U1,14,B4*%
%TO.N,/D4*%
X127862500Y-105975000D03*
%TO.P,U1,15,B3*%
%TO.N,/D3*%
X127862500Y-105325000D03*
%TO.P,U1,16,B2*%
%TO.N,/D2*%
X127862500Y-104675000D03*
%TO.P,U1,17,B1*%
%TO.N,/D1*%
X127862500Y-104025000D03*
%TO.P,U1,18,B0*%
%TO.N,/D0*%
X127862500Y-103375000D03*
%TO.P,U1,19,CE*%
%TO.N,unconnected-(U1-Pad19)*%
X127862500Y-102725000D03*
%TO.P,U1,20,VCC*%
%TO.N,VCC*%
X127862500Y-102075000D03*
%TD*%
%TO.P,U1,1,A->B*%
%TO.N,unconnected-(U1-Pad1)*%
X122137500Y-92075000D03*
%TO.P,U1,2,A0*%
%TO.N,/D0*%
X122137500Y-92725000D03*
%TO.P,U1,3,A1*%
%TO.N,/D1*%
X122137500Y-93375000D03*
%TO.P,U1,4,A2*%
%TO.N,/D2*%
X122137500Y-94025000D03*
%TO.P,U1,5,A3*%
%TO.N,/D3*%
X122137500Y-94675000D03*
%TO.P,U1,6,A4*%
%TO.N,/D4*%
X122137500Y-95325000D03*
%TO.P,U1,7,A5*%
%TO.N,/D5*%
X122137500Y-95975000D03*
%TO.P,U1,8,A6*%
%TO.N,/D6*%
X122137500Y-96625000D03*
%TO.P,U1,9,A7*%
%TO.N,/D7*%
X122137500Y-97275000D03*
%TO.P,U1,10,GND*%
%TO.N,GND*%
X122137500Y-97925000D03*
%TO.P,U1,11,B7*%
%TO.N,/D7*%
X127862500Y-97925000D03*
%TO.P,U1,12,B6*%
%TO.N,/D6*%
X127862500Y-97275000D03*
%TO.P,U1,13,B5*%
%TO.N,/D5*%
X127862500Y-96625000D03*
%TO.P,U1,14,B4*%
%TO.N,/D4*%
X127862500Y-95975000D03*
%TO.P,U1,15,B3*%
%TO.N,/D3*%
X127862500Y-95325000D03*
%TO.P,U1,16,B2*%
%TO.N,/D2*%
X127862500Y-94675000D03*
%TO.P,U1,17,B1*%
%TO.N,/D1*%
X127862500Y-94025000D03*
%TO.P,U1,18,B0*%
%TO.N,/D0*%
X127862500Y-93375000D03*
%TO.P,U1,19,CE*%
%TO.N,unconnected-(U1-Pad19)*%
X127862500Y-92725000D03*
%TO.P,U1,20,VCC*%
%TO.N,VCC*%
X127862500Y-92075000D03*
%TD*%
%TO.P,U1,1,A->B*%
%TO.N,unconnected-(U1-Pad1)*%
X92137500Y-102075000D03*
%TO.P,U1,2,A0*%
%TO.N,/D0*%
X92137500Y-102725000D03*
%TO.P,U1,3,A1*%
%TO.N,/D1*%
X92137500Y-103375000D03*
%TO.P,U1,4,A2*%
%TO.N,/D2*%
X92137500Y-104025000D03*
%TO.P,U1,5,A3*%
%TO.N,/D3*%
X92137500Y-104675000D03*
%TO.P,U1,6,A4*%
%TO.N,/D4*%
X92137500Y-105325000D03*
%TO.P,U1,7,A5*%
%TO.N,/D5*%
X92137500Y-105975000D03*
%TO.P,U1,8,A6*%
%TO.N,/D6*%
X92137500Y-106625000D03*
%TO.P,U1,9,A7*%
%TO.N,/D7*%
X92137500Y-107275000D03*
%TO.P,U1,10,GND*%
%TO.N,GND*%
X92137500Y-107925000D03*
%TO.P,U1,11,B7*%
%TO.N,/D7*%
X97862500Y-107925000D03*
%TO.P,U1,12,B6*%
%TO.N,/D6*%
X97862500Y-107275000D03*
%TO.P,U1,13,B5*%
%TO.N,/D5*%
X97862500Y-106625000D03*
%TO.P,U1,14,B4*%
%TO.N,/D4*%
X97862500Y-105975000D03*
%TO.P,U1,15,B3*%
%TO.N,/D3*%
X97862500Y-105325000D03*
%TO.P,U1,16,B2*%
%TO.N,/D2*%
X97862500Y-104675000D03*
%TO.P,U1,17,B1*%
%TO.N,/D1*%
X97862500Y-104025000D03*
%TO.P,U1,18,B0*%
%TO.N,/D0*%
X97862500Y-103375000D03*
%TO.P,U1,19,CE*%
%TO.N,unconnected-(U1-Pad19)*%
X97862500Y-102725000D03*
%TO.P,U1,20,VCC*%
%TO.N,VCC*%
X97862500Y-102075000D03*
%TD*%
%TO.P,U1,1,A->B*%
%TO.N,unconnected-(U1-Pad1)*%
X102137500Y-92075000D03*
%TO.P,U1,2,A0*%
%TO.N,/D0*%
X102137500Y-92725000D03*
%TO.P,U1,3,A1*%
%TO.N,/D1*%
X102137500Y-93375000D03*
%TO.P,U1,4,A2*%
%TO.N,/D2*%
X102137500Y-94025000D03*
%TO.P,U1,5,A3*%
%TO.N,/D3*%
X102137500Y-94675000D03*
%TO.P,U1,6,A4*%
%TO.N,/D4*%
X102137500Y-95325000D03*
%TO.P,U1,7,A5*%
%TO.N,/D5*%
X102137500Y-95975000D03*
%TO.P,U1,8,A6*%
%TO.N,/D6*%
X102137500Y-96625000D03*
%TO.P,U1,9,A7*%
%TO.N,/D7*%
X102137500Y-97275000D03*
%TO.P,U1,10,GND*%
%TO.N,GND*%
X102137500Y-97925000D03*
%TO.P,U1,11,B7*%
%TO.N,/D7*%
X107862500Y-97925000D03*
%TO.P,U1,12,B6*%
%TO.N,/D6*%
X107862500Y-97275000D03*
%TO.P,U1,13,B5*%
%TO.N,/D5*%
X107862500Y-96625000D03*
%TO.P,U1,14,B4*%
%TO.N,/D4*%
X107862500Y-95975000D03*
%TO.P,U1,15,B3*%
%TO.N,/D3*%
X107862500Y-95325000D03*
%TO.P,U1,16,B2*%
%TO.N,/D2*%
X107862500Y-94675000D03*
%TO.P,U1,17,B1*%
%TO.N,/D1*%
X107862500Y-94025000D03*
%TO.P,U1,18,B0*%
%TO.N,/D0*%
X107862500Y-93375000D03*
%TO.P,U1,19,CE*%
%TO.N,unconnected-(U1-Pad19)*%
X107862500Y-92725000D03*
%TO.P,U1,20,VCC*%
%TO.N,VCC*%
X107862500Y-92075000D03*
%TD*%
%TO.P,U1,1,A->B*%
%TO.N,unconnected-(U1-Pad1)*%
X112137500Y-92075000D03*
%TO.P,U1,2,A0*%
%TO.N,/D0*%
X112137500Y-92725000D03*
%TO.P,U1,3,A1*%
%TO.N,/D1*%
X112137500Y-93375000D03*
%TO.P,U1,4,A2*%
%TO.N,/D2*%
X112137500Y-94025000D03*
%TO.P,U1,5,A3*%
%TO.N,/D3*%
X112137500Y-94675000D03*
%TO.P,U1,6,A4*%
%TO.N,/D4*%
X112137500Y-95325000D03*
%TO.P,U1,7,A5*%
%TO.N,/D5*%
X112137500Y-95975000D03*
%TO.P,U1,8,A6*%
%TO.N,/D6*%
X112137500Y-96625000D03*
%TO.P,U1,9,A7*%
%TO.N,/D7*%
X112137500Y-97275000D03*
%TO.P,U1,10,GND*%
%TO.N,GND*%
X112137500Y-97925000D03*
%TO.P,U1,11,B7*%
%TO.N,/D7*%
X117862500Y-97925000D03*
%TO.P,U1,12,B6*%
%TO.N,/D6*%
X117862500Y-97275000D03*
%TO.P,U1,13,B5*%
%TO.N,/D5*%
X117862500Y-96625000D03*
%TO.P,U1,14,B4*%
%TO.N,/D4*%
X117862500Y-95975000D03*
%TO.P,U1,15,B3*%
%TO.N,/D3*%
X117862500Y-95325000D03*
%TO.P,U1,16,B2*%
%TO.N,/D2*%
X117862500Y-94675000D03*
%TO.P,U1,17,B1*%
%TO.N,/D1*%
X117862500Y-94025000D03*
%TO.P,U1,18,B0*%
%TO.N,/D0*%
X117862500Y-93375000D03*
%TO.P,U1,19,CE*%
%TO.N,unconnected-(U1-Pad19)*%
X117862500Y-92725000D03*
%TO.P,U1,20,VCC*%
%TO.N,VCC*%
X117862500Y-92075000D03*
%TD*%
%TO.P,U1,1,A->B*%
%TO.N,unconnected-(U1-Pad1)*%
X132137500Y-82075000D03*
%TO.P,U1,2,A0*%
%TO.N,/D0*%
X132137500Y-82725000D03*
%TO.P,U1,3,A1*%
%TO.N,/D1*%
X132137500Y-83375000D03*
%TO.P,U1,4,A2*%
%TO.N,/D2*%
X132137500Y-84025000D03*
%TO.P,U1,5,A3*%
%TO.N,/D3*%
X132137500Y-84675000D03*
%TO.P,U1,6,A4*%
%TO.N,/D4*%
X132137500Y-85325000D03*
%TO.P,U1,7,A5*%
%TO.N,/D5*%
X132137500Y-85975000D03*
%TO.P,U1,8,A6*%
%TO.N,/D6*%
X132137500Y-86625000D03*
%TO.P,U1,9,A7*%
%TO.N,/D7*%
X132137500Y-87275000D03*
%TO.P,U1,10,GND*%
%TO.N,GND*%
X132137500Y-87925000D03*
%TO.P,U1,11,B7*%
%TO.N,/D7*%
X137862500Y-87925000D03*
%TO.P,U1,12,B6*%
%TO.N,/D6*%
X137862500Y-87275000D03*
%TO.P,U1,13,B5*%
%TO.N,/D5*%
X137862500Y-86625000D03*
%TO.P,U1,14,B4*%
%TO.N,/D4*%
X137862500Y-85975000D03*
%TO.P,U1,15,B3*%
%TO.N,/D3*%
X137862500Y-85325000D03*
%TO.P,U1,16,B2*%
%TO.N,/D2*%
X137862500Y-84675000D03*
%TO.P,U1,17,B1*%
%TO.N,/D1*%
X137862500Y-84025000D03*
%TO.P,U1,18,B0*%
%TO.N,/D0*%
X137862500Y-83375000D03*
%TO.P,U1,19,CE*%
%TO.N,unconnected-(U1-Pad19)*%
X137862500Y-82725000D03*
%TO.P,U1,20,VCC*%
%TO.N,VCC*%
X137862500Y-82075000D03*
%TD*%
D11*
%TO.N,/D1*%
X125625000Y-93375000D02*
X126275000Y-94025000D01*
X126275000Y-84025000D02*
X127862500Y-84025000D01*
X102137500Y-93375000D02*
X105625000Y-93375000D01*
X106275000Y-94025000D02*
X107862500Y-94025000D01*
X112137500Y-93375000D02*
X115625000Y-93375000D01*
X96275000Y-84025000D02*
X97862500Y-84025000D01*
X105625000Y-103375000D02*
X106275000Y-104025000D01*
X122137500Y-103375000D02*
X125625000Y-103375000D01*
X92137500Y-83375000D02*
X95625000Y-83375000D01*
X116275000Y-94025000D02*
X117862500Y-94025000D01*
X92137500Y-103375000D02*
X95625000Y-103375000D01*
X95625000Y-103375000D02*
X96275000Y-104025000D01*
X95625000Y-93375000D02*
X96275000Y-94025000D01*
X115625000Y-103375000D02*
X116275000Y-104025000D01*
X115625000Y-93375000D02*
X116275000Y-94025000D01*
X136275000Y-94025000D02*
X137862500Y-94025000D01*
X95625000Y-83375000D02*
X96275000Y-84025000D01*
X105625000Y-93375000D02*
X106275000Y-94025000D01*
X116275000Y-84025000D02*
X117862500Y-84025000D01*
X126275000Y-94025000D02*
X127862500Y-94025000D01*
X122137500Y-93375000D02*
X125625000Y-93375000D01*
X115625000Y-83375000D02*
X116275000Y-84025000D01*
X136275000Y-104025000D02*
X137862500Y-104025000D01*
X112137500Y-103375000D02*
X115625000Y-103375000D01*
X132137500Y-103375000D02*
X135625000Y-103375000D01*
X125625000Y-103375000D02*
X126275000Y-104025000D01*
X102137500Y-103375000D02*
X105625000Y-103375000D01*
X116275000Y-104025000D02*
X117862500Y-104025000D01*
X136275000Y-84025000D02*
X137862500Y-84025000D01*
X132137500Y-83375000D02*
X135625000Y-83375000D01*
X106275000Y-84025000D02*
X107862500Y-84025000D01*
X126275000Y-104025000D02*
X127862500Y-104025000D01*
X112137500Y-83375000D02*
X115625000Y-83375000D01*
X105625000Y-83375000D02*
X106275000Y-84025000D01*
X96275000Y-104025000D02*
X97862500Y-104025000D01*
X96275000Y-94025000D02*
X97862500Y-94025000D01*
X102137500Y-83375000D02*
X105625000Y-83375000D01*
X122137500Y-83375000D02*
X125625000Y-83375000D01*
X125625000Y-83375000D02*
X126275000Y-84025000D01*
X132137500Y-93375000D02*
X135625000Y-93375000D01*
X135625000Y-93375000D02*
X136275000Y-94025000D01*
X135625000Y-103375000D02*
X136275000Y-104025000D01*
X92137500Y-93375000D02*
X95625000Y-93375000D01*
X135625000Y-83375000D02*
X136275000Y-84025000D01*
X106275000Y-104025000D02*
X107862500Y-104025000D01*
%TO.N,/D3*%
X112137500Y-104675000D02*
X114925000Y-104675000D01*
X125575000Y-95325000D02*
X127862500Y-95325000D01*
X92137500Y-84675000D02*
X94925000Y-84675000D01*
X115575000Y-105325000D02*
X117862500Y-105325000D01*
X122137500Y-94675000D02*
X124925000Y-94675000D01*
X125575000Y-85325000D02*
X127862500Y-85325000D01*
X134925000Y-94675000D02*
X135575000Y-95325000D01*
X134925000Y-104675000D02*
X135575000Y-105325000D01*
X104925000Y-104675000D02*
X105575000Y-105325000D01*
X122137500Y-104675000D02*
X124925000Y-104675000D01*
X102137500Y-104675000D02*
X104925000Y-104675000D01*
X115575000Y-85325000D02*
X117862500Y-85325000D01*
X135575000Y-85325000D02*
X137862500Y-85325000D01*
X94925000Y-104675000D02*
X95575000Y-105325000D01*
X114925000Y-104675000D02*
X115575000Y-105325000D01*
X125575000Y-105325000D02*
X127862500Y-105325000D01*
X115575000Y-95325000D02*
X117862500Y-95325000D01*
X94925000Y-84675000D02*
X95575000Y-85325000D01*
X102137500Y-84675000D02*
X104925000Y-84675000D01*
X135575000Y-105325000D02*
X137862500Y-105325000D01*
X95575000Y-95325000D02*
X97862500Y-95325000D01*
X114925000Y-94675000D02*
X115575000Y-95325000D01*
X114925000Y-84675000D02*
X115575000Y-85325000D01*
X132137500Y-94675000D02*
X134925000Y-94675000D01*
X135575000Y-95325000D02*
X137862500Y-95325000D01*
X124925000Y-94675000D02*
X125575000Y-95325000D01*
X132137500Y-104675000D02*
X134925000Y-104675000D01*
X124925000Y-104675000D02*
X125575000Y-105325000D01*
X95575000Y-105325000D02*
X97862500Y-105325000D01*
X122137500Y-84675000D02*
X124925000Y-84675000D01*
X112137500Y-84675000D02*
X114925000Y-84675000D01*
X134925000Y-84675000D02*
X135575000Y-85325000D01*
X95575000Y-85325000D02*
X97862500Y-85325000D01*
X105575000Y-105325000D02*
X107862500Y-105325000D01*
X94925000Y-94675000D02*
X95575000Y-95325000D01*
X102137500Y-94675000D02*
X104925000Y-94675000D01*
X105575000Y-95325000D02*
X107862500Y-95325000D01*
X92137500Y-94675000D02*
X94925000Y-94675000D01*
X92137500Y-104675000D02*
X94925000Y-104675000D01*
X104925000Y-84675000D02*
X105575000Y-85325000D01*
X124925000Y-84675000D02*
X125575000Y-85325000D01*
X112137500Y-94675000D02*
X114925000Y-94675000D01*
X105575000Y-85325000D02*
X107862500Y-85325000D01*
X132137500Y-84675000D02*
X134925000Y-84675000D01*
X104925000Y-94675000D02*
X105575000Y-95325000D01*
%TO.N,/D2*%
X135925000Y-84675000D02*
X137862500Y-84675000D01*
X132137500Y-104025000D02*
X135275000Y-104025000D01*
X125925000Y-84675000D02*
X127862500Y-84675000D01*
X95925000Y-94675000D02*
X97862500Y-94675000D01*
X105925000Y-84675000D02*
X107862500Y-84675000D01*
X92137500Y-84025000D02*
X95275000Y-84025000D01*
X132137500Y-84025000D02*
X135275000Y-84025000D01*
X115275000Y-94025000D02*
X115925000Y-94675000D01*
X115925000Y-84675000D02*
X117862500Y-84675000D01*
X125925000Y-104675000D02*
X127862500Y-104675000D01*
X135925000Y-104675000D02*
X137862500Y-104675000D01*
X95925000Y-104675000D02*
X97862500Y-104675000D01*
X112137500Y-94025000D02*
X115275000Y-94025000D01*
X105275000Y-84025000D02*
X105925000Y-84675000D01*
X105275000Y-104025000D02*
X105925000Y-104675000D01*
X105275000Y-94025000D02*
X105925000Y-94675000D01*
X102137500Y-84025000D02*
X105275000Y-84025000D01*
X115925000Y-94675000D02*
X117862500Y-94675000D01*
X115275000Y-104025000D02*
X115925000Y-104675000D01*
X122137500Y-84025000D02*
X125275000Y-84025000D01*
X125925000Y-94675000D02*
X127862500Y-94675000D01*
X122137500Y-94025000D02*
X125275000Y-94025000D01*
X105925000Y-94675000D02*
X107862500Y-94675000D01*
X115275000Y-84025000D02*
X115925000Y-84675000D01*
X135275000Y-84025000D02*
X135925000Y-84675000D01*
X92137500Y-94025000D02*
X95275000Y-94025000D01*
X112137500Y-104025000D02*
X115275000Y-104025000D01*
X102137500Y-94025000D02*
X105275000Y-94025000D01*
X95925000Y-84675000D02*
X97862500Y-84675000D01*
X135275000Y-104025000D02*
X135925000Y-104675000D01*
X122137500Y-104025000D02*
X125275000Y-104025000D01*
X125275000Y-104025000D02*
X125925000Y-104675000D01*
X135275000Y-94025000D02*
X135925000Y-94675000D01*
X102137500Y-104025000D02*
X105275000Y-104025000D01*
X95275000Y-94025000D02*
X95925000Y-94675000D01*
X92137500Y-104025000D02*
X95275000Y-104025000D01*
X112137500Y-84025000D02*
X115275000Y-84025000D01*
X125275000Y-84025000D02*
X125925000Y-84675000D01*
X95275000Y-84025000D02*
X95925000Y-84675000D01*
X125275000Y-94025000D02*
X125925000Y-94675000D01*
X135925000Y-94675000D02*
X137862500Y-94675000D01*
X95275000Y-104025000D02*
X95925000Y-104675000D01*
X105925000Y-104675000D02*
X107862500Y-104675000D01*
X132137500Y-94025000D02*
X135275000Y-94025000D01*
X115925000Y-104675000D02*
X117862500Y-104675000D01*
%TO.N,/D0*%
X126625000Y-83375000D02*
X127862500Y-83375000D01*
X122137500Y-102725000D02*
X125975000Y-102725000D01*
X125975000Y-82725000D02*
X126625000Y-83375000D01*
X112137500Y-82725000D02*
X115975000Y-82725000D01*
X135975000Y-92725000D02*
X136625000Y-93375000D01*
X126625000Y-93375000D02*
X127862500Y-93375000D01*
X132137500Y-82725000D02*
X135975000Y-82725000D01*
X92137500Y-102725000D02*
X95975000Y-102725000D01*
X105975000Y-92725000D02*
X106625000Y-93375000D01*
X106625000Y-93375000D02*
X107862500Y-93375000D01*
X116625000Y-93375000D02*
X117862500Y-93375000D01*
X132137500Y-92725000D02*
X135975000Y-92725000D01*
X95975000Y-82725000D02*
X96625000Y-83375000D01*
X102137500Y-92725000D02*
X105975000Y-92725000D01*
X116625000Y-103375000D02*
X117862500Y-103375000D01*
X102137500Y-82725000D02*
X105975000Y-82725000D01*
X106625000Y-103375000D02*
X107862500Y-103375000D01*
X92137500Y-82725000D02*
X95975000Y-82725000D01*
X122137500Y-82725000D02*
X125975000Y-82725000D01*
X112137500Y-92725000D02*
X115975000Y-92725000D01*
X126625000Y-103375000D02*
X127862500Y-103375000D01*
X105975000Y-82725000D02*
X106625000Y-83375000D01*
X95975000Y-102725000D02*
X96625000Y-103375000D01*
X122137500Y-92725000D02*
X125975000Y-92725000D01*
X106625000Y-83375000D02*
X107862500Y-83375000D01*
X136625000Y-83375000D02*
X137862500Y-83375000D01*
X115975000Y-82725000D02*
X116625000Y-83375000D01*
X132137500Y-102725000D02*
X135975000Y-102725000D01*
X135975000Y-82725000D02*
X136625000Y-83375000D01*
X136625000Y-103375000D02*
X137862500Y-103375000D01*
X125975000Y-102725000D02*
X126625000Y-103375000D01*
X136625000Y-93375000D02*
X137862500Y-93375000D01*
X105975000Y-102725000D02*
X106625000Y-103375000D01*
X135975000Y-102725000D02*
X136625000Y-103375000D01*
X96625000Y-103375000D02*
X97862500Y-103375000D01*
X115975000Y-102725000D02*
X116625000Y-103375000D01*
X95975000Y-92725000D02*
X96625000Y-93375000D01*
X115975000Y-92725000D02*
X116625000Y-93375000D01*
X112137500Y-102725000D02*
X115975000Y-102725000D01*
X102137500Y-102725000D02*
X105975000Y-102725000D01*
X116625000Y-83375000D02*
X117862500Y-83375000D01*
X92137500Y-92725000D02*
X95975000Y-92725000D01*
X125975000Y-92725000D02*
X126625000Y-93375000D01*
X96625000Y-83375000D02*
X97862500Y-83375000D01*
X96625000Y-93375000D02*
X97862500Y-93375000D01*
%TO.N,/D5*%
X102137500Y-95975000D02*
X104225000Y-95975000D01*
X114225000Y-95975000D02*
X114875000Y-96625000D01*
X124875000Y-96625000D02*
X127862500Y-96625000D01*
X132137500Y-95975000D02*
X134225000Y-95975000D01*
X112137500Y-105975000D02*
X114225000Y-105975000D01*
X112137500Y-95975000D02*
X114225000Y-95975000D01*
X124875000Y-86625000D02*
X127862500Y-86625000D01*
X122137500Y-105975000D02*
X124225000Y-105975000D01*
X92137500Y-105975000D02*
X94225000Y-105975000D01*
X104225000Y-85975000D02*
X104875000Y-86625000D01*
X104225000Y-105975000D02*
X104875000Y-106625000D01*
X124875000Y-106625000D02*
X127862500Y-106625000D01*
X114875000Y-96625000D02*
X117862500Y-96625000D01*
X102137500Y-105975000D02*
X104225000Y-105975000D01*
X94875000Y-86625000D02*
X97862500Y-86625000D01*
X94875000Y-106625000D02*
X97862500Y-106625000D01*
X92137500Y-85975000D02*
X94225000Y-85975000D01*
X114875000Y-106625000D02*
X117862500Y-106625000D01*
X114225000Y-105975000D02*
X114875000Y-106625000D01*
X94225000Y-95975000D02*
X94875000Y-96625000D01*
X102137500Y-85975000D02*
X104225000Y-85975000D01*
X134875000Y-96625000D02*
X137862500Y-96625000D01*
X124225000Y-85975000D02*
X124875000Y-86625000D01*
X94875000Y-96625000D02*
X97862500Y-96625000D01*
X112137500Y-85975000D02*
X114225000Y-85975000D01*
X122137500Y-85975000D02*
X124225000Y-85975000D01*
X94225000Y-105975000D02*
X94875000Y-106625000D01*
X122137500Y-95975000D02*
X124225000Y-95975000D01*
X134225000Y-85975000D02*
X134875000Y-86625000D01*
X134875000Y-106625000D02*
X137862500Y-106625000D01*
X104875000Y-96625000D02*
X107862500Y-96625000D01*
X114875000Y-86625000D02*
X117862500Y-86625000D01*
X92137500Y-95975000D02*
X94225000Y-95975000D01*
X94225000Y-85975000D02*
X94875000Y-86625000D01*
X124225000Y-95975000D02*
X124875000Y-96625000D01*
X134225000Y-95975000D02*
X134875000Y-96625000D01*
X124225000Y-105975000D02*
X124875000Y-106625000D01*
X132137500Y-85975000D02*
X134225000Y-85975000D01*
X104225000Y-95975000D02*
X104875000Y-96625000D01*
X134225000Y-105975000D02*
X134875000Y-106625000D01*
X114225000Y-85975000D02*
X114875000Y-86625000D01*
X132137500Y-105975000D02*
X134225000Y-105975000D01*
X134875000Y-86625000D02*
X137862500Y-86625000D01*
X104875000Y-86625000D02*
X107862500Y-86625000D01*
X104875000Y-106625000D02*
X107862500Y-106625000D01*
%TO.N,/D7*%
X103525000Y-97275000D02*
X104175000Y-97925000D01*
X123525000Y-87275000D02*
X124175000Y-87925000D01*
X132137500Y-97275000D02*
X133525000Y-97275000D01*
X93525000Y-97275000D02*
X94175000Y-97925000D01*
X113525000Y-87275000D02*
X114175000Y-87925000D01*
X124175000Y-107925000D02*
X127862500Y-107925000D01*
X93525000Y-107275000D02*
X94175000Y-107925000D01*
X134175000Y-97925000D02*
X137862500Y-97925000D01*
X94175000Y-87925000D02*
X97862500Y-87925000D01*
X113525000Y-107275000D02*
X114175000Y-107925000D01*
X103525000Y-107275000D02*
X104175000Y-107925000D01*
X123525000Y-107275000D02*
X124175000Y-107925000D01*
X124175000Y-97925000D02*
X127862500Y-97925000D01*
X102137500Y-87275000D02*
X103525000Y-87275000D01*
X113525000Y-97275000D02*
X114175000Y-97925000D01*
X133525000Y-107275000D02*
X134175000Y-107925000D01*
X132137500Y-107275000D02*
X133525000Y-107275000D01*
X124175000Y-87925000D02*
X127862500Y-87925000D01*
X133525000Y-97275000D02*
X134175000Y-97925000D01*
X114175000Y-87925000D02*
X117862500Y-87925000D01*
X122137500Y-87275000D02*
X123525000Y-87275000D01*
X114175000Y-107925000D02*
X117862500Y-107925000D01*
X132137500Y-87275000D02*
X133525000Y-87275000D01*
X104175000Y-87925000D02*
X107862500Y-87925000D01*
X92137500Y-87275000D02*
X93525000Y-87275000D01*
X114175000Y-97925000D02*
X117862500Y-97925000D01*
X92137500Y-97275000D02*
X93525000Y-97275000D01*
X104175000Y-97925000D02*
X107862500Y-97925000D01*
X134175000Y-87925000D02*
X137862500Y-87925000D01*
X112137500Y-87275000D02*
X113525000Y-87275000D01*
X94175000Y-107925000D02*
X97862500Y-107925000D01*
X122137500Y-97275000D02*
X123525000Y-97275000D01*
X134175000Y-107925000D02*
X137862500Y-107925000D01*
X94175000Y-97925000D02*
X97862500Y-97925000D01*
X93525000Y-87275000D02*
X94175000Y-87925000D01*
X112137500Y-97275000D02*
X113525000Y-97275000D01*
X104175000Y-107925000D02*
X107862500Y-107925000D01*
X102137500Y-97275000D02*
X103525000Y-97275000D01*
X122137500Y-107275000D02*
X123525000Y-107275000D01*
X123525000Y-97275000D02*
X124175000Y-97925000D01*
X102137500Y-107275000D02*
X103525000Y-107275000D01*
X133525000Y-87275000D02*
X134175000Y-87925000D01*
X103525000Y-87275000D02*
X104175000Y-87925000D01*
X92137500Y-107275000D02*
X93525000Y-107275000D01*
X112137500Y-107275000D02*
X113525000Y-107275000D01*
%TO.N,/D6*%
X124525000Y-87275000D02*
X127862500Y-87275000D01*
X133875000Y-86625000D02*
X134525000Y-87275000D01*
X93875000Y-106625000D02*
X94525000Y-107275000D01*
X134525000Y-97275000D02*
X137862500Y-97275000D01*
X132137500Y-86625000D02*
X133875000Y-86625000D01*
X123875000Y-106625000D02*
X124525000Y-107275000D01*
X122137500Y-106625000D02*
X123875000Y-106625000D01*
X123875000Y-86625000D02*
X124525000Y-87275000D01*
X104525000Y-107275000D02*
X107862500Y-107275000D01*
X113875000Y-96625000D02*
X114525000Y-97275000D01*
X134525000Y-87275000D02*
X137862500Y-87275000D01*
X102137500Y-86625000D02*
X103875000Y-86625000D01*
X114525000Y-97275000D02*
X117862500Y-97275000D01*
X102137500Y-106625000D02*
X103875000Y-106625000D01*
X102137500Y-96625000D02*
X103875000Y-96625000D01*
X133875000Y-96625000D02*
X134525000Y-97275000D01*
X134525000Y-107275000D02*
X137862500Y-107275000D01*
X94525000Y-97275000D02*
X97862500Y-97275000D01*
X124525000Y-97275000D02*
X127862500Y-97275000D01*
X112137500Y-96625000D02*
X113875000Y-96625000D01*
X122137500Y-96625000D02*
X123875000Y-96625000D01*
X94525000Y-107275000D02*
X97862500Y-107275000D01*
X92137500Y-86625000D02*
X93875000Y-86625000D01*
X93875000Y-86625000D02*
X94525000Y-87275000D01*
X122137500Y-86625000D02*
X123875000Y-86625000D01*
X113875000Y-106625000D02*
X114525000Y-107275000D01*
X123875000Y-96625000D02*
X124525000Y-97275000D01*
X104525000Y-97275000D02*
X107862500Y-97275000D01*
X114525000Y-87275000D02*
X117862500Y-87275000D01*
X92137500Y-106625000D02*
X93875000Y-106625000D01*
X124525000Y-107275000D02*
X127862500Y-107275000D01*
X103875000Y-96625000D02*
X104525000Y-97275000D01*
X112137500Y-106625000D02*
X113875000Y-106625000D01*
X92137500Y-96625000D02*
X93875000Y-96625000D01*
X133875000Y-106625000D02*
X134525000Y-107275000D01*
X104525000Y-87275000D02*
X107862500Y-87275000D01*
X103875000Y-106625000D02*
X104525000Y-107275000D01*
X132137500Y-96625000D02*
X133875000Y-96625000D01*
X94525000Y-87275000D02*
X97862500Y-87275000D01*
X114525000Y-107275000D02*
X117862500Y-107275000D01*
X113875000Y-86625000D02*
X114525000Y-87275000D01*
X132137500Y-106625000D02*
X133875000Y-106625000D01*
X103875000Y-86625000D02*
X104525000Y-87275000D01*
X112137500Y-86625000D02*
X113875000Y-86625000D01*
X93875000Y-96625000D02*
X94525000Y-97275000D01*
%TO.N,/D4*%
X94575000Y-95325000D02*
X95225000Y-95975000D01*
X134575000Y-85325000D02*
X135225000Y-85975000D01*
X114575000Y-85325000D02*
X115225000Y-85975000D01*
X125225000Y-105975000D02*
X127862500Y-105975000D01*
X92137500Y-95325000D02*
X94575000Y-95325000D01*
X105225000Y-95975000D02*
X107862500Y-95975000D01*
X105225000Y-85975000D02*
X107862500Y-85975000D01*
X115225000Y-85975000D02*
X117862500Y-85975000D01*
X122137500Y-95325000D02*
X124575000Y-95325000D01*
X92137500Y-85325000D02*
X94575000Y-85325000D01*
X94575000Y-85325000D02*
X95225000Y-85975000D01*
X135225000Y-105975000D02*
X137862500Y-105975000D01*
X132137500Y-85325000D02*
X134575000Y-85325000D01*
X132137500Y-95325000D02*
X134575000Y-95325000D01*
X114575000Y-95325000D02*
X115225000Y-95975000D01*
X112137500Y-95325000D02*
X114575000Y-95325000D01*
X132137500Y-105325000D02*
X134575000Y-105325000D01*
X122137500Y-105325000D02*
X124575000Y-105325000D01*
X124575000Y-105325000D02*
X125225000Y-105975000D01*
X124575000Y-85325000D02*
X125225000Y-85975000D01*
X112137500Y-85325000D02*
X114575000Y-85325000D01*
X135225000Y-95975000D02*
X137862500Y-95975000D01*
X94575000Y-105325000D02*
X95225000Y-105975000D01*
X102137500Y-105325000D02*
X104575000Y-105325000D01*
X114575000Y-105325000D02*
X115225000Y-105975000D01*
X124575000Y-95325000D02*
X125225000Y-95975000D01*
X92137500Y-105325000D02*
X94575000Y-105325000D01*
X104575000Y-105325000D02*
X105225000Y-105975000D01*
X105225000Y-105975000D02*
X107862500Y-105975000D01*
X135225000Y-85975000D02*
X137862500Y-85975000D01*
X125225000Y-85975000D02*
X127862500Y-85975000D01*
X112137500Y-105325000D02*
X114575000Y-105325000D01*
X95225000Y-95975000D02*
X97862500Y-95975000D01*
X134575000Y-105325000D02*
X135225000Y-105975000D01*
X102137500Y-95325000D02*
X104575000Y-95325000D01*
X115225000Y-105975000D02*
X117862500Y-105975000D01*
X95225000Y-85975000D02*
X97862500Y-85975000D01*
X95225000Y-105975000D02*
X97862500Y-105975000D01*
X125225000Y-95975000D02*
X127862500Y-95975000D01*
X104575000Y-95325000D02*
X105225000Y-95975000D01*
X122137500Y-85325000D02*
X124575000Y-85325000D01*
X134575000Y-95325000D02*
X135225000Y-95975000D01*
X115225000Y-95975000D02*
X117862500Y-95975000D01*
X104575000Y-85325000D02*
X105225000Y-85975000D01*
X102137500Y-85325000D02*
X104575000Y-85325000D01*
%TD*%
M02*
