%TF.GenerationSoftware,KiCad,Pcbnew,6.0.9*%
%TF.CreationDate,2023-01-31T22:29:56+01:00*%
%TF.ProjectId,hc245t-bypass-esd-panel,68633234-3574-42d6-9279-706173732d65,${revision}*%
%TF.SameCoordinates,Original*%
%TF.FileFunction,Soldermask,Top*%
%TF.FilePolarity,Negative*%
%FSLAX46Y46*%
G04 Gerber Fmt 4.6, Leading zero omitted, Abs format (unit mm)*
G04 Created by KiCad (PCBNEW 6.0.9) date 2023-01-31 22:29:56*
%MOMM*%
%LPD*%
G01*
G04 APERTURE LIST*
G04 Aperture macros list*
%AMRoundRect*
0 Rectangle with rounded corners*
0 $1 Rounding radius*
0 $2 $3 $4 $5 $6 $7 $8 $9 X,Y pos of 4 corners*
0 Add a 4 corners polygon primitive as box body*
4,1,4,$2,$3,$4,$5,$6,$7,$8,$9,$2,$3,0*
0 Add four circle primitives for the rounded corners*
1,1,$1+$1,$2,$3*
1,1,$1+$1,$4,$5*
1,1,$1+$1,$6,$7*
1,1,$1+$1,$8,$9*
0 Add four rect primitives between the rounded corners*
20,1,$1+$1,$2,$3,$4,$5,0*
20,1,$1+$1,$4,$5,$6,$7,0*
20,1,$1+$1,$6,$7,$8,$9,0*
20,1,$1+$1,$8,$9,$2,$3,0*%
G04 Aperture macros list end*
%ADD10RoundRect,0.140000X0.140000X0.170000X-0.140000X0.170000X-0.140000X-0.170000X0.140000X-0.170000X0*%
%ADD11RoundRect,0.135000X0.135000X0.185000X-0.135000X0.185000X-0.135000X-0.185000X0.135000X-0.185000X0*%
%ADD12R,0.650000X0.400000*%
%ADD13RoundRect,0.100000X-0.637500X-0.100000X0.637500X-0.100000X0.637500X0.100000X-0.637500X0.100000X0*%
G04 APERTURE END LIST*
D10*
%TO.C,C1*%
X124480000Y-92000000D03*
X123520000Y-92000000D03*
%TD*%
D11*
%TO.C,R1*%
X136510000Y-92000000D03*
X135490000Y-92000000D03*
%TD*%
D10*
%TO.C,C1*%
X114480000Y-92000000D03*
X113520000Y-92000000D03*
%TD*%
%TO.C,C1*%
X134480000Y-82000000D03*
X133520000Y-82000000D03*
%TD*%
D12*
%TO.C,U3*%
X94050000Y-106050000D03*
X94050000Y-106700000D03*
X94050000Y-107350000D03*
X95950000Y-107350000D03*
X95950000Y-106700000D03*
X95950000Y-106050000D03*
%TD*%
D11*
%TO.C,R1*%
X96510000Y-102000000D03*
X95490000Y-102000000D03*
%TD*%
%TO.C,R1*%
X116510000Y-82000000D03*
X115490000Y-82000000D03*
%TD*%
D13*
%TO.C,U1*%
X102137500Y-82075000D03*
X102137500Y-82725000D03*
X102137500Y-83375000D03*
X102137500Y-84025000D03*
X102137500Y-84675000D03*
X102137500Y-85325000D03*
X102137500Y-85975000D03*
X102137500Y-86625000D03*
X102137500Y-87275000D03*
X102137500Y-87925000D03*
X107862500Y-87925000D03*
X107862500Y-87275000D03*
X107862500Y-86625000D03*
X107862500Y-85975000D03*
X107862500Y-85325000D03*
X107862500Y-84675000D03*
X107862500Y-84025000D03*
X107862500Y-83375000D03*
X107862500Y-82725000D03*
X107862500Y-82075000D03*
%TD*%
D11*
%TO.C,R1*%
X136510000Y-102000000D03*
X135490000Y-102000000D03*
%TD*%
D13*
%TO.C,U1*%
X102137500Y-102075000D03*
X102137500Y-102725000D03*
X102137500Y-103375000D03*
X102137500Y-104025000D03*
X102137500Y-104675000D03*
X102137500Y-105325000D03*
X102137500Y-105975000D03*
X102137500Y-106625000D03*
X102137500Y-107275000D03*
X102137500Y-107925000D03*
X107862500Y-107925000D03*
X107862500Y-107275000D03*
X107862500Y-106625000D03*
X107862500Y-105975000D03*
X107862500Y-105325000D03*
X107862500Y-104675000D03*
X107862500Y-104025000D03*
X107862500Y-103375000D03*
X107862500Y-102725000D03*
X107862500Y-102075000D03*
%TD*%
%TO.C,U1*%
X122137500Y-82075000D03*
X122137500Y-82725000D03*
X122137500Y-83375000D03*
X122137500Y-84025000D03*
X122137500Y-84675000D03*
X122137500Y-85325000D03*
X122137500Y-85975000D03*
X122137500Y-86625000D03*
X122137500Y-87275000D03*
X122137500Y-87925000D03*
X127862500Y-87925000D03*
X127862500Y-87275000D03*
X127862500Y-86625000D03*
X127862500Y-85975000D03*
X127862500Y-85325000D03*
X127862500Y-84675000D03*
X127862500Y-84025000D03*
X127862500Y-83375000D03*
X127862500Y-82725000D03*
X127862500Y-82075000D03*
%TD*%
D12*
%TO.C,U3*%
X94050000Y-86050000D03*
X94050000Y-86700000D03*
X94050000Y-87350000D03*
X95950000Y-87350000D03*
X95950000Y-86700000D03*
X95950000Y-86050000D03*
%TD*%
D10*
%TO.C,C1*%
X104480000Y-92000000D03*
X103520000Y-92000000D03*
%TD*%
%TO.C,C1*%
X124480000Y-82000000D03*
X123520000Y-82000000D03*
%TD*%
D12*
%TO.C,U3*%
X104050000Y-106050000D03*
X104050000Y-106700000D03*
X104050000Y-107350000D03*
X105950000Y-107350000D03*
X105950000Y-106700000D03*
X105950000Y-106050000D03*
%TD*%
D11*
%TO.C,R1*%
X96510000Y-82000000D03*
X95490000Y-82000000D03*
%TD*%
D13*
%TO.C,U1*%
X92137500Y-82075000D03*
X92137500Y-82725000D03*
X92137500Y-83375000D03*
X92137500Y-84025000D03*
X92137500Y-84675000D03*
X92137500Y-85325000D03*
X92137500Y-85975000D03*
X92137500Y-86625000D03*
X92137500Y-87275000D03*
X92137500Y-87925000D03*
X97862500Y-87925000D03*
X97862500Y-87275000D03*
X97862500Y-86625000D03*
X97862500Y-85975000D03*
X97862500Y-85325000D03*
X97862500Y-84675000D03*
X97862500Y-84025000D03*
X97862500Y-83375000D03*
X97862500Y-82725000D03*
X97862500Y-82075000D03*
%TD*%
D12*
%TO.C,U2*%
X124050000Y-83250000D03*
X124050000Y-83900000D03*
X124050000Y-84550000D03*
X125950000Y-84550000D03*
X125950000Y-83900000D03*
X125950000Y-83250000D03*
%TD*%
D10*
%TO.C,C1*%
X114480000Y-82000000D03*
X113520000Y-82000000D03*
%TD*%
D12*
%TO.C,U2*%
X114050000Y-93250000D03*
X114050000Y-93900000D03*
X114050000Y-94550000D03*
X115950000Y-94550000D03*
X115950000Y-93900000D03*
X115950000Y-93250000D03*
%TD*%
%TO.C,U3*%
X104050000Y-96050000D03*
X104050000Y-96700000D03*
X104050000Y-97350000D03*
X105950000Y-97350000D03*
X105950000Y-96700000D03*
X105950000Y-96050000D03*
%TD*%
%TO.C,U3*%
X124050000Y-106050000D03*
X124050000Y-106700000D03*
X124050000Y-107350000D03*
X125950000Y-107350000D03*
X125950000Y-106700000D03*
X125950000Y-106050000D03*
%TD*%
D10*
%TO.C,C1*%
X124480000Y-102000000D03*
X123520000Y-102000000D03*
%TD*%
D11*
%TO.C,R1*%
X136510000Y-82000000D03*
X135490000Y-82000000D03*
%TD*%
D12*
%TO.C,U3*%
X134050000Y-96050000D03*
X134050000Y-96700000D03*
X134050000Y-97350000D03*
X135950000Y-97350000D03*
X135950000Y-96700000D03*
X135950000Y-96050000D03*
%TD*%
D10*
%TO.C,C1*%
X94480000Y-92000000D03*
X93520000Y-92000000D03*
%TD*%
D13*
%TO.C,U1*%
X112137500Y-82075000D03*
X112137500Y-82725000D03*
X112137500Y-83375000D03*
X112137500Y-84025000D03*
X112137500Y-84675000D03*
X112137500Y-85325000D03*
X112137500Y-85975000D03*
X112137500Y-86625000D03*
X112137500Y-87275000D03*
X112137500Y-87925000D03*
X117862500Y-87925000D03*
X117862500Y-87275000D03*
X117862500Y-86625000D03*
X117862500Y-85975000D03*
X117862500Y-85325000D03*
X117862500Y-84675000D03*
X117862500Y-84025000D03*
X117862500Y-83375000D03*
X117862500Y-82725000D03*
X117862500Y-82075000D03*
%TD*%
D10*
%TO.C,C1*%
X104480000Y-82000000D03*
X103520000Y-82000000D03*
%TD*%
D12*
%TO.C,U3*%
X124050000Y-86050000D03*
X124050000Y-86700000D03*
X124050000Y-87350000D03*
X125950000Y-87350000D03*
X125950000Y-86700000D03*
X125950000Y-86050000D03*
%TD*%
D13*
%TO.C,U1*%
X92137500Y-92075000D03*
X92137500Y-92725000D03*
X92137500Y-93375000D03*
X92137500Y-94025000D03*
X92137500Y-94675000D03*
X92137500Y-95325000D03*
X92137500Y-95975000D03*
X92137500Y-96625000D03*
X92137500Y-97275000D03*
X92137500Y-97925000D03*
X97862500Y-97925000D03*
X97862500Y-97275000D03*
X97862500Y-96625000D03*
X97862500Y-95975000D03*
X97862500Y-95325000D03*
X97862500Y-94675000D03*
X97862500Y-94025000D03*
X97862500Y-93375000D03*
X97862500Y-92725000D03*
X97862500Y-92075000D03*
%TD*%
D12*
%TO.C,U3*%
X94050000Y-96050000D03*
X94050000Y-96700000D03*
X94050000Y-97350000D03*
X95950000Y-97350000D03*
X95950000Y-96700000D03*
X95950000Y-96050000D03*
%TD*%
%TO.C,U2*%
X134050000Y-93250000D03*
X134050000Y-93900000D03*
X134050000Y-94550000D03*
X135950000Y-94550000D03*
X135950000Y-93900000D03*
X135950000Y-93250000D03*
%TD*%
D13*
%TO.C,U1*%
X112137500Y-102075000D03*
X112137500Y-102725000D03*
X112137500Y-103375000D03*
X112137500Y-104025000D03*
X112137500Y-104675000D03*
X112137500Y-105325000D03*
X112137500Y-105975000D03*
X112137500Y-106625000D03*
X112137500Y-107275000D03*
X112137500Y-107925000D03*
X117862500Y-107925000D03*
X117862500Y-107275000D03*
X117862500Y-106625000D03*
X117862500Y-105975000D03*
X117862500Y-105325000D03*
X117862500Y-104675000D03*
X117862500Y-104025000D03*
X117862500Y-103375000D03*
X117862500Y-102725000D03*
X117862500Y-102075000D03*
%TD*%
D11*
%TO.C,R1*%
X106510000Y-92000000D03*
X105490000Y-92000000D03*
%TD*%
%TO.C,R1*%
X96510000Y-92000000D03*
X95490000Y-92000000D03*
%TD*%
D12*
%TO.C,U2*%
X94050000Y-103250000D03*
X94050000Y-103900000D03*
X94050000Y-104550000D03*
X95950000Y-104550000D03*
X95950000Y-103900000D03*
X95950000Y-103250000D03*
%TD*%
%TO.C,U2*%
X114050000Y-83250000D03*
X114050000Y-83900000D03*
X114050000Y-84550000D03*
X115950000Y-84550000D03*
X115950000Y-83900000D03*
X115950000Y-83250000D03*
%TD*%
D10*
%TO.C,C1*%
X94480000Y-102000000D03*
X93520000Y-102000000D03*
%TD*%
D12*
%TO.C,U3*%
X104050000Y-86050000D03*
X104050000Y-86700000D03*
X104050000Y-87350000D03*
X105950000Y-87350000D03*
X105950000Y-86700000D03*
X105950000Y-86050000D03*
%TD*%
D11*
%TO.C,R1*%
X106510000Y-82000000D03*
X105490000Y-82000000D03*
%TD*%
D10*
%TO.C,C1*%
X134480000Y-92000000D03*
X133520000Y-92000000D03*
%TD*%
D12*
%TO.C,U3*%
X134050000Y-86050000D03*
X134050000Y-86700000D03*
X134050000Y-87350000D03*
X135950000Y-87350000D03*
X135950000Y-86700000D03*
X135950000Y-86050000D03*
%TD*%
D11*
%TO.C,R1*%
X126510000Y-102000000D03*
X125490000Y-102000000D03*
%TD*%
D12*
%TO.C,U3*%
X124050000Y-96050000D03*
X124050000Y-96700000D03*
X124050000Y-97350000D03*
X125950000Y-97350000D03*
X125950000Y-96700000D03*
X125950000Y-96050000D03*
%TD*%
D11*
%TO.C,R1*%
X106510000Y-102000000D03*
X105490000Y-102000000D03*
%TD*%
%TO.C,R1*%
X126510000Y-92000000D03*
X125490000Y-92000000D03*
%TD*%
D10*
%TO.C,C1*%
X104480000Y-102000000D03*
X103520000Y-102000000D03*
%TD*%
%TO.C,C1*%
X134480000Y-102000000D03*
X133520000Y-102000000D03*
%TD*%
D12*
%TO.C,U2*%
X104050000Y-83250000D03*
X104050000Y-83900000D03*
X104050000Y-84550000D03*
X105950000Y-84550000D03*
X105950000Y-83900000D03*
X105950000Y-83250000D03*
%TD*%
D13*
%TO.C,U1*%
X132137500Y-92075000D03*
X132137500Y-92725000D03*
X132137500Y-93375000D03*
X132137500Y-94025000D03*
X132137500Y-94675000D03*
X132137500Y-95325000D03*
X132137500Y-95975000D03*
X132137500Y-96625000D03*
X132137500Y-97275000D03*
X132137500Y-97925000D03*
X137862500Y-97925000D03*
X137862500Y-97275000D03*
X137862500Y-96625000D03*
X137862500Y-95975000D03*
X137862500Y-95325000D03*
X137862500Y-94675000D03*
X137862500Y-94025000D03*
X137862500Y-93375000D03*
X137862500Y-92725000D03*
X137862500Y-92075000D03*
%TD*%
D11*
%TO.C,R1*%
X116510000Y-92000000D03*
X115490000Y-92000000D03*
%TD*%
D12*
%TO.C,U2*%
X94050000Y-93250000D03*
X94050000Y-93900000D03*
X94050000Y-94550000D03*
X95950000Y-94550000D03*
X95950000Y-93900000D03*
X95950000Y-93250000D03*
%TD*%
%TO.C,U2*%
X124050000Y-93250000D03*
X124050000Y-93900000D03*
X124050000Y-94550000D03*
X125950000Y-94550000D03*
X125950000Y-93900000D03*
X125950000Y-93250000D03*
%TD*%
%TO.C,U2*%
X114050000Y-103250000D03*
X114050000Y-103900000D03*
X114050000Y-104550000D03*
X115950000Y-104550000D03*
X115950000Y-103900000D03*
X115950000Y-103250000D03*
%TD*%
%TO.C,U2*%
X94050000Y-83250000D03*
X94050000Y-83900000D03*
X94050000Y-84550000D03*
X95950000Y-84550000D03*
X95950000Y-83900000D03*
X95950000Y-83250000D03*
%TD*%
D13*
%TO.C,U1*%
X132137500Y-102075000D03*
X132137500Y-102725000D03*
X132137500Y-103375000D03*
X132137500Y-104025000D03*
X132137500Y-104675000D03*
X132137500Y-105325000D03*
X132137500Y-105975000D03*
X132137500Y-106625000D03*
X132137500Y-107275000D03*
X132137500Y-107925000D03*
X137862500Y-107925000D03*
X137862500Y-107275000D03*
X137862500Y-106625000D03*
X137862500Y-105975000D03*
X137862500Y-105325000D03*
X137862500Y-104675000D03*
X137862500Y-104025000D03*
X137862500Y-103375000D03*
X137862500Y-102725000D03*
X137862500Y-102075000D03*
%TD*%
%TO.C,U1*%
X122137500Y-102075000D03*
X122137500Y-102725000D03*
X122137500Y-103375000D03*
X122137500Y-104025000D03*
X122137500Y-104675000D03*
X122137500Y-105325000D03*
X122137500Y-105975000D03*
X122137500Y-106625000D03*
X122137500Y-107275000D03*
X122137500Y-107925000D03*
X127862500Y-107925000D03*
X127862500Y-107275000D03*
X127862500Y-106625000D03*
X127862500Y-105975000D03*
X127862500Y-105325000D03*
X127862500Y-104675000D03*
X127862500Y-104025000D03*
X127862500Y-103375000D03*
X127862500Y-102725000D03*
X127862500Y-102075000D03*
%TD*%
%TO.C,U1*%
X122137500Y-92075000D03*
X122137500Y-92725000D03*
X122137500Y-93375000D03*
X122137500Y-94025000D03*
X122137500Y-94675000D03*
X122137500Y-95325000D03*
X122137500Y-95975000D03*
X122137500Y-96625000D03*
X122137500Y-97275000D03*
X122137500Y-97925000D03*
X127862500Y-97925000D03*
X127862500Y-97275000D03*
X127862500Y-96625000D03*
X127862500Y-95975000D03*
X127862500Y-95325000D03*
X127862500Y-94675000D03*
X127862500Y-94025000D03*
X127862500Y-93375000D03*
X127862500Y-92725000D03*
X127862500Y-92075000D03*
%TD*%
D12*
%TO.C,U3*%
X114050000Y-86050000D03*
X114050000Y-86700000D03*
X114050000Y-87350000D03*
X115950000Y-87350000D03*
X115950000Y-86700000D03*
X115950000Y-86050000D03*
%TD*%
%TO.C,U3*%
X114050000Y-96050000D03*
X114050000Y-96700000D03*
X114050000Y-97350000D03*
X115950000Y-97350000D03*
X115950000Y-96700000D03*
X115950000Y-96050000D03*
%TD*%
%TO.C,U3*%
X114050000Y-106050000D03*
X114050000Y-106700000D03*
X114050000Y-107350000D03*
X115950000Y-107350000D03*
X115950000Y-106700000D03*
X115950000Y-106050000D03*
%TD*%
D13*
%TO.C,U1*%
X92137500Y-102075000D03*
X92137500Y-102725000D03*
X92137500Y-103375000D03*
X92137500Y-104025000D03*
X92137500Y-104675000D03*
X92137500Y-105325000D03*
X92137500Y-105975000D03*
X92137500Y-106625000D03*
X92137500Y-107275000D03*
X92137500Y-107925000D03*
X97862500Y-107925000D03*
X97862500Y-107275000D03*
X97862500Y-106625000D03*
X97862500Y-105975000D03*
X97862500Y-105325000D03*
X97862500Y-104675000D03*
X97862500Y-104025000D03*
X97862500Y-103375000D03*
X97862500Y-102725000D03*
X97862500Y-102075000D03*
%TD*%
D12*
%TO.C,U2*%
X124050000Y-103250000D03*
X124050000Y-103900000D03*
X124050000Y-104550000D03*
X125950000Y-104550000D03*
X125950000Y-103900000D03*
X125950000Y-103250000D03*
%TD*%
%TO.C,U2*%
X134050000Y-83250000D03*
X134050000Y-83900000D03*
X134050000Y-84550000D03*
X135950000Y-84550000D03*
X135950000Y-83900000D03*
X135950000Y-83250000D03*
%TD*%
%TO.C,U2*%
X104050000Y-103250000D03*
X104050000Y-103900000D03*
X104050000Y-104550000D03*
X105950000Y-104550000D03*
X105950000Y-103900000D03*
X105950000Y-103250000D03*
%TD*%
D13*
%TO.C,U1*%
X102137500Y-92075000D03*
X102137500Y-92725000D03*
X102137500Y-93375000D03*
X102137500Y-94025000D03*
X102137500Y-94675000D03*
X102137500Y-95325000D03*
X102137500Y-95975000D03*
X102137500Y-96625000D03*
X102137500Y-97275000D03*
X102137500Y-97925000D03*
X107862500Y-97925000D03*
X107862500Y-97275000D03*
X107862500Y-96625000D03*
X107862500Y-95975000D03*
X107862500Y-95325000D03*
X107862500Y-94675000D03*
X107862500Y-94025000D03*
X107862500Y-93375000D03*
X107862500Y-92725000D03*
X107862500Y-92075000D03*
%TD*%
D12*
%TO.C,U2*%
X104050000Y-93250000D03*
X104050000Y-93900000D03*
X104050000Y-94550000D03*
X105950000Y-94550000D03*
X105950000Y-93900000D03*
X105950000Y-93250000D03*
%TD*%
D11*
%TO.C,R1*%
X126510000Y-82000000D03*
X125490000Y-82000000D03*
%TD*%
D10*
%TO.C,C1*%
X114480000Y-102000000D03*
X113520000Y-102000000D03*
%TD*%
D11*
%TO.C,R1*%
X116510000Y-102000000D03*
X115490000Y-102000000D03*
%TD*%
D13*
%TO.C,U1*%
X112137500Y-92075000D03*
X112137500Y-92725000D03*
X112137500Y-93375000D03*
X112137500Y-94025000D03*
X112137500Y-94675000D03*
X112137500Y-95325000D03*
X112137500Y-95975000D03*
X112137500Y-96625000D03*
X112137500Y-97275000D03*
X112137500Y-97925000D03*
X117862500Y-97925000D03*
X117862500Y-97275000D03*
X117862500Y-96625000D03*
X117862500Y-95975000D03*
X117862500Y-95325000D03*
X117862500Y-94675000D03*
X117862500Y-94025000D03*
X117862500Y-93375000D03*
X117862500Y-92725000D03*
X117862500Y-92075000D03*
%TD*%
D12*
%TO.C,U2*%
X134050000Y-103250000D03*
X134050000Y-103900000D03*
X134050000Y-104550000D03*
X135950000Y-104550000D03*
X135950000Y-103900000D03*
X135950000Y-103250000D03*
%TD*%
%TO.C,U3*%
X134050000Y-106050000D03*
X134050000Y-106700000D03*
X134050000Y-107350000D03*
X135950000Y-107350000D03*
X135950000Y-106700000D03*
X135950000Y-106050000D03*
%TD*%
D13*
%TO.C,U1*%
X132137500Y-82075000D03*
X132137500Y-82725000D03*
X132137500Y-83375000D03*
X132137500Y-84025000D03*
X132137500Y-84675000D03*
X132137500Y-85325000D03*
X132137500Y-85975000D03*
X132137500Y-86625000D03*
X132137500Y-87275000D03*
X132137500Y-87925000D03*
X137862500Y-87925000D03*
X137862500Y-87275000D03*
X137862500Y-86625000D03*
X137862500Y-85975000D03*
X137862500Y-85325000D03*
X137862500Y-84675000D03*
X137862500Y-84025000D03*
X137862500Y-83375000D03*
X137862500Y-82725000D03*
X137862500Y-82075000D03*
%TD*%
D10*
%TO.C,C1*%
X94480000Y-82000000D03*
X93520000Y-82000000D03*
%TD*%
M02*
