M48
; DRILL file {KiCad 7.0.1} date 2023-03-20T14:55:15 CET
; FORMAT={-:-/ absolute / metric / decimal}
; #@! TF.CreationDate,2023-03-20T14:55:15+01:00
; #@! TF.GenerationSoftware,Kicad,Pcbnew,7.0.1
; #@! TF.FileFunction,Plated,1,2,PTH
FMAT,2
METRIC
; #@! TA.AperFunction,Plated,PTH,ComponentDrill
T1C0.250
%
G90
G05
T1
X92.138Y-82.075
X92.138Y-82.725
X92.138Y-83.375
X92.138Y-84.025
X92.138Y-84.675
X92.138Y-85.325
X92.138Y-85.975
X92.138Y-86.625
X92.138Y-87.275
X92.138Y-87.925
X92.138Y-92.075
X92.138Y-92.725
X92.138Y-93.375
X92.138Y-94.025
X92.138Y-94.675
X92.138Y-95.325
X92.138Y-95.975
X92.138Y-96.625
X92.138Y-97.275
X92.138Y-97.925
X92.138Y-102.075
X92.138Y-102.725
X92.138Y-103.375
X92.138Y-104.025
X92.138Y-104.675
X92.138Y-105.325
X92.138Y-105.975
X92.138Y-106.625
X92.138Y-107.275
X92.138Y-107.925
X97.862Y-82.075
X97.862Y-82.725
X97.862Y-83.375
X97.862Y-84.025
X97.862Y-84.675
X97.862Y-85.325
X97.862Y-85.975
X97.862Y-86.625
X97.862Y-87.275
X97.862Y-87.925
X97.862Y-92.075
X97.862Y-92.725
X97.862Y-93.375
X97.862Y-94.025
X97.862Y-94.675
X97.862Y-95.325
X97.862Y-95.975
X97.862Y-96.625
X97.862Y-97.275
X97.862Y-97.925
X97.862Y-102.075
X97.862Y-102.725
X97.862Y-103.375
X97.862Y-104.025
X97.862Y-104.675
X97.862Y-105.325
X97.862Y-105.975
X97.862Y-106.625
X97.862Y-107.275
X97.862Y-107.925
X102.137Y-82.075
X102.137Y-82.725
X102.137Y-83.375
X102.137Y-84.025
X102.137Y-84.675
X102.137Y-85.325
X102.137Y-85.975
X102.137Y-86.625
X102.137Y-87.275
X102.137Y-87.925
X102.137Y-92.075
X102.137Y-92.725
X102.137Y-93.375
X102.137Y-94.025
X102.137Y-94.675
X102.137Y-95.325
X102.137Y-95.975
X102.137Y-96.625
X102.137Y-97.275
X102.137Y-97.925
X102.137Y-102.075
X102.137Y-102.725
X102.137Y-103.375
X102.137Y-104.025
X102.137Y-104.675
X102.137Y-105.325
X102.137Y-105.975
X102.137Y-106.625
X102.137Y-107.275
X102.137Y-107.925
X107.862Y-82.075
X107.862Y-82.725
X107.862Y-83.375
X107.862Y-84.025
X107.862Y-84.675
X107.862Y-85.325
X107.862Y-85.975
X107.862Y-86.625
X107.862Y-87.275
X107.862Y-87.925
X107.862Y-92.075
X107.862Y-92.725
X107.862Y-93.375
X107.862Y-94.025
X107.862Y-94.675
X107.862Y-95.325
X107.862Y-95.975
X107.862Y-96.625
X107.862Y-97.275
X107.862Y-97.925
X107.862Y-102.075
X107.862Y-102.725
X107.862Y-103.375
X107.862Y-104.025
X107.862Y-104.675
X107.862Y-105.325
X107.862Y-105.975
X107.862Y-106.625
X107.862Y-107.275
X107.862Y-107.925
X112.137Y-82.075
X112.137Y-82.725
X112.137Y-83.375
X112.137Y-84.025
X112.137Y-84.675
X112.137Y-85.325
X112.137Y-85.975
X112.137Y-86.625
X112.137Y-87.275
X112.137Y-87.925
X112.137Y-92.075
X112.137Y-92.725
X112.137Y-93.375
X112.137Y-94.025
X112.137Y-94.675
X112.137Y-95.325
X112.137Y-95.975
X112.137Y-96.625
X112.137Y-97.275
X112.137Y-97.925
X112.137Y-102.075
X112.137Y-102.725
X112.137Y-103.375
X112.137Y-104.025
X112.137Y-104.675
X112.137Y-105.325
X112.137Y-105.975
X112.137Y-106.625
X112.137Y-107.275
X112.137Y-107.925
X117.862Y-82.075
X117.862Y-82.725
X117.862Y-83.375
X117.862Y-84.025
X117.862Y-84.675
X117.862Y-85.325
X117.862Y-85.975
X117.862Y-86.625
X117.862Y-87.275
X117.862Y-87.925
X117.862Y-92.075
X117.862Y-92.725
X117.862Y-93.375
X117.862Y-94.025
X117.862Y-94.675
X117.862Y-95.325
X117.862Y-95.975
X117.862Y-96.625
X117.862Y-97.275
X117.862Y-97.925
X117.862Y-102.075
X117.862Y-102.725
X117.862Y-103.375
X117.862Y-104.025
X117.862Y-104.675
X117.862Y-105.325
X117.862Y-105.975
X117.862Y-106.625
X117.862Y-107.275
X117.862Y-107.925
X122.137Y-82.075
X122.137Y-82.725
X122.137Y-83.375
X122.137Y-84.025
X122.137Y-84.675
X122.137Y-85.325
X122.137Y-85.975
X122.137Y-86.625
X122.137Y-87.275
X122.137Y-87.925
X122.137Y-92.075
X122.137Y-92.725
X122.137Y-93.375
X122.137Y-94.025
X122.137Y-94.675
X122.137Y-95.325
X122.137Y-95.975
X122.137Y-96.625
X122.137Y-97.275
X122.137Y-97.925
X122.137Y-102.075
X122.137Y-102.725
X122.137Y-103.375
X122.137Y-104.025
X122.137Y-104.675
X122.137Y-105.325
X122.137Y-105.975
X122.137Y-106.625
X122.137Y-107.275
X122.137Y-107.925
X127.862Y-82.075
X127.862Y-82.725
X127.862Y-83.375
X127.862Y-84.025
X127.862Y-84.675
X127.862Y-85.325
X127.862Y-85.975
X127.862Y-86.625
X127.862Y-87.275
X127.862Y-87.925
X127.862Y-92.075
X127.862Y-92.725
X127.862Y-93.375
X127.862Y-94.025
X127.862Y-94.675
X127.862Y-95.325
X127.862Y-95.975
X127.862Y-96.625
X127.862Y-97.275
X127.862Y-97.925
X127.862Y-102.075
X127.862Y-102.725
X127.862Y-103.375
X127.862Y-104.025
X127.862Y-104.675
X127.862Y-105.325
X127.862Y-105.975
X127.862Y-106.625
X127.862Y-107.275
X127.862Y-107.925
X132.137Y-82.075
X132.137Y-82.725
X132.137Y-83.375
X132.137Y-84.025
X132.137Y-84.675
X132.137Y-85.325
X132.137Y-85.975
X132.137Y-86.625
X132.137Y-87.275
X132.137Y-87.925
X132.137Y-92.075
X132.137Y-92.725
X132.137Y-93.375
X132.137Y-94.025
X132.137Y-94.675
X132.137Y-95.325
X132.137Y-95.975
X132.137Y-96.625
X132.137Y-97.275
X132.137Y-97.925
X132.137Y-102.075
X132.137Y-102.725
X132.137Y-103.375
X132.137Y-104.025
X132.137Y-104.675
X132.137Y-105.325
X132.137Y-105.975
X132.137Y-106.625
X132.137Y-107.275
X132.137Y-107.925
X137.862Y-82.075
X137.862Y-82.725
X137.862Y-83.375
X137.862Y-84.025
X137.862Y-84.675
X137.862Y-85.325
X137.862Y-85.975
X137.862Y-86.625
X137.862Y-87.275
X137.862Y-87.925
X137.862Y-92.075
X137.862Y-92.725
X137.862Y-93.375
X137.862Y-94.025
X137.862Y-94.675
X137.862Y-95.325
X137.862Y-95.975
X137.862Y-96.625
X137.862Y-97.275
X137.862Y-97.925
X137.862Y-102.075
X137.862Y-102.725
X137.862Y-103.375
X137.862Y-104.025
X137.862Y-104.675
X137.862Y-105.325
X137.862Y-105.975
X137.862Y-106.625
X137.862Y-107.275
X137.862Y-107.925
T0
M30
