%TF.GenerationSoftware,KiCad,Pcbnew,6.0.9*%
%TF.CreationDate,2023-01-31T22:29:55+01:00*%
%TF.ProjectId,hc245t-bypass-esd-panel,68633234-3574-42d6-9279-706173732d65,${revision}*%
%TF.SameCoordinates,Original*%
%TF.FileFunction,Copper,L1,Top*%
%TF.FilePolarity,Positive*%
%FSLAX46Y46*%
G04 Gerber Fmt 4.6, Leading zero omitted, Abs format (unit mm)*
G04 Created by KiCad (PCBNEW 6.0.9) date 2023-01-31 22:29:55*
%MOMM*%
%LPD*%
G01*
G04 APERTURE LIST*
G04 Aperture macros list*
%AMRoundRect*
0 Rectangle with rounded corners*
0 $1 Rounding radius*
0 $2 $3 $4 $5 $6 $7 $8 $9 X,Y pos of 4 corners*
0 Add a 4 corners polygon primitive as box body*
4,1,4,$2,$3,$4,$5,$6,$7,$8,$9,$2,$3,0*
0 Add four circle primitives for the rounded corners*
1,1,$1+$1,$2,$3*
1,1,$1+$1,$4,$5*
1,1,$1+$1,$6,$7*
1,1,$1+$1,$8,$9*
0 Add four rect primitives between the rounded corners*
20,1,$1+$1,$2,$3,$4,$5,0*
20,1,$1+$1,$4,$5,$6,$7,0*
20,1,$1+$1,$6,$7,$8,$9,0*
20,1,$1+$1,$8,$9,$2,$3,0*%
G04 Aperture macros list end*
%TA.AperFunction,SMDPad,CuDef*%
%ADD10RoundRect,0.140000X0.140000X0.170000X-0.140000X0.170000X-0.140000X-0.170000X0.140000X-0.170000X0*%
%TD*%
%TA.AperFunction,SMDPad,CuDef*%
%ADD11RoundRect,0.135000X0.135000X0.185000X-0.135000X0.185000X-0.135000X-0.185000X0.135000X-0.185000X0*%
%TD*%
%TA.AperFunction,SMDPad,CuDef*%
%ADD12R,0.650000X0.400000*%
%TD*%
%TA.AperFunction,ComponentPad*%
%ADD13RoundRect,0.100000X-0.637500X-0.100000X0.637500X-0.100000X0.637500X0.100000X-0.637500X0.100000X0*%
%TD*%
%TA.AperFunction,Conductor*%
%ADD14C,0.250000*%
%TD*%
G04 APERTURE END LIST*
D10*
%TO.P,C1,1*%
%TO.N,Net-(C1-Pad1)*%
X124480000Y-92000000D03*
%TO.P,C1,2*%
%TO.N,GND*%
X123520000Y-92000000D03*
%TD*%
D11*
%TO.P,R1,1*%
%TO.N,VCC*%
X136510000Y-92000000D03*
%TO.P,R1,2*%
%TO.N,Net-(C1-Pad1)*%
X135490000Y-92000000D03*
%TD*%
D10*
%TO.P,C1,1*%
%TO.N,Net-(C1-Pad1)*%
X114480000Y-92000000D03*
%TO.P,C1,2*%
%TO.N,GND*%
X113520000Y-92000000D03*
%TD*%
%TO.P,C1,1*%
%TO.N,Net-(C1-Pad1)*%
X134480000Y-82000000D03*
%TO.P,C1,2*%
%TO.N,GND*%
X133520000Y-82000000D03*
%TD*%
D12*
%TO.P,U3,1*%
%TO.N,/D5*%
X94050000Y-106050000D03*
%TO.P,U3,2*%
%TO.N,GND*%
X94050000Y-106700000D03*
%TO.P,U3,3*%
%TO.N,/D7*%
X94050000Y-107350000D03*
%TO.P,U3,4*%
%TO.N,/D6*%
X95950000Y-107350000D03*
%TO.P,U3,5*%
%TO.N,Net-(C1-Pad1)*%
X95950000Y-106700000D03*
%TO.P,U3,6*%
%TO.N,/D4*%
X95950000Y-106050000D03*
%TD*%
D11*
%TO.P,R1,1*%
%TO.N,VCC*%
X96510000Y-102000000D03*
%TO.P,R1,2*%
%TO.N,Net-(C1-Pad1)*%
X95490000Y-102000000D03*
%TD*%
%TO.P,R1,1*%
%TO.N,VCC*%
X116510000Y-82000000D03*
%TO.P,R1,2*%
%TO.N,Net-(C1-Pad1)*%
X115490000Y-82000000D03*
%TD*%
D13*
%TO.P,U1,1,A->B*%
%TO.N,unconnected-(U1-Pad1)*%
X102137500Y-82075000D03*
%TO.P,U1,2,A0*%
%TO.N,/D0*%
X102137500Y-82725000D03*
%TO.P,U1,3,A1*%
%TO.N,/D1*%
X102137500Y-83375000D03*
%TO.P,U1,4,A2*%
%TO.N,/D2*%
X102137500Y-84025000D03*
%TO.P,U1,5,A3*%
%TO.N,/D3*%
X102137500Y-84675000D03*
%TO.P,U1,6,A4*%
%TO.N,/D4*%
X102137500Y-85325000D03*
%TO.P,U1,7,A5*%
%TO.N,/D5*%
X102137500Y-85975000D03*
%TO.P,U1,8,A6*%
%TO.N,/D6*%
X102137500Y-86625000D03*
%TO.P,U1,9,A7*%
%TO.N,/D7*%
X102137500Y-87275000D03*
%TO.P,U1,10,GND*%
%TO.N,GND*%
X102137500Y-87925000D03*
%TO.P,U1,11,B7*%
%TO.N,/D7*%
X107862500Y-87925000D03*
%TO.P,U1,12,B6*%
%TO.N,/D6*%
X107862500Y-87275000D03*
%TO.P,U1,13,B5*%
%TO.N,/D5*%
X107862500Y-86625000D03*
%TO.P,U1,14,B4*%
%TO.N,/D4*%
X107862500Y-85975000D03*
%TO.P,U1,15,B3*%
%TO.N,/D3*%
X107862500Y-85325000D03*
%TO.P,U1,16,B2*%
%TO.N,/D2*%
X107862500Y-84675000D03*
%TO.P,U1,17,B1*%
%TO.N,/D1*%
X107862500Y-84025000D03*
%TO.P,U1,18,B0*%
%TO.N,/D0*%
X107862500Y-83375000D03*
%TO.P,U1,19,CE*%
%TO.N,unconnected-(U1-Pad19)*%
X107862500Y-82725000D03*
%TO.P,U1,20,VCC*%
%TO.N,VCC*%
X107862500Y-82075000D03*
%TD*%
D11*
%TO.P,R1,1*%
%TO.N,VCC*%
X136510000Y-102000000D03*
%TO.P,R1,2*%
%TO.N,Net-(C1-Pad1)*%
X135490000Y-102000000D03*
%TD*%
D13*
%TO.P,U1,1,A->B*%
%TO.N,unconnected-(U1-Pad1)*%
X102137500Y-102075000D03*
%TO.P,U1,2,A0*%
%TO.N,/D0*%
X102137500Y-102725000D03*
%TO.P,U1,3,A1*%
%TO.N,/D1*%
X102137500Y-103375000D03*
%TO.P,U1,4,A2*%
%TO.N,/D2*%
X102137500Y-104025000D03*
%TO.P,U1,5,A3*%
%TO.N,/D3*%
X102137500Y-104675000D03*
%TO.P,U1,6,A4*%
%TO.N,/D4*%
X102137500Y-105325000D03*
%TO.P,U1,7,A5*%
%TO.N,/D5*%
X102137500Y-105975000D03*
%TO.P,U1,8,A6*%
%TO.N,/D6*%
X102137500Y-106625000D03*
%TO.P,U1,9,A7*%
%TO.N,/D7*%
X102137500Y-107275000D03*
%TO.P,U1,10,GND*%
%TO.N,GND*%
X102137500Y-107925000D03*
%TO.P,U1,11,B7*%
%TO.N,/D7*%
X107862500Y-107925000D03*
%TO.P,U1,12,B6*%
%TO.N,/D6*%
X107862500Y-107275000D03*
%TO.P,U1,13,B5*%
%TO.N,/D5*%
X107862500Y-106625000D03*
%TO.P,U1,14,B4*%
%TO.N,/D4*%
X107862500Y-105975000D03*
%TO.P,U1,15,B3*%
%TO.N,/D3*%
X107862500Y-105325000D03*
%TO.P,U1,16,B2*%
%TO.N,/D2*%
X107862500Y-104675000D03*
%TO.P,U1,17,B1*%
%TO.N,/D1*%
X107862500Y-104025000D03*
%TO.P,U1,18,B0*%
%TO.N,/D0*%
X107862500Y-103375000D03*
%TO.P,U1,19,CE*%
%TO.N,unconnected-(U1-Pad19)*%
X107862500Y-102725000D03*
%TO.P,U1,20,VCC*%
%TO.N,VCC*%
X107862500Y-102075000D03*
%TD*%
%TO.P,U1,1,A->B*%
%TO.N,unconnected-(U1-Pad1)*%
X122137500Y-82075000D03*
%TO.P,U1,2,A0*%
%TO.N,/D0*%
X122137500Y-82725000D03*
%TO.P,U1,3,A1*%
%TO.N,/D1*%
X122137500Y-83375000D03*
%TO.P,U1,4,A2*%
%TO.N,/D2*%
X122137500Y-84025000D03*
%TO.P,U1,5,A3*%
%TO.N,/D3*%
X122137500Y-84675000D03*
%TO.P,U1,6,A4*%
%TO.N,/D4*%
X122137500Y-85325000D03*
%TO.P,U1,7,A5*%
%TO.N,/D5*%
X122137500Y-85975000D03*
%TO.P,U1,8,A6*%
%TO.N,/D6*%
X122137500Y-86625000D03*
%TO.P,U1,9,A7*%
%TO.N,/D7*%
X122137500Y-87275000D03*
%TO.P,U1,10,GND*%
%TO.N,GND*%
X122137500Y-87925000D03*
%TO.P,U1,11,B7*%
%TO.N,/D7*%
X127862500Y-87925000D03*
%TO.P,U1,12,B6*%
%TO.N,/D6*%
X127862500Y-87275000D03*
%TO.P,U1,13,B5*%
%TO.N,/D5*%
X127862500Y-86625000D03*
%TO.P,U1,14,B4*%
%TO.N,/D4*%
X127862500Y-85975000D03*
%TO.P,U1,15,B3*%
%TO.N,/D3*%
X127862500Y-85325000D03*
%TO.P,U1,16,B2*%
%TO.N,/D2*%
X127862500Y-84675000D03*
%TO.P,U1,17,B1*%
%TO.N,/D1*%
X127862500Y-84025000D03*
%TO.P,U1,18,B0*%
%TO.N,/D0*%
X127862500Y-83375000D03*
%TO.P,U1,19,CE*%
%TO.N,unconnected-(U1-Pad19)*%
X127862500Y-82725000D03*
%TO.P,U1,20,VCC*%
%TO.N,VCC*%
X127862500Y-82075000D03*
%TD*%
D12*
%TO.P,U3,1*%
%TO.N,/D5*%
X94050000Y-86050000D03*
%TO.P,U3,2*%
%TO.N,GND*%
X94050000Y-86700000D03*
%TO.P,U3,3*%
%TO.N,/D7*%
X94050000Y-87350000D03*
%TO.P,U3,4*%
%TO.N,/D6*%
X95950000Y-87350000D03*
%TO.P,U3,5*%
%TO.N,Net-(C1-Pad1)*%
X95950000Y-86700000D03*
%TO.P,U3,6*%
%TO.N,/D4*%
X95950000Y-86050000D03*
%TD*%
D10*
%TO.P,C1,1*%
%TO.N,Net-(C1-Pad1)*%
X104480000Y-92000000D03*
%TO.P,C1,2*%
%TO.N,GND*%
X103520000Y-92000000D03*
%TD*%
%TO.P,C1,1*%
%TO.N,Net-(C1-Pad1)*%
X124480000Y-82000000D03*
%TO.P,C1,2*%
%TO.N,GND*%
X123520000Y-82000000D03*
%TD*%
D12*
%TO.P,U3,1*%
%TO.N,/D5*%
X104050000Y-106050000D03*
%TO.P,U3,2*%
%TO.N,GND*%
X104050000Y-106700000D03*
%TO.P,U3,3*%
%TO.N,/D7*%
X104050000Y-107350000D03*
%TO.P,U3,4*%
%TO.N,/D6*%
X105950000Y-107350000D03*
%TO.P,U3,5*%
%TO.N,Net-(C1-Pad1)*%
X105950000Y-106700000D03*
%TO.P,U3,6*%
%TO.N,/D4*%
X105950000Y-106050000D03*
%TD*%
D11*
%TO.P,R1,1*%
%TO.N,VCC*%
X96510000Y-82000000D03*
%TO.P,R1,2*%
%TO.N,Net-(C1-Pad1)*%
X95490000Y-82000000D03*
%TD*%
D13*
%TO.P,U1,1,A->B*%
%TO.N,unconnected-(U1-Pad1)*%
X92137500Y-82075000D03*
%TO.P,U1,2,A0*%
%TO.N,/D0*%
X92137500Y-82725000D03*
%TO.P,U1,3,A1*%
%TO.N,/D1*%
X92137500Y-83375000D03*
%TO.P,U1,4,A2*%
%TO.N,/D2*%
X92137500Y-84025000D03*
%TO.P,U1,5,A3*%
%TO.N,/D3*%
X92137500Y-84675000D03*
%TO.P,U1,6,A4*%
%TO.N,/D4*%
X92137500Y-85325000D03*
%TO.P,U1,7,A5*%
%TO.N,/D5*%
X92137500Y-85975000D03*
%TO.P,U1,8,A6*%
%TO.N,/D6*%
X92137500Y-86625000D03*
%TO.P,U1,9,A7*%
%TO.N,/D7*%
X92137500Y-87275000D03*
%TO.P,U1,10,GND*%
%TO.N,GND*%
X92137500Y-87925000D03*
%TO.P,U1,11,B7*%
%TO.N,/D7*%
X97862500Y-87925000D03*
%TO.P,U1,12,B6*%
%TO.N,/D6*%
X97862500Y-87275000D03*
%TO.P,U1,13,B5*%
%TO.N,/D5*%
X97862500Y-86625000D03*
%TO.P,U1,14,B4*%
%TO.N,/D4*%
X97862500Y-85975000D03*
%TO.P,U1,15,B3*%
%TO.N,/D3*%
X97862500Y-85325000D03*
%TO.P,U1,16,B2*%
%TO.N,/D2*%
X97862500Y-84675000D03*
%TO.P,U1,17,B1*%
%TO.N,/D1*%
X97862500Y-84025000D03*
%TO.P,U1,18,B0*%
%TO.N,/D0*%
X97862500Y-83375000D03*
%TO.P,U1,19,CE*%
%TO.N,unconnected-(U1-Pad19)*%
X97862500Y-82725000D03*
%TO.P,U1,20,VCC*%
%TO.N,VCC*%
X97862500Y-82075000D03*
%TD*%
D12*
%TO.P,U2,1*%
%TO.N,/D1*%
X124050000Y-83250000D03*
%TO.P,U2,2*%
%TO.N,GND*%
X124050000Y-83900000D03*
%TO.P,U2,3*%
%TO.N,/D3*%
X124050000Y-84550000D03*
%TO.P,U2,4*%
%TO.N,/D2*%
X125950000Y-84550000D03*
%TO.P,U2,5*%
%TO.N,Net-(C1-Pad1)*%
X125950000Y-83900000D03*
%TO.P,U2,6*%
%TO.N,/D0*%
X125950000Y-83250000D03*
%TD*%
D10*
%TO.P,C1,1*%
%TO.N,Net-(C1-Pad1)*%
X114480000Y-82000000D03*
%TO.P,C1,2*%
%TO.N,GND*%
X113520000Y-82000000D03*
%TD*%
D12*
%TO.P,U2,1*%
%TO.N,/D1*%
X114050000Y-93250000D03*
%TO.P,U2,2*%
%TO.N,GND*%
X114050000Y-93900000D03*
%TO.P,U2,3*%
%TO.N,/D3*%
X114050000Y-94550000D03*
%TO.P,U2,4*%
%TO.N,/D2*%
X115950000Y-94550000D03*
%TO.P,U2,5*%
%TO.N,Net-(C1-Pad1)*%
X115950000Y-93900000D03*
%TO.P,U2,6*%
%TO.N,/D0*%
X115950000Y-93250000D03*
%TD*%
%TO.P,U3,1*%
%TO.N,/D5*%
X104050000Y-96050000D03*
%TO.P,U3,2*%
%TO.N,GND*%
X104050000Y-96700000D03*
%TO.P,U3,3*%
%TO.N,/D7*%
X104050000Y-97350000D03*
%TO.P,U3,4*%
%TO.N,/D6*%
X105950000Y-97350000D03*
%TO.P,U3,5*%
%TO.N,Net-(C1-Pad1)*%
X105950000Y-96700000D03*
%TO.P,U3,6*%
%TO.N,/D4*%
X105950000Y-96050000D03*
%TD*%
%TO.P,U3,1*%
%TO.N,/D5*%
X124050000Y-106050000D03*
%TO.P,U3,2*%
%TO.N,GND*%
X124050000Y-106700000D03*
%TO.P,U3,3*%
%TO.N,/D7*%
X124050000Y-107350000D03*
%TO.P,U3,4*%
%TO.N,/D6*%
X125950000Y-107350000D03*
%TO.P,U3,5*%
%TO.N,Net-(C1-Pad1)*%
X125950000Y-106700000D03*
%TO.P,U3,6*%
%TO.N,/D4*%
X125950000Y-106050000D03*
%TD*%
D10*
%TO.P,C1,1*%
%TO.N,Net-(C1-Pad1)*%
X124480000Y-102000000D03*
%TO.P,C1,2*%
%TO.N,GND*%
X123520000Y-102000000D03*
%TD*%
D11*
%TO.P,R1,1*%
%TO.N,VCC*%
X136510000Y-82000000D03*
%TO.P,R1,2*%
%TO.N,Net-(C1-Pad1)*%
X135490000Y-82000000D03*
%TD*%
D12*
%TO.P,U3,1*%
%TO.N,/D5*%
X134050000Y-96050000D03*
%TO.P,U3,2*%
%TO.N,GND*%
X134050000Y-96700000D03*
%TO.P,U3,3*%
%TO.N,/D7*%
X134050000Y-97350000D03*
%TO.P,U3,4*%
%TO.N,/D6*%
X135950000Y-97350000D03*
%TO.P,U3,5*%
%TO.N,Net-(C1-Pad1)*%
X135950000Y-96700000D03*
%TO.P,U3,6*%
%TO.N,/D4*%
X135950000Y-96050000D03*
%TD*%
D10*
%TO.P,C1,1*%
%TO.N,Net-(C1-Pad1)*%
X94480000Y-92000000D03*
%TO.P,C1,2*%
%TO.N,GND*%
X93520000Y-92000000D03*
%TD*%
D13*
%TO.P,U1,1,A->B*%
%TO.N,unconnected-(U1-Pad1)*%
X112137500Y-82075000D03*
%TO.P,U1,2,A0*%
%TO.N,/D0*%
X112137500Y-82725000D03*
%TO.P,U1,3,A1*%
%TO.N,/D1*%
X112137500Y-83375000D03*
%TO.P,U1,4,A2*%
%TO.N,/D2*%
X112137500Y-84025000D03*
%TO.P,U1,5,A3*%
%TO.N,/D3*%
X112137500Y-84675000D03*
%TO.P,U1,6,A4*%
%TO.N,/D4*%
X112137500Y-85325000D03*
%TO.P,U1,7,A5*%
%TO.N,/D5*%
X112137500Y-85975000D03*
%TO.P,U1,8,A6*%
%TO.N,/D6*%
X112137500Y-86625000D03*
%TO.P,U1,9,A7*%
%TO.N,/D7*%
X112137500Y-87275000D03*
%TO.P,U1,10,GND*%
%TO.N,GND*%
X112137500Y-87925000D03*
%TO.P,U1,11,B7*%
%TO.N,/D7*%
X117862500Y-87925000D03*
%TO.P,U1,12,B6*%
%TO.N,/D6*%
X117862500Y-87275000D03*
%TO.P,U1,13,B5*%
%TO.N,/D5*%
X117862500Y-86625000D03*
%TO.P,U1,14,B4*%
%TO.N,/D4*%
X117862500Y-85975000D03*
%TO.P,U1,15,B3*%
%TO.N,/D3*%
X117862500Y-85325000D03*
%TO.P,U1,16,B2*%
%TO.N,/D2*%
X117862500Y-84675000D03*
%TO.P,U1,17,B1*%
%TO.N,/D1*%
X117862500Y-84025000D03*
%TO.P,U1,18,B0*%
%TO.N,/D0*%
X117862500Y-83375000D03*
%TO.P,U1,19,CE*%
%TO.N,unconnected-(U1-Pad19)*%
X117862500Y-82725000D03*
%TO.P,U1,20,VCC*%
%TO.N,VCC*%
X117862500Y-82075000D03*
%TD*%
D10*
%TO.P,C1,1*%
%TO.N,Net-(C1-Pad1)*%
X104480000Y-82000000D03*
%TO.P,C1,2*%
%TO.N,GND*%
X103520000Y-82000000D03*
%TD*%
D12*
%TO.P,U3,1*%
%TO.N,/D5*%
X124050000Y-86050000D03*
%TO.P,U3,2*%
%TO.N,GND*%
X124050000Y-86700000D03*
%TO.P,U3,3*%
%TO.N,/D7*%
X124050000Y-87350000D03*
%TO.P,U3,4*%
%TO.N,/D6*%
X125950000Y-87350000D03*
%TO.P,U3,5*%
%TO.N,Net-(C1-Pad1)*%
X125950000Y-86700000D03*
%TO.P,U3,6*%
%TO.N,/D4*%
X125950000Y-86050000D03*
%TD*%
D13*
%TO.P,U1,1,A->B*%
%TO.N,unconnected-(U1-Pad1)*%
X92137500Y-92075000D03*
%TO.P,U1,2,A0*%
%TO.N,/D0*%
X92137500Y-92725000D03*
%TO.P,U1,3,A1*%
%TO.N,/D1*%
X92137500Y-93375000D03*
%TO.P,U1,4,A2*%
%TO.N,/D2*%
X92137500Y-94025000D03*
%TO.P,U1,5,A3*%
%TO.N,/D3*%
X92137500Y-94675000D03*
%TO.P,U1,6,A4*%
%TO.N,/D4*%
X92137500Y-95325000D03*
%TO.P,U1,7,A5*%
%TO.N,/D5*%
X92137500Y-95975000D03*
%TO.P,U1,8,A6*%
%TO.N,/D6*%
X92137500Y-96625000D03*
%TO.P,U1,9,A7*%
%TO.N,/D7*%
X92137500Y-97275000D03*
%TO.P,U1,10,GND*%
%TO.N,GND*%
X92137500Y-97925000D03*
%TO.P,U1,11,B7*%
%TO.N,/D7*%
X97862500Y-97925000D03*
%TO.P,U1,12,B6*%
%TO.N,/D6*%
X97862500Y-97275000D03*
%TO.P,U1,13,B5*%
%TO.N,/D5*%
X97862500Y-96625000D03*
%TO.P,U1,14,B4*%
%TO.N,/D4*%
X97862500Y-95975000D03*
%TO.P,U1,15,B3*%
%TO.N,/D3*%
X97862500Y-95325000D03*
%TO.P,U1,16,B2*%
%TO.N,/D2*%
X97862500Y-94675000D03*
%TO.P,U1,17,B1*%
%TO.N,/D1*%
X97862500Y-94025000D03*
%TO.P,U1,18,B0*%
%TO.N,/D0*%
X97862500Y-93375000D03*
%TO.P,U1,19,CE*%
%TO.N,unconnected-(U1-Pad19)*%
X97862500Y-92725000D03*
%TO.P,U1,20,VCC*%
%TO.N,VCC*%
X97862500Y-92075000D03*
%TD*%
D12*
%TO.P,U3,1*%
%TO.N,/D5*%
X94050000Y-96050000D03*
%TO.P,U3,2*%
%TO.N,GND*%
X94050000Y-96700000D03*
%TO.P,U3,3*%
%TO.N,/D7*%
X94050000Y-97350000D03*
%TO.P,U3,4*%
%TO.N,/D6*%
X95950000Y-97350000D03*
%TO.P,U3,5*%
%TO.N,Net-(C1-Pad1)*%
X95950000Y-96700000D03*
%TO.P,U3,6*%
%TO.N,/D4*%
X95950000Y-96050000D03*
%TD*%
%TO.P,U2,1*%
%TO.N,/D1*%
X134050000Y-93250000D03*
%TO.P,U2,2*%
%TO.N,GND*%
X134050000Y-93900000D03*
%TO.P,U2,3*%
%TO.N,/D3*%
X134050000Y-94550000D03*
%TO.P,U2,4*%
%TO.N,/D2*%
X135950000Y-94550000D03*
%TO.P,U2,5*%
%TO.N,Net-(C1-Pad1)*%
X135950000Y-93900000D03*
%TO.P,U2,6*%
%TO.N,/D0*%
X135950000Y-93250000D03*
%TD*%
D13*
%TO.P,U1,1,A->B*%
%TO.N,unconnected-(U1-Pad1)*%
X112137500Y-102075000D03*
%TO.P,U1,2,A0*%
%TO.N,/D0*%
X112137500Y-102725000D03*
%TO.P,U1,3,A1*%
%TO.N,/D1*%
X112137500Y-103375000D03*
%TO.P,U1,4,A2*%
%TO.N,/D2*%
X112137500Y-104025000D03*
%TO.P,U1,5,A3*%
%TO.N,/D3*%
X112137500Y-104675000D03*
%TO.P,U1,6,A4*%
%TO.N,/D4*%
X112137500Y-105325000D03*
%TO.P,U1,7,A5*%
%TO.N,/D5*%
X112137500Y-105975000D03*
%TO.P,U1,8,A6*%
%TO.N,/D6*%
X112137500Y-106625000D03*
%TO.P,U1,9,A7*%
%TO.N,/D7*%
X112137500Y-107275000D03*
%TO.P,U1,10,GND*%
%TO.N,GND*%
X112137500Y-107925000D03*
%TO.P,U1,11,B7*%
%TO.N,/D7*%
X117862500Y-107925000D03*
%TO.P,U1,12,B6*%
%TO.N,/D6*%
X117862500Y-107275000D03*
%TO.P,U1,13,B5*%
%TO.N,/D5*%
X117862500Y-106625000D03*
%TO.P,U1,14,B4*%
%TO.N,/D4*%
X117862500Y-105975000D03*
%TO.P,U1,15,B3*%
%TO.N,/D3*%
X117862500Y-105325000D03*
%TO.P,U1,16,B2*%
%TO.N,/D2*%
X117862500Y-104675000D03*
%TO.P,U1,17,B1*%
%TO.N,/D1*%
X117862500Y-104025000D03*
%TO.P,U1,18,B0*%
%TO.N,/D0*%
X117862500Y-103375000D03*
%TO.P,U1,19,CE*%
%TO.N,unconnected-(U1-Pad19)*%
X117862500Y-102725000D03*
%TO.P,U1,20,VCC*%
%TO.N,VCC*%
X117862500Y-102075000D03*
%TD*%
D11*
%TO.P,R1,1*%
%TO.N,VCC*%
X106510000Y-92000000D03*
%TO.P,R1,2*%
%TO.N,Net-(C1-Pad1)*%
X105490000Y-92000000D03*
%TD*%
%TO.P,R1,1*%
%TO.N,VCC*%
X96510000Y-92000000D03*
%TO.P,R1,2*%
%TO.N,Net-(C1-Pad1)*%
X95490000Y-92000000D03*
%TD*%
D12*
%TO.P,U2,1*%
%TO.N,/D1*%
X94050000Y-103250000D03*
%TO.P,U2,2*%
%TO.N,GND*%
X94050000Y-103900000D03*
%TO.P,U2,3*%
%TO.N,/D3*%
X94050000Y-104550000D03*
%TO.P,U2,4*%
%TO.N,/D2*%
X95950000Y-104550000D03*
%TO.P,U2,5*%
%TO.N,Net-(C1-Pad1)*%
X95950000Y-103900000D03*
%TO.P,U2,6*%
%TO.N,/D0*%
X95950000Y-103250000D03*
%TD*%
%TO.P,U2,1*%
%TO.N,/D1*%
X114050000Y-83250000D03*
%TO.P,U2,2*%
%TO.N,GND*%
X114050000Y-83900000D03*
%TO.P,U2,3*%
%TO.N,/D3*%
X114050000Y-84550000D03*
%TO.P,U2,4*%
%TO.N,/D2*%
X115950000Y-84550000D03*
%TO.P,U2,5*%
%TO.N,Net-(C1-Pad1)*%
X115950000Y-83900000D03*
%TO.P,U2,6*%
%TO.N,/D0*%
X115950000Y-83250000D03*
%TD*%
D10*
%TO.P,C1,1*%
%TO.N,Net-(C1-Pad1)*%
X94480000Y-102000000D03*
%TO.P,C1,2*%
%TO.N,GND*%
X93520000Y-102000000D03*
%TD*%
D12*
%TO.P,U3,1*%
%TO.N,/D5*%
X104050000Y-86050000D03*
%TO.P,U3,2*%
%TO.N,GND*%
X104050000Y-86700000D03*
%TO.P,U3,3*%
%TO.N,/D7*%
X104050000Y-87350000D03*
%TO.P,U3,4*%
%TO.N,/D6*%
X105950000Y-87350000D03*
%TO.P,U3,5*%
%TO.N,Net-(C1-Pad1)*%
X105950000Y-86700000D03*
%TO.P,U3,6*%
%TO.N,/D4*%
X105950000Y-86050000D03*
%TD*%
D11*
%TO.P,R1,1*%
%TO.N,VCC*%
X106510000Y-82000000D03*
%TO.P,R1,2*%
%TO.N,Net-(C1-Pad1)*%
X105490000Y-82000000D03*
%TD*%
D10*
%TO.P,C1,1*%
%TO.N,Net-(C1-Pad1)*%
X134480000Y-92000000D03*
%TO.P,C1,2*%
%TO.N,GND*%
X133520000Y-92000000D03*
%TD*%
D12*
%TO.P,U3,1*%
%TO.N,/D5*%
X134050000Y-86050000D03*
%TO.P,U3,2*%
%TO.N,GND*%
X134050000Y-86700000D03*
%TO.P,U3,3*%
%TO.N,/D7*%
X134050000Y-87350000D03*
%TO.P,U3,4*%
%TO.N,/D6*%
X135950000Y-87350000D03*
%TO.P,U3,5*%
%TO.N,Net-(C1-Pad1)*%
X135950000Y-86700000D03*
%TO.P,U3,6*%
%TO.N,/D4*%
X135950000Y-86050000D03*
%TD*%
D11*
%TO.P,R1,1*%
%TO.N,VCC*%
X126510000Y-102000000D03*
%TO.P,R1,2*%
%TO.N,Net-(C1-Pad1)*%
X125490000Y-102000000D03*
%TD*%
D12*
%TO.P,U3,1*%
%TO.N,/D5*%
X124050000Y-96050000D03*
%TO.P,U3,2*%
%TO.N,GND*%
X124050000Y-96700000D03*
%TO.P,U3,3*%
%TO.N,/D7*%
X124050000Y-97350000D03*
%TO.P,U3,4*%
%TO.N,/D6*%
X125950000Y-97350000D03*
%TO.P,U3,5*%
%TO.N,Net-(C1-Pad1)*%
X125950000Y-96700000D03*
%TO.P,U3,6*%
%TO.N,/D4*%
X125950000Y-96050000D03*
%TD*%
D11*
%TO.P,R1,1*%
%TO.N,VCC*%
X106510000Y-102000000D03*
%TO.P,R1,2*%
%TO.N,Net-(C1-Pad1)*%
X105490000Y-102000000D03*
%TD*%
%TO.P,R1,1*%
%TO.N,VCC*%
X126510000Y-92000000D03*
%TO.P,R1,2*%
%TO.N,Net-(C1-Pad1)*%
X125490000Y-92000000D03*
%TD*%
D10*
%TO.P,C1,1*%
%TO.N,Net-(C1-Pad1)*%
X104480000Y-102000000D03*
%TO.P,C1,2*%
%TO.N,GND*%
X103520000Y-102000000D03*
%TD*%
%TO.P,C1,1*%
%TO.N,Net-(C1-Pad1)*%
X134480000Y-102000000D03*
%TO.P,C1,2*%
%TO.N,GND*%
X133520000Y-102000000D03*
%TD*%
D12*
%TO.P,U2,1*%
%TO.N,/D1*%
X104050000Y-83250000D03*
%TO.P,U2,2*%
%TO.N,GND*%
X104050000Y-83900000D03*
%TO.P,U2,3*%
%TO.N,/D3*%
X104050000Y-84550000D03*
%TO.P,U2,4*%
%TO.N,/D2*%
X105950000Y-84550000D03*
%TO.P,U2,5*%
%TO.N,Net-(C1-Pad1)*%
X105950000Y-83900000D03*
%TO.P,U2,6*%
%TO.N,/D0*%
X105950000Y-83250000D03*
%TD*%
D13*
%TO.P,U1,1,A->B*%
%TO.N,unconnected-(U1-Pad1)*%
X132137500Y-92075000D03*
%TO.P,U1,2,A0*%
%TO.N,/D0*%
X132137500Y-92725000D03*
%TO.P,U1,3,A1*%
%TO.N,/D1*%
X132137500Y-93375000D03*
%TO.P,U1,4,A2*%
%TO.N,/D2*%
X132137500Y-94025000D03*
%TO.P,U1,5,A3*%
%TO.N,/D3*%
X132137500Y-94675000D03*
%TO.P,U1,6,A4*%
%TO.N,/D4*%
X132137500Y-95325000D03*
%TO.P,U1,7,A5*%
%TO.N,/D5*%
X132137500Y-95975000D03*
%TO.P,U1,8,A6*%
%TO.N,/D6*%
X132137500Y-96625000D03*
%TO.P,U1,9,A7*%
%TO.N,/D7*%
X132137500Y-97275000D03*
%TO.P,U1,10,GND*%
%TO.N,GND*%
X132137500Y-97925000D03*
%TO.P,U1,11,B7*%
%TO.N,/D7*%
X137862500Y-97925000D03*
%TO.P,U1,12,B6*%
%TO.N,/D6*%
X137862500Y-97275000D03*
%TO.P,U1,13,B5*%
%TO.N,/D5*%
X137862500Y-96625000D03*
%TO.P,U1,14,B4*%
%TO.N,/D4*%
X137862500Y-95975000D03*
%TO.P,U1,15,B3*%
%TO.N,/D3*%
X137862500Y-95325000D03*
%TO.P,U1,16,B2*%
%TO.N,/D2*%
X137862500Y-94675000D03*
%TO.P,U1,17,B1*%
%TO.N,/D1*%
X137862500Y-94025000D03*
%TO.P,U1,18,B0*%
%TO.N,/D0*%
X137862500Y-93375000D03*
%TO.P,U1,19,CE*%
%TO.N,unconnected-(U1-Pad19)*%
X137862500Y-92725000D03*
%TO.P,U1,20,VCC*%
%TO.N,VCC*%
X137862500Y-92075000D03*
%TD*%
D11*
%TO.P,R1,1*%
%TO.N,VCC*%
X116510000Y-92000000D03*
%TO.P,R1,2*%
%TO.N,Net-(C1-Pad1)*%
X115490000Y-92000000D03*
%TD*%
D12*
%TO.P,U2,1*%
%TO.N,/D1*%
X94050000Y-93250000D03*
%TO.P,U2,2*%
%TO.N,GND*%
X94050000Y-93900000D03*
%TO.P,U2,3*%
%TO.N,/D3*%
X94050000Y-94550000D03*
%TO.P,U2,4*%
%TO.N,/D2*%
X95950000Y-94550000D03*
%TO.P,U2,5*%
%TO.N,Net-(C1-Pad1)*%
X95950000Y-93900000D03*
%TO.P,U2,6*%
%TO.N,/D0*%
X95950000Y-93250000D03*
%TD*%
%TO.P,U2,1*%
%TO.N,/D1*%
X124050000Y-93250000D03*
%TO.P,U2,2*%
%TO.N,GND*%
X124050000Y-93900000D03*
%TO.P,U2,3*%
%TO.N,/D3*%
X124050000Y-94550000D03*
%TO.P,U2,4*%
%TO.N,/D2*%
X125950000Y-94550000D03*
%TO.P,U2,5*%
%TO.N,Net-(C1-Pad1)*%
X125950000Y-93900000D03*
%TO.P,U2,6*%
%TO.N,/D0*%
X125950000Y-93250000D03*
%TD*%
%TO.P,U2,1*%
%TO.N,/D1*%
X114050000Y-103250000D03*
%TO.P,U2,2*%
%TO.N,GND*%
X114050000Y-103900000D03*
%TO.P,U2,3*%
%TO.N,/D3*%
X114050000Y-104550000D03*
%TO.P,U2,4*%
%TO.N,/D2*%
X115950000Y-104550000D03*
%TO.P,U2,5*%
%TO.N,Net-(C1-Pad1)*%
X115950000Y-103900000D03*
%TO.P,U2,6*%
%TO.N,/D0*%
X115950000Y-103250000D03*
%TD*%
%TO.P,U2,1*%
%TO.N,/D1*%
X94050000Y-83250000D03*
%TO.P,U2,2*%
%TO.N,GND*%
X94050000Y-83900000D03*
%TO.P,U2,3*%
%TO.N,/D3*%
X94050000Y-84550000D03*
%TO.P,U2,4*%
%TO.N,/D2*%
X95950000Y-84550000D03*
%TO.P,U2,5*%
%TO.N,Net-(C1-Pad1)*%
X95950000Y-83900000D03*
%TO.P,U2,6*%
%TO.N,/D0*%
X95950000Y-83250000D03*
%TD*%
D13*
%TO.P,U1,1,A->B*%
%TO.N,unconnected-(U1-Pad1)*%
X132137500Y-102075000D03*
%TO.P,U1,2,A0*%
%TO.N,/D0*%
X132137500Y-102725000D03*
%TO.P,U1,3,A1*%
%TO.N,/D1*%
X132137500Y-103375000D03*
%TO.P,U1,4,A2*%
%TO.N,/D2*%
X132137500Y-104025000D03*
%TO.P,U1,5,A3*%
%TO.N,/D3*%
X132137500Y-104675000D03*
%TO.P,U1,6,A4*%
%TO.N,/D4*%
X132137500Y-105325000D03*
%TO.P,U1,7,A5*%
%TO.N,/D5*%
X132137500Y-105975000D03*
%TO.P,U1,8,A6*%
%TO.N,/D6*%
X132137500Y-106625000D03*
%TO.P,U1,9,A7*%
%TO.N,/D7*%
X132137500Y-107275000D03*
%TO.P,U1,10,GND*%
%TO.N,GND*%
X132137500Y-107925000D03*
%TO.P,U1,11,B7*%
%TO.N,/D7*%
X137862500Y-107925000D03*
%TO.P,U1,12,B6*%
%TO.N,/D6*%
X137862500Y-107275000D03*
%TO.P,U1,13,B5*%
%TO.N,/D5*%
X137862500Y-106625000D03*
%TO.P,U1,14,B4*%
%TO.N,/D4*%
X137862500Y-105975000D03*
%TO.P,U1,15,B3*%
%TO.N,/D3*%
X137862500Y-105325000D03*
%TO.P,U1,16,B2*%
%TO.N,/D2*%
X137862500Y-104675000D03*
%TO.P,U1,17,B1*%
%TO.N,/D1*%
X137862500Y-104025000D03*
%TO.P,U1,18,B0*%
%TO.N,/D0*%
X137862500Y-103375000D03*
%TO.P,U1,19,CE*%
%TO.N,unconnected-(U1-Pad19)*%
X137862500Y-102725000D03*
%TO.P,U1,20,VCC*%
%TO.N,VCC*%
X137862500Y-102075000D03*
%TD*%
%TO.P,U1,1,A->B*%
%TO.N,unconnected-(U1-Pad1)*%
X122137500Y-102075000D03*
%TO.P,U1,2,A0*%
%TO.N,/D0*%
X122137500Y-102725000D03*
%TO.P,U1,3,A1*%
%TO.N,/D1*%
X122137500Y-103375000D03*
%TO.P,U1,4,A2*%
%TO.N,/D2*%
X122137500Y-104025000D03*
%TO.P,U1,5,A3*%
%TO.N,/D3*%
X122137500Y-104675000D03*
%TO.P,U1,6,A4*%
%TO.N,/D4*%
X122137500Y-105325000D03*
%TO.P,U1,7,A5*%
%TO.N,/D5*%
X122137500Y-105975000D03*
%TO.P,U1,8,A6*%
%TO.N,/D6*%
X122137500Y-106625000D03*
%TO.P,U1,9,A7*%
%TO.N,/D7*%
X122137500Y-107275000D03*
%TO.P,U1,10,GND*%
%TO.N,GND*%
X122137500Y-107925000D03*
%TO.P,U1,11,B7*%
%TO.N,/D7*%
X127862500Y-107925000D03*
%TO.P,U1,12,B6*%
%TO.N,/D6*%
X127862500Y-107275000D03*
%TO.P,U1,13,B5*%
%TO.N,/D5*%
X127862500Y-106625000D03*
%TO.P,U1,14,B4*%
%TO.N,/D4*%
X127862500Y-105975000D03*
%TO.P,U1,15,B3*%
%TO.N,/D3*%
X127862500Y-105325000D03*
%TO.P,U1,16,B2*%
%TO.N,/D2*%
X127862500Y-104675000D03*
%TO.P,U1,17,B1*%
%TO.N,/D1*%
X127862500Y-104025000D03*
%TO.P,U1,18,B0*%
%TO.N,/D0*%
X127862500Y-103375000D03*
%TO.P,U1,19,CE*%
%TO.N,unconnected-(U1-Pad19)*%
X127862500Y-102725000D03*
%TO.P,U1,20,VCC*%
%TO.N,VCC*%
X127862500Y-102075000D03*
%TD*%
%TO.P,U1,1,A->B*%
%TO.N,unconnected-(U1-Pad1)*%
X122137500Y-92075000D03*
%TO.P,U1,2,A0*%
%TO.N,/D0*%
X122137500Y-92725000D03*
%TO.P,U1,3,A1*%
%TO.N,/D1*%
X122137500Y-93375000D03*
%TO.P,U1,4,A2*%
%TO.N,/D2*%
X122137500Y-94025000D03*
%TO.P,U1,5,A3*%
%TO.N,/D3*%
X122137500Y-94675000D03*
%TO.P,U1,6,A4*%
%TO.N,/D4*%
X122137500Y-95325000D03*
%TO.P,U1,7,A5*%
%TO.N,/D5*%
X122137500Y-95975000D03*
%TO.P,U1,8,A6*%
%TO.N,/D6*%
X122137500Y-96625000D03*
%TO.P,U1,9,A7*%
%TO.N,/D7*%
X122137500Y-97275000D03*
%TO.P,U1,10,GND*%
%TO.N,GND*%
X122137500Y-97925000D03*
%TO.P,U1,11,B7*%
%TO.N,/D7*%
X127862500Y-97925000D03*
%TO.P,U1,12,B6*%
%TO.N,/D6*%
X127862500Y-97275000D03*
%TO.P,U1,13,B5*%
%TO.N,/D5*%
X127862500Y-96625000D03*
%TO.P,U1,14,B4*%
%TO.N,/D4*%
X127862500Y-95975000D03*
%TO.P,U1,15,B3*%
%TO.N,/D3*%
X127862500Y-95325000D03*
%TO.P,U1,16,B2*%
%TO.N,/D2*%
X127862500Y-94675000D03*
%TO.P,U1,17,B1*%
%TO.N,/D1*%
X127862500Y-94025000D03*
%TO.P,U1,18,B0*%
%TO.N,/D0*%
X127862500Y-93375000D03*
%TO.P,U1,19,CE*%
%TO.N,unconnected-(U1-Pad19)*%
X127862500Y-92725000D03*
%TO.P,U1,20,VCC*%
%TO.N,VCC*%
X127862500Y-92075000D03*
%TD*%
D12*
%TO.P,U3,1*%
%TO.N,/D5*%
X114050000Y-86050000D03*
%TO.P,U3,2*%
%TO.N,GND*%
X114050000Y-86700000D03*
%TO.P,U3,3*%
%TO.N,/D7*%
X114050000Y-87350000D03*
%TO.P,U3,4*%
%TO.N,/D6*%
X115950000Y-87350000D03*
%TO.P,U3,5*%
%TO.N,Net-(C1-Pad1)*%
X115950000Y-86700000D03*
%TO.P,U3,6*%
%TO.N,/D4*%
X115950000Y-86050000D03*
%TD*%
%TO.P,U3,1*%
%TO.N,/D5*%
X114050000Y-96050000D03*
%TO.P,U3,2*%
%TO.N,GND*%
X114050000Y-96700000D03*
%TO.P,U3,3*%
%TO.N,/D7*%
X114050000Y-97350000D03*
%TO.P,U3,4*%
%TO.N,/D6*%
X115950000Y-97350000D03*
%TO.P,U3,5*%
%TO.N,Net-(C1-Pad1)*%
X115950000Y-96700000D03*
%TO.P,U3,6*%
%TO.N,/D4*%
X115950000Y-96050000D03*
%TD*%
%TO.P,U3,1*%
%TO.N,/D5*%
X114050000Y-106050000D03*
%TO.P,U3,2*%
%TO.N,GND*%
X114050000Y-106700000D03*
%TO.P,U3,3*%
%TO.N,/D7*%
X114050000Y-107350000D03*
%TO.P,U3,4*%
%TO.N,/D6*%
X115950000Y-107350000D03*
%TO.P,U3,5*%
%TO.N,Net-(C1-Pad1)*%
X115950000Y-106700000D03*
%TO.P,U3,6*%
%TO.N,/D4*%
X115950000Y-106050000D03*
%TD*%
D13*
%TO.P,U1,1,A->B*%
%TO.N,unconnected-(U1-Pad1)*%
X92137500Y-102075000D03*
%TO.P,U1,2,A0*%
%TO.N,/D0*%
X92137500Y-102725000D03*
%TO.P,U1,3,A1*%
%TO.N,/D1*%
X92137500Y-103375000D03*
%TO.P,U1,4,A2*%
%TO.N,/D2*%
X92137500Y-104025000D03*
%TO.P,U1,5,A3*%
%TO.N,/D3*%
X92137500Y-104675000D03*
%TO.P,U1,6,A4*%
%TO.N,/D4*%
X92137500Y-105325000D03*
%TO.P,U1,7,A5*%
%TO.N,/D5*%
X92137500Y-105975000D03*
%TO.P,U1,8,A6*%
%TO.N,/D6*%
X92137500Y-106625000D03*
%TO.P,U1,9,A7*%
%TO.N,/D7*%
X92137500Y-107275000D03*
%TO.P,U1,10,GND*%
%TO.N,GND*%
X92137500Y-107925000D03*
%TO.P,U1,11,B7*%
%TO.N,/D7*%
X97862500Y-107925000D03*
%TO.P,U1,12,B6*%
%TO.N,/D6*%
X97862500Y-107275000D03*
%TO.P,U1,13,B5*%
%TO.N,/D5*%
X97862500Y-106625000D03*
%TO.P,U1,14,B4*%
%TO.N,/D4*%
X97862500Y-105975000D03*
%TO.P,U1,15,B3*%
%TO.N,/D3*%
X97862500Y-105325000D03*
%TO.P,U1,16,B2*%
%TO.N,/D2*%
X97862500Y-104675000D03*
%TO.P,U1,17,B1*%
%TO.N,/D1*%
X97862500Y-104025000D03*
%TO.P,U1,18,B0*%
%TO.N,/D0*%
X97862500Y-103375000D03*
%TO.P,U1,19,CE*%
%TO.N,unconnected-(U1-Pad19)*%
X97862500Y-102725000D03*
%TO.P,U1,20,VCC*%
%TO.N,VCC*%
X97862500Y-102075000D03*
%TD*%
D12*
%TO.P,U2,1*%
%TO.N,/D1*%
X124050000Y-103250000D03*
%TO.P,U2,2*%
%TO.N,GND*%
X124050000Y-103900000D03*
%TO.P,U2,3*%
%TO.N,/D3*%
X124050000Y-104550000D03*
%TO.P,U2,4*%
%TO.N,/D2*%
X125950000Y-104550000D03*
%TO.P,U2,5*%
%TO.N,Net-(C1-Pad1)*%
X125950000Y-103900000D03*
%TO.P,U2,6*%
%TO.N,/D0*%
X125950000Y-103250000D03*
%TD*%
%TO.P,U2,1*%
%TO.N,/D1*%
X134050000Y-83250000D03*
%TO.P,U2,2*%
%TO.N,GND*%
X134050000Y-83900000D03*
%TO.P,U2,3*%
%TO.N,/D3*%
X134050000Y-84550000D03*
%TO.P,U2,4*%
%TO.N,/D2*%
X135950000Y-84550000D03*
%TO.P,U2,5*%
%TO.N,Net-(C1-Pad1)*%
X135950000Y-83900000D03*
%TO.P,U2,6*%
%TO.N,/D0*%
X135950000Y-83250000D03*
%TD*%
%TO.P,U2,1*%
%TO.N,/D1*%
X104050000Y-103250000D03*
%TO.P,U2,2*%
%TO.N,GND*%
X104050000Y-103900000D03*
%TO.P,U2,3*%
%TO.N,/D3*%
X104050000Y-104550000D03*
%TO.P,U2,4*%
%TO.N,/D2*%
X105950000Y-104550000D03*
%TO.P,U2,5*%
%TO.N,Net-(C1-Pad1)*%
X105950000Y-103900000D03*
%TO.P,U2,6*%
%TO.N,/D0*%
X105950000Y-103250000D03*
%TD*%
D13*
%TO.P,U1,1,A->B*%
%TO.N,unconnected-(U1-Pad1)*%
X102137500Y-92075000D03*
%TO.P,U1,2,A0*%
%TO.N,/D0*%
X102137500Y-92725000D03*
%TO.P,U1,3,A1*%
%TO.N,/D1*%
X102137500Y-93375000D03*
%TO.P,U1,4,A2*%
%TO.N,/D2*%
X102137500Y-94025000D03*
%TO.P,U1,5,A3*%
%TO.N,/D3*%
X102137500Y-94675000D03*
%TO.P,U1,6,A4*%
%TO.N,/D4*%
X102137500Y-95325000D03*
%TO.P,U1,7,A5*%
%TO.N,/D5*%
X102137500Y-95975000D03*
%TO.P,U1,8,A6*%
%TO.N,/D6*%
X102137500Y-96625000D03*
%TO.P,U1,9,A7*%
%TO.N,/D7*%
X102137500Y-97275000D03*
%TO.P,U1,10,GND*%
%TO.N,GND*%
X102137500Y-97925000D03*
%TO.P,U1,11,B7*%
%TO.N,/D7*%
X107862500Y-97925000D03*
%TO.P,U1,12,B6*%
%TO.N,/D6*%
X107862500Y-97275000D03*
%TO.P,U1,13,B5*%
%TO.N,/D5*%
X107862500Y-96625000D03*
%TO.P,U1,14,B4*%
%TO.N,/D4*%
X107862500Y-95975000D03*
%TO.P,U1,15,B3*%
%TO.N,/D3*%
X107862500Y-95325000D03*
%TO.P,U1,16,B2*%
%TO.N,/D2*%
X107862500Y-94675000D03*
%TO.P,U1,17,B1*%
%TO.N,/D1*%
X107862500Y-94025000D03*
%TO.P,U1,18,B0*%
%TO.N,/D0*%
X107862500Y-93375000D03*
%TO.P,U1,19,CE*%
%TO.N,unconnected-(U1-Pad19)*%
X107862500Y-92725000D03*
%TO.P,U1,20,VCC*%
%TO.N,VCC*%
X107862500Y-92075000D03*
%TD*%
D12*
%TO.P,U2,1*%
%TO.N,/D1*%
X104050000Y-93250000D03*
%TO.P,U2,2*%
%TO.N,GND*%
X104050000Y-93900000D03*
%TO.P,U2,3*%
%TO.N,/D3*%
X104050000Y-94550000D03*
%TO.P,U2,4*%
%TO.N,/D2*%
X105950000Y-94550000D03*
%TO.P,U2,5*%
%TO.N,Net-(C1-Pad1)*%
X105950000Y-93900000D03*
%TO.P,U2,6*%
%TO.N,/D0*%
X105950000Y-93250000D03*
%TD*%
D11*
%TO.P,R1,1*%
%TO.N,VCC*%
X126510000Y-82000000D03*
%TO.P,R1,2*%
%TO.N,Net-(C1-Pad1)*%
X125490000Y-82000000D03*
%TD*%
D10*
%TO.P,C1,1*%
%TO.N,Net-(C1-Pad1)*%
X114480000Y-102000000D03*
%TO.P,C1,2*%
%TO.N,GND*%
X113520000Y-102000000D03*
%TD*%
D11*
%TO.P,R1,1*%
%TO.N,VCC*%
X116510000Y-102000000D03*
%TO.P,R1,2*%
%TO.N,Net-(C1-Pad1)*%
X115490000Y-102000000D03*
%TD*%
D13*
%TO.P,U1,1,A->B*%
%TO.N,unconnected-(U1-Pad1)*%
X112137500Y-92075000D03*
%TO.P,U1,2,A0*%
%TO.N,/D0*%
X112137500Y-92725000D03*
%TO.P,U1,3,A1*%
%TO.N,/D1*%
X112137500Y-93375000D03*
%TO.P,U1,4,A2*%
%TO.N,/D2*%
X112137500Y-94025000D03*
%TO.P,U1,5,A3*%
%TO.N,/D3*%
X112137500Y-94675000D03*
%TO.P,U1,6,A4*%
%TO.N,/D4*%
X112137500Y-95325000D03*
%TO.P,U1,7,A5*%
%TO.N,/D5*%
X112137500Y-95975000D03*
%TO.P,U1,8,A6*%
%TO.N,/D6*%
X112137500Y-96625000D03*
%TO.P,U1,9,A7*%
%TO.N,/D7*%
X112137500Y-97275000D03*
%TO.P,U1,10,GND*%
%TO.N,GND*%
X112137500Y-97925000D03*
%TO.P,U1,11,B7*%
%TO.N,/D7*%
X117862500Y-97925000D03*
%TO.P,U1,12,B6*%
%TO.N,/D6*%
X117862500Y-97275000D03*
%TO.P,U1,13,B5*%
%TO.N,/D5*%
X117862500Y-96625000D03*
%TO.P,U1,14,B4*%
%TO.N,/D4*%
X117862500Y-95975000D03*
%TO.P,U1,15,B3*%
%TO.N,/D3*%
X117862500Y-95325000D03*
%TO.P,U1,16,B2*%
%TO.N,/D2*%
X117862500Y-94675000D03*
%TO.P,U1,17,B1*%
%TO.N,/D1*%
X117862500Y-94025000D03*
%TO.P,U1,18,B0*%
%TO.N,/D0*%
X117862500Y-93375000D03*
%TO.P,U1,19,CE*%
%TO.N,unconnected-(U1-Pad19)*%
X117862500Y-92725000D03*
%TO.P,U1,20,VCC*%
%TO.N,VCC*%
X117862500Y-92075000D03*
%TD*%
D12*
%TO.P,U2,1*%
%TO.N,/D1*%
X134050000Y-103250000D03*
%TO.P,U2,2*%
%TO.N,GND*%
X134050000Y-103900000D03*
%TO.P,U2,3*%
%TO.N,/D3*%
X134050000Y-104550000D03*
%TO.P,U2,4*%
%TO.N,/D2*%
X135950000Y-104550000D03*
%TO.P,U2,5*%
%TO.N,Net-(C1-Pad1)*%
X135950000Y-103900000D03*
%TO.P,U2,6*%
%TO.N,/D0*%
X135950000Y-103250000D03*
%TD*%
%TO.P,U3,1*%
%TO.N,/D5*%
X134050000Y-106050000D03*
%TO.P,U3,2*%
%TO.N,GND*%
X134050000Y-106700000D03*
%TO.P,U3,3*%
%TO.N,/D7*%
X134050000Y-107350000D03*
%TO.P,U3,4*%
%TO.N,/D6*%
X135950000Y-107350000D03*
%TO.P,U3,5*%
%TO.N,Net-(C1-Pad1)*%
X135950000Y-106700000D03*
%TO.P,U3,6*%
%TO.N,/D4*%
X135950000Y-106050000D03*
%TD*%
D13*
%TO.P,U1,1,A->B*%
%TO.N,unconnected-(U1-Pad1)*%
X132137500Y-82075000D03*
%TO.P,U1,2,A0*%
%TO.N,/D0*%
X132137500Y-82725000D03*
%TO.P,U1,3,A1*%
%TO.N,/D1*%
X132137500Y-83375000D03*
%TO.P,U1,4,A2*%
%TO.N,/D2*%
X132137500Y-84025000D03*
%TO.P,U1,5,A3*%
%TO.N,/D3*%
X132137500Y-84675000D03*
%TO.P,U1,6,A4*%
%TO.N,/D4*%
X132137500Y-85325000D03*
%TO.P,U1,7,A5*%
%TO.N,/D5*%
X132137500Y-85975000D03*
%TO.P,U1,8,A6*%
%TO.N,/D6*%
X132137500Y-86625000D03*
%TO.P,U1,9,A7*%
%TO.N,/D7*%
X132137500Y-87275000D03*
%TO.P,U1,10,GND*%
%TO.N,GND*%
X132137500Y-87925000D03*
%TO.P,U1,11,B7*%
%TO.N,/D7*%
X137862500Y-87925000D03*
%TO.P,U1,12,B6*%
%TO.N,/D6*%
X137862500Y-87275000D03*
%TO.P,U1,13,B5*%
%TO.N,/D5*%
X137862500Y-86625000D03*
%TO.P,U1,14,B4*%
%TO.N,/D4*%
X137862500Y-85975000D03*
%TO.P,U1,15,B3*%
%TO.N,/D3*%
X137862500Y-85325000D03*
%TO.P,U1,16,B2*%
%TO.N,/D2*%
X137862500Y-84675000D03*
%TO.P,U1,17,B1*%
%TO.N,/D1*%
X137862500Y-84025000D03*
%TO.P,U1,18,B0*%
%TO.N,/D0*%
X137862500Y-83375000D03*
%TO.P,U1,19,CE*%
%TO.N,unconnected-(U1-Pad19)*%
X137862500Y-82725000D03*
%TO.P,U1,20,VCC*%
%TO.N,VCC*%
X137862500Y-82075000D03*
%TD*%
D10*
%TO.P,C1,1*%
%TO.N,Net-(C1-Pad1)*%
X94480000Y-82000000D03*
%TO.P,C1,2*%
%TO.N,GND*%
X93520000Y-82000000D03*
%TD*%
D14*
%TO.N,Net-(C1-Pad1)*%
X115950000Y-106700000D02*
X115500000Y-106700000D01*
X125950000Y-94025000D02*
X125950000Y-93900000D01*
X125300000Y-82800000D02*
X125300000Y-84025000D01*
X95000000Y-82000000D02*
X95000000Y-82500000D01*
X105950000Y-104025000D02*
X105950000Y-103900000D01*
X95950000Y-96700000D02*
X95500000Y-96700000D01*
X105500000Y-96700000D02*
X105300000Y-96500000D01*
X105500000Y-106700000D02*
X105300000Y-106500000D01*
X105000000Y-102500000D02*
X105300000Y-102800000D01*
X105000000Y-82000000D02*
X105000000Y-82500000D01*
X115500000Y-106700000D02*
X115300000Y-106500000D01*
X115000000Y-102000000D02*
X115490000Y-102000000D01*
X105500000Y-86700000D02*
X105300000Y-86500000D01*
X105950000Y-106700000D02*
X105500000Y-106700000D01*
X95300000Y-102800000D02*
X95300000Y-104025000D01*
X115300000Y-82800000D02*
X115300000Y-84025000D01*
X95000000Y-92500000D02*
X95300000Y-92800000D01*
X104480000Y-82000000D02*
X105000000Y-82000000D01*
X115950000Y-94025000D02*
X115950000Y-93900000D01*
X95300000Y-104025000D02*
X95950000Y-104025000D01*
X95000000Y-82000000D02*
X95490000Y-82000000D01*
X95950000Y-84025000D02*
X95950000Y-83900000D01*
X135500000Y-86700000D02*
X135300000Y-86500000D01*
X114480000Y-102000000D02*
X115000000Y-102000000D01*
X105000000Y-92000000D02*
X105490000Y-92000000D01*
X95950000Y-104025000D02*
X95950000Y-103900000D01*
X135300000Y-102800000D02*
X135300000Y-104025000D01*
X115950000Y-96700000D02*
X115500000Y-96700000D01*
X134480000Y-102000000D02*
X135000000Y-102000000D01*
X95300000Y-92800000D02*
X95300000Y-94025000D01*
X94480000Y-92000000D02*
X95000000Y-92000000D01*
X95300000Y-106500000D02*
X95300000Y-104025000D01*
X95000000Y-82500000D02*
X95300000Y-82800000D01*
X105300000Y-102800000D02*
X105300000Y-104025000D01*
X115300000Y-84025000D02*
X115950000Y-84025000D01*
X105300000Y-96500000D02*
X105300000Y-94025000D01*
X135500000Y-106700000D02*
X135300000Y-106500000D01*
X115300000Y-106500000D02*
X115300000Y-104025000D01*
X105300000Y-84025000D02*
X105950000Y-84025000D01*
X125000000Y-92000000D02*
X125490000Y-92000000D01*
X125000000Y-92500000D02*
X125300000Y-92800000D01*
X115000000Y-82000000D02*
X115490000Y-82000000D01*
X115000000Y-102500000D02*
X115300000Y-102800000D01*
X125300000Y-92800000D02*
X125300000Y-94025000D01*
X125000000Y-82000000D02*
X125490000Y-82000000D01*
X95000000Y-102500000D02*
X95300000Y-102800000D01*
X135000000Y-102000000D02*
X135000000Y-102500000D01*
X105000000Y-92000000D02*
X105000000Y-92500000D01*
X115500000Y-96700000D02*
X115300000Y-96500000D01*
X95500000Y-86700000D02*
X95300000Y-86500000D01*
X95300000Y-82800000D02*
X95300000Y-84025000D01*
X125500000Y-106700000D02*
X125300000Y-106500000D01*
X105000000Y-82500000D02*
X105300000Y-82800000D01*
X105000000Y-92500000D02*
X105300000Y-92800000D01*
X135950000Y-84025000D02*
X135950000Y-83900000D01*
X135300000Y-104025000D02*
X135950000Y-104025000D01*
X105300000Y-92800000D02*
X105300000Y-94025000D01*
X115000000Y-92000000D02*
X115000000Y-92500000D01*
X135950000Y-104025000D02*
X135950000Y-103900000D01*
X104480000Y-92000000D02*
X105000000Y-92000000D01*
X105300000Y-86500000D02*
X105300000Y-84025000D01*
X105950000Y-84025000D02*
X105950000Y-83900000D01*
X134480000Y-92000000D02*
X135000000Y-92000000D01*
X125950000Y-84025000D02*
X125950000Y-83900000D01*
X105000000Y-82000000D02*
X105490000Y-82000000D01*
X135950000Y-106700000D02*
X135500000Y-106700000D01*
X125300000Y-84025000D02*
X125950000Y-84025000D01*
X125300000Y-106500000D02*
X125300000Y-104025000D01*
X135300000Y-82800000D02*
X135300000Y-84025000D01*
X135300000Y-84025000D02*
X135950000Y-84025000D01*
X125950000Y-96700000D02*
X125500000Y-96700000D01*
X115950000Y-86700000D02*
X115500000Y-86700000D01*
X125300000Y-86500000D02*
X125300000Y-84025000D01*
X115950000Y-104025000D02*
X115950000Y-103900000D01*
X124480000Y-82000000D02*
X125000000Y-82000000D01*
X135000000Y-92500000D02*
X135300000Y-92800000D01*
X115500000Y-86700000D02*
X115300000Y-86500000D01*
X135300000Y-106500000D02*
X135300000Y-104025000D01*
X115950000Y-84025000D02*
X115950000Y-83900000D01*
X95950000Y-94025000D02*
X95950000Y-93900000D01*
X95000000Y-102000000D02*
X95000000Y-102500000D01*
X125000000Y-102000000D02*
X125490000Y-102000000D01*
X105300000Y-106500000D02*
X105300000Y-104025000D01*
X95500000Y-106700000D02*
X95300000Y-106500000D01*
X135300000Y-96500000D02*
X135300000Y-94025000D01*
X95000000Y-102000000D02*
X95490000Y-102000000D01*
X125000000Y-82500000D02*
X125300000Y-82800000D01*
X125300000Y-94025000D02*
X125950000Y-94025000D01*
X115000000Y-82000000D02*
X115000000Y-82500000D01*
X94480000Y-102000000D02*
X95000000Y-102000000D01*
X134480000Y-82000000D02*
X135000000Y-82000000D01*
X114480000Y-82000000D02*
X115000000Y-82000000D01*
X125000000Y-82000000D02*
X125000000Y-82500000D01*
X105000000Y-102000000D02*
X105000000Y-102500000D01*
X135950000Y-86700000D02*
X135500000Y-86700000D01*
X135950000Y-96700000D02*
X135500000Y-96700000D01*
X95950000Y-106700000D02*
X95500000Y-106700000D01*
X125000000Y-102500000D02*
X125300000Y-102800000D01*
X115300000Y-104025000D02*
X115950000Y-104025000D01*
X95000000Y-92000000D02*
X95000000Y-92500000D01*
X135000000Y-102500000D02*
X135300000Y-102800000D01*
X104480000Y-102000000D02*
X105000000Y-102000000D01*
X95950000Y-86700000D02*
X95500000Y-86700000D01*
X135300000Y-94025000D02*
X135950000Y-94025000D01*
X124480000Y-92000000D02*
X125000000Y-92000000D01*
X135000000Y-82500000D02*
X135300000Y-82800000D01*
X95300000Y-96500000D02*
X95300000Y-94025000D01*
X115300000Y-94025000D02*
X115950000Y-94025000D01*
X135500000Y-96700000D02*
X135300000Y-96500000D01*
X115300000Y-92800000D02*
X115300000Y-94025000D01*
X115000000Y-82500000D02*
X115300000Y-82800000D01*
X124480000Y-102000000D02*
X125000000Y-102000000D01*
X125950000Y-104025000D02*
X125950000Y-103900000D01*
X135950000Y-94025000D02*
X135950000Y-93900000D01*
X125950000Y-86700000D02*
X125500000Y-86700000D01*
X95300000Y-94025000D02*
X95950000Y-94025000D01*
X135300000Y-92800000D02*
X135300000Y-94025000D01*
X125500000Y-96700000D02*
X125300000Y-96500000D01*
X115000000Y-102000000D02*
X115000000Y-102500000D01*
X115000000Y-92000000D02*
X115490000Y-92000000D01*
X125500000Y-86700000D02*
X125300000Y-86500000D01*
X105950000Y-86700000D02*
X105500000Y-86700000D01*
X135300000Y-86500000D02*
X135300000Y-84025000D01*
X105950000Y-96700000D02*
X105500000Y-96700000D01*
X135000000Y-92000000D02*
X135000000Y-92500000D01*
X105300000Y-82800000D02*
X105300000Y-84025000D01*
X125950000Y-106700000D02*
X125500000Y-106700000D01*
X135000000Y-102000000D02*
X135490000Y-102000000D01*
X115300000Y-102800000D02*
X115300000Y-104025000D01*
X105950000Y-94025000D02*
X105950000Y-93900000D01*
X95300000Y-84025000D02*
X95950000Y-84025000D01*
X125300000Y-104025000D02*
X125950000Y-104025000D01*
X135000000Y-92000000D02*
X135490000Y-92000000D01*
X105300000Y-94025000D02*
X105950000Y-94025000D01*
X125300000Y-102800000D02*
X125300000Y-104025000D01*
X114480000Y-92000000D02*
X115000000Y-92000000D01*
X125000000Y-92000000D02*
X125000000Y-92500000D01*
X115300000Y-86500000D02*
X115300000Y-84025000D01*
X95500000Y-96700000D02*
X95300000Y-96500000D01*
X115000000Y-92500000D02*
X115300000Y-92800000D01*
X105300000Y-104025000D02*
X105950000Y-104025000D01*
X135000000Y-82000000D02*
X135490000Y-82000000D01*
X105000000Y-102000000D02*
X105490000Y-102000000D01*
X115300000Y-96500000D02*
X115300000Y-94025000D01*
X135000000Y-82000000D02*
X135000000Y-82500000D01*
X95000000Y-92000000D02*
X95490000Y-92000000D01*
X125300000Y-96500000D02*
X125300000Y-94025000D01*
X95300000Y-86500000D02*
X95300000Y-84025000D01*
X94480000Y-82000000D02*
X95000000Y-82000000D01*
X125000000Y-102000000D02*
X125000000Y-102500000D01*
%TO.N,GND*%
X114500000Y-92700000D02*
X114700000Y-92900000D01*
X114475000Y-97925000D02*
X114700000Y-97700000D01*
X94700000Y-86700000D02*
X94700000Y-83900000D01*
X104500000Y-102700000D02*
X104700000Y-102900000D01*
X93520000Y-82020000D02*
X94200000Y-82700000D01*
X124700000Y-93900000D02*
X124050000Y-93900000D01*
X94700000Y-83900000D02*
X94050000Y-83900000D01*
X114475000Y-107925000D02*
X114700000Y-107700000D01*
X133520000Y-82000000D02*
X133520000Y-82020000D01*
X124500000Y-102700000D02*
X124700000Y-102900000D01*
X94700000Y-96700000D02*
X94050000Y-96700000D01*
X132137500Y-107925000D02*
X134475000Y-107925000D01*
X134500000Y-82700000D02*
X134700000Y-82900000D01*
X124700000Y-83900000D02*
X124050000Y-83900000D01*
X114475000Y-87925000D02*
X114700000Y-87700000D01*
X124700000Y-82900000D02*
X124700000Y-83900000D01*
X122137500Y-97925000D02*
X124475000Y-97925000D01*
X104700000Y-102900000D02*
X104700000Y-103900000D01*
X94200000Y-82700000D02*
X94500000Y-82700000D01*
X94475000Y-87925000D02*
X94700000Y-87700000D01*
X94500000Y-92700000D02*
X94700000Y-92900000D01*
X134475000Y-87925000D02*
X134700000Y-87700000D01*
X134200000Y-82700000D02*
X134500000Y-82700000D01*
X124500000Y-82700000D02*
X124700000Y-82900000D01*
X124700000Y-97700000D02*
X124700000Y-96700000D01*
X104500000Y-92700000D02*
X104700000Y-92900000D01*
X113520000Y-82020000D02*
X114200000Y-82700000D01*
X114200000Y-82700000D02*
X114500000Y-82700000D01*
X114700000Y-82900000D02*
X114700000Y-83900000D01*
X134700000Y-106700000D02*
X134700000Y-103900000D01*
X104700000Y-106700000D02*
X104050000Y-106700000D01*
X134700000Y-83900000D02*
X134050000Y-83900000D01*
X124700000Y-106700000D02*
X124700000Y-103900000D01*
X104700000Y-83900000D02*
X104050000Y-83900000D01*
X114700000Y-92900000D02*
X114700000Y-93900000D01*
X124700000Y-107700000D02*
X124700000Y-106700000D01*
X114700000Y-106700000D02*
X114050000Y-106700000D01*
X122137500Y-87925000D02*
X124475000Y-87925000D01*
X124475000Y-87925000D02*
X124700000Y-87700000D01*
X102137500Y-87925000D02*
X104475000Y-87925000D01*
X94700000Y-106700000D02*
X94700000Y-103900000D01*
X124700000Y-87700000D02*
X124700000Y-86700000D01*
X113520000Y-102000000D02*
X113520000Y-102020000D01*
X134700000Y-103900000D02*
X134050000Y-103900000D01*
X134700000Y-92900000D02*
X134700000Y-93900000D01*
X104700000Y-86700000D02*
X104050000Y-86700000D01*
X134700000Y-87700000D02*
X134700000Y-86700000D01*
X104475000Y-97925000D02*
X104700000Y-97700000D01*
X94700000Y-92900000D02*
X94700000Y-93900000D01*
X134700000Y-107700000D02*
X134700000Y-106700000D01*
X114500000Y-102700000D02*
X114700000Y-102900000D01*
X94500000Y-82700000D02*
X94700000Y-82900000D01*
X103520000Y-102020000D02*
X104200000Y-102700000D01*
X94700000Y-97700000D02*
X94700000Y-96700000D01*
X94500000Y-102700000D02*
X94700000Y-102900000D01*
X123520000Y-92020000D02*
X124200000Y-92700000D01*
X103520000Y-82000000D02*
X103520000Y-82020000D01*
X103520000Y-92020000D02*
X104200000Y-92700000D01*
X94475000Y-107925000D02*
X94700000Y-107700000D01*
X134200000Y-102700000D02*
X134500000Y-102700000D01*
X114700000Y-87700000D02*
X114700000Y-86700000D01*
X104700000Y-86700000D02*
X104700000Y-83900000D01*
X92137500Y-87925000D02*
X94475000Y-87925000D01*
X134200000Y-92700000D02*
X134500000Y-92700000D01*
X104500000Y-82700000D02*
X104700000Y-82900000D01*
X94475000Y-97925000D02*
X94700000Y-97700000D01*
X134700000Y-97700000D02*
X134700000Y-96700000D01*
X114700000Y-97700000D02*
X114700000Y-96700000D01*
X134700000Y-93900000D02*
X134050000Y-93900000D01*
X114200000Y-92700000D02*
X114500000Y-92700000D01*
X134475000Y-107925000D02*
X134700000Y-107700000D01*
X134700000Y-86700000D02*
X134700000Y-83900000D01*
X123520000Y-102000000D02*
X123520000Y-102020000D01*
X104700000Y-106700000D02*
X104700000Y-103900000D01*
X93520000Y-92000000D02*
X93520000Y-92020000D01*
X114200000Y-102700000D02*
X114500000Y-102700000D01*
X94700000Y-106700000D02*
X94050000Y-106700000D01*
X134700000Y-96700000D02*
X134050000Y-96700000D01*
X133520000Y-92000000D02*
X133520000Y-92020000D01*
X134700000Y-102900000D02*
X134700000Y-103900000D01*
X104200000Y-82700000D02*
X104500000Y-82700000D01*
X124700000Y-103900000D02*
X124050000Y-103900000D01*
X104700000Y-92900000D02*
X104700000Y-93900000D01*
X134475000Y-97925000D02*
X134700000Y-97700000D01*
X123520000Y-82000000D02*
X123520000Y-82020000D01*
X102137500Y-97925000D02*
X104475000Y-97925000D01*
X122137500Y-107925000D02*
X124475000Y-107925000D01*
X103520000Y-102000000D02*
X103520000Y-102020000D01*
X113520000Y-92020000D02*
X114200000Y-92700000D01*
X123520000Y-102020000D02*
X124200000Y-102700000D01*
X112137500Y-107925000D02*
X114475000Y-107925000D01*
X124475000Y-97925000D02*
X124700000Y-97700000D01*
X104700000Y-82900000D02*
X104700000Y-83900000D01*
X113520000Y-82000000D02*
X113520000Y-82020000D01*
X113520000Y-92000000D02*
X113520000Y-92020000D01*
X112137500Y-97925000D02*
X114475000Y-97925000D01*
X103520000Y-82020000D02*
X104200000Y-82700000D01*
X93520000Y-82000000D02*
X93520000Y-82020000D01*
X114700000Y-83900000D02*
X114050000Y-83900000D01*
X94700000Y-82900000D02*
X94700000Y-83900000D01*
X93520000Y-92020000D02*
X94200000Y-92700000D01*
X104700000Y-96700000D02*
X104050000Y-96700000D01*
X114700000Y-86700000D02*
X114050000Y-86700000D01*
X133520000Y-82020000D02*
X134200000Y-82700000D01*
X94700000Y-102900000D02*
X94700000Y-103900000D01*
X124200000Y-102700000D02*
X124500000Y-102700000D01*
X104475000Y-107925000D02*
X104700000Y-107700000D01*
X94700000Y-93900000D02*
X94050000Y-93900000D01*
X94700000Y-103900000D02*
X94050000Y-103900000D01*
X92137500Y-107925000D02*
X94475000Y-107925000D01*
X124475000Y-107925000D02*
X124700000Y-107700000D01*
X94200000Y-102700000D02*
X94500000Y-102700000D01*
X102137500Y-107925000D02*
X104475000Y-107925000D01*
X94700000Y-87700000D02*
X94700000Y-86700000D01*
X104475000Y-87925000D02*
X104700000Y-87700000D01*
X124700000Y-96700000D02*
X124050000Y-96700000D01*
X114700000Y-96700000D02*
X114700000Y-93900000D01*
X132137500Y-87925000D02*
X134475000Y-87925000D01*
X124700000Y-102900000D02*
X124700000Y-103900000D01*
X104700000Y-97700000D02*
X104700000Y-96700000D01*
X124700000Y-106700000D02*
X124050000Y-106700000D01*
X104700000Y-103900000D02*
X104050000Y-103900000D01*
X114700000Y-106700000D02*
X114700000Y-103900000D01*
X132137500Y-97925000D02*
X134475000Y-97925000D01*
X104700000Y-96700000D02*
X104700000Y-93900000D01*
X114500000Y-82700000D02*
X114700000Y-82900000D01*
X124700000Y-86700000D02*
X124700000Y-83900000D01*
X114700000Y-86700000D02*
X114700000Y-83900000D01*
X104200000Y-92700000D02*
X104500000Y-92700000D01*
X93520000Y-102000000D02*
X93520000Y-102020000D01*
X134700000Y-106700000D02*
X134050000Y-106700000D01*
X124200000Y-92700000D02*
X124500000Y-92700000D01*
X133520000Y-102020000D02*
X134200000Y-102700000D01*
X114700000Y-102900000D02*
X114700000Y-103900000D01*
X104700000Y-93900000D02*
X104050000Y-93900000D01*
X114700000Y-107700000D02*
X114700000Y-106700000D01*
X94700000Y-96700000D02*
X94700000Y-93900000D01*
X103520000Y-92000000D02*
X103520000Y-92020000D01*
X123520000Y-92000000D02*
X123520000Y-92020000D01*
X134700000Y-96700000D02*
X134700000Y-93900000D01*
X134500000Y-92700000D02*
X134700000Y-92900000D01*
X124700000Y-96700000D02*
X124700000Y-93900000D01*
X124700000Y-86700000D02*
X124050000Y-86700000D01*
X134500000Y-102700000D02*
X134700000Y-102900000D01*
X133520000Y-102000000D02*
X133520000Y-102020000D01*
X93520000Y-102020000D02*
X94200000Y-102700000D01*
X94200000Y-92700000D02*
X94500000Y-92700000D01*
X114700000Y-96700000D02*
X114050000Y-96700000D01*
X134700000Y-86700000D02*
X134050000Y-86700000D01*
X124700000Y-92900000D02*
X124700000Y-93900000D01*
X124500000Y-92700000D02*
X124700000Y-92900000D01*
X104700000Y-107700000D02*
X104700000Y-106700000D01*
X112137500Y-87925000D02*
X114475000Y-87925000D01*
X114700000Y-93900000D02*
X114050000Y-93900000D01*
X113520000Y-102020000D02*
X114200000Y-102700000D01*
X114700000Y-103900000D02*
X114050000Y-103900000D01*
X123520000Y-82020000D02*
X124200000Y-82700000D01*
X92137500Y-97925000D02*
X94475000Y-97925000D01*
X104700000Y-87700000D02*
X104700000Y-86700000D01*
X104200000Y-102700000D02*
X104500000Y-102700000D01*
X94700000Y-107700000D02*
X94700000Y-106700000D01*
X133520000Y-92020000D02*
X134200000Y-92700000D01*
X124200000Y-82700000D02*
X124500000Y-82700000D01*
X134700000Y-82900000D02*
X134700000Y-83900000D01*
X94700000Y-86700000D02*
X94050000Y-86700000D01*
%TO.N,VCC*%
X127862500Y-92075000D02*
X126585000Y-92075000D01*
X126585000Y-102075000D02*
X126510000Y-102000000D01*
X116585000Y-102075000D02*
X116510000Y-102000000D01*
X96585000Y-92075000D02*
X96510000Y-92000000D01*
X116585000Y-92075000D02*
X116510000Y-92000000D01*
X106585000Y-102075000D02*
X106510000Y-102000000D01*
X127862500Y-82075000D02*
X126585000Y-82075000D01*
X97862500Y-102075000D02*
X96585000Y-102075000D01*
X126585000Y-92075000D02*
X126510000Y-92000000D01*
X137862500Y-92075000D02*
X136585000Y-92075000D01*
X137862500Y-102075000D02*
X136585000Y-102075000D01*
X117862500Y-102075000D02*
X116585000Y-102075000D01*
X117862500Y-82075000D02*
X116585000Y-82075000D01*
X107862500Y-102075000D02*
X106585000Y-102075000D01*
X97862500Y-92075000D02*
X96585000Y-92075000D01*
X107862500Y-82075000D02*
X106585000Y-82075000D01*
X96585000Y-102075000D02*
X96510000Y-102000000D01*
X136585000Y-82075000D02*
X136510000Y-82000000D01*
X137862500Y-82075000D02*
X136585000Y-82075000D01*
X106585000Y-92075000D02*
X106510000Y-92000000D01*
X126585000Y-82075000D02*
X126510000Y-82000000D01*
X127862500Y-102075000D02*
X126585000Y-102075000D01*
X96585000Y-82075000D02*
X96510000Y-82000000D01*
X136585000Y-102075000D02*
X136510000Y-102000000D01*
X106585000Y-82075000D02*
X106510000Y-82000000D01*
X116585000Y-82075000D02*
X116510000Y-82000000D01*
X117862500Y-92075000D02*
X116585000Y-92075000D01*
X136585000Y-92075000D02*
X136510000Y-92000000D01*
X107862500Y-92075000D02*
X106585000Y-92075000D01*
X97862500Y-82075000D02*
X96585000Y-82075000D01*
%TO.N,/D1*%
X103925000Y-93375000D02*
X104050000Y-93250000D01*
X113925000Y-93375000D02*
X114050000Y-93250000D01*
X102137500Y-93375000D02*
X103925000Y-93375000D01*
X133925000Y-83375000D02*
X134050000Y-83250000D01*
X123925000Y-103375000D02*
X124050000Y-103250000D01*
X132137500Y-93375000D02*
X133925000Y-93375000D01*
X122137500Y-83375000D02*
X123925000Y-83375000D01*
X112137500Y-93375000D02*
X113925000Y-93375000D01*
X123925000Y-83375000D02*
X124050000Y-83250000D01*
X122137500Y-93375000D02*
X123925000Y-93375000D01*
X103925000Y-83375000D02*
X104050000Y-83250000D01*
X103925000Y-103375000D02*
X104050000Y-103250000D01*
X113925000Y-103375000D02*
X114050000Y-103250000D01*
X92137500Y-103375000D02*
X93925000Y-103375000D01*
X102137500Y-103375000D02*
X103925000Y-103375000D01*
X132137500Y-103375000D02*
X133925000Y-103375000D01*
X122137500Y-103375000D02*
X123925000Y-103375000D01*
X132137500Y-83375000D02*
X133925000Y-83375000D01*
X92137500Y-93375000D02*
X93925000Y-93375000D01*
X113925000Y-83375000D02*
X114050000Y-83250000D01*
X123925000Y-93375000D02*
X124050000Y-93250000D01*
X93925000Y-93375000D02*
X94050000Y-93250000D01*
X92137500Y-83375000D02*
X93925000Y-83375000D01*
X133925000Y-103375000D02*
X134050000Y-103250000D01*
X112137500Y-103375000D02*
X113925000Y-103375000D01*
X133925000Y-93375000D02*
X134050000Y-93250000D01*
X93925000Y-83375000D02*
X94050000Y-83250000D01*
X93925000Y-103375000D02*
X94050000Y-103250000D01*
X102137500Y-83375000D02*
X103925000Y-83375000D01*
X112137500Y-83375000D02*
X113925000Y-83375000D01*
%TO.N,/D3*%
X123925000Y-104675000D02*
X124050000Y-104550000D01*
X122137500Y-104675000D02*
X123925000Y-104675000D01*
X133925000Y-104675000D02*
X134050000Y-104550000D01*
X132137500Y-104675000D02*
X133925000Y-104675000D01*
X123925000Y-84675000D02*
X124050000Y-84550000D01*
X113925000Y-104675000D02*
X114050000Y-104550000D01*
X133925000Y-94675000D02*
X134050000Y-94550000D01*
X103925000Y-104675000D02*
X104050000Y-104550000D01*
X93925000Y-84675000D02*
X94050000Y-84550000D01*
X93925000Y-94675000D02*
X94050000Y-94550000D01*
X103925000Y-84675000D02*
X104050000Y-84550000D01*
X113925000Y-84675000D02*
X114050000Y-84550000D01*
X112137500Y-94675000D02*
X113925000Y-94675000D01*
X132137500Y-84675000D02*
X133925000Y-84675000D01*
X112137500Y-104675000D02*
X113925000Y-104675000D01*
X102137500Y-84675000D02*
X103925000Y-84675000D01*
X122137500Y-94675000D02*
X123925000Y-94675000D01*
X133925000Y-84675000D02*
X134050000Y-84550000D01*
X92137500Y-104675000D02*
X93925000Y-104675000D01*
X113925000Y-94675000D02*
X114050000Y-94550000D01*
X122137500Y-84675000D02*
X123925000Y-84675000D01*
X112137500Y-84675000D02*
X113925000Y-84675000D01*
X123925000Y-94675000D02*
X124050000Y-94550000D01*
X92137500Y-84675000D02*
X93925000Y-84675000D01*
X103925000Y-94675000D02*
X104050000Y-94550000D01*
X132137500Y-94675000D02*
X133925000Y-94675000D01*
X92137500Y-94675000D02*
X93925000Y-94675000D01*
X93925000Y-104675000D02*
X94050000Y-104550000D01*
X102137500Y-104675000D02*
X103925000Y-104675000D01*
X102137500Y-94675000D02*
X103925000Y-94675000D01*
%TO.N,/D2*%
X136075000Y-84675000D02*
X135950000Y-84550000D01*
X136075000Y-104675000D02*
X135950000Y-104550000D01*
X97862500Y-84675000D02*
X96075000Y-84675000D01*
X106075000Y-84675000D02*
X105950000Y-84550000D01*
X137862500Y-104675000D02*
X136075000Y-104675000D01*
X116075000Y-84675000D02*
X115950000Y-84550000D01*
X106075000Y-104675000D02*
X105950000Y-104550000D01*
X126075000Y-84675000D02*
X125950000Y-84550000D01*
X127862500Y-94675000D02*
X126075000Y-94675000D01*
X97862500Y-104675000D02*
X96075000Y-104675000D01*
X127862500Y-104675000D02*
X126075000Y-104675000D01*
X96075000Y-84675000D02*
X95950000Y-84550000D01*
X136075000Y-94675000D02*
X135950000Y-94550000D01*
X96075000Y-104675000D02*
X95950000Y-104550000D01*
X106075000Y-94675000D02*
X105950000Y-94550000D01*
X107862500Y-104675000D02*
X106075000Y-104675000D01*
X117862500Y-94675000D02*
X116075000Y-94675000D01*
X137862500Y-84675000D02*
X136075000Y-84675000D01*
X107862500Y-84675000D02*
X106075000Y-84675000D01*
X116075000Y-104675000D02*
X115950000Y-104550000D01*
X116075000Y-94675000D02*
X115950000Y-94550000D01*
X97862500Y-94675000D02*
X96075000Y-94675000D01*
X126075000Y-104675000D02*
X125950000Y-104550000D01*
X126075000Y-94675000D02*
X125950000Y-94550000D01*
X117862500Y-84675000D02*
X116075000Y-84675000D01*
X137862500Y-94675000D02*
X136075000Y-94675000D01*
X107862500Y-94675000D02*
X106075000Y-94675000D01*
X127862500Y-84675000D02*
X126075000Y-84675000D01*
X96075000Y-94675000D02*
X95950000Y-94550000D01*
X117862500Y-104675000D02*
X116075000Y-104675000D01*
%TO.N,/D0*%
X117862500Y-83375000D02*
X116075000Y-83375000D01*
X127862500Y-103375000D02*
X126075000Y-103375000D01*
X96075000Y-83375000D02*
X95950000Y-83250000D01*
X106075000Y-83375000D02*
X105950000Y-83250000D01*
X97862500Y-83375000D02*
X96075000Y-83375000D01*
X116075000Y-103375000D02*
X115950000Y-103250000D01*
X126075000Y-103375000D02*
X125950000Y-103250000D01*
X126075000Y-93375000D02*
X125950000Y-93250000D01*
X127862500Y-93375000D02*
X126075000Y-93375000D01*
X117862500Y-93375000D02*
X116075000Y-93375000D01*
X126075000Y-83375000D02*
X125950000Y-83250000D01*
X97862500Y-93375000D02*
X96075000Y-93375000D01*
X116075000Y-93375000D02*
X115950000Y-93250000D01*
X137862500Y-83375000D02*
X136075000Y-83375000D01*
X107862500Y-103375000D02*
X106075000Y-103375000D01*
X136075000Y-83375000D02*
X135950000Y-83250000D01*
X96075000Y-103375000D02*
X95950000Y-103250000D01*
X107862500Y-93375000D02*
X106075000Y-93375000D01*
X96075000Y-93375000D02*
X95950000Y-93250000D01*
X117862500Y-103375000D02*
X116075000Y-103375000D01*
X137862500Y-103375000D02*
X136075000Y-103375000D01*
X136075000Y-103375000D02*
X135950000Y-103250000D01*
X106075000Y-93375000D02*
X105950000Y-93250000D01*
X106075000Y-103375000D02*
X105950000Y-103250000D01*
X97862500Y-103375000D02*
X96075000Y-103375000D01*
X137862500Y-93375000D02*
X136075000Y-93375000D01*
X127862500Y-83375000D02*
X126075000Y-83375000D01*
X116075000Y-83375000D02*
X115950000Y-83250000D01*
X107862500Y-83375000D02*
X106075000Y-83375000D01*
X136075000Y-93375000D02*
X135950000Y-93250000D01*
%TO.N,/D5*%
X132137500Y-105975000D02*
X133975000Y-105975000D01*
X93975000Y-105975000D02*
X94050000Y-106050000D01*
X102137500Y-85975000D02*
X103975000Y-85975000D01*
X103975000Y-105975000D02*
X104050000Y-106050000D01*
X132137500Y-85975000D02*
X133975000Y-85975000D01*
X132137500Y-95975000D02*
X133975000Y-95975000D01*
X93975000Y-95975000D02*
X94050000Y-96050000D01*
X122137500Y-95975000D02*
X123975000Y-95975000D01*
X122137500Y-105975000D02*
X123975000Y-105975000D01*
X133975000Y-95975000D02*
X134050000Y-96050000D01*
X102137500Y-95975000D02*
X103975000Y-95975000D01*
X112137500Y-105975000D02*
X113975000Y-105975000D01*
X112137500Y-85975000D02*
X113975000Y-85975000D01*
X93975000Y-85975000D02*
X94050000Y-86050000D01*
X123975000Y-105975000D02*
X124050000Y-106050000D01*
X113975000Y-85975000D02*
X114050000Y-86050000D01*
X123975000Y-95975000D02*
X124050000Y-96050000D01*
X133975000Y-85975000D02*
X134050000Y-86050000D01*
X92137500Y-95975000D02*
X93975000Y-95975000D01*
X123975000Y-85975000D02*
X124050000Y-86050000D01*
X112137500Y-95975000D02*
X113975000Y-95975000D01*
X92137500Y-85975000D02*
X93975000Y-85975000D01*
X133975000Y-105975000D02*
X134050000Y-106050000D01*
X103975000Y-85975000D02*
X104050000Y-86050000D01*
X102137500Y-105975000D02*
X103975000Y-105975000D01*
X92137500Y-105975000D02*
X93975000Y-105975000D01*
X113975000Y-105975000D02*
X114050000Y-106050000D01*
X103975000Y-95975000D02*
X104050000Y-96050000D01*
X122137500Y-85975000D02*
X123975000Y-85975000D01*
X113975000Y-95975000D02*
X114050000Y-96050000D01*
%TO.N,/D7*%
X112137500Y-107275000D02*
X113975000Y-107275000D01*
X122137500Y-87275000D02*
X123975000Y-87275000D01*
X102137500Y-87275000D02*
X103975000Y-87275000D01*
X103975000Y-97275000D02*
X104050000Y-97350000D01*
X112137500Y-87275000D02*
X113975000Y-87275000D01*
X102137500Y-97275000D02*
X103975000Y-97275000D01*
X123975000Y-107275000D02*
X124050000Y-107350000D01*
X123975000Y-87275000D02*
X124050000Y-87350000D01*
X103975000Y-87275000D02*
X104050000Y-87350000D01*
X113975000Y-107275000D02*
X114050000Y-107350000D01*
X92137500Y-97275000D02*
X93975000Y-97275000D01*
X93975000Y-107275000D02*
X94050000Y-107350000D01*
X93975000Y-97275000D02*
X94050000Y-97350000D01*
X103975000Y-107275000D02*
X104050000Y-107350000D01*
X122137500Y-107275000D02*
X123975000Y-107275000D01*
X123975000Y-97275000D02*
X124050000Y-97350000D01*
X113975000Y-87275000D02*
X114050000Y-87350000D01*
X112137500Y-97275000D02*
X113975000Y-97275000D01*
X113975000Y-97275000D02*
X114050000Y-97350000D01*
X92137500Y-107275000D02*
X93975000Y-107275000D01*
X133975000Y-87275000D02*
X134050000Y-87350000D01*
X132137500Y-97275000D02*
X133975000Y-97275000D01*
X93975000Y-87275000D02*
X94050000Y-87350000D01*
X132137500Y-107275000D02*
X133975000Y-107275000D01*
X132137500Y-87275000D02*
X133975000Y-87275000D01*
X92137500Y-87275000D02*
X93975000Y-87275000D01*
X133975000Y-97275000D02*
X134050000Y-97350000D01*
X122137500Y-97275000D02*
X123975000Y-97275000D01*
X102137500Y-107275000D02*
X103975000Y-107275000D01*
X133975000Y-107275000D02*
X134050000Y-107350000D01*
%TO.N,/D6*%
X126025000Y-107275000D02*
X125950000Y-107350000D01*
X127862500Y-87275000D02*
X126025000Y-87275000D01*
X96025000Y-107275000D02*
X95950000Y-107350000D01*
X97862500Y-97275000D02*
X96025000Y-97275000D01*
X136025000Y-97275000D02*
X135950000Y-97350000D01*
X116025000Y-107275000D02*
X115950000Y-107350000D01*
X107862500Y-87275000D02*
X106025000Y-87275000D01*
X96025000Y-97275000D02*
X95950000Y-97350000D01*
X97862500Y-107275000D02*
X96025000Y-107275000D01*
X137862500Y-107275000D02*
X136025000Y-107275000D01*
X117862500Y-87275000D02*
X116025000Y-87275000D01*
X107862500Y-97275000D02*
X106025000Y-97275000D01*
X137862500Y-87275000D02*
X136025000Y-87275000D01*
X117862500Y-107275000D02*
X116025000Y-107275000D01*
X127862500Y-107275000D02*
X126025000Y-107275000D01*
X107862500Y-107275000D02*
X106025000Y-107275000D01*
X126025000Y-87275000D02*
X125950000Y-87350000D01*
X116025000Y-87275000D02*
X115950000Y-87350000D01*
X117862500Y-97275000D02*
X116025000Y-97275000D01*
X127862500Y-97275000D02*
X126025000Y-97275000D01*
X137862500Y-97275000D02*
X136025000Y-97275000D01*
X97862500Y-87275000D02*
X96025000Y-87275000D01*
X126025000Y-97275000D02*
X125950000Y-97350000D01*
X136025000Y-87275000D02*
X135950000Y-87350000D01*
X136025000Y-107275000D02*
X135950000Y-107350000D01*
X96025000Y-87275000D02*
X95950000Y-87350000D01*
X106025000Y-107275000D02*
X105950000Y-107350000D01*
X106025000Y-97275000D02*
X105950000Y-97350000D01*
X116025000Y-97275000D02*
X115950000Y-97350000D01*
X106025000Y-87275000D02*
X105950000Y-87350000D01*
%TO.N,/D4*%
X137862500Y-95975000D02*
X136025000Y-95975000D01*
X116025000Y-105975000D02*
X115950000Y-106050000D01*
X106025000Y-85975000D02*
X105950000Y-86050000D01*
X96025000Y-85975000D02*
X95950000Y-86050000D01*
X137862500Y-85975000D02*
X136025000Y-85975000D01*
X127862500Y-95975000D02*
X126025000Y-95975000D01*
X126025000Y-95975000D02*
X125950000Y-96050000D01*
X127862500Y-105975000D02*
X126025000Y-105975000D01*
X127862500Y-85975000D02*
X126025000Y-85975000D01*
X97862500Y-105975000D02*
X96025000Y-105975000D01*
X117862500Y-85975000D02*
X116025000Y-85975000D01*
X136025000Y-85975000D02*
X135950000Y-86050000D01*
X126025000Y-85975000D02*
X125950000Y-86050000D01*
X116025000Y-95975000D02*
X115950000Y-96050000D01*
X107862500Y-85975000D02*
X106025000Y-85975000D01*
X97862500Y-95975000D02*
X96025000Y-95975000D01*
X136025000Y-95975000D02*
X135950000Y-96050000D01*
X106025000Y-105975000D02*
X105950000Y-106050000D01*
X107862500Y-105975000D02*
X106025000Y-105975000D01*
X137862500Y-105975000D02*
X136025000Y-105975000D01*
X117862500Y-95975000D02*
X116025000Y-95975000D01*
X117862500Y-105975000D02*
X116025000Y-105975000D01*
X116025000Y-85975000D02*
X115950000Y-86050000D01*
X106025000Y-95975000D02*
X105950000Y-96050000D01*
X96025000Y-105975000D02*
X95950000Y-106050000D01*
X136025000Y-105975000D02*
X135950000Y-106050000D01*
X126025000Y-105975000D02*
X125950000Y-106050000D01*
X107862500Y-95975000D02*
X106025000Y-95975000D01*
X96025000Y-95975000D02*
X95950000Y-96050000D01*
X97862500Y-85975000D02*
X96025000Y-85975000D01*
%TD*%
M02*
