%TF.GenerationSoftware,KiCad,Pcbnew,7.0.1*%
%TF.CreationDate,2023-04-19T21:29:50+02:00*%
%TF.ProjectId,hc245t-bypass-esd-panel,68633234-3574-42d6-9279-706173732d65,${revision}*%
%TF.SameCoordinates,Original*%
%TF.FileFunction,Soldermask,Top*%
%TF.FilePolarity,Negative*%
%FSLAX46Y46*%
G04 Gerber Fmt 4.6, Leading zero omitted, Abs format (unit mm)*
G04 Created by KiCad (PCBNEW 7.0.1) date 2023-04-19 21:29:50*
%MOMM*%
%LPD*%
G01*
G04 APERTURE LIST*
G04 Aperture macros list*
%AMRoundRect*
0 Rectangle with rounded corners*
0 $1 Rounding radius*
0 $2 $3 $4 $5 $6 $7 $8 $9 X,Y pos of 4 corners*
0 Add a 4 corners polygon primitive as box body*
4,1,4,$2,$3,$4,$5,$6,$7,$8,$9,$2,$3,0*
0 Add four circle primitives for the rounded corners*
1,1,$1+$1,$2,$3*
1,1,$1+$1,$4,$5*
1,1,$1+$1,$6,$7*
1,1,$1+$1,$8,$9*
0 Add four rect primitives between the rounded corners*
20,1,$1+$1,$2,$3,$4,$5,0*
20,1,$1+$1,$4,$5,$6,$7,0*
20,1,$1+$1,$6,$7,$8,$9,0*
20,1,$1+$1,$8,$9,$2,$3,0*%
G04 Aperture macros list end*
%ADD10RoundRect,0.135000X0.135000X0.185000X-0.135000X0.185000X-0.135000X-0.185000X0.135000X-0.185000X0*%
%ADD11R,0.650000X0.400000*%
%ADD12RoundRect,0.140000X0.140000X0.170000X-0.140000X0.170000X-0.140000X-0.170000X0.140000X-0.170000X0*%
%ADD13RoundRect,0.100000X-0.637500X-0.100000X0.637500X-0.100000X0.637500X0.100000X-0.637500X0.100000X0*%
G04 APERTURE END LIST*
D10*
%TO.C,R7*%
X135860000Y-97000000D03*
X134840000Y-97000000D03*
%TD*%
%TO.C,R58*%
X427835000Y-97000000D03*
X426815000Y-97000000D03*
%TD*%
%TO.C,R33*%
X284710000Y-97000000D03*
X283690000Y-97000000D03*
%TD*%
%TO.C,R11*%
X158760000Y-97000000D03*
X157740000Y-97000000D03*
%TD*%
D11*
%TO.C,U50*%
X190650000Y-98250000D03*
X190650000Y-98900000D03*
X190650000Y-99550000D03*
X192550000Y-99550000D03*
X192550000Y-98900000D03*
X192550000Y-98250000D03*
%TD*%
%TO.C,U171*%
X419650000Y-101050000D03*
X419650000Y-101700000D03*
X419650000Y-102350000D03*
X421550000Y-102350000D03*
X421550000Y-101700000D03*
X421550000Y-101050000D03*
%TD*%
%TO.C,U195*%
X465450000Y-101050000D03*
X465450000Y-101700000D03*
X465450000Y-102350000D03*
X467350000Y-102350000D03*
X467350000Y-101700000D03*
X467350000Y-101050000D03*
%TD*%
%TO.C,U30*%
X150575000Y-101050000D03*
X150575000Y-101700000D03*
X150575000Y-102350000D03*
X152475000Y-102350000D03*
X152475000Y-101700000D03*
X152475000Y-101050000D03*
%TD*%
D10*
%TO.C,R62*%
X450735000Y-97000000D03*
X449715000Y-97000000D03*
%TD*%
D12*
%TO.C,C25*%
X236880000Y-97000000D03*
X235920000Y-97000000D03*
%TD*%
%TO.C,C16*%
X185355000Y-97000000D03*
X184395000Y-97000000D03*
%TD*%
%TO.C,C4*%
X116655000Y-97000000D03*
X115695000Y-97000000D03*
%TD*%
%TO.C,C19*%
X202530000Y-97000000D03*
X201570000Y-97000000D03*
%TD*%
%TO.C,C66*%
X471605000Y-97000000D03*
X470645000Y-97000000D03*
%TD*%
%TO.C,C15*%
X179630000Y-97000000D03*
X178670000Y-97000000D03*
%TD*%
%TO.C,C55*%
X408630000Y-97000000D03*
X407670000Y-97000000D03*
%TD*%
%TO.C,C41*%
X328480000Y-97000000D03*
X327520000Y-97000000D03*
%TD*%
D11*
%TO.C,U200*%
X476900000Y-98250000D03*
X476900000Y-98900000D03*
X476900000Y-99550000D03*
X478800000Y-99550000D03*
X478800000Y-98900000D03*
X478800000Y-98250000D03*
%TD*%
%TO.C,U20*%
X133400000Y-98250000D03*
X133400000Y-98900000D03*
X133400000Y-99550000D03*
X135300000Y-99550000D03*
X135300000Y-98900000D03*
X135300000Y-98250000D03*
%TD*%
%TO.C,U54*%
X196375000Y-101050000D03*
X196375000Y-101700000D03*
X196375000Y-102350000D03*
X198275000Y-102350000D03*
X198275000Y-101700000D03*
X198275000Y-101050000D03*
%TD*%
%TO.C,U210*%
X494075000Y-101050000D03*
X494075000Y-101700000D03*
X494075000Y-102350000D03*
X495975000Y-102350000D03*
X495975000Y-101700000D03*
X495975000Y-101050000D03*
%TD*%
D10*
%TO.C,R21*%
X216010000Y-97000000D03*
X214990000Y-97000000D03*
%TD*%
D11*
%TO.C,U6*%
X104775000Y-101050000D03*
X104775000Y-101700000D03*
X104775000Y-102350000D03*
X106675000Y-102350000D03*
X106675000Y-101700000D03*
X106675000Y-101050000D03*
%TD*%
%TO.C,U144*%
X368125000Y-101050000D03*
X368125000Y-101700000D03*
X368125000Y-102350000D03*
X370025000Y-102350000D03*
X370025000Y-101700000D03*
X370025000Y-101050000D03*
%TD*%
%TO.C,U122*%
X328050000Y-98250000D03*
X328050000Y-98900000D03*
X328050000Y-99550000D03*
X329950000Y-99550000D03*
X329950000Y-98900000D03*
X329950000Y-98250000D03*
%TD*%
D10*
%TO.C,R72*%
X507985000Y-97000000D03*
X506965000Y-97000000D03*
%TD*%
D13*
%TO.C,U196*%
X469262500Y-97075000D03*
X469262500Y-97725000D03*
X469262500Y-98375000D03*
X469262500Y-99025000D03*
X469262500Y-99675000D03*
X469262500Y-100325000D03*
X469262500Y-100975000D03*
X469262500Y-101625000D03*
X469262500Y-102275000D03*
X469262500Y-102925000D03*
X474987500Y-102925000D03*
X474987500Y-102275000D03*
X474987500Y-101625000D03*
X474987500Y-100975000D03*
X474987500Y-100325000D03*
X474987500Y-99675000D03*
X474987500Y-99025000D03*
X474987500Y-98375000D03*
X474987500Y-97725000D03*
X474987500Y-97075000D03*
%TD*%
D11*
%TO.C,U29*%
X150575000Y-98250000D03*
X150575000Y-98900000D03*
X150575000Y-99550000D03*
X152475000Y-99550000D03*
X152475000Y-98900000D03*
X152475000Y-98250000D03*
%TD*%
%TO.C,U9*%
X110500000Y-101050000D03*
X110500000Y-101700000D03*
X110500000Y-102350000D03*
X112400000Y-102350000D03*
X112400000Y-101700000D03*
X112400000Y-101050000D03*
%TD*%
%TO.C,U135*%
X350950000Y-101050000D03*
X350950000Y-101700000D03*
X350950000Y-102350000D03*
X352850000Y-102350000D03*
X352850000Y-101700000D03*
X352850000Y-101050000D03*
%TD*%
%TO.C,U120*%
X322325000Y-101050000D03*
X322325000Y-101700000D03*
X322325000Y-102350000D03*
X324225000Y-102350000D03*
X324225000Y-101700000D03*
X324225000Y-101050000D03*
%TD*%
D10*
%TO.C,R79*%
X548060000Y-97000000D03*
X547040000Y-97000000D03*
%TD*%
D12*
%TO.C,C40*%
X322755000Y-97000000D03*
X321795000Y-97000000D03*
%TD*%
D10*
%TO.C,R42*%
X336235000Y-97000000D03*
X335215000Y-97000000D03*
%TD*%
D13*
%TO.C,U103*%
X291787500Y-97075000D03*
X291787500Y-97725000D03*
X291787500Y-98375000D03*
X291787500Y-99025000D03*
X291787500Y-99675000D03*
X291787500Y-100325000D03*
X291787500Y-100975000D03*
X291787500Y-101625000D03*
X291787500Y-102275000D03*
X291787500Y-102925000D03*
X297512500Y-102925000D03*
X297512500Y-102275000D03*
X297512500Y-101625000D03*
X297512500Y-100975000D03*
X297512500Y-100325000D03*
X297512500Y-99675000D03*
X297512500Y-99025000D03*
X297512500Y-98375000D03*
X297512500Y-97725000D03*
X297512500Y-97075000D03*
%TD*%
D11*
%TO.C,U230*%
X534150000Y-98250000D03*
X534150000Y-98900000D03*
X534150000Y-99550000D03*
X536050000Y-99550000D03*
X536050000Y-98900000D03*
X536050000Y-98250000D03*
%TD*%
D12*
%TO.C,C18*%
X196805000Y-97000000D03*
X195845000Y-97000000D03*
%TD*%
D11*
%TO.C,U98*%
X282250000Y-98250000D03*
X282250000Y-98900000D03*
X282250000Y-99550000D03*
X284150000Y-99550000D03*
X284150000Y-98900000D03*
X284150000Y-98250000D03*
%TD*%
%TO.C,U3*%
X99050000Y-101050000D03*
X99050000Y-101700000D03*
X99050000Y-102350000D03*
X100950000Y-102350000D03*
X100950000Y-101700000D03*
X100950000Y-101050000D03*
%TD*%
%TO.C,U240*%
X551325000Y-101050000D03*
X551325000Y-101700000D03*
X551325000Y-102350000D03*
X553225000Y-102350000D03*
X553225000Y-101700000D03*
X553225000Y-101050000D03*
%TD*%
%TO.C,U125*%
X333775000Y-98250000D03*
X333775000Y-98900000D03*
X333775000Y-99550000D03*
X335675000Y-99550000D03*
X335675000Y-98900000D03*
X335675000Y-98250000D03*
%TD*%
D13*
%TO.C,U52*%
X194462500Y-97075000D03*
X194462500Y-97725000D03*
X194462500Y-98375000D03*
X194462500Y-99025000D03*
X194462500Y-99675000D03*
X194462500Y-100325000D03*
X194462500Y-100975000D03*
X194462500Y-101625000D03*
X194462500Y-102275000D03*
X194462500Y-102925000D03*
X200187500Y-102925000D03*
X200187500Y-102275000D03*
X200187500Y-101625000D03*
X200187500Y-100975000D03*
X200187500Y-100325000D03*
X200187500Y-99675000D03*
X200187500Y-99025000D03*
X200187500Y-98375000D03*
X200187500Y-97725000D03*
X200187500Y-97075000D03*
%TD*%
D12*
%TO.C,C7*%
X133830000Y-97000000D03*
X132870000Y-97000000D03*
%TD*%
D13*
%TO.C,U136*%
X354762500Y-97075000D03*
X354762500Y-97725000D03*
X354762500Y-98375000D03*
X354762500Y-99025000D03*
X354762500Y-99675000D03*
X354762500Y-100325000D03*
X354762500Y-100975000D03*
X354762500Y-101625000D03*
X354762500Y-102275000D03*
X354762500Y-102925000D03*
X360487500Y-102925000D03*
X360487500Y-102275000D03*
X360487500Y-101625000D03*
X360487500Y-100975000D03*
X360487500Y-100325000D03*
X360487500Y-99675000D03*
X360487500Y-99025000D03*
X360487500Y-98375000D03*
X360487500Y-97725000D03*
X360487500Y-97075000D03*
%TD*%
D10*
%TO.C,R51*%
X387760000Y-97000000D03*
X386740000Y-97000000D03*
%TD*%
D11*
%TO.C,U69*%
X225000000Y-101050000D03*
X225000000Y-101700000D03*
X225000000Y-102350000D03*
X226900000Y-102350000D03*
X226900000Y-101700000D03*
X226900000Y-101050000D03*
%TD*%
D10*
%TO.C,R8*%
X141585000Y-97000000D03*
X140565000Y-97000000D03*
%TD*%
D11*
%TO.C,U32*%
X156300000Y-98250000D03*
X156300000Y-98900000D03*
X156300000Y-99550000D03*
X158200000Y-99550000D03*
X158200000Y-98900000D03*
X158200000Y-98250000D03*
%TD*%
D13*
%TO.C,U124*%
X331862500Y-97075000D03*
X331862500Y-97725000D03*
X331862500Y-98375000D03*
X331862500Y-99025000D03*
X331862500Y-99675000D03*
X331862500Y-100325000D03*
X331862500Y-100975000D03*
X331862500Y-101625000D03*
X331862500Y-102275000D03*
X331862500Y-102925000D03*
X337587500Y-102925000D03*
X337587500Y-102275000D03*
X337587500Y-101625000D03*
X337587500Y-100975000D03*
X337587500Y-100325000D03*
X337587500Y-99675000D03*
X337587500Y-99025000D03*
X337587500Y-98375000D03*
X337587500Y-97725000D03*
X337587500Y-97075000D03*
%TD*%
%TO.C,U163*%
X406287500Y-97075000D03*
X406287500Y-97725000D03*
X406287500Y-98375000D03*
X406287500Y-99025000D03*
X406287500Y-99675000D03*
X406287500Y-100325000D03*
X406287500Y-100975000D03*
X406287500Y-101625000D03*
X406287500Y-102275000D03*
X406287500Y-102925000D03*
X412012500Y-102925000D03*
X412012500Y-102275000D03*
X412012500Y-101625000D03*
X412012500Y-100975000D03*
X412012500Y-100325000D03*
X412012500Y-99675000D03*
X412012500Y-99025000D03*
X412012500Y-98375000D03*
X412012500Y-97725000D03*
X412012500Y-97075000D03*
%TD*%
%TO.C,U40*%
X171562500Y-97075000D03*
X171562500Y-97725000D03*
X171562500Y-98375000D03*
X171562500Y-99025000D03*
X171562500Y-99675000D03*
X171562500Y-100325000D03*
X171562500Y-100975000D03*
X171562500Y-101625000D03*
X171562500Y-102275000D03*
X171562500Y-102925000D03*
X177287500Y-102925000D03*
X177287500Y-102275000D03*
X177287500Y-101625000D03*
X177287500Y-100975000D03*
X177287500Y-100325000D03*
X177287500Y-99675000D03*
X177287500Y-99025000D03*
X177287500Y-98375000D03*
X177287500Y-97725000D03*
X177287500Y-97075000D03*
%TD*%
%TO.C,U217*%
X509337500Y-97075000D03*
X509337500Y-97725000D03*
X509337500Y-98375000D03*
X509337500Y-99025000D03*
X509337500Y-99675000D03*
X509337500Y-100325000D03*
X509337500Y-100975000D03*
X509337500Y-101625000D03*
X509337500Y-102275000D03*
X509337500Y-102925000D03*
X515062500Y-102925000D03*
X515062500Y-102275000D03*
X515062500Y-101625000D03*
X515062500Y-100975000D03*
X515062500Y-100325000D03*
X515062500Y-99675000D03*
X515062500Y-99025000D03*
X515062500Y-98375000D03*
X515062500Y-97725000D03*
X515062500Y-97075000D03*
%TD*%
D11*
%TO.C,U219*%
X511250000Y-101050000D03*
X511250000Y-101700000D03*
X511250000Y-102350000D03*
X513150000Y-102350000D03*
X513150000Y-101700000D03*
X513150000Y-101050000D03*
%TD*%
%TO.C,U68*%
X225000000Y-98250000D03*
X225000000Y-98900000D03*
X225000000Y-99550000D03*
X226900000Y-99550000D03*
X226900000Y-98900000D03*
X226900000Y-98250000D03*
%TD*%
D10*
%TO.C,R12*%
X164485000Y-97000000D03*
X163465000Y-97000000D03*
%TD*%
D13*
%TO.C,U115*%
X314687500Y-97075000D03*
X314687500Y-97725000D03*
X314687500Y-98375000D03*
X314687500Y-99025000D03*
X314687500Y-99675000D03*
X314687500Y-100325000D03*
X314687500Y-100975000D03*
X314687500Y-101625000D03*
X314687500Y-102275000D03*
X314687500Y-102925000D03*
X320412500Y-102925000D03*
X320412500Y-102275000D03*
X320412500Y-101625000D03*
X320412500Y-100975000D03*
X320412500Y-100325000D03*
X320412500Y-99675000D03*
X320412500Y-99025000D03*
X320412500Y-98375000D03*
X320412500Y-97725000D03*
X320412500Y-97075000D03*
%TD*%
%TO.C,U232*%
X537962500Y-97075000D03*
X537962500Y-97725000D03*
X537962500Y-98375000D03*
X537962500Y-99025000D03*
X537962500Y-99675000D03*
X537962500Y-100325000D03*
X537962500Y-100975000D03*
X537962500Y-101625000D03*
X537962500Y-102275000D03*
X537962500Y-102925000D03*
X543687500Y-102925000D03*
X543687500Y-102275000D03*
X543687500Y-101625000D03*
X543687500Y-100975000D03*
X543687500Y-100325000D03*
X543687500Y-99675000D03*
X543687500Y-99025000D03*
X543687500Y-98375000D03*
X543687500Y-97725000D03*
X543687500Y-97075000D03*
%TD*%
D11*
%TO.C,U119*%
X322325000Y-98250000D03*
X322325000Y-98900000D03*
X322325000Y-99550000D03*
X324225000Y-99550000D03*
X324225000Y-98900000D03*
X324225000Y-98250000D03*
%TD*%
%TO.C,U243*%
X557050000Y-101050000D03*
X557050000Y-101700000D03*
X557050000Y-102350000D03*
X558950000Y-102350000D03*
X558950000Y-101700000D03*
X558950000Y-101050000D03*
%TD*%
D12*
%TO.C,C20*%
X208255000Y-97000000D03*
X207295000Y-97000000D03*
%TD*%
D11*
%TO.C,U57*%
X202100000Y-101050000D03*
X202100000Y-101700000D03*
X202100000Y-102350000D03*
X204000000Y-102350000D03*
X204000000Y-101700000D03*
X204000000Y-101050000D03*
%TD*%
D12*
%TO.C,C44*%
X345655000Y-97000000D03*
X344695000Y-97000000D03*
%TD*%
D13*
%TO.C,U220*%
X515062500Y-97075000D03*
X515062500Y-97725000D03*
X515062500Y-98375000D03*
X515062500Y-99025000D03*
X515062500Y-99675000D03*
X515062500Y-100325000D03*
X515062500Y-100975000D03*
X515062500Y-101625000D03*
X515062500Y-102275000D03*
X515062500Y-102925000D03*
X520787500Y-102925000D03*
X520787500Y-102275000D03*
X520787500Y-101625000D03*
X520787500Y-100975000D03*
X520787500Y-100325000D03*
X520787500Y-99675000D03*
X520787500Y-99025000D03*
X520787500Y-98375000D03*
X520787500Y-97725000D03*
X520787500Y-97075000D03*
%TD*%
%TO.C,U37*%
X165837500Y-97075000D03*
X165837500Y-97725000D03*
X165837500Y-98375000D03*
X165837500Y-99025000D03*
X165837500Y-99675000D03*
X165837500Y-100325000D03*
X165837500Y-100975000D03*
X165837500Y-101625000D03*
X165837500Y-102275000D03*
X165837500Y-102925000D03*
X171562500Y-102925000D03*
X171562500Y-102275000D03*
X171562500Y-101625000D03*
X171562500Y-100975000D03*
X171562500Y-100325000D03*
X171562500Y-99675000D03*
X171562500Y-99025000D03*
X171562500Y-98375000D03*
X171562500Y-97725000D03*
X171562500Y-97075000D03*
%TD*%
D11*
%TO.C,U39*%
X167750000Y-101050000D03*
X167750000Y-101700000D03*
X167750000Y-102350000D03*
X169650000Y-102350000D03*
X169650000Y-101700000D03*
X169650000Y-101050000D03*
%TD*%
D10*
%TO.C,R56*%
X416385000Y-97000000D03*
X415365000Y-97000000D03*
%TD*%
D12*
%TO.C,C46*%
X357105000Y-97000000D03*
X356145000Y-97000000D03*
%TD*%
D10*
%TO.C,R22*%
X221735000Y-97000000D03*
X220715000Y-97000000D03*
%TD*%
D13*
%TO.C,U19*%
X131487500Y-97075000D03*
X131487500Y-97725000D03*
X131487500Y-98375000D03*
X131487500Y-99025000D03*
X131487500Y-99675000D03*
X131487500Y-100325000D03*
X131487500Y-100975000D03*
X131487500Y-101625000D03*
X131487500Y-102275000D03*
X131487500Y-102925000D03*
X137212500Y-102925000D03*
X137212500Y-102275000D03*
X137212500Y-101625000D03*
X137212500Y-100975000D03*
X137212500Y-100325000D03*
X137212500Y-99675000D03*
X137212500Y-99025000D03*
X137212500Y-98375000D03*
X137212500Y-97725000D03*
X137212500Y-97075000D03*
%TD*%
D12*
%TO.C,C11*%
X156730000Y-97000000D03*
X155770000Y-97000000D03*
%TD*%
D11*
%TO.C,U93*%
X270800000Y-101050000D03*
X270800000Y-101700000D03*
X270800000Y-102350000D03*
X272700000Y-102350000D03*
X272700000Y-101700000D03*
X272700000Y-101050000D03*
%TD*%
D12*
%TO.C,C63*%
X454430000Y-97000000D03*
X453470000Y-97000000D03*
%TD*%
D11*
%TO.C,U179*%
X436825000Y-98250000D03*
X436825000Y-98900000D03*
X436825000Y-99550000D03*
X438725000Y-99550000D03*
X438725000Y-98900000D03*
X438725000Y-98250000D03*
%TD*%
D13*
%TO.C,U172*%
X423462500Y-97075000D03*
X423462500Y-97725000D03*
X423462500Y-98375000D03*
X423462500Y-99025000D03*
X423462500Y-99675000D03*
X423462500Y-100325000D03*
X423462500Y-100975000D03*
X423462500Y-101625000D03*
X423462500Y-102275000D03*
X423462500Y-102925000D03*
X429187500Y-102925000D03*
X429187500Y-102275000D03*
X429187500Y-101625000D03*
X429187500Y-100975000D03*
X429187500Y-100325000D03*
X429187500Y-99675000D03*
X429187500Y-99025000D03*
X429187500Y-98375000D03*
X429187500Y-97725000D03*
X429187500Y-97075000D03*
%TD*%
D12*
%TO.C,C48*%
X368555000Y-97000000D03*
X367595000Y-97000000D03*
%TD*%
D11*
%TO.C,U44*%
X179200000Y-98250000D03*
X179200000Y-98900000D03*
X179200000Y-99550000D03*
X181100000Y-99550000D03*
X181100000Y-98900000D03*
X181100000Y-98250000D03*
%TD*%
D10*
%TO.C,R29*%
X261810000Y-97000000D03*
X260790000Y-97000000D03*
%TD*%
D12*
%TO.C,C5*%
X122380000Y-97000000D03*
X121420000Y-97000000D03*
%TD*%
D11*
%TO.C,U66*%
X219275000Y-101050000D03*
X219275000Y-101700000D03*
X219275000Y-102350000D03*
X221175000Y-102350000D03*
X221175000Y-101700000D03*
X221175000Y-101050000D03*
%TD*%
D10*
%TO.C,R71*%
X502260000Y-97000000D03*
X501240000Y-97000000D03*
%TD*%
D11*
%TO.C,U116*%
X316600000Y-98250000D03*
X316600000Y-98900000D03*
X316600000Y-99550000D03*
X318500000Y-99550000D03*
X318500000Y-98900000D03*
X318500000Y-98250000D03*
%TD*%
D13*
%TO.C,U61*%
X211637500Y-97075000D03*
X211637500Y-97725000D03*
X211637500Y-98375000D03*
X211637500Y-99025000D03*
X211637500Y-99675000D03*
X211637500Y-100325000D03*
X211637500Y-100975000D03*
X211637500Y-101625000D03*
X211637500Y-102275000D03*
X211637500Y-102925000D03*
X217362500Y-102925000D03*
X217362500Y-102275000D03*
X217362500Y-101625000D03*
X217362500Y-100975000D03*
X217362500Y-100325000D03*
X217362500Y-99675000D03*
X217362500Y-99025000D03*
X217362500Y-98375000D03*
X217362500Y-97725000D03*
X217362500Y-97075000D03*
%TD*%
D11*
%TO.C,U153*%
X385300000Y-101050000D03*
X385300000Y-101700000D03*
X385300000Y-102350000D03*
X387200000Y-102350000D03*
X387200000Y-101700000D03*
X387200000Y-101050000D03*
%TD*%
D10*
%TO.C,R55*%
X410660000Y-97000000D03*
X409640000Y-97000000D03*
%TD*%
D13*
%TO.C,U46*%
X183012500Y-97075000D03*
X183012500Y-97725000D03*
X183012500Y-98375000D03*
X183012500Y-99025000D03*
X183012500Y-99675000D03*
X183012500Y-100325000D03*
X183012500Y-100975000D03*
X183012500Y-101625000D03*
X183012500Y-102275000D03*
X183012500Y-102925000D03*
X188737500Y-102925000D03*
X188737500Y-102275000D03*
X188737500Y-101625000D03*
X188737500Y-100975000D03*
X188737500Y-100325000D03*
X188737500Y-99675000D03*
X188737500Y-99025000D03*
X188737500Y-98375000D03*
X188737500Y-97725000D03*
X188737500Y-97075000D03*
%TD*%
%TO.C,U202*%
X480712500Y-97075000D03*
X480712500Y-97725000D03*
X480712500Y-98375000D03*
X480712500Y-99025000D03*
X480712500Y-99675000D03*
X480712500Y-100325000D03*
X480712500Y-100975000D03*
X480712500Y-101625000D03*
X480712500Y-102275000D03*
X480712500Y-102925000D03*
X486437500Y-102925000D03*
X486437500Y-102275000D03*
X486437500Y-101625000D03*
X486437500Y-100975000D03*
X486437500Y-100325000D03*
X486437500Y-99675000D03*
X486437500Y-99025000D03*
X486437500Y-98375000D03*
X486437500Y-97725000D03*
X486437500Y-97075000D03*
%TD*%
D10*
%TO.C,R16*%
X187385000Y-97000000D03*
X186365000Y-97000000D03*
%TD*%
D12*
%TO.C,C2*%
X105205000Y-97000000D03*
X104245000Y-97000000D03*
%TD*%
D11*
%TO.C,U162*%
X402475000Y-101050000D03*
X402475000Y-101700000D03*
X402475000Y-102350000D03*
X404375000Y-102350000D03*
X404375000Y-101700000D03*
X404375000Y-101050000D03*
%TD*%
D12*
%TO.C,C9*%
X145280000Y-97000000D03*
X144320000Y-97000000D03*
%TD*%
D13*
%TO.C,U148*%
X377662500Y-97075000D03*
X377662500Y-97725000D03*
X377662500Y-98375000D03*
X377662500Y-99025000D03*
X377662500Y-99675000D03*
X377662500Y-100325000D03*
X377662500Y-100975000D03*
X377662500Y-101625000D03*
X377662500Y-102275000D03*
X377662500Y-102925000D03*
X383387500Y-102925000D03*
X383387500Y-102275000D03*
X383387500Y-101625000D03*
X383387500Y-100975000D03*
X383387500Y-100325000D03*
X383387500Y-99675000D03*
X383387500Y-99025000D03*
X383387500Y-98375000D03*
X383387500Y-97725000D03*
X383387500Y-97075000D03*
%TD*%
D12*
%TO.C,C51*%
X385730000Y-97000000D03*
X384770000Y-97000000D03*
%TD*%
D10*
%TO.C,R54*%
X404935000Y-97000000D03*
X403915000Y-97000000D03*
%TD*%
D12*
%TO.C,C58*%
X425805000Y-97000000D03*
X424845000Y-97000000D03*
%TD*%
%TO.C,C33*%
X282680000Y-97000000D03*
X281720000Y-97000000D03*
%TD*%
D11*
%TO.C,U150*%
X379575000Y-101050000D03*
X379575000Y-101700000D03*
X379575000Y-102350000D03*
X381475000Y-102350000D03*
X381475000Y-101700000D03*
X381475000Y-101050000D03*
%TD*%
%TO.C,U51*%
X190650000Y-101050000D03*
X190650000Y-101700000D03*
X190650000Y-102350000D03*
X192550000Y-102350000D03*
X192550000Y-101700000D03*
X192550000Y-101050000D03*
%TD*%
D12*
%TO.C,C70*%
X494505000Y-97000000D03*
X493545000Y-97000000D03*
%TD*%
D11*
%TO.C,U143*%
X368125000Y-98250000D03*
X368125000Y-98900000D03*
X368125000Y-99550000D03*
X370025000Y-99550000D03*
X370025000Y-98900000D03*
X370025000Y-98250000D03*
%TD*%
D12*
%TO.C,C47*%
X362830000Y-97000000D03*
X361870000Y-97000000D03*
%TD*%
D13*
%TO.C,U157*%
X394837500Y-97075000D03*
X394837500Y-97725000D03*
X394837500Y-98375000D03*
X394837500Y-99025000D03*
X394837500Y-99675000D03*
X394837500Y-100325000D03*
X394837500Y-100975000D03*
X394837500Y-101625000D03*
X394837500Y-102275000D03*
X394837500Y-102925000D03*
X400562500Y-102925000D03*
X400562500Y-102275000D03*
X400562500Y-101625000D03*
X400562500Y-100975000D03*
X400562500Y-100325000D03*
X400562500Y-99675000D03*
X400562500Y-99025000D03*
X400562500Y-98375000D03*
X400562500Y-97725000D03*
X400562500Y-97075000D03*
%TD*%
D11*
%TO.C,U132*%
X345225000Y-101050000D03*
X345225000Y-101700000D03*
X345225000Y-102350000D03*
X347125000Y-102350000D03*
X347125000Y-101700000D03*
X347125000Y-101050000D03*
%TD*%
D13*
%TO.C,U178*%
X434912500Y-97075000D03*
X434912500Y-97725000D03*
X434912500Y-98375000D03*
X434912500Y-99025000D03*
X434912500Y-99675000D03*
X434912500Y-100325000D03*
X434912500Y-100975000D03*
X434912500Y-101625000D03*
X434912500Y-102275000D03*
X434912500Y-102925000D03*
X440637500Y-102925000D03*
X440637500Y-102275000D03*
X440637500Y-101625000D03*
X440637500Y-100975000D03*
X440637500Y-100325000D03*
X440637500Y-99675000D03*
X440637500Y-99025000D03*
X440637500Y-98375000D03*
X440637500Y-97725000D03*
X440637500Y-97075000D03*
%TD*%
D11*
%TO.C,U14*%
X121950000Y-98250000D03*
X121950000Y-98900000D03*
X121950000Y-99550000D03*
X123850000Y-99550000D03*
X123850000Y-98900000D03*
X123850000Y-98250000D03*
%TD*%
%TO.C,U159*%
X396750000Y-101050000D03*
X396750000Y-101700000D03*
X396750000Y-102350000D03*
X398650000Y-102350000D03*
X398650000Y-101700000D03*
X398650000Y-101050000D03*
%TD*%
D10*
%TO.C,R76*%
X530885000Y-97000000D03*
X529865000Y-97000000D03*
%TD*%
D12*
%TO.C,C50*%
X380005000Y-97000000D03*
X379045000Y-97000000D03*
%TD*%
D10*
%TO.C,R64*%
X462185000Y-97000000D03*
X461165000Y-97000000D03*
%TD*%
D11*
%TO.C,U131*%
X345225000Y-98250000D03*
X345225000Y-98900000D03*
X345225000Y-99550000D03*
X347125000Y-99550000D03*
X347125000Y-98900000D03*
X347125000Y-98250000D03*
%TD*%
D12*
%TO.C,C29*%
X259780000Y-97000000D03*
X258820000Y-97000000D03*
%TD*%
D11*
%TO.C,U77*%
X242175000Y-98250000D03*
X242175000Y-98900000D03*
X242175000Y-99550000D03*
X244075000Y-99550000D03*
X244075000Y-98900000D03*
X244075000Y-98250000D03*
%TD*%
%TO.C,U192*%
X459725000Y-101050000D03*
X459725000Y-101700000D03*
X459725000Y-102350000D03*
X461625000Y-102350000D03*
X461625000Y-101700000D03*
X461625000Y-101050000D03*
%TD*%
%TO.C,U149*%
X379575000Y-98250000D03*
X379575000Y-98900000D03*
X379575000Y-99550000D03*
X381475000Y-99550000D03*
X381475000Y-98900000D03*
X381475000Y-98250000D03*
%TD*%
%TO.C,U35*%
X162025000Y-98250000D03*
X162025000Y-98900000D03*
X162025000Y-99550000D03*
X163925000Y-99550000D03*
X163925000Y-98900000D03*
X163925000Y-98250000D03*
%TD*%
%TO.C,U104*%
X293700000Y-98250000D03*
X293700000Y-98900000D03*
X293700000Y-99550000D03*
X295600000Y-99550000D03*
X295600000Y-98900000D03*
X295600000Y-98250000D03*
%TD*%
D10*
%TO.C,R67*%
X479360000Y-97000000D03*
X478340000Y-97000000D03*
%TD*%
D11*
%TO.C,U174*%
X425375000Y-101050000D03*
X425375000Y-101700000D03*
X425375000Y-102350000D03*
X427275000Y-102350000D03*
X427275000Y-101700000D03*
X427275000Y-101050000D03*
%TD*%
D10*
%TO.C,R25*%
X238910000Y-97000000D03*
X237890000Y-97000000D03*
%TD*%
D13*
%TO.C,U64*%
X217362500Y-97075000D03*
X217362500Y-97725000D03*
X217362500Y-98375000D03*
X217362500Y-99025000D03*
X217362500Y-99675000D03*
X217362500Y-100325000D03*
X217362500Y-100975000D03*
X217362500Y-101625000D03*
X217362500Y-102275000D03*
X217362500Y-102925000D03*
X223087500Y-102925000D03*
X223087500Y-102275000D03*
X223087500Y-101625000D03*
X223087500Y-100975000D03*
X223087500Y-100325000D03*
X223087500Y-99675000D03*
X223087500Y-99025000D03*
X223087500Y-98375000D03*
X223087500Y-97725000D03*
X223087500Y-97075000D03*
%TD*%
D12*
%TO.C,C27*%
X248330000Y-97000000D03*
X247370000Y-97000000D03*
%TD*%
%TO.C,C52*%
X391455000Y-97000000D03*
X390495000Y-97000000D03*
%TD*%
D11*
%TO.C,U21*%
X133400000Y-101050000D03*
X133400000Y-101700000D03*
X133400000Y-102350000D03*
X135300000Y-102350000D03*
X135300000Y-101700000D03*
X135300000Y-101050000D03*
%TD*%
%TO.C,U161*%
X402475000Y-98250000D03*
X402475000Y-98900000D03*
X402475000Y-99550000D03*
X404375000Y-99550000D03*
X404375000Y-98900000D03*
X404375000Y-98250000D03*
%TD*%
D13*
%TO.C,U226*%
X526512500Y-97075000D03*
X526512500Y-97725000D03*
X526512500Y-98375000D03*
X526512500Y-99025000D03*
X526512500Y-99675000D03*
X526512500Y-100325000D03*
X526512500Y-100975000D03*
X526512500Y-101625000D03*
X526512500Y-102275000D03*
X526512500Y-102925000D03*
X532237500Y-102925000D03*
X532237500Y-102275000D03*
X532237500Y-101625000D03*
X532237500Y-100975000D03*
X532237500Y-100325000D03*
X532237500Y-99675000D03*
X532237500Y-99025000D03*
X532237500Y-98375000D03*
X532237500Y-97725000D03*
X532237500Y-97075000D03*
%TD*%
%TO.C,U67*%
X223087500Y-97075000D03*
X223087500Y-97725000D03*
X223087500Y-98375000D03*
X223087500Y-99025000D03*
X223087500Y-99675000D03*
X223087500Y-100325000D03*
X223087500Y-100975000D03*
X223087500Y-101625000D03*
X223087500Y-102275000D03*
X223087500Y-102925000D03*
X228812500Y-102925000D03*
X228812500Y-102275000D03*
X228812500Y-101625000D03*
X228812500Y-100975000D03*
X228812500Y-100325000D03*
X228812500Y-99675000D03*
X228812500Y-99025000D03*
X228812500Y-98375000D03*
X228812500Y-97725000D03*
X228812500Y-97075000D03*
%TD*%
D11*
%TO.C,U129*%
X339500000Y-101050000D03*
X339500000Y-101700000D03*
X339500000Y-102350000D03*
X341400000Y-102350000D03*
X341400000Y-101700000D03*
X341400000Y-101050000D03*
%TD*%
D12*
%TO.C,C64*%
X460155000Y-97000000D03*
X459195000Y-97000000D03*
%TD*%
D11*
%TO.C,U188*%
X454000000Y-98250000D03*
X454000000Y-98900000D03*
X454000000Y-99550000D03*
X455900000Y-99550000D03*
X455900000Y-98900000D03*
X455900000Y-98250000D03*
%TD*%
D10*
%TO.C,R74*%
X519435000Y-97000000D03*
X518415000Y-97000000D03*
%TD*%
D12*
%TO.C,C32*%
X276955000Y-97000000D03*
X275995000Y-97000000D03*
%TD*%
D10*
%TO.C,R52*%
X393485000Y-97000000D03*
X392465000Y-97000000D03*
%TD*%
D12*
%TO.C,C28*%
X254055000Y-97000000D03*
X253095000Y-97000000D03*
%TD*%
D13*
%TO.C,U112*%
X308962500Y-97075000D03*
X308962500Y-97725000D03*
X308962500Y-98375000D03*
X308962500Y-99025000D03*
X308962500Y-99675000D03*
X308962500Y-100325000D03*
X308962500Y-100975000D03*
X308962500Y-101625000D03*
X308962500Y-102275000D03*
X308962500Y-102925000D03*
X314687500Y-102925000D03*
X314687500Y-102275000D03*
X314687500Y-101625000D03*
X314687500Y-100975000D03*
X314687500Y-100325000D03*
X314687500Y-99675000D03*
X314687500Y-99025000D03*
X314687500Y-98375000D03*
X314687500Y-97725000D03*
X314687500Y-97075000D03*
%TD*%
D10*
%TO.C,R19*%
X204560000Y-97000000D03*
X203540000Y-97000000D03*
%TD*%
%TO.C,R43*%
X341960000Y-97000000D03*
X340940000Y-97000000D03*
%TD*%
D13*
%TO.C,U106*%
X297512500Y-97075000D03*
X297512500Y-97725000D03*
X297512500Y-98375000D03*
X297512500Y-99025000D03*
X297512500Y-99675000D03*
X297512500Y-100325000D03*
X297512500Y-100975000D03*
X297512500Y-101625000D03*
X297512500Y-102275000D03*
X297512500Y-102925000D03*
X303237500Y-102925000D03*
X303237500Y-102275000D03*
X303237500Y-101625000D03*
X303237500Y-100975000D03*
X303237500Y-100325000D03*
X303237500Y-99675000D03*
X303237500Y-99025000D03*
X303237500Y-98375000D03*
X303237500Y-97725000D03*
X303237500Y-97075000D03*
%TD*%
D10*
%TO.C,R50*%
X382035000Y-97000000D03*
X381015000Y-97000000D03*
%TD*%
D11*
%TO.C,U137*%
X356675000Y-98250000D03*
X356675000Y-98900000D03*
X356675000Y-99550000D03*
X358575000Y-99550000D03*
X358575000Y-98900000D03*
X358575000Y-98250000D03*
%TD*%
D13*
%TO.C,U208*%
X492162500Y-97075000D03*
X492162500Y-97725000D03*
X492162500Y-98375000D03*
X492162500Y-99025000D03*
X492162500Y-99675000D03*
X492162500Y-100325000D03*
X492162500Y-100975000D03*
X492162500Y-101625000D03*
X492162500Y-102275000D03*
X492162500Y-102925000D03*
X497887500Y-102925000D03*
X497887500Y-102275000D03*
X497887500Y-101625000D03*
X497887500Y-100975000D03*
X497887500Y-100325000D03*
X497887500Y-99675000D03*
X497887500Y-99025000D03*
X497887500Y-98375000D03*
X497887500Y-97725000D03*
X497887500Y-97075000D03*
%TD*%
D10*
%TO.C,R2*%
X107235000Y-97000000D03*
X106215000Y-97000000D03*
%TD*%
D11*
%TO.C,U87*%
X259350000Y-101050000D03*
X259350000Y-101700000D03*
X259350000Y-102350000D03*
X261250000Y-102350000D03*
X261250000Y-101700000D03*
X261250000Y-101050000D03*
%TD*%
D13*
%TO.C,U187*%
X452087500Y-97075000D03*
X452087500Y-97725000D03*
X452087500Y-98375000D03*
X452087500Y-99025000D03*
X452087500Y-99675000D03*
X452087500Y-100325000D03*
X452087500Y-100975000D03*
X452087500Y-101625000D03*
X452087500Y-102275000D03*
X452087500Y-102925000D03*
X457812500Y-102925000D03*
X457812500Y-102275000D03*
X457812500Y-101625000D03*
X457812500Y-100975000D03*
X457812500Y-100325000D03*
X457812500Y-99675000D03*
X457812500Y-99025000D03*
X457812500Y-98375000D03*
X457812500Y-97725000D03*
X457812500Y-97075000D03*
%TD*%
D10*
%TO.C,R18*%
X198835000Y-97000000D03*
X197815000Y-97000000D03*
%TD*%
D11*
%TO.C,U146*%
X373850000Y-98250000D03*
X373850000Y-98900000D03*
X373850000Y-99550000D03*
X375750000Y-99550000D03*
X375750000Y-98900000D03*
X375750000Y-98250000D03*
%TD*%
D12*
%TO.C,C12*%
X162455000Y-97000000D03*
X161495000Y-97000000D03*
%TD*%
D10*
%TO.C,R15*%
X181660000Y-97000000D03*
X180640000Y-97000000D03*
%TD*%
D11*
%TO.C,U123*%
X328050000Y-101050000D03*
X328050000Y-101700000D03*
X328050000Y-102350000D03*
X329950000Y-102350000D03*
X329950000Y-101700000D03*
X329950000Y-101050000D03*
%TD*%
D10*
%TO.C,R37*%
X307610000Y-97000000D03*
X306590000Y-97000000D03*
%TD*%
D13*
%TO.C,U100*%
X286062500Y-97075000D03*
X286062500Y-97725000D03*
X286062500Y-98375000D03*
X286062500Y-99025000D03*
X286062500Y-99675000D03*
X286062500Y-100325000D03*
X286062500Y-100975000D03*
X286062500Y-101625000D03*
X286062500Y-102275000D03*
X286062500Y-102925000D03*
X291787500Y-102925000D03*
X291787500Y-102275000D03*
X291787500Y-101625000D03*
X291787500Y-100975000D03*
X291787500Y-100325000D03*
X291787500Y-99675000D03*
X291787500Y-99025000D03*
X291787500Y-98375000D03*
X291787500Y-97725000D03*
X291787500Y-97075000D03*
%TD*%
D11*
%TO.C,U45*%
X179200000Y-101050000D03*
X179200000Y-101700000D03*
X179200000Y-102350000D03*
X181100000Y-102350000D03*
X181100000Y-101700000D03*
X181100000Y-101050000D03*
%TD*%
%TO.C,U11*%
X116225000Y-98250000D03*
X116225000Y-98900000D03*
X116225000Y-99550000D03*
X118125000Y-99550000D03*
X118125000Y-98900000D03*
X118125000Y-98250000D03*
%TD*%
D12*
%TO.C,C53*%
X397180000Y-97000000D03*
X396220000Y-97000000D03*
%TD*%
%TO.C,C13*%
X168180000Y-97000000D03*
X167220000Y-97000000D03*
%TD*%
D10*
%TO.C,R66*%
X473635000Y-97000000D03*
X472615000Y-97000000D03*
%TD*%
D11*
%TO.C,U224*%
X522700000Y-98250000D03*
X522700000Y-98900000D03*
X522700000Y-99550000D03*
X524600000Y-99550000D03*
X524600000Y-98900000D03*
X524600000Y-98250000D03*
%TD*%
%TO.C,U236*%
X545600000Y-98250000D03*
X545600000Y-98900000D03*
X545600000Y-99550000D03*
X547500000Y-99550000D03*
X547500000Y-98900000D03*
X547500000Y-98250000D03*
%TD*%
%TO.C,U242*%
X557050000Y-98250000D03*
X557050000Y-98900000D03*
X557050000Y-99550000D03*
X558950000Y-99550000D03*
X558950000Y-98900000D03*
X558950000Y-98250000D03*
%TD*%
%TO.C,U197*%
X471175000Y-98250000D03*
X471175000Y-98900000D03*
X471175000Y-99550000D03*
X473075000Y-99550000D03*
X473075000Y-98900000D03*
X473075000Y-98250000D03*
%TD*%
D12*
%TO.C,C60*%
X437255000Y-97000000D03*
X436295000Y-97000000D03*
%TD*%
%TO.C,C61*%
X442980000Y-97000000D03*
X442020000Y-97000000D03*
%TD*%
D10*
%TO.C,R34*%
X290435000Y-97000000D03*
X289415000Y-97000000D03*
%TD*%
D12*
%TO.C,C14*%
X173905000Y-97000000D03*
X172945000Y-97000000D03*
%TD*%
D11*
%TO.C,U84*%
X253625000Y-101050000D03*
X253625000Y-101700000D03*
X253625000Y-102350000D03*
X255525000Y-102350000D03*
X255525000Y-101700000D03*
X255525000Y-101050000D03*
%TD*%
D13*
%TO.C,U181*%
X440637500Y-97075000D03*
X440637500Y-97725000D03*
X440637500Y-98375000D03*
X440637500Y-99025000D03*
X440637500Y-99675000D03*
X440637500Y-100325000D03*
X440637500Y-100975000D03*
X440637500Y-101625000D03*
X440637500Y-102275000D03*
X440637500Y-102925000D03*
X446362500Y-102925000D03*
X446362500Y-102275000D03*
X446362500Y-101625000D03*
X446362500Y-100975000D03*
X446362500Y-100325000D03*
X446362500Y-99675000D03*
X446362500Y-99025000D03*
X446362500Y-98375000D03*
X446362500Y-97725000D03*
X446362500Y-97075000D03*
%TD*%
D12*
%TO.C,C56*%
X414355000Y-97000000D03*
X413395000Y-97000000D03*
%TD*%
%TO.C,C37*%
X305580000Y-97000000D03*
X304620000Y-97000000D03*
%TD*%
D11*
%TO.C,U234*%
X539875000Y-101050000D03*
X539875000Y-101700000D03*
X539875000Y-102350000D03*
X541775000Y-102350000D03*
X541775000Y-101700000D03*
X541775000Y-101050000D03*
%TD*%
D12*
%TO.C,C77*%
X534580000Y-97000000D03*
X533620000Y-97000000D03*
%TD*%
%TO.C,C45*%
X351380000Y-97000000D03*
X350420000Y-97000000D03*
%TD*%
D11*
%TO.C,U108*%
X299425000Y-101050000D03*
X299425000Y-101700000D03*
X299425000Y-102350000D03*
X301325000Y-102350000D03*
X301325000Y-101700000D03*
X301325000Y-101050000D03*
%TD*%
%TO.C,U38*%
X167750000Y-98250000D03*
X167750000Y-98900000D03*
X167750000Y-99550000D03*
X169650000Y-99550000D03*
X169650000Y-98900000D03*
X169650000Y-98250000D03*
%TD*%
D13*
%TO.C,U97*%
X280337500Y-97075000D03*
X280337500Y-97725000D03*
X280337500Y-98375000D03*
X280337500Y-99025000D03*
X280337500Y-99675000D03*
X280337500Y-100325000D03*
X280337500Y-100975000D03*
X280337500Y-101625000D03*
X280337500Y-102275000D03*
X280337500Y-102925000D03*
X286062500Y-102925000D03*
X286062500Y-102275000D03*
X286062500Y-101625000D03*
X286062500Y-100975000D03*
X286062500Y-100325000D03*
X286062500Y-99675000D03*
X286062500Y-99025000D03*
X286062500Y-98375000D03*
X286062500Y-97725000D03*
X286062500Y-97075000D03*
%TD*%
D10*
%TO.C,R28*%
X256085000Y-97000000D03*
X255065000Y-97000000D03*
%TD*%
D11*
%TO.C,U201*%
X476900000Y-101050000D03*
X476900000Y-101700000D03*
X476900000Y-102350000D03*
X478800000Y-102350000D03*
X478800000Y-101700000D03*
X478800000Y-101050000D03*
%TD*%
D10*
%TO.C,R63*%
X456460000Y-97000000D03*
X455440000Y-97000000D03*
%TD*%
D12*
%TO.C,C34*%
X288405000Y-97000000D03*
X287445000Y-97000000D03*
%TD*%
%TO.C,C22*%
X219705000Y-97000000D03*
X218745000Y-97000000D03*
%TD*%
%TO.C,C30*%
X265505000Y-97000000D03*
X264545000Y-97000000D03*
%TD*%
D11*
%TO.C,U102*%
X287975000Y-101050000D03*
X287975000Y-101700000D03*
X287975000Y-102350000D03*
X289875000Y-102350000D03*
X289875000Y-101700000D03*
X289875000Y-101050000D03*
%TD*%
%TO.C,U80*%
X247900000Y-98250000D03*
X247900000Y-98900000D03*
X247900000Y-99550000D03*
X249800000Y-99550000D03*
X249800000Y-98900000D03*
X249800000Y-98250000D03*
%TD*%
%TO.C,U33*%
X156300000Y-101050000D03*
X156300000Y-101700000D03*
X156300000Y-102350000D03*
X158200000Y-102350000D03*
X158200000Y-101700000D03*
X158200000Y-101050000D03*
%TD*%
D13*
%TO.C,U175*%
X429187500Y-97075000D03*
X429187500Y-97725000D03*
X429187500Y-98375000D03*
X429187500Y-99025000D03*
X429187500Y-99675000D03*
X429187500Y-100325000D03*
X429187500Y-100975000D03*
X429187500Y-101625000D03*
X429187500Y-102275000D03*
X429187500Y-102925000D03*
X434912500Y-102925000D03*
X434912500Y-102275000D03*
X434912500Y-101625000D03*
X434912500Y-100975000D03*
X434912500Y-100325000D03*
X434912500Y-99675000D03*
X434912500Y-99025000D03*
X434912500Y-98375000D03*
X434912500Y-97725000D03*
X434912500Y-97075000D03*
%TD*%
%TO.C,U214*%
X503612500Y-97075000D03*
X503612500Y-97725000D03*
X503612500Y-98375000D03*
X503612500Y-99025000D03*
X503612500Y-99675000D03*
X503612500Y-100325000D03*
X503612500Y-100975000D03*
X503612500Y-101625000D03*
X503612500Y-102275000D03*
X503612500Y-102925000D03*
X509337500Y-102925000D03*
X509337500Y-102275000D03*
X509337500Y-101625000D03*
X509337500Y-100975000D03*
X509337500Y-100325000D03*
X509337500Y-99675000D03*
X509337500Y-99025000D03*
X509337500Y-98375000D03*
X509337500Y-97725000D03*
X509337500Y-97075000D03*
%TD*%
D11*
%TO.C,U140*%
X362400000Y-98250000D03*
X362400000Y-98900000D03*
X362400000Y-99550000D03*
X364300000Y-99550000D03*
X364300000Y-98900000D03*
X364300000Y-98250000D03*
%TD*%
%TO.C,U176*%
X431100000Y-98250000D03*
X431100000Y-98900000D03*
X431100000Y-99550000D03*
X433000000Y-99550000D03*
X433000000Y-98900000D03*
X433000000Y-98250000D03*
%TD*%
%TO.C,U189*%
X454000000Y-101050000D03*
X454000000Y-101700000D03*
X454000000Y-102350000D03*
X455900000Y-102350000D03*
X455900000Y-101700000D03*
X455900000Y-101050000D03*
%TD*%
%TO.C,U209*%
X494075000Y-98250000D03*
X494075000Y-98900000D03*
X494075000Y-99550000D03*
X495975000Y-99550000D03*
X495975000Y-98900000D03*
X495975000Y-98250000D03*
%TD*%
D13*
%TO.C,U193*%
X463537500Y-97075000D03*
X463537500Y-97725000D03*
X463537500Y-98375000D03*
X463537500Y-99025000D03*
X463537500Y-99675000D03*
X463537500Y-100325000D03*
X463537500Y-100975000D03*
X463537500Y-101625000D03*
X463537500Y-102275000D03*
X463537500Y-102925000D03*
X469262500Y-102925000D03*
X469262500Y-102275000D03*
X469262500Y-101625000D03*
X469262500Y-100975000D03*
X469262500Y-100325000D03*
X469262500Y-99675000D03*
X469262500Y-99025000D03*
X469262500Y-98375000D03*
X469262500Y-97725000D03*
X469262500Y-97075000D03*
%TD*%
%TO.C,U133*%
X349037500Y-97075000D03*
X349037500Y-97725000D03*
X349037500Y-98375000D03*
X349037500Y-99025000D03*
X349037500Y-99675000D03*
X349037500Y-100325000D03*
X349037500Y-100975000D03*
X349037500Y-101625000D03*
X349037500Y-102275000D03*
X349037500Y-102925000D03*
X354762500Y-102925000D03*
X354762500Y-102275000D03*
X354762500Y-101625000D03*
X354762500Y-100975000D03*
X354762500Y-100325000D03*
X354762500Y-99675000D03*
X354762500Y-99025000D03*
X354762500Y-98375000D03*
X354762500Y-97725000D03*
X354762500Y-97075000D03*
%TD*%
D12*
%TO.C,C24*%
X231155000Y-97000000D03*
X230195000Y-97000000D03*
%TD*%
%TO.C,C68*%
X483055000Y-97000000D03*
X482095000Y-97000000D03*
%TD*%
%TO.C,C21*%
X213980000Y-97000000D03*
X213020000Y-97000000D03*
%TD*%
D13*
%TO.C,U10*%
X114312500Y-97075000D03*
X114312500Y-97725000D03*
X114312500Y-98375000D03*
X114312500Y-99025000D03*
X114312500Y-99675000D03*
X114312500Y-100325000D03*
X114312500Y-100975000D03*
X114312500Y-101625000D03*
X114312500Y-102275000D03*
X114312500Y-102925000D03*
X120037500Y-102925000D03*
X120037500Y-102275000D03*
X120037500Y-101625000D03*
X120037500Y-100975000D03*
X120037500Y-100325000D03*
X120037500Y-99675000D03*
X120037500Y-99025000D03*
X120037500Y-98375000D03*
X120037500Y-97725000D03*
X120037500Y-97075000D03*
%TD*%
%TO.C,U130*%
X343312500Y-97075000D03*
X343312500Y-97725000D03*
X343312500Y-98375000D03*
X343312500Y-99025000D03*
X343312500Y-99675000D03*
X343312500Y-100325000D03*
X343312500Y-100975000D03*
X343312500Y-101625000D03*
X343312500Y-102275000D03*
X343312500Y-102925000D03*
X349037500Y-102925000D03*
X349037500Y-102275000D03*
X349037500Y-101625000D03*
X349037500Y-100975000D03*
X349037500Y-100325000D03*
X349037500Y-99675000D03*
X349037500Y-99025000D03*
X349037500Y-98375000D03*
X349037500Y-97725000D03*
X349037500Y-97075000D03*
%TD*%
%TO.C,U121*%
X326137500Y-97075000D03*
X326137500Y-97725000D03*
X326137500Y-98375000D03*
X326137500Y-99025000D03*
X326137500Y-99675000D03*
X326137500Y-100325000D03*
X326137500Y-100975000D03*
X326137500Y-101625000D03*
X326137500Y-102275000D03*
X326137500Y-102925000D03*
X331862500Y-102925000D03*
X331862500Y-102275000D03*
X331862500Y-101625000D03*
X331862500Y-100975000D03*
X331862500Y-100325000D03*
X331862500Y-99675000D03*
X331862500Y-99025000D03*
X331862500Y-98375000D03*
X331862500Y-97725000D03*
X331862500Y-97075000D03*
%TD*%
D11*
%TO.C,U99*%
X282250000Y-101050000D03*
X282250000Y-101700000D03*
X282250000Y-102350000D03*
X284150000Y-102350000D03*
X284150000Y-101700000D03*
X284150000Y-101050000D03*
%TD*%
%TO.C,U63*%
X213550000Y-101050000D03*
X213550000Y-101700000D03*
X213550000Y-102350000D03*
X215450000Y-102350000D03*
X215450000Y-101700000D03*
X215450000Y-101050000D03*
%TD*%
%TO.C,U231*%
X534150000Y-101050000D03*
X534150000Y-101700000D03*
X534150000Y-102350000D03*
X536050000Y-102350000D03*
X536050000Y-101700000D03*
X536050000Y-101050000D03*
%TD*%
D10*
%TO.C,R41*%
X330510000Y-97000000D03*
X329490000Y-97000000D03*
%TD*%
D13*
%TO.C,U109*%
X303237500Y-97075000D03*
X303237500Y-97725000D03*
X303237500Y-98375000D03*
X303237500Y-99025000D03*
X303237500Y-99675000D03*
X303237500Y-100325000D03*
X303237500Y-100975000D03*
X303237500Y-101625000D03*
X303237500Y-102275000D03*
X303237500Y-102925000D03*
X308962500Y-102925000D03*
X308962500Y-102275000D03*
X308962500Y-101625000D03*
X308962500Y-100975000D03*
X308962500Y-100325000D03*
X308962500Y-99675000D03*
X308962500Y-99025000D03*
X308962500Y-98375000D03*
X308962500Y-97725000D03*
X308962500Y-97075000D03*
%TD*%
%TO.C,U118*%
X320412500Y-97075000D03*
X320412500Y-97725000D03*
X320412500Y-98375000D03*
X320412500Y-99025000D03*
X320412500Y-99675000D03*
X320412500Y-100325000D03*
X320412500Y-100975000D03*
X320412500Y-101625000D03*
X320412500Y-102275000D03*
X320412500Y-102925000D03*
X326137500Y-102925000D03*
X326137500Y-102275000D03*
X326137500Y-101625000D03*
X326137500Y-100975000D03*
X326137500Y-100325000D03*
X326137500Y-99675000D03*
X326137500Y-99025000D03*
X326137500Y-98375000D03*
X326137500Y-97725000D03*
X326137500Y-97075000D03*
%TD*%
D11*
%TO.C,U155*%
X391025000Y-98250000D03*
X391025000Y-98900000D03*
X391025000Y-99550000D03*
X392925000Y-99550000D03*
X392925000Y-98900000D03*
X392925000Y-98250000D03*
%TD*%
D13*
%TO.C,U16*%
X125762500Y-97075000D03*
X125762500Y-97725000D03*
X125762500Y-98375000D03*
X125762500Y-99025000D03*
X125762500Y-99675000D03*
X125762500Y-100325000D03*
X125762500Y-100975000D03*
X125762500Y-101625000D03*
X125762500Y-102275000D03*
X125762500Y-102925000D03*
X131487500Y-102925000D03*
X131487500Y-102275000D03*
X131487500Y-101625000D03*
X131487500Y-100975000D03*
X131487500Y-100325000D03*
X131487500Y-99675000D03*
X131487500Y-99025000D03*
X131487500Y-98375000D03*
X131487500Y-97725000D03*
X131487500Y-97075000D03*
%TD*%
D10*
%TO.C,R1*%
X101510000Y-97000000D03*
X100490000Y-97000000D03*
%TD*%
D11*
%TO.C,U114*%
X310875000Y-101050000D03*
X310875000Y-101700000D03*
X310875000Y-102350000D03*
X312775000Y-102350000D03*
X312775000Y-101700000D03*
X312775000Y-101050000D03*
%TD*%
D12*
%TO.C,C76*%
X528855000Y-97000000D03*
X527895000Y-97000000D03*
%TD*%
D11*
%TO.C,U138*%
X356675000Y-101050000D03*
X356675000Y-101700000D03*
X356675000Y-102350000D03*
X358575000Y-102350000D03*
X358575000Y-101700000D03*
X358575000Y-101050000D03*
%TD*%
D10*
%TO.C,R10*%
X153035000Y-97000000D03*
X152015000Y-97000000D03*
%TD*%
D11*
%TO.C,U213*%
X499800000Y-101050000D03*
X499800000Y-101700000D03*
X499800000Y-102350000D03*
X501700000Y-102350000D03*
X501700000Y-101700000D03*
X501700000Y-101050000D03*
%TD*%
D13*
%TO.C,U199*%
X474987500Y-97075000D03*
X474987500Y-97725000D03*
X474987500Y-98375000D03*
X474987500Y-99025000D03*
X474987500Y-99675000D03*
X474987500Y-100325000D03*
X474987500Y-100975000D03*
X474987500Y-101625000D03*
X474987500Y-102275000D03*
X474987500Y-102925000D03*
X480712500Y-102925000D03*
X480712500Y-102275000D03*
X480712500Y-101625000D03*
X480712500Y-100975000D03*
X480712500Y-100325000D03*
X480712500Y-99675000D03*
X480712500Y-99025000D03*
X480712500Y-98375000D03*
X480712500Y-97725000D03*
X480712500Y-97075000D03*
%TD*%
%TO.C,U82*%
X251712500Y-97075000D03*
X251712500Y-97725000D03*
X251712500Y-98375000D03*
X251712500Y-99025000D03*
X251712500Y-99675000D03*
X251712500Y-100325000D03*
X251712500Y-100975000D03*
X251712500Y-101625000D03*
X251712500Y-102275000D03*
X251712500Y-102925000D03*
X257437500Y-102925000D03*
X257437500Y-102275000D03*
X257437500Y-101625000D03*
X257437500Y-100975000D03*
X257437500Y-100325000D03*
X257437500Y-99675000D03*
X257437500Y-99025000D03*
X257437500Y-98375000D03*
X257437500Y-97725000D03*
X257437500Y-97075000D03*
%TD*%
D10*
%TO.C,R4*%
X118685000Y-97000000D03*
X117665000Y-97000000D03*
%TD*%
%TO.C,R6*%
X130135000Y-97000000D03*
X129115000Y-97000000D03*
%TD*%
D12*
%TO.C,C49*%
X374280000Y-97000000D03*
X373320000Y-97000000D03*
%TD*%
D11*
%TO.C,U206*%
X488350000Y-98250000D03*
X488350000Y-98900000D03*
X488350000Y-99550000D03*
X490250000Y-99550000D03*
X490250000Y-98900000D03*
X490250000Y-98250000D03*
%TD*%
D12*
%TO.C,C78*%
X540305000Y-97000000D03*
X539345000Y-97000000D03*
%TD*%
D11*
%TO.C,U225*%
X522700000Y-101050000D03*
X522700000Y-101700000D03*
X522700000Y-102350000D03*
X524600000Y-102350000D03*
X524600000Y-101700000D03*
X524600000Y-101050000D03*
%TD*%
%TO.C,U110*%
X305150000Y-98250000D03*
X305150000Y-98900000D03*
X305150000Y-99550000D03*
X307050000Y-99550000D03*
X307050000Y-98900000D03*
X307050000Y-98250000D03*
%TD*%
D13*
%TO.C,U55*%
X200187500Y-97075000D03*
X200187500Y-97725000D03*
X200187500Y-98375000D03*
X200187500Y-99025000D03*
X200187500Y-99675000D03*
X200187500Y-100325000D03*
X200187500Y-100975000D03*
X200187500Y-101625000D03*
X200187500Y-102275000D03*
X200187500Y-102925000D03*
X205912500Y-102925000D03*
X205912500Y-102275000D03*
X205912500Y-101625000D03*
X205912500Y-100975000D03*
X205912500Y-100325000D03*
X205912500Y-99675000D03*
X205912500Y-99025000D03*
X205912500Y-98375000D03*
X205912500Y-97725000D03*
X205912500Y-97075000D03*
%TD*%
%TO.C,U79*%
X245987500Y-97075000D03*
X245987500Y-97725000D03*
X245987500Y-98375000D03*
X245987500Y-99025000D03*
X245987500Y-99675000D03*
X245987500Y-100325000D03*
X245987500Y-100975000D03*
X245987500Y-101625000D03*
X245987500Y-102275000D03*
X245987500Y-102925000D03*
X251712500Y-102925000D03*
X251712500Y-102275000D03*
X251712500Y-101625000D03*
X251712500Y-100975000D03*
X251712500Y-100325000D03*
X251712500Y-99675000D03*
X251712500Y-99025000D03*
X251712500Y-98375000D03*
X251712500Y-97725000D03*
X251712500Y-97075000D03*
%TD*%
D11*
%TO.C,U111*%
X305150000Y-101050000D03*
X305150000Y-101700000D03*
X305150000Y-102350000D03*
X307050000Y-102350000D03*
X307050000Y-101700000D03*
X307050000Y-101050000D03*
%TD*%
%TO.C,U18*%
X127675000Y-101050000D03*
X127675000Y-101700000D03*
X127675000Y-102350000D03*
X129575000Y-102350000D03*
X129575000Y-101700000D03*
X129575000Y-101050000D03*
%TD*%
D13*
%TO.C,U142*%
X366212500Y-97075000D03*
X366212500Y-97725000D03*
X366212500Y-98375000D03*
X366212500Y-99025000D03*
X366212500Y-99675000D03*
X366212500Y-100325000D03*
X366212500Y-100975000D03*
X366212500Y-101625000D03*
X366212500Y-102275000D03*
X366212500Y-102925000D03*
X371937500Y-102925000D03*
X371937500Y-102275000D03*
X371937500Y-101625000D03*
X371937500Y-100975000D03*
X371937500Y-100325000D03*
X371937500Y-99675000D03*
X371937500Y-99025000D03*
X371937500Y-98375000D03*
X371937500Y-97725000D03*
X371937500Y-97075000D03*
%TD*%
%TO.C,U154*%
X389112500Y-97075000D03*
X389112500Y-97725000D03*
X389112500Y-98375000D03*
X389112500Y-99025000D03*
X389112500Y-99675000D03*
X389112500Y-100325000D03*
X389112500Y-100975000D03*
X389112500Y-101625000D03*
X389112500Y-102275000D03*
X389112500Y-102925000D03*
X394837500Y-102925000D03*
X394837500Y-102275000D03*
X394837500Y-101625000D03*
X394837500Y-100975000D03*
X394837500Y-100325000D03*
X394837500Y-99675000D03*
X394837500Y-99025000D03*
X394837500Y-98375000D03*
X394837500Y-97725000D03*
X394837500Y-97075000D03*
%TD*%
D11*
%TO.C,U56*%
X202100000Y-98250000D03*
X202100000Y-98900000D03*
X202100000Y-99550000D03*
X204000000Y-99550000D03*
X204000000Y-98900000D03*
X204000000Y-98250000D03*
%TD*%
%TO.C,U2*%
X99050000Y-98250000D03*
X99050000Y-98900000D03*
X99050000Y-99550000D03*
X100950000Y-99550000D03*
X100950000Y-98900000D03*
X100950000Y-98250000D03*
%TD*%
%TO.C,U53*%
X196375000Y-98250000D03*
X196375000Y-98900000D03*
X196375000Y-99550000D03*
X198275000Y-99550000D03*
X198275000Y-98900000D03*
X198275000Y-98250000D03*
%TD*%
%TO.C,U221*%
X516975000Y-98250000D03*
X516975000Y-98900000D03*
X516975000Y-99550000D03*
X518875000Y-99550000D03*
X518875000Y-98900000D03*
X518875000Y-98250000D03*
%TD*%
%TO.C,U126*%
X333775000Y-101050000D03*
X333775000Y-101700000D03*
X333775000Y-102350000D03*
X335675000Y-102350000D03*
X335675000Y-101700000D03*
X335675000Y-101050000D03*
%TD*%
D13*
%TO.C,U76*%
X240262500Y-97075000D03*
X240262500Y-97725000D03*
X240262500Y-98375000D03*
X240262500Y-99025000D03*
X240262500Y-99675000D03*
X240262500Y-100325000D03*
X240262500Y-100975000D03*
X240262500Y-101625000D03*
X240262500Y-102275000D03*
X240262500Y-102925000D03*
X245987500Y-102925000D03*
X245987500Y-102275000D03*
X245987500Y-101625000D03*
X245987500Y-100975000D03*
X245987500Y-100325000D03*
X245987500Y-99675000D03*
X245987500Y-99025000D03*
X245987500Y-98375000D03*
X245987500Y-97725000D03*
X245987500Y-97075000D03*
%TD*%
D10*
%TO.C,R32*%
X278985000Y-97000000D03*
X277965000Y-97000000D03*
%TD*%
D11*
%TO.C,U215*%
X505525000Y-98250000D03*
X505525000Y-98900000D03*
X505525000Y-99550000D03*
X507425000Y-99550000D03*
X507425000Y-98900000D03*
X507425000Y-98250000D03*
%TD*%
D10*
%TO.C,R35*%
X296160000Y-97000000D03*
X295140000Y-97000000D03*
%TD*%
D12*
%TO.C,C57*%
X420080000Y-97000000D03*
X419120000Y-97000000D03*
%TD*%
D10*
%TO.C,R45*%
X353410000Y-97000000D03*
X352390000Y-97000000D03*
%TD*%
D11*
%TO.C,U134*%
X350950000Y-98250000D03*
X350950000Y-98900000D03*
X350950000Y-99550000D03*
X352850000Y-99550000D03*
X352850000Y-98900000D03*
X352850000Y-98250000D03*
%TD*%
D10*
%TO.C,R17*%
X193110000Y-97000000D03*
X192090000Y-97000000D03*
%TD*%
D12*
%TO.C,C65*%
X465880000Y-97000000D03*
X464920000Y-97000000D03*
%TD*%
%TO.C,C1*%
X99480000Y-97000000D03*
X98520000Y-97000000D03*
%TD*%
D11*
%TO.C,U78*%
X242175000Y-101050000D03*
X242175000Y-101700000D03*
X242175000Y-102350000D03*
X244075000Y-102350000D03*
X244075000Y-101700000D03*
X244075000Y-101050000D03*
%TD*%
%TO.C,U182*%
X442550000Y-98250000D03*
X442550000Y-98900000D03*
X442550000Y-99550000D03*
X444450000Y-99550000D03*
X444450000Y-98900000D03*
X444450000Y-98250000D03*
%TD*%
%TO.C,U117*%
X316600000Y-101050000D03*
X316600000Y-101700000D03*
X316600000Y-102350000D03*
X318500000Y-102350000D03*
X318500000Y-101700000D03*
X318500000Y-101050000D03*
%TD*%
%TO.C,U95*%
X276525000Y-98250000D03*
X276525000Y-98900000D03*
X276525000Y-99550000D03*
X278425000Y-99550000D03*
X278425000Y-98900000D03*
X278425000Y-98250000D03*
%TD*%
%TO.C,U81*%
X247900000Y-101050000D03*
X247900000Y-101700000D03*
X247900000Y-102350000D03*
X249800000Y-102350000D03*
X249800000Y-101700000D03*
X249800000Y-101050000D03*
%TD*%
%TO.C,U107*%
X299425000Y-98250000D03*
X299425000Y-98900000D03*
X299425000Y-99550000D03*
X301325000Y-99550000D03*
X301325000Y-98900000D03*
X301325000Y-98250000D03*
%TD*%
%TO.C,U48*%
X184925000Y-101050000D03*
X184925000Y-101700000D03*
X184925000Y-102350000D03*
X186825000Y-102350000D03*
X186825000Y-101700000D03*
X186825000Y-101050000D03*
%TD*%
D13*
%TO.C,U4*%
X102862500Y-97075000D03*
X102862500Y-97725000D03*
X102862500Y-98375000D03*
X102862500Y-99025000D03*
X102862500Y-99675000D03*
X102862500Y-100325000D03*
X102862500Y-100975000D03*
X102862500Y-101625000D03*
X102862500Y-102275000D03*
X102862500Y-102925000D03*
X108587500Y-102925000D03*
X108587500Y-102275000D03*
X108587500Y-101625000D03*
X108587500Y-100975000D03*
X108587500Y-100325000D03*
X108587500Y-99675000D03*
X108587500Y-99025000D03*
X108587500Y-98375000D03*
X108587500Y-97725000D03*
X108587500Y-97075000D03*
%TD*%
D10*
%TO.C,R75*%
X525160000Y-97000000D03*
X524140000Y-97000000D03*
%TD*%
%TO.C,R60*%
X439285000Y-97000000D03*
X438265000Y-97000000D03*
%TD*%
%TO.C,R69*%
X490810000Y-97000000D03*
X489790000Y-97000000D03*
%TD*%
D11*
%TO.C,U141*%
X362400000Y-101050000D03*
X362400000Y-101700000D03*
X362400000Y-102350000D03*
X364300000Y-102350000D03*
X364300000Y-101700000D03*
X364300000Y-101050000D03*
%TD*%
%TO.C,U170*%
X419650000Y-98250000D03*
X419650000Y-98900000D03*
X419650000Y-99550000D03*
X421550000Y-99550000D03*
X421550000Y-98900000D03*
X421550000Y-98250000D03*
%TD*%
D12*
%TO.C,C79*%
X546030000Y-97000000D03*
X545070000Y-97000000D03*
%TD*%
%TO.C,C17*%
X191080000Y-97000000D03*
X190120000Y-97000000D03*
%TD*%
D13*
%TO.C,U70*%
X228812500Y-97075000D03*
X228812500Y-97725000D03*
X228812500Y-98375000D03*
X228812500Y-99025000D03*
X228812500Y-99675000D03*
X228812500Y-100325000D03*
X228812500Y-100975000D03*
X228812500Y-101625000D03*
X228812500Y-102275000D03*
X228812500Y-102925000D03*
X234537500Y-102925000D03*
X234537500Y-102275000D03*
X234537500Y-101625000D03*
X234537500Y-100975000D03*
X234537500Y-100325000D03*
X234537500Y-99675000D03*
X234537500Y-99025000D03*
X234537500Y-98375000D03*
X234537500Y-97725000D03*
X234537500Y-97075000D03*
%TD*%
%TO.C,U205*%
X486437500Y-97075000D03*
X486437500Y-97725000D03*
X486437500Y-98375000D03*
X486437500Y-99025000D03*
X486437500Y-99675000D03*
X486437500Y-100325000D03*
X486437500Y-100975000D03*
X486437500Y-101625000D03*
X486437500Y-102275000D03*
X486437500Y-102925000D03*
X492162500Y-102925000D03*
X492162500Y-102275000D03*
X492162500Y-101625000D03*
X492162500Y-100975000D03*
X492162500Y-100325000D03*
X492162500Y-99675000D03*
X492162500Y-99025000D03*
X492162500Y-98375000D03*
X492162500Y-97725000D03*
X492162500Y-97075000D03*
%TD*%
D11*
%TO.C,U198*%
X471175000Y-101050000D03*
X471175000Y-101700000D03*
X471175000Y-102350000D03*
X473075000Y-102350000D03*
X473075000Y-101700000D03*
X473075000Y-101050000D03*
%TD*%
D12*
%TO.C,C35*%
X294130000Y-97000000D03*
X293170000Y-97000000D03*
%TD*%
D10*
%TO.C,R70*%
X496535000Y-97000000D03*
X495515000Y-97000000D03*
%TD*%
D13*
%TO.C,U31*%
X154387500Y-97075000D03*
X154387500Y-97725000D03*
X154387500Y-98375000D03*
X154387500Y-99025000D03*
X154387500Y-99675000D03*
X154387500Y-100325000D03*
X154387500Y-100975000D03*
X154387500Y-101625000D03*
X154387500Y-102275000D03*
X154387500Y-102925000D03*
X160112500Y-102925000D03*
X160112500Y-102275000D03*
X160112500Y-101625000D03*
X160112500Y-100975000D03*
X160112500Y-100325000D03*
X160112500Y-99675000D03*
X160112500Y-99025000D03*
X160112500Y-98375000D03*
X160112500Y-97725000D03*
X160112500Y-97075000D03*
%TD*%
D10*
%TO.C,R68*%
X485085000Y-97000000D03*
X484065000Y-97000000D03*
%TD*%
D11*
%TO.C,U89*%
X265075000Y-98250000D03*
X265075000Y-98900000D03*
X265075000Y-99550000D03*
X266975000Y-99550000D03*
X266975000Y-98900000D03*
X266975000Y-98250000D03*
%TD*%
%TO.C,U101*%
X287975000Y-98250000D03*
X287975000Y-98900000D03*
X287975000Y-99550000D03*
X289875000Y-99550000D03*
X289875000Y-98900000D03*
X289875000Y-98250000D03*
%TD*%
D10*
%TO.C,R23*%
X227460000Y-97000000D03*
X226440000Y-97000000D03*
%TD*%
D11*
%TO.C,U41*%
X173475000Y-98250000D03*
X173475000Y-98900000D03*
X173475000Y-99550000D03*
X175375000Y-99550000D03*
X175375000Y-98900000D03*
X175375000Y-98250000D03*
%TD*%
D10*
%TO.C,R44*%
X347685000Y-97000000D03*
X346665000Y-97000000D03*
%TD*%
%TO.C,R61*%
X445010000Y-97000000D03*
X443990000Y-97000000D03*
%TD*%
%TO.C,R5*%
X124410000Y-97000000D03*
X123390000Y-97000000D03*
%TD*%
D13*
%TO.C,U127*%
X337587500Y-97075000D03*
X337587500Y-97725000D03*
X337587500Y-98375000D03*
X337587500Y-99025000D03*
X337587500Y-99675000D03*
X337587500Y-100325000D03*
X337587500Y-100975000D03*
X337587500Y-101625000D03*
X337587500Y-102275000D03*
X337587500Y-102925000D03*
X343312500Y-102925000D03*
X343312500Y-102275000D03*
X343312500Y-101625000D03*
X343312500Y-100975000D03*
X343312500Y-100325000D03*
X343312500Y-99675000D03*
X343312500Y-99025000D03*
X343312500Y-98375000D03*
X343312500Y-97725000D03*
X343312500Y-97075000D03*
%TD*%
D11*
%TO.C,U5*%
X104775000Y-98250000D03*
X104775000Y-98900000D03*
X104775000Y-99550000D03*
X106675000Y-99550000D03*
X106675000Y-98900000D03*
X106675000Y-98250000D03*
%TD*%
D10*
%TO.C,R14*%
X175935000Y-97000000D03*
X174915000Y-97000000D03*
%TD*%
%TO.C,R47*%
X364860000Y-97000000D03*
X363840000Y-97000000D03*
%TD*%
D13*
%TO.C,U43*%
X177287500Y-97075000D03*
X177287500Y-97725000D03*
X177287500Y-98375000D03*
X177287500Y-99025000D03*
X177287500Y-99675000D03*
X177287500Y-100325000D03*
X177287500Y-100975000D03*
X177287500Y-101625000D03*
X177287500Y-102275000D03*
X177287500Y-102925000D03*
X183012500Y-102925000D03*
X183012500Y-102275000D03*
X183012500Y-101625000D03*
X183012500Y-100975000D03*
X183012500Y-100325000D03*
X183012500Y-99675000D03*
X183012500Y-99025000D03*
X183012500Y-98375000D03*
X183012500Y-97725000D03*
X183012500Y-97075000D03*
%TD*%
D11*
%TO.C,U86*%
X259350000Y-98250000D03*
X259350000Y-98900000D03*
X259350000Y-99550000D03*
X261250000Y-99550000D03*
X261250000Y-98900000D03*
X261250000Y-98250000D03*
%TD*%
D10*
%TO.C,R40*%
X324785000Y-97000000D03*
X323765000Y-97000000D03*
%TD*%
D13*
%TO.C,U229*%
X532237500Y-97075000D03*
X532237500Y-97725000D03*
X532237500Y-98375000D03*
X532237500Y-99025000D03*
X532237500Y-99675000D03*
X532237500Y-100325000D03*
X532237500Y-100975000D03*
X532237500Y-101625000D03*
X532237500Y-102275000D03*
X532237500Y-102925000D03*
X537962500Y-102925000D03*
X537962500Y-102275000D03*
X537962500Y-101625000D03*
X537962500Y-100975000D03*
X537962500Y-100325000D03*
X537962500Y-99675000D03*
X537962500Y-99025000D03*
X537962500Y-98375000D03*
X537962500Y-97725000D03*
X537962500Y-97075000D03*
%TD*%
%TO.C,U34*%
X160112500Y-97075000D03*
X160112500Y-97725000D03*
X160112500Y-98375000D03*
X160112500Y-99025000D03*
X160112500Y-99675000D03*
X160112500Y-100325000D03*
X160112500Y-100975000D03*
X160112500Y-101625000D03*
X160112500Y-102275000D03*
X160112500Y-102925000D03*
X165837500Y-102925000D03*
X165837500Y-102275000D03*
X165837500Y-101625000D03*
X165837500Y-100975000D03*
X165837500Y-100325000D03*
X165837500Y-99675000D03*
X165837500Y-99025000D03*
X165837500Y-98375000D03*
X165837500Y-97725000D03*
X165837500Y-97075000D03*
%TD*%
D12*
%TO.C,C8*%
X139555000Y-97000000D03*
X138595000Y-97000000D03*
%TD*%
D13*
%TO.C,U223*%
X520787500Y-97075000D03*
X520787500Y-97725000D03*
X520787500Y-98375000D03*
X520787500Y-99025000D03*
X520787500Y-99675000D03*
X520787500Y-100325000D03*
X520787500Y-100975000D03*
X520787500Y-101625000D03*
X520787500Y-102275000D03*
X520787500Y-102925000D03*
X526512500Y-102925000D03*
X526512500Y-102275000D03*
X526512500Y-101625000D03*
X526512500Y-100975000D03*
X526512500Y-100325000D03*
X526512500Y-99675000D03*
X526512500Y-99025000D03*
X526512500Y-98375000D03*
X526512500Y-97725000D03*
X526512500Y-97075000D03*
%TD*%
D11*
%TO.C,U227*%
X528425000Y-98250000D03*
X528425000Y-98900000D03*
X528425000Y-99550000D03*
X530325000Y-99550000D03*
X530325000Y-98900000D03*
X530325000Y-98250000D03*
%TD*%
%TO.C,U105*%
X293700000Y-101050000D03*
X293700000Y-101700000D03*
X293700000Y-102350000D03*
X295600000Y-102350000D03*
X295600000Y-101700000D03*
X295600000Y-101050000D03*
%TD*%
%TO.C,U92*%
X270800000Y-98250000D03*
X270800000Y-98900000D03*
X270800000Y-99550000D03*
X272700000Y-99550000D03*
X272700000Y-98900000D03*
X272700000Y-98250000D03*
%TD*%
D13*
%TO.C,U91*%
X268887500Y-97075000D03*
X268887500Y-97725000D03*
X268887500Y-98375000D03*
X268887500Y-99025000D03*
X268887500Y-99675000D03*
X268887500Y-100325000D03*
X268887500Y-100975000D03*
X268887500Y-101625000D03*
X268887500Y-102275000D03*
X268887500Y-102925000D03*
X274612500Y-102925000D03*
X274612500Y-102275000D03*
X274612500Y-101625000D03*
X274612500Y-100975000D03*
X274612500Y-100325000D03*
X274612500Y-99675000D03*
X274612500Y-99025000D03*
X274612500Y-98375000D03*
X274612500Y-97725000D03*
X274612500Y-97075000D03*
%TD*%
D10*
%TO.C,R3*%
X112960000Y-97000000D03*
X111940000Y-97000000D03*
%TD*%
D11*
%TO.C,U59*%
X207825000Y-98250000D03*
X207825000Y-98900000D03*
X207825000Y-99550000D03*
X209725000Y-99550000D03*
X209725000Y-98900000D03*
X209725000Y-98250000D03*
%TD*%
D13*
%TO.C,U49*%
X188737500Y-97075000D03*
X188737500Y-97725000D03*
X188737500Y-98375000D03*
X188737500Y-99025000D03*
X188737500Y-99675000D03*
X188737500Y-100325000D03*
X188737500Y-100975000D03*
X188737500Y-101625000D03*
X188737500Y-102275000D03*
X188737500Y-102925000D03*
X194462500Y-102925000D03*
X194462500Y-102275000D03*
X194462500Y-101625000D03*
X194462500Y-100975000D03*
X194462500Y-100325000D03*
X194462500Y-99675000D03*
X194462500Y-99025000D03*
X194462500Y-98375000D03*
X194462500Y-97725000D03*
X194462500Y-97075000D03*
%TD*%
D11*
%TO.C,U90*%
X265075000Y-101050000D03*
X265075000Y-101700000D03*
X265075000Y-102350000D03*
X266975000Y-102350000D03*
X266975000Y-101700000D03*
X266975000Y-101050000D03*
%TD*%
D10*
%TO.C,R65*%
X467910000Y-97000000D03*
X466890000Y-97000000D03*
%TD*%
D13*
%TO.C,U190*%
X457812500Y-97075000D03*
X457812500Y-97725000D03*
X457812500Y-98375000D03*
X457812500Y-99025000D03*
X457812500Y-99675000D03*
X457812500Y-100325000D03*
X457812500Y-100975000D03*
X457812500Y-101625000D03*
X457812500Y-102275000D03*
X457812500Y-102925000D03*
X463537500Y-102925000D03*
X463537500Y-102275000D03*
X463537500Y-101625000D03*
X463537500Y-100975000D03*
X463537500Y-100325000D03*
X463537500Y-99675000D03*
X463537500Y-99025000D03*
X463537500Y-98375000D03*
X463537500Y-97725000D03*
X463537500Y-97075000D03*
%TD*%
D11*
%TO.C,U212*%
X499800000Y-98250000D03*
X499800000Y-98900000D03*
X499800000Y-99550000D03*
X501700000Y-99550000D03*
X501700000Y-98900000D03*
X501700000Y-98250000D03*
%TD*%
%TO.C,U156*%
X391025000Y-101050000D03*
X391025000Y-101700000D03*
X391025000Y-102350000D03*
X392925000Y-102350000D03*
X392925000Y-101700000D03*
X392925000Y-101050000D03*
%TD*%
D13*
%TO.C,U25*%
X142937500Y-97075000D03*
X142937500Y-97725000D03*
X142937500Y-98375000D03*
X142937500Y-99025000D03*
X142937500Y-99675000D03*
X142937500Y-100325000D03*
X142937500Y-100975000D03*
X142937500Y-101625000D03*
X142937500Y-102275000D03*
X142937500Y-102925000D03*
X148662500Y-102925000D03*
X148662500Y-102275000D03*
X148662500Y-101625000D03*
X148662500Y-100975000D03*
X148662500Y-100325000D03*
X148662500Y-99675000D03*
X148662500Y-99025000D03*
X148662500Y-98375000D03*
X148662500Y-97725000D03*
X148662500Y-97075000D03*
%TD*%
D10*
%TO.C,R24*%
X233185000Y-97000000D03*
X232165000Y-97000000D03*
%TD*%
D12*
%TO.C,C39*%
X317030000Y-97000000D03*
X316070000Y-97000000D03*
%TD*%
D13*
%TO.C,U88*%
X263162500Y-97075000D03*
X263162500Y-97725000D03*
X263162500Y-98375000D03*
X263162500Y-99025000D03*
X263162500Y-99675000D03*
X263162500Y-100325000D03*
X263162500Y-100975000D03*
X263162500Y-101625000D03*
X263162500Y-102275000D03*
X263162500Y-102925000D03*
X268887500Y-102925000D03*
X268887500Y-102275000D03*
X268887500Y-101625000D03*
X268887500Y-100975000D03*
X268887500Y-100325000D03*
X268887500Y-99675000D03*
X268887500Y-99025000D03*
X268887500Y-98375000D03*
X268887500Y-97725000D03*
X268887500Y-97075000D03*
%TD*%
D11*
%TO.C,U83*%
X253625000Y-98250000D03*
X253625000Y-98900000D03*
X253625000Y-99550000D03*
X255525000Y-99550000D03*
X255525000Y-98900000D03*
X255525000Y-98250000D03*
%TD*%
D10*
%TO.C,R20*%
X210285000Y-97000000D03*
X209265000Y-97000000D03*
%TD*%
%TO.C,R81*%
X559510000Y-97000000D03*
X558490000Y-97000000D03*
%TD*%
D11*
%TO.C,U62*%
X213550000Y-98250000D03*
X213550000Y-98900000D03*
X213550000Y-99550000D03*
X215450000Y-99550000D03*
X215450000Y-98900000D03*
X215450000Y-98250000D03*
%TD*%
%TO.C,U167*%
X413925000Y-98250000D03*
X413925000Y-98900000D03*
X413925000Y-99550000D03*
X415825000Y-99550000D03*
X415825000Y-98900000D03*
X415825000Y-98250000D03*
%TD*%
D10*
%TO.C,R38*%
X313335000Y-97000000D03*
X312315000Y-97000000D03*
%TD*%
D13*
%TO.C,U58*%
X205912500Y-97075000D03*
X205912500Y-97725000D03*
X205912500Y-98375000D03*
X205912500Y-99025000D03*
X205912500Y-99675000D03*
X205912500Y-100325000D03*
X205912500Y-100975000D03*
X205912500Y-101625000D03*
X205912500Y-102275000D03*
X205912500Y-102925000D03*
X211637500Y-102925000D03*
X211637500Y-102275000D03*
X211637500Y-101625000D03*
X211637500Y-100975000D03*
X211637500Y-100325000D03*
X211637500Y-99675000D03*
X211637500Y-99025000D03*
X211637500Y-98375000D03*
X211637500Y-97725000D03*
X211637500Y-97075000D03*
%TD*%
D10*
%TO.C,R9*%
X147310000Y-97000000D03*
X146290000Y-97000000D03*
%TD*%
D11*
%TO.C,U75*%
X236450000Y-101050000D03*
X236450000Y-101700000D03*
X236450000Y-102350000D03*
X238350000Y-102350000D03*
X238350000Y-101700000D03*
X238350000Y-101050000D03*
%TD*%
D10*
%TO.C,R80*%
X553785000Y-97000000D03*
X552765000Y-97000000D03*
%TD*%
D13*
%TO.C,U139*%
X360487500Y-97075000D03*
X360487500Y-97725000D03*
X360487500Y-98375000D03*
X360487500Y-99025000D03*
X360487500Y-99675000D03*
X360487500Y-100325000D03*
X360487500Y-100975000D03*
X360487500Y-101625000D03*
X360487500Y-102275000D03*
X360487500Y-102925000D03*
X366212500Y-102925000D03*
X366212500Y-102275000D03*
X366212500Y-101625000D03*
X366212500Y-100975000D03*
X366212500Y-100325000D03*
X366212500Y-99675000D03*
X366212500Y-99025000D03*
X366212500Y-98375000D03*
X366212500Y-97725000D03*
X366212500Y-97075000D03*
%TD*%
D12*
%TO.C,C26*%
X242605000Y-97000000D03*
X241645000Y-97000000D03*
%TD*%
%TO.C,C75*%
X523130000Y-97000000D03*
X522170000Y-97000000D03*
%TD*%
D13*
%TO.C,U145*%
X371937500Y-97075000D03*
X371937500Y-97725000D03*
X371937500Y-98375000D03*
X371937500Y-99025000D03*
X371937500Y-99675000D03*
X371937500Y-100325000D03*
X371937500Y-100975000D03*
X371937500Y-101625000D03*
X371937500Y-102275000D03*
X371937500Y-102925000D03*
X377662500Y-102925000D03*
X377662500Y-102275000D03*
X377662500Y-101625000D03*
X377662500Y-100975000D03*
X377662500Y-100325000D03*
X377662500Y-99675000D03*
X377662500Y-99025000D03*
X377662500Y-98375000D03*
X377662500Y-97725000D03*
X377662500Y-97075000D03*
%TD*%
%TO.C,U73*%
X234537500Y-97075000D03*
X234537500Y-97725000D03*
X234537500Y-98375000D03*
X234537500Y-99025000D03*
X234537500Y-99675000D03*
X234537500Y-100325000D03*
X234537500Y-100975000D03*
X234537500Y-101625000D03*
X234537500Y-102275000D03*
X234537500Y-102925000D03*
X240262500Y-102925000D03*
X240262500Y-102275000D03*
X240262500Y-101625000D03*
X240262500Y-100975000D03*
X240262500Y-100325000D03*
X240262500Y-99675000D03*
X240262500Y-99025000D03*
X240262500Y-98375000D03*
X240262500Y-97725000D03*
X240262500Y-97075000D03*
%TD*%
D11*
%TO.C,U71*%
X230725000Y-98250000D03*
X230725000Y-98900000D03*
X230725000Y-99550000D03*
X232625000Y-99550000D03*
X232625000Y-98900000D03*
X232625000Y-98250000D03*
%TD*%
%TO.C,U27*%
X144850000Y-101050000D03*
X144850000Y-101700000D03*
X144850000Y-102350000D03*
X146750000Y-102350000D03*
X146750000Y-101700000D03*
X146750000Y-101050000D03*
%TD*%
%TO.C,U237*%
X545600000Y-101050000D03*
X545600000Y-101700000D03*
X545600000Y-102350000D03*
X547500000Y-102350000D03*
X547500000Y-101700000D03*
X547500000Y-101050000D03*
%TD*%
%TO.C,U17*%
X127675000Y-98250000D03*
X127675000Y-98900000D03*
X127675000Y-99550000D03*
X129575000Y-99550000D03*
X129575000Y-98900000D03*
X129575000Y-98250000D03*
%TD*%
D13*
%TO.C,U22*%
X137212500Y-97075000D03*
X137212500Y-97725000D03*
X137212500Y-98375000D03*
X137212500Y-99025000D03*
X137212500Y-99675000D03*
X137212500Y-100325000D03*
X137212500Y-100975000D03*
X137212500Y-101625000D03*
X137212500Y-102275000D03*
X137212500Y-102925000D03*
X142937500Y-102925000D03*
X142937500Y-102275000D03*
X142937500Y-101625000D03*
X142937500Y-100975000D03*
X142937500Y-100325000D03*
X142937500Y-99675000D03*
X142937500Y-99025000D03*
X142937500Y-98375000D03*
X142937500Y-97725000D03*
X142937500Y-97075000D03*
%TD*%
D12*
%TO.C,C42*%
X334205000Y-97000000D03*
X333245000Y-97000000D03*
%TD*%
D13*
%TO.C,U28*%
X148662500Y-97075000D03*
X148662500Y-97725000D03*
X148662500Y-98375000D03*
X148662500Y-99025000D03*
X148662500Y-99675000D03*
X148662500Y-100325000D03*
X148662500Y-100975000D03*
X148662500Y-101625000D03*
X148662500Y-102275000D03*
X148662500Y-102925000D03*
X154387500Y-102925000D03*
X154387500Y-102275000D03*
X154387500Y-101625000D03*
X154387500Y-100975000D03*
X154387500Y-100325000D03*
X154387500Y-99675000D03*
X154387500Y-99025000D03*
X154387500Y-98375000D03*
X154387500Y-97725000D03*
X154387500Y-97075000D03*
%TD*%
D11*
%TO.C,U26*%
X144850000Y-98250000D03*
X144850000Y-98900000D03*
X144850000Y-99550000D03*
X146750000Y-99550000D03*
X146750000Y-98900000D03*
X146750000Y-98250000D03*
%TD*%
D12*
%TO.C,C54*%
X402905000Y-97000000D03*
X401945000Y-97000000D03*
%TD*%
D10*
%TO.C,R39*%
X319060000Y-97000000D03*
X318040000Y-97000000D03*
%TD*%
%TO.C,R30*%
X267535000Y-97000000D03*
X266515000Y-97000000D03*
%TD*%
%TO.C,R31*%
X273260000Y-97000000D03*
X272240000Y-97000000D03*
%TD*%
%TO.C,R26*%
X244635000Y-97000000D03*
X243615000Y-97000000D03*
%TD*%
D11*
%TO.C,U72*%
X230725000Y-101050000D03*
X230725000Y-101700000D03*
X230725000Y-102350000D03*
X232625000Y-102350000D03*
X232625000Y-101700000D03*
X232625000Y-101050000D03*
%TD*%
D12*
%TO.C,C23*%
X225430000Y-97000000D03*
X224470000Y-97000000D03*
%TD*%
D11*
%TO.C,U65*%
X219275000Y-98250000D03*
X219275000Y-98900000D03*
X219275000Y-99550000D03*
X221175000Y-99550000D03*
X221175000Y-98900000D03*
X221175000Y-98250000D03*
%TD*%
%TO.C,U203*%
X482625000Y-98250000D03*
X482625000Y-98900000D03*
X482625000Y-99550000D03*
X484525000Y-99550000D03*
X484525000Y-98900000D03*
X484525000Y-98250000D03*
%TD*%
D13*
%TO.C,U160*%
X400562500Y-97075000D03*
X400562500Y-97725000D03*
X400562500Y-98375000D03*
X400562500Y-99025000D03*
X400562500Y-99675000D03*
X400562500Y-100325000D03*
X400562500Y-100975000D03*
X400562500Y-101625000D03*
X400562500Y-102275000D03*
X400562500Y-102925000D03*
X406287500Y-102925000D03*
X406287500Y-102275000D03*
X406287500Y-101625000D03*
X406287500Y-100975000D03*
X406287500Y-100325000D03*
X406287500Y-99675000D03*
X406287500Y-99025000D03*
X406287500Y-98375000D03*
X406287500Y-97725000D03*
X406287500Y-97075000D03*
%TD*%
D10*
%TO.C,R73*%
X513710000Y-97000000D03*
X512690000Y-97000000D03*
%TD*%
D12*
%TO.C,C3*%
X110930000Y-97000000D03*
X109970000Y-97000000D03*
%TD*%
D11*
%TO.C,U23*%
X139125000Y-98250000D03*
X139125000Y-98900000D03*
X139125000Y-99550000D03*
X141025000Y-99550000D03*
X141025000Y-98900000D03*
X141025000Y-98250000D03*
%TD*%
D13*
%TO.C,U235*%
X543687500Y-97075000D03*
X543687500Y-97725000D03*
X543687500Y-98375000D03*
X543687500Y-99025000D03*
X543687500Y-99675000D03*
X543687500Y-100325000D03*
X543687500Y-100975000D03*
X543687500Y-101625000D03*
X543687500Y-102275000D03*
X543687500Y-102925000D03*
X549412500Y-102925000D03*
X549412500Y-102275000D03*
X549412500Y-101625000D03*
X549412500Y-100975000D03*
X549412500Y-100325000D03*
X549412500Y-99675000D03*
X549412500Y-99025000D03*
X549412500Y-98375000D03*
X549412500Y-97725000D03*
X549412500Y-97075000D03*
%TD*%
D11*
%TO.C,U216*%
X505525000Y-101050000D03*
X505525000Y-101700000D03*
X505525000Y-102350000D03*
X507425000Y-102350000D03*
X507425000Y-101700000D03*
X507425000Y-101050000D03*
%TD*%
D10*
%TO.C,R77*%
X536610000Y-97000000D03*
X535590000Y-97000000D03*
%TD*%
D12*
%TO.C,C6*%
X128105000Y-97000000D03*
X127145000Y-97000000D03*
%TD*%
D13*
%TO.C,U7*%
X108587500Y-97075000D03*
X108587500Y-97725000D03*
X108587500Y-98375000D03*
X108587500Y-99025000D03*
X108587500Y-99675000D03*
X108587500Y-100325000D03*
X108587500Y-100975000D03*
X108587500Y-101625000D03*
X108587500Y-102275000D03*
X108587500Y-102925000D03*
X114312500Y-102925000D03*
X114312500Y-102275000D03*
X114312500Y-101625000D03*
X114312500Y-100975000D03*
X114312500Y-100325000D03*
X114312500Y-99675000D03*
X114312500Y-99025000D03*
X114312500Y-98375000D03*
X114312500Y-97725000D03*
X114312500Y-97075000D03*
%TD*%
D11*
%TO.C,U147*%
X373850000Y-101050000D03*
X373850000Y-101700000D03*
X373850000Y-102350000D03*
X375750000Y-102350000D03*
X375750000Y-101700000D03*
X375750000Y-101050000D03*
%TD*%
%TO.C,U204*%
X482625000Y-101050000D03*
X482625000Y-101700000D03*
X482625000Y-102350000D03*
X484525000Y-102350000D03*
X484525000Y-101700000D03*
X484525000Y-101050000D03*
%TD*%
%TO.C,U128*%
X339500000Y-98250000D03*
X339500000Y-98900000D03*
X339500000Y-99550000D03*
X341400000Y-99550000D03*
X341400000Y-98900000D03*
X341400000Y-98250000D03*
%TD*%
%TO.C,U42*%
X173475000Y-101050000D03*
X173475000Y-101700000D03*
X173475000Y-102350000D03*
X175375000Y-102350000D03*
X175375000Y-101700000D03*
X175375000Y-101050000D03*
%TD*%
D12*
%TO.C,C67*%
X477330000Y-97000000D03*
X476370000Y-97000000D03*
%TD*%
D13*
%TO.C,U166*%
X412012500Y-97075000D03*
X412012500Y-97725000D03*
X412012500Y-98375000D03*
X412012500Y-99025000D03*
X412012500Y-99675000D03*
X412012500Y-100325000D03*
X412012500Y-100975000D03*
X412012500Y-101625000D03*
X412012500Y-102275000D03*
X412012500Y-102925000D03*
X417737500Y-102925000D03*
X417737500Y-102275000D03*
X417737500Y-101625000D03*
X417737500Y-100975000D03*
X417737500Y-100325000D03*
X417737500Y-99675000D03*
X417737500Y-99025000D03*
X417737500Y-98375000D03*
X417737500Y-97725000D03*
X417737500Y-97075000D03*
%TD*%
D11*
%TO.C,U74*%
X236450000Y-98250000D03*
X236450000Y-98900000D03*
X236450000Y-99550000D03*
X238350000Y-99550000D03*
X238350000Y-98900000D03*
X238350000Y-98250000D03*
%TD*%
D12*
%TO.C,C72*%
X505955000Y-97000000D03*
X504995000Y-97000000D03*
%TD*%
D13*
%TO.C,U184*%
X446362500Y-97075000D03*
X446362500Y-97725000D03*
X446362500Y-98375000D03*
X446362500Y-99025000D03*
X446362500Y-99675000D03*
X446362500Y-100325000D03*
X446362500Y-100975000D03*
X446362500Y-101625000D03*
X446362500Y-102275000D03*
X446362500Y-102925000D03*
X452087500Y-102925000D03*
X452087500Y-102275000D03*
X452087500Y-101625000D03*
X452087500Y-100975000D03*
X452087500Y-100325000D03*
X452087500Y-99675000D03*
X452087500Y-99025000D03*
X452087500Y-98375000D03*
X452087500Y-97725000D03*
X452087500Y-97075000D03*
%TD*%
D12*
%TO.C,C80*%
X551755000Y-97000000D03*
X550795000Y-97000000D03*
%TD*%
D11*
%TO.C,U165*%
X408200000Y-101050000D03*
X408200000Y-101700000D03*
X408200000Y-102350000D03*
X410100000Y-102350000D03*
X410100000Y-101700000D03*
X410100000Y-101050000D03*
%TD*%
%TO.C,U152*%
X385300000Y-98250000D03*
X385300000Y-98900000D03*
X385300000Y-99550000D03*
X387200000Y-99550000D03*
X387200000Y-98900000D03*
X387200000Y-98250000D03*
%TD*%
%TO.C,U191*%
X459725000Y-98250000D03*
X459725000Y-98900000D03*
X459725000Y-99550000D03*
X461625000Y-99550000D03*
X461625000Y-98900000D03*
X461625000Y-98250000D03*
%TD*%
%TO.C,U15*%
X121950000Y-101050000D03*
X121950000Y-101700000D03*
X121950000Y-102350000D03*
X123850000Y-102350000D03*
X123850000Y-101700000D03*
X123850000Y-101050000D03*
%TD*%
%TO.C,U194*%
X465450000Y-98250000D03*
X465450000Y-98900000D03*
X465450000Y-99550000D03*
X467350000Y-99550000D03*
X467350000Y-98900000D03*
X467350000Y-98250000D03*
%TD*%
%TO.C,U24*%
X139125000Y-101050000D03*
X139125000Y-101700000D03*
X139125000Y-102350000D03*
X141025000Y-102350000D03*
X141025000Y-101700000D03*
X141025000Y-101050000D03*
%TD*%
%TO.C,U186*%
X448275000Y-101050000D03*
X448275000Y-101700000D03*
X448275000Y-102350000D03*
X450175000Y-102350000D03*
X450175000Y-101700000D03*
X450175000Y-101050000D03*
%TD*%
%TO.C,U36*%
X162025000Y-101050000D03*
X162025000Y-101700000D03*
X162025000Y-102350000D03*
X163925000Y-102350000D03*
X163925000Y-101700000D03*
X163925000Y-101050000D03*
%TD*%
D13*
%TO.C,U169*%
X417737500Y-97075000D03*
X417737500Y-97725000D03*
X417737500Y-98375000D03*
X417737500Y-99025000D03*
X417737500Y-99675000D03*
X417737500Y-100325000D03*
X417737500Y-100975000D03*
X417737500Y-101625000D03*
X417737500Y-102275000D03*
X417737500Y-102925000D03*
X423462500Y-102925000D03*
X423462500Y-102275000D03*
X423462500Y-101625000D03*
X423462500Y-100975000D03*
X423462500Y-100325000D03*
X423462500Y-99675000D03*
X423462500Y-99025000D03*
X423462500Y-98375000D03*
X423462500Y-97725000D03*
X423462500Y-97075000D03*
%TD*%
D11*
%TO.C,U47*%
X184925000Y-98250000D03*
X184925000Y-98900000D03*
X184925000Y-99550000D03*
X186825000Y-99550000D03*
X186825000Y-98900000D03*
X186825000Y-98250000D03*
%TD*%
%TO.C,U177*%
X431100000Y-101050000D03*
X431100000Y-101700000D03*
X431100000Y-102350000D03*
X433000000Y-102350000D03*
X433000000Y-101700000D03*
X433000000Y-101050000D03*
%TD*%
D13*
%TO.C,U85*%
X257437500Y-97075000D03*
X257437500Y-97725000D03*
X257437500Y-98375000D03*
X257437500Y-99025000D03*
X257437500Y-99675000D03*
X257437500Y-100325000D03*
X257437500Y-100975000D03*
X257437500Y-101625000D03*
X257437500Y-102275000D03*
X257437500Y-102925000D03*
X263162500Y-102925000D03*
X263162500Y-102275000D03*
X263162500Y-101625000D03*
X263162500Y-100975000D03*
X263162500Y-100325000D03*
X263162500Y-99675000D03*
X263162500Y-99025000D03*
X263162500Y-98375000D03*
X263162500Y-97725000D03*
X263162500Y-97075000D03*
%TD*%
D12*
%TO.C,C74*%
X517405000Y-97000000D03*
X516445000Y-97000000D03*
%TD*%
%TO.C,C81*%
X557480000Y-97000000D03*
X556520000Y-97000000D03*
%TD*%
D11*
%TO.C,U12*%
X116225000Y-101050000D03*
X116225000Y-101700000D03*
X116225000Y-102350000D03*
X118125000Y-102350000D03*
X118125000Y-101700000D03*
X118125000Y-101050000D03*
%TD*%
%TO.C,U60*%
X207825000Y-101050000D03*
X207825000Y-101700000D03*
X207825000Y-102350000D03*
X209725000Y-102350000D03*
X209725000Y-101700000D03*
X209725000Y-101050000D03*
%TD*%
%TO.C,U96*%
X276525000Y-101050000D03*
X276525000Y-101700000D03*
X276525000Y-102350000D03*
X278425000Y-102350000D03*
X278425000Y-101700000D03*
X278425000Y-101050000D03*
%TD*%
%TO.C,U164*%
X408200000Y-98250000D03*
X408200000Y-98900000D03*
X408200000Y-99550000D03*
X410100000Y-99550000D03*
X410100000Y-98900000D03*
X410100000Y-98250000D03*
%TD*%
D13*
%TO.C,U94*%
X274612500Y-97075000D03*
X274612500Y-97725000D03*
X274612500Y-98375000D03*
X274612500Y-99025000D03*
X274612500Y-99675000D03*
X274612500Y-100325000D03*
X274612500Y-100975000D03*
X274612500Y-101625000D03*
X274612500Y-102275000D03*
X274612500Y-102925000D03*
X280337500Y-102925000D03*
X280337500Y-102275000D03*
X280337500Y-101625000D03*
X280337500Y-100975000D03*
X280337500Y-100325000D03*
X280337500Y-99675000D03*
X280337500Y-99025000D03*
X280337500Y-98375000D03*
X280337500Y-97725000D03*
X280337500Y-97075000D03*
%TD*%
D10*
%TO.C,R53*%
X399210000Y-97000000D03*
X398190000Y-97000000D03*
%TD*%
D11*
%TO.C,U239*%
X551325000Y-98250000D03*
X551325000Y-98900000D03*
X551325000Y-99550000D03*
X553225000Y-99550000D03*
X553225000Y-98900000D03*
X553225000Y-98250000D03*
%TD*%
D12*
%TO.C,C43*%
X339930000Y-97000000D03*
X338970000Y-97000000D03*
%TD*%
D13*
%TO.C,U1*%
X97137500Y-97075000D03*
X97137500Y-97725000D03*
X97137500Y-98375000D03*
X97137500Y-99025000D03*
X97137500Y-99675000D03*
X97137500Y-100325000D03*
X97137500Y-100975000D03*
X97137500Y-101625000D03*
X97137500Y-102275000D03*
X97137500Y-102925000D03*
X102862500Y-102925000D03*
X102862500Y-102275000D03*
X102862500Y-101625000D03*
X102862500Y-100975000D03*
X102862500Y-100325000D03*
X102862500Y-99675000D03*
X102862500Y-99025000D03*
X102862500Y-98375000D03*
X102862500Y-97725000D03*
X102862500Y-97075000D03*
%TD*%
D11*
%TO.C,U183*%
X442550000Y-101050000D03*
X442550000Y-101700000D03*
X442550000Y-102350000D03*
X444450000Y-102350000D03*
X444450000Y-101700000D03*
X444450000Y-101050000D03*
%TD*%
D10*
%TO.C,R48*%
X370585000Y-97000000D03*
X369565000Y-97000000D03*
%TD*%
D12*
%TO.C,C62*%
X448705000Y-97000000D03*
X447745000Y-97000000D03*
%TD*%
%TO.C,C38*%
X311305000Y-97000000D03*
X310345000Y-97000000D03*
%TD*%
D11*
%TO.C,U158*%
X396750000Y-98250000D03*
X396750000Y-98900000D03*
X396750000Y-99550000D03*
X398650000Y-99550000D03*
X398650000Y-98900000D03*
X398650000Y-98250000D03*
%TD*%
%TO.C,U233*%
X539875000Y-98250000D03*
X539875000Y-98900000D03*
X539875000Y-99550000D03*
X541775000Y-99550000D03*
X541775000Y-98900000D03*
X541775000Y-98250000D03*
%TD*%
D10*
%TO.C,R59*%
X433560000Y-97000000D03*
X432540000Y-97000000D03*
%TD*%
D12*
%TO.C,C59*%
X431530000Y-97000000D03*
X430570000Y-97000000D03*
%TD*%
%TO.C,C36*%
X299855000Y-97000000D03*
X298895000Y-97000000D03*
%TD*%
D13*
%TO.C,U241*%
X555137500Y-97075000D03*
X555137500Y-97725000D03*
X555137500Y-98375000D03*
X555137500Y-99025000D03*
X555137500Y-99675000D03*
X555137500Y-100325000D03*
X555137500Y-100975000D03*
X555137500Y-101625000D03*
X555137500Y-102275000D03*
X555137500Y-102925000D03*
X560862500Y-102925000D03*
X560862500Y-102275000D03*
X560862500Y-101625000D03*
X560862500Y-100975000D03*
X560862500Y-100325000D03*
X560862500Y-99675000D03*
X560862500Y-99025000D03*
X560862500Y-98375000D03*
X560862500Y-97725000D03*
X560862500Y-97075000D03*
%TD*%
D10*
%TO.C,R46*%
X359135000Y-97000000D03*
X358115000Y-97000000D03*
%TD*%
D13*
%TO.C,U13*%
X120037500Y-97075000D03*
X120037500Y-97725000D03*
X120037500Y-98375000D03*
X120037500Y-99025000D03*
X120037500Y-99675000D03*
X120037500Y-100325000D03*
X120037500Y-100975000D03*
X120037500Y-101625000D03*
X120037500Y-102275000D03*
X120037500Y-102925000D03*
X125762500Y-102925000D03*
X125762500Y-102275000D03*
X125762500Y-101625000D03*
X125762500Y-100975000D03*
X125762500Y-100325000D03*
X125762500Y-99675000D03*
X125762500Y-99025000D03*
X125762500Y-98375000D03*
X125762500Y-97725000D03*
X125762500Y-97075000D03*
%TD*%
%TO.C,U238*%
X549412500Y-97075000D03*
X549412500Y-97725000D03*
X549412500Y-98375000D03*
X549412500Y-99025000D03*
X549412500Y-99675000D03*
X549412500Y-100325000D03*
X549412500Y-100975000D03*
X549412500Y-101625000D03*
X549412500Y-102275000D03*
X549412500Y-102925000D03*
X555137500Y-102925000D03*
X555137500Y-102275000D03*
X555137500Y-101625000D03*
X555137500Y-100975000D03*
X555137500Y-100325000D03*
X555137500Y-99675000D03*
X555137500Y-99025000D03*
X555137500Y-98375000D03*
X555137500Y-97725000D03*
X555137500Y-97075000D03*
%TD*%
D12*
%TO.C,C31*%
X271230000Y-97000000D03*
X270270000Y-97000000D03*
%TD*%
D11*
%TO.C,U207*%
X488350000Y-101050000D03*
X488350000Y-101700000D03*
X488350000Y-102350000D03*
X490250000Y-102350000D03*
X490250000Y-101700000D03*
X490250000Y-101050000D03*
%TD*%
%TO.C,U218*%
X511250000Y-98250000D03*
X511250000Y-98900000D03*
X511250000Y-99550000D03*
X513150000Y-99550000D03*
X513150000Y-98900000D03*
X513150000Y-98250000D03*
%TD*%
%TO.C,U180*%
X436825000Y-101050000D03*
X436825000Y-101700000D03*
X436825000Y-102350000D03*
X438725000Y-102350000D03*
X438725000Y-101700000D03*
X438725000Y-101050000D03*
%TD*%
D10*
%TO.C,R57*%
X422110000Y-97000000D03*
X421090000Y-97000000D03*
%TD*%
D12*
%TO.C,C73*%
X511680000Y-97000000D03*
X510720000Y-97000000D03*
%TD*%
D11*
%TO.C,U222*%
X516975000Y-101050000D03*
X516975000Y-101700000D03*
X516975000Y-102350000D03*
X518875000Y-102350000D03*
X518875000Y-101700000D03*
X518875000Y-101050000D03*
%TD*%
D10*
%TO.C,R78*%
X542335000Y-97000000D03*
X541315000Y-97000000D03*
%TD*%
D11*
%TO.C,U113*%
X310875000Y-98250000D03*
X310875000Y-98900000D03*
X310875000Y-99550000D03*
X312775000Y-99550000D03*
X312775000Y-98900000D03*
X312775000Y-98250000D03*
%TD*%
%TO.C,U185*%
X448275000Y-98250000D03*
X448275000Y-98900000D03*
X448275000Y-99550000D03*
X450175000Y-99550000D03*
X450175000Y-98900000D03*
X450175000Y-98250000D03*
%TD*%
D13*
%TO.C,U151*%
X383387500Y-97075000D03*
X383387500Y-97725000D03*
X383387500Y-98375000D03*
X383387500Y-99025000D03*
X383387500Y-99675000D03*
X383387500Y-100325000D03*
X383387500Y-100975000D03*
X383387500Y-101625000D03*
X383387500Y-102275000D03*
X383387500Y-102925000D03*
X389112500Y-102925000D03*
X389112500Y-102275000D03*
X389112500Y-101625000D03*
X389112500Y-100975000D03*
X389112500Y-100325000D03*
X389112500Y-99675000D03*
X389112500Y-99025000D03*
X389112500Y-98375000D03*
X389112500Y-97725000D03*
X389112500Y-97075000D03*
%TD*%
D11*
%TO.C,U173*%
X425375000Y-98250000D03*
X425375000Y-98900000D03*
X425375000Y-99550000D03*
X427275000Y-99550000D03*
X427275000Y-98900000D03*
X427275000Y-98250000D03*
%TD*%
D10*
%TO.C,R13*%
X170210000Y-97000000D03*
X169190000Y-97000000D03*
%TD*%
%TO.C,R36*%
X301885000Y-97000000D03*
X300865000Y-97000000D03*
%TD*%
D12*
%TO.C,C10*%
X151005000Y-97000000D03*
X150045000Y-97000000D03*
%TD*%
%TO.C,C69*%
X488780000Y-97000000D03*
X487820000Y-97000000D03*
%TD*%
D10*
%TO.C,R49*%
X376310000Y-97000000D03*
X375290000Y-97000000D03*
%TD*%
D11*
%TO.C,U8*%
X110500000Y-98250000D03*
X110500000Y-98900000D03*
X110500000Y-99550000D03*
X112400000Y-99550000D03*
X112400000Y-98900000D03*
X112400000Y-98250000D03*
%TD*%
D12*
%TO.C,C71*%
X500230000Y-97000000D03*
X499270000Y-97000000D03*
%TD*%
D13*
%TO.C,U211*%
X497887500Y-97075000D03*
X497887500Y-97725000D03*
X497887500Y-98375000D03*
X497887500Y-99025000D03*
X497887500Y-99675000D03*
X497887500Y-100325000D03*
X497887500Y-100975000D03*
X497887500Y-101625000D03*
X497887500Y-102275000D03*
X497887500Y-102925000D03*
X503612500Y-102925000D03*
X503612500Y-102275000D03*
X503612500Y-101625000D03*
X503612500Y-100975000D03*
X503612500Y-100325000D03*
X503612500Y-99675000D03*
X503612500Y-99025000D03*
X503612500Y-98375000D03*
X503612500Y-97725000D03*
X503612500Y-97075000D03*
%TD*%
D11*
%TO.C,U168*%
X413925000Y-101050000D03*
X413925000Y-101700000D03*
X413925000Y-102350000D03*
X415825000Y-102350000D03*
X415825000Y-101700000D03*
X415825000Y-101050000D03*
%TD*%
%TO.C,U228*%
X528425000Y-101050000D03*
X528425000Y-101700000D03*
X528425000Y-102350000D03*
X530325000Y-102350000D03*
X530325000Y-101700000D03*
X530325000Y-101050000D03*
%TD*%
D10*
%TO.C,R27*%
X250360000Y-97000000D03*
X249340000Y-97000000D03*
%TD*%
M02*
