%TF.GenerationSoftware,KiCad,Pcbnew,7.0.1*%
%TF.CreationDate,2023-03-19T19:35:55+01:00*%
%TF.ProjectId,hc245t-bypass-esd-panel,68633234-3574-42d6-9279-706173732d65,${revision}*%
%TF.SameCoordinates,Original*%
%TF.FileFunction,Legend,Top*%
%TF.FilePolarity,Positive*%
%FSLAX46Y46*%
G04 Gerber Fmt 4.6, Leading zero omitted, Abs format (unit mm)*
G04 Created by KiCad (PCBNEW 7.0.1) date 2023-03-19 19:35:55*
%MOMM*%
%LPD*%
G01*
G04 APERTURE LIST*
G04 Aperture macros list*
%AMRoundRect*
0 Rectangle with rounded corners*
0 $1 Rounding radius*
0 $2 $3 $4 $5 $6 $7 $8 $9 X,Y pos of 4 corners*
0 Add a 4 corners polygon primitive as box body*
4,1,4,$2,$3,$4,$5,$6,$7,$8,$9,$2,$3,0*
0 Add four circle primitives for the rounded corners*
1,1,$1+$1,$2,$3*
1,1,$1+$1,$4,$5*
1,1,$1+$1,$6,$7*
1,1,$1+$1,$8,$9*
0 Add four rect primitives between the rounded corners*
20,1,$1+$1,$2,$3,$4,$5,0*
20,1,$1+$1,$4,$5,$6,$7,0*
20,1,$1+$1,$6,$7,$8,$9,0*
20,1,$1+$1,$8,$9,$2,$3,0*%
G04 Aperture macros list end*
%ADD10C,0.120000*%
%ADD11C,0.325000*%
%ADD12RoundRect,0.140000X0.140000X0.170000X-0.140000X0.170000X-0.140000X-0.170000X0.140000X-0.170000X0*%
%ADD13RoundRect,0.135000X0.135000X0.185000X-0.135000X0.185000X-0.135000X-0.185000X0.135000X-0.185000X0*%
%ADD14R,0.650000X0.400000*%
%ADD15RoundRect,0.100000X-0.637500X-0.100000X0.637500X-0.100000X0.637500X0.100000X-0.637500X0.100000X0*%
G04 APERTURE END LIST*
D10*
X120000000Y-97500000D02*
X120000000Y-98500000D01*
X121500000Y-90000000D02*
X122500000Y-90000000D01*
X91500000Y-100000000D02*
X92500000Y-100000000D01*
X110000000Y-107500000D02*
X110000000Y-108500000D01*
X127500000Y-90000000D02*
X128499999Y-90000000D01*
X91500000Y-90000000D02*
X92500000Y-90000000D01*
X97500000Y-100000000D02*
X98499999Y-100000000D01*
X100000000Y-97500000D02*
X100000000Y-98500000D01*
X115500000Y-90000000D02*
X116500000Y-90000000D01*
X137500000Y-90000000D02*
X138499999Y-90000000D01*
X130000000Y-91500000D02*
X130000000Y-92500000D01*
X100000000Y-95500000D02*
X100000000Y-96500000D01*
X103500001Y-100000000D02*
X104500000Y-100000000D01*
X130000000Y-81500000D02*
X130000000Y-82500000D01*
X110000000Y-81500000D02*
X110000000Y-82500000D01*
D11*
X123412500Y-82750000D02*
G75*
G03*
X123412500Y-82750000I-162500J0D01*
G01*
D10*
X110000000Y-87500000D02*
X110000000Y-88500000D01*
X130000000Y-93500000D02*
X130000000Y-94500000D01*
X120000000Y-83500000D02*
X120000000Y-84500000D01*
X120000000Y-105500000D02*
X120000000Y-106500000D01*
X137500000Y-100000000D02*
X138499999Y-100000000D01*
X133500001Y-100000000D02*
X134500000Y-100000000D01*
X100000000Y-90500000D02*
X100000000Y-89500000D01*
X120000000Y-81500000D02*
X120000000Y-82500000D01*
X107500000Y-100000000D02*
X108499999Y-100000000D01*
X130000000Y-90500000D02*
X130000000Y-89500000D01*
X123500001Y-100000000D02*
X124500000Y-100000000D01*
X117500000Y-100000000D02*
X118499999Y-100000000D01*
X95500000Y-90000000D02*
X96500000Y-90000000D01*
X111500000Y-100000000D02*
X112500000Y-100000000D01*
X100000000Y-93500000D02*
X100000000Y-94500000D01*
X109500000Y-90000000D02*
X110500000Y-90000000D01*
D11*
X93412500Y-92750000D02*
G75*
G03*
X93412500Y-92750000I-162500J0D01*
G01*
X123412500Y-92750000D02*
G75*
G03*
X123412500Y-92750000I-162500J0D01*
G01*
D10*
X129500000Y-90000000D02*
X130500000Y-90000000D01*
D11*
X103412500Y-102750000D02*
G75*
G03*
X103412500Y-102750000I-162500J0D01*
G01*
D10*
X110000000Y-105500000D02*
X110000000Y-106500000D01*
X110000000Y-90500000D02*
X110000000Y-89500000D01*
X100000000Y-107500000D02*
X100000000Y-108500000D01*
X110000000Y-100500000D02*
X110000000Y-99500000D01*
X109500000Y-100000000D02*
X110500000Y-100000000D01*
X113500001Y-100000000D02*
X114500000Y-100000000D01*
X120000000Y-91500000D02*
X120000000Y-92500000D01*
D11*
X103412500Y-92750000D02*
G75*
G03*
X103412500Y-92750000I-162500J0D01*
G01*
D10*
X93500001Y-90000000D02*
X94500000Y-90000000D01*
X100000000Y-85500000D02*
X100000000Y-86500000D01*
X131500000Y-100000000D02*
X132500000Y-100000000D01*
X107500000Y-90000000D02*
X108499999Y-90000000D01*
X120000000Y-107500000D02*
X120000000Y-108500000D01*
X117500000Y-90000000D02*
X118499999Y-90000000D01*
X120000000Y-87500000D02*
X120000000Y-88500000D01*
X110000000Y-95500000D02*
X110000000Y-96500000D01*
X100000000Y-100500000D02*
X100000000Y-99500000D01*
D11*
X133412500Y-92750000D02*
G75*
G03*
X133412500Y-92750000I-162500J0D01*
G01*
X133412500Y-82750000D02*
G75*
G03*
X133412500Y-82750000I-162500J0D01*
G01*
D10*
X119500000Y-90000000D02*
X120500000Y-90000000D01*
X97500000Y-90000000D02*
X98499999Y-90000000D01*
X127500000Y-100000000D02*
X128499999Y-100000000D01*
D11*
X113412500Y-102750000D02*
G75*
G03*
X113412500Y-102750000I-162500J0D01*
G01*
D10*
X95500000Y-100000000D02*
X96500000Y-100000000D01*
X120000000Y-101500000D02*
X120000000Y-102500000D01*
X101500000Y-90000000D02*
X102500000Y-90000000D01*
X110000000Y-103500000D02*
X110000000Y-104500000D01*
X100000000Y-81500000D02*
X100000000Y-82500000D01*
D11*
X93412500Y-102750000D02*
G75*
G03*
X93412500Y-102750000I-162500J0D01*
G01*
D10*
X120000000Y-93500000D02*
X120000000Y-94500000D01*
X113500001Y-90000000D02*
X114500000Y-90000000D01*
D11*
X113412500Y-82750000D02*
G75*
G03*
X113412500Y-82750000I-162500J0D01*
G01*
D10*
X120000000Y-103500000D02*
X120000000Y-104500000D01*
X103500001Y-90000000D02*
X104500000Y-90000000D01*
X100000000Y-101500000D02*
X100000000Y-102500000D01*
X111500000Y-90000000D02*
X112500000Y-90000000D01*
X131500000Y-90000000D02*
X132500000Y-90000000D01*
X130000000Y-87500000D02*
X130000000Y-88500000D01*
X129500000Y-100000000D02*
X130500000Y-100000000D01*
X125500000Y-100000000D02*
X126500000Y-100000000D01*
X135500000Y-90000000D02*
X136500000Y-90000000D01*
X135500000Y-100000000D02*
X136500000Y-100000000D01*
X105500000Y-100000000D02*
X106500000Y-100000000D01*
X123500001Y-90000000D02*
X124500000Y-90000000D01*
X120000000Y-90500000D02*
X120000000Y-89500000D01*
X130000000Y-83500000D02*
X130000000Y-84500000D01*
X99500000Y-90000000D02*
X100500000Y-90000000D01*
X125500000Y-90000000D02*
X126500000Y-90000000D01*
X100000000Y-103500000D02*
X100000000Y-104500000D01*
D11*
X103412500Y-82750000D02*
G75*
G03*
X103412500Y-82750000I-162500J0D01*
G01*
D10*
X100000000Y-91500000D02*
X100000000Y-92500000D01*
X110000000Y-101500000D02*
X110000000Y-102500000D01*
X130000000Y-85500000D02*
X130000000Y-86500000D01*
X130000000Y-101500000D02*
X130000000Y-102500000D01*
X133500001Y-90000000D02*
X134500000Y-90000000D01*
X130000000Y-105500000D02*
X130000000Y-106500000D01*
X120000000Y-100500000D02*
X120000000Y-99500000D01*
X130000000Y-107500000D02*
X130000000Y-108500000D01*
D11*
X113412500Y-92750000D02*
G75*
G03*
X113412500Y-92750000I-162500J0D01*
G01*
X93412500Y-82750000D02*
G75*
G03*
X93412500Y-82750000I-162500J0D01*
G01*
D10*
X100000000Y-87500000D02*
X100000000Y-88500000D01*
X93500001Y-100000000D02*
X94500000Y-100000000D01*
X115500000Y-100000000D02*
X116500000Y-100000000D01*
X101500000Y-100000000D02*
X102500000Y-100000000D01*
X130000000Y-97500000D02*
X130000000Y-98500000D01*
X110000000Y-97500000D02*
X110000000Y-98500000D01*
X130000000Y-95500000D02*
X130000000Y-96500000D01*
X100000000Y-105500000D02*
X100000000Y-106500000D01*
X130000000Y-100500000D02*
X130000000Y-99500000D01*
X120000000Y-85500000D02*
X120000000Y-86500000D01*
X119500000Y-100000000D02*
X120500000Y-100000000D01*
X120000000Y-95500000D02*
X120000000Y-96500000D01*
D11*
X133412500Y-102750000D02*
G75*
G03*
X133412500Y-102750000I-162500J0D01*
G01*
D10*
X121500000Y-100000000D02*
X122500000Y-100000000D01*
X110000000Y-91500000D02*
X110000000Y-92500000D01*
X130000000Y-103500000D02*
X130000000Y-104500000D01*
X110000000Y-93500000D02*
X110000000Y-94500000D01*
X100000000Y-83500000D02*
X100000000Y-84500000D01*
X105500000Y-90000000D02*
X106500000Y-90000000D01*
X99500000Y-100000000D02*
X100500000Y-100000000D01*
X110000000Y-85500000D02*
X110000000Y-86500000D01*
X110000000Y-83500000D02*
X110000000Y-84500000D01*
D11*
X123412500Y-102750000D02*
G75*
G03*
X123412500Y-102750000I-162500J0D01*
G01*
D10*
%TO.C,C1*%
X124107836Y-92360000D02*
X123892164Y-92360000D01*
X124107836Y-91640000D02*
X123892164Y-91640000D01*
%TO.C,R1*%
X136153641Y-92380000D02*
X135846359Y-92380000D01*
X136153641Y-91620000D02*
X135846359Y-91620000D01*
%TO.C,C1*%
X114107836Y-92360000D02*
X113892164Y-92360000D01*
X114107836Y-91640000D02*
X113892164Y-91640000D01*
X134107836Y-82360000D02*
X133892164Y-82360000D01*
X134107836Y-81640000D02*
X133892164Y-81640000D01*
%TO.C,U3*%
X95700000Y-105540000D02*
X93800000Y-105540000D01*
X94300000Y-107860000D02*
X95700000Y-107860000D01*
%TO.C,R1*%
X96153641Y-101620000D02*
X95846359Y-101620000D01*
X96153641Y-102380000D02*
X95846359Y-102380000D01*
X116153641Y-81620000D02*
X115846359Y-81620000D01*
X116153641Y-82380000D02*
X115846359Y-82380000D01*
%TO.C,U1*%
X105000000Y-88385000D02*
X102800000Y-88385000D01*
X105000000Y-88385000D02*
X107200000Y-88385000D01*
X105000000Y-81615000D02*
X107200000Y-81615000D01*
X105000000Y-81615000D02*
X101400000Y-81615000D01*
%TO.C,R1*%
X136153641Y-101620000D02*
X135846359Y-101620000D01*
X136153641Y-102380000D02*
X135846359Y-102380000D01*
%TO.C,U1*%
X105000000Y-101615000D02*
X107200000Y-101615000D01*
X105000000Y-108385000D02*
X107200000Y-108385000D01*
X105000000Y-101615000D02*
X101400000Y-101615000D01*
X105000000Y-108385000D02*
X102800000Y-108385000D01*
X125000000Y-81615000D02*
X121400000Y-81615000D01*
X125000000Y-81615000D02*
X127200000Y-81615000D01*
X125000000Y-88385000D02*
X127200000Y-88385000D01*
X125000000Y-88385000D02*
X122800000Y-88385000D01*
%TO.C,U3*%
X94300000Y-87860000D02*
X95700000Y-87860000D01*
X95700000Y-85540000D02*
X93800000Y-85540000D01*
%TO.C,C1*%
X104107836Y-91640000D02*
X103892164Y-91640000D01*
X104107836Y-92360000D02*
X103892164Y-92360000D01*
X124107836Y-82360000D02*
X123892164Y-82360000D01*
X124107836Y-81640000D02*
X123892164Y-81640000D01*
%TO.C,U3*%
X105700000Y-105540000D02*
X103800000Y-105540000D01*
X104300000Y-107860000D02*
X105700000Y-107860000D01*
%TO.C,R1*%
X96153641Y-81620000D02*
X95846359Y-81620000D01*
X96153641Y-82380000D02*
X95846359Y-82380000D01*
%TO.C,U1*%
X95000000Y-81615000D02*
X97200000Y-81615000D01*
X95000000Y-88385000D02*
X97200000Y-88385000D01*
X95000000Y-88385000D02*
X92800000Y-88385000D01*
X95000000Y-81615000D02*
X91400000Y-81615000D01*
%TO.C,U2*%
X125700000Y-82740000D02*
X123800000Y-82740000D01*
X124300000Y-85060000D02*
X125700000Y-85060000D01*
%TO.C,C1*%
X114107836Y-81640000D02*
X113892164Y-81640000D01*
X114107836Y-82360000D02*
X113892164Y-82360000D01*
%TO.C,U2*%
X115700000Y-92740000D02*
X113800000Y-92740000D01*
X114300000Y-95060000D02*
X115700000Y-95060000D01*
%TO.C,U3*%
X105700000Y-95540000D02*
X103800000Y-95540000D01*
X104300000Y-97860000D02*
X105700000Y-97860000D01*
X124300000Y-107860000D02*
X125700000Y-107860000D01*
X125700000Y-105540000D02*
X123800000Y-105540000D01*
%TO.C,C1*%
X124107836Y-101640000D02*
X123892164Y-101640000D01*
X124107836Y-102360000D02*
X123892164Y-102360000D01*
%TO.C,R1*%
X136153641Y-81620000D02*
X135846359Y-81620000D01*
X136153641Y-82380000D02*
X135846359Y-82380000D01*
%TO.C,U3*%
X134300000Y-97860000D02*
X135700000Y-97860000D01*
X135700000Y-95540000D02*
X133800000Y-95540000D01*
%TO.C,C1*%
X94107836Y-92360000D02*
X93892164Y-92360000D01*
X94107836Y-91640000D02*
X93892164Y-91640000D01*
%TO.C,U1*%
X115000000Y-81615000D02*
X117200000Y-81615000D01*
X115000000Y-81615000D02*
X111400000Y-81615000D01*
X115000000Y-88385000D02*
X112800000Y-88385000D01*
X115000000Y-88385000D02*
X117200000Y-88385000D01*
%TO.C,C1*%
X104107836Y-82360000D02*
X103892164Y-82360000D01*
X104107836Y-81640000D02*
X103892164Y-81640000D01*
%TO.C,U3*%
X125700000Y-85540000D02*
X123800000Y-85540000D01*
X124300000Y-87860000D02*
X125700000Y-87860000D01*
%TO.C,U1*%
X95000000Y-91615000D02*
X97200000Y-91615000D01*
X95000000Y-98385000D02*
X97200000Y-98385000D01*
X95000000Y-98385000D02*
X92800000Y-98385000D01*
X95000000Y-91615000D02*
X91400000Y-91615000D01*
%TO.C,U3*%
X95700000Y-95540000D02*
X93800000Y-95540000D01*
X94300000Y-97860000D02*
X95700000Y-97860000D01*
%TO.C,U2*%
X134300000Y-95060000D02*
X135700000Y-95060000D01*
X135700000Y-92740000D02*
X133800000Y-92740000D01*
%TO.C,U1*%
X115000000Y-108385000D02*
X117200000Y-108385000D01*
X115000000Y-101615000D02*
X111400000Y-101615000D01*
X115000000Y-108385000D02*
X112800000Y-108385000D01*
X115000000Y-101615000D02*
X117200000Y-101615000D01*
%TO.C,R1*%
X106153641Y-92380000D02*
X105846359Y-92380000D01*
X106153641Y-91620000D02*
X105846359Y-91620000D01*
X96153641Y-91620000D02*
X95846359Y-91620000D01*
X96153641Y-92380000D02*
X95846359Y-92380000D01*
%TO.C,U2*%
X94300000Y-105060000D02*
X95700000Y-105060000D01*
X95700000Y-102740000D02*
X93800000Y-102740000D01*
X114300000Y-85060000D02*
X115700000Y-85060000D01*
X115700000Y-82740000D02*
X113800000Y-82740000D01*
%TO.C,C1*%
X94107836Y-101640000D02*
X93892164Y-101640000D01*
X94107836Y-102360000D02*
X93892164Y-102360000D01*
%TO.C,U3*%
X104300000Y-87860000D02*
X105700000Y-87860000D01*
X105700000Y-85540000D02*
X103800000Y-85540000D01*
%TO.C,R1*%
X106153641Y-81620000D02*
X105846359Y-81620000D01*
X106153641Y-82380000D02*
X105846359Y-82380000D01*
%TO.C,C1*%
X134107836Y-91640000D02*
X133892164Y-91640000D01*
X134107836Y-92360000D02*
X133892164Y-92360000D01*
%TO.C,U3*%
X135700000Y-85540000D02*
X133800000Y-85540000D01*
X134300000Y-87860000D02*
X135700000Y-87860000D01*
%TO.C,R1*%
X126153641Y-101620000D02*
X125846359Y-101620000D01*
X126153641Y-102380000D02*
X125846359Y-102380000D01*
%TO.C,U3*%
X125700000Y-95540000D02*
X123800000Y-95540000D01*
X124300000Y-97860000D02*
X125700000Y-97860000D01*
%TO.C,R1*%
X106153641Y-102380000D02*
X105846359Y-102380000D01*
X106153641Y-101620000D02*
X105846359Y-101620000D01*
X126153641Y-91620000D02*
X125846359Y-91620000D01*
X126153641Y-92380000D02*
X125846359Y-92380000D01*
%TO.C,C1*%
X104107836Y-101640000D02*
X103892164Y-101640000D01*
X104107836Y-102360000D02*
X103892164Y-102360000D01*
X134107836Y-101640000D02*
X133892164Y-101640000D01*
X134107836Y-102360000D02*
X133892164Y-102360000D01*
%TO.C,U2*%
X104300000Y-85060000D02*
X105700000Y-85060000D01*
X105700000Y-82740000D02*
X103800000Y-82740000D01*
%TO.C,U1*%
X135000000Y-98385000D02*
X137200000Y-98385000D01*
X135000000Y-91615000D02*
X131400000Y-91615000D01*
X135000000Y-98385000D02*
X132800000Y-98385000D01*
X135000000Y-91615000D02*
X137200000Y-91615000D01*
%TO.C,R1*%
X116153641Y-91620000D02*
X115846359Y-91620000D01*
X116153641Y-92380000D02*
X115846359Y-92380000D01*
%TO.C,U2*%
X95700000Y-92740000D02*
X93800000Y-92740000D01*
X94300000Y-95060000D02*
X95700000Y-95060000D01*
X125700000Y-92740000D02*
X123800000Y-92740000D01*
X124300000Y-95060000D02*
X125700000Y-95060000D01*
X115700000Y-102740000D02*
X113800000Y-102740000D01*
X114300000Y-105060000D02*
X115700000Y-105060000D01*
X95700000Y-82740000D02*
X93800000Y-82740000D01*
X94300000Y-85060000D02*
X95700000Y-85060000D01*
%TO.C,U1*%
X135000000Y-101615000D02*
X137200000Y-101615000D01*
X135000000Y-108385000D02*
X137200000Y-108385000D01*
X135000000Y-108385000D02*
X132800000Y-108385000D01*
X135000000Y-101615000D02*
X131400000Y-101615000D01*
X125000000Y-108385000D02*
X127200000Y-108385000D01*
X125000000Y-101615000D02*
X127200000Y-101615000D01*
X125000000Y-101615000D02*
X121400000Y-101615000D01*
X125000000Y-108385000D02*
X122800000Y-108385000D01*
X125000000Y-91615000D02*
X121400000Y-91615000D01*
X125000000Y-98385000D02*
X122800000Y-98385000D01*
X125000000Y-91615000D02*
X127200000Y-91615000D01*
X125000000Y-98385000D02*
X127200000Y-98385000D01*
%TO.C,U3*%
X114300000Y-87860000D02*
X115700000Y-87860000D01*
X115700000Y-85540000D02*
X113800000Y-85540000D01*
X115700000Y-95540000D02*
X113800000Y-95540000D01*
X114300000Y-97860000D02*
X115700000Y-97860000D01*
X114300000Y-107860000D02*
X115700000Y-107860000D01*
X115700000Y-105540000D02*
X113800000Y-105540000D01*
%TO.C,U1*%
X95000000Y-108385000D02*
X97200000Y-108385000D01*
X95000000Y-101615000D02*
X97200000Y-101615000D01*
X95000000Y-101615000D02*
X91400000Y-101615000D01*
X95000000Y-108385000D02*
X92800000Y-108385000D01*
%TO.C,U2*%
X125700000Y-102740000D02*
X123800000Y-102740000D01*
X124300000Y-105060000D02*
X125700000Y-105060000D01*
X135700000Y-82740000D02*
X133800000Y-82740000D01*
X134300000Y-85060000D02*
X135700000Y-85060000D01*
X104300000Y-105060000D02*
X105700000Y-105060000D01*
X105700000Y-102740000D02*
X103800000Y-102740000D01*
%TO.C,U1*%
X105000000Y-98385000D02*
X107200000Y-98385000D01*
X105000000Y-98385000D02*
X102800000Y-98385000D01*
X105000000Y-91615000D02*
X101400000Y-91615000D01*
X105000000Y-91615000D02*
X107200000Y-91615000D01*
%TO.C,U2*%
X105700000Y-92740000D02*
X103800000Y-92740000D01*
X104300000Y-95060000D02*
X105700000Y-95060000D01*
%TO.C,R1*%
X126153641Y-81620000D02*
X125846359Y-81620000D01*
X126153641Y-82380000D02*
X125846359Y-82380000D01*
%TO.C,C1*%
X114107836Y-101640000D02*
X113892164Y-101640000D01*
X114107836Y-102360000D02*
X113892164Y-102360000D01*
%TO.C,R1*%
X116153641Y-102380000D02*
X115846359Y-102380000D01*
X116153641Y-101620000D02*
X115846359Y-101620000D01*
%TO.C,U1*%
X115000000Y-98385000D02*
X112800000Y-98385000D01*
X115000000Y-91615000D02*
X111400000Y-91615000D01*
X115000000Y-98385000D02*
X117200000Y-98385000D01*
X115000000Y-91615000D02*
X117200000Y-91615000D01*
%TO.C,U2*%
X134300000Y-105060000D02*
X135700000Y-105060000D01*
X135700000Y-102740000D02*
X133800000Y-102740000D01*
%TO.C,U3*%
X134300000Y-107860000D02*
X135700000Y-107860000D01*
X135700000Y-105540000D02*
X133800000Y-105540000D01*
%TO.C,U1*%
X135000000Y-81615000D02*
X131400000Y-81615000D01*
X135000000Y-88385000D02*
X132800000Y-88385000D01*
X135000000Y-81615000D02*
X137200000Y-81615000D01*
X135000000Y-88385000D02*
X137200000Y-88385000D01*
%TO.C,C1*%
X94107836Y-82360000D02*
X93892164Y-82360000D01*
X94107836Y-81640000D02*
X93892164Y-81640000D01*
%TD*%
%LPC*%
D12*
%TO.C,C1*%
X124480000Y-92000000D03*
X123520000Y-92000000D03*
%TD*%
D13*
%TO.C,R1*%
X136510000Y-92000000D03*
X135490000Y-92000000D03*
%TD*%
D12*
%TO.C,C1*%
X114480000Y-92000000D03*
X113520000Y-92000000D03*
%TD*%
%TO.C,C1*%
X134480000Y-82000000D03*
X133520000Y-82000000D03*
%TD*%
D14*
%TO.C,U3*%
X94050000Y-106050000D03*
X94050000Y-106700000D03*
X94050000Y-107350000D03*
X95950000Y-107350000D03*
X95950000Y-106700000D03*
X95950000Y-106050000D03*
%TD*%
D13*
%TO.C,R1*%
X96510000Y-102000000D03*
X95490000Y-102000000D03*
%TD*%
%TO.C,R1*%
X116510000Y-82000000D03*
X115490000Y-82000000D03*
%TD*%
D15*
%TO.C,U1*%
X102137500Y-82075000D03*
X102137500Y-82725000D03*
X102137500Y-83375000D03*
X102137500Y-84025000D03*
X102137500Y-84675000D03*
X102137500Y-85325000D03*
X102137500Y-85975000D03*
X102137500Y-86625000D03*
X102137500Y-87275000D03*
X102137500Y-87925000D03*
X107862500Y-87925000D03*
X107862500Y-87275000D03*
X107862500Y-86625000D03*
X107862500Y-85975000D03*
X107862500Y-85325000D03*
X107862500Y-84675000D03*
X107862500Y-84025000D03*
X107862500Y-83375000D03*
X107862500Y-82725000D03*
X107862500Y-82075000D03*
%TD*%
D13*
%TO.C,R1*%
X136510000Y-102000000D03*
X135490000Y-102000000D03*
%TD*%
D15*
%TO.C,U1*%
X102137500Y-102075000D03*
X102137500Y-102725000D03*
X102137500Y-103375000D03*
X102137500Y-104025000D03*
X102137500Y-104675000D03*
X102137500Y-105325000D03*
X102137500Y-105975000D03*
X102137500Y-106625000D03*
X102137500Y-107275000D03*
X102137500Y-107925000D03*
X107862500Y-107925000D03*
X107862500Y-107275000D03*
X107862500Y-106625000D03*
X107862500Y-105975000D03*
X107862500Y-105325000D03*
X107862500Y-104675000D03*
X107862500Y-104025000D03*
X107862500Y-103375000D03*
X107862500Y-102725000D03*
X107862500Y-102075000D03*
%TD*%
%TO.C,U1*%
X122137500Y-82075000D03*
X122137500Y-82725000D03*
X122137500Y-83375000D03*
X122137500Y-84025000D03*
X122137500Y-84675000D03*
X122137500Y-85325000D03*
X122137500Y-85975000D03*
X122137500Y-86625000D03*
X122137500Y-87275000D03*
X122137500Y-87925000D03*
X127862500Y-87925000D03*
X127862500Y-87275000D03*
X127862500Y-86625000D03*
X127862500Y-85975000D03*
X127862500Y-85325000D03*
X127862500Y-84675000D03*
X127862500Y-84025000D03*
X127862500Y-83375000D03*
X127862500Y-82725000D03*
X127862500Y-82075000D03*
%TD*%
D14*
%TO.C,U3*%
X94050000Y-86050000D03*
X94050000Y-86700000D03*
X94050000Y-87350000D03*
X95950000Y-87350000D03*
X95950000Y-86700000D03*
X95950000Y-86050000D03*
%TD*%
D12*
%TO.C,C1*%
X104480000Y-92000000D03*
X103520000Y-92000000D03*
%TD*%
%TO.C,C1*%
X124480000Y-82000000D03*
X123520000Y-82000000D03*
%TD*%
D14*
%TO.C,U3*%
X104050000Y-106050000D03*
X104050000Y-106700000D03*
X104050000Y-107350000D03*
X105950000Y-107350000D03*
X105950000Y-106700000D03*
X105950000Y-106050000D03*
%TD*%
D13*
%TO.C,R1*%
X96510000Y-82000000D03*
X95490000Y-82000000D03*
%TD*%
D15*
%TO.C,U1*%
X92137500Y-82075000D03*
X92137500Y-82725000D03*
X92137500Y-83375000D03*
X92137500Y-84025000D03*
X92137500Y-84675000D03*
X92137500Y-85325000D03*
X92137500Y-85975000D03*
X92137500Y-86625000D03*
X92137500Y-87275000D03*
X92137500Y-87925000D03*
X97862500Y-87925000D03*
X97862500Y-87275000D03*
X97862500Y-86625000D03*
X97862500Y-85975000D03*
X97862500Y-85325000D03*
X97862500Y-84675000D03*
X97862500Y-84025000D03*
X97862500Y-83375000D03*
X97862500Y-82725000D03*
X97862500Y-82075000D03*
%TD*%
D14*
%TO.C,U2*%
X124050000Y-83250000D03*
X124050000Y-83900000D03*
X124050000Y-84550000D03*
X125950000Y-84550000D03*
X125950000Y-83900000D03*
X125950000Y-83250000D03*
%TD*%
D12*
%TO.C,C1*%
X114480000Y-82000000D03*
X113520000Y-82000000D03*
%TD*%
D14*
%TO.C,U2*%
X114050000Y-93250000D03*
X114050000Y-93900000D03*
X114050000Y-94550000D03*
X115950000Y-94550000D03*
X115950000Y-93900000D03*
X115950000Y-93250000D03*
%TD*%
%TO.C,U3*%
X104050000Y-96050000D03*
X104050000Y-96700000D03*
X104050000Y-97350000D03*
X105950000Y-97350000D03*
X105950000Y-96700000D03*
X105950000Y-96050000D03*
%TD*%
%TO.C,U3*%
X124050000Y-106050000D03*
X124050000Y-106700000D03*
X124050000Y-107350000D03*
X125950000Y-107350000D03*
X125950000Y-106700000D03*
X125950000Y-106050000D03*
%TD*%
D12*
%TO.C,C1*%
X124480000Y-102000000D03*
X123520000Y-102000000D03*
%TD*%
D13*
%TO.C,R1*%
X136510000Y-82000000D03*
X135490000Y-82000000D03*
%TD*%
D14*
%TO.C,U3*%
X134050000Y-96050000D03*
X134050000Y-96700000D03*
X134050000Y-97350000D03*
X135950000Y-97350000D03*
X135950000Y-96700000D03*
X135950000Y-96050000D03*
%TD*%
D12*
%TO.C,C1*%
X94480000Y-92000000D03*
X93520000Y-92000000D03*
%TD*%
D15*
%TO.C,U1*%
X112137500Y-82075000D03*
X112137500Y-82725000D03*
X112137500Y-83375000D03*
X112137500Y-84025000D03*
X112137500Y-84675000D03*
X112137500Y-85325000D03*
X112137500Y-85975000D03*
X112137500Y-86625000D03*
X112137500Y-87275000D03*
X112137500Y-87925000D03*
X117862500Y-87925000D03*
X117862500Y-87275000D03*
X117862500Y-86625000D03*
X117862500Y-85975000D03*
X117862500Y-85325000D03*
X117862500Y-84675000D03*
X117862500Y-84025000D03*
X117862500Y-83375000D03*
X117862500Y-82725000D03*
X117862500Y-82075000D03*
%TD*%
D12*
%TO.C,C1*%
X104480000Y-82000000D03*
X103520000Y-82000000D03*
%TD*%
D14*
%TO.C,U3*%
X124050000Y-86050000D03*
X124050000Y-86700000D03*
X124050000Y-87350000D03*
X125950000Y-87350000D03*
X125950000Y-86700000D03*
X125950000Y-86050000D03*
%TD*%
D15*
%TO.C,U1*%
X92137500Y-92075000D03*
X92137500Y-92725000D03*
X92137500Y-93375000D03*
X92137500Y-94025000D03*
X92137500Y-94675000D03*
X92137500Y-95325000D03*
X92137500Y-95975000D03*
X92137500Y-96625000D03*
X92137500Y-97275000D03*
X92137500Y-97925000D03*
X97862500Y-97925000D03*
X97862500Y-97275000D03*
X97862500Y-96625000D03*
X97862500Y-95975000D03*
X97862500Y-95325000D03*
X97862500Y-94675000D03*
X97862500Y-94025000D03*
X97862500Y-93375000D03*
X97862500Y-92725000D03*
X97862500Y-92075000D03*
%TD*%
D14*
%TO.C,U3*%
X94050000Y-96050000D03*
X94050000Y-96700000D03*
X94050000Y-97350000D03*
X95950000Y-97350000D03*
X95950000Y-96700000D03*
X95950000Y-96050000D03*
%TD*%
%TO.C,U2*%
X134050000Y-93250000D03*
X134050000Y-93900000D03*
X134050000Y-94550000D03*
X135950000Y-94550000D03*
X135950000Y-93900000D03*
X135950000Y-93250000D03*
%TD*%
D15*
%TO.C,U1*%
X112137500Y-102075000D03*
X112137500Y-102725000D03*
X112137500Y-103375000D03*
X112137500Y-104025000D03*
X112137500Y-104675000D03*
X112137500Y-105325000D03*
X112137500Y-105975000D03*
X112137500Y-106625000D03*
X112137500Y-107275000D03*
X112137500Y-107925000D03*
X117862500Y-107925000D03*
X117862500Y-107275000D03*
X117862500Y-106625000D03*
X117862500Y-105975000D03*
X117862500Y-105325000D03*
X117862500Y-104675000D03*
X117862500Y-104025000D03*
X117862500Y-103375000D03*
X117862500Y-102725000D03*
X117862500Y-102075000D03*
%TD*%
D13*
%TO.C,R1*%
X106510000Y-92000000D03*
X105490000Y-92000000D03*
%TD*%
%TO.C,R1*%
X96510000Y-92000000D03*
X95490000Y-92000000D03*
%TD*%
D14*
%TO.C,U2*%
X94050000Y-103250000D03*
X94050000Y-103900000D03*
X94050000Y-104550000D03*
X95950000Y-104550000D03*
X95950000Y-103900000D03*
X95950000Y-103250000D03*
%TD*%
%TO.C,U2*%
X114050000Y-83250000D03*
X114050000Y-83900000D03*
X114050000Y-84550000D03*
X115950000Y-84550000D03*
X115950000Y-83900000D03*
X115950000Y-83250000D03*
%TD*%
D12*
%TO.C,C1*%
X94480000Y-102000000D03*
X93520000Y-102000000D03*
%TD*%
D14*
%TO.C,U3*%
X104050000Y-86050000D03*
X104050000Y-86700000D03*
X104050000Y-87350000D03*
X105950000Y-87350000D03*
X105950000Y-86700000D03*
X105950000Y-86050000D03*
%TD*%
D13*
%TO.C,R1*%
X106510000Y-82000000D03*
X105490000Y-82000000D03*
%TD*%
D12*
%TO.C,C1*%
X134480000Y-92000000D03*
X133520000Y-92000000D03*
%TD*%
D14*
%TO.C,U3*%
X134050000Y-86050000D03*
X134050000Y-86700000D03*
X134050000Y-87350000D03*
X135950000Y-87350000D03*
X135950000Y-86700000D03*
X135950000Y-86050000D03*
%TD*%
D13*
%TO.C,R1*%
X126510000Y-102000000D03*
X125490000Y-102000000D03*
%TD*%
D14*
%TO.C,U3*%
X124050000Y-96050000D03*
X124050000Y-96700000D03*
X124050000Y-97350000D03*
X125950000Y-97350000D03*
X125950000Y-96700000D03*
X125950000Y-96050000D03*
%TD*%
D13*
%TO.C,R1*%
X106510000Y-102000000D03*
X105490000Y-102000000D03*
%TD*%
%TO.C,R1*%
X126510000Y-92000000D03*
X125490000Y-92000000D03*
%TD*%
D12*
%TO.C,C1*%
X104480000Y-102000000D03*
X103520000Y-102000000D03*
%TD*%
%TO.C,C1*%
X134480000Y-102000000D03*
X133520000Y-102000000D03*
%TD*%
D14*
%TO.C,U2*%
X104050000Y-83250000D03*
X104050000Y-83900000D03*
X104050000Y-84550000D03*
X105950000Y-84550000D03*
X105950000Y-83900000D03*
X105950000Y-83250000D03*
%TD*%
D15*
%TO.C,U1*%
X132137500Y-92075000D03*
X132137500Y-92725000D03*
X132137500Y-93375000D03*
X132137500Y-94025000D03*
X132137500Y-94675000D03*
X132137500Y-95325000D03*
X132137500Y-95975000D03*
X132137500Y-96625000D03*
X132137500Y-97275000D03*
X132137500Y-97925000D03*
X137862500Y-97925000D03*
X137862500Y-97275000D03*
X137862500Y-96625000D03*
X137862500Y-95975000D03*
X137862500Y-95325000D03*
X137862500Y-94675000D03*
X137862500Y-94025000D03*
X137862500Y-93375000D03*
X137862500Y-92725000D03*
X137862500Y-92075000D03*
%TD*%
D13*
%TO.C,R1*%
X116510000Y-92000000D03*
X115490000Y-92000000D03*
%TD*%
D14*
%TO.C,U2*%
X94050000Y-93250000D03*
X94050000Y-93900000D03*
X94050000Y-94550000D03*
X95950000Y-94550000D03*
X95950000Y-93900000D03*
X95950000Y-93250000D03*
%TD*%
%TO.C,U2*%
X124050000Y-93250000D03*
X124050000Y-93900000D03*
X124050000Y-94550000D03*
X125950000Y-94550000D03*
X125950000Y-93900000D03*
X125950000Y-93250000D03*
%TD*%
%TO.C,U2*%
X114050000Y-103250000D03*
X114050000Y-103900000D03*
X114050000Y-104550000D03*
X115950000Y-104550000D03*
X115950000Y-103900000D03*
X115950000Y-103250000D03*
%TD*%
%TO.C,U2*%
X94050000Y-83250000D03*
X94050000Y-83900000D03*
X94050000Y-84550000D03*
X95950000Y-84550000D03*
X95950000Y-83900000D03*
X95950000Y-83250000D03*
%TD*%
D15*
%TO.C,U1*%
X132137500Y-102075000D03*
X132137500Y-102725000D03*
X132137500Y-103375000D03*
X132137500Y-104025000D03*
X132137500Y-104675000D03*
X132137500Y-105325000D03*
X132137500Y-105975000D03*
X132137500Y-106625000D03*
X132137500Y-107275000D03*
X132137500Y-107925000D03*
X137862500Y-107925000D03*
X137862500Y-107275000D03*
X137862500Y-106625000D03*
X137862500Y-105975000D03*
X137862500Y-105325000D03*
X137862500Y-104675000D03*
X137862500Y-104025000D03*
X137862500Y-103375000D03*
X137862500Y-102725000D03*
X137862500Y-102075000D03*
%TD*%
%TO.C,U1*%
X122137500Y-102075000D03*
X122137500Y-102725000D03*
X122137500Y-103375000D03*
X122137500Y-104025000D03*
X122137500Y-104675000D03*
X122137500Y-105325000D03*
X122137500Y-105975000D03*
X122137500Y-106625000D03*
X122137500Y-107275000D03*
X122137500Y-107925000D03*
X127862500Y-107925000D03*
X127862500Y-107275000D03*
X127862500Y-106625000D03*
X127862500Y-105975000D03*
X127862500Y-105325000D03*
X127862500Y-104675000D03*
X127862500Y-104025000D03*
X127862500Y-103375000D03*
X127862500Y-102725000D03*
X127862500Y-102075000D03*
%TD*%
%TO.C,U1*%
X122137500Y-92075000D03*
X122137500Y-92725000D03*
X122137500Y-93375000D03*
X122137500Y-94025000D03*
X122137500Y-94675000D03*
X122137500Y-95325000D03*
X122137500Y-95975000D03*
X122137500Y-96625000D03*
X122137500Y-97275000D03*
X122137500Y-97925000D03*
X127862500Y-97925000D03*
X127862500Y-97275000D03*
X127862500Y-96625000D03*
X127862500Y-95975000D03*
X127862500Y-95325000D03*
X127862500Y-94675000D03*
X127862500Y-94025000D03*
X127862500Y-93375000D03*
X127862500Y-92725000D03*
X127862500Y-92075000D03*
%TD*%
D14*
%TO.C,U3*%
X114050000Y-86050000D03*
X114050000Y-86700000D03*
X114050000Y-87350000D03*
X115950000Y-87350000D03*
X115950000Y-86700000D03*
X115950000Y-86050000D03*
%TD*%
%TO.C,U3*%
X114050000Y-96050000D03*
X114050000Y-96700000D03*
X114050000Y-97350000D03*
X115950000Y-97350000D03*
X115950000Y-96700000D03*
X115950000Y-96050000D03*
%TD*%
%TO.C,U3*%
X114050000Y-106050000D03*
X114050000Y-106700000D03*
X114050000Y-107350000D03*
X115950000Y-107350000D03*
X115950000Y-106700000D03*
X115950000Y-106050000D03*
%TD*%
D15*
%TO.C,U1*%
X92137500Y-102075000D03*
X92137500Y-102725000D03*
X92137500Y-103375000D03*
X92137500Y-104025000D03*
X92137500Y-104675000D03*
X92137500Y-105325000D03*
X92137500Y-105975000D03*
X92137500Y-106625000D03*
X92137500Y-107275000D03*
X92137500Y-107925000D03*
X97862500Y-107925000D03*
X97862500Y-107275000D03*
X97862500Y-106625000D03*
X97862500Y-105975000D03*
X97862500Y-105325000D03*
X97862500Y-104675000D03*
X97862500Y-104025000D03*
X97862500Y-103375000D03*
X97862500Y-102725000D03*
X97862500Y-102075000D03*
%TD*%
D14*
%TO.C,U2*%
X124050000Y-103250000D03*
X124050000Y-103900000D03*
X124050000Y-104550000D03*
X125950000Y-104550000D03*
X125950000Y-103900000D03*
X125950000Y-103250000D03*
%TD*%
%TO.C,U2*%
X134050000Y-83250000D03*
X134050000Y-83900000D03*
X134050000Y-84550000D03*
X135950000Y-84550000D03*
X135950000Y-83900000D03*
X135950000Y-83250000D03*
%TD*%
%TO.C,U2*%
X104050000Y-103250000D03*
X104050000Y-103900000D03*
X104050000Y-104550000D03*
X105950000Y-104550000D03*
X105950000Y-103900000D03*
X105950000Y-103250000D03*
%TD*%
D15*
%TO.C,U1*%
X102137500Y-92075000D03*
X102137500Y-92725000D03*
X102137500Y-93375000D03*
X102137500Y-94025000D03*
X102137500Y-94675000D03*
X102137500Y-95325000D03*
X102137500Y-95975000D03*
X102137500Y-96625000D03*
X102137500Y-97275000D03*
X102137500Y-97925000D03*
X107862500Y-97925000D03*
X107862500Y-97275000D03*
X107862500Y-96625000D03*
X107862500Y-95975000D03*
X107862500Y-95325000D03*
X107862500Y-94675000D03*
X107862500Y-94025000D03*
X107862500Y-93375000D03*
X107862500Y-92725000D03*
X107862500Y-92075000D03*
%TD*%
D14*
%TO.C,U2*%
X104050000Y-93250000D03*
X104050000Y-93900000D03*
X104050000Y-94550000D03*
X105950000Y-94550000D03*
X105950000Y-93900000D03*
X105950000Y-93250000D03*
%TD*%
D13*
%TO.C,R1*%
X126510000Y-82000000D03*
X125490000Y-82000000D03*
%TD*%
D12*
%TO.C,C1*%
X114480000Y-102000000D03*
X113520000Y-102000000D03*
%TD*%
D13*
%TO.C,R1*%
X116510000Y-102000000D03*
X115490000Y-102000000D03*
%TD*%
D15*
%TO.C,U1*%
X112137500Y-92075000D03*
X112137500Y-92725000D03*
X112137500Y-93375000D03*
X112137500Y-94025000D03*
X112137500Y-94675000D03*
X112137500Y-95325000D03*
X112137500Y-95975000D03*
X112137500Y-96625000D03*
X112137500Y-97275000D03*
X112137500Y-97925000D03*
X117862500Y-97925000D03*
X117862500Y-97275000D03*
X117862500Y-96625000D03*
X117862500Y-95975000D03*
X117862500Y-95325000D03*
X117862500Y-94675000D03*
X117862500Y-94025000D03*
X117862500Y-93375000D03*
X117862500Y-92725000D03*
X117862500Y-92075000D03*
%TD*%
D14*
%TO.C,U2*%
X134050000Y-103250000D03*
X134050000Y-103900000D03*
X134050000Y-104550000D03*
X135950000Y-104550000D03*
X135950000Y-103900000D03*
X135950000Y-103250000D03*
%TD*%
%TO.C,U3*%
X134050000Y-106050000D03*
X134050000Y-106700000D03*
X134050000Y-107350000D03*
X135950000Y-107350000D03*
X135950000Y-106700000D03*
X135950000Y-106050000D03*
%TD*%
D15*
%TO.C,U1*%
X132137500Y-82075000D03*
X132137500Y-82725000D03*
X132137500Y-83375000D03*
X132137500Y-84025000D03*
X132137500Y-84675000D03*
X132137500Y-85325000D03*
X132137500Y-85975000D03*
X132137500Y-86625000D03*
X132137500Y-87275000D03*
X132137500Y-87925000D03*
X137862500Y-87925000D03*
X137862500Y-87275000D03*
X137862500Y-86625000D03*
X137862500Y-85975000D03*
X137862500Y-85325000D03*
X137862500Y-84675000D03*
X137862500Y-84025000D03*
X137862500Y-83375000D03*
X137862500Y-82725000D03*
X137862500Y-82075000D03*
%TD*%
D12*
%TO.C,C1*%
X94480000Y-82000000D03*
X93520000Y-82000000D03*
%TD*%
M02*
