%TF.GenerationSoftware,KiCad,Pcbnew,7.0.1*%
%TF.CreationDate,2023-04-19T21:29:51+02:00*%
%TF.ProjectId,hc245t-bypass-esd-panel,68633234-3574-42d6-9279-706173732d65,${revision}*%
%TF.SameCoordinates,Original*%
%TF.FileFunction,Soldermask,Bot*%
%TF.FilePolarity,Negative*%
%FSLAX46Y46*%
G04 Gerber Fmt 4.6, Leading zero omitted, Abs format (unit mm)*
G04 Created by KiCad (PCBNEW 7.0.1) date 2023-04-19 21:29:51*
%MOMM*%
%LPD*%
G01*
G04 APERTURE LIST*
G04 Aperture macros list*
%AMRoundRect*
0 Rectangle with rounded corners*
0 $1 Rounding radius*
0 $2 $3 $4 $5 $6 $7 $8 $9 X,Y pos of 4 corners*
0 Add a 4 corners polygon primitive as box body*
4,1,4,$2,$3,$4,$5,$6,$7,$8,$9,$2,$3,0*
0 Add four circle primitives for the rounded corners*
1,1,$1+$1,$2,$3*
1,1,$1+$1,$4,$5*
1,1,$1+$1,$6,$7*
1,1,$1+$1,$8,$9*
0 Add four rect primitives between the rounded corners*
20,1,$1+$1,$2,$3,$4,$5,0*
20,1,$1+$1,$4,$5,$6,$7,0*
20,1,$1+$1,$6,$7,$8,$9,0*
20,1,$1+$1,$8,$9,$2,$3,0*%
G04 Aperture macros list end*
%ADD10RoundRect,0.100000X-0.637500X-0.100000X0.637500X-0.100000X0.637500X0.100000X-0.637500X0.100000X0*%
G04 APERTURE END LIST*
D10*
%TO.C,U196*%
X469262500Y-97075000D03*
X469262500Y-97725000D03*
X469262500Y-98375000D03*
X469262500Y-99025000D03*
X469262500Y-99675000D03*
X469262500Y-100325000D03*
X469262500Y-100975000D03*
X469262500Y-101625000D03*
X469262500Y-102275000D03*
X469262500Y-102925000D03*
X474987500Y-102925000D03*
X474987500Y-102275000D03*
X474987500Y-101625000D03*
X474987500Y-100975000D03*
X474987500Y-100325000D03*
X474987500Y-99675000D03*
X474987500Y-99025000D03*
X474987500Y-98375000D03*
X474987500Y-97725000D03*
X474987500Y-97075000D03*
%TD*%
%TO.C,U103*%
X291787500Y-97075000D03*
X291787500Y-97725000D03*
X291787500Y-98375000D03*
X291787500Y-99025000D03*
X291787500Y-99675000D03*
X291787500Y-100325000D03*
X291787500Y-100975000D03*
X291787500Y-101625000D03*
X291787500Y-102275000D03*
X291787500Y-102925000D03*
X297512500Y-102925000D03*
X297512500Y-102275000D03*
X297512500Y-101625000D03*
X297512500Y-100975000D03*
X297512500Y-100325000D03*
X297512500Y-99675000D03*
X297512500Y-99025000D03*
X297512500Y-98375000D03*
X297512500Y-97725000D03*
X297512500Y-97075000D03*
%TD*%
%TO.C,U52*%
X194462500Y-97075000D03*
X194462500Y-97725000D03*
X194462500Y-98375000D03*
X194462500Y-99025000D03*
X194462500Y-99675000D03*
X194462500Y-100325000D03*
X194462500Y-100975000D03*
X194462500Y-101625000D03*
X194462500Y-102275000D03*
X194462500Y-102925000D03*
X200187500Y-102925000D03*
X200187500Y-102275000D03*
X200187500Y-101625000D03*
X200187500Y-100975000D03*
X200187500Y-100325000D03*
X200187500Y-99675000D03*
X200187500Y-99025000D03*
X200187500Y-98375000D03*
X200187500Y-97725000D03*
X200187500Y-97075000D03*
%TD*%
%TO.C,U136*%
X354762500Y-97075000D03*
X354762500Y-97725000D03*
X354762500Y-98375000D03*
X354762500Y-99025000D03*
X354762500Y-99675000D03*
X354762500Y-100325000D03*
X354762500Y-100975000D03*
X354762500Y-101625000D03*
X354762500Y-102275000D03*
X354762500Y-102925000D03*
X360487500Y-102925000D03*
X360487500Y-102275000D03*
X360487500Y-101625000D03*
X360487500Y-100975000D03*
X360487500Y-100325000D03*
X360487500Y-99675000D03*
X360487500Y-99025000D03*
X360487500Y-98375000D03*
X360487500Y-97725000D03*
X360487500Y-97075000D03*
%TD*%
%TO.C,U124*%
X331862500Y-97075000D03*
X331862500Y-97725000D03*
X331862500Y-98375000D03*
X331862500Y-99025000D03*
X331862500Y-99675000D03*
X331862500Y-100325000D03*
X331862500Y-100975000D03*
X331862500Y-101625000D03*
X331862500Y-102275000D03*
X331862500Y-102925000D03*
X337587500Y-102925000D03*
X337587500Y-102275000D03*
X337587500Y-101625000D03*
X337587500Y-100975000D03*
X337587500Y-100325000D03*
X337587500Y-99675000D03*
X337587500Y-99025000D03*
X337587500Y-98375000D03*
X337587500Y-97725000D03*
X337587500Y-97075000D03*
%TD*%
%TO.C,U163*%
X406287500Y-97075000D03*
X406287500Y-97725000D03*
X406287500Y-98375000D03*
X406287500Y-99025000D03*
X406287500Y-99675000D03*
X406287500Y-100325000D03*
X406287500Y-100975000D03*
X406287500Y-101625000D03*
X406287500Y-102275000D03*
X406287500Y-102925000D03*
X412012500Y-102925000D03*
X412012500Y-102275000D03*
X412012500Y-101625000D03*
X412012500Y-100975000D03*
X412012500Y-100325000D03*
X412012500Y-99675000D03*
X412012500Y-99025000D03*
X412012500Y-98375000D03*
X412012500Y-97725000D03*
X412012500Y-97075000D03*
%TD*%
%TO.C,U40*%
X171562500Y-97075000D03*
X171562500Y-97725000D03*
X171562500Y-98375000D03*
X171562500Y-99025000D03*
X171562500Y-99675000D03*
X171562500Y-100325000D03*
X171562500Y-100975000D03*
X171562500Y-101625000D03*
X171562500Y-102275000D03*
X171562500Y-102925000D03*
X177287500Y-102925000D03*
X177287500Y-102275000D03*
X177287500Y-101625000D03*
X177287500Y-100975000D03*
X177287500Y-100325000D03*
X177287500Y-99675000D03*
X177287500Y-99025000D03*
X177287500Y-98375000D03*
X177287500Y-97725000D03*
X177287500Y-97075000D03*
%TD*%
%TO.C,U217*%
X509337500Y-97075000D03*
X509337500Y-97725000D03*
X509337500Y-98375000D03*
X509337500Y-99025000D03*
X509337500Y-99675000D03*
X509337500Y-100325000D03*
X509337500Y-100975000D03*
X509337500Y-101625000D03*
X509337500Y-102275000D03*
X509337500Y-102925000D03*
X515062500Y-102925000D03*
X515062500Y-102275000D03*
X515062500Y-101625000D03*
X515062500Y-100975000D03*
X515062500Y-100325000D03*
X515062500Y-99675000D03*
X515062500Y-99025000D03*
X515062500Y-98375000D03*
X515062500Y-97725000D03*
X515062500Y-97075000D03*
%TD*%
%TO.C,U115*%
X314687500Y-97075000D03*
X314687500Y-97725000D03*
X314687500Y-98375000D03*
X314687500Y-99025000D03*
X314687500Y-99675000D03*
X314687500Y-100325000D03*
X314687500Y-100975000D03*
X314687500Y-101625000D03*
X314687500Y-102275000D03*
X314687500Y-102925000D03*
X320412500Y-102925000D03*
X320412500Y-102275000D03*
X320412500Y-101625000D03*
X320412500Y-100975000D03*
X320412500Y-100325000D03*
X320412500Y-99675000D03*
X320412500Y-99025000D03*
X320412500Y-98375000D03*
X320412500Y-97725000D03*
X320412500Y-97075000D03*
%TD*%
%TO.C,U232*%
X537962500Y-97075000D03*
X537962500Y-97725000D03*
X537962500Y-98375000D03*
X537962500Y-99025000D03*
X537962500Y-99675000D03*
X537962500Y-100325000D03*
X537962500Y-100975000D03*
X537962500Y-101625000D03*
X537962500Y-102275000D03*
X537962500Y-102925000D03*
X543687500Y-102925000D03*
X543687500Y-102275000D03*
X543687500Y-101625000D03*
X543687500Y-100975000D03*
X543687500Y-100325000D03*
X543687500Y-99675000D03*
X543687500Y-99025000D03*
X543687500Y-98375000D03*
X543687500Y-97725000D03*
X543687500Y-97075000D03*
%TD*%
%TO.C,U220*%
X515062500Y-97075000D03*
X515062500Y-97725000D03*
X515062500Y-98375000D03*
X515062500Y-99025000D03*
X515062500Y-99675000D03*
X515062500Y-100325000D03*
X515062500Y-100975000D03*
X515062500Y-101625000D03*
X515062500Y-102275000D03*
X515062500Y-102925000D03*
X520787500Y-102925000D03*
X520787500Y-102275000D03*
X520787500Y-101625000D03*
X520787500Y-100975000D03*
X520787500Y-100325000D03*
X520787500Y-99675000D03*
X520787500Y-99025000D03*
X520787500Y-98375000D03*
X520787500Y-97725000D03*
X520787500Y-97075000D03*
%TD*%
%TO.C,U37*%
X165837500Y-97075000D03*
X165837500Y-97725000D03*
X165837500Y-98375000D03*
X165837500Y-99025000D03*
X165837500Y-99675000D03*
X165837500Y-100325000D03*
X165837500Y-100975000D03*
X165837500Y-101625000D03*
X165837500Y-102275000D03*
X165837500Y-102925000D03*
X171562500Y-102925000D03*
X171562500Y-102275000D03*
X171562500Y-101625000D03*
X171562500Y-100975000D03*
X171562500Y-100325000D03*
X171562500Y-99675000D03*
X171562500Y-99025000D03*
X171562500Y-98375000D03*
X171562500Y-97725000D03*
X171562500Y-97075000D03*
%TD*%
%TO.C,U19*%
X131487500Y-97075000D03*
X131487500Y-97725000D03*
X131487500Y-98375000D03*
X131487500Y-99025000D03*
X131487500Y-99675000D03*
X131487500Y-100325000D03*
X131487500Y-100975000D03*
X131487500Y-101625000D03*
X131487500Y-102275000D03*
X131487500Y-102925000D03*
X137212500Y-102925000D03*
X137212500Y-102275000D03*
X137212500Y-101625000D03*
X137212500Y-100975000D03*
X137212500Y-100325000D03*
X137212500Y-99675000D03*
X137212500Y-99025000D03*
X137212500Y-98375000D03*
X137212500Y-97725000D03*
X137212500Y-97075000D03*
%TD*%
%TO.C,U172*%
X423462500Y-97075000D03*
X423462500Y-97725000D03*
X423462500Y-98375000D03*
X423462500Y-99025000D03*
X423462500Y-99675000D03*
X423462500Y-100325000D03*
X423462500Y-100975000D03*
X423462500Y-101625000D03*
X423462500Y-102275000D03*
X423462500Y-102925000D03*
X429187500Y-102925000D03*
X429187500Y-102275000D03*
X429187500Y-101625000D03*
X429187500Y-100975000D03*
X429187500Y-100325000D03*
X429187500Y-99675000D03*
X429187500Y-99025000D03*
X429187500Y-98375000D03*
X429187500Y-97725000D03*
X429187500Y-97075000D03*
%TD*%
%TO.C,U61*%
X211637500Y-97075000D03*
X211637500Y-97725000D03*
X211637500Y-98375000D03*
X211637500Y-99025000D03*
X211637500Y-99675000D03*
X211637500Y-100325000D03*
X211637500Y-100975000D03*
X211637500Y-101625000D03*
X211637500Y-102275000D03*
X211637500Y-102925000D03*
X217362500Y-102925000D03*
X217362500Y-102275000D03*
X217362500Y-101625000D03*
X217362500Y-100975000D03*
X217362500Y-100325000D03*
X217362500Y-99675000D03*
X217362500Y-99025000D03*
X217362500Y-98375000D03*
X217362500Y-97725000D03*
X217362500Y-97075000D03*
%TD*%
%TO.C,U46*%
X183012500Y-97075000D03*
X183012500Y-97725000D03*
X183012500Y-98375000D03*
X183012500Y-99025000D03*
X183012500Y-99675000D03*
X183012500Y-100325000D03*
X183012500Y-100975000D03*
X183012500Y-101625000D03*
X183012500Y-102275000D03*
X183012500Y-102925000D03*
X188737500Y-102925000D03*
X188737500Y-102275000D03*
X188737500Y-101625000D03*
X188737500Y-100975000D03*
X188737500Y-100325000D03*
X188737500Y-99675000D03*
X188737500Y-99025000D03*
X188737500Y-98375000D03*
X188737500Y-97725000D03*
X188737500Y-97075000D03*
%TD*%
%TO.C,U202*%
X480712500Y-97075000D03*
X480712500Y-97725000D03*
X480712500Y-98375000D03*
X480712500Y-99025000D03*
X480712500Y-99675000D03*
X480712500Y-100325000D03*
X480712500Y-100975000D03*
X480712500Y-101625000D03*
X480712500Y-102275000D03*
X480712500Y-102925000D03*
X486437500Y-102925000D03*
X486437500Y-102275000D03*
X486437500Y-101625000D03*
X486437500Y-100975000D03*
X486437500Y-100325000D03*
X486437500Y-99675000D03*
X486437500Y-99025000D03*
X486437500Y-98375000D03*
X486437500Y-97725000D03*
X486437500Y-97075000D03*
%TD*%
%TO.C,U148*%
X377662500Y-97075000D03*
X377662500Y-97725000D03*
X377662500Y-98375000D03*
X377662500Y-99025000D03*
X377662500Y-99675000D03*
X377662500Y-100325000D03*
X377662500Y-100975000D03*
X377662500Y-101625000D03*
X377662500Y-102275000D03*
X377662500Y-102925000D03*
X383387500Y-102925000D03*
X383387500Y-102275000D03*
X383387500Y-101625000D03*
X383387500Y-100975000D03*
X383387500Y-100325000D03*
X383387500Y-99675000D03*
X383387500Y-99025000D03*
X383387500Y-98375000D03*
X383387500Y-97725000D03*
X383387500Y-97075000D03*
%TD*%
%TO.C,U157*%
X394837500Y-97075000D03*
X394837500Y-97725000D03*
X394837500Y-98375000D03*
X394837500Y-99025000D03*
X394837500Y-99675000D03*
X394837500Y-100325000D03*
X394837500Y-100975000D03*
X394837500Y-101625000D03*
X394837500Y-102275000D03*
X394837500Y-102925000D03*
X400562500Y-102925000D03*
X400562500Y-102275000D03*
X400562500Y-101625000D03*
X400562500Y-100975000D03*
X400562500Y-100325000D03*
X400562500Y-99675000D03*
X400562500Y-99025000D03*
X400562500Y-98375000D03*
X400562500Y-97725000D03*
X400562500Y-97075000D03*
%TD*%
%TO.C,U178*%
X434912500Y-97075000D03*
X434912500Y-97725000D03*
X434912500Y-98375000D03*
X434912500Y-99025000D03*
X434912500Y-99675000D03*
X434912500Y-100325000D03*
X434912500Y-100975000D03*
X434912500Y-101625000D03*
X434912500Y-102275000D03*
X434912500Y-102925000D03*
X440637500Y-102925000D03*
X440637500Y-102275000D03*
X440637500Y-101625000D03*
X440637500Y-100975000D03*
X440637500Y-100325000D03*
X440637500Y-99675000D03*
X440637500Y-99025000D03*
X440637500Y-98375000D03*
X440637500Y-97725000D03*
X440637500Y-97075000D03*
%TD*%
%TO.C,U64*%
X217362500Y-97075000D03*
X217362500Y-97725000D03*
X217362500Y-98375000D03*
X217362500Y-99025000D03*
X217362500Y-99675000D03*
X217362500Y-100325000D03*
X217362500Y-100975000D03*
X217362500Y-101625000D03*
X217362500Y-102275000D03*
X217362500Y-102925000D03*
X223087500Y-102925000D03*
X223087500Y-102275000D03*
X223087500Y-101625000D03*
X223087500Y-100975000D03*
X223087500Y-100325000D03*
X223087500Y-99675000D03*
X223087500Y-99025000D03*
X223087500Y-98375000D03*
X223087500Y-97725000D03*
X223087500Y-97075000D03*
%TD*%
%TO.C,U226*%
X526512500Y-97075000D03*
X526512500Y-97725000D03*
X526512500Y-98375000D03*
X526512500Y-99025000D03*
X526512500Y-99675000D03*
X526512500Y-100325000D03*
X526512500Y-100975000D03*
X526512500Y-101625000D03*
X526512500Y-102275000D03*
X526512500Y-102925000D03*
X532237500Y-102925000D03*
X532237500Y-102275000D03*
X532237500Y-101625000D03*
X532237500Y-100975000D03*
X532237500Y-100325000D03*
X532237500Y-99675000D03*
X532237500Y-99025000D03*
X532237500Y-98375000D03*
X532237500Y-97725000D03*
X532237500Y-97075000D03*
%TD*%
%TO.C,U67*%
X223087500Y-97075000D03*
X223087500Y-97725000D03*
X223087500Y-98375000D03*
X223087500Y-99025000D03*
X223087500Y-99675000D03*
X223087500Y-100325000D03*
X223087500Y-100975000D03*
X223087500Y-101625000D03*
X223087500Y-102275000D03*
X223087500Y-102925000D03*
X228812500Y-102925000D03*
X228812500Y-102275000D03*
X228812500Y-101625000D03*
X228812500Y-100975000D03*
X228812500Y-100325000D03*
X228812500Y-99675000D03*
X228812500Y-99025000D03*
X228812500Y-98375000D03*
X228812500Y-97725000D03*
X228812500Y-97075000D03*
%TD*%
%TO.C,U112*%
X308962500Y-97075000D03*
X308962500Y-97725000D03*
X308962500Y-98375000D03*
X308962500Y-99025000D03*
X308962500Y-99675000D03*
X308962500Y-100325000D03*
X308962500Y-100975000D03*
X308962500Y-101625000D03*
X308962500Y-102275000D03*
X308962500Y-102925000D03*
X314687500Y-102925000D03*
X314687500Y-102275000D03*
X314687500Y-101625000D03*
X314687500Y-100975000D03*
X314687500Y-100325000D03*
X314687500Y-99675000D03*
X314687500Y-99025000D03*
X314687500Y-98375000D03*
X314687500Y-97725000D03*
X314687500Y-97075000D03*
%TD*%
%TO.C,U106*%
X297512500Y-97075000D03*
X297512500Y-97725000D03*
X297512500Y-98375000D03*
X297512500Y-99025000D03*
X297512500Y-99675000D03*
X297512500Y-100325000D03*
X297512500Y-100975000D03*
X297512500Y-101625000D03*
X297512500Y-102275000D03*
X297512500Y-102925000D03*
X303237500Y-102925000D03*
X303237500Y-102275000D03*
X303237500Y-101625000D03*
X303237500Y-100975000D03*
X303237500Y-100325000D03*
X303237500Y-99675000D03*
X303237500Y-99025000D03*
X303237500Y-98375000D03*
X303237500Y-97725000D03*
X303237500Y-97075000D03*
%TD*%
%TO.C,U208*%
X492162500Y-97075000D03*
X492162500Y-97725000D03*
X492162500Y-98375000D03*
X492162500Y-99025000D03*
X492162500Y-99675000D03*
X492162500Y-100325000D03*
X492162500Y-100975000D03*
X492162500Y-101625000D03*
X492162500Y-102275000D03*
X492162500Y-102925000D03*
X497887500Y-102925000D03*
X497887500Y-102275000D03*
X497887500Y-101625000D03*
X497887500Y-100975000D03*
X497887500Y-100325000D03*
X497887500Y-99675000D03*
X497887500Y-99025000D03*
X497887500Y-98375000D03*
X497887500Y-97725000D03*
X497887500Y-97075000D03*
%TD*%
%TO.C,U187*%
X452087500Y-97075000D03*
X452087500Y-97725000D03*
X452087500Y-98375000D03*
X452087500Y-99025000D03*
X452087500Y-99675000D03*
X452087500Y-100325000D03*
X452087500Y-100975000D03*
X452087500Y-101625000D03*
X452087500Y-102275000D03*
X452087500Y-102925000D03*
X457812500Y-102925000D03*
X457812500Y-102275000D03*
X457812500Y-101625000D03*
X457812500Y-100975000D03*
X457812500Y-100325000D03*
X457812500Y-99675000D03*
X457812500Y-99025000D03*
X457812500Y-98375000D03*
X457812500Y-97725000D03*
X457812500Y-97075000D03*
%TD*%
%TO.C,U100*%
X286062500Y-97075000D03*
X286062500Y-97725000D03*
X286062500Y-98375000D03*
X286062500Y-99025000D03*
X286062500Y-99675000D03*
X286062500Y-100325000D03*
X286062500Y-100975000D03*
X286062500Y-101625000D03*
X286062500Y-102275000D03*
X286062500Y-102925000D03*
X291787500Y-102925000D03*
X291787500Y-102275000D03*
X291787500Y-101625000D03*
X291787500Y-100975000D03*
X291787500Y-100325000D03*
X291787500Y-99675000D03*
X291787500Y-99025000D03*
X291787500Y-98375000D03*
X291787500Y-97725000D03*
X291787500Y-97075000D03*
%TD*%
%TO.C,U181*%
X440637500Y-97075000D03*
X440637500Y-97725000D03*
X440637500Y-98375000D03*
X440637500Y-99025000D03*
X440637500Y-99675000D03*
X440637500Y-100325000D03*
X440637500Y-100975000D03*
X440637500Y-101625000D03*
X440637500Y-102275000D03*
X440637500Y-102925000D03*
X446362500Y-102925000D03*
X446362500Y-102275000D03*
X446362500Y-101625000D03*
X446362500Y-100975000D03*
X446362500Y-100325000D03*
X446362500Y-99675000D03*
X446362500Y-99025000D03*
X446362500Y-98375000D03*
X446362500Y-97725000D03*
X446362500Y-97075000D03*
%TD*%
%TO.C,U97*%
X280337500Y-97075000D03*
X280337500Y-97725000D03*
X280337500Y-98375000D03*
X280337500Y-99025000D03*
X280337500Y-99675000D03*
X280337500Y-100325000D03*
X280337500Y-100975000D03*
X280337500Y-101625000D03*
X280337500Y-102275000D03*
X280337500Y-102925000D03*
X286062500Y-102925000D03*
X286062500Y-102275000D03*
X286062500Y-101625000D03*
X286062500Y-100975000D03*
X286062500Y-100325000D03*
X286062500Y-99675000D03*
X286062500Y-99025000D03*
X286062500Y-98375000D03*
X286062500Y-97725000D03*
X286062500Y-97075000D03*
%TD*%
%TO.C,U175*%
X429187500Y-97075000D03*
X429187500Y-97725000D03*
X429187500Y-98375000D03*
X429187500Y-99025000D03*
X429187500Y-99675000D03*
X429187500Y-100325000D03*
X429187500Y-100975000D03*
X429187500Y-101625000D03*
X429187500Y-102275000D03*
X429187500Y-102925000D03*
X434912500Y-102925000D03*
X434912500Y-102275000D03*
X434912500Y-101625000D03*
X434912500Y-100975000D03*
X434912500Y-100325000D03*
X434912500Y-99675000D03*
X434912500Y-99025000D03*
X434912500Y-98375000D03*
X434912500Y-97725000D03*
X434912500Y-97075000D03*
%TD*%
%TO.C,U214*%
X503612500Y-97075000D03*
X503612500Y-97725000D03*
X503612500Y-98375000D03*
X503612500Y-99025000D03*
X503612500Y-99675000D03*
X503612500Y-100325000D03*
X503612500Y-100975000D03*
X503612500Y-101625000D03*
X503612500Y-102275000D03*
X503612500Y-102925000D03*
X509337500Y-102925000D03*
X509337500Y-102275000D03*
X509337500Y-101625000D03*
X509337500Y-100975000D03*
X509337500Y-100325000D03*
X509337500Y-99675000D03*
X509337500Y-99025000D03*
X509337500Y-98375000D03*
X509337500Y-97725000D03*
X509337500Y-97075000D03*
%TD*%
%TO.C,U193*%
X463537500Y-97075000D03*
X463537500Y-97725000D03*
X463537500Y-98375000D03*
X463537500Y-99025000D03*
X463537500Y-99675000D03*
X463537500Y-100325000D03*
X463537500Y-100975000D03*
X463537500Y-101625000D03*
X463537500Y-102275000D03*
X463537500Y-102925000D03*
X469262500Y-102925000D03*
X469262500Y-102275000D03*
X469262500Y-101625000D03*
X469262500Y-100975000D03*
X469262500Y-100325000D03*
X469262500Y-99675000D03*
X469262500Y-99025000D03*
X469262500Y-98375000D03*
X469262500Y-97725000D03*
X469262500Y-97075000D03*
%TD*%
%TO.C,U133*%
X349037500Y-97075000D03*
X349037500Y-97725000D03*
X349037500Y-98375000D03*
X349037500Y-99025000D03*
X349037500Y-99675000D03*
X349037500Y-100325000D03*
X349037500Y-100975000D03*
X349037500Y-101625000D03*
X349037500Y-102275000D03*
X349037500Y-102925000D03*
X354762500Y-102925000D03*
X354762500Y-102275000D03*
X354762500Y-101625000D03*
X354762500Y-100975000D03*
X354762500Y-100325000D03*
X354762500Y-99675000D03*
X354762500Y-99025000D03*
X354762500Y-98375000D03*
X354762500Y-97725000D03*
X354762500Y-97075000D03*
%TD*%
%TO.C,U10*%
X114312500Y-97075000D03*
X114312500Y-97725000D03*
X114312500Y-98375000D03*
X114312500Y-99025000D03*
X114312500Y-99675000D03*
X114312500Y-100325000D03*
X114312500Y-100975000D03*
X114312500Y-101625000D03*
X114312500Y-102275000D03*
X114312500Y-102925000D03*
X120037500Y-102925000D03*
X120037500Y-102275000D03*
X120037500Y-101625000D03*
X120037500Y-100975000D03*
X120037500Y-100325000D03*
X120037500Y-99675000D03*
X120037500Y-99025000D03*
X120037500Y-98375000D03*
X120037500Y-97725000D03*
X120037500Y-97075000D03*
%TD*%
%TO.C,U130*%
X343312500Y-97075000D03*
X343312500Y-97725000D03*
X343312500Y-98375000D03*
X343312500Y-99025000D03*
X343312500Y-99675000D03*
X343312500Y-100325000D03*
X343312500Y-100975000D03*
X343312500Y-101625000D03*
X343312500Y-102275000D03*
X343312500Y-102925000D03*
X349037500Y-102925000D03*
X349037500Y-102275000D03*
X349037500Y-101625000D03*
X349037500Y-100975000D03*
X349037500Y-100325000D03*
X349037500Y-99675000D03*
X349037500Y-99025000D03*
X349037500Y-98375000D03*
X349037500Y-97725000D03*
X349037500Y-97075000D03*
%TD*%
%TO.C,U121*%
X326137500Y-97075000D03*
X326137500Y-97725000D03*
X326137500Y-98375000D03*
X326137500Y-99025000D03*
X326137500Y-99675000D03*
X326137500Y-100325000D03*
X326137500Y-100975000D03*
X326137500Y-101625000D03*
X326137500Y-102275000D03*
X326137500Y-102925000D03*
X331862500Y-102925000D03*
X331862500Y-102275000D03*
X331862500Y-101625000D03*
X331862500Y-100975000D03*
X331862500Y-100325000D03*
X331862500Y-99675000D03*
X331862500Y-99025000D03*
X331862500Y-98375000D03*
X331862500Y-97725000D03*
X331862500Y-97075000D03*
%TD*%
%TO.C,U109*%
X303237500Y-97075000D03*
X303237500Y-97725000D03*
X303237500Y-98375000D03*
X303237500Y-99025000D03*
X303237500Y-99675000D03*
X303237500Y-100325000D03*
X303237500Y-100975000D03*
X303237500Y-101625000D03*
X303237500Y-102275000D03*
X303237500Y-102925000D03*
X308962500Y-102925000D03*
X308962500Y-102275000D03*
X308962500Y-101625000D03*
X308962500Y-100975000D03*
X308962500Y-100325000D03*
X308962500Y-99675000D03*
X308962500Y-99025000D03*
X308962500Y-98375000D03*
X308962500Y-97725000D03*
X308962500Y-97075000D03*
%TD*%
%TO.C,U118*%
X320412500Y-97075000D03*
X320412500Y-97725000D03*
X320412500Y-98375000D03*
X320412500Y-99025000D03*
X320412500Y-99675000D03*
X320412500Y-100325000D03*
X320412500Y-100975000D03*
X320412500Y-101625000D03*
X320412500Y-102275000D03*
X320412500Y-102925000D03*
X326137500Y-102925000D03*
X326137500Y-102275000D03*
X326137500Y-101625000D03*
X326137500Y-100975000D03*
X326137500Y-100325000D03*
X326137500Y-99675000D03*
X326137500Y-99025000D03*
X326137500Y-98375000D03*
X326137500Y-97725000D03*
X326137500Y-97075000D03*
%TD*%
%TO.C,U16*%
X125762500Y-97075000D03*
X125762500Y-97725000D03*
X125762500Y-98375000D03*
X125762500Y-99025000D03*
X125762500Y-99675000D03*
X125762500Y-100325000D03*
X125762500Y-100975000D03*
X125762500Y-101625000D03*
X125762500Y-102275000D03*
X125762500Y-102925000D03*
X131487500Y-102925000D03*
X131487500Y-102275000D03*
X131487500Y-101625000D03*
X131487500Y-100975000D03*
X131487500Y-100325000D03*
X131487500Y-99675000D03*
X131487500Y-99025000D03*
X131487500Y-98375000D03*
X131487500Y-97725000D03*
X131487500Y-97075000D03*
%TD*%
%TO.C,U199*%
X474987500Y-97075000D03*
X474987500Y-97725000D03*
X474987500Y-98375000D03*
X474987500Y-99025000D03*
X474987500Y-99675000D03*
X474987500Y-100325000D03*
X474987500Y-100975000D03*
X474987500Y-101625000D03*
X474987500Y-102275000D03*
X474987500Y-102925000D03*
X480712500Y-102925000D03*
X480712500Y-102275000D03*
X480712500Y-101625000D03*
X480712500Y-100975000D03*
X480712500Y-100325000D03*
X480712500Y-99675000D03*
X480712500Y-99025000D03*
X480712500Y-98375000D03*
X480712500Y-97725000D03*
X480712500Y-97075000D03*
%TD*%
%TO.C,U82*%
X251712500Y-97075000D03*
X251712500Y-97725000D03*
X251712500Y-98375000D03*
X251712500Y-99025000D03*
X251712500Y-99675000D03*
X251712500Y-100325000D03*
X251712500Y-100975000D03*
X251712500Y-101625000D03*
X251712500Y-102275000D03*
X251712500Y-102925000D03*
X257437500Y-102925000D03*
X257437500Y-102275000D03*
X257437500Y-101625000D03*
X257437500Y-100975000D03*
X257437500Y-100325000D03*
X257437500Y-99675000D03*
X257437500Y-99025000D03*
X257437500Y-98375000D03*
X257437500Y-97725000D03*
X257437500Y-97075000D03*
%TD*%
%TO.C,U55*%
X200187500Y-97075000D03*
X200187500Y-97725000D03*
X200187500Y-98375000D03*
X200187500Y-99025000D03*
X200187500Y-99675000D03*
X200187500Y-100325000D03*
X200187500Y-100975000D03*
X200187500Y-101625000D03*
X200187500Y-102275000D03*
X200187500Y-102925000D03*
X205912500Y-102925000D03*
X205912500Y-102275000D03*
X205912500Y-101625000D03*
X205912500Y-100975000D03*
X205912500Y-100325000D03*
X205912500Y-99675000D03*
X205912500Y-99025000D03*
X205912500Y-98375000D03*
X205912500Y-97725000D03*
X205912500Y-97075000D03*
%TD*%
%TO.C,U79*%
X245987500Y-97075000D03*
X245987500Y-97725000D03*
X245987500Y-98375000D03*
X245987500Y-99025000D03*
X245987500Y-99675000D03*
X245987500Y-100325000D03*
X245987500Y-100975000D03*
X245987500Y-101625000D03*
X245987500Y-102275000D03*
X245987500Y-102925000D03*
X251712500Y-102925000D03*
X251712500Y-102275000D03*
X251712500Y-101625000D03*
X251712500Y-100975000D03*
X251712500Y-100325000D03*
X251712500Y-99675000D03*
X251712500Y-99025000D03*
X251712500Y-98375000D03*
X251712500Y-97725000D03*
X251712500Y-97075000D03*
%TD*%
%TO.C,U142*%
X366212500Y-97075000D03*
X366212500Y-97725000D03*
X366212500Y-98375000D03*
X366212500Y-99025000D03*
X366212500Y-99675000D03*
X366212500Y-100325000D03*
X366212500Y-100975000D03*
X366212500Y-101625000D03*
X366212500Y-102275000D03*
X366212500Y-102925000D03*
X371937500Y-102925000D03*
X371937500Y-102275000D03*
X371937500Y-101625000D03*
X371937500Y-100975000D03*
X371937500Y-100325000D03*
X371937500Y-99675000D03*
X371937500Y-99025000D03*
X371937500Y-98375000D03*
X371937500Y-97725000D03*
X371937500Y-97075000D03*
%TD*%
%TO.C,U154*%
X389112500Y-97075000D03*
X389112500Y-97725000D03*
X389112500Y-98375000D03*
X389112500Y-99025000D03*
X389112500Y-99675000D03*
X389112500Y-100325000D03*
X389112500Y-100975000D03*
X389112500Y-101625000D03*
X389112500Y-102275000D03*
X389112500Y-102925000D03*
X394837500Y-102925000D03*
X394837500Y-102275000D03*
X394837500Y-101625000D03*
X394837500Y-100975000D03*
X394837500Y-100325000D03*
X394837500Y-99675000D03*
X394837500Y-99025000D03*
X394837500Y-98375000D03*
X394837500Y-97725000D03*
X394837500Y-97075000D03*
%TD*%
%TO.C,U76*%
X240262500Y-97075000D03*
X240262500Y-97725000D03*
X240262500Y-98375000D03*
X240262500Y-99025000D03*
X240262500Y-99675000D03*
X240262500Y-100325000D03*
X240262500Y-100975000D03*
X240262500Y-101625000D03*
X240262500Y-102275000D03*
X240262500Y-102925000D03*
X245987500Y-102925000D03*
X245987500Y-102275000D03*
X245987500Y-101625000D03*
X245987500Y-100975000D03*
X245987500Y-100325000D03*
X245987500Y-99675000D03*
X245987500Y-99025000D03*
X245987500Y-98375000D03*
X245987500Y-97725000D03*
X245987500Y-97075000D03*
%TD*%
%TO.C,U4*%
X102862500Y-97075000D03*
X102862500Y-97725000D03*
X102862500Y-98375000D03*
X102862500Y-99025000D03*
X102862500Y-99675000D03*
X102862500Y-100325000D03*
X102862500Y-100975000D03*
X102862500Y-101625000D03*
X102862500Y-102275000D03*
X102862500Y-102925000D03*
X108587500Y-102925000D03*
X108587500Y-102275000D03*
X108587500Y-101625000D03*
X108587500Y-100975000D03*
X108587500Y-100325000D03*
X108587500Y-99675000D03*
X108587500Y-99025000D03*
X108587500Y-98375000D03*
X108587500Y-97725000D03*
X108587500Y-97075000D03*
%TD*%
%TO.C,U70*%
X228812500Y-97075000D03*
X228812500Y-97725000D03*
X228812500Y-98375000D03*
X228812500Y-99025000D03*
X228812500Y-99675000D03*
X228812500Y-100325000D03*
X228812500Y-100975000D03*
X228812500Y-101625000D03*
X228812500Y-102275000D03*
X228812500Y-102925000D03*
X234537500Y-102925000D03*
X234537500Y-102275000D03*
X234537500Y-101625000D03*
X234537500Y-100975000D03*
X234537500Y-100325000D03*
X234537500Y-99675000D03*
X234537500Y-99025000D03*
X234537500Y-98375000D03*
X234537500Y-97725000D03*
X234537500Y-97075000D03*
%TD*%
%TO.C,U205*%
X486437500Y-97075000D03*
X486437500Y-97725000D03*
X486437500Y-98375000D03*
X486437500Y-99025000D03*
X486437500Y-99675000D03*
X486437500Y-100325000D03*
X486437500Y-100975000D03*
X486437500Y-101625000D03*
X486437500Y-102275000D03*
X486437500Y-102925000D03*
X492162500Y-102925000D03*
X492162500Y-102275000D03*
X492162500Y-101625000D03*
X492162500Y-100975000D03*
X492162500Y-100325000D03*
X492162500Y-99675000D03*
X492162500Y-99025000D03*
X492162500Y-98375000D03*
X492162500Y-97725000D03*
X492162500Y-97075000D03*
%TD*%
%TO.C,U31*%
X154387500Y-97075000D03*
X154387500Y-97725000D03*
X154387500Y-98375000D03*
X154387500Y-99025000D03*
X154387500Y-99675000D03*
X154387500Y-100325000D03*
X154387500Y-100975000D03*
X154387500Y-101625000D03*
X154387500Y-102275000D03*
X154387500Y-102925000D03*
X160112500Y-102925000D03*
X160112500Y-102275000D03*
X160112500Y-101625000D03*
X160112500Y-100975000D03*
X160112500Y-100325000D03*
X160112500Y-99675000D03*
X160112500Y-99025000D03*
X160112500Y-98375000D03*
X160112500Y-97725000D03*
X160112500Y-97075000D03*
%TD*%
%TO.C,U127*%
X337587500Y-97075000D03*
X337587500Y-97725000D03*
X337587500Y-98375000D03*
X337587500Y-99025000D03*
X337587500Y-99675000D03*
X337587500Y-100325000D03*
X337587500Y-100975000D03*
X337587500Y-101625000D03*
X337587500Y-102275000D03*
X337587500Y-102925000D03*
X343312500Y-102925000D03*
X343312500Y-102275000D03*
X343312500Y-101625000D03*
X343312500Y-100975000D03*
X343312500Y-100325000D03*
X343312500Y-99675000D03*
X343312500Y-99025000D03*
X343312500Y-98375000D03*
X343312500Y-97725000D03*
X343312500Y-97075000D03*
%TD*%
%TO.C,U43*%
X177287500Y-97075000D03*
X177287500Y-97725000D03*
X177287500Y-98375000D03*
X177287500Y-99025000D03*
X177287500Y-99675000D03*
X177287500Y-100325000D03*
X177287500Y-100975000D03*
X177287500Y-101625000D03*
X177287500Y-102275000D03*
X177287500Y-102925000D03*
X183012500Y-102925000D03*
X183012500Y-102275000D03*
X183012500Y-101625000D03*
X183012500Y-100975000D03*
X183012500Y-100325000D03*
X183012500Y-99675000D03*
X183012500Y-99025000D03*
X183012500Y-98375000D03*
X183012500Y-97725000D03*
X183012500Y-97075000D03*
%TD*%
%TO.C,U229*%
X532237500Y-97075000D03*
X532237500Y-97725000D03*
X532237500Y-98375000D03*
X532237500Y-99025000D03*
X532237500Y-99675000D03*
X532237500Y-100325000D03*
X532237500Y-100975000D03*
X532237500Y-101625000D03*
X532237500Y-102275000D03*
X532237500Y-102925000D03*
X537962500Y-102925000D03*
X537962500Y-102275000D03*
X537962500Y-101625000D03*
X537962500Y-100975000D03*
X537962500Y-100325000D03*
X537962500Y-99675000D03*
X537962500Y-99025000D03*
X537962500Y-98375000D03*
X537962500Y-97725000D03*
X537962500Y-97075000D03*
%TD*%
%TO.C,U34*%
X160112500Y-97075000D03*
X160112500Y-97725000D03*
X160112500Y-98375000D03*
X160112500Y-99025000D03*
X160112500Y-99675000D03*
X160112500Y-100325000D03*
X160112500Y-100975000D03*
X160112500Y-101625000D03*
X160112500Y-102275000D03*
X160112500Y-102925000D03*
X165837500Y-102925000D03*
X165837500Y-102275000D03*
X165837500Y-101625000D03*
X165837500Y-100975000D03*
X165837500Y-100325000D03*
X165837500Y-99675000D03*
X165837500Y-99025000D03*
X165837500Y-98375000D03*
X165837500Y-97725000D03*
X165837500Y-97075000D03*
%TD*%
%TO.C,U223*%
X520787500Y-97075000D03*
X520787500Y-97725000D03*
X520787500Y-98375000D03*
X520787500Y-99025000D03*
X520787500Y-99675000D03*
X520787500Y-100325000D03*
X520787500Y-100975000D03*
X520787500Y-101625000D03*
X520787500Y-102275000D03*
X520787500Y-102925000D03*
X526512500Y-102925000D03*
X526512500Y-102275000D03*
X526512500Y-101625000D03*
X526512500Y-100975000D03*
X526512500Y-100325000D03*
X526512500Y-99675000D03*
X526512500Y-99025000D03*
X526512500Y-98375000D03*
X526512500Y-97725000D03*
X526512500Y-97075000D03*
%TD*%
%TO.C,U91*%
X268887500Y-97075000D03*
X268887500Y-97725000D03*
X268887500Y-98375000D03*
X268887500Y-99025000D03*
X268887500Y-99675000D03*
X268887500Y-100325000D03*
X268887500Y-100975000D03*
X268887500Y-101625000D03*
X268887500Y-102275000D03*
X268887500Y-102925000D03*
X274612500Y-102925000D03*
X274612500Y-102275000D03*
X274612500Y-101625000D03*
X274612500Y-100975000D03*
X274612500Y-100325000D03*
X274612500Y-99675000D03*
X274612500Y-99025000D03*
X274612500Y-98375000D03*
X274612500Y-97725000D03*
X274612500Y-97075000D03*
%TD*%
%TO.C,U49*%
X188737500Y-97075000D03*
X188737500Y-97725000D03*
X188737500Y-98375000D03*
X188737500Y-99025000D03*
X188737500Y-99675000D03*
X188737500Y-100325000D03*
X188737500Y-100975000D03*
X188737500Y-101625000D03*
X188737500Y-102275000D03*
X188737500Y-102925000D03*
X194462500Y-102925000D03*
X194462500Y-102275000D03*
X194462500Y-101625000D03*
X194462500Y-100975000D03*
X194462500Y-100325000D03*
X194462500Y-99675000D03*
X194462500Y-99025000D03*
X194462500Y-98375000D03*
X194462500Y-97725000D03*
X194462500Y-97075000D03*
%TD*%
%TO.C,U190*%
X457812500Y-97075000D03*
X457812500Y-97725000D03*
X457812500Y-98375000D03*
X457812500Y-99025000D03*
X457812500Y-99675000D03*
X457812500Y-100325000D03*
X457812500Y-100975000D03*
X457812500Y-101625000D03*
X457812500Y-102275000D03*
X457812500Y-102925000D03*
X463537500Y-102925000D03*
X463537500Y-102275000D03*
X463537500Y-101625000D03*
X463537500Y-100975000D03*
X463537500Y-100325000D03*
X463537500Y-99675000D03*
X463537500Y-99025000D03*
X463537500Y-98375000D03*
X463537500Y-97725000D03*
X463537500Y-97075000D03*
%TD*%
%TO.C,U25*%
X142937500Y-97075000D03*
X142937500Y-97725000D03*
X142937500Y-98375000D03*
X142937500Y-99025000D03*
X142937500Y-99675000D03*
X142937500Y-100325000D03*
X142937500Y-100975000D03*
X142937500Y-101625000D03*
X142937500Y-102275000D03*
X142937500Y-102925000D03*
X148662500Y-102925000D03*
X148662500Y-102275000D03*
X148662500Y-101625000D03*
X148662500Y-100975000D03*
X148662500Y-100325000D03*
X148662500Y-99675000D03*
X148662500Y-99025000D03*
X148662500Y-98375000D03*
X148662500Y-97725000D03*
X148662500Y-97075000D03*
%TD*%
%TO.C,U88*%
X263162500Y-97075000D03*
X263162500Y-97725000D03*
X263162500Y-98375000D03*
X263162500Y-99025000D03*
X263162500Y-99675000D03*
X263162500Y-100325000D03*
X263162500Y-100975000D03*
X263162500Y-101625000D03*
X263162500Y-102275000D03*
X263162500Y-102925000D03*
X268887500Y-102925000D03*
X268887500Y-102275000D03*
X268887500Y-101625000D03*
X268887500Y-100975000D03*
X268887500Y-100325000D03*
X268887500Y-99675000D03*
X268887500Y-99025000D03*
X268887500Y-98375000D03*
X268887500Y-97725000D03*
X268887500Y-97075000D03*
%TD*%
%TO.C,U58*%
X205912500Y-97075000D03*
X205912500Y-97725000D03*
X205912500Y-98375000D03*
X205912500Y-99025000D03*
X205912500Y-99675000D03*
X205912500Y-100325000D03*
X205912500Y-100975000D03*
X205912500Y-101625000D03*
X205912500Y-102275000D03*
X205912500Y-102925000D03*
X211637500Y-102925000D03*
X211637500Y-102275000D03*
X211637500Y-101625000D03*
X211637500Y-100975000D03*
X211637500Y-100325000D03*
X211637500Y-99675000D03*
X211637500Y-99025000D03*
X211637500Y-98375000D03*
X211637500Y-97725000D03*
X211637500Y-97075000D03*
%TD*%
%TO.C,U139*%
X360487500Y-97075000D03*
X360487500Y-97725000D03*
X360487500Y-98375000D03*
X360487500Y-99025000D03*
X360487500Y-99675000D03*
X360487500Y-100325000D03*
X360487500Y-100975000D03*
X360487500Y-101625000D03*
X360487500Y-102275000D03*
X360487500Y-102925000D03*
X366212500Y-102925000D03*
X366212500Y-102275000D03*
X366212500Y-101625000D03*
X366212500Y-100975000D03*
X366212500Y-100325000D03*
X366212500Y-99675000D03*
X366212500Y-99025000D03*
X366212500Y-98375000D03*
X366212500Y-97725000D03*
X366212500Y-97075000D03*
%TD*%
%TO.C,U145*%
X371937500Y-97075000D03*
X371937500Y-97725000D03*
X371937500Y-98375000D03*
X371937500Y-99025000D03*
X371937500Y-99675000D03*
X371937500Y-100325000D03*
X371937500Y-100975000D03*
X371937500Y-101625000D03*
X371937500Y-102275000D03*
X371937500Y-102925000D03*
X377662500Y-102925000D03*
X377662500Y-102275000D03*
X377662500Y-101625000D03*
X377662500Y-100975000D03*
X377662500Y-100325000D03*
X377662500Y-99675000D03*
X377662500Y-99025000D03*
X377662500Y-98375000D03*
X377662500Y-97725000D03*
X377662500Y-97075000D03*
%TD*%
%TO.C,U73*%
X234537500Y-97075000D03*
X234537500Y-97725000D03*
X234537500Y-98375000D03*
X234537500Y-99025000D03*
X234537500Y-99675000D03*
X234537500Y-100325000D03*
X234537500Y-100975000D03*
X234537500Y-101625000D03*
X234537500Y-102275000D03*
X234537500Y-102925000D03*
X240262500Y-102925000D03*
X240262500Y-102275000D03*
X240262500Y-101625000D03*
X240262500Y-100975000D03*
X240262500Y-100325000D03*
X240262500Y-99675000D03*
X240262500Y-99025000D03*
X240262500Y-98375000D03*
X240262500Y-97725000D03*
X240262500Y-97075000D03*
%TD*%
%TO.C,U22*%
X137212500Y-97075000D03*
X137212500Y-97725000D03*
X137212500Y-98375000D03*
X137212500Y-99025000D03*
X137212500Y-99675000D03*
X137212500Y-100325000D03*
X137212500Y-100975000D03*
X137212500Y-101625000D03*
X137212500Y-102275000D03*
X137212500Y-102925000D03*
X142937500Y-102925000D03*
X142937500Y-102275000D03*
X142937500Y-101625000D03*
X142937500Y-100975000D03*
X142937500Y-100325000D03*
X142937500Y-99675000D03*
X142937500Y-99025000D03*
X142937500Y-98375000D03*
X142937500Y-97725000D03*
X142937500Y-97075000D03*
%TD*%
%TO.C,U28*%
X148662500Y-97075000D03*
X148662500Y-97725000D03*
X148662500Y-98375000D03*
X148662500Y-99025000D03*
X148662500Y-99675000D03*
X148662500Y-100325000D03*
X148662500Y-100975000D03*
X148662500Y-101625000D03*
X148662500Y-102275000D03*
X148662500Y-102925000D03*
X154387500Y-102925000D03*
X154387500Y-102275000D03*
X154387500Y-101625000D03*
X154387500Y-100975000D03*
X154387500Y-100325000D03*
X154387500Y-99675000D03*
X154387500Y-99025000D03*
X154387500Y-98375000D03*
X154387500Y-97725000D03*
X154387500Y-97075000D03*
%TD*%
%TO.C,U160*%
X400562500Y-97075000D03*
X400562500Y-97725000D03*
X400562500Y-98375000D03*
X400562500Y-99025000D03*
X400562500Y-99675000D03*
X400562500Y-100325000D03*
X400562500Y-100975000D03*
X400562500Y-101625000D03*
X400562500Y-102275000D03*
X400562500Y-102925000D03*
X406287500Y-102925000D03*
X406287500Y-102275000D03*
X406287500Y-101625000D03*
X406287500Y-100975000D03*
X406287500Y-100325000D03*
X406287500Y-99675000D03*
X406287500Y-99025000D03*
X406287500Y-98375000D03*
X406287500Y-97725000D03*
X406287500Y-97075000D03*
%TD*%
%TO.C,U235*%
X543687500Y-97075000D03*
X543687500Y-97725000D03*
X543687500Y-98375000D03*
X543687500Y-99025000D03*
X543687500Y-99675000D03*
X543687500Y-100325000D03*
X543687500Y-100975000D03*
X543687500Y-101625000D03*
X543687500Y-102275000D03*
X543687500Y-102925000D03*
X549412500Y-102925000D03*
X549412500Y-102275000D03*
X549412500Y-101625000D03*
X549412500Y-100975000D03*
X549412500Y-100325000D03*
X549412500Y-99675000D03*
X549412500Y-99025000D03*
X549412500Y-98375000D03*
X549412500Y-97725000D03*
X549412500Y-97075000D03*
%TD*%
%TO.C,U7*%
X108587500Y-97075000D03*
X108587500Y-97725000D03*
X108587500Y-98375000D03*
X108587500Y-99025000D03*
X108587500Y-99675000D03*
X108587500Y-100325000D03*
X108587500Y-100975000D03*
X108587500Y-101625000D03*
X108587500Y-102275000D03*
X108587500Y-102925000D03*
X114312500Y-102925000D03*
X114312500Y-102275000D03*
X114312500Y-101625000D03*
X114312500Y-100975000D03*
X114312500Y-100325000D03*
X114312500Y-99675000D03*
X114312500Y-99025000D03*
X114312500Y-98375000D03*
X114312500Y-97725000D03*
X114312500Y-97075000D03*
%TD*%
%TO.C,U166*%
X412012500Y-97075000D03*
X412012500Y-97725000D03*
X412012500Y-98375000D03*
X412012500Y-99025000D03*
X412012500Y-99675000D03*
X412012500Y-100325000D03*
X412012500Y-100975000D03*
X412012500Y-101625000D03*
X412012500Y-102275000D03*
X412012500Y-102925000D03*
X417737500Y-102925000D03*
X417737500Y-102275000D03*
X417737500Y-101625000D03*
X417737500Y-100975000D03*
X417737500Y-100325000D03*
X417737500Y-99675000D03*
X417737500Y-99025000D03*
X417737500Y-98375000D03*
X417737500Y-97725000D03*
X417737500Y-97075000D03*
%TD*%
%TO.C,U184*%
X446362500Y-97075000D03*
X446362500Y-97725000D03*
X446362500Y-98375000D03*
X446362500Y-99025000D03*
X446362500Y-99675000D03*
X446362500Y-100325000D03*
X446362500Y-100975000D03*
X446362500Y-101625000D03*
X446362500Y-102275000D03*
X446362500Y-102925000D03*
X452087500Y-102925000D03*
X452087500Y-102275000D03*
X452087500Y-101625000D03*
X452087500Y-100975000D03*
X452087500Y-100325000D03*
X452087500Y-99675000D03*
X452087500Y-99025000D03*
X452087500Y-98375000D03*
X452087500Y-97725000D03*
X452087500Y-97075000D03*
%TD*%
%TO.C,U169*%
X417737500Y-97075000D03*
X417737500Y-97725000D03*
X417737500Y-98375000D03*
X417737500Y-99025000D03*
X417737500Y-99675000D03*
X417737500Y-100325000D03*
X417737500Y-100975000D03*
X417737500Y-101625000D03*
X417737500Y-102275000D03*
X417737500Y-102925000D03*
X423462500Y-102925000D03*
X423462500Y-102275000D03*
X423462500Y-101625000D03*
X423462500Y-100975000D03*
X423462500Y-100325000D03*
X423462500Y-99675000D03*
X423462500Y-99025000D03*
X423462500Y-98375000D03*
X423462500Y-97725000D03*
X423462500Y-97075000D03*
%TD*%
%TO.C,U85*%
X257437500Y-97075000D03*
X257437500Y-97725000D03*
X257437500Y-98375000D03*
X257437500Y-99025000D03*
X257437500Y-99675000D03*
X257437500Y-100325000D03*
X257437500Y-100975000D03*
X257437500Y-101625000D03*
X257437500Y-102275000D03*
X257437500Y-102925000D03*
X263162500Y-102925000D03*
X263162500Y-102275000D03*
X263162500Y-101625000D03*
X263162500Y-100975000D03*
X263162500Y-100325000D03*
X263162500Y-99675000D03*
X263162500Y-99025000D03*
X263162500Y-98375000D03*
X263162500Y-97725000D03*
X263162500Y-97075000D03*
%TD*%
%TO.C,U94*%
X274612500Y-97075000D03*
X274612500Y-97725000D03*
X274612500Y-98375000D03*
X274612500Y-99025000D03*
X274612500Y-99675000D03*
X274612500Y-100325000D03*
X274612500Y-100975000D03*
X274612500Y-101625000D03*
X274612500Y-102275000D03*
X274612500Y-102925000D03*
X280337500Y-102925000D03*
X280337500Y-102275000D03*
X280337500Y-101625000D03*
X280337500Y-100975000D03*
X280337500Y-100325000D03*
X280337500Y-99675000D03*
X280337500Y-99025000D03*
X280337500Y-98375000D03*
X280337500Y-97725000D03*
X280337500Y-97075000D03*
%TD*%
%TO.C,U1*%
X97137500Y-97075000D03*
X97137500Y-97725000D03*
X97137500Y-98375000D03*
X97137500Y-99025000D03*
X97137500Y-99675000D03*
X97137500Y-100325000D03*
X97137500Y-100975000D03*
X97137500Y-101625000D03*
X97137500Y-102275000D03*
X97137500Y-102925000D03*
X102862500Y-102925000D03*
X102862500Y-102275000D03*
X102862500Y-101625000D03*
X102862500Y-100975000D03*
X102862500Y-100325000D03*
X102862500Y-99675000D03*
X102862500Y-99025000D03*
X102862500Y-98375000D03*
X102862500Y-97725000D03*
X102862500Y-97075000D03*
%TD*%
%TO.C,U241*%
X555137500Y-97075000D03*
X555137500Y-97725000D03*
X555137500Y-98375000D03*
X555137500Y-99025000D03*
X555137500Y-99675000D03*
X555137500Y-100325000D03*
X555137500Y-100975000D03*
X555137500Y-101625000D03*
X555137500Y-102275000D03*
X555137500Y-102925000D03*
X560862500Y-102925000D03*
X560862500Y-102275000D03*
X560862500Y-101625000D03*
X560862500Y-100975000D03*
X560862500Y-100325000D03*
X560862500Y-99675000D03*
X560862500Y-99025000D03*
X560862500Y-98375000D03*
X560862500Y-97725000D03*
X560862500Y-97075000D03*
%TD*%
%TO.C,U13*%
X120037500Y-97075000D03*
X120037500Y-97725000D03*
X120037500Y-98375000D03*
X120037500Y-99025000D03*
X120037500Y-99675000D03*
X120037500Y-100325000D03*
X120037500Y-100975000D03*
X120037500Y-101625000D03*
X120037500Y-102275000D03*
X120037500Y-102925000D03*
X125762500Y-102925000D03*
X125762500Y-102275000D03*
X125762500Y-101625000D03*
X125762500Y-100975000D03*
X125762500Y-100325000D03*
X125762500Y-99675000D03*
X125762500Y-99025000D03*
X125762500Y-98375000D03*
X125762500Y-97725000D03*
X125762500Y-97075000D03*
%TD*%
%TO.C,U238*%
X549412500Y-97075000D03*
X549412500Y-97725000D03*
X549412500Y-98375000D03*
X549412500Y-99025000D03*
X549412500Y-99675000D03*
X549412500Y-100325000D03*
X549412500Y-100975000D03*
X549412500Y-101625000D03*
X549412500Y-102275000D03*
X549412500Y-102925000D03*
X555137500Y-102925000D03*
X555137500Y-102275000D03*
X555137500Y-101625000D03*
X555137500Y-100975000D03*
X555137500Y-100325000D03*
X555137500Y-99675000D03*
X555137500Y-99025000D03*
X555137500Y-98375000D03*
X555137500Y-97725000D03*
X555137500Y-97075000D03*
%TD*%
%TO.C,U151*%
X383387500Y-97075000D03*
X383387500Y-97725000D03*
X383387500Y-98375000D03*
X383387500Y-99025000D03*
X383387500Y-99675000D03*
X383387500Y-100325000D03*
X383387500Y-100975000D03*
X383387500Y-101625000D03*
X383387500Y-102275000D03*
X383387500Y-102925000D03*
X389112500Y-102925000D03*
X389112500Y-102275000D03*
X389112500Y-101625000D03*
X389112500Y-100975000D03*
X389112500Y-100325000D03*
X389112500Y-99675000D03*
X389112500Y-99025000D03*
X389112500Y-98375000D03*
X389112500Y-97725000D03*
X389112500Y-97075000D03*
%TD*%
%TO.C,U211*%
X497887500Y-97075000D03*
X497887500Y-97725000D03*
X497887500Y-98375000D03*
X497887500Y-99025000D03*
X497887500Y-99675000D03*
X497887500Y-100325000D03*
X497887500Y-100975000D03*
X497887500Y-101625000D03*
X497887500Y-102275000D03*
X497887500Y-102925000D03*
X503612500Y-102925000D03*
X503612500Y-102275000D03*
X503612500Y-101625000D03*
X503612500Y-100975000D03*
X503612500Y-100325000D03*
X503612500Y-99675000D03*
X503612500Y-99025000D03*
X503612500Y-98375000D03*
X503612500Y-97725000D03*
X503612500Y-97075000D03*
%TD*%
M02*
