M48
; DRILL file {KiCad 7.0.1} date 2023-04-19T21:29:52 CEST
; FORMAT={-:-/ absolute / metric / decimal}
; #@! TF.CreationDate,2023-04-19T21:29:52+02:00
; #@! TF.GenerationSoftware,Kicad,Pcbnew,7.0.1
; #@! TF.FileFunction,Plated,1,2,PTH
FMAT,2
METRIC
; #@! TA.AperFunction,Plated,PTH,ComponentDrill
T1C0.400
%
G90
G05
T1
X97.137Y-97.075
X97.137Y-97.725
X97.137Y-98.375
X97.137Y-99.025
X97.137Y-99.675
X97.137Y-100.325
X97.137Y-100.975
X97.137Y-101.625
X97.137Y-102.275
X97.137Y-102.925
X102.862Y-97.075
X102.862Y-97.075
X102.862Y-97.725
X102.862Y-97.725
X102.862Y-98.375
X102.862Y-98.375
X102.862Y-99.025
X102.862Y-99.025
X102.862Y-99.675
X102.862Y-99.675
X102.862Y-100.325
X102.862Y-100.325
X102.862Y-100.975
X102.862Y-100.975
X102.862Y-101.625
X102.862Y-101.625
X102.862Y-102.275
X102.862Y-102.275
X102.862Y-102.925
X102.862Y-102.925
X108.587Y-97.075
X108.587Y-97.075
X108.587Y-97.725
X108.587Y-97.725
X108.587Y-98.375
X108.587Y-98.375
X108.587Y-99.025
X108.587Y-99.025
X108.587Y-99.675
X108.587Y-99.675
X108.587Y-100.325
X108.587Y-100.325
X108.587Y-100.975
X108.587Y-100.975
X108.587Y-101.625
X108.587Y-101.625
X108.587Y-102.275
X108.587Y-102.275
X108.587Y-102.925
X108.587Y-102.925
X114.312Y-97.075
X114.312Y-97.075
X114.312Y-97.725
X114.312Y-97.725
X114.312Y-98.375
X114.312Y-98.375
X114.312Y-99.025
X114.312Y-99.025
X114.312Y-99.675
X114.312Y-99.675
X114.312Y-100.325
X114.312Y-100.325
X114.312Y-100.975
X114.312Y-100.975
X114.312Y-101.625
X114.312Y-101.625
X114.312Y-102.275
X114.312Y-102.275
X114.312Y-102.925
X114.312Y-102.925
X120.037Y-97.075
X120.037Y-97.075
X120.037Y-97.725
X120.037Y-97.725
X120.037Y-98.375
X120.037Y-98.375
X120.037Y-99.025
X120.037Y-99.025
X120.037Y-99.675
X120.037Y-99.675
X120.037Y-100.325
X120.037Y-100.325
X120.037Y-100.975
X120.037Y-100.975
X120.037Y-101.625
X120.037Y-101.625
X120.037Y-102.275
X120.037Y-102.275
X120.037Y-102.925
X120.037Y-102.925
X125.762Y-97.075
X125.762Y-97.075
X125.762Y-97.725
X125.762Y-97.725
X125.762Y-98.375
X125.762Y-98.375
X125.762Y-99.025
X125.762Y-99.025
X125.762Y-99.675
X125.762Y-99.675
X125.762Y-100.325
X125.762Y-100.325
X125.762Y-100.975
X125.762Y-100.975
X125.762Y-101.625
X125.762Y-101.625
X125.762Y-102.275
X125.762Y-102.275
X125.762Y-102.925
X125.762Y-102.925
X131.487Y-97.075
X131.487Y-97.075
X131.487Y-97.725
X131.487Y-97.725
X131.487Y-98.375
X131.487Y-98.375
X131.487Y-99.025
X131.487Y-99.025
X131.487Y-99.675
X131.487Y-99.675
X131.487Y-100.325
X131.487Y-100.325
X131.487Y-100.975
X131.487Y-100.975
X131.487Y-101.625
X131.487Y-101.625
X131.487Y-102.275
X131.487Y-102.275
X131.487Y-102.925
X131.487Y-102.925
X137.213Y-97.075
X137.213Y-97.075
X137.213Y-97.725
X137.213Y-97.725
X137.213Y-98.375
X137.213Y-98.375
X137.213Y-99.025
X137.213Y-99.025
X137.213Y-99.675
X137.213Y-99.675
X137.213Y-100.325
X137.213Y-100.325
X137.213Y-100.975
X137.213Y-100.975
X137.213Y-101.625
X137.213Y-101.625
X137.213Y-102.275
X137.213Y-102.275
X137.213Y-102.925
X137.213Y-102.925
X142.938Y-97.075
X142.938Y-97.075
X142.938Y-97.725
X142.938Y-97.725
X142.938Y-98.375
X142.938Y-98.375
X142.938Y-99.025
X142.938Y-99.025
X142.938Y-99.675
X142.938Y-99.675
X142.938Y-100.325
X142.938Y-100.325
X142.938Y-100.975
X142.938Y-100.975
X142.938Y-101.625
X142.938Y-101.625
X142.938Y-102.275
X142.938Y-102.275
X142.938Y-102.925
X142.938Y-102.925
X148.662Y-97.075
X148.662Y-97.075
X148.662Y-97.725
X148.662Y-97.725
X148.662Y-98.375
X148.662Y-98.375
X148.662Y-99.025
X148.662Y-99.025
X148.662Y-99.675
X148.662Y-99.675
X148.662Y-100.325
X148.662Y-100.325
X148.662Y-100.975
X148.662Y-100.975
X148.662Y-101.625
X148.662Y-101.625
X148.662Y-102.275
X148.662Y-102.275
X148.662Y-102.925
X148.662Y-102.925
X154.387Y-97.075
X154.387Y-97.075
X154.387Y-97.725
X154.387Y-97.725
X154.387Y-98.375
X154.387Y-98.375
X154.387Y-99.025
X154.387Y-99.025
X154.387Y-99.675
X154.387Y-99.675
X154.387Y-100.325
X154.387Y-100.325
X154.387Y-100.975
X154.387Y-100.975
X154.387Y-101.625
X154.387Y-101.625
X154.387Y-102.275
X154.387Y-102.275
X154.387Y-102.925
X154.387Y-102.925
X160.112Y-97.075
X160.112Y-97.075
X160.112Y-97.725
X160.112Y-97.725
X160.112Y-98.375
X160.112Y-98.375
X160.112Y-99.025
X160.112Y-99.025
X160.112Y-99.675
X160.112Y-99.675
X160.112Y-100.325
X160.112Y-100.325
X160.112Y-100.975
X160.112Y-100.975
X160.112Y-101.625
X160.112Y-101.625
X160.112Y-102.275
X160.112Y-102.275
X160.112Y-102.925
X160.112Y-102.925
X165.838Y-97.075
X165.838Y-97.075
X165.838Y-97.725
X165.838Y-97.725
X165.838Y-98.375
X165.838Y-98.375
X165.838Y-99.025
X165.838Y-99.025
X165.838Y-99.675
X165.838Y-99.675
X165.838Y-100.325
X165.838Y-100.325
X165.838Y-100.975
X165.838Y-100.975
X165.838Y-101.625
X165.838Y-101.625
X165.838Y-102.275
X165.838Y-102.275
X165.838Y-102.925
X165.838Y-102.925
X171.562Y-97.075
X171.562Y-97.075
X171.562Y-97.725
X171.562Y-97.725
X171.562Y-98.375
X171.562Y-98.375
X171.562Y-99.025
X171.562Y-99.025
X171.562Y-99.675
X171.562Y-99.675
X171.562Y-100.325
X171.562Y-100.325
X171.562Y-100.975
X171.562Y-100.975
X171.562Y-101.625
X171.562Y-101.625
X171.562Y-102.275
X171.562Y-102.275
X171.562Y-102.925
X171.562Y-102.925
X177.287Y-97.075
X177.287Y-97.075
X177.287Y-97.725
X177.287Y-97.725
X177.287Y-98.375
X177.287Y-98.375
X177.287Y-99.025
X177.287Y-99.025
X177.287Y-99.675
X177.287Y-99.675
X177.287Y-100.325
X177.287Y-100.325
X177.287Y-100.975
X177.287Y-100.975
X177.287Y-101.625
X177.287Y-101.625
X177.287Y-102.275
X177.287Y-102.275
X177.287Y-102.925
X177.287Y-102.925
X183.012Y-97.075
X183.012Y-97.075
X183.012Y-97.725
X183.012Y-97.725
X183.012Y-98.375
X183.012Y-98.375
X183.012Y-99.025
X183.012Y-99.025
X183.012Y-99.675
X183.012Y-99.675
X183.012Y-100.325
X183.012Y-100.325
X183.012Y-100.975
X183.012Y-100.975
X183.012Y-101.625
X183.012Y-101.625
X183.012Y-102.275
X183.012Y-102.275
X183.012Y-102.925
X183.012Y-102.925
X188.737Y-97.075
X188.737Y-97.075
X188.737Y-97.725
X188.737Y-97.725
X188.737Y-98.375
X188.737Y-98.375
X188.737Y-99.025
X188.737Y-99.025
X188.737Y-99.675
X188.737Y-99.675
X188.737Y-100.325
X188.737Y-100.325
X188.737Y-100.975
X188.737Y-100.975
X188.737Y-101.625
X188.737Y-101.625
X188.737Y-102.275
X188.737Y-102.275
X188.737Y-102.925
X188.737Y-102.925
X194.462Y-97.075
X194.462Y-97.075
X194.462Y-97.725
X194.462Y-97.725
X194.462Y-98.375
X194.462Y-98.375
X194.462Y-99.025
X194.462Y-99.025
X194.462Y-99.675
X194.462Y-99.675
X194.462Y-100.325
X194.462Y-100.325
X194.462Y-100.975
X194.462Y-100.975
X194.462Y-101.625
X194.462Y-101.625
X194.462Y-102.275
X194.462Y-102.275
X194.462Y-102.925
X194.462Y-102.925
X200.188Y-97.075
X200.188Y-97.075
X200.188Y-97.725
X200.188Y-97.725
X200.188Y-98.375
X200.188Y-98.375
X200.188Y-99.025
X200.188Y-99.025
X200.188Y-99.675
X200.188Y-99.675
X200.188Y-100.325
X200.188Y-100.325
X200.188Y-100.975
X200.188Y-100.975
X200.188Y-101.625
X200.188Y-101.625
X200.188Y-102.275
X200.188Y-102.275
X200.188Y-102.925
X200.188Y-102.925
X205.912Y-97.075
X205.912Y-97.075
X205.912Y-97.725
X205.912Y-97.725
X205.912Y-98.375
X205.912Y-98.375
X205.912Y-99.025
X205.912Y-99.025
X205.912Y-99.675
X205.912Y-99.675
X205.912Y-100.325
X205.912Y-100.325
X205.912Y-100.975
X205.912Y-100.975
X205.912Y-101.625
X205.912Y-101.625
X205.912Y-102.275
X205.912Y-102.275
X205.912Y-102.925
X205.912Y-102.925
X211.637Y-97.075
X211.637Y-97.075
X211.637Y-97.725
X211.637Y-97.725
X211.637Y-98.375
X211.637Y-98.375
X211.637Y-99.025
X211.637Y-99.025
X211.637Y-99.675
X211.637Y-99.675
X211.637Y-100.325
X211.637Y-100.325
X211.637Y-100.975
X211.637Y-100.975
X211.637Y-101.625
X211.637Y-101.625
X211.637Y-102.275
X211.637Y-102.275
X211.637Y-102.925
X211.637Y-102.925
X217.362Y-97.075
X217.362Y-97.075
X217.362Y-97.725
X217.362Y-97.725
X217.362Y-98.375
X217.362Y-98.375
X217.362Y-99.025
X217.362Y-99.025
X217.362Y-99.675
X217.362Y-99.675
X217.362Y-100.325
X217.362Y-100.325
X217.362Y-100.975
X217.362Y-100.975
X217.362Y-101.625
X217.362Y-101.625
X217.362Y-102.275
X217.362Y-102.275
X217.362Y-102.925
X217.362Y-102.925
X223.087Y-97.075
X223.087Y-97.075
X223.087Y-97.725
X223.087Y-97.725
X223.087Y-98.375
X223.087Y-98.375
X223.087Y-99.025
X223.087Y-99.025
X223.087Y-99.675
X223.087Y-99.675
X223.087Y-100.325
X223.087Y-100.325
X223.087Y-100.975
X223.087Y-100.975
X223.087Y-101.625
X223.087Y-101.625
X223.087Y-102.275
X223.087Y-102.275
X223.087Y-102.925
X223.087Y-102.925
X228.812Y-97.075
X228.812Y-97.075
X228.812Y-97.725
X228.812Y-97.725
X228.812Y-98.375
X228.812Y-98.375
X228.812Y-99.025
X228.812Y-99.025
X228.812Y-99.675
X228.812Y-99.675
X228.812Y-100.325
X228.812Y-100.325
X228.812Y-100.975
X228.812Y-100.975
X228.812Y-101.625
X228.812Y-101.625
X228.812Y-102.275
X228.812Y-102.275
X228.812Y-102.925
X228.812Y-102.925
X234.537Y-97.075
X234.537Y-97.075
X234.537Y-97.725
X234.537Y-97.725
X234.537Y-98.375
X234.537Y-98.375
X234.537Y-99.025
X234.537Y-99.025
X234.537Y-99.675
X234.537Y-99.675
X234.537Y-100.325
X234.537Y-100.325
X234.537Y-100.975
X234.537Y-100.975
X234.537Y-101.625
X234.537Y-101.625
X234.537Y-102.275
X234.537Y-102.275
X234.537Y-102.925
X234.537Y-102.925
X240.262Y-97.075
X240.262Y-97.075
X240.262Y-97.725
X240.262Y-97.725
X240.262Y-98.375
X240.262Y-98.375
X240.262Y-99.025
X240.262Y-99.025
X240.262Y-99.675
X240.262Y-99.675
X240.262Y-100.325
X240.262Y-100.325
X240.262Y-100.975
X240.262Y-100.975
X240.262Y-101.625
X240.262Y-101.625
X240.262Y-102.275
X240.262Y-102.275
X240.262Y-102.925
X240.262Y-102.925
X245.987Y-97.075
X245.987Y-97.075
X245.987Y-97.725
X245.987Y-97.725
X245.987Y-98.375
X245.987Y-98.375
X245.987Y-99.025
X245.987Y-99.025
X245.987Y-99.675
X245.987Y-99.675
X245.987Y-100.325
X245.987Y-100.325
X245.987Y-100.975
X245.987Y-100.975
X245.987Y-101.625
X245.987Y-101.625
X245.987Y-102.275
X245.987Y-102.275
X245.987Y-102.925
X245.987Y-102.925
X251.712Y-97.075
X251.712Y-97.075
X251.712Y-97.725
X251.712Y-97.725
X251.712Y-98.375
X251.712Y-98.375
X251.712Y-99.025
X251.712Y-99.025
X251.712Y-99.675
X251.712Y-99.675
X251.712Y-100.325
X251.712Y-100.325
X251.712Y-100.975
X251.712Y-100.975
X251.712Y-101.625
X251.712Y-101.625
X251.712Y-102.275
X251.712Y-102.275
X251.712Y-102.925
X251.712Y-102.925
X257.438Y-97.075
X257.438Y-97.075
X257.438Y-97.725
X257.438Y-97.725
X257.438Y-98.375
X257.438Y-98.375
X257.438Y-99.025
X257.438Y-99.025
X257.438Y-99.675
X257.438Y-99.675
X257.438Y-100.325
X257.438Y-100.325
X257.438Y-100.975
X257.438Y-100.975
X257.438Y-101.625
X257.438Y-101.625
X257.438Y-102.275
X257.438Y-102.275
X257.438Y-102.925
X257.438Y-102.925
X263.162Y-97.075
X263.162Y-97.075
X263.162Y-97.725
X263.162Y-97.725
X263.162Y-98.375
X263.162Y-98.375
X263.162Y-99.025
X263.162Y-99.025
X263.162Y-99.675
X263.162Y-99.675
X263.162Y-100.325
X263.162Y-100.325
X263.162Y-100.975
X263.162Y-100.975
X263.162Y-101.625
X263.162Y-101.625
X263.162Y-102.275
X263.162Y-102.275
X263.162Y-102.925
X263.162Y-102.925
X268.887Y-97.075
X268.887Y-97.075
X268.887Y-97.725
X268.887Y-97.725
X268.887Y-98.375
X268.887Y-98.375
X268.887Y-99.025
X268.887Y-99.025
X268.887Y-99.675
X268.887Y-99.675
X268.887Y-100.325
X268.887Y-100.325
X268.887Y-100.975
X268.887Y-100.975
X268.887Y-101.625
X268.887Y-101.625
X268.887Y-102.275
X268.887Y-102.275
X268.887Y-102.925
X268.887Y-102.925
X274.613Y-97.075
X274.613Y-97.075
X274.613Y-97.725
X274.613Y-97.725
X274.613Y-98.375
X274.613Y-98.375
X274.613Y-99.025
X274.613Y-99.025
X274.613Y-99.675
X274.613Y-99.675
X274.613Y-100.325
X274.613Y-100.325
X274.613Y-100.975
X274.613Y-100.975
X274.613Y-101.625
X274.613Y-101.625
X274.613Y-102.275
X274.613Y-102.275
X274.613Y-102.925
X274.613Y-102.925
X280.337Y-97.075
X280.337Y-97.075
X280.337Y-97.725
X280.337Y-97.725
X280.337Y-98.375
X280.337Y-98.375
X280.337Y-99.025
X280.337Y-99.025
X280.337Y-99.675
X280.337Y-99.675
X280.337Y-100.325
X280.337Y-100.325
X280.337Y-100.975
X280.337Y-100.975
X280.337Y-101.625
X280.337Y-101.625
X280.337Y-102.275
X280.337Y-102.275
X280.337Y-102.925
X280.337Y-102.925
X286.062Y-97.075
X286.062Y-97.075
X286.062Y-97.725
X286.062Y-97.725
X286.062Y-98.375
X286.062Y-98.375
X286.062Y-99.025
X286.062Y-99.025
X286.062Y-99.675
X286.062Y-99.675
X286.062Y-100.325
X286.062Y-100.325
X286.062Y-100.975
X286.062Y-100.975
X286.062Y-101.625
X286.062Y-101.625
X286.062Y-102.275
X286.062Y-102.275
X286.062Y-102.925
X286.062Y-102.925
X291.787Y-97.075
X291.787Y-97.075
X291.787Y-97.725
X291.787Y-97.725
X291.787Y-98.375
X291.787Y-98.375
X291.787Y-99.025
X291.787Y-99.025
X291.787Y-99.675
X291.787Y-99.675
X291.787Y-100.325
X291.787Y-100.325
X291.787Y-100.975
X291.787Y-100.975
X291.787Y-101.625
X291.787Y-101.625
X291.787Y-102.275
X291.787Y-102.275
X291.787Y-102.925
X291.787Y-102.925
X297.512Y-97.075
X297.512Y-97.075
X297.512Y-97.725
X297.512Y-97.725
X297.512Y-98.375
X297.512Y-98.375
X297.512Y-99.025
X297.512Y-99.025
X297.512Y-99.675
X297.512Y-99.675
X297.512Y-100.325
X297.512Y-100.325
X297.512Y-100.975
X297.512Y-100.975
X297.512Y-101.625
X297.512Y-101.625
X297.512Y-102.275
X297.512Y-102.275
X297.512Y-102.925
X297.512Y-102.925
X303.238Y-97.075
X303.238Y-97.075
X303.238Y-97.725
X303.238Y-97.725
X303.238Y-98.375
X303.238Y-98.375
X303.238Y-99.025
X303.238Y-99.025
X303.238Y-99.675
X303.238Y-99.675
X303.238Y-100.325
X303.238Y-100.325
X303.238Y-100.975
X303.238Y-100.975
X303.238Y-101.625
X303.238Y-101.625
X303.238Y-102.275
X303.238Y-102.275
X303.238Y-102.925
X303.238Y-102.925
X308.962Y-97.075
X308.962Y-97.075
X308.962Y-97.725
X308.962Y-97.725
X308.962Y-98.375
X308.962Y-98.375
X308.962Y-99.025
X308.962Y-99.025
X308.962Y-99.675
X308.962Y-99.675
X308.962Y-100.325
X308.962Y-100.325
X308.962Y-100.975
X308.962Y-100.975
X308.962Y-101.625
X308.962Y-101.625
X308.962Y-102.275
X308.962Y-102.275
X308.962Y-102.925
X308.962Y-102.925
X314.688Y-97.075
X314.688Y-97.075
X314.688Y-97.725
X314.688Y-97.725
X314.688Y-98.375
X314.688Y-98.375
X314.688Y-99.025
X314.688Y-99.025
X314.688Y-99.675
X314.688Y-99.675
X314.688Y-100.325
X314.688Y-100.325
X314.688Y-100.975
X314.688Y-100.975
X314.688Y-101.625
X314.688Y-101.625
X314.688Y-102.275
X314.688Y-102.275
X314.688Y-102.925
X314.688Y-102.925
X320.412Y-97.075
X320.412Y-97.075
X320.412Y-97.725
X320.412Y-97.725
X320.412Y-98.375
X320.412Y-98.375
X320.412Y-99.025
X320.412Y-99.025
X320.412Y-99.675
X320.412Y-99.675
X320.412Y-100.325
X320.412Y-100.325
X320.412Y-100.975
X320.412Y-100.975
X320.412Y-101.625
X320.412Y-101.625
X320.412Y-102.275
X320.412Y-102.275
X320.412Y-102.925
X320.412Y-102.925
X326.137Y-97.075
X326.137Y-97.075
X326.137Y-97.725
X326.137Y-97.725
X326.137Y-98.375
X326.137Y-98.375
X326.137Y-99.025
X326.137Y-99.025
X326.137Y-99.675
X326.137Y-99.675
X326.137Y-100.325
X326.137Y-100.325
X326.137Y-100.975
X326.137Y-100.975
X326.137Y-101.625
X326.137Y-101.625
X326.137Y-102.275
X326.137Y-102.275
X326.137Y-102.925
X326.137Y-102.925
X331.863Y-97.075
X331.863Y-97.075
X331.863Y-97.725
X331.863Y-97.725
X331.863Y-98.375
X331.863Y-98.375
X331.863Y-99.025
X331.863Y-99.025
X331.863Y-99.675
X331.863Y-99.675
X331.863Y-100.325
X331.863Y-100.325
X331.863Y-100.975
X331.863Y-100.975
X331.863Y-101.625
X331.863Y-101.625
X331.863Y-102.275
X331.863Y-102.275
X331.863Y-102.925
X331.863Y-102.925
X337.587Y-97.075
X337.587Y-97.075
X337.587Y-97.725
X337.587Y-97.725
X337.587Y-98.375
X337.587Y-98.375
X337.587Y-99.025
X337.587Y-99.025
X337.587Y-99.675
X337.587Y-99.675
X337.587Y-100.325
X337.587Y-100.325
X337.587Y-100.975
X337.587Y-100.975
X337.587Y-101.625
X337.587Y-101.625
X337.587Y-102.275
X337.587Y-102.275
X337.587Y-102.925
X337.587Y-102.925
X343.312Y-97.075
X343.312Y-97.075
X343.312Y-97.725
X343.312Y-97.725
X343.312Y-98.375
X343.312Y-98.375
X343.312Y-99.025
X343.312Y-99.025
X343.312Y-99.675
X343.312Y-99.675
X343.312Y-100.325
X343.312Y-100.325
X343.312Y-100.975
X343.312Y-100.975
X343.312Y-101.625
X343.312Y-101.625
X343.312Y-102.275
X343.312Y-102.275
X343.312Y-102.925
X343.312Y-102.925
X349.037Y-97.075
X349.037Y-97.075
X349.037Y-97.725
X349.037Y-97.725
X349.037Y-98.375
X349.037Y-98.375
X349.037Y-99.025
X349.037Y-99.025
X349.037Y-99.675
X349.037Y-99.675
X349.037Y-100.325
X349.037Y-100.325
X349.037Y-100.975
X349.037Y-100.975
X349.037Y-101.625
X349.037Y-101.625
X349.037Y-102.275
X349.037Y-102.275
X349.037Y-102.925
X349.037Y-102.925
X354.762Y-97.075
X354.762Y-97.075
X354.762Y-97.725
X354.762Y-97.725
X354.762Y-98.375
X354.762Y-98.375
X354.762Y-99.025
X354.762Y-99.025
X354.762Y-99.675
X354.762Y-99.675
X354.762Y-100.325
X354.762Y-100.325
X354.762Y-100.975
X354.762Y-100.975
X354.762Y-101.625
X354.762Y-101.625
X354.762Y-102.275
X354.762Y-102.275
X354.762Y-102.925
X354.762Y-102.925
X360.488Y-97.075
X360.488Y-97.075
X360.488Y-97.725
X360.488Y-97.725
X360.488Y-98.375
X360.488Y-98.375
X360.488Y-99.025
X360.488Y-99.025
X360.488Y-99.675
X360.488Y-99.675
X360.488Y-100.325
X360.488Y-100.325
X360.488Y-100.975
X360.488Y-100.975
X360.488Y-101.625
X360.488Y-101.625
X360.488Y-102.275
X360.488Y-102.275
X360.488Y-102.925
X360.488Y-102.925
X366.212Y-97.075
X366.212Y-97.075
X366.212Y-97.725
X366.212Y-97.725
X366.212Y-98.375
X366.212Y-98.375
X366.212Y-99.025
X366.212Y-99.025
X366.212Y-99.675
X366.212Y-99.675
X366.212Y-100.325
X366.212Y-100.325
X366.212Y-100.975
X366.212Y-100.975
X366.212Y-101.625
X366.212Y-101.625
X366.212Y-102.275
X366.212Y-102.275
X366.212Y-102.925
X366.212Y-102.925
X371.938Y-97.075
X371.938Y-97.075
X371.938Y-97.725
X371.938Y-97.725
X371.938Y-98.375
X371.938Y-98.375
X371.938Y-99.025
X371.938Y-99.025
X371.938Y-99.675
X371.938Y-99.675
X371.938Y-100.325
X371.938Y-100.325
X371.938Y-100.975
X371.938Y-100.975
X371.938Y-101.625
X371.938Y-101.625
X371.938Y-102.275
X371.938Y-102.275
X371.938Y-102.925
X371.938Y-102.925
X377.662Y-97.075
X377.662Y-97.075
X377.662Y-97.725
X377.662Y-97.725
X377.662Y-98.375
X377.662Y-98.375
X377.662Y-99.025
X377.662Y-99.025
X377.662Y-99.675
X377.662Y-99.675
X377.662Y-100.325
X377.662Y-100.325
X377.662Y-100.975
X377.662Y-100.975
X377.662Y-101.625
X377.662Y-101.625
X377.662Y-102.275
X377.662Y-102.275
X377.662Y-102.925
X377.662Y-102.925
X383.387Y-97.075
X383.387Y-97.075
X383.387Y-97.725
X383.387Y-97.725
X383.387Y-98.375
X383.387Y-98.375
X383.387Y-99.025
X383.387Y-99.025
X383.387Y-99.675
X383.387Y-99.675
X383.387Y-100.325
X383.387Y-100.325
X383.387Y-100.975
X383.387Y-100.975
X383.387Y-101.625
X383.387Y-101.625
X383.387Y-102.275
X383.387Y-102.275
X383.387Y-102.925
X383.387Y-102.925
X389.112Y-97.075
X389.112Y-97.075
X389.112Y-97.725
X389.112Y-97.725
X389.112Y-98.375
X389.112Y-98.375
X389.112Y-99.025
X389.112Y-99.025
X389.112Y-99.675
X389.112Y-99.675
X389.112Y-100.325
X389.112Y-100.325
X389.112Y-100.975
X389.112Y-100.975
X389.112Y-101.625
X389.112Y-101.625
X389.112Y-102.275
X389.112Y-102.275
X389.112Y-102.925
X389.112Y-102.925
X394.837Y-97.075
X394.837Y-97.075
X394.837Y-97.725
X394.837Y-97.725
X394.837Y-98.375
X394.837Y-98.375
X394.837Y-99.025
X394.837Y-99.025
X394.837Y-99.675
X394.837Y-99.675
X394.837Y-100.325
X394.837Y-100.325
X394.837Y-100.975
X394.837Y-100.975
X394.837Y-101.625
X394.837Y-101.625
X394.837Y-102.275
X394.837Y-102.275
X394.837Y-102.925
X394.837Y-102.925
X400.562Y-97.075
X400.562Y-97.075
X400.562Y-97.725
X400.562Y-97.725
X400.562Y-98.375
X400.562Y-98.375
X400.562Y-99.025
X400.562Y-99.025
X400.562Y-99.675
X400.562Y-99.675
X400.562Y-100.325
X400.562Y-100.325
X400.562Y-100.975
X400.562Y-100.975
X400.562Y-101.625
X400.562Y-101.625
X400.562Y-102.275
X400.562Y-102.275
X400.562Y-102.925
X400.562Y-102.925
X406.287Y-97.075
X406.287Y-97.075
X406.287Y-97.725
X406.287Y-97.725
X406.287Y-98.375
X406.287Y-98.375
X406.287Y-99.025
X406.287Y-99.025
X406.287Y-99.675
X406.287Y-99.675
X406.287Y-100.325
X406.287Y-100.325
X406.287Y-100.975
X406.287Y-100.975
X406.287Y-101.625
X406.287Y-101.625
X406.287Y-102.275
X406.287Y-102.275
X406.287Y-102.925
X406.287Y-102.925
X412.012Y-97.075
X412.012Y-97.075
X412.012Y-97.725
X412.012Y-97.725
X412.012Y-98.375
X412.012Y-98.375
X412.012Y-99.025
X412.012Y-99.025
X412.012Y-99.675
X412.012Y-99.675
X412.012Y-100.325
X412.012Y-100.325
X412.012Y-100.975
X412.012Y-100.975
X412.012Y-101.625
X412.012Y-101.625
X412.012Y-102.275
X412.012Y-102.275
X412.012Y-102.925
X412.012Y-102.925
X417.737Y-97.075
X417.737Y-97.075
X417.737Y-97.725
X417.737Y-97.725
X417.737Y-98.375
X417.737Y-98.375
X417.737Y-99.025
X417.737Y-99.025
X417.737Y-99.675
X417.737Y-99.675
X417.737Y-100.325
X417.737Y-100.325
X417.737Y-100.975
X417.737Y-100.975
X417.737Y-101.625
X417.737Y-101.625
X417.737Y-102.275
X417.737Y-102.275
X417.737Y-102.925
X417.737Y-102.925
X423.462Y-97.075
X423.462Y-97.075
X423.462Y-97.725
X423.462Y-97.725
X423.462Y-98.375
X423.462Y-98.375
X423.462Y-99.025
X423.462Y-99.025
X423.462Y-99.675
X423.462Y-99.675
X423.462Y-100.325
X423.462Y-100.325
X423.462Y-100.975
X423.462Y-100.975
X423.462Y-101.625
X423.462Y-101.625
X423.462Y-102.275
X423.462Y-102.275
X423.462Y-102.925
X423.462Y-102.925
X429.188Y-97.075
X429.188Y-97.075
X429.188Y-97.725
X429.188Y-97.725
X429.188Y-98.375
X429.188Y-98.375
X429.188Y-99.025
X429.188Y-99.025
X429.188Y-99.675
X429.188Y-99.675
X429.188Y-100.325
X429.188Y-100.325
X429.188Y-100.975
X429.188Y-100.975
X429.188Y-101.625
X429.188Y-101.625
X429.188Y-102.275
X429.188Y-102.275
X429.188Y-102.925
X429.188Y-102.925
X434.912Y-97.075
X434.912Y-97.075
X434.912Y-97.725
X434.912Y-97.725
X434.912Y-98.375
X434.912Y-98.375
X434.912Y-99.025
X434.912Y-99.025
X434.912Y-99.675
X434.912Y-99.675
X434.912Y-100.325
X434.912Y-100.325
X434.912Y-100.975
X434.912Y-100.975
X434.912Y-101.625
X434.912Y-101.625
X434.912Y-102.275
X434.912Y-102.275
X434.912Y-102.925
X434.912Y-102.925
X440.637Y-97.075
X440.637Y-97.075
X440.637Y-97.725
X440.637Y-97.725
X440.637Y-98.375
X440.637Y-98.375
X440.637Y-99.025
X440.637Y-99.025
X440.637Y-99.675
X440.637Y-99.675
X440.637Y-100.325
X440.637Y-100.325
X440.637Y-100.975
X440.637Y-100.975
X440.637Y-101.625
X440.637Y-101.625
X440.637Y-102.275
X440.637Y-102.275
X440.637Y-102.925
X440.637Y-102.925
X446.362Y-97.075
X446.362Y-97.075
X446.362Y-97.725
X446.362Y-97.725
X446.362Y-98.375
X446.362Y-98.375
X446.362Y-99.025
X446.362Y-99.025
X446.362Y-99.675
X446.362Y-99.675
X446.362Y-100.325
X446.362Y-100.325
X446.362Y-100.975
X446.362Y-100.975
X446.362Y-101.625
X446.362Y-101.625
X446.362Y-102.275
X446.362Y-102.275
X446.362Y-102.925
X446.362Y-102.925
X452.087Y-97.075
X452.087Y-97.075
X452.087Y-97.725
X452.087Y-97.725
X452.087Y-98.375
X452.087Y-98.375
X452.087Y-99.025
X452.087Y-99.025
X452.087Y-99.675
X452.087Y-99.675
X452.087Y-100.325
X452.087Y-100.325
X452.087Y-100.975
X452.087Y-100.975
X452.087Y-101.625
X452.087Y-101.625
X452.087Y-102.275
X452.087Y-102.275
X452.087Y-102.925
X452.087Y-102.925
X457.812Y-97.075
X457.812Y-97.075
X457.812Y-97.725
X457.812Y-97.725
X457.812Y-98.375
X457.812Y-98.375
X457.812Y-99.025
X457.812Y-99.025
X457.812Y-99.675
X457.812Y-99.675
X457.812Y-100.325
X457.812Y-100.325
X457.812Y-100.975
X457.812Y-100.975
X457.812Y-101.625
X457.812Y-101.625
X457.812Y-102.275
X457.812Y-102.275
X457.812Y-102.925
X457.812Y-102.925
X463.537Y-97.075
X463.537Y-97.075
X463.537Y-97.725
X463.537Y-97.725
X463.537Y-98.375
X463.537Y-98.375
X463.537Y-99.025
X463.537Y-99.025
X463.537Y-99.675
X463.537Y-99.675
X463.537Y-100.325
X463.537Y-100.325
X463.537Y-100.975
X463.537Y-100.975
X463.537Y-101.625
X463.537Y-101.625
X463.537Y-102.275
X463.537Y-102.275
X463.537Y-102.925
X463.537Y-102.925
X469.262Y-97.075
X469.262Y-97.075
X469.262Y-97.725
X469.262Y-97.725
X469.262Y-98.375
X469.262Y-98.375
X469.262Y-99.025
X469.262Y-99.025
X469.262Y-99.675
X469.262Y-99.675
X469.262Y-100.325
X469.262Y-100.325
X469.262Y-100.975
X469.262Y-100.975
X469.262Y-101.625
X469.262Y-101.625
X469.262Y-102.275
X469.262Y-102.275
X469.262Y-102.925
X469.262Y-102.925
X474.987Y-97.075
X474.987Y-97.075
X474.987Y-97.725
X474.987Y-97.725
X474.987Y-98.375
X474.987Y-98.375
X474.987Y-99.025
X474.987Y-99.025
X474.987Y-99.675
X474.987Y-99.675
X474.987Y-100.325
X474.987Y-100.325
X474.987Y-100.975
X474.987Y-100.975
X474.987Y-101.625
X474.987Y-101.625
X474.987Y-102.275
X474.987Y-102.275
X474.987Y-102.925
X474.987Y-102.925
X480.712Y-97.075
X480.712Y-97.075
X480.712Y-97.725
X480.712Y-97.725
X480.712Y-98.375
X480.712Y-98.375
X480.712Y-99.025
X480.712Y-99.025
X480.712Y-99.675
X480.712Y-99.675
X480.712Y-100.325
X480.712Y-100.325
X480.712Y-100.975
X480.712Y-100.975
X480.712Y-101.625
X480.712Y-101.625
X480.712Y-102.275
X480.712Y-102.275
X480.712Y-102.925
X480.712Y-102.925
X486.438Y-97.075
X486.438Y-97.075
X486.438Y-97.725
X486.438Y-97.725
X486.438Y-98.375
X486.438Y-98.375
X486.438Y-99.025
X486.438Y-99.025
X486.438Y-99.675
X486.438Y-99.675
X486.438Y-100.325
X486.438Y-100.325
X486.438Y-100.975
X486.438Y-100.975
X486.438Y-101.625
X486.438Y-101.625
X486.438Y-102.275
X486.438Y-102.275
X486.438Y-102.925
X486.438Y-102.925
X492.162Y-97.075
X492.162Y-97.075
X492.162Y-97.725
X492.162Y-97.725
X492.162Y-98.375
X492.162Y-98.375
X492.162Y-99.025
X492.162Y-99.025
X492.162Y-99.675
X492.162Y-99.675
X492.162Y-100.325
X492.162Y-100.325
X492.162Y-100.975
X492.162Y-100.975
X492.162Y-101.625
X492.162Y-101.625
X492.162Y-102.275
X492.162Y-102.275
X492.162Y-102.925
X492.162Y-102.925
X497.887Y-97.075
X497.887Y-97.075
X497.887Y-97.725
X497.887Y-97.725
X497.887Y-98.375
X497.887Y-98.375
X497.887Y-99.025
X497.887Y-99.025
X497.887Y-99.675
X497.887Y-99.675
X497.887Y-100.325
X497.887Y-100.325
X497.887Y-100.975
X497.887Y-100.975
X497.887Y-101.625
X497.887Y-101.625
X497.887Y-102.275
X497.887Y-102.275
X497.887Y-102.925
X497.887Y-102.925
X503.612Y-97.075
X503.612Y-97.075
X503.612Y-97.725
X503.612Y-97.725
X503.612Y-98.375
X503.612Y-98.375
X503.612Y-99.025
X503.612Y-99.025
X503.612Y-99.675
X503.612Y-99.675
X503.612Y-100.325
X503.612Y-100.325
X503.612Y-100.975
X503.612Y-100.975
X503.612Y-101.625
X503.612Y-101.625
X503.612Y-102.275
X503.612Y-102.275
X503.612Y-102.925
X503.612Y-102.925
X509.337Y-97.075
X509.337Y-97.075
X509.337Y-97.725
X509.337Y-97.725
X509.337Y-98.375
X509.337Y-98.375
X509.337Y-99.025
X509.337Y-99.025
X509.337Y-99.675
X509.337Y-99.675
X509.337Y-100.325
X509.337Y-100.325
X509.337Y-100.975
X509.337Y-100.975
X509.337Y-101.625
X509.337Y-101.625
X509.337Y-102.275
X509.337Y-102.275
X509.337Y-102.925
X509.337Y-102.925
X515.062Y-97.075
X515.062Y-97.075
X515.062Y-97.725
X515.062Y-97.725
X515.062Y-98.375
X515.062Y-98.375
X515.062Y-99.025
X515.062Y-99.025
X515.062Y-99.675
X515.062Y-99.675
X515.062Y-100.325
X515.062Y-100.325
X515.062Y-100.975
X515.062Y-100.975
X515.062Y-101.625
X515.062Y-101.625
X515.062Y-102.275
X515.062Y-102.275
X515.062Y-102.925
X515.062Y-102.925
X520.788Y-97.075
X520.788Y-97.075
X520.788Y-97.725
X520.788Y-97.725
X520.788Y-98.375
X520.788Y-98.375
X520.788Y-99.025
X520.788Y-99.025
X520.788Y-99.675
X520.788Y-99.675
X520.788Y-100.325
X520.788Y-100.325
X520.788Y-100.975
X520.788Y-100.975
X520.788Y-101.625
X520.788Y-101.625
X520.788Y-102.275
X520.788Y-102.275
X520.788Y-102.925
X520.788Y-102.925
X526.512Y-97.075
X526.512Y-97.075
X526.512Y-97.725
X526.512Y-97.725
X526.512Y-98.375
X526.512Y-98.375
X526.512Y-99.025
X526.512Y-99.025
X526.512Y-99.675
X526.512Y-99.675
X526.512Y-100.325
X526.512Y-100.325
X526.512Y-100.975
X526.512Y-100.975
X526.512Y-101.625
X526.512Y-101.625
X526.512Y-102.275
X526.512Y-102.275
X526.512Y-102.925
X526.512Y-102.925
X532.237Y-97.075
X532.237Y-97.075
X532.237Y-97.725
X532.237Y-97.725
X532.237Y-98.375
X532.237Y-98.375
X532.237Y-99.025
X532.237Y-99.025
X532.237Y-99.675
X532.237Y-99.675
X532.237Y-100.325
X532.237Y-100.325
X532.237Y-100.975
X532.237Y-100.975
X532.237Y-101.625
X532.237Y-101.625
X532.237Y-102.275
X532.237Y-102.275
X532.237Y-102.925
X532.237Y-102.925
X537.962Y-97.075
X537.962Y-97.075
X537.962Y-97.725
X537.962Y-97.725
X537.962Y-98.375
X537.962Y-98.375
X537.962Y-99.025
X537.962Y-99.025
X537.962Y-99.675
X537.962Y-99.675
X537.962Y-100.325
X537.962Y-100.325
X537.962Y-100.975
X537.962Y-100.975
X537.962Y-101.625
X537.962Y-101.625
X537.962Y-102.275
X537.962Y-102.275
X537.962Y-102.925
X537.962Y-102.925
X543.688Y-97.075
X543.688Y-97.075
X543.688Y-97.725
X543.688Y-97.725
X543.688Y-98.375
X543.688Y-98.375
X543.688Y-99.025
X543.688Y-99.025
X543.688Y-99.675
X543.688Y-99.675
X543.688Y-100.325
X543.688Y-100.325
X543.688Y-100.975
X543.688Y-100.975
X543.688Y-101.625
X543.688Y-101.625
X543.688Y-102.275
X543.688Y-102.275
X543.688Y-102.925
X543.688Y-102.925
X549.413Y-97.075
X549.413Y-97.075
X549.413Y-97.725
X549.413Y-97.725
X549.413Y-98.375
X549.413Y-98.375
X549.413Y-99.025
X549.413Y-99.025
X549.413Y-99.675
X549.413Y-99.675
X549.413Y-100.325
X549.413Y-100.325
X549.413Y-100.975
X549.413Y-100.975
X549.413Y-101.625
X549.413Y-101.625
X549.413Y-102.275
X549.413Y-102.275
X549.413Y-102.925
X549.413Y-102.925
X555.137Y-97.075
X555.137Y-97.075
X555.137Y-97.725
X555.137Y-97.725
X555.137Y-98.375
X555.137Y-98.375
X555.137Y-99.025
X555.137Y-99.025
X555.137Y-99.675
X555.137Y-99.675
X555.137Y-100.325
X555.137Y-100.325
X555.137Y-100.975
X555.137Y-100.975
X555.137Y-101.625
X555.137Y-101.625
X555.137Y-102.275
X555.137Y-102.275
X555.137Y-102.925
X555.137Y-102.925
X560.862Y-97.075
X560.862Y-97.725
X560.862Y-98.375
X560.862Y-99.025
X560.862Y-99.675
X560.862Y-100.325
X560.862Y-100.975
X560.862Y-101.625
X560.862Y-102.275
X560.862Y-102.925
T0
M30
