<?xml version="1.0" standalone="no"?>
<!DOCTYPE svg PUBLIC "-//W3C//DTD SVG 1.1//EN" "http://www.w3.org/Graphics/SVG/1.1/DTD/svg11.dtd">
<svg width="144mm" height="92mm" viewBox="0 -92 144 92" xmlns="http://www.w3.org/2000/svg" version="1.1">
<title>OpenSCAD Model</title>
<path d="
M 136.16,-88.068 L 136.25,-88.2855 L 136.364,-88.5092 L 136.487,-88.7099 L 136.635,-88.913 L 136.788,-89.0919
 L 136.965,-89.2695 L 137.144,-89.4224 L 137.347,-89.5699 L 137.548,-89.6929 L 137.772,-89.8069 L 137.989,-89.897
 L 138.228,-89.9746 L 138.457,-90.0295 L 138.705,-90.0688 L 138.939,-90.0873 L 139.19,-90.0873 L 139.425,-90.0688
 L 139.673,-90.0295 L 139.902,-89.9746 L 140.085,-89.9152 L 140,-90 L 140,-91.3369 L 139.679,-91.3969
 L 139.27,-91.4348 L 139.065,-91.4372 L 136,-91.4372 L 136,-90 L 134.563,-91.4372 L 132.563,-91.4372
 L 136,-88 L 136.138,-88 z
M 131.872,-86.5677 L 131.887,-86.5793 L 132,-86.6461 L 132,-88 L 134,-88 L 132,-90
 L 132,-91.4372 L 128,-91.4372 L 128,-90 L 126.563,-91.4372 L 125.35,-91.4372 L 125.35,-91.1272
 L 125.111,-90.8886 L 128,-88 L 130,-88 L 131.662,-86.3383 z
M 60,-88 L 61.0329,-88 L 61.0553,-88.1416 L 61.0592,-88.1579 L 61.04,-88.1772 L 61.04,-88.96
 L 60,-90 L 60,-91.4372 L 56,-91.4372 L 56,-90 L 54.5628,-91.4372 L 52.5628,-91.4372
 L 56,-88 L 58,-88 L 60,-86 z
M 51.7838,-87.4582 L 52,-87.534 L 52,-88 L 54,-88 L 52,-90 L 52,-91.4372
 L 48,-91.4372 L 48,-90 L 46.5628,-91.4372 L 44.5628,-91.4372 L 48,-88 L 50,-88
 L 50.9368,-87.0632 z
M 44,-88 L 46,-88 L 44,-90 L 44,-91.4372 L 40.64,-91.4372 L 40.4346,-91.4348
 L 40.0256,-91.3969 L 40,-91.3921 L 40,-90.0219 L 40.0318,-90.0295 L 40.2798,-90.0688 L 40.5145,-90.0873
 L 40.7655,-90.0873 L 41.0002,-90.0688 L 41.2482,-90.0295 L 41.477,-89.9746 L 41.7158,-89.897 L 41.9332,-89.8069
 L 42.157,-89.6929 L 42.3577,-89.5699 L 42.5608,-89.4224 L 42.7397,-89.2695 L 42.9173,-89.0919 L 43.0702,-88.913
 L 43.2177,-88.7099 L 43.3407,-88.5092 L 43.4547,-88.2855 L 43.5448,-88.068 L 43.6224,-87.8292 L 43.6773,-87.6003
 L 43.7166,-87.3524 L 43.7351,-87.1178 L 43.7351,-86.8666 L 43.7166,-86.6319 L 43.6773,-86.384 L 43.6654,-86.3346
 L 44,-86 z
M 38.7192,-89.4224 L 38.9223,-89.5699 L 39.123,-89.6929 L 39.3467,-89.8069 L 39.5642,-89.897 L 39.8029,-89.9746
 L 39.9824,-90.0176 L 38.9127,-91.0873 L 38.8436,-91.0606 L 38.4759,-90.8775 L 38.1266,-90.6613 L 37.7988,-90.4137
 L 37.6876,-90.3124 L 38.6428,-89.3572 z
M 142.95,-89.1563 L 142.734,-89.5056 L 142.486,-89.8334 L 142.21,-90.137 L 141.906,-90.4137 L 141.578,-90.6613
 L 141.229,-90.8775 L 141.017,-90.9832 L 143.056,-88.944 z
M 126,-88 L 124.361,-89.6387 L 124.361,-89.6364 L 124.38,-89.6172 L 124.38,-89.0972 L 125.35,-88.1272
 L 125.35,-88 z
M 37.7352,-88.068 L 37.7928,-88.2072 L 36.7887,-89.2113 L 36.7547,-89.1563 L 36.5716,-88.7886 L 36.4232,-88.4055
 L 36.3108,-88.0104 L 36.3089,-88 L 37.7131,-88 z
M 142,-88 L 141.988,-88.012 L 141.992,-88 z
M 129.115,-85.1703 L 129.255,-85.1814 L 129.507,-85.1814 L 129.625,-85.172 L 129.738,-85.3279 L 129.83,-85.4353
 L 130.007,-85.6128 L 130.115,-85.7046 L 130.219,-85.7805 L 128,-88 L 128,-86 L 128.869,-85.1313
 z
M 60,-80 L 62,-80 L 60,-82 L 60,-84 L 56,-88 L 56,-86
 L 58,-84 L 56,-84 L 56,-82 L 55.6353,-82.3647 L 55.6275,-82.2649 L 55.5882,-82.017
 L 55.5553,-81.8797 L 55.4777,-81.6408 L 55.4236,-81.5103 L 55.3096,-81.2866 L 55.2359,-81.1662 L 55.0883,-80.9631
 L 55.0646,-80.9354 L 56,-80 L 58,-80 L 60,-78 z
M 48.4031,-85.8522 L 48.5236,-85.926 L 48.7471,-86.0399 L 48.8776,-86.0939 L 49.1163,-86.1715 L 49.2536,-86.2045
 L 49.5017,-86.2438 L 49.6425,-86.2549 L 49.6704,-86.2549 L 49.7061,-86.2939 L 48,-88 L 48,-86
 L 48.2552,-85.7448 z
M 136.028,-87.6003 L 136.083,-87.8292 L 136.104,-87.8958 L 136,-88 L 136,-87.4257 z
M 84,-86.8163 L 83.9483,-86.9755 L 83.9153,-87.1128 L 83.876,-87.3609 L 83.8649,-87.5017 L 83.8649,-87.5521
 L 83.78,-87.4672 L 83.78,-86.7772 L 83.7493,-86.4651 L 83.7455,-86.446 L 83.6896,-86.3104 L 84,-86
 z
M 136.028,-86.384 L 136,-86.5587 L 136,-86.4276 L 136.036,-86.3514 z
M 64.8856,-85.4151 L 64.7953,-85.4611 L 64.77,-85.4766 L 64.7446,-85.4611 L 64.6084,-85.3916 L 64.8856,-85.1144
 z
M 96.1068,-82.6317 L 96.2272,-82.7055 L 96.451,-82.8195 L 96.5815,-82.8736 L 96.8202,-82.9511 L 96.9575,-82.9841
 L 97.2056,-83.0234 L 97.3464,-83.0345 L 97.5974,-83.0345 L 97.716,-83.0251 L 97.8291,-83.1809 L 97.9209,-83.2883
 L 98.0984,-83.4658 L 98.2058,-83.5576 L 98.4088,-83.7051 L 98.5293,-83.7789 L 98.753,-83.8929 L 98.8835,-83.947
 L 99.1224,-84.0246 L 99.2597,-84.0575 L 99.5076,-84.0968 L 99.6484,-84.1079 L 99.8921,-84.1079 L 99.5828,-84.4172
 L 98.56,-84.4172 L 97.7711,-85.2061 L 97.6745,-85.2459 L 97.6745,-84.3255 L 98,-84 L 97.5414,-84
 L 97.0402,-83.2482 L 96,-82.6916 L 96,-82.5541 z
M 84,-80 L 86,-80 L 84,-82 L 84,-84 L 82.7914,-85.2086 L 82.1211,-84.5383
 L 82.128,-84.3801 L 82.3014,-84.2067 L 82.3932,-84.0993 L 82.5407,-83.8962 L 82.6145,-83.7758 L 82.7286,-83.5519
 L 82.7826,-83.4215 L 82.8601,-83.1829 L 82.8931,-83.0455 L 82.9324,-82.7975 L 82.9435,-82.6567 L 82.9435,-82.4057
 L 82.9324,-82.2649 L 82.8931,-82.0168 L 82.8601,-81.8795 L 82.7826,-81.6409 L 82.7286,-81.5105 L 82.6145,-81.2866
 L 82.5408,-81.1662 L 82.3932,-80.9631 L 82.3014,-80.8557 L 82.1239,-80.6781 L 82.0165,-80.5864 L 81.8132,-80.4388
 L 81.6928,-80.365 L 81.4693,-80.2511 L 81.3388,-80.197 L 81.1001,-80.1195 L 80.9628,-80.0865 L 80.7147,-80.0472
 L 80.5739,-80.0361 L 80.3229,-80.0361 L 80.2044,-80.0454 L 80.1714,-80 L 82,-80 L 84,-78
 z
M 74.8145,-85.1855 L 74.8145,-85.1814 L 74.8186,-85.1814 z
M 38.8845,-81.319 L 38.9919,-81.4107 L 39.1949,-81.5582 L 39.3153,-81.632 L 39.539,-81.746 L 39.6695,-81.8
 L 39.9082,-81.8776 L 40.0455,-81.9106 L 40.2936,-81.9499 L 40.4344,-81.961 L 40.6854,-81.961 L 40.8039,-81.9516
 L 40.9172,-82.1076 L 41.0089,-82.215 L 41.1864,-82.3924 L 41.2938,-82.4841 L 41.4969,-82.6317 L 41.6173,-82.7055
 L 41.8409,-82.8195 L 41.9714,-82.8735 L 42.2102,-82.9511 L 42.3475,-82.9841 L 42.5956,-83.0234 L 42.7364,-83.0345
 L 42.9874,-83.0345 L 43.106,-83.0251 L 43.2191,-83.1809 L 43.3109,-83.2883 L 43.4884,-83.4658 L 43.5958,-83.5576
 L 43.7988,-83.7051 L 43.9193,-83.7789 L 44,-83.8201 L 44,-84 L 43.005,-84.995 L 42.9173,-84.8924
 L 42.7397,-84.7149 L 42.5608,-84.562 L 42.3577,-84.4145 L 42.157,-84.2915 L 41.9332,-84.1775 L 41.855,-84.145
 L 42,-84 L 41.4361,-84 L 41.2482,-83.9549 L 41.0003,-83.9156 L 40.7656,-83.8971 L 40.5144,-83.8971
 L 40.2797,-83.9156 L 40.0318,-83.9549 L 40,-83.9625 L 40,-82 L 38,-84 L 36.195,-84
 L 36.195,-83.805 L 38.7827,-81.2173 z
M 119.282,-80.7267 L 119.521,-80.8042 L 119.659,-80.8372 L 119.907,-80.8765 L 120.047,-80.8876 L 120.298,-80.8876
 L 120.417,-80.8783 L 120.53,-81.034 L 120.622,-81.1414 L 120.799,-81.319 L 120.907,-81.4107 L 121.11,-81.5582
 L 121.23,-81.632 L 121.454,-81.746 L 121.584,-81.8 L 121.823,-81.8776 L 121.961,-81.9106 L 122.209,-81.9499
 L 122.349,-81.961 L 122.6,-81.961 L 122.719,-81.9516 L 122.832,-82.1076 L 122.924,-82.215 L 123.101,-82.3924
 L 123.209,-82.4841 L 123.412,-82.6317 L 123.532,-82.7055 L 123.756,-82.8195 L 123.886,-82.8736 L 124,-82.9104
 L 124,-84 L 123.583,-84.4172 L 121.583,-84.4172 L 122,-84 L 120.403,-84 L 120,-83.3948
 L 120,-82 L 119.154,-82.8458 L 118.569,-82.5326 L 117.467,-82.5326 L 119.276,-80.724 z
M 140,-80 L 142,-80 L 140,-82 L 140,-84 L 139.969,-84.0314 L 139.902,-84.0098
 L 139.673,-83.9549 L 139.425,-83.9156 L 139.191,-83.8971 L 138.939,-83.8971 L 138.705,-83.9156 L 138.457,-83.9549
 L 138.228,-84.0098 L 137.989,-84.0874 L 137.858,-84.1415 L 138,-84 L 137.075,-84 L 137.151,-83.8962
 L 137.225,-83.7758 L 137.339,-83.5519 L 137.393,-83.4215 L 137.47,-83.1829 L 137.503,-83.0455 L 137.542,-82.7975
 L 137.553,-82.6567 L 137.553,-82.4057 L 137.542,-82.2649 L 137.503,-82.0168 L 137.47,-81.8795 L 137.393,-81.6409
 L 137.339,-81.5105 L 137.225,-81.2866 L 137.151,-81.1662 L 137.003,-80.9631 L 136.911,-80.8557 L 136.734,-80.6781
 L 136.627,-80.5864 L 136.423,-80.4388 L 136.303,-80.365 L 136.079,-80.2511 L 135.949,-80.197 L 135.839,-80.1613
 L 136,-80 L 138,-80 L 140,-78 z
M 63.9948,-80.3372 L 64.1978,-80.4848 L 64.3183,-80.5586 L 64.542,-80.6726 L 64.6725,-80.7267 L 64.9112,-80.8042
 L 65.0485,-80.8372 L 65.2966,-80.8765 L 65.4374,-80.8876 L 65.6884,-80.8876 L 65.807,-80.8783 L 65.9201,-81.034
 L 66.0119,-81.1414 L 66.1895,-81.319 L 66.2969,-81.4107 L 66.4998,-81.5582 L 66.6203,-81.632 L 66.844,-81.746
 L 66.9745,-81.8 L 67.2132,-81.8776 L 67.3505,-81.9106 L 67.5986,-81.9499 L 67.7394,-81.961 L 67.9904,-81.961
 L 68.0432,-81.9568 L 68,-82 L 68,-82.5358 L 66.8511,-82.5358 L 65.5197,-83.2484 L 65.1945,-83.7363
 L 65.0187,-84 L 64,-84 L 64,-82 L 62,-84 L 60,-84 L 63.8209,-80.1791
 L 63.8874,-80.2455 z
M 90.2995,-79.803 L 90.4403,-79.8141 L 90.6913,-79.8141 L 90.8099,-79.8047 L 90.9231,-79.9606 L 91.0148,-80.068
 L 91.1924,-80.2455 L 91.2998,-80.3372 L 91.5029,-80.4848 L 91.6233,-80.5586 L 91.847,-80.6726 L 91.9775,-80.7267
 L 92.2162,-80.8042 L 92.3535,-80.8372 L 92.6016,-80.8765 L 92.7424,-80.8876 L 92.9934,-80.8876 L 93.112,-80.8783
 L 93.1161,-80.8839 L 92,-82 L 92,-82.5358 L 89.7111,-82.5358 L 88.3797,-83.2484 L 88,-83.8181
 L 88,-82 L 86,-84 L 84,-84 L 88,-80 L 90,-80 L 90.211,-79.789
 z
M 44.143,-83.8929 L 44.2735,-83.947 L 44.4368,-84 L 44,-84 L 44.1192,-83.8808 z
M 125.134,-83.1808 L 125.226,-83.2882 L 125.403,-83.4658 L 125.511,-83.5576 L 125.714,-83.7052 L 125.834,-83.7789
 L 126.058,-83.8929 L 126.093,-83.9073 L 126,-84 L 124,-84 L 124.971,-83.0291 L 125.021,-83.0251
 z
M 143.51,-82.49 L 142,-84 L 140,-84 L 143.51,-80.49 z
M 115.705,-78.5635 L 115.778,-78.6839 L 115.926,-78.8871 L 116,-78.9737 L 116,-80 L 118,-80
 L 116,-82 L 116,-82.5326 L 112.571,-82.5326 L 112,-82.8382 L 112,-82 L 110,-84
 L 109.77,-84 L 109.846,-83.8962 L 109.919,-83.7758 L 110.034,-83.5521 L 110.088,-83.4216 L 110.165,-83.1829
 L 110.198,-83.0455 L 110.237,-82.7975 L 110.248,-82.6567 L 110.248,-82.4057 L 110.237,-82.2649 L 110.198,-82.0168
 L 110.165,-81.8795 L 110.154,-81.8458 L 112,-80 L 114,-80 L 115.614,-78.3859 z
M 94.2795,-81.8 L 94.5182,-81.8776 L 94.6555,-81.9106 L 94.9036,-81.9499 L 95.0444,-81.961 L 95.2954,-81.961
 L 95.4139,-81.9516 L 95.5272,-82.1076 L 95.6189,-82.215 L 95.702,-82.298 L 95.4642,-82.5358 L 93.4642,-82.5358
 L 94.2233,-81.7767 z
M 35.3041,-79.7307 L 35.4414,-79.7637 L 35.6895,-79.803 L 35.8303,-79.8141 L 36,-79.8141 L 36,-80
 L 36.3468,-80 L 36.4048,-80.068 L 36.5824,-80.2455 L 36.6898,-80.3372 L 36.8929,-80.4848 L 37.0133,-80.5586
 L 37.237,-80.6726 L 37.3009,-80.6991 L 36.1409,-81.8591 L 36.0792,-81.529 L 35.9668,-81.1339 L 35.8184,-80.7508
 L 35.6353,-80.3831 L 35.4191,-80.0338 L 35.1715,-79.706 L 35.1477,-79.6799 z
M 108,-80 L 110,-80 L 109.371,-80.6288 L 109.322,-80.5864 L 109.118,-80.4388 L 108.998,-80.365
 L 108.774,-80.2511 L 108.644,-80.197 L 108.405,-80.1195 L 108.268,-80.0865 L 108.02,-80.0472 L 107.879,-80.0361
 L 107.628,-80.0361 L 107.509,-80.0454 L 107.396,-79.8896 L 107.304,-79.7822 L 107.127,-79.6046 L 107.019,-79.5128
 L 106.816,-79.3654 L 106.704,-79.2963 L 108,-78 z
M 54,-80 L 53.8596,-80.1404 L 53.7952,-80.1195 L 53.6579,-80.0865 L 53.4098,-80.0472 L 53.269,-80.0361
 L 53.018,-80.0361 L 52.8994,-80.0454 L 52.8664,-80 z
M 116,-72 L 118,-72 L 116,-74 L 116,-75.6642 L 115.926,-75.7508 L 115.778,-75.9541
 L 115.705,-76.0746 L 115.591,-76.2981 L 115.537,-76.4286 L 115.52,-76.4801 L 112,-80 L 112,-78
 L 114,-76 L 112,-76 L 112,-74 L 110,-76 L 108,-76 L 112,-72
 L 114,-72 L 116,-70 z
M 140,-72 L 142,-72 L 140,-74 L 140,-76 L 136,-80 L 136,-78
 L 138,-76 L 136,-76 L 136,-74 L 134,-76 L 132,-76 L 136,-72
 L 138,-72 L 140,-70 z
M 59.38,-73.0173 L 60.1814,-73.8186 L 60,-74 L 60,-76 L 56,-80 L 56,-78
 L 58,-76 L 56,-76 L 56,-74 L 54,-76 L 52,-76 L 56,-72
 L 58,-72 L 59.38,-70.62 z
M 88.154,-77.9705 L 88.2316,-78.2094 L 88.2857,-78.3399 L 88.3997,-78.5636 L 88.4735,-78.684 L 88.621,-78.8871
 L 88.7128,-78.9945 L 88.8591,-79.1409 L 88,-80 L 88,-78 L 88.1299,-77.8701 z
M 83.1683,-70.9889 L 83.3056,-71.0219 L 83.5537,-71.0612 L 83.6945,-71.0723 L 83.9455,-71.0723 L 84,-71.068
 L 84,-72 L 86,-72 L 84,-74 L 84,-76 L 80.0993,-79.9007 L 80.0912,-79.8896
 L 80,-79.7828 L 80,-78 L 82,-76 L 80,-76 L 80,-74 L 78,-76
 L 76,-76 L 80,-72 L 82,-72 L 83.0496,-70.9504 z
M 52,-79.2478 L 51.8623,-79.1776 L 51.7318,-79.1235 L 51.4931,-79.046 L 51.3557,-79.013 L 51.1077,-78.9737
 L 51.0322,-78.9678 L 52,-78 z
M 107.975,-70.7433 L 108,-70.7559 L 108,-72 L 110,-72 L 108,-74 L 108,-76
 L 105.132,-78.8681 L 105.094,-78.8162 L 105.002,-78.7088 L 104.825,-78.5313 L 104.718,-78.4396 L 104.514,-78.2919
 L 104.394,-78.2181 L 104.17,-78.1042 L 104.04,-78.0501 L 104,-78.0372 L 104,-78 L 106,-76
 L 104,-76 L 104,-74 L 102,-76 L 100,-76 L 104,-72 L 106,-72
 L 106.938,-71.0618 L 106.946,-71.0612 L 107.194,-71.0219 L 107.332,-70.9889 L 107.57,-70.9114 L 107.701,-70.8573
 L 107.925,-70.7433 L 107.95,-70.7278 z
M 33.6216,-76.4286 L 33.544,-76.6675 L 33.5111,-76.8048 L 33.4718,-77.0525 L 33.4607,-77.1933 L 33.4607,-77.4447
 L 33.4718,-77.5854 L 33.5111,-77.8332 L 33.544,-77.9705 L 33.6216,-78.2094 L 33.6711,-78.3289 L 33.5282,-78.4718
 L 33.1633,-78.3304 L 32.7682,-78.218 L 32.3644,-78.1425 L 32,-78.1087 L 32,-78 L 32.4217,-77.5783
 L 32.5148,-77.5529 L 32.6156,-77.5084 L 33.101,-77.1759 L 33.179,-77.0979 L 33.5111,-76.613 L 33.5556,-76.5122
 L 33.581,-76.419 L 33.6571,-76.3429 z
M 132,-78.4232 L 131.819,-78.292 L 131.75,-78.2496 L 132,-78 z
M 49.765,-72.5822 L 52.235,-72.5822 L 52.5,-72.3172 L 52.765,-72.5822 L 53.4178,-72.5822 L 52,-74
 L 52,-76 L 49.7826,-78.2174 L 49.5603,-78.1042 L 49.4298,-78.0501 L 49.1909,-77.9725 L 49.0536,-77.9396
 L 48.8057,-77.9003 L 48.6649,-77.8892 L 48.4139,-77.8892 L 48.2954,-77.8985 L 48.2138,-77.7862 L 50,-76
 L 48,-76 L 48,-74 L 46,-76 L 45.0401,-76 L 44.9563,-75.9573 L 44.8258,-75.9032
 L 44.5869,-75.8256 L 44.4496,-75.7927 L 44.2405,-75.7595 L 48,-72 L 49.1828,-72 z
M 132,-72 L 134,-72 L 132,-74 L 132,-76 L 130.165,-77.8354 L 130.097,-77.7427
 L 130.005,-77.6353 L 129.828,-77.4577 L 129.721,-77.366 L 129.517,-77.2185 L 129.397,-77.1447 L 129.173,-77.0307
 L 129.043,-76.9766 L 129.028,-76.9719 L 130,-76 L 128,-76 L 128,-74 L 126.229,-75.7712
 L 126.117,-75.7534 L 125.976,-75.7423 L 125.725,-75.7423 L 125.606,-75.7516 L 125.493,-75.5958 L 125.401,-75.4884
 L 125.224,-75.3109 L 125.116,-75.2191 L 124.922,-75.0779 L 128,-72 L 130,-72 L 132,-70
 z
M 76,-72 L 78,-72 L 76,-74 L 76,-76 L 74.8294,-77.1706 L 74.787,-77.1447
 L 74.5633,-77.0307 L 74.4328,-76.9766 L 74.1939,-76.899 L 74.0566,-76.8661 L 73.8087,-76.8268 L 73.6679,-76.8157
 L 73.4169,-76.8157 L 73.2983,-76.825 L 73.2464,-76.7536 L 74,-76 L 72.3451,-76 L 72.2613,-75.9573
 L 72.1308,-75.9032 L 72,-75.8607 L 72,-74 L 70.6515,-75.3485 L 70.6138,-75.3109 L 70.5064,-75.2191
 L 70.3033,-75.0715 L 70.1828,-74.9977 L 69.9592,-74.8838 L 69.8287,-74.8297 L 69.5898,-74.7521 L 69.4525,-74.7192
 L 69.3043,-74.6957 L 69.3827,-74.6173 L 71.1,-74.6173 L 72.7,-73.0173 L 72.7,-72 L 74,-72
 L 76,-70 z
M 100,-72 L 102,-72 L 100,-74 L 100,-76 L 99.876,-76.124 L 99.7899,-76.0712
 L 99.5663,-75.9573 L 99.4358,-75.9032 L 99.1969,-75.8256 L 99.0596,-75.7927 L 98.8119,-75.7534 L 98.6711,-75.7423
 L 98.4197,-75.7423 L 98.3013,-75.7516 L 98.188,-75.5958 L 98.0963,-75.4884 L 97.9188,-75.3109 L 97.8114,-75.2191
 L 97.6083,-75.0716 L 97.4879,-74.9978 L 97.2642,-74.8838 L 97.1337,-74.8297 L 96.8948,-74.7521 L 96.7575,-74.7192
 L 96.5098,-74.6799 L 96.369,-74.6688 L 96.1176,-74.6688 L 96,-74.6781 L 96,-74 L 95.6897,-74.3103
 L 95.6169,-74.2375 L 95.5095,-74.1458 L 95.3063,-73.9981 L 95.1859,-73.9243 L 94.9622,-73.8104 L 94.8317,-73.7563
 L 94.593,-73.6788 L 94.4556,-73.6458 L 94.3681,-73.6319 L 96,-72 L 98,-72 L 98.9282,-71.0718
 L 98.9345,-71.0723 L 99.1855,-71.0723 L 99.3263,-71.0612 L 99.5744,-71.0219 L 99.7117,-70.9889 L 99.9503,-70.9114
 L 100,-70.8908 z
M 94,-72 L 93.0454,-72.9546 L 93.0043,-72.9246 L 92.8839,-72.8508 L 92.6602,-72.7369 L 92.5297,-72.6828
 L 92.291,-72.6053 L 92.1537,-72.5723 L 91.9056,-72.533 L 91.7648,-72.5219 L 91.5138,-72.5219 L 91.373,-72.533
 L 91.1249,-72.5723 L 90.9876,-72.6053 L 90.7489,-72.6828 L 90.6184,-72.7369 L 90.3947,-72.8509 L 90.2742,-72.9247
 L 90.0712,-73.0722 L 89.9638,-73.164 L 89.7863,-73.3415 L 89.6945,-73.4489 L 89.547,-73.6519 L 89.4732,-73.7724
 L 89.3592,-73.9961 L 89.3051,-74.1266 L 89.2276,-74.3653 L 89.1946,-74.5026 L 89.1553,-74.7507 L 89.1442,-74.8915
 L 89.1442,-75.1425 L 89.1535,-75.261 L 88.9977,-75.3742 L 88.8903,-75.466 L 88.7128,-75.6434 L 88.6211,-75.7508
 L 88.4734,-75.954 L 88.4453,-76 L 88,-76 L 88,-74 L 86,-76 L 84,-76
 L 88,-72 L 90,-72 L 90.9709,-71.0291 L 91.1737,-71.0612 L 91.3145,-71.0723 L 91.5655,-71.0723
 L 91.7063,-71.0612 L 91.9543,-71.0219 L 92,-71.0109 L 92,-72 z
M 38,-72 L 37.4436,-72.5564 L 37.2956,-72.533 L 37.1548,-72.5219 L 36.9038,-72.5219 L 36.763,-72.533
 L 36.5149,-72.5723 L 36.3776,-72.6053 L 36.1389,-72.6828 L 36.0084,-72.7369 L 35.7847,-72.8509 L 35.6642,-72.9247
 L 35.4612,-73.0722 L 35.3538,-73.164 L 35.1763,-73.3415 L 35.0845,-73.4489 L 34.937,-73.6519 L 34.8632,-73.7724
 L 34.7492,-73.9961 L 34.6951,-74.1266 L 34.6176,-74.3653 L 34.5846,-74.5026 L 34.5453,-74.7507 L 34.5342,-74.8915
 L 34.5342,-75.1425 L 34.5435,-75.261 L 34.3877,-75.3742 L 34.2803,-75.466 L 34.1028,-75.6434 L 34.0111,-75.7508
 L 33.8634,-75.954 L 33.8353,-76 L 33.6872,-76 L 33.6893,-75.9822 L 33.7,-75.7972 L 33.7,-74.1972
 L 33.6893,-74.0122 L 33.6813,-73.9435 L 33.5556,-73.4822 L 33.5111,-73.3814 L 33.179,-72.8964 L 33.101,-72.8184
 L 32.6643,-72.5193 L 32.6857,-72.5037 L 32.817,-72.3916 L 32.9945,-72.2141 L 33.1066,-72.0829 L 33.1668,-72
 L 34,-72 L 36,-70 L 36,-72 z
M 61.8714,-74.6173 L 61.8503,-74.7507 L 61.8392,-74.8915 L 61.8392,-75.1425 L 61.8486,-75.261 L 61.6927,-75.3742
 L 61.5853,-75.466 L 61.4077,-75.6435 L 61.316,-75.7509 L 61.1684,-75.954 L 61.1403,-76 L 60,-76
 L 61.3827,-74.6173 z
M 143.51,-74.49 L 142,-76 L 140,-76 L 143.51,-72.49 z
M 44,-72 L 46,-72 L 44,-74 L 44,-75.7423 L 43.8097,-75.7423 L 43.6913,-75.7516
 L 43.578,-75.5958 L 43.4863,-75.4884 L 43.3088,-75.3109 L 43.2014,-75.2191 L 42.9983,-75.0716 L 42.8779,-74.9978
 L 42.6542,-74.8838 L 42.5237,-74.8297 L 42.2848,-74.7521 L 42.1475,-74.7192 L 41.8997,-74.6799 L 41.759,-74.6688
 L 41.5076,-74.6688 L 41.3892,-74.6781 L 41.276,-74.5224 L 41.1843,-74.415 L 41.0069,-74.2375 L 40.8995,-74.1458
 L 40.6963,-73.9981 L 40.5759,-73.9243 L 40.3522,-73.8104 L 40.2217,-73.7563 L 39.983,-73.6788 L 39.8456,-73.6458
 L 39.5976,-73.6065 L 39.4568,-73.5954 L 39.2058,-73.5954 L 39.0873,-73.6047 L 38.9741,-73.449 L 38.8824,-73.3416
 L 38.7704,-73.2296 L 40,-72 L 42,-72 L 44,-70 z
M 124,-72 L 126,-72 L 124,-74 L 124,-74.7093 L 123.815,-74.6799 L 123.674,-74.6688
 L 123.423,-74.6688 L 123.304,-74.6781 L 123.191,-74.5224 L 123.099,-74.415 L 122.922,-74.2375 L 122.814,-74.1457
 L 122.611,-73.9981 L 122.491,-73.9243 L 122.267,-73.8104 L 122.137,-73.7564 L 121.898,-73.6788 L 121.761,-73.6458
 L 121.513,-73.6065 L 121.372,-73.5954 L 121.121,-73.5954 L 121.002,-73.6047 L 120.889,-73.4489 L 120.797,-73.3415
 L 120.62,-73.164 L 120.512,-73.0722 L 120.309,-72.9247 L 120.189,-72.8509 L 119.965,-72.7369 L 119.835,-72.6828
 L 119.596,-72.6053 L 119.459,-72.5723 L 119.432,-72.5681 L 120,-72 L 122,-72 L 124,-70
 z
M 16.0912,-72.2299 L 16.2288,-72.3909 L 16.4063,-72.5684 L 16.557,-72.6972 L 16.4062,-72.826 L 16.2288,-73.0034
 L 16.0912,-73.1645 L 15.9436,-73.3677 L 15.8329,-73.5483 L 15.7189,-73.7721 L 15.6378,-73.9678 L 15.5603,-74.2065
 L 15.5108,-74.4125 L 15.4964,-74.5036 L 15.3509,-74.6491 L 15.2803,-74.2716 L 15.2424,-73.8626 L 15.24,-73.6572
 L 15.24,-72.76 L 15.9561,-72.0439 z
M 44,-64 L 46,-64 L 44,-66 L 44,-68 L 40,-72 L 40,-70
 L 41.3028,-68.6972 L 42,-68.6972 L 43.6,-67.0972 L 43.6,-62.8972 L 43.3514,-62.6486 L 44,-62
 z
M 48.165,-70.9822 L 48.5914,-71.4086 L 48,-72 L 48,-70 L 48.165,-69.835 z
M 96.0056,-71.0219 L 96.2537,-71.0612 L 96.3945,-71.0723 L 96.6455,-71.0723 L 96.7863,-71.0612 L 96.9675,-71.0325
 L 96,-72 L 96,-71.0205 z
M 80.0354,-70.7433 L 80.2592,-70.8574 L 80.3897,-70.9114 L 80.6283,-70.9889 L 80.7656,-71.0219 L 80.9491,-71.0509
 L 80,-72 L 80,-70.7339 L 80.01,-70.7278 z
M 137.255,-64.0116 L 137.288,-64.1489 L 137.366,-64.3877 L 137.42,-64.5181 L 137.534,-64.7417 L 137.608,-64.8622
 L 137.755,-65.0653 L 137.847,-65.1727 L 138.024,-65.3502 L 138.132,-65.442 L 138.335,-65.5895 L 138.455,-65.6633
 L 138.679,-65.7773 L 138.81,-65.8314 L 139.048,-65.909 L 139.186,-65.9419 L 139.434,-65.9812 L 139.574,-65.9923
 L 139.826,-65.9923 L 139.966,-65.9812 L 140.029,-65.9713 L 140,-66 L 140,-68 L 136,-72
 L 136,-70 L 138,-68 L 136,-68 L 136,-66 L 134,-68 L 132,-68
 L 136,-64 L 137.253,-64 z
M 134,-64 L 132,-66 L 132,-68 L 128,-72 L 128,-70 L 130,-68
 L 128,-68 L 128,-66.1752 L 128.633,-66.3249 L 131.366,-65.505 L 132.486,-64 z
M 116,-68 L 112,-72 L 112,-71.0633 L 112.026,-71.0612 L 112.274,-71.0219 L 112.412,-70.9889
 L 112.65,-70.9114 L 112.781,-70.8574 L 113.005,-70.7433 L 113.125,-70.6696 L 113.328,-70.522 L 113.436,-70.4302
 L 113.613,-70.2527 L 113.705,-70.1453 L 113.852,-69.9422 L 113.926,-69.8217 L 114.04,-69.5979 L 114.094,-69.4675
 L 114.172,-69.2289 L 114.205,-69.0916 L 114.244,-68.8435 L 114.255,-68.7027 L 114.255,-68.5323 L 114.425,-68.5323
 L 114.566,-68.5212 L 114.814,-68.4819 L 114.952,-68.4489 L 115.19,-68.3714 L 115.321,-68.3173 L 115.545,-68.2033
 L 115.665,-68.1295 L 115.868,-67.9819 L 115.975,-67.8902 L 116,-67.8657 z
M 123.215,-65.6633 L 123.439,-65.7773 L 123.57,-65.8313 L 123.808,-65.909 L 123.946,-65.9419 L 124.043,-65.9573
 L 124,-66 L 124,-68 L 120,-72 L 120,-70 L 122,-68 L 120,-68
 L 120,-66 L 118,-68 L 116,-68 L 118.269,-65.7313 L 118.359,-65.7773 L 118.49,-65.8314
 L 118.728,-65.909 L 118.866,-65.9419 L 119.114,-65.9812 L 119.254,-65.9923 L 119.505,-65.9923 L 119.646,-65.9812
 L 119.894,-65.9419 L 120.032,-65.909 L 120.27,-65.8314 L 120.401,-65.7773 L 120.625,-65.6633 L 120.65,-65.6478
 L 120.675,-65.6633 L 120.899,-65.7773 L 121.03,-65.8314 L 121.268,-65.909 L 121.406,-65.9419 L 121.654,-65.9812
 L 121.794,-65.9923 L 122.046,-65.9923 L 122.186,-65.9812 L 122.434,-65.9419 L 122.572,-65.909 L 122.81,-65.8314
 L 122.941,-65.7773 L 123.165,-65.6633 L 123.19,-65.6478 z
M 59.38,-68.62 L 56,-72 L 56,-71.8172 L 56.835,-70.9822 L 56.835,-69.165 L 58,-68
 L 56.835,-68 L 56.835,-67.6972 L 56.0895,-66.9517 L 56.102,-66.9271 L 56.144,-66.8256 L 56.2215,-66.5871
 L 56.2471,-66.4803 L 56.2864,-66.2323 L 56.2951,-66.1228 L 56.2951,-66.0191 L 56.5284,-65.615 L 56.5284,-64
 L 58,-64 L 59.38,-62.62 z
M 88.0097,-70.9114 L 88.2483,-70.9889 L 88.3856,-71.0219 L 88.6337,-71.0612 L 88.7745,-71.0723 L 88.9277,-71.0723
 L 88,-72 L 88,-70.9074 z
M 104,-72 L 104,-71.0711 L 104.014,-71.0723 L 104.266,-71.0723 L 104.406,-71.0612 L 104.654,-71.0219
 L 104.792,-70.9889 L 105.03,-70.9114 L 105.13,-70.8702 z
M 76,-64 L 76.2935,-64 L 76.2953,-64.0116 L 76.3283,-64.1489 L 76.4058,-64.3875 L 76.4598,-64.518
 L 76.5738,-64.7417 L 76.5894,-64.7672 L 76.5738,-64.7926 L 76.4598,-65.0164 L 76.4058,-65.1469 L 76.3283,-65.3855
 L 76.2953,-65.5228 L 76.2611,-65.7389 L 76,-66 L 76,-68 L 72.7,-71.3 L 72.7,-69.3
 L 74,-68 L 72.7,-68 L 72.7,-64 L 74,-64 L 76,-62 z
M 33.6,-69.2472 L 34.7528,-69.2472 L 33.6951,-70.3049 L 33.6951,-70.2717 L 33.6815,-70.0997 L 33.6422,-69.8516
 L 33.6019,-69.6837 L 33.5244,-69.445 L 33.4583,-69.2855 L 33.3443,-69.0617 L 33.2541,-68.9146 L 33.2189,-68.8661
 z
M 48.7049,-65.998 L 48.7049,-66.1228 L 48.7135,-66.2323 L 48.7528,-66.4803 L 48.7785,-66.5871 L 48.856,-66.8256
 L 48.898,-66.9271 L 48.9105,-66.9517 L 48.165,-67.6972 L 48.165,-68 L 48,-68 L 48,-66
 L 46,-68 L 44,-68 L 48,-64 L 48.4684,-64 L 48.4684,-65.6172 z
M 17.22,-66.9272 L 20,-66.9272 L 20,-67.1372 L 19.06,-67.1372 L 18.729,-67.4682 L 18.5255,-67.4521
 L 18.2745,-67.4521 L 18.0633,-67.4688 L 17.8153,-67.508 L 17.6093,-67.5575 L 17.3705,-67.6351 L 17.1748,-67.7161
 L 16.9511,-67.8301 L 16.7705,-67.9408 L 16.689,-68 L 16,-68 L 16,-66 L 15.24,-66.76
 L 15.24,-64.76 L 15.62,-64.38 L 15.62,-65.3272 z
M 142.114,-65.9923 L 142.265,-65.9923 L 143.136,-66.8636 L 142,-68 L 140,-68 L 142.016,-65.9845
 z
M 76.4598,-67.5564 L 76.4058,-67.6869 L 76.3283,-67.9255 L 76.3104,-68 L 76,-68 L 76.4767,-67.5233
 z
M 127.076,-65.9568 L 127.858,-66.1417 L 126,-68 L 124,-68 L 126.765,-65.2353 z
M 30.4,-67.0972 L 30.6514,-67.3486 L 30.5264,-67.4736 L 30.19,-67.1372 L 28.8628,-67.1372 L 30.4,-65.6
 z
M 22.8628,-67.1372 L 20.8628,-67.1372 L 21.9728,-66.0272 L 23.9728,-66.0272 z
M 28,-66 L 28,-67.1372 L 24,-67.1372 L 24,-66.0272 L 27.4126,-66.0272 L 28.3984,-65.6016
 z
M 30,-64 L 28.6085,-65.3915 L 28.9374,-64 z
M 48.4684,-63.5316 L 48,-64 L 48,-62 L 48.4684,-61.5316 z
M 136.272,-62.1116 L 137.488,-62.1116 L 137.534,-62.2018 L 137.549,-62.2272 L 137.534,-62.2526 L 137.42,-62.4762
 L 137.366,-62.6067 L 137.353,-62.6474 L 136,-64 L 136,-62 L 136.042,-61.958 z
M 59.38,-60.62 L 56.5284,-63.4716 L 56.5284,-61.4716 L 58,-60 L 56.5284,-60 L 56.5284,-58.3794
 L 55.6376,-56.9452 L 55.0147,-56.9853 L 56,-56 L 58,-56 L 59.38,-54.62 z
M 76,-56 L 76.2449,-56 L 76.2449,-56.0027 L 76.256,-56.1435 L 76.2953,-56.3916 L 76.3283,-56.5289
 L 76.4058,-56.7675 L 76.4598,-56.8979 L 76.5738,-57.1217 L 76.5894,-57.1472 L 76.5738,-57.1726 L 76.4598,-57.3965
 L 76.4058,-57.5269 L 76.3734,-57.6266 L 76,-58 L 76,-60 L 72.7,-63.3 L 72.7,-61.3
 L 74,-60 L 72.7,-60 L 72.7,-59.5372 L 72.9831,-59.254 L 73.6447,-59.0335 L 73.7301,-58.8627
 L 73.493,-58.7442 L 73.8113,-58.4259 L 73.9211,-58.4808 L 74.0857,-58.1515 L 74.09,-58.1472 L 74.09,-58.1429
 L 74.0919,-58.1391 L 74.09,-58.1335 L 74.09,-57.7652 L 73.9672,-57.7652 L 73.8249,-57.3382 L 74.09,-57.3382
 L 74.09,-56.9562 L 73.8249,-56.9562 L 73.9672,-56.5292 L 74.09,-56.5292 L 74.09,-56.1609 L 74.0919,-56.1552
 L 74.09,-56.1515 L 74.09,-56.1472 L 74.0857,-56.1429 L 74.0095,-55.9905 L 76,-54 z
M 44,-56 L 46,-56 L 44,-58 L 44,-60 L 42.3514,-61.6486 L 42.3082,-61.6054
 L 42.3952,-61.3569 L 42.4449,-61.1843 L 42.5198,-60.856 L 42.5499,-60.6792 L 42.5875,-60.3446 L 42.5974,-60.1884
 L 42.5998,-60.0201 L 42.6,-59.9972 L 42.6,-59.3486 L 42.4912,-59.3486 L 42.5495,-59.0634 L 42.6749,-59.105
 L 42.7016,-59.0247 L 42.7505,-58.1978 L 42.4503,-57.8598 L 42.456,-57.8586 L 42.4449,-57.8102 L 42.3952,-57.6375
 L 42.284,-57.3197 L 42.2153,-57.1538 L 42.0692,-56.8505 L 41.9825,-56.6938 L 41.8035,-56.4087 L 41.6995,-56.2622
 L 41.4904,-56 L 42,-56 L 44,-54 z
M 54,-56 L 52.9833,-57.0167 L 52.6805,-57.0069 L 52.6407,-56.9429 L 51.044,-57.0459 L 51,-57.0753
 L 50.9559,-57.0459 L 49.2684,-56.9916 L 48.4684,-58.3772 L 48.4684,-60 L 48,-60 L 48,-58
 L 46,-60 L 44,-60 L 48,-56 L 50,-56 L 52,-54 L 52,-56
 z
M 76.5739,-59.6618 L 76.5894,-59.6872 L 76.5739,-59.7126 L 76.4598,-59.9364 L 76.4335,-60 L 76,-60
 L 76.4943,-59.5057 z
M 32.3005,-56.2622 L 32.1965,-56.4087 L 32.0174,-56.6938 L 31.9308,-56.8505 L 31.7847,-57.1538 L 31.716,-57.3197
 L 31.6048,-57.6375 L 31.5551,-57.8101 L 31.4802,-58.1384 L 31.4501,-58.3152 L 31.4203,-58.5797 L 30,-60
 L 28.8043,-60 L 28.8292,-59.2272 L 28.7935,-59.2065 L 32,-56 L 32.5096,-56 z
M 134.609,-59.3914 L 134,-60 L 132.507,-60 L 132.507,-59.4935 L 134.609,-57.3914 z
M 17.387,-56.1502 L 17.2968,-56.1874 L 17.2805,-56.1982 L 16.831,-56.6477 L 16.8202,-56.664 L 16.5845,-57.236
 L 16.5807,-57.2551 L 16.55,-57.5672 L 16.55,-58.2572 L 16,-58.8072 L 16,-58 L 15.24,-58.76
 L 15.24,-56.76 L 16,-56 L 17.5373,-56 z
M 26.5378,-55.6807 L 28.0949,-56.0488 L 28.2577,-56 L 30,-56 L 28.2686,-57.7314 L 28.2686,-57.4864
 L 26.6686,-55.8864 L 26.1136,-55.8864 L 26.472,-55.528 z
M 134,-56 L 132.507,-57.4935 L 132.507,-56 z
M 49.9088,-48.0229 L 49.8544,-49.7105 L 51.24,-50.5105 L 52,-50.5105 L 52,-52 L 48,-56
 L 48,-54 L 50,-52 L 48,-52 L 48,-50 L 46,-52 L 44,-52
 L 48,-48 L 49.924,-48 z
M 17.1805,-53.1162 L 17.1968,-53.127 L 17.7688,-53.3627 L 17.7879,-53.3665 L 18.1,-53.3972 L 18.6028,-53.3972
 L 16,-56 L 16,-54 L 17.0322,-52.9678 z
M 59.8962,-50.9209 L 59.38,-51.4372 L 59.38,-52.62 L 56,-56 L 56,-54 L 58,-52
 L 56,-52 L 56,-50.5105 L 57.8467,-50.5105 L 57.9252,-50.5086 L 58.0147,-50.5042 L 58.1703,-50.4889
 L 58.2589,-50.4758 L 58.4138,-50.445 L 58.5008,-50.4232 L 58.6507,-50.3777 L 58.7351,-50.3475 L 58.8802,-50.2874
 L 58.9612,-50.2491 L 59.0998,-50.175 L 59.1314,-50.1561 z
M 34.6757,-53.3243 L 32,-56 L 32,-54.6942 L 32.8294,-53.5794 L 32.9214,-53.584 L 33.0786,-53.584
 L 33.1943,-53.5783 L 33.3506,-53.5629 L 33.4651,-53.5459 L 33.6183,-53.5154 L 33.7307,-53.4873 L 33.8816,-53.4416
 L 33.9906,-53.4026 L 34.1366,-53.3421 L 34.2412,-53.2925 L 34.3787,-53.2189 L 34.3955,-53.2089 z
M 24.8636,-53.3432 L 25.0094,-53.4036 L 25.1185,-53.4426 L 25.2681,-53.488 L 25.3806,-53.5162 L 25.5348,-53.5469
 L 25.6494,-53.5639 L 25.8054,-53.5793 L 25.9212,-53.585 L 26.0352,-53.5849 L 26.0352,-53.9648 L 24.1136,-55.8864
 L 24,-55.8864 L 24,-54 L 24.7246,-53.2754 L 24.7588,-53.2936 z
M 44,-48 L 46,-48 L 44,-50 L 44,-52 L 40.7159,-55.2841 L 40.5885,-55.1938
 L 40.3034,-55.0146 L 40.1467,-54.928 L 40,-54.8574 L 40,-54 L 40.6028,-53.3972 L 40.9,-53.3972
 L 41.2121,-53.3665 L 41.2312,-53.3627 L 41.8032,-53.127 L 41.8195,-53.1162 L 42.269,-52.6667 L 42.2798,-52.6504
 L 42.5155,-52.0784 L 42.5193,-52.0593 L 42.55,-51.7472 L 42.55,-51.5072 L 43.33,-50.7272 L 43.33,-46.67
 L 44,-46 z
M 76,-48 L 76.2553,-48 L 76.2449,-48.1317 L 76.2449,-48.3827 L 76.256,-48.5235 L 76.2953,-48.7715
 L 76.3283,-48.9089 L 76.4058,-49.1475 L 76.4598,-49.2779 L 76.5483,-49.4517 L 76,-50 L 76,-52
 L 72.9714,-55.0286 L 72.7,-54.7572 L 72.7,-53.3 L 74,-52 L 73.2706,-52 L 73.339,-51.9317
 L 73.3498,-51.9154 L 73.5854,-51.3434 L 73.5892,-51.3243 L 73.62,-51.0122 L 73.62,-49.3122 L 73.5892,-49.0001
 L 73.5854,-48.981 L 73.4232,-48.5873 L 73.4542,-48.5125 L 73.5317,-48.2739 L 73.5647,-48.1366 L 73.5863,-48
 L 74,-48 L 76,-46 z
M 20,-54.9873 L 19.0127,-54.9873 L 20,-54 z
M 36,-54.3972 L 35.9772,-54.3974 L 35.8089,-54.3997 L 35.6525,-54.4097 L 35.5824,-54.4176 L 36,-54
 z
M 136.49,-48.9672 L 136.49,-51.2972 L 137.193,-52 L 136,-52 L 136,-50 L 134,-52
 L 132.507,-52 L 132.507,-51.4935 L 136,-48 L 136.723,-48 L 137.09,-48.3672 z
M 16.45,-51.7472 L 16.4749,-52 L 16,-52 L 16,-51.0572 L 16.45,-51.5072 z
M 76.4058,-51.6875 L 76.4598,-51.8179 L 76.5526,-52 L 76,-52 L 76.3829,-51.6171 z
M 54,-52 L 52,-52 L 53.4895,-50.5105 L 55.4895,-50.5105 z
M 15.67,-50.33 L 15.24,-50.76 L 15.24,-48.76 L 15.67,-48.33 z
M 68,-48 L 68.6537,-48 L 68.6753,-48.1364 L 68.7082,-48.2737 L 68.7859,-48.5127 L 68.8168,-48.5873
 L 68.6545,-48.981 L 68.6507,-49.0001 L 68.62,-49.3122 L 68.62,-49.38 L 68.1628,-49.8372 L 66.8737,-49.8372
 L 66.9278,-49.6707 L 66.9607,-49.5334 L 67,-49.2855 L 67.0111,-49.1447 L 67.0111,-48.8937 L 67,-48.7529
 L 66.9607,-48.505 L 66.9278,-48.3677 L 66.8502,-48.1288 L 66.7961,-47.9983 L 66.6821,-47.7746 L 66.6665,-47.7492
 L 66.6821,-47.7238 L 66.7961,-47.5001 L 66.8502,-47.3696 L 66.9278,-47.1307 L 66.9462,-47.0538 L 68,-46
 z
M 134,-48 L 132.507,-49.4935 L 132.507,-48 z
M 38,-48 L 37.8728,-48.1272 L 36.87,-48.1272 L 36.87,-48 z
M 20,-48 L 22,-48 L 21.8728,-48.1272 L 19.87,-48.1272 L 19.87,-46.13 L 20,-46
 z
M 136.27,-47.5472 L 136.361,-47.6386 L 136,-48 L 136,-46 L 136.27,-45.73 z
M 49.8955,-44.8846 L 50.3834,-45.6166 L 48,-48 L 48,-46 L 49.8955,-44.1045 z
M 76,-40 L 76.3248,-40 L 76.2953,-40.1228 L 76.256,-40.3709 L 76.2449,-40.5117 L 76.2449,-40.7627
 L 76.256,-40.9035 L 76.2953,-41.1516 L 76.3283,-41.2889 L 76.4058,-41.5275 L 76.4253,-41.5747 L 76,-42
 L 76,-44 L 73.3996,-46.6004 L 73.2861,-46.3776 L 73.2706,-46.3522 L 73.2861,-46.3268 L 73.4002,-46.1029
 L 73.4542,-45.9725 L 73.5317,-45.7339 L 73.5647,-45.5965 L 73.604,-45.3485 L 73.6151,-45.2077 L 73.6151,-44.9567
 L 73.604,-44.8159 L 73.5647,-44.5678 L 73.539,-44.461 L 74,-44 L 73.3689,-44 L 73.2861,-43.8376
 L 73.2706,-43.8122 L 73.2861,-43.7868 L 73.4002,-43.5629 L 73.4542,-43.4325 L 73.5317,-43.1939 L 73.5647,-43.0565
 L 73.604,-42.8085 L 73.6151,-42.6677 L 73.6151,-42.4167 L 73.604,-42.2759 L 73.5647,-42.0278 L 73.5317,-41.8905
 L 73.4542,-41.6519 L 73.4002,-41.5215 L 73.2861,-41.2976 L 73.2124,-41.1772 L 73.0648,-40.9741 L 72.973,-40.8667
 L 72.7955,-40.6891 L 72.6881,-40.5974 L 72.485,-40.4498 L 72.3645,-40.376 L 72.1407,-40.262 L 72.0103,-40.208
 L 71.8455,-40.1545 L 72,-40 L 74,-40 L 76,-38 z
M 68,-40 L 70,-40 L 68,-42 L 68,-44 L 66.7102,-45.2898 L 66.6821,-45.2346
 L 66.6665,-45.2092 L 66.6821,-45.1837 L 66.7961,-44.9601 L 66.8502,-44.8296 L 66.9278,-44.5907 L 66.9607,-44.4534
 L 67,-44.2055 L 67.0111,-44.0647 L 67.0111,-43.8137 L 67,-43.6729 L 66.9607,-43.425 L 66.9278,-43.2877
 L 66.8502,-43.0488 L 66.8193,-42.9743 L 66.9814,-42.5804 L 66.9852,-42.5613 L 67.016,-42.2492 L 67.016,-40.5492
 L 66.9852,-40.2371 L 66.9814,-40.218 L 66.7463,-39.6469 L 66.7355,-39.6306 L 66.5525,-39.4475 L 68,-38
 z
M 137.216,-40.3709 L 137.205,-40.5117 L 137.205,-40.7627 L 137.216,-40.9035 L 137.255,-41.1516 L 137.288,-41.2889
 L 137.366,-41.5277 L 137.42,-41.6581 L 137.534,-41.8817 L 137.608,-42.0022 L 137.755,-42.2053 L 137.847,-42.3127
 L 138.024,-42.4902 L 138.132,-42.582 L 138.335,-42.7295 L 138.455,-42.8033 L 138.679,-42.9173 L 138.81,-42.9714
 L 139.048,-43.049 L 139.186,-43.0819 L 139.434,-43.1212 L 139.574,-43.1323 L 139.625,-43.1323 L 139.54,-43.2172
 L 138.85,-43.2172 L 138.538,-43.2479 L 138.519,-43.2517 L 137.948,-43.4868 L 137.931,-43.4976 L 137.481,-43.9483
 L 137.47,-43.9646 L 137.455,-44 L 136,-44 L 136,-42 L 134,-44 L 132.507,-44
 L 132.507,-43.4935 L 136,-40 L 137.285,-40 L 137.255,-40.1228 z
M 49.8405,-41.7272 L 50.5724,-42.1498 L 50.5149,-42.1805 L 49.8955,-43.1097 L 49.8955,-44 L 48,-44
 L 48,-42 L 46.8882,-43.1118 L 46.8894,-43.0995 L 46.8956,-42.9724 L 46.8975,-42.8945 L 46.8975,-41.1025
 L 48,-40 L 49.9212,-40 L 49.8948,-40.0397 z
M 68.7858,-43.4326 L 68.8399,-43.5631 L 68.9539,-43.7868 L 68.9694,-43.8122 L 68.9539,-43.8376 L 68.8711,-44
 L 68,-44 L 68.7323,-43.2677 z
M 76.3283,-43.8289 L 76.3839,-44 L 76,-44 L 76.2978,-43.7022 z
M 20,-40 L 22,-40 L 20.7206,-41.2794 L 20.3195,-40.8782 L 20.3032,-40.8674 L 19.7312,-40.6317
 L 19.7121,-40.6279 L 19.4,-40.5972 L 18.1,-40.5972 L 17.7879,-40.6279 L 17.7688,-40.6317 L 17.1968,-40.8674
 L 17.1805,-40.8782 L 16.731,-41.3277 L 16.7202,-41.344 L 16.4845,-41.916 L 16.4807,-41.9351 L 16.45,-42.2472
 L 16.45,-42.4872 L 16,-42.9372 L 16,-42 L 15.24,-42.76 L 15.24,-40.76 L 16,-40
 L 18,-40 L 20,-38 z
M 134,-40 L 132.507,-41.4935 L 132.507,-40 z
M 36,-40 L 38,-40 L 37.1824,-40.8176 L 36.7312,-40.6317 L 36.7121,-40.6279 L 36.4,-40.5972
 L 35.1,-40.5972 L 34.7879,-40.6279 L 34.7688,-40.6317 L 34.3955,-40.7855 L 34.3787,-40.7755 L 34.2412,-40.7019
 L 34.1366,-40.6523 L 33.9906,-40.5918 L 33.8816,-40.5528 L 33.7307,-40.5071 L 33.6183,-40.479 L 33.4651,-40.4485
 L 33.3506,-40.4315 L 33.1943,-40.4161 L 33.0786,-40.4104 L 32.9648,-40.4104 L 32.9648,-40 L 34,-40
 L 36,-38 z
M 28,-38.817 L 27.1755,-39.0644 L 26.1713,-40.414 L 26.0788,-40.4094 L 25.9212,-40.4094 L 25.8054,-40.4151
 L 25.6494,-40.4305 L 25.5348,-40.4475 L 25.3806,-40.4782 L 25.2681,-40.5064 L 25.1185,-40.5518 L 25.0094,-40.5908
 L 24.8636,-40.6512 L 24.7588,-40.7007 L 24.6204,-40.7748 L 24.6033,-40.785 L 24.2312,-40.6317 L 24.2121,-40.6279
 L 23.9,-40.5972 L 23.4028,-40.5972 L 24,-40 L 26,-40 L 28,-38 z
M 41.1025,-40.6171 L 40.9,-40.5972 L 39.6,-40.5972 L 39.3813,-40.6187 L 40,-40 L 41.1025,-40
 z
M 136.272,-39.2543 L 136.746,-39.2543 L 136,-40 L 136,-39.0726 z
M 76.4583,-32 L 76.4058,-32.1269 L 76.3283,-32.3655 L 76.2953,-32.5028 L 76.256,-32.7509 L 76.2449,-32.8917
 L 76.2449,-33.1427 L 76.256,-33.2835 L 76.2953,-33.5316 L 76.3283,-33.6689 L 76.329,-33.671 L 76,-34
 L 76,-36 L 72,-40 L 72,-38 L 74,-36 L 72,-36 L 72,-34
 L 70,-36 L 68,-36 L 71.4001,-32.5999 L 71.5788,-32.5716 L 71.662,-32.5516 L 71.7123,-32.5352
 L 71.7459,-32.5688 L 71.8936,-32.6949 L 72.0966,-32.8425 L 72.2622,-32.9439 L 72.486,-33.058 L 72.6654,-33.1323
 L 72.9041,-33.2098 L 73.0928,-33.2551 L 73.3408,-33.2944 L 73.5344,-33.3097 L 73.7856,-33.3097 L 73.9792,-33.2944
 L 74.2271,-33.2551 L 74.4159,-33.2098 L 74.6546,-33.1322 L 74.834,-33.058 L 75.0578,-32.9439 L 75.2233,-32.8425
 L 75.4264,-32.695 L 75.574,-32.5689 L 75.7517,-32.3912 L 75.8778,-32.2436 L 76.0253,-32.0405 L 76.0501,-32
 z
M 20,-32 L 22,-32 L 20,-34 L 20,-36 L 16,-40 L 16,-38
 L 18,-36 L 16,-36 L 16,-34 L 15.24,-34.76 L 15.24,-32.76 L 16,-32
 L 18,-32 L 20,-30 z
M 24.3465,-34.9436 L 24.1615,-35.1286 L 24.3686,-35.3357 L 24.7323,-35.3357 L 24.7961,-35.3994 L 24.8342,-35.4314
 L 25,-35.5972 L 25.0362,-35.5972 L 25.1814,-35.6989 L 25.4236,-35.8386 L 25.5245,-35.8856 L 25.656,-35.6032
 L 26.2,-36.1472 L 26.6087,-36.1472 L 26.704,-36.1555 L 26.7209,-35.9616 L 26.8688,-36.0857 L 26.8615,-36.1692
 L 26.9807,-36.1796 L 26.9844,-36.1827 L 27.0005,-36.1813 L 27.0158,-36.1827 L 27.0194,-36.1797 L 27.1395,-36.1692
 L 27.1321,-36.085 L 27.2793,-35.9615 L 27.2962,-36.1555 L 27.3915,-36.1472 L 27.8,-36.1472 L 28,-35.9472
 L 28,-36 L 24,-40 L 24,-38 L 26,-36 L 24,-36 L 24,-34.7043
 L 24.0536,-34.6508 z
M 41.1025,-38.8975 L 40,-40 L 40,-38 L 41.1025,-36.8975 z
M 49.8405,-37.7272 L 50.1146,-37.8854 L 48,-40 L 48,-38 L 49.8926,-36.1074 z
M 33,-35.5972 L 33.0362,-35.5972 L 33.1814,-35.6989 L 33.4236,-35.8386 L 33.5245,-35.8856 L 33.656,-35.6032
 L 34.2,-36.1472 L 34.6087,-36.1472 L 34.704,-36.1555 L 34.7209,-35.9616 L 34.8688,-36.0857 L 34.8615,-36.1692
 L 34.9807,-36.1796 L 34.9844,-36.1827 L 35.0005,-36.1813 L 35.0158,-36.1827 L 35.0194,-36.1797 L 35.1395,-36.1692
 L 35.1321,-36.085 L 35.2793,-35.9615 L 35.2962,-36.1555 L 35.3915,-36.1472 L 35.8,-36.1472 L 36,-35.9472
 L 36,-36 L 32.8313,-39.1687 L 32.4621,-38.3137 L 32,-38.2044 L 32,-38 L 34,-36
 L 32,-36 L 32,-35.9472 L 32.344,-35.6032 L 32.4755,-35.8856 L 32.5764,-35.8386 L 32.819,-35.6985
 L 32.985,-35.5822 z
M 66.2147,-32.0405 L 66.3622,-32.2436 L 66.4883,-32.3912 L 66.6659,-32.5688 L 66.8136,-32.6949 L 67.0166,-32.8425
 L 67.1822,-32.9439 L 67.406,-33.058 L 67.5854,-33.1323 L 67.8241,-33.2098 L 68.0128,-33.2551 L 68.2608,-33.2944
 L 68.4544,-33.3097 L 68.6903,-33.3097 L 68,-34 L 68,-36 L 65.1008,-38.8992 L 64,-38.8992
 L 64,-38 L 66,-36 L 64,-36 L 64,-34 L 63.5308,-34.4692 L 63.5308,-33.2722
 L 63.86,-33.2722 L 65.1322,-32 L 66,-32 L 66.1177,-31.8823 z
M 49.0468,-32.072 L 49.6188,-32.3076 L 49.6379,-32.3114 L 49.95,-32.3422 L 51.65,-32.3422 L 51.9621,-32.3114
 L 51.9812,-32.3076 L 52.3749,-32.1454 L 52.4496,-32.1764 L 52.6885,-32.254 L 52.8258,-32.2869 L 53.0737,-32.3262
 L 53.2145,-32.3373 L 53.4655,-32.3373 L 53.6063,-32.3262 L 53.6865,-32.3135 L 52.5328,-33.4672 L 51.2261,-33.4672
 L 49.7918,-34.358 L 49.8948,-35.9547 L 49.9231,-35.9972 L 49.9212,-36 L 48,-36 L 48,-34
 L 46.8975,-35.1025 L 46.8975,-33.8024 L 46.8543,-33.7023 L 46.8935,-33.6496 L 46.8935,-33.1065 L 48,-32
 L 48.9694,-32 L 49.0305,-32.0612 z
M 40,-36 L 40,-35.9472 L 40.344,-35.6032 L 40.4755,-35.8856 L 40.5764,-35.8386 L 40.819,-35.6985
 L 40.9907,-35.5782 L 41.1025,-35.4844 L 41.1025,-36 z
M 76.256,-35.8235 L 76.284,-36 L 76,-36 L 76.2502,-35.7498 z
M 37,-35.5972 L 37.0362,-35.5972 L 37.1814,-35.6989 L 37.4236,-35.8386 L 37.5245,-35.8856 L 37.656,-35.6032
 L 38.0264,-35.9736 L 38,-36 L 36,-36 L 36.3608,-35.6392 L 36.4755,-35.8856 L 36.5764,-35.8386
 L 36.819,-35.6985 L 36.985,-35.5822 z
M 23.4,-32.6901 L 23.6615,-32.6901 L 23.6615,-33.1043 L 23.4,-33.1043 L 23.4,-33.2901 L 23.6615,-33.2901
 L 23.6615,-33.7043 L 23.4,-33.7043 L 23.4,-33.9972 L 23.6615,-34.2587 L 23.6615,-34.3385 L 22,-36
 L 20,-36 L 23.4,-32.6 z
M 29,-35.5972 L 29.0362,-35.5972 L 29.1814,-35.6989 L 29.4236,-35.8386 L 29.5245,-35.8856 L 29.656,-35.6032
 L 30.0264,-35.9736 L 30,-36 L 28,-36 L 28.3608,-35.6392 L 28.4755,-35.8856 L 28.5764,-35.8386
 L 28.819,-35.6985 L 28.985,-35.5822 z
M 134.605,-35.3954 L 134,-36 L 132.507,-36 L 132.507,-35.4935 L 134.605,-33.3954 z
M 58.4692,-32.4764 L 58.4692,-33.5468 L 58.4125,-33.5327 L 58.2604,-33.5025 L 58.1701,-33.489 L 58.0137,-33.4736
 L 57.9226,-33.4691 L 57.8439,-33.4672 L 54.5328,-33.4672 L 56,-32 L 57.9928,-32 z
M 134,-32 L 132.507,-33.4935 L 132.507,-32 z
M 22,-24 L 20,-26 L 20,-28 L 16,-32 L 16,-30 L 18,-28
 L 16,-28 L 16,-26 L 14.8293,-27.1707 L 14.7853,-27.1613 L 14.5517,-27.1509 L 14.3196,-27.1788
 L 14.0952,-27.2444 L 13.8845,-27.3458 L 13.6934,-27.4804 L 13.5268,-27.6445 L 13.3894,-27.8337 L 13.335,-27.9372
 L 12.0628,-27.9372 L 14.4469,-25.5531 L 14.74,-25.8462 L 15.74,-25.8462 L 16.51,-25.0762 L 17.28,-25.8462
 L 18.28,-25.8462 L 19.88,-24.2462 L 19.88,-24.084 L 20.0475,-24.1105 L 20.1945,-24.1221 L 20.4455,-24.1221
 L 20.5925,-24.1105 L 20.8405,-24.0712 L 20.9839,-24.0368 L 21.0972,-24 z
M 57.73,-30.27 L 56,-32 L 56,-30 L 57.73,-28.27 z
M 48.3,-30.6922 L 48.3308,-31.0045 L 48.3346,-31.0236 L 48.5219,-31.4781 L 48,-32 L 48,-30
 L 48.3,-29.7 z
M 65.925,-28.2969 L 65.9993,-28.4763 L 66.1133,-28.7 L 66.2147,-28.8655 L 66.2323,-28.8897 L 66.2147,-28.9138
 L 66.1133,-29.0794 L 65.9993,-29.3031 L 65.9249,-29.4825 L 65.8474,-29.7214 L 65.802,-29.9102 L 65.7628,-30.158
 L 65.756,-30.244 L 65.46,-30.54 L 65.46,-28.54 L 65.8706,-28.1294 z
M 137.279,-29.2261 L 137.318,-29.3201 L 136.68,-29.3201 L 137.026,-28.9736 z
M 28,-24 L 30,-24 L 28,-26 L 28,-28 L 27.9764,-28.0236 L 27.8,-27.8472
 L 27.3916,-27.8472 L 27.297,-27.8389 L 27.2798,-28.0341 L 27.1326,-27.9108 L 27.1402,-27.825 L 27.0174,-27.8142
 L 27.0141,-27.8114 L 27,-27.8127 L 26.9862,-27.8115 L 26.9829,-27.8142 L 26.8598,-27.825 L 26.8673,-27.9111
 L 26.7204,-28.0341 L 26.7032,-27.8388 L 26.6075,-27.8472 L 26.2,-27.8472 L 25.656,-28.3912 L 25.641,-28.359
 L 26,-28 L 24,-28 L 24,-26 L 22,-28 L 20,-28 L 24,-24
 L 26,-24 L 26.7479,-23.2521 L 28,-22.8765 z
M 36,-24 L 38,-24 L 36,-26 L 36,-26.8026 L 35.9946,-26.8158 L 35.9908,-26.8349
 L 35.96,-27.1472 L 35.96,-28.0072 L 35.8,-27.8472 L 35.3916,-27.8472 L 35.297,-27.8389 L 35.2798,-28.0341
 L 35.1326,-27.9108 L 35.1402,-27.825 L 35.0174,-27.8142 L 35.0141,-27.8114 L 35,-27.8127 L 34.9862,-27.8115
 L 34.9829,-27.8142 L 34.8598,-27.825 L 34.8673,-27.9111 L 34.7204,-28.0341 L 34.7032,-27.8388 L 34.6075,-27.8472
 L 34.2,-27.8472 L 33.656,-28.3912 L 33.641,-28.359 L 34,-28 L 32,-28 L 32,-26
 L 30,-28 L 28,-28 L 32,-24 L 34,-24 L 36,-22 z
M 142,-24 L 140.846,-25.1536 L 140.2,-24.5072 L 138.09,-24.5072 L 136.49,-26.1072 L 136.49,-28
 L 136,-28 L 136,-26 L 134,-28 L 132.507,-28 L 132.507,-27.4935 L 136,-24
 L 138,-24 L 140,-22 L 140,-24 z
M 68.4783,-24 L 68.4462,-24.0375 L 68.2986,-24.2406 L 68.2539,-24.3136 L 68.1583,-24.5012 L 68.013,-24.5242
 L 67.8242,-24.5695 L 67.5853,-24.6471 L 67.4059,-24.7215 L 67.1822,-24.8354 L 67.0166,-24.9369 L 66.8136,-25.0845
 L 66.6659,-25.2106 L 66.4884,-25.3881 L 66.3623,-25.5358 L 66.2147,-25.7388 L 66.1133,-25.9044 L 65.9993,-26.1281
 L 65.9249,-26.3075 L 65.8473,-26.5464 L 65.802,-26.7352 L 65.7628,-26.983 L 65.7475,-27.1766 L 65.7475,-27.4278
 L 65.7628,-27.6214 L 65.802,-27.8692 L 65.8334,-28 L 65.46,-28 L 65.46,-24.2022 L 65.2578,-24
 L 66,-24 L 68,-22 L 68,-24 z
M 56,-28 L 56,-27.5201 L 56.5367,-27.5201 L 56.6162,-27.5181 L 56.7067,-27.5136 L 56.862,-27.4983
 L 56.9516,-27.485 L 57.1057,-27.4543 L 57.1935,-27.4323 L 57.3434,-27.3869 L 57.4286,-27.3564 L 57.5741,-27.2961
 L 57.6559,-27.2574 L 57.73,-27.2178 L 57.73,-28 z
M 48,-28 L 48,-27.8322 L 48.8218,-27.8322 L 48.6539,-28 z
M 12.1769,-25.8231 L 12,-26 L 12,-27.9372 L 8,-27.9372 L 8,-26 L 6.06281,-27.9372
 L 4.44499,-27.9372 L 4.23959,-27.9348 L 4.07999,-27.92 L 6.6369,-25.3631 L 7.12,-25.8462 L 8.12,-25.8462
 L 8.88995,-25.0762 L 9.6599,-25.8462 L 10.6599,-25.8462 L 11.4299,-25.0761 z
M 0.439987,-24.2462 L 2.03999,-25.8462 L 3.03999,-25.8462 L 3.81,-25.0762 L 4.3669,-25.6331 L 4,-26
 L 4,-27.9126 L 3.8306,-27.8969 L 3.42679,-27.8214 L 3.03169,-27.709 L 2.64859,-27.5606 L 2.2809,-27.3775
 L 1.93159,-27.1613 L 1.60379,-26.9137 L 1.30019,-26.637 L 1.0235,-26.3334 L 0.775894,-26.0056 L 0.559692,-25.6563
 L 0.376587,-25.2886 L 0.228195,-24.9055 L 0.115799,-24.5104 L 0.0402985,-24.1066 L 0.030426,-24 L 0.439987,-24
 z
M 54.4119,-27.5881 L 54.3609,-27.5621 L 54.2596,-27.5201 L 54.4799,-27.5201 z
M 132,-24 L 134,-24 L 132,-26 L 132,-26.7811 L 131.366,-25.9294 L 128.633,-25.1095
 L 127.373,-25.2564 L 126.584,-26.6238 L 126.552,-26.5721 L 126.405,-26.3691 L 126.313,-26.2617 L 126.135,-26.0842
 L 126.028,-25.9924 L 126.016,-25.9838 L 128,-24 L 130,-24 L 132,-22 z
M 76,-24 L 76.522,-24 L 76.5738,-24.1017 L 76.5894,-24.1272 L 76.5738,-24.1526 L 76.4598,-24.3764
 L 76.4058,-24.5069 L 76.3283,-24.7455 L 76.2953,-24.8828 L 76.256,-25.1309 L 76.2449,-25.2717 L 76.2449,-25.5227
 L 76.256,-25.6635 L 76.267,-25.733 L 76.1149,-25.8851 L 76.0253,-25.7388 L 75.8777,-25.5358 L 75.7516,-25.3881
 L 75.574,-25.2105 L 75.4264,-25.0844 L 75.2233,-24.9369 L 75.0578,-24.8354 L 74.8341,-24.7215 L 74.6547,-24.6472
 L 74.4158,-24.5695 L 74.227,-24.5242 L 74.0816,-24.5012 L 73.9861,-24.3136 L 73.9413,-24.2406 L 73.7938,-24.0375
 L 73.7617,-24 L 74,-24 L 76,-22 z
M 124,-24 L 126,-24 L 124.558,-25.4421 L 124.334,-25.4421 L 124.194,-25.4532 L 123.946,-25.4925
 L 123.808,-25.5254 L 123.57,-25.6031 L 123.439,-25.6571 L 123.215,-25.771 L 123.19,-25.7866 L 123.165,-25.771
 L 122.941,-25.6571 L 122.81,-25.603 L 122.572,-25.5254 L 122.434,-25.4925 L 122.186,-25.4532 L 122.046,-25.4421
 L 121.794,-25.4421 L 121.654,-25.4532 L 121.406,-25.4925 L 121.268,-25.5254 L 121.03,-25.603 L 120.899,-25.6571
 L 120.675,-25.7711 L 120.65,-25.7866 L 120.625,-25.7711 L 120.401,-25.6571 L 120.27,-25.603 L 120.032,-25.5254
 L 119.894,-25.4925 L 119.646,-25.4532 L 119.506,-25.4421 L 119.254,-25.4421 L 119.114,-25.4532 L 118.866,-25.4925
 L 118.728,-25.5254 L 118.49,-25.603 L 118.359,-25.6571 L 118.326,-25.6739 L 120,-24 L 122,-24
 L 124,-22 z
M 41.1065,-25.5021 L 40.8745,-25.5021 L 40.7337,-25.5132 L 40.4858,-25.5525 L 40.3485,-25.5854 L 40.1096,-25.663
 L 40.0352,-25.6938 L 39.6414,-25.5318 L 39.6223,-25.528 L 39.31,-25.4972 L 38.5028,-25.4972 L 40,-24
 L 41.1065,-24 z
M 118,-24 L 116.79,-25.2098 L 116.784,-25.1309 L 116.745,-24.8828 L 116.712,-24.7455 L 116.634,-24.5068
 L 116.58,-24.3763 L 116.466,-24.1526 L 116.392,-24.0322 L 116.369,-24 z
M 143.51,-24.5072 L 143.493,-24.5072 L 143.51,-24.49 z
M 132,-16 L 134,-16 L 132,-18 L 132,-20 L 128,-24 L 128,-22
 L 130,-20 L 128,-20 L 128,-18 L 126,-20 L 124,-20 L 128,-16
 L 130,-16 L 132,-14 z
M 24,-24 L 24,-23.8513 L 24.1226,-23.7888 L 24.2484,-23.7117 L 24.3942,-23.6058 z
M 140,-16 L 142,-16 L 140,-18 L 140,-20 L 136,-24 L 136,-22
 L 138,-20 L 136,-20 L 136,-18 L 134,-20 L 132,-20 L 136,-16
 L 138,-16 L 140,-14 z
M 126,-16 L 124,-18 L 124,-20 L 120,-24 L 120,-22 L 122,-20
 L 120,-20 L 120,-18.6798 L 120.189,-18.5835 L 120.309,-18.5097 L 120.512,-18.3622 L 120.62,-18.2704
 L 120.797,-18.0929 L 120.889,-17.9855 L 121.002,-17.8297 L 121.121,-17.839 L 121.372,-17.839 L 121.513,-17.8279
 L 121.761,-17.7886 L 121.898,-17.7556 L 122.137,-17.678 L 122.267,-17.624 L 122.491,-17.51 L 122.611,-17.4362
 L 122.814,-17.2887 L 122.922,-17.1969 L 123.099,-17.0194 L 123.191,-16.912 L 123.304,-16.7562 L 123.423,-16.7656
 L 123.674,-16.7656 L 123.815,-16.7545 L 124.063,-16.7152 L 124.2,-16.6823 L 124.439,-16.6047 L 124.569,-16.5506
 L 124.793,-16.4366 L 124.913,-16.3629 L 125.116,-16.2153 L 125.224,-16.1235 L 125.347,-16 z
M 41.1065,-22.8935 L 40,-24 L 40,-22 L 41.1065,-20.8935 z
M 35.4612,-18.3622 L 35.6642,-18.5097 L 35.7847,-18.5835 L 36,-18.6932 L 36,-20 L 32,-24
 L 32,-22 L 32.4622,-21.5378 L 34.3023,-20.9858 L 35.4425,-19.4533 L 35.4425,-18.3462 z
M 0.0559845,-22.1078 L 0.0904236,-22.2512 L 0.167953,-22.4898 L 0.22438,-22.6261 L 0.33844,-22.8499 L 0.415497,-22.9756
 L 0.439987,-23.0094 L 0.439987,-23.56 L 0.0278473,-23.9722 L 0.00239563,-23.6976 L 0,-23.4922 L 0,-22
 L 0.0335846,-21.9664 z
M 116,-23.5687 L 115.975,-23.5442 L 115.868,-23.4524 L 115.665,-23.3049 L 115.545,-23.2311 L 115.321,-23.1171
 L 115.19,-23.063 L 114.999,-23.0009 L 116,-22 z
M 68,-18 L 68,-20 L 64.6289,-23.3711 L 64,-22.7422 L 64,-22 L 66,-20
 L 64,-20 L 64,-18.8906 L 64.0678,-18.9014 L 64.2086,-18.9125 L 64.46,-18.9125 L 64.6008,-18.9014
 L 64.8485,-18.8621 L 64.9858,-18.8292 L 65.2247,-18.7516 L 65.3552,-18.6975 L 65.5789,-18.5835 L 65.6993,-18.5097
 L 65.9024,-18.3622 L 66.0098,-18.2704 L 66.1873,-18.0929 L 66.2791,-17.9855 L 66.3923,-17.8297 L 66.5108,-17.839
 L 66.7618,-17.839 L 66.9026,-17.8279 L 67.1507,-17.7886 L 67.288,-17.7556 L 67.5267,-17.6781 L 67.6572,-17.624
 L 67.8809,-17.51 L 68.0013,-17.4362 L 68.2044,-17.2887 L 68.3118,-17.1969 L 68.4893,-17.0194 L 68.5811,-16.912
 L 68.6942,-16.7562 L 68.8128,-16.7656 L 69.0638,-16.7656 L 69.2046,-16.7545 L 69.2532,-16.7468 z
M 76,-16 L 78,-16 L 76,-18 L 76,-20 L 72.6774,-23.3226 L 72.5948,-23.3028
 L 72.3468,-23.2635 L 72.2615,-23.2568 L 72.0104,-23.2568 L 72,-23.2577 L 72,-22 L 74,-20
 L 72,-20 L 72,-18 L 70,-20 L 68,-20 L 72,-16 L 74,-16
 L 76,-14 z
M 25.0602,-22.9232 L 25.0736,-22.9264 L 24.8786,-23.1214 L 24.9845,-22.9756 L 25.0422,-22.8815 z
M 60,-22.6022 L 59.3978,-22.6022 L 60,-22 z
M 115.964,-15.9423 L 116.123,-16.211 L 116.135,-16.2267 L 116.449,-16.5145 L 116.449,-16.5429 L 116.46,-16.6837
 L 116.5,-16.9317 L 116.533,-17.0691 L 116.61,-17.3077 L 116.634,-17.3658 L 116,-18 L 116,-20
 L 114.076,-21.9237 L 114.04,-21.8364 L 113.926,-21.6126 L 113.852,-21.4922 L 113.705,-21.2891 L 113.613,-21.1817
 L 113.436,-21.0042 L 113.328,-20.9124 L 113.189,-20.8112 L 114,-20 L 112,-20 L 112,-18
 L 110,-20 L 108,-20 L 112,-16 L 114,-16 L 115.358,-14.642 z
M 60,-16 L 61.3884,-16 L 61.5132,-16.211 L 61.5247,-16.2267 L 61.6545,-16.3455 L 60,-18
 L 60,-20 L 58.8923,-21.1077 L 58.8325,-20.9633 L 58.7941,-20.882 L 58.7195,-20.7426 L 58.6733,-20.6656
 L 58.5863,-20.5355 L 58.5644,-20.506 L 58.5924,-20.4682 L 58.68,-20.337 L 58.727,-20.2585 L 58.8,-20.122
 L 58.8392,-20.0393 L 58.8998,-19.8931 L 58.9306,-19.807 L 58.9764,-19.656 L 58.9986,-19.5672 L 59.0289,-19.4152
 L 59.0424,-19.3247 L 59.0581,-19.1654 L 59.0625,-19.074 L 59.0625,-18.9203 L 59.0581,-18.8289 L 59.0424,-18.6697
 L 59.0289,-18.5792 L 58.9986,-18.4272 L 58.9764,-18.3384 L 58.9306,-18.1874 L 58.8998,-18.1013 L 58.8392,-17.9551
 L 58.8,-17.8724 L 58.727,-17.7359 L 58.68,-17.6574 L 58.5924,-17.5262 L 58.5379,-17.4527 L 58.4378,-17.3307
 L 58.3763,-17.2629 L 58.2661,-17.1527 L 58.1983,-17.0913 L 58.0775,-16.9921 L 58.004,-16.9375 L 57.8719,-16.8492
 L 57.7934,-16.8022 L 57.6555,-16.7285 L 57.5728,-16.6894 L 57.427,-16.629 L 57.3409,-16.5983 L 57.1924,-16.5532
 L 57.1036,-16.5309 L 56.9481,-16.4999 L 56.8576,-16.4865 L 56.702,-16.4712 L 56.6106,-16.4667 L 56.5319,-16.4648
 L 55.5352,-16.4648 L 56,-16 L 58,-16 L 60,-14 z
M 84,-16 L 86,-16 L 84,-18 L 84,-20 L 83.633,-20.367 L 83.5537,-20.3732
 L 83.3058,-20.4125 L 83.1685,-20.4454 L 82.9295,-20.5231 L 82.799,-20.5771 L 82.5754,-20.691 L 82.55,-20.7066
 L 82.5246,-20.691 L 82.3009,-20.5771 L 82.1704,-20.523 L 81.9315,-20.4454 L 81.7942,-20.4125 L 81.6158,-20.3842
 L 82,-20 L 80,-20 L 80,-18 L 78,-20 L 76,-20 L 80,-16
 L 82,-16 L 84,-14 z
M 88.8188,-16.2118 L 88.8303,-16.2275 L 89.1442,-16.5147 L 89.1442,-16.5429 L 89.1553,-16.6837 L 89.1946,-16.9317
 L 89.2276,-17.0691 L 89.3051,-17.3078 L 89.3592,-17.4383 L 89.4732,-17.662 L 89.547,-17.7824 L 89.6945,-17.9855
 L 89.7863,-18.0929 L 89.9638,-18.2704 L 90.0712,-18.3622 L 90.2742,-18.5097 L 90.3947,-18.5835 L 90.6184,-18.6975
 L 90.7489,-18.7516 L 90.9878,-18.8292 L 91.1251,-18.8621 L 91.3728,-18.9014 L 91.5136,-18.9125 L 91.765,-18.9125
 L 91.9058,-18.9014 L 92,-18.8864 L 92,-20 L 91.6326,-20.3674 L 91.5655,-20.3621 L 91.3145,-20.3621
 L 91.1737,-20.3732 L 90.9258,-20.4125 L 90.7885,-20.4454 L 90.5496,-20.523 L 90.4191,-20.5771 L 90.1954,-20.691
 L 90.17,-20.7066 L 90.1445,-20.691 L 89.9209,-20.5771 L 89.7904,-20.523 L 89.5538,-20.4462 L 90,-20
 L 88,-20 L 88,-18 L 86,-20 L 84,-20 L 88,-16 L 88.6935,-16
 z
M 108,-16 L 110,-16 L 108,-18 L 108,-20 L 107.5,-20.5001 L 107.332,-20.4454
 L 107.194,-20.4125 L 106.946,-20.3732 L 106.805,-20.3621 L 106.554,-20.3621 L 106.414,-20.3732 L 106.166,-20.4125
 L 106.028,-20.4454 L 105.79,-20.5231 L 105.659,-20.5771 L 105.435,-20.691 L 105.41,-20.7066 L 105.385,-20.691
 L 105.334,-20.6655 L 106,-20 L 104,-20 L 104,-18 L 102,-20 L 100,-20
 L 104,-16 L 106,-16 L 108,-14 z
M 100,-16 L 102,-16 L 100,-18 L 100,-20 L 99.585,-20.415 L 99.5742,-20.4125
 L 99.3263,-20.3732 L 99.1855,-20.3621 L 98.9345,-20.3621 L 98.7937,-20.3732 L 98.5458,-20.4125 L 98.4085,-20.4454
 L 98.1696,-20.523 L 98.0391,-20.5771 L 97.8154,-20.6911 L 97.79,-20.7066 L 97.7646,-20.6911 L 97.5409,-20.5771
 L 97.4575,-20.5425 L 98,-20 L 96,-20 L 96,-18 L 94,-20 L 92,-20
 L 94.1691,-17.8309 L 94.2076,-17.8279 L 94.4556,-17.7886 L 94.593,-17.7556 L 94.8317,-17.6781 L 94.9622,-17.624
 L 95.1859,-17.51 L 95.3063,-17.4362 L 95.5095,-17.2886 L 95.6169,-17.1969 L 95.7943,-17.0194 L 95.886,-16.912
 L 95.9992,-16.7562 L 96.1178,-16.7655 L 96.3688,-16.7656 L 96.5096,-16.7545 L 96.7575,-16.7152 L 96.8948,-16.6823
 L 97.1337,-16.6047 L 97.2642,-16.5506 L 97.4879,-16.4366 L 97.6083,-16.3628 L 97.8114,-16.2153 L 97.9188,-16.1235
 L 98.0963,-15.946 L 98.188,-15.8386 L 98.2589,-15.7411 L 98.3161,-15.6839 L 98.4199,-15.6921 L 98.6709,-15.6921
 L 98.8117,-15.681 L 99.0596,-15.6417 L 99.1969,-15.6088 L 99.4358,-15.5312 L 99.5663,-15.4771 L 99.7899,-15.3631
 L 99.9104,-15.2894 L 100,-15.2242 z
M 44,-15.6921 L 44,-16 L 46,-16 L 44.0293,-17.9707 L 43.9206,-17.9707 L 43.7938,-17.977
 L 43.6388,-17.9922 L 43.5132,-18.0108 L 43.3593,-18.0414 L 43.2362,-18.0722 L 43.085,-18.1181 L 42.9655,-18.1609
 L 42.8208,-18.2209 L 42.706,-18.2752 L 42.5678,-18.349 L 42.459,-18.4142 L 42.3287,-18.5013 L 42.2267,-18.5769
 L 42.1048,-18.6768 L 42.0107,-18.7621 L 41.8998,-18.8731 L 41.8146,-18.9671 L 41.7147,-19.0889 L 41.6391,-19.1909
 L 41.5523,-19.3207 L 41.487,-19.4296 L 41.4126,-19.5689 L 41.3584,-19.6836 L 41.2987,-19.8277 L 41.2559,-19.9472
 L 41.2399,-20 L 40,-20 L 40,-18 L 38,-20 L 36,-20 L 37.0875,-18.9125
 L 37.155,-18.9125 L 37.2958,-18.9014 L 37.5435,-18.8621 L 37.6808,-18.8292 L 37.9197,-18.7516 L 38.0502,-18.6975
 L 38.2738,-18.5835 L 38.3943,-18.5098 L 38.5974,-18.3622 L 38.7048,-18.2704 L 38.8824,-18.0928 L 38.9741,-17.9854
 L 39.0873,-17.8297 L 39.2058,-17.839 L 39.4568,-17.839 L 39.5976,-17.8279 L 39.8456,-17.7886 L 39.983,-17.7556
 L 40.2217,-17.6781 L 40.3522,-17.624 L 40.5759,-17.51 L 40.6963,-17.4362 L 40.8995,-17.2886 L 41.0069,-17.1969
 L 41.1843,-17.0194 L 41.276,-16.912 L 41.3892,-16.7562 L 41.5078,-16.7655 L 41.7588,-16.7656 L 41.8996,-16.7545
 L 42.1475,-16.7152 L 42.2848,-16.6823 L 42.5237,-16.6047 L 42.6542,-16.5506 L 42.8779,-16.4366 L 42.9983,-16.3628
 L 43.2014,-16.2153 L 43.3088,-16.1235 L 43.4863,-15.946 L 43.578,-15.8386 L 43.6913,-15.6827 L 43.8099,-15.6921
 z
M 117.579,-18.5098 L 117.7,-18.5835 L 117.923,-18.6975 L 118.054,-18.7516 L 118.293,-18.8292 L 118.43,-18.8621
 L 118.678,-18.9014 L 118.819,-18.9125 L 119.07,-18.9125 L 119.089,-18.9109 L 118,-20 L 116,-20
 L 117.528,-18.4723 z
M 62.242,-17.7824 L 62.3895,-17.9855 L 62.4812,-18.0929 L 62.6588,-18.2704 L 62.7662,-18.3622 L 62.9693,-18.5098
 L 63.0897,-18.5835 L 63.3062,-18.6938 L 62,-20 L 60,-20 L 62.2327,-17.7673 z
M 143.51,-18.49 L 142,-20 L 140,-20 L 143.51,-16.49 z
M 54,-16 L 53.5352,-16.4648 L 50.2876,-16.4648 L 49.985,-16.1622 L 47.8378,-16.1622 L 48,-16
 L 50,-16 L 52,-14 L 52,-16 z
M 88.468,-15.532 L 88,-16 L 88,-14.5284 z
M 73.3839,-14.6161 L 72,-16 L 72,-15.5737 L 72.1308,-15.5312 L 72.2613,-15.4771 L 72.485,-15.3631
 L 72.6054,-15.2893 L 72.8085,-15.1418 L 72.9159,-15.05 L 73.0934,-14.8725 L 73.1852,-14.7651 L 73.2983,-14.6093
 z
M 108,-12 L 104,-16 L 104,-14 L 105.528,-12.4718 L 105.577,-12.4718 L 105.718,-12.4607
 L 105.966,-12.4214 L 106.103,-12.3884 L 106.342,-12.3109 L 106.472,-12.2568 L 106.696,-12.1428 L 106.816,-12.069
 L 107.02,-11.9214 L 107.127,-11.8297 L 107.304,-11.6522 L 107.396,-11.5448 L 107.509,-11.3889 L 107.628,-11.3983
 L 107.879,-11.3983 L 108,-11.3887 z
M 48,-16 L 48,-14 L 48.4548,-13.5452 L 48.6649,-13.5452 L 48.8057,-13.5341 L 49.0537,-13.4948
 L 49.1911,-13.4618 L 49.4297,-13.3843 L 49.5601,-13.3303 L 49.784,-13.2162 L 49.9044,-13.1425 L 50.1076,-12.9948
 L 50.215,-12.9031 L 50.3924,-12.7256 L 50.4841,-12.6182 L 50.5973,-12.4624 L 50.7159,-12.4718 L 50.9669,-12.4718
 L 51.1077,-12.4607 L 51.3557,-12.4214 L 51.4931,-12.3884 L 51.6686,-12.3314 z
M 84,-6.4872 L 84,-8 L 86,-8 L 84,-10 L 84,-12 L 80,-16
 L 80,-14 L 82,-12 L 80,-12 L 80,-11.6515 L 80.0912,-11.5448 L 80.2044,-11.3889
 L 80.323,-11.3983 L 80.574,-11.3983 L 80.7148,-11.3872 L 80.9628,-11.3479 L 81.1002,-11.3149 L 81.3389,-11.2374
 L 81.4694,-11.1833 L 81.6931,-11.0693 L 81.8135,-10.9955 L 82.0166,-10.8479 L 82.124,-10.7562 L 82.3015,-10.5788
 L 82.3932,-10.4714 L 82.5408,-10.2682 L 82.6146,-10.1478 L 82.7286,-9.92409 L 82.7827,-9.79361 L 82.8602,-9.55487
 L 82.8932,-9.41754 L 82.9325,-9.16949 L 82.9436,-9.02872 L 82.9436,-8.77769 L 82.9325,-8.6369 L 82.8932,-8.38884
 L 82.8602,-8.25151 L 82.7827,-8.01277 L 82.7286,-7.88229 L 82.6146,-7.65855 L 82.5408,-7.53815 L 82.5076,-7.49242
 L 82.7628,-7.2372 L 83.11,-7.2372 L 83.93,-6.41719 z
M 116,-8 L 118,-8 L 116,-10 L 116,-12 L 112,-16 L 112,-14
 L 114,-12 L 112,-12 L 112,-10 L 110,-12 L 108,-12 L 108.861,-11.1393
 L 108.998,-11.0693 L 109.118,-10.9955 L 109.322,-10.8479 L 109.429,-10.7562 L 109.606,-10.5788 L 109.698,-10.4714
 L 109.846,-10.2682 L 109.92,-10.1478 L 109.99,-10.0103 L 112,-8 L 114,-8 L 116,-6
 z
M 130.329,-13.5452 L 130.455,-13.5452 L 128,-16 L 128,-14.6165 L 128.027,-14.6187 L 128.278,-14.6187
 L 128.419,-14.6076 L 128.667,-14.5683 L 128.804,-14.5353 L 129.043,-14.4577 L 129.173,-14.4037 L 129.397,-14.2898
 L 129.517,-14.216 L 129.721,-14.0684 L 129.828,-13.9766 L 130.005,-13.7991 L 130.097,-13.6917 L 130.21,-13.5358
 z
M 60,-8 L 62,-8 L 60,-10 L 60,-12 L 56,-16 L 56,-14
 L 58,-12 L 56,-12 L 56,-10 L 54,-12 L 52.3014,-12 L 52.4095,-11.9214
 L 52.5169,-11.8297 L 52.6944,-11.6522 L 52.7861,-11.5448 L 52.8994,-11.3889 L 53.018,-11.3983 L 53.269,-11.3983
 L 53.4098,-11.3872 L 53.6579,-11.3479 L 53.7952,-11.3149 L 54.0339,-11.2374 L 54.1644,-11.1833 L 54.388,-11.0693
 L 54.5085,-10.9955 L 54.7116,-10.8479 L 54.819,-10.7562 L 54.9965,-10.5788 L 55.0882,-10.4714 L 55.2359,-10.2682
 L 55.3096,-10.1478 L 55.4236,-9.92409 L 55.4777,-9.79361 L 55.5553,-9.5547 L 55.5882,-9.41737 L 55.6275,-9.16949
 L 55.6385,-9.02872 L 55.6386,-8.77769 L 55.6275,-8.6369 L 55.5913,-8.40866 L 56,-8 L 58,-8
 L 60,-6 z
M 140,-8 L 142,-8 L 140,-10 L 140,-12 L 136,-16 L 136,-14
 L 138,-12 L 136,-12 L 136,-11.2162 L 136.079,-11.1833 L 136.303,-11.0693 L 136.424,-10.9955
 L 136.627,-10.8479 L 136.734,-10.7562 L 136.911,-10.5788 L 137.003,-10.4714 L 137.151,-10.2682 L 137.225,-10.1478
 L 137.339,-9.92409 L 137.393,-9.79361 L 137.47,-9.55487 L 137.503,-9.41754 L 137.542,-9.16949 L 137.554,-9.02872
 L 137.554,-8.77769 L 137.542,-8.6369 L 137.503,-8.38884 L 137.47,-8.25151 L 137.393,-8.01277 L 137.387,-8
 L 138,-8 L 138.512,-7.48822 L 138.705,-7.51878 L 138.939,-7.53726 L 139.191,-7.53726 L 139.425,-7.51878
 L 139.673,-7.47952 L 139.902,-7.42458 L 140,-7.39273 z
M 89.7111,-8.90179 L 93.0982,-8.90179 L 92,-10 L 92,-10.7004 L 91.9775,-10.7077 L 91.847,-10.7618
 L 91.6233,-10.8757 L 91.5029,-10.9495 L 91.2998,-11.0971 L 91.1924,-11.1889 L 91.0173,-11.3639 L 90.5888,-11.383
 L 90.5699,-11.3877 L 90.2798,-11.4904 L 89.1867,-12 L 88,-12 L 88,-10 L 86,-12
 L 84,-12 L 88,-8 L 88.2536,-8 L 88.3798,-8.18932 z
M 143.51,-10.49 L 142,-12 L 140,-12 L 143.51,-8.49001 z
M 124,-8 L 125.372,-8 L 125.226,-8.14618 L 125.134,-8.25357 L 125.021,-8.40924 L 124.902,-8.39992
 L 124.651,-8.39993 L 124.511,-8.41101 L 124.263,-8.45029 L 124.125,-8.48326 L 123.886,-8.56084 L 123.756,-8.61488
 L 123.532,-8.72878 L 123.412,-8.80255 L 123.209,-8.95029 L 123.101,-9.04201 L 122.924,-9.21948 L 122.832,-9.32687
 L 122.719,-9.48276 L 122.6,-9.47343 L 122.349,-9.47342 L 122.209,-9.4845 L 121.961,-9.52379 L 121.823,-9.55676
 L 121.585,-9.63428 L 121.454,-9.68831 L 121.23,-9.80238 L 121.11,-9.87617 L 120.907,-10.0237 L 120.799,-10.1154
 L 120.622,-10.293 L 120.53,-10.4004 L 120.417,-10.5561 L 120.298,-10.5468 L 120.047,-10.5468 L 120,-10.5505
 L 120,-10 L 119.297,-10.703 L 119.282,-10.7077 L 119.152,-10.7618 L 118.928,-10.8758 L 118.808,-10.9496
 L 118.605,-11.0971 L 118.497,-11.1889 L 118.322,-11.364 L 117.893,-11.3831 L 117.875,-11.3878 L 117.585,-11.4904
 L 116.492,-12 L 116,-12 L 120,-8 L 122,-8 L 124,-6 z
M 65.5198,-8.18614 L 66.8511,-8.89861 L 68.6698,-8.89861 L 68.5987,-8.95029 L 68.4913,-9.04201 L 68.3139,-9.21948
 L 68.2221,-9.32687 L 68.1089,-9.48276 L 67.9904,-9.47343 L 67.7394,-9.47342 L 67.5986,-9.4845 L 67.3505,-9.52379
 L 67.2132,-9.55676 L 66.9746,-9.63428 L 66.8441,-9.68831 L 66.6203,-9.80238 L 66.4998,-9.87617 L 66.2968,-10.0237
 L 66.1894,-10.1154 L 66.0119,-10.293 L 65.9201,-10.4004 L 65.807,-10.5561 L 65.6884,-10.5468 L 65.4374,-10.5468
 L 65.2966,-10.5579 L 65.0485,-10.5972 L 64.9112,-10.6302 L 64.6725,-10.7077 L 64.542,-10.7618 L 64.3183,-10.8758
 L 64.1978,-10.9496 L 64,-11.0933 L 64,-10 L 62.1033,-11.8967 L 61.8817,-12 L 60,-12
 L 64,-8 L 65.3957,-8 z
M 35.5014,-7.34315 L 35.7492,-7.3824 L 35.7883,-7.38548 L 36,-7.59721 L 36,-8 L 38,-8
 L 36,-10 L 36,-11.3821 L 35.9788,-11.383 L 35.9599,-11.3877 L 35.6698,-11.4904 L 35.4425,-11.5963
 L 35.4425,-7.32901 z
M 43.8883,-7.67442 L 43.7988,-7.72928 L 43.5958,-7.87683 L 43.4884,-7.96855 L 43.3109,-8.14609 L 43.2191,-8.25348
 L 43.1059,-8.40924 L 42.9874,-8.39992 L 42.7364,-8.39992 L 42.5956,-8.411 L 42.3475,-8.45029 L 42.2102,-8.48326
 L 41.9714,-8.56087 L 41.8409,-8.61491 L 41.6175,-8.72878 L 41.497,-8.80255 L 41.2938,-8.95023 L 41.1864,-9.04195
 L 41.0089,-9.21948 L 40.9171,-9.32687 L 40.8039,-9.48274 L 40.6854,-9.47342 L 40.4344,-9.47342 L 40.2936,-9.4845
 L 40.0455,-9.5238 L 39.9082,-9.55678 L 39.6696,-9.63428 L 39.5392,-9.68831 L 39.3153,-9.80234 L 39.1949,-9.87613
 L 38.9918,-10.0237 L 38.8844,-10.1154 L 38.7068,-10.293 L 38.6151,-10.4004 L 38.502,-10.5561 L 38.3834,-10.5468
 L 38.1324,-10.5468 L 37.9916,-10.5579 L 37.7435,-10.5972 L 37.6062,-10.6302 L 37.3675,-10.7077 L 37.2391,-10.7609
 L 40,-8 L 42,-8 L 42.553,-7.44704 L 42.7353,-7.43643 L 42.804,-7.42842 L 43.218,-7.31567
 z
M 100,-7.33443 L 99.8996,-7.32652 L 99.6482,-7.32652 L 99.5074,-7.33762 L 99.2597,-7.37686 L 99.1224,-7.40982
 L 98.8835,-7.48743 L 98.753,-7.54147 L 98.5293,-7.65549 L 98.4088,-7.72928 L 98.2058,-7.87683 L 98.0984,-7.96855
 L 97.9209,-8.14609 L 97.8291,-8.25348 L 97.7159,-8.40924 L 97.5974,-8.39992 L 97.3464,-8.39992 L 97.2056,-8.411
 L 96.9575,-8.45029 L 96.8202,-8.48326 L 96.5815,-8.56084 L 96.451,-8.61488 L 96.2274,-8.72882 L 96.107,-8.8026
 L 95.9038,-8.95023 L 95.7964,-9.04195 L 95.6189,-9.21948 L 95.5271,-9.32687 L 95.4139,-9.48274 L 95.2954,-9.47342
 L 95.0444,-9.47342 L 94.9036,-9.4845 L 94.6555,-9.5238 L 94.5182,-9.55678 L 94.4072,-9.59285 L 95.0982,-8.90179
 L 95.7089,-8.90179 L 97.0402,-8.18932 L 97.1664,-8 L 98,-8 L 99.8145,-6.18552 L 99.9504,-6.14136
 L 100,-6.12082 z
M 88.1522,-7.84784 L 88,-8 L 88,-7.61961 z
M 64.8855,-7.11446 L 64,-8 L 64,-7.0172 L 64.7889,-6.22827 L 64.8856,-6.18843 z
M 60.07,-0.30719 L 60.8814,-1.11861 L 60,-2 L 60,-4 L 56,-8 L 56,-6
 L 58,-4 L 56,-4 L 56,-2 L 54,-4 L 52,-4 L 56,-0
 L 60.07,-0 z
M 40,-8 L 40,-7.7072 L 40.2928,-7.7072 z
M 124,-2 L 124,-4 L 120,-8 L 120,-6 L 122,-4 L 120,-4
 L 120,-2 L 118,-4 L 116,-4 L 120,-0 L 126,-0 z
M 116,-2 L 116,-4 L 112,-8 L 112,-6 L 114,-4 L 112,-4
 L 112,-2 L 110,-4 L 108,-4 L 112,-0 L 118,-0 z
M 136.487,-6.1599 L 136.635,-6.36296 L 136.788,-6.54195 L 136.965,-6.71953 L 137.135,-6.86473 L 136.842,-7.15808
 L 136.734,-7.05016 L 136.627,-6.95844 L 136.471,-6.84518 L 136.48,-6.7267 L 136.48,-6.47569 L 136.469,-6.3349
 L 136.43,-6.08684 L 136.421,-6.05251 z
M 0.0166779,-6.07469 L 0.00511169,-6.22171 L 0.00511169,-6.47269 L 0.0166779,-6.61971 L 0.0495758,-6.82735 L 0.0408936,-6.8035
 L 0.00239563,-6.5851 L 0,-6.4742 L 0,-6 L 0.0338745,-5.96613 z
M 132,-2 L 132,-4 L 130.547,-5.45346 L 130.438,-5.50859 L 130.318,-5.58238 L 130.115,-5.72993
 L 130.007,-5.82166 L 129.83,-5.99919 L 129.738,-6.10658 L 129.625,-6.26234 L 129.507,-6.25302 L 129.255,-6.25302
 L 129.115,-6.2641 L 128.867,-6.30336 L 128.729,-6.33632 L 128.491,-6.41393 L 128.36,-6.46797 L 128.136,-6.58199
 L 128.016,-6.65578 L 128,-6.66736 L 128,-6 L 130,-4 L 128,-4 L 128,-2
 L 126,-4 L 124,-4 L 128,-0 L 134,-0 z
M 27.9886,-0.0908661 L 27.923,-0.197891 L 27.8089,-0.421768 L 27.7609,-0.53775 L 27.6834,-0.776398 L 27.6541,-0.898468
 L 27.6148,-1.14659 L 27.6049,-1.27173 L 27.6049,-1.52263 L 27.6148,-1.64778 L 27.6541,-1.89592 L 27.6834,-2.01799
 L 27.7609,-2.25664 L 27.8089,-2.37262 L 27.923,-2.5965 L 27.9886,-2.70352 L 28,-2.71916 L 28,-3.6752
 L 27.9886,-3.69093 L 27.923,-3.79797 L 27.8089,-4.02177 L 27.7609,-4.13776 L 27.7121,-4.28787 L 25.3836,-6.61644
 L 25.3949,-6.47269 L 25.3949,-6.22171 L 25.3833,-6.07469 L 25.344,-5.82671 L 25.3096,-5.6833 L 25.232,-5.44441
 L 25.1755,-5.30817 L 25.0616,-5.08455 L 25.0061,-4.99394 L 26,-4 L 24,-4 L 24,-2
 L 22.0573,-3.94267 L 21.9572,-3.9752 L 21.8974,-4 L 21.2826,-4 L 21.2228,-3.9752 L 20.9839,-3.89758
 L 20.8405,-3.86316 L 20.5925,-3.82388 L 20.4455,-3.81232 L 20.1945,-3.81232 L 20.1871,-3.8129 L 24,-0
 L 28.0547,-0 z
M 27.923,-6.19641 L 27.9886,-6.30345 L 27.9992,-6.31813 L 27.5459,-6.45415 L 27.8827,-6.11732 z
M 97.8154,-5.9733 L 97.9554,-6.04465 L 97.6766,-6.32343 L 97.6766,-6.01817 L 97.7646,-5.9733 L 97.79,-5.95775
 z
M 52,-2 L 52,-4 L 51.8896,-4.11044 L 51.8035,-4.11722 L 51.5558,-4.15646 L 51.4185,-4.18942
 L 51.1795,-4.26706 L 51.049,-4.32111 L 50.8254,-4.43504 L 50.705,-4.50883 L 50.5019,-4.65643 L 50.3945,-4.74815
 L 50.2169,-4.92569 L 50.1252,-5.03308 L 50.012,-5.18893 L 49.9519,-5.1842 L 49.8272,-4.99719 L 50.0277,-4.69649
 L 50.082,-3.00899 L 49.7423,-2.81284 L 50.0277,-2.38469 L 50.0277,-0.609695 L 49.6212,-0 L 54,-0
 z
M 33.6834,-4.37636 L 33.6541,-4.49841 L 33.6148,-4.7466 L 33.6139,-4.75772 L 33.3827,-4.70308 L 33.2601,-4.73985
 L 33.7121,-4.28787 z
M 108,-2 L 108,-4 L 107.685,-4.31465 L 107.57,-4.26706 L 107.332,-4.18942 L 107.194,-4.15646
 L 106.946,-4.11722 L 106.806,-4.10612 L 106.554,-4.10612 L 106.414,-4.11722 L 106.166,-4.15646 L 106.028,-4.18942
 L 105.79,-4.26706 L 105.693,-4.30707 L 106,-4 L 104,-4 L 104,-2 L 102,-4
 L 101.55,-4 L 101.555,-3.93269 L 101.555,-3.68169 L 101.544,-3.54089 L 101.505,-3.2928 L 101.501,-3.27644
 L 101.52,-3.25719 L 101.52,-2.48 L 104,-0 L 110,-0 z
M 140.083,-0.112991 L 140.478,-0.225388 L 140.861,-0.373795 L 141.229,-0.556885 L 141.361,-0.638702 L 140.368,-1.63228
 L 140.358,-1.62747 L 140.141,-1.5374 L 139.902,-1.45981 L 139.673,-1.40486 L 139.425,-1.36559 L 139.19,-1.34712
 L 138.939,-1.34712 L 138.705,-1.36559 L 138.457,-1.40488 L 138.228,-1.45982 L 137.989,-1.53738 L 137.772,-1.62746
 L 137.548,-1.74149 L 137.347,-1.86447 L 137.144,-2.01199 L 136.965,-2.16486 L 136.788,-2.34244 L 136.635,-2.52142
 L 136.487,-2.72449 L 136.364,-2.92517 L 136.25,-3.14894 L 136.16,-3.36641 L 136.083,-3.60515 L 136.028,-3.83401
 L 136.001,-4 L 136,-4 L 136,-2 L 134,-4 L 132,-4 L 136,-0
 L 139.275,-0 L 139.679,-0.0374908 z
M 33.923,-0.197891 L 33.8089,-0.421768 L 33.7609,-0.53775 L 33.6834,-0.776398 L 33.6541,-0.898468 L 33.6148,-1.14659
 L 33.6049,-1.27173 L 33.6049,-1.52263 L 33.6148,-1.64778 L 33.6541,-1.89592 L 33.6834,-2.01799 L 33.7609,-2.25664
 L 33.8089,-2.37262 L 33.923,-2.5965 L 33.9886,-2.70352 L 34.1361,-2.90652 L 34.2177,-3.00198 L 34.3952,-3.17953
 L 34.4159,-3.19719 L 34.3952,-3.21484 L 34.2177,-3.3924 L 34.1361,-3.48785 L 33.9886,-3.69093 L 33.923,-3.79797
 L 33.82,-4 L 32.1799,-4 L 32.077,-3.79797 L 32.0114,-3.69093 L 32,-3.67523 L 32,-2.71915
 L 32.0114,-2.70352 L 32.077,-2.5965 L 32.191,-2.37262 L 32.2391,-2.25664 L 32.3166,-2.01799 L 32.3459,-1.89592
 L 32.3852,-1.64778 L 32.3951,-1.52263 L 32.3951,-1.27173 L 32.3852,-1.14659 L 32.3459,-0.898468 L 32.3166,-0.776398
 L 32.2391,-0.53775 L 32.191,-0.421768 L 32.077,-0.197891 L 32.0114,-0.0908661 L 31.9683,-0.031662 L 32,-0
 L 34.0547,-0 L 33.9886,-0.0908661 z
M 4,-2.66818 L 3.81,-2.85818 L 3.03999,-2.08818 L 2.03999,-2.08818 L 0.439987,-3.68819 L 0.439987,-4
 L 0.0243378,-4 L 0.0402985,-3.82779 L 0.115799,-3.424 L 0.228195,-3.02888 L 0.376587,-2.6458 L 0.559692,-2.27809
 L 0.775894,-1.92879 L 1.0235,-1.601 L 1.30019,-1.29739 L 1.60379,-1.02069 L 1.93159,-0.773087 L 2.2809,-0.556885
 L 2.64859,-0.373795 L 3.03169,-0.225388 L 3.42679,-0.112991 L 3.8306,-0.0374908 L 4.23515,-0 L 6,-0
 L 4,-2 z
M 60.07,-4 L 60,-4 L 60.07,-3.93001 z
M 142.486,-1.601 L 142.734,-1.92879 L 142.95,-2.27809 L 143.133,-2.6458 L 143.195,-2.80495 L 142.111,-3.88898
 L 142.102,-3.83401 L 142.047,-3.60515 L 141.97,-3.36641 L 141.88,-3.14894 L 141.766,-2.92517 L 141.643,-2.72449
 L 141.495,-2.52142 L 141.488,-2.51247 L 142.445,-1.55522 z
M 20,-2 L 20,-3.83141 L 19.88,-3.8504 L 19.88,-3.68819 L 18.28,-2.08818 L 17.28,-2.08818
 L 16.51,-2.85818 L 16,-2.34819 L 16,-2 L 15.8259,-2.1741 L 15.74,-2.08818 L 14.74,-2.08818
 L 13.97,-2.85818 L 13.5559,-2.44409 L 16,-0 L 22,-0 z
M 12,-2 L 12,-2.28818 L 11.4299,-2.85823 L 10.6599,-2.08818 L 9.6599,-2.08818 L 8.88995,-2.85814
 L 8.12,-2.08818 L 8,-2.08818 L 8,-2 L 7.91182,-2.08818 L 7.12,-2.08818 L 6.34999,-2.85818
 L 5.74591,-2.2541 L 8,-0 L 14,-0 z
"  fill="lightgray" />
</svg>
