M48
; DRILL file {KiCad (5.99.0-2360-g1790c536e)} date Sat Aug 29 16:27:05 2020
; FORMAT={-:-/ absolute / inch / decimal}
; #@! TF.CreationDate,2020-08-29T16:27:05+02:00
; #@! TF.GenerationSoftware,Kicad,Pcbnew,(5.99.0-2360-g1790c536e)
; #@! TF.FileFunction,Plated,1,2,PTH
FMAT,2
INCH
T1C0.0157
T2C0.0236
T3C0.0256
T4C0.0394
T5C0.0400
T6C0.0787
T7C0.1693
%
G90
G05
T1
X5.1575Y-4.1055
X5.1575Y-4.2236
X5.1575Y-4.3417
X5.5118Y-4.1449
X5.5118Y-4.3024
X5.6299Y-3.9283
X5.6693Y-3.8693
X5.6693Y-3.9087
X5.6693Y-3.948
X5.6693Y-3.9874
X5.8268Y-2.3535
X5.8858Y-2.8654
X5.8858Y-2.9441
X5.8858Y-3.6331
X5.8858Y-3.8693
X5.9449Y-2.5701
X5.9449Y-2.6488
X5.9843Y-2.3535
X6.063Y-2.1961
X6.063Y-3.0031
X6.1024Y-2.5307
X6.1024Y-2.6094
X6.1122Y-4.0858
X6.1319Y-2.7177
X6.1811Y-4.1646
X6.1811Y-4.3614
X6.1909Y-4.0268
X6.2402Y-2.3142
X6.25Y-3.5543
X6.2598Y-3.7118
X6.2598Y-3.7512
X6.2598Y-3.7906
X6.2598Y-3.8299
X6.2598Y-3.8693
X6.2697Y-4.0858
X6.3287Y-2.9047
X6.3386Y-2.3535
X6.3386Y-2.8063
X6.3386Y-3.3181
X6.4075Y-3.4953
X7.0472Y-3.2394
X7.0472Y-3.3181
X7.0866Y-3.1213
X7.0866Y-3.2
X7.0866Y-3.3181
X7.126Y-3.1606
X7.126Y-3.3181
X7.1654Y-3.1213
X7.1654Y-3.2787
X7.1654Y-2.5307
X7.2047Y-3.1213
X7.2047Y-3.2394
X9.2126Y-1.5465
X9.2126Y-1.5858
T3
X8.225Y-3.1
X8.225Y-3.15
X8.225Y-3.2
X8.225Y-3.25
X8.225Y-3.3
X8.275Y-3.1
X8.275Y-3.15
X8.275Y-3.2
X8.275Y-3.25
X8.275Y-3.3
T4
X8.4Y-4.85
X8.4Y-4.95
X8.5Y-4.85
X8.5Y-4.95
X8.6Y-4.85
X8.6Y-4.95
X8.7Y-4.85
X8.7Y-4.95
X8.8Y-4.85
X8.8Y-4.95
X8.9Y-4.85
X8.9Y-4.95
X8.2Y-4.85
X8.2Y-4.95
X10.5Y-2.95
X10.5Y-3.05
X10.5Y-3.15
X10.5Y-3.25
X10.5Y-3.35
X10.5Y-3.45
X10.6Y-2.95
X10.6Y-3.05
X10.6Y-3.15
X10.6Y-3.25
X10.6Y-3.35
X10.6Y-3.45
X10.5Y-3.65
X10.6Y-3.65
X6.4156Y-1.9558
X6.4578Y-2.0465
X6.5062Y-1.9136
X6.5485Y-2.0042
X6.5968Y-1.8713
X6.6391Y-1.9619
X6.6875Y-1.829
X6.7297Y-1.9197
X6.7781Y-1.7868
X6.8204Y-1.8774
X6.8687Y-1.7445
X6.911Y-1.8352
X6.9594Y-1.7023
X7.0016Y-1.7929
X7.05Y-1.66
X7.0923Y-1.7506
X9.6406Y-1.9558
X9.6828Y-2.0465
X9.7312Y-1.9136
X9.7735Y-2.0042
X9.8218Y-1.8713
X9.8641Y-1.9619
X9.9125Y-1.829
X9.9547Y-1.9197
X10.0031Y-1.7868
X10.0454Y-1.8774
X10.0937Y-1.7445
X10.136Y-1.8352
X10.1844Y-1.7023
X10.2266Y-1.7929
X10.275Y-1.66
X10.3173Y-1.7506
X6.4156Y-4.4442
X6.4578Y-4.3535
X6.5062Y-4.4864
X6.5485Y-4.3958
X6.5968Y-4.5287
X6.6391Y-4.4381
X6.6875Y-4.571
X6.7297Y-4.4803
X6.7781Y-4.6132
X6.8204Y-4.5226
X6.8687Y-4.6555
X6.911Y-4.5648
X6.9594Y-4.6977
X7.0016Y-4.6071
X7.05Y-4.74
X7.0923Y-4.6494
X7.4906Y-4.4442
X7.5328Y-4.3535
X7.5812Y-4.4864
X7.6235Y-4.3958
X7.6718Y-4.5287
X7.7141Y-4.4381
X7.7625Y-4.571
X7.8047Y-4.4803
X7.8531Y-4.6132
X7.8954Y-4.5226
X7.9437Y-4.6555
X7.986Y-4.5648
X8.0344Y-4.6977
X8.0766Y-4.6071
X8.125Y-4.74
X8.1673Y-4.6494
X8.5656Y-1.9558
X8.6078Y-2.0465
X8.6562Y-1.9136
X8.6985Y-2.0042
X8.7468Y-1.8713
X8.7891Y-1.9619
X8.8375Y-1.829
X8.8797Y-1.9197
X8.9281Y-1.7868
X8.9704Y-1.8774
X9.0187Y-1.7445
X9.061Y-1.8352
X9.1094Y-1.7023
X9.1516Y-1.7929
X9.2Y-1.66
X9.2423Y-1.7506
X7.0Y-3.825
X7.1Y-3.825
X7.5Y-1.45
X7.5Y-1.55
X7.6Y-1.45
X7.6Y-1.55
X7.7Y-1.45
X7.7Y-1.55
X7.8Y-1.45
X7.8Y-1.55
X7.9Y-1.45
X7.9Y-1.55
X8.0Y-1.45
X8.0Y-1.55
X9.3Y-4.85
X9.3Y-4.95
X9.4Y-4.85
X9.4Y-4.95
X9.5Y-4.85
X9.5Y-4.95
X9.6Y-4.85
X9.6Y-4.95
X9.7Y-4.85
X9.7Y-4.95
X9.8Y-4.85
X9.8Y-4.95
X8.2Y-1.45
X8.2Y-1.55
X8.4Y-1.45
X8.4Y-1.55
X8.5Y-1.45
X8.5Y-1.55
X8.6Y-1.45
X8.6Y-1.55
X8.7Y-1.45
X8.7Y-1.55
X8.8Y-1.45
X8.8Y-1.55
X8.9Y-1.45
X8.9Y-1.55
X9.3Y-1.45
X9.3Y-1.55
X9.4Y-1.45
X9.4Y-1.55
X9.5Y-1.45
X9.5Y-1.55
X9.6Y-1.45
X9.6Y-1.55
X9.7Y-1.45
X9.7Y-1.55
X9.8Y-1.45
X9.8Y-1.55
X9.1Y-4.85
X9.1Y-4.95
X9.1Y-1.45
X9.1Y-1.55
X8.5656Y-4.4442
X8.6078Y-4.3535
X8.6562Y-4.4864
X8.6985Y-4.3958
X8.7468Y-4.5287
X8.7891Y-4.4381
X8.8375Y-4.571
X8.8797Y-4.4803
X8.9281Y-4.6132
X8.9704Y-4.5226
X9.0187Y-4.6555
X9.061Y-4.5648
X9.1094Y-4.6977
X9.1516Y-4.6071
X9.2Y-4.74
X9.2423Y-4.6494
X7.4906Y-1.9558
X7.5328Y-2.0465
X7.5812Y-1.9136
X7.6235Y-2.0042
X7.6718Y-1.8713
X7.7141Y-1.9619
X7.7625Y-1.829
X7.8047Y-1.9197
X7.8531Y-1.7868
X7.8954Y-1.8774
X7.9437Y-1.7445
X7.986Y-1.8352
X8.0344Y-1.7023
X8.0766Y-1.7929
X8.125Y-1.66
X8.1673Y-1.7506
X5.8858Y-3.3575
X5.9858Y-3.3575
X6.0858Y-3.3575
X6.1858Y-3.3575
X6.2858Y-3.3575
X7.5Y-4.85
X7.5Y-4.95
X7.6Y-4.85
X7.6Y-4.95
X7.7Y-4.85
X7.7Y-4.95
X7.8Y-4.85
X7.8Y-4.95
X7.9Y-4.85
X7.9Y-4.95
X8.0Y-4.85
X8.0Y-4.95
X7.54Y-3.07
X7.54Y-3.17
X7.54Y-3.27
X7.54Y-3.37
X9.6406Y-4.4442
X9.6828Y-4.3535
X9.7312Y-4.4864
X9.7735Y-4.3958
X9.8218Y-4.5287
X9.8641Y-4.4381
X9.9125Y-4.571
X9.9547Y-4.4803
X10.0031Y-4.6132
X10.0454Y-4.5226
X10.0937Y-4.6555
X10.136Y-4.5648
X10.1844Y-4.6977
X10.2266Y-4.6071
X10.275Y-4.74
X10.3173Y-4.6494
T5
X7.8Y-3.0
X7.8Y-3.1
X7.8Y-3.2
X7.8Y-3.3
X7.8Y-3.4
X7.9Y-3.0
X7.9Y-3.1
X7.9Y-3.2
X7.9Y-3.3
X7.9Y-3.4
T6
X5.8Y-1.95
X5.8Y-2.2
T7
X10.5Y-2.0125
X10.5Y-4.3875
X5.175Y-4.825
X5.175Y-1.575
T2
G00X5.0732Y-4.0535
M15
G01X5.1047Y-4.0535
M16
G05
G00X5.0732Y-4.3937
M15
G01X5.1047Y-4.3937
M16
G05
G00X5.2315Y-4.0535
M15
G01X5.2748Y-4.0535
M16
G05
G00X5.2315Y-4.3937
M15
G01X5.2748Y-4.3937
M16
G05
T0
M30
