%TF.GenerationSoftware,KiCad,Pcbnew,(5.99.0-2360-g1790c536e)*%
%TF.CreationDate,2020-08-29T16:27:01+02:00*%
%TF.ProjectId,chubby hat,63687562-6279-4206-9861-742e6b696361,rev?*%
%TF.SameCoordinates,Original*%
%TF.FileFunction,Legend,Bot*%
%TF.FilePolarity,Positive*%
%FSLAX46Y46*%
G04 Gerber Fmt 4.6, Leading zero omitted, Abs format (unit mm)*
G04 Created by KiCad (PCBNEW (5.99.0-2360-g1790c536e)) date 2020-08-29 16:27:01*
%MOMM*%
%LPD*%
G01*
G04 APERTURE LIST*
%ADD10C,0.000000*%
%ADD11C,0.150000*%
%ADD12C,0.300000*%
%ADD13C,0.400000*%
%ADD14C,0.450000*%
%ADD15C,0.500000*%
%ADD16C,0.120000*%
%ADD17C,0.100000*%
G04 APERTURE END LIST*
D10*
D11*
X177002200Y-166007200D02*
X177002200Y-198007200D01*
X285002200Y-198007200D01*
X285002200Y-166007200D01*
X177002200Y-166007200D01*
D10*
D11*
X10000000Y-10000000D02*
X10000000Y-200007200D01*
X287002200Y-200007200D01*
X287002200Y-10000000D01*
X10000000Y-10000000D01*
D10*
D11*
X12000000Y-12000000D02*
X12000000Y-198007200D01*
X285002200Y-198007200D01*
X285002200Y-12000000D01*
X12000000Y-12000000D01*
D10*
D11*
X60000000Y-12000000D02*
X60000000Y-10000000D01*
D10*
D11*
X110000000Y-12000000D02*
X110000000Y-10000000D01*
D10*
D11*
X160000000Y-12000000D02*
X160000000Y-10000000D01*
D10*
D11*
X210000000Y-12000000D02*
X210000000Y-10000000D01*
D10*
D11*
X260000000Y-12000000D02*
X260000000Y-10000000D01*
D10*
D11*
X36065476Y-11588095D02*
X35322619Y-11588095D01*
X35694047Y-11588095D02*
X35694047Y-10288095D01*
X35570238Y-10473809D01*
X35446428Y-10597619D01*
X35322619Y-10659523D01*
D10*
D11*
X85322619Y-10411904D02*
X85384523Y-10350000D01*
X85508333Y-10288095D01*
X85817857Y-10288095D01*
X85941666Y-10350000D01*
X86003571Y-10411904D01*
X86065476Y-10535714D01*
X86065476Y-10659523D01*
X86003571Y-10845238D01*
X85260714Y-11588095D01*
X86065476Y-11588095D01*
D10*
D11*
X135260714Y-10288095D02*
X136065476Y-10288095D01*
X135632142Y-10783333D01*
X135817857Y-10783333D01*
X135941666Y-10845238D01*
X136003571Y-10907142D01*
X136065476Y-11030952D01*
X136065476Y-11340476D01*
X136003571Y-11464285D01*
X135941666Y-11526190D01*
X135817857Y-11588095D01*
X135446428Y-11588095D01*
X135322619Y-11526190D01*
X135260714Y-11464285D01*
D10*
D11*
X185941666Y-10721428D02*
X185941666Y-11588095D01*
X185632142Y-10226190D02*
X185322619Y-11154761D01*
X186127380Y-11154761D01*
D10*
D11*
X236003571Y-10288095D02*
X235384523Y-10288095D01*
X235322619Y-10907142D01*
X235384523Y-10845238D01*
X235508333Y-10783333D01*
X235817857Y-10783333D01*
X235941666Y-10845238D01*
X236003571Y-10907142D01*
X236065476Y-11030952D01*
X236065476Y-11340476D01*
X236003571Y-11464285D01*
X235941666Y-11526190D01*
X235817857Y-11588095D01*
X235508333Y-11588095D01*
X235384523Y-11526190D01*
X235322619Y-11464285D01*
D10*
D11*
X285941666Y-10288095D02*
X285694047Y-10288095D01*
X285570238Y-10350000D01*
X285508333Y-10411904D01*
X285384523Y-10597619D01*
X285322619Y-10845238D01*
X285322619Y-11340476D01*
X285384523Y-11464285D01*
X285446428Y-11526190D01*
X285570238Y-11588095D01*
X285817857Y-11588095D01*
X285941666Y-11526190D01*
X286003571Y-11464285D01*
X286065476Y-11340476D01*
X286065476Y-11030952D01*
X286003571Y-10907142D01*
X285941666Y-10845238D01*
X285817857Y-10783333D01*
X285570238Y-10783333D01*
X285446428Y-10845238D01*
X285384523Y-10907142D01*
X285322619Y-11030952D01*
D10*
D11*
X60000000Y-198007200D02*
X60000000Y-200007200D01*
D10*
D11*
X110000000Y-198007200D02*
X110000000Y-200007200D01*
D10*
D11*
X160000000Y-198007200D02*
X160000000Y-200007200D01*
D10*
D11*
X210000000Y-198007200D02*
X210000000Y-200007200D01*
D10*
D11*
X260000000Y-198007200D02*
X260000000Y-200007200D01*
D10*
D11*
X36065476Y-199595295D02*
X35322619Y-199595295D01*
X35694047Y-199595295D02*
X35694047Y-198295295D01*
X35570238Y-198481009D01*
X35446428Y-198604819D01*
X35322619Y-198666723D01*
D10*
D11*
X85322619Y-198419104D02*
X85384523Y-198357200D01*
X85508333Y-198295295D01*
X85817857Y-198295295D01*
X85941666Y-198357200D01*
X86003571Y-198419104D01*
X86065476Y-198542914D01*
X86065476Y-198666723D01*
X86003571Y-198852438D01*
X85260714Y-199595295D01*
X86065476Y-199595295D01*
D10*
D11*
X135260714Y-198295295D02*
X136065476Y-198295295D01*
X135632142Y-198790533D01*
X135817857Y-198790533D01*
X135941666Y-198852438D01*
X136003571Y-198914342D01*
X136065476Y-199038152D01*
X136065476Y-199347676D01*
X136003571Y-199471485D01*
X135941666Y-199533390D01*
X135817857Y-199595295D01*
X135446428Y-199595295D01*
X135322619Y-199533390D01*
X135260714Y-199471485D01*
D10*
D11*
X185941666Y-198728628D02*
X185941666Y-199595295D01*
X185632142Y-198233390D02*
X185322619Y-199161961D01*
X186127380Y-199161961D01*
D10*
D11*
X236003571Y-198295295D02*
X235384523Y-198295295D01*
X235322619Y-198914342D01*
X235384523Y-198852438D01*
X235508333Y-198790533D01*
X235817857Y-198790533D01*
X235941666Y-198852438D01*
X236003571Y-198914342D01*
X236065476Y-199038152D01*
X236065476Y-199347676D01*
X236003571Y-199471485D01*
X235941666Y-199533390D01*
X235817857Y-199595295D01*
X235508333Y-199595295D01*
X235384523Y-199533390D01*
X235322619Y-199471485D01*
D10*
D11*
X285941666Y-198295295D02*
X285694047Y-198295295D01*
X285570238Y-198357200D01*
X285508333Y-198419104D01*
X285384523Y-198604819D01*
X285322619Y-198852438D01*
X285322619Y-199347676D01*
X285384523Y-199471485D01*
X285446428Y-199533390D01*
X285570238Y-199595295D01*
X285817857Y-199595295D01*
X285941666Y-199533390D01*
X286003571Y-199471485D01*
X286065476Y-199347676D01*
X286065476Y-199038152D01*
X286003571Y-198914342D01*
X285941666Y-198852438D01*
X285817857Y-198790533D01*
X285570238Y-198790533D01*
X285446428Y-198852438D01*
X285384523Y-198914342D01*
X285322619Y-199038152D01*
D10*
D11*
X10000000Y-60000000D02*
X12000000Y-60000000D01*
D10*
D11*
X10000000Y-110000000D02*
X12000000Y-110000000D01*
D10*
D11*
X10000000Y-160000000D02*
X12000000Y-160000000D01*
D10*
D11*
X10690476Y-35216666D02*
X11309523Y-35216666D01*
X10566666Y-35588095D02*
X11000000Y-34288095D01*
X11433333Y-35588095D01*
D10*
D11*
X11092857Y-84907142D02*
X11278571Y-84969047D01*
X11340476Y-85030952D01*
X11402380Y-85154761D01*
X11402380Y-85340476D01*
X11340476Y-85464285D01*
X11278571Y-85526190D01*
X11154761Y-85588095D01*
X10659523Y-85588095D01*
X10659523Y-84288095D01*
X11092857Y-84288095D01*
X11216666Y-84350000D01*
X11278571Y-84411904D01*
X11340476Y-84535714D01*
X11340476Y-84659523D01*
X11278571Y-84783333D01*
X11216666Y-84845238D01*
X11092857Y-84907142D01*
X10659523Y-84907142D01*
D10*
D11*
X11402380Y-135464285D02*
X11340476Y-135526190D01*
X11154761Y-135588095D01*
X11030952Y-135588095D01*
X10845238Y-135526190D01*
X10721428Y-135402380D01*
X10659523Y-135278571D01*
X10597619Y-135030952D01*
X10597619Y-134845238D01*
X10659523Y-134597619D01*
X10721428Y-134473809D01*
X10845238Y-134350000D01*
X11030952Y-134288095D01*
X11154761Y-134288095D01*
X11340476Y-134350000D01*
X11402380Y-134411904D01*
D10*
D11*
X10659523Y-185588095D02*
X10659523Y-184288095D01*
X10969047Y-184288095D01*
X11154761Y-184350000D01*
X11278571Y-184473809D01*
X11340476Y-184597619D01*
X11402380Y-184845238D01*
X11402380Y-185030952D01*
X11340476Y-185278571D01*
X11278571Y-185402380D01*
X11154761Y-185526190D01*
X10969047Y-185588095D01*
X10659523Y-185588095D01*
D10*
D11*
X287002200Y-60000000D02*
X285002200Y-60000000D01*
D10*
D11*
X287002200Y-110000000D02*
X285002200Y-110000000D01*
D10*
D11*
X287002200Y-160000000D02*
X285002200Y-160000000D01*
D10*
D11*
X285692676Y-35216666D02*
X286311723Y-35216666D01*
X285568866Y-35588095D02*
X286002200Y-34288095D01*
X286435533Y-35588095D01*
D10*
D11*
X286095057Y-84907142D02*
X286280771Y-84969047D01*
X286342676Y-85030952D01*
X286404580Y-85154761D01*
X286404580Y-85340476D01*
X286342676Y-85464285D01*
X286280771Y-85526190D01*
X286156961Y-85588095D01*
X285661723Y-85588095D01*
X285661723Y-84288095D01*
X286095057Y-84288095D01*
X286218866Y-84350000D01*
X286280771Y-84411904D01*
X286342676Y-84535714D01*
X286342676Y-84659523D01*
X286280771Y-84783333D01*
X286218866Y-84845238D01*
X286095057Y-84907142D01*
X285661723Y-84907142D01*
D10*
D11*
X286404580Y-135464285D02*
X286342676Y-135526190D01*
X286156961Y-135588095D01*
X286033152Y-135588095D01*
X285847438Y-135526190D01*
X285723628Y-135402380D01*
X285661723Y-135278571D01*
X285599819Y-135030952D01*
X285599819Y-134845238D01*
X285661723Y-134597619D01*
X285723628Y-134473809D01*
X285847438Y-134350000D01*
X286033152Y-134288095D01*
X286156961Y-134288095D01*
X286342676Y-134350000D01*
X286404580Y-134411904D01*
D10*
D11*
X285661723Y-185588095D02*
X285661723Y-184288095D01*
X285971247Y-184288095D01*
X286156961Y-184350000D01*
X286280771Y-184473809D01*
X286342676Y-184597619D01*
X286404580Y-184845238D01*
X286404580Y-185030952D01*
X286342676Y-185278571D01*
X286280771Y-185402380D01*
X286156961Y-185526190D01*
X285971247Y-185588095D01*
X285661723Y-185588095D01*
D10*
D11*
X200434342Y-193785771D02*
X200434342Y-192285771D01*
X200791485Y-192285771D01*
X201005771Y-192357200D01*
X201148628Y-192500057D01*
X201220057Y-192642914D01*
X201291485Y-192928628D01*
X201291485Y-193142914D01*
X201220057Y-193428628D01*
X201148628Y-193571485D01*
X201005771Y-193714342D01*
X200791485Y-193785771D01*
X200434342Y-193785771D01*
X202577200Y-193785771D02*
X202577200Y-193000057D01*
X202505771Y-192857200D01*
X202362914Y-192785771D01*
X202077200Y-192785771D01*
X201934342Y-192857200D01*
X202577200Y-193714342D02*
X202434342Y-193785771D01*
X202077200Y-193785771D01*
X201934342Y-193714342D01*
X201862914Y-193571485D01*
X201862914Y-193428628D01*
X201934342Y-193285771D01*
X202077200Y-193214342D01*
X202434342Y-193214342D01*
X202577200Y-193142914D01*
X203077200Y-192785771D02*
X203648628Y-192785771D01*
X203291485Y-192285771D02*
X203291485Y-193571485D01*
X203362914Y-193714342D01*
X203505771Y-193785771D01*
X203648628Y-193785771D01*
X204720057Y-193714342D02*
X204577200Y-193785771D01*
X204291485Y-193785771D01*
X204148628Y-193714342D01*
X204077200Y-193571485D01*
X204077200Y-193000057D01*
X204148628Y-192857200D01*
X204291485Y-192785771D01*
X204577200Y-192785771D01*
X204720057Y-192857200D01*
X204791485Y-193000057D01*
X204791485Y-193142914D01*
X204077200Y-193285771D01*
X205434342Y-193642914D02*
X205505771Y-193714342D01*
X205434342Y-193785771D01*
X205362914Y-193714342D01*
X205434342Y-193642914D01*
X205434342Y-193785771D01*
X205434342Y-192857200D02*
X205505771Y-192928628D01*
X205434342Y-193000057D01*
X205362914Y-192928628D01*
X205434342Y-192857200D01*
X205434342Y-193000057D01*
D10*
D11*
X177002200Y-194507200D02*
X285002200Y-194507200D01*
D10*
D11*
X178434342Y-196585771D02*
X178434342Y-195085771D01*
X179291485Y-196585771D02*
X178648628Y-195728628D01*
X179291485Y-195085771D02*
X178434342Y-195942914D01*
X179934342Y-196585771D02*
X179934342Y-195585771D01*
X179934342Y-195085771D02*
X179862914Y-195157200D01*
X179934342Y-195228628D01*
X180005771Y-195157200D01*
X179934342Y-195085771D01*
X179934342Y-195228628D01*
X181505771Y-196442914D02*
X181434342Y-196514342D01*
X181220057Y-196585771D01*
X181077200Y-196585771D01*
X180862914Y-196514342D01*
X180720057Y-196371485D01*
X180648628Y-196228628D01*
X180577200Y-195942914D01*
X180577200Y-195728628D01*
X180648628Y-195442914D01*
X180720057Y-195300057D01*
X180862914Y-195157200D01*
X181077200Y-195085771D01*
X181220057Y-195085771D01*
X181434342Y-195157200D01*
X181505771Y-195228628D01*
X182791485Y-196585771D02*
X182791485Y-195800057D01*
X182720057Y-195657200D01*
X182577200Y-195585771D01*
X182291485Y-195585771D01*
X182148628Y-195657200D01*
X182791485Y-196514342D02*
X182648628Y-196585771D01*
X182291485Y-196585771D01*
X182148628Y-196514342D01*
X182077200Y-196371485D01*
X182077200Y-196228628D01*
X182148628Y-196085771D01*
X182291485Y-196014342D01*
X182648628Y-196014342D01*
X182791485Y-195942914D01*
X184148628Y-196585771D02*
X184148628Y-195085771D01*
X184148628Y-196514342D02*
X184005771Y-196585771D01*
X183720057Y-196585771D01*
X183577200Y-196514342D01*
X183505771Y-196442914D01*
X183434342Y-196300057D01*
X183434342Y-195871485D01*
X183505771Y-195728628D01*
X183577200Y-195657200D01*
X183720057Y-195585771D01*
X184005771Y-195585771D01*
X184148628Y-195657200D01*
X186005771Y-195800057D02*
X186505771Y-195800057D01*
X186720057Y-196585771D02*
X186005771Y-196585771D01*
X186005771Y-195085771D01*
X186720057Y-195085771D01*
X187362914Y-196442914D02*
X187434342Y-196514342D01*
X187362914Y-196585771D01*
X187291485Y-196514342D01*
X187362914Y-196442914D01*
X187362914Y-196585771D01*
X188077200Y-196585771D02*
X188077200Y-195085771D01*
X188434342Y-195085771D01*
X188648628Y-195157200D01*
X188791485Y-195300057D01*
X188862914Y-195442914D01*
X188934342Y-195728628D01*
X188934342Y-195942914D01*
X188862914Y-196228628D01*
X188791485Y-196371485D01*
X188648628Y-196514342D01*
X188434342Y-196585771D01*
X188077200Y-196585771D01*
X189577200Y-196442914D02*
X189648628Y-196514342D01*
X189577200Y-196585771D01*
X189505771Y-196514342D01*
X189577200Y-196442914D01*
X189577200Y-196585771D01*
X190220057Y-196157200D02*
X190934342Y-196157200D01*
X190077200Y-196585771D02*
X190577200Y-195085771D01*
X191077200Y-196585771D01*
X191577200Y-196442914D02*
X191648628Y-196514342D01*
X191577200Y-196585771D01*
X191505771Y-196514342D01*
X191577200Y-196442914D01*
X191577200Y-196585771D01*
X194577200Y-196585771D02*
X194577200Y-195085771D01*
X194720057Y-196014342D02*
X195148628Y-196585771D01*
X195148628Y-195585771D02*
X194577200Y-196157200D01*
X195791485Y-196585771D02*
X195791485Y-195585771D01*
X195791485Y-195085771D02*
X195720057Y-195157200D01*
X195791485Y-195228628D01*
X195862914Y-195157200D01*
X195791485Y-195085771D01*
X195791485Y-195228628D01*
X197148628Y-196514342D02*
X197005771Y-196585771D01*
X196720057Y-196585771D01*
X196577200Y-196514342D01*
X196505771Y-196442914D01*
X196434342Y-196300057D01*
X196434342Y-195871485D01*
X196505771Y-195728628D01*
X196577200Y-195657200D01*
X196720057Y-195585771D01*
X197005771Y-195585771D01*
X197148628Y-195657200D01*
X198434342Y-196585771D02*
X198434342Y-195800057D01*
X198362914Y-195657200D01*
X198220057Y-195585771D01*
X197934342Y-195585771D01*
X197791485Y-195657200D01*
X198434342Y-196514342D02*
X198291485Y-196585771D01*
X197934342Y-196585771D01*
X197791485Y-196514342D01*
X197720057Y-196371485D01*
X197720057Y-196228628D01*
X197791485Y-196085771D01*
X197934342Y-196014342D01*
X198291485Y-196014342D01*
X198434342Y-195942914D01*
X199791485Y-196585771D02*
X199791485Y-195085771D01*
X199791485Y-196514342D02*
X199648628Y-196585771D01*
X199362914Y-196585771D01*
X199220057Y-196514342D01*
X199148628Y-196442914D01*
X199077200Y-196300057D01*
X199077200Y-195871485D01*
X199148628Y-195728628D01*
X199220057Y-195657200D01*
X199362914Y-195585771D01*
X199648628Y-195585771D01*
X199791485Y-195657200D01*
X202077200Y-197157200D02*
X202005771Y-197085771D01*
X201862914Y-196871485D01*
X201791485Y-196728628D01*
X201720057Y-196514342D01*
X201648628Y-196157200D01*
X201648628Y-195871485D01*
X201720057Y-195514342D01*
X201791485Y-195300057D01*
X201862914Y-195157200D01*
X202005771Y-194942914D01*
X202077200Y-194871485D01*
X203362914Y-195085771D02*
X202648628Y-195085771D01*
X202577200Y-195800057D01*
X202648628Y-195728628D01*
X202791485Y-195657200D01*
X203148628Y-195657200D01*
X203291485Y-195728628D01*
X203362914Y-195800057D01*
X203434342Y-195942914D01*
X203434342Y-196300057D01*
X203362914Y-196442914D01*
X203291485Y-196514342D01*
X203148628Y-196585771D01*
X202791485Y-196585771D01*
X202648628Y-196514342D01*
X202577200Y-196442914D01*
X204077200Y-196442914D02*
X204148628Y-196514342D01*
X204077200Y-196585771D01*
X204005771Y-196514342D01*
X204077200Y-196442914D01*
X204077200Y-196585771D01*
X204862914Y-196585771D02*
X205148628Y-196585771D01*
X205291485Y-196514342D01*
X205362914Y-196442914D01*
X205505771Y-196228628D01*
X205577200Y-195942914D01*
X205577200Y-195371485D01*
X205505771Y-195228628D01*
X205434342Y-195157200D01*
X205291485Y-195085771D01*
X205005771Y-195085771D01*
X204862914Y-195157200D01*
X204791485Y-195228628D01*
X204720057Y-195371485D01*
X204720057Y-195728628D01*
X204791485Y-195871485D01*
X204862914Y-195942914D01*
X205005771Y-196014342D01*
X205291485Y-196014342D01*
X205434342Y-195942914D01*
X205505771Y-195871485D01*
X205577200Y-195728628D01*
X206291485Y-196585771D02*
X206577200Y-196585771D01*
X206720057Y-196514342D01*
X206791485Y-196442914D01*
X206934342Y-196228628D01*
X207005771Y-195942914D01*
X207005771Y-195371485D01*
X206934342Y-195228628D01*
X206862914Y-195157200D01*
X206720057Y-195085771D01*
X206434342Y-195085771D01*
X206291485Y-195157200D01*
X206220057Y-195228628D01*
X206148628Y-195371485D01*
X206148628Y-195728628D01*
X206220057Y-195871485D01*
X206291485Y-195942914D01*
X206434342Y-196014342D01*
X206720057Y-196014342D01*
X206862914Y-195942914D01*
X206934342Y-195871485D01*
X207005771Y-195728628D01*
X207648628Y-196442914D02*
X207720057Y-196514342D01*
X207648628Y-196585771D01*
X207577200Y-196514342D01*
X207648628Y-196442914D01*
X207648628Y-196585771D01*
X208648628Y-195085771D02*
X208791485Y-195085771D01*
X208934342Y-195157200D01*
X209005771Y-195228628D01*
X209077200Y-195371485D01*
X209148628Y-195657200D01*
X209148628Y-196014342D01*
X209077200Y-196300057D01*
X209005771Y-196442914D01*
X208934342Y-196514342D01*
X208791485Y-196585771D01*
X208648628Y-196585771D01*
X208505771Y-196514342D01*
X208434342Y-196442914D01*
X208362914Y-196300057D01*
X208291485Y-196014342D01*
X208291485Y-195657200D01*
X208362914Y-195371485D01*
X208434342Y-195228628D01*
X208505771Y-195157200D01*
X208648628Y-195085771D01*
X209791485Y-196014342D02*
X210934342Y-196014342D01*
X211577200Y-195228628D02*
X211648628Y-195157200D01*
X211791485Y-195085771D01*
X212148628Y-195085771D01*
X212291485Y-195157200D01*
X212362914Y-195228628D01*
X212434342Y-195371485D01*
X212434342Y-195514342D01*
X212362914Y-195728628D01*
X211505771Y-196585771D01*
X212434342Y-196585771D01*
X212934342Y-195085771D02*
X213862914Y-195085771D01*
X213362914Y-195657200D01*
X213577200Y-195657200D01*
X213720057Y-195728628D01*
X213791485Y-195800057D01*
X213862914Y-195942914D01*
X213862914Y-196300057D01*
X213791485Y-196442914D01*
X213720057Y-196514342D01*
X213577200Y-196585771D01*
X213148628Y-196585771D01*
X213005771Y-196514342D01*
X212934342Y-196442914D01*
X215148628Y-195085771D02*
X214862914Y-195085771D01*
X214720057Y-195157200D01*
X214648628Y-195228628D01*
X214505771Y-195442914D01*
X214434342Y-195728628D01*
X214434342Y-196300057D01*
X214505771Y-196442914D01*
X214577200Y-196514342D01*
X214720057Y-196585771D01*
X215005771Y-196585771D01*
X215148628Y-196514342D01*
X215220057Y-196442914D01*
X215291485Y-196300057D01*
X215291485Y-195942914D01*
X215220057Y-195800057D01*
X215148628Y-195728628D01*
X215005771Y-195657200D01*
X214720057Y-195657200D01*
X214577200Y-195728628D01*
X214505771Y-195800057D01*
X214434342Y-195942914D01*
X216220057Y-195085771D02*
X216362914Y-195085771D01*
X216505771Y-195157200D01*
X216577200Y-195228628D01*
X216648628Y-195371485D01*
X216720057Y-195657200D01*
X216720057Y-196014342D01*
X216648628Y-196300057D01*
X216577200Y-196442914D01*
X216505771Y-196514342D01*
X216362914Y-196585771D01*
X216220057Y-196585771D01*
X216077200Y-196514342D01*
X216005771Y-196442914D01*
X215934342Y-196300057D01*
X215862914Y-196014342D01*
X215862914Y-195657200D01*
X215934342Y-195371485D01*
X216005771Y-195228628D01*
X216077200Y-195157200D01*
X216220057Y-195085771D01*
X217362914Y-196014342D02*
X218505771Y-196014342D01*
X219862914Y-195585771D02*
X219862914Y-196800057D01*
X219791485Y-196942914D01*
X219720057Y-197014342D01*
X219577200Y-197085771D01*
X219362914Y-197085771D01*
X219220057Y-197014342D01*
X219862914Y-196514342D02*
X219720057Y-196585771D01*
X219434342Y-196585771D01*
X219291485Y-196514342D01*
X219220057Y-196442914D01*
X219148628Y-196300057D01*
X219148628Y-195871485D01*
X219220057Y-195728628D01*
X219291485Y-195657200D01*
X219434342Y-195585771D01*
X219720057Y-195585771D01*
X219862914Y-195657200D01*
X221362914Y-196585771D02*
X220505771Y-196585771D01*
X220934342Y-196585771D02*
X220934342Y-195085771D01*
X220791485Y-195300057D01*
X220648628Y-195442914D01*
X220505771Y-195514342D01*
X221862914Y-195085771D02*
X222862914Y-195085771D01*
X222220057Y-196585771D01*
X223505771Y-196585771D02*
X223791485Y-196585771D01*
X223934342Y-196514342D01*
X224005771Y-196442914D01*
X224148628Y-196228628D01*
X224220057Y-195942914D01*
X224220057Y-195371485D01*
X224148628Y-195228628D01*
X224077200Y-195157200D01*
X223934342Y-195085771D01*
X223648628Y-195085771D01*
X223505771Y-195157200D01*
X223434342Y-195228628D01*
X223362914Y-195371485D01*
X223362914Y-195728628D01*
X223434342Y-195871485D01*
X223505771Y-195942914D01*
X223648628Y-196014342D01*
X223934342Y-196014342D01*
X224077200Y-195942914D01*
X224148628Y-195871485D01*
X224220057Y-195728628D01*
X225148628Y-195085771D02*
X225291485Y-195085771D01*
X225434342Y-195157200D01*
X225505771Y-195228628D01*
X225577200Y-195371485D01*
X225648628Y-195657200D01*
X225648628Y-196014342D01*
X225577200Y-196300057D01*
X225505771Y-196442914D01*
X225434342Y-196514342D01*
X225291485Y-196585771D01*
X225148628Y-196585771D01*
X225005771Y-196514342D01*
X224934342Y-196442914D01*
X224862914Y-196300057D01*
X224791485Y-196014342D01*
X224791485Y-195657200D01*
X224862914Y-195371485D01*
X224934342Y-195228628D01*
X225005771Y-195157200D01*
X225148628Y-195085771D01*
X226934342Y-196514342D02*
X226791485Y-196585771D01*
X226505771Y-196585771D01*
X226362914Y-196514342D01*
X226291485Y-196442914D01*
X226220057Y-196300057D01*
X226220057Y-195871485D01*
X226291485Y-195728628D01*
X226362914Y-195657200D01*
X226505771Y-195585771D01*
X226791485Y-195585771D01*
X226934342Y-195657200D01*
X228291485Y-195085771D02*
X227577199Y-195085771D01*
X227505771Y-195800057D01*
X227577199Y-195728628D01*
X227720057Y-195657200D01*
X228077199Y-195657200D01*
X228220057Y-195728628D01*
X228291485Y-195800057D01*
X228362914Y-195942914D01*
X228362914Y-196300057D01*
X228291485Y-196442914D01*
X228220057Y-196514342D01*
X228077199Y-196585771D01*
X227720057Y-196585771D01*
X227577199Y-196514342D01*
X227505771Y-196442914D01*
X228862914Y-195085771D02*
X229791485Y-195085771D01*
X229291485Y-195657200D01*
X229505771Y-195657200D01*
X229648628Y-195728628D01*
X229720057Y-195800057D01*
X229791485Y-195942914D01*
X229791485Y-196300057D01*
X229720057Y-196442914D01*
X229648628Y-196514342D01*
X229505771Y-196585771D01*
X229077199Y-196585771D01*
X228934342Y-196514342D01*
X228862914Y-196442914D01*
X231077199Y-195085771D02*
X230791485Y-195085771D01*
X230648628Y-195157200D01*
X230577199Y-195228628D01*
X230434342Y-195442914D01*
X230362914Y-195728628D01*
X230362914Y-196300057D01*
X230434342Y-196442914D01*
X230505771Y-196514342D01*
X230648628Y-196585771D01*
X230934342Y-196585771D01*
X231077199Y-196514342D01*
X231148628Y-196442914D01*
X231220057Y-196300057D01*
X231220057Y-195942914D01*
X231148628Y-195800057D01*
X231077199Y-195728628D01*
X230934342Y-195657200D01*
X230648628Y-195657200D01*
X230505771Y-195728628D01*
X230434342Y-195800057D01*
X230362914Y-195942914D01*
X232434342Y-196514342D02*
X232291485Y-196585771D01*
X232005771Y-196585771D01*
X231862914Y-196514342D01*
X231791485Y-196371485D01*
X231791485Y-195800057D01*
X231862914Y-195657200D01*
X232005771Y-195585771D01*
X232291485Y-195585771D01*
X232434342Y-195657200D01*
X232505771Y-195800057D01*
X232505771Y-195942914D01*
X231791485Y-196085771D01*
X233005771Y-197157200D02*
X233077199Y-197085771D01*
X233220057Y-196871485D01*
X233291485Y-196728628D01*
X233362914Y-196514342D01*
X233434342Y-196157200D01*
X233434342Y-195871485D01*
X233362914Y-195514342D01*
X233291485Y-195300057D01*
X233220057Y-195157200D01*
X233077199Y-194942914D01*
X233005771Y-194871485D01*
D10*
D11*
X177002200Y-191507200D02*
X285002200Y-191507200D01*
D10*
D12*
X264411485Y-193785771D02*
X263911485Y-193071485D01*
X263554342Y-193785771D02*
X263554342Y-192285771D01*
X264125771Y-192285771D01*
X264268628Y-192357200D01*
X264340057Y-192428628D01*
X264411485Y-192571485D01*
X264411485Y-192785771D01*
X264340057Y-192928628D01*
X264268628Y-193000057D01*
X264125771Y-193071485D01*
X263554342Y-193071485D01*
X265625771Y-193714342D02*
X265482914Y-193785771D01*
X265197200Y-193785771D01*
X265054342Y-193714342D01*
X264982914Y-193571485D01*
X264982914Y-193000057D01*
X265054342Y-192857200D01*
X265197200Y-192785771D01*
X265482914Y-192785771D01*
X265625771Y-192857200D01*
X265697200Y-193000057D01*
X265697200Y-193142914D01*
X264982914Y-193285771D01*
X266197200Y-192785771D02*
X266554342Y-193785771D01*
X266911485Y-192785771D01*
X267482914Y-193642914D02*
X267554342Y-193714342D01*
X267482914Y-193785771D01*
X267411485Y-193714342D01*
X267482914Y-193642914D01*
X267482914Y-193785771D01*
X267482914Y-192857200D02*
X267554342Y-192928628D01*
X267482914Y-193000057D01*
X267411485Y-192928628D01*
X267482914Y-192857200D01*
X267482914Y-193000057D01*
D10*
D11*
X178362914Y-193714342D02*
X178577200Y-193785771D01*
X178934342Y-193785771D01*
X179077200Y-193714342D01*
X179148628Y-193642914D01*
X179220057Y-193500057D01*
X179220057Y-193357200D01*
X179148628Y-193214342D01*
X179077200Y-193142914D01*
X178934342Y-193071485D01*
X178648628Y-193000057D01*
X178505771Y-192928628D01*
X178434342Y-192857200D01*
X178362914Y-192714342D01*
X178362914Y-192571485D01*
X178434342Y-192428628D01*
X178505771Y-192357200D01*
X178648628Y-192285771D01*
X179005771Y-192285771D01*
X179220057Y-192357200D01*
X179862914Y-193785771D02*
X179862914Y-192785771D01*
X179862914Y-192285771D02*
X179791485Y-192357200D01*
X179862914Y-192428628D01*
X179934342Y-192357200D01*
X179862914Y-192285771D01*
X179862914Y-192428628D01*
X180434342Y-192785771D02*
X181220057Y-192785771D01*
X180434342Y-193785771D01*
X181220057Y-193785771D01*
X182362914Y-193714342D02*
X182220057Y-193785771D01*
X181934342Y-193785771D01*
X181791485Y-193714342D01*
X181720057Y-193571485D01*
X181720057Y-193000057D01*
X181791485Y-192857200D01*
X181934342Y-192785771D01*
X182220057Y-192785771D01*
X182362914Y-192857200D01*
X182434342Y-193000057D01*
X182434342Y-193142914D01*
X181720057Y-193285771D01*
X183077200Y-193642914D02*
X183148628Y-193714342D01*
X183077200Y-193785771D01*
X183005771Y-193714342D01*
X183077200Y-193642914D01*
X183077200Y-193785771D01*
X183077200Y-192857200D02*
X183148628Y-192928628D01*
X183077200Y-193000057D01*
X183005771Y-192928628D01*
X183077200Y-192857200D01*
X183077200Y-193000057D01*
X184862914Y-193357200D02*
X185577200Y-193357200D01*
X184720057Y-193785771D02*
X185220057Y-192285771D01*
X185720057Y-193785771D01*
X186862914Y-192785771D02*
X186862914Y-193785771D01*
X186505771Y-192214342D02*
X186148628Y-193285771D01*
X187077200Y-193285771D01*
D10*
D11*
X263434342Y-196585771D02*
X263434342Y-195085771D01*
X264791485Y-196585771D02*
X264791485Y-195085771D01*
X264791485Y-196514342D02*
X264648628Y-196585771D01*
X264362914Y-196585771D01*
X264220057Y-196514342D01*
X264148628Y-196442914D01*
X264077200Y-196300057D01*
X264077200Y-195871485D01*
X264148628Y-195728628D01*
X264220057Y-195657200D01*
X264362914Y-195585771D01*
X264648628Y-195585771D01*
X264791485Y-195657200D01*
X265505771Y-196442914D02*
X265577200Y-196514342D01*
X265505771Y-196585771D01*
X265434342Y-196514342D01*
X265505771Y-196442914D01*
X265505771Y-196585771D01*
X265505771Y-195657200D02*
X265577200Y-195728628D01*
X265505771Y-195800057D01*
X265434342Y-195728628D01*
X265505771Y-195657200D01*
X265505771Y-195800057D01*
X268148628Y-196585771D02*
X267291485Y-196585771D01*
X267720057Y-196585771D02*
X267720057Y-195085771D01*
X267577200Y-195300057D01*
X267434342Y-195442914D01*
X267291485Y-195514342D01*
X269862914Y-195014342D02*
X268577200Y-196942914D01*
X271148628Y-196585771D02*
X270291485Y-196585771D01*
X270720057Y-196585771D02*
X270720057Y-195085771D01*
X270577200Y-195300057D01*
X270434342Y-195442914D01*
X270291485Y-195514342D01*
D10*
D11*
X177002200Y-187507200D02*
X285002200Y-187507200D01*
D10*
D13*
X178714580Y-188211961D02*
X179857438Y-188211961D01*
X179036009Y-190211961D02*
X179286009Y-188211961D01*
X180274104Y-190211961D02*
X180440771Y-188878628D01*
X180524104Y-188211961D02*
X180416961Y-188307200D01*
X180500295Y-188402438D01*
X180607438Y-188307200D01*
X180524104Y-188211961D01*
X180500295Y-188402438D01*
X181107438Y-188878628D02*
X181869342Y-188878628D01*
X181476485Y-188211961D02*
X181262200Y-189926247D01*
X181333628Y-190116723D01*
X181512200Y-190211961D01*
X181702676Y-190211961D01*
X182655057Y-190211961D02*
X182476485Y-190116723D01*
X182405057Y-189926247D01*
X182619342Y-188211961D01*
X184190771Y-190116723D02*
X183988390Y-190211961D01*
X183607438Y-190211961D01*
X183428866Y-190116723D01*
X183357438Y-189926247D01*
X183452676Y-189164342D01*
X183571723Y-188973866D01*
X183774104Y-188878628D01*
X184155057Y-188878628D01*
X184333628Y-188973866D01*
X184405057Y-189164342D01*
X184381247Y-189354819D01*
X183405057Y-189545295D01*
X185155057Y-190021485D02*
X185238390Y-190116723D01*
X185131247Y-190211961D01*
X185047914Y-190116723D01*
X185155057Y-190021485D01*
X185131247Y-190211961D01*
X185286009Y-188973866D02*
X185369342Y-189069104D01*
X185262200Y-189164342D01*
X185178866Y-189069104D01*
X185286009Y-188973866D01*
X185262200Y-189164342D01*
D10*
D11*
X178934342Y-185600057D02*
X178434342Y-185600057D01*
X178434342Y-186385771D02*
X178434342Y-184885771D01*
X179148628Y-184885771D01*
X179720057Y-186385771D02*
X179720057Y-185385771D01*
X179720057Y-184885771D02*
X179648628Y-184957200D01*
X179720057Y-185028628D01*
X179791485Y-184957200D01*
X179720057Y-184885771D01*
X179720057Y-185028628D01*
X180648628Y-186385771D02*
X180505771Y-186314342D01*
X180434342Y-186171485D01*
X180434342Y-184885771D01*
X181791485Y-186314342D02*
X181648628Y-186385771D01*
X181362914Y-186385771D01*
X181220057Y-186314342D01*
X181148628Y-186171485D01*
X181148628Y-185600057D01*
X181220057Y-185457200D01*
X181362914Y-185385771D01*
X181648628Y-185385771D01*
X181791485Y-185457200D01*
X181862914Y-185600057D01*
X181862914Y-185742914D01*
X181148628Y-185885771D01*
X182505771Y-186242914D02*
X182577200Y-186314342D01*
X182505771Y-186385771D01*
X182434342Y-186314342D01*
X182505771Y-186242914D01*
X182505771Y-186385771D01*
X182505771Y-185457200D02*
X182577200Y-185528628D01*
X182505771Y-185600057D01*
X182434342Y-185528628D01*
X182505771Y-185457200D01*
X182505771Y-185600057D01*
X185005771Y-186314342D02*
X184862914Y-186385771D01*
X184577200Y-186385771D01*
X184434342Y-186314342D01*
X184362914Y-186242914D01*
X184291485Y-186100057D01*
X184291485Y-185671485D01*
X184362914Y-185528628D01*
X184434342Y-185457200D01*
X184577200Y-185385771D01*
X184862914Y-185385771D01*
X185005771Y-185457200D01*
X185648628Y-186385771D02*
X185648628Y-184885771D01*
X186291485Y-186385771D02*
X186291485Y-185600057D01*
X186220057Y-185457200D01*
X186077200Y-185385771D01*
X185862914Y-185385771D01*
X185720057Y-185457200D01*
X185648628Y-185528628D01*
X187648628Y-185385771D02*
X187648628Y-186385771D01*
X187005771Y-185385771D02*
X187005771Y-186171485D01*
X187077200Y-186314342D01*
X187220057Y-186385771D01*
X187434342Y-186385771D01*
X187577200Y-186314342D01*
X187648628Y-186242914D01*
X188362914Y-186385771D02*
X188362914Y-184885771D01*
X188362914Y-185457200D02*
X188505771Y-185385771D01*
X188791485Y-185385771D01*
X188934342Y-185457200D01*
X189005771Y-185528628D01*
X189077200Y-185671485D01*
X189077200Y-186100057D01*
X189005771Y-186242914D01*
X188934342Y-186314342D01*
X188791485Y-186385771D01*
X188505771Y-186385771D01*
X188362914Y-186314342D01*
X189720057Y-186385771D02*
X189720057Y-184885771D01*
X189720057Y-185457200D02*
X189862914Y-185385771D01*
X190148628Y-185385771D01*
X190291485Y-185457200D01*
X190362914Y-185528628D01*
X190434342Y-185671485D01*
X190434342Y-186100057D01*
X190362914Y-186242914D01*
X190291485Y-186314342D01*
X190148628Y-186385771D01*
X189862914Y-186385771D01*
X189720057Y-186314342D01*
X190934342Y-185385771D02*
X191291485Y-186385771D01*
X191648628Y-185385771D02*
X191291485Y-186385771D01*
X191148628Y-186742914D01*
X191077200Y-186814342D01*
X190934342Y-186885771D01*
X193362914Y-186385771D02*
X193362914Y-184885771D01*
X194005771Y-186385771D02*
X194005771Y-185600057D01*
X193934342Y-185457200D01*
X193791485Y-185385771D01*
X193577200Y-185385771D01*
X193434342Y-185457200D01*
X193362914Y-185528628D01*
X195362914Y-186385771D02*
X195362914Y-185600057D01*
X195291485Y-185457200D01*
X195148628Y-185385771D01*
X194862914Y-185385771D01*
X194720057Y-185457200D01*
X195362914Y-186314342D02*
X195220057Y-186385771D01*
X194862914Y-186385771D01*
X194720057Y-186314342D01*
X194648628Y-186171485D01*
X194648628Y-186028628D01*
X194720057Y-185885771D01*
X194862914Y-185814342D01*
X195220057Y-185814342D01*
X195362914Y-185742914D01*
X195862914Y-185385771D02*
X196434342Y-185385771D01*
X196077200Y-184885771D02*
X196077200Y-186171485D01*
X196148628Y-186314342D01*
X196291485Y-186385771D01*
X196434342Y-186385771D01*
X196934342Y-186242914D02*
X197005771Y-186314342D01*
X196934342Y-186385771D01*
X196862914Y-186314342D01*
X196934342Y-186242914D01*
X196934342Y-186385771D01*
X197648628Y-186385771D02*
X197648628Y-184885771D01*
X197791485Y-185814342D02*
X198220057Y-186385771D01*
X198220057Y-185385771D02*
X197648628Y-185957200D01*
X198862914Y-186385771D02*
X198862914Y-185385771D01*
X198862914Y-184885771D02*
X198791485Y-184957200D01*
X198862914Y-185028628D01*
X198934342Y-184957200D01*
X198862914Y-184885771D01*
X198862914Y-185028628D01*
X200220057Y-186314342D02*
X200077200Y-186385771D01*
X199791485Y-186385771D01*
X199648628Y-186314342D01*
X199577200Y-186242914D01*
X199505771Y-186100057D01*
X199505771Y-185671485D01*
X199577200Y-185528628D01*
X199648628Y-185457200D01*
X199791485Y-185385771D01*
X200077200Y-185385771D01*
X200220057Y-185457200D01*
X201505771Y-186385771D02*
X201505771Y-185600057D01*
X201434342Y-185457200D01*
X201291485Y-185385771D01*
X201005771Y-185385771D01*
X200862914Y-185457200D01*
X201505771Y-186314342D02*
X201362914Y-186385771D01*
X201005771Y-186385771D01*
X200862914Y-186314342D01*
X200791485Y-186171485D01*
X200791485Y-186028628D01*
X200862914Y-185885771D01*
X201005771Y-185814342D01*
X201362914Y-185814342D01*
X201505771Y-185742914D01*
X202862914Y-186385771D02*
X202862914Y-184885771D01*
X202862914Y-186314342D02*
X202720057Y-186385771D01*
X202434342Y-186385771D01*
X202291485Y-186314342D01*
X202220057Y-186242914D01*
X202148628Y-186100057D01*
X202148628Y-185671485D01*
X202220057Y-185528628D01*
X202291485Y-185457200D01*
X202434342Y-185385771D01*
X202720057Y-185385771D01*
X202862914Y-185457200D01*
X203220057Y-186528628D02*
X204362914Y-186528628D01*
X204720057Y-185385771D02*
X204720057Y-186885771D01*
X204720057Y-185457200D02*
X204862914Y-185385771D01*
X205148628Y-185385771D01*
X205291485Y-185457200D01*
X205362914Y-185528628D01*
X205434342Y-185671485D01*
X205434342Y-186100057D01*
X205362914Y-186242914D01*
X205291485Y-186314342D01*
X205148628Y-186385771D01*
X204862914Y-186385771D01*
X204720057Y-186314342D01*
X206720057Y-186314342D02*
X206577200Y-186385771D01*
X206291485Y-186385771D01*
X206148628Y-186314342D01*
X206077200Y-186242914D01*
X206005771Y-186100057D01*
X206005771Y-185671485D01*
X206077200Y-185528628D01*
X206148628Y-185457200D01*
X206291485Y-185385771D01*
X206577200Y-185385771D01*
X206720057Y-185457200D01*
X207362914Y-186385771D02*
X207362914Y-184885771D01*
X207362914Y-185457200D02*
X207505771Y-185385771D01*
X207791485Y-185385771D01*
X207934342Y-185457200D01*
X208005771Y-185528628D01*
X208077200Y-185671485D01*
X208077200Y-186100057D01*
X208005771Y-186242914D01*
X207934342Y-186314342D01*
X207791485Y-186385771D01*
X207505771Y-186385771D01*
X207362914Y-186314342D01*
D10*
D11*
X177002200Y-181507200D02*
X285002200Y-181507200D01*
D10*
D11*
X178362914Y-183614342D02*
X178577200Y-183685771D01*
X178934342Y-183685771D01*
X179077200Y-183614342D01*
X179148628Y-183542914D01*
X179220057Y-183400057D01*
X179220057Y-183257200D01*
X179148628Y-183114342D01*
X179077200Y-183042914D01*
X178934342Y-182971485D01*
X178648628Y-182900057D01*
X178505771Y-182828628D01*
X178434342Y-182757200D01*
X178362914Y-182614342D01*
X178362914Y-182471485D01*
X178434342Y-182328628D01*
X178505771Y-182257200D01*
X178648628Y-182185771D01*
X179005771Y-182185771D01*
X179220057Y-182257200D01*
X179862914Y-183685771D02*
X179862914Y-182185771D01*
X180505771Y-183685771D02*
X180505771Y-182900057D01*
X180434342Y-182757200D01*
X180291485Y-182685771D01*
X180077200Y-182685771D01*
X179934342Y-182757200D01*
X179862914Y-182828628D01*
X181791485Y-183614342D02*
X181648628Y-183685771D01*
X181362914Y-183685771D01*
X181220057Y-183614342D01*
X181148628Y-183471485D01*
X181148628Y-182900057D01*
X181220057Y-182757200D01*
X181362914Y-182685771D01*
X181648628Y-182685771D01*
X181791485Y-182757200D01*
X181862914Y-182900057D01*
X181862914Y-183042914D01*
X181148628Y-183185771D01*
X183077200Y-183614342D02*
X182934342Y-183685771D01*
X182648628Y-183685771D01*
X182505771Y-183614342D01*
X182434342Y-183471485D01*
X182434342Y-182900057D01*
X182505771Y-182757200D01*
X182648628Y-182685771D01*
X182934342Y-182685771D01*
X183077200Y-182757200D01*
X183148628Y-182900057D01*
X183148628Y-183042914D01*
X182434342Y-183185771D01*
X183577200Y-182685771D02*
X184148628Y-182685771D01*
X183791485Y-182185771D02*
X183791485Y-183471485D01*
X183862914Y-183614342D01*
X184005771Y-183685771D01*
X184148628Y-183685771D01*
X184648628Y-183542914D02*
X184720057Y-183614342D01*
X184648628Y-183685771D01*
X184577200Y-183614342D01*
X184648628Y-183542914D01*
X184648628Y-183685771D01*
X184648628Y-182757200D02*
X184720057Y-182828628D01*
X184648628Y-182900057D01*
X184577200Y-182828628D01*
X184648628Y-182757200D01*
X184648628Y-182900057D01*
D10*
D12*
D10*
D11*
D10*
D11*
D10*
D11*
D10*
D11*
D10*
D11*
X197002200Y-191507200D02*
X197002200Y-194507200D01*
D10*
D11*
X261002200Y-191507200D02*
X261002200Y-198007200D01*
D14*
X175071428Y-65794285D02*
X175214285Y-65651428D01*
X175357142Y-65222857D01*
X175357142Y-64937142D01*
X175214285Y-64508571D01*
X174928571Y-64222857D01*
X174642857Y-64080000D01*
X174071428Y-63937142D01*
X173642857Y-63937142D01*
X173071428Y-64080000D01*
X172785714Y-64222857D01*
X172500000Y-64508571D01*
X172357142Y-64937142D01*
X172357142Y-65222857D01*
X172500000Y-65651428D01*
X172642857Y-65794285D01*
X175357142Y-67080000D02*
X172357142Y-67080000D01*
X175357142Y-68365714D02*
X173785714Y-68365714D01*
X173500000Y-68222857D01*
X173357142Y-67937142D01*
X173357142Y-67508571D01*
X173500000Y-67222857D01*
X173642857Y-67080000D01*
X173357142Y-71080000D02*
X175357142Y-71080000D01*
X173357142Y-69794285D02*
X174928571Y-69794285D01*
X175214285Y-69937142D01*
X175357142Y-70222857D01*
X175357142Y-70651428D01*
X175214285Y-70937142D01*
X175071428Y-71080000D01*
X175357142Y-72508571D02*
X172357142Y-72508571D01*
X173500000Y-72508571D02*
X173357142Y-72794285D01*
X173357142Y-73365714D01*
X173500000Y-73651428D01*
X173642857Y-73794285D01*
X173928571Y-73937142D01*
X174785714Y-73937142D01*
X175071428Y-73794285D01*
X175214285Y-73651428D01*
X175357142Y-73365714D01*
X175357142Y-72794285D01*
X175214285Y-72508571D01*
X175357142Y-75222857D02*
X172357142Y-75222857D01*
X173500000Y-75222857D02*
X173357142Y-75508571D01*
X173357142Y-76080000D01*
X173500000Y-76365714D01*
X173642857Y-76508571D01*
X173928571Y-76651428D01*
X174785714Y-76651428D01*
X175071428Y-76508571D01*
X175214285Y-76365714D01*
X175357142Y-76080000D01*
X175357142Y-75508571D01*
X175214285Y-75222857D01*
X173357142Y-77651428D02*
X175357142Y-78365714D01*
X173357142Y-79080000D02*
X175357142Y-78365714D01*
X176071428Y-78080000D01*
X176214285Y-77937142D01*
X176357142Y-77651428D01*
X175357142Y-82508571D02*
X172357142Y-82508571D01*
X173785714Y-82508571D02*
X173785714Y-84222857D01*
X175357142Y-84222857D02*
X172357142Y-84222857D01*
X175357142Y-86937142D02*
X173785714Y-86937142D01*
X173500000Y-86794285D01*
X173357142Y-86508571D01*
X173357142Y-85937142D01*
X173500000Y-85651428D01*
X175214285Y-86937142D02*
X175357142Y-86651428D01*
X175357142Y-85937142D01*
X175214285Y-85651428D01*
X174928571Y-85508571D01*
X174642857Y-85508571D01*
X174357142Y-85651428D01*
X174214285Y-85937142D01*
X174214285Y-86651428D01*
X174071428Y-86937142D01*
X173357142Y-87937142D02*
X173357142Y-89080000D01*
X172357142Y-88365714D02*
X174928571Y-88365714D01*
X175214285Y-88508571D01*
X175357142Y-88794285D01*
X175357142Y-89080000D01*
X174085714Y-91994285D02*
X175685714Y-92565714D01*
X174085714Y-93137142D01*
X173285714Y-94508571D02*
X173285714Y-94737142D01*
X173400000Y-94965714D01*
X173514285Y-95080000D01*
X173742857Y-95194285D01*
X174200000Y-95308571D01*
X174771428Y-95308571D01*
X175228571Y-95194285D01*
X175457142Y-95080000D01*
X175571428Y-94965714D01*
X175685714Y-94737142D01*
X175685714Y-94508571D01*
X175571428Y-94280000D01*
X175457142Y-94165714D01*
X175228571Y-94051428D01*
X174771428Y-93937142D01*
X174200000Y-93937142D01*
X173742857Y-94051428D01*
X173514285Y-94165714D01*
X173400000Y-94280000D01*
X173285714Y-94508571D01*
X175457142Y-96337142D02*
X175571428Y-96451428D01*
X175685714Y-96337142D01*
X175571428Y-96222857D01*
X175457142Y-96337142D01*
X175685714Y-96337142D01*
X175685714Y-98737142D02*
X175685714Y-97365714D01*
X175685714Y-98051428D02*
X173285714Y-98051428D01*
X173628571Y-97822857D01*
X173857142Y-97594285D01*
X173971428Y-97365714D01*
D15*
%TO.C,C24*%
X163750001Y-59780000D02*
G75*
G03*
X163750001Y-59780000I-1J0D01*
G01*
D16*
X164260000Y-59617221D02*
X164260000Y-59942779D01*
X163240000Y-59617221D02*
X163240000Y-59942779D01*
%TO.C,R15*%
G36*
X158004000Y-88907000D02*
G01*
X157496000Y-88907000D01*
X157496000Y-88653000D01*
X158004000Y-88653000D01*
X158004000Y-88907000D01*
G37*
D17*
X158004000Y-88907000D02*
X157496000Y-88907000D01*
X157496000Y-88653000D01*
X158004000Y-88653000D01*
X158004000Y-88907000D01*
D16*
X157240000Y-88942779D02*
X157240000Y-88617221D01*
X158260000Y-88942779D02*
X158260000Y-88617221D01*
D15*
%TO.C,C23*%
X159750001Y-88780000D02*
G75*
G03*
X159750001Y-88780000I-1J0D01*
G01*
D16*
X160260000Y-88617221D02*
X160260000Y-88942779D01*
X159240000Y-88617221D02*
X159240000Y-88942779D01*
%TO.C,R20*%
G36*
X155004000Y-58907000D02*
G01*
X154496000Y-58907000D01*
X154496000Y-58653000D01*
X155004000Y-58653000D01*
X155004000Y-58907000D01*
G37*
D17*
X155004000Y-58907000D02*
X154496000Y-58907000D01*
X154496000Y-58653000D01*
X155004000Y-58653000D01*
X155004000Y-58907000D01*
D16*
X155260000Y-58617221D02*
X155260000Y-58942779D01*
X154240000Y-58617221D02*
X154240000Y-58942779D01*
%TO.C,R19*%
G36*
X155504000Y-73907000D02*
G01*
X154996000Y-73907000D01*
X154996000Y-73653000D01*
X155504000Y-73653000D01*
X155504000Y-73907000D01*
G37*
D17*
X155504000Y-73907000D02*
X154996000Y-73907000D01*
X154996000Y-73653000D01*
X155504000Y-73653000D01*
X155504000Y-73907000D01*
D16*
X154740000Y-73942779D02*
X154740000Y-73617221D01*
X155760000Y-73942779D02*
X155760000Y-73617221D01*
%TO.C,U4*%
X149410000Y-81380000D02*
X149410000Y-75370000D01*
X142590000Y-79130000D02*
X142590000Y-75370000D01*
X149410000Y-75370000D02*
X148150000Y-75370000D01*
X142590000Y-75370000D02*
X143850000Y-75370000D01*
%TO.C,U3*%
X153840000Y-99890000D02*
X153390000Y-99890000D01*
X153390000Y-99890000D02*
X153390000Y-99440000D01*
X160160000Y-99890000D02*
X160610000Y-99890000D01*
X160610000Y-99890000D02*
X160610000Y-99440000D01*
X153840000Y-92670000D02*
X153390000Y-92670000D01*
X153390000Y-92670000D02*
X153390000Y-93120000D01*
X160160000Y-92670000D02*
X160610000Y-92670000D01*
X160610000Y-92670000D02*
X160610000Y-93120000D01*
X160610000Y-93120000D02*
X161900000Y-93120000D01*
D15*
%TO.C,C20*%
X159750001Y-73780000D02*
G75*
G03*
X159750001Y-73780000I-1J0D01*
G01*
D16*
X159240000Y-73942779D02*
X159240000Y-73617221D01*
X160260000Y-73942779D02*
X160260000Y-73617221D01*
%TO.C,FB1*%
X138162779Y-103790000D02*
X137837221Y-103790000D01*
X138162779Y-102770000D02*
X137837221Y-102770000D01*
%TO.C,R18*%
G36*
X162004000Y-73907000D02*
G01*
X161496000Y-73907000D01*
X161496000Y-73653000D01*
X162004000Y-73653000D01*
X162004000Y-73907000D01*
G37*
D17*
X162004000Y-73907000D02*
X161496000Y-73907000D01*
X161496000Y-73653000D01*
X162004000Y-73653000D01*
X162004000Y-73907000D01*
D16*
X162260000Y-73617221D02*
X162260000Y-73942779D01*
X161240000Y-73617221D02*
X161240000Y-73942779D01*
%TO.C,R17*%
X164260000Y-88942779D02*
X164260000Y-88617221D01*
X163240000Y-88942779D02*
X163240000Y-88617221D01*
G36*
X164004000Y-88907000D02*
G01*
X163496000Y-88907000D01*
X163496000Y-88653000D01*
X164004000Y-88653000D01*
X164004000Y-88907000D01*
G37*
D17*
X164004000Y-88907000D02*
X163496000Y-88907000D01*
X163496000Y-88653000D01*
X164004000Y-88653000D01*
X164004000Y-88907000D01*
D15*
%TO.C,C19*%
X163750001Y-73780000D02*
G75*
G03*
X163750001Y-73780000I-1J0D01*
G01*
D16*
X163240000Y-73942779D02*
X163240000Y-73617221D01*
X164260000Y-73942779D02*
X164260000Y-73617221D01*
%TO.C,R13*%
G36*
X158504000Y-103907000D02*
G01*
X157996000Y-103907000D01*
X157996000Y-103653000D01*
X158504000Y-103653000D01*
X158504000Y-103907000D01*
G37*
D17*
X158504000Y-103907000D02*
X157996000Y-103907000D01*
X157996000Y-103653000D01*
X158504000Y-103653000D01*
X158504000Y-103907000D01*
D16*
X158760000Y-103617221D02*
X158760000Y-103942779D01*
X157740000Y-103617221D02*
X157740000Y-103942779D01*
%TO.C,Y2*%
X170550000Y-89080000D02*
X170550000Y-101680000D01*
X165450000Y-89080000D02*
X170550000Y-89080000D01*
X165450000Y-101680000D02*
X165450000Y-89080000D01*
%TO.C,Y1*%
X170550000Y-60080000D02*
X170550000Y-72680000D01*
X165450000Y-60080000D02*
X170550000Y-60080000D01*
X165450000Y-72680000D02*
X165450000Y-60080000D01*
D15*
%TO.C,C18*%
X163750001Y-70280000D02*
G75*
G03*
X163750001Y-70280000I-1J0D01*
G01*
D16*
X163240000Y-70442779D02*
X163240000Y-70117221D01*
X164260000Y-70442779D02*
X164260000Y-70117221D01*
D15*
%TO.C,C17*%
X163750001Y-63280000D02*
G75*
G03*
X163750001Y-63280000I-1J0D01*
G01*
D16*
X164260000Y-63117221D02*
X164260000Y-63442779D01*
X163240000Y-63117221D02*
X163240000Y-63442779D01*
D15*
%TO.C,C16*%
X163750001Y-99280000D02*
G75*
G03*
X163750001Y-99280000I-1J0D01*
G01*
D16*
X163240000Y-99442779D02*
X163240000Y-99117221D01*
X164260000Y-99442779D02*
X164260000Y-99117221D01*
D15*
%TO.C,C15*%
X163750001Y-92280000D02*
G75*
G03*
X163750001Y-92280000I-1J0D01*
G01*
D16*
X164260000Y-92117221D02*
X164260000Y-92442779D01*
X163240000Y-92117221D02*
X163240000Y-92442779D01*
%TO.C,R16*%
G36*
X158004000Y-73907000D02*
G01*
X157496000Y-73907000D01*
X157496000Y-73653000D01*
X158004000Y-73653000D01*
X158004000Y-73907000D01*
G37*
D17*
X158004000Y-73907000D02*
X157496000Y-73907000D01*
X157496000Y-73653000D01*
X158004000Y-73653000D01*
X158004000Y-73907000D01*
D16*
X158260000Y-73617221D02*
X158260000Y-73942779D01*
X157240000Y-73617221D02*
X157240000Y-73942779D01*
D15*
%TO.C,C14*%
X156250001Y-103780000D02*
G75*
G03*
X156250001Y-103780000I-1J0D01*
G01*
D16*
X155740000Y-103942779D02*
X155740000Y-103617221D01*
X156760000Y-103942779D02*
X156760000Y-103617221D01*
%TO.C,R12*%
G36*
X149627000Y-97284000D02*
G01*
X149373000Y-97284000D01*
X149373000Y-96776000D01*
X149627000Y-96776000D01*
X149627000Y-97284000D01*
G37*
D17*
X149627000Y-97284000D02*
X149373000Y-97284000D01*
X149373000Y-96776000D01*
X149627000Y-96776000D01*
X149627000Y-97284000D01*
D16*
X149337221Y-96520000D02*
X149662779Y-96520000D01*
X149337221Y-97540000D02*
X149662779Y-97540000D01*
%TO.C,Q1*%
X143580000Y-103040000D02*
X143580000Y-101580000D01*
X140420000Y-103040000D02*
X140420000Y-100880000D01*
X140420000Y-103040000D02*
X141350000Y-103040000D01*
X143580000Y-103040000D02*
X142650000Y-103040000D01*
D15*
%TO.C,C13*%
X160250001Y-103780000D02*
G75*
G03*
X160250001Y-103780000I-1J0D01*
G01*
D16*
X159740000Y-103942779D02*
X159740000Y-103617221D01*
X160760000Y-103942779D02*
X160760000Y-103617221D01*
D15*
%TO.C,C12*%
X161750001Y-88780000D02*
G75*
G03*
X161750001Y-88780000I-1J0D01*
G01*
D16*
X162260000Y-88617221D02*
X162260000Y-88942779D01*
X161240000Y-88617221D02*
X161240000Y-88942779D01*
D15*
%TO.C,C11*%
X149500001Y-93530000D02*
G75*
G03*
X149500001Y-93530000I-1J0D01*
G01*
D16*
X149337221Y-93020000D02*
X149662779Y-93020000D01*
X149337221Y-94040000D02*
X149662779Y-94040000D01*
D15*
%TO.C,C10*%
X154250001Y-103780000D02*
G75*
G03*
X154250001Y-103780000I-1J0D01*
G01*
D16*
X153740000Y-103942779D02*
X153740000Y-103617221D01*
X154760000Y-103942779D02*
X154760000Y-103617221D01*
D15*
%TO.C,C9*%
X145000001Y-71280000D02*
G75*
G03*
X145000001Y-71280000I-1J0D01*
G01*
D16*
X144837221Y-70770000D02*
X145162779Y-70770000D01*
X144837221Y-71790000D02*
X145162779Y-71790000D01*
D15*
%TO.C,C8*%
X145000001Y-69280000D02*
G75*
G03*
X145000001Y-69280000I-1J0D01*
G01*
D16*
X144837221Y-68770000D02*
X145162779Y-68770000D01*
X144837221Y-69790000D02*
X145162779Y-69790000D01*
D15*
%TO.C,C7*%
X145000001Y-85280000D02*
G75*
G03*
X145000001Y-85280000I-1J0D01*
G01*
D16*
X145162779Y-85790000D02*
X144837221Y-85790000D01*
X145162779Y-84770000D02*
X144837221Y-84770000D01*
D15*
%TO.C,C6*%
X145000001Y-83280000D02*
G75*
G03*
X145000001Y-83280000I-1J0D01*
G01*
D16*
X145162779Y-83790000D02*
X144837221Y-83790000D01*
X145162779Y-82770000D02*
X144837221Y-82770000D01*
D15*
%TO.C,C5*%
X138000001Y-101280000D02*
G75*
G03*
X138000001Y-101280000I-1J0D01*
G01*
D16*
X137837221Y-100770000D02*
X138162779Y-100770000D01*
X137837221Y-101790000D02*
X138162779Y-101790000D01*
%TO.C,R11*%
G36*
X138127000Y-106034000D02*
G01*
X137873000Y-106034000D01*
X137873000Y-105526000D01*
X138127000Y-105526000D01*
X138127000Y-106034000D01*
G37*
D17*
X138127000Y-106034000D02*
X137873000Y-106034000D01*
X137873000Y-105526000D01*
X138127000Y-105526000D01*
X138127000Y-106034000D01*
D16*
X138162779Y-106290000D02*
X137837221Y-106290000D01*
X138162779Y-105270000D02*
X137837221Y-105270000D01*
%TO.C,R10*%
G36*
X138127000Y-109034000D02*
G01*
X137873000Y-109034000D01*
X137873000Y-108526000D01*
X138127000Y-108526000D01*
X138127000Y-109034000D01*
G37*
D17*
X138127000Y-109034000D02*
X137873000Y-109034000D01*
X137873000Y-108526000D01*
X138127000Y-108526000D01*
X138127000Y-109034000D01*
D16*
X138162779Y-109290000D02*
X137837221Y-109290000D01*
X138162779Y-108270000D02*
X137837221Y-108270000D01*
%TO.C,R9*%
G36*
X131127000Y-113534000D02*
G01*
X130873000Y-113534000D01*
X130873000Y-113026000D01*
X131127000Y-113026000D01*
X131127000Y-113534000D01*
G37*
D17*
X131127000Y-113534000D02*
X130873000Y-113534000D01*
X130873000Y-113026000D01*
X131127000Y-113026000D01*
X131127000Y-113534000D01*
D16*
X131162779Y-113790000D02*
X130837221Y-113790000D01*
X131162779Y-112770000D02*
X130837221Y-112770000D01*
D15*
%TO.C,C4*%
X145000001Y-110280000D02*
G75*
G03*
X145000001Y-110280000I-1J0D01*
G01*
D16*
X145162779Y-110790000D02*
X144837221Y-110790000D01*
X145162779Y-109770000D02*
X144837221Y-109770000D01*
D15*
%TO.C,C3*%
X131000001Y-101280000D02*
G75*
G03*
X131000001Y-101280000I-1J0D01*
G01*
D16*
X130837221Y-100770000D02*
X131162779Y-100770000D01*
X130837221Y-101790000D02*
X131162779Y-101790000D01*
%TO.C,J8*%
X243665459Y-112319765D02*
X243103376Y-113525154D01*
X243103376Y-113525154D02*
X244308766Y-114087236D01*
X244202184Y-111168754D02*
X246558584Y-112267561D01*
X246558584Y-112267561D02*
X245459777Y-114623962D01*
X245459777Y-114623962D02*
X261628308Y-122163471D01*
X263825922Y-117450671D02*
X261628308Y-122163471D01*
X245300991Y-108812354D02*
X263825922Y-117450671D01*
X245300991Y-108812354D02*
X244202184Y-111168754D01*
%TO.C,U2*%
X143390000Y-108180000D02*
X143390000Y-105730000D01*
X146610000Y-106380000D02*
X146610000Y-108180000D01*
%TO.C,R8*%
G36*
X164004000Y-66907000D02*
G01*
X163496000Y-66907000D01*
X163496000Y-66653000D01*
X164004000Y-66653000D01*
X164004000Y-66907000D01*
G37*
D17*
X164004000Y-66907000D02*
X163496000Y-66907000D01*
X163496000Y-66653000D01*
X164004000Y-66653000D01*
X164004000Y-66907000D01*
D16*
X164260000Y-66617221D02*
X164260000Y-66942779D01*
X163240000Y-66617221D02*
X163240000Y-66942779D01*
%TO.C,R7*%
X145837221Y-95040000D02*
X146162779Y-95040000D01*
X145837221Y-94020000D02*
X146162779Y-94020000D01*
G36*
X146127000Y-94784000D02*
G01*
X145873000Y-94784000D01*
X145873000Y-94276000D01*
X146127000Y-94276000D01*
X146127000Y-94784000D01*
G37*
D17*
X146127000Y-94784000D02*
X145873000Y-94784000D01*
X145873000Y-94276000D01*
X146127000Y-94276000D01*
X146127000Y-94784000D01*
D16*
%TO.C,R6*%
X146162779Y-95520000D02*
X145837221Y-95520000D01*
X146162779Y-96540000D02*
X145837221Y-96540000D01*
G36*
X146127000Y-96284000D02*
G01*
X145873000Y-96284000D01*
X145873000Y-95776000D01*
X146127000Y-95776000D01*
X146127000Y-96284000D01*
G37*
D17*
X146127000Y-96284000D02*
X145873000Y-96284000D01*
X145873000Y-95776000D01*
X146127000Y-95776000D01*
X146127000Y-96284000D01*
%TO.C,R3*%
G36*
X164004000Y-95907000D02*
G01*
X163496000Y-95907000D01*
X163496000Y-95653000D01*
X164004000Y-95653000D01*
X164004000Y-95907000D01*
G37*
X164004000Y-95907000D02*
X163496000Y-95907000D01*
X163496000Y-95653000D01*
X164004000Y-95653000D01*
X164004000Y-95907000D01*
D16*
X164260000Y-95617221D02*
X164260000Y-95942779D01*
X163240000Y-95617221D02*
X163240000Y-95942779D01*
D15*
%TO.C,C2*%
X153250001Y-73780000D02*
G75*
G03*
X153250001Y-73780000I-1J0D01*
G01*
D16*
X153760000Y-73617221D02*
X153760000Y-73942779D01*
X152740000Y-73617221D02*
X152740000Y-73942779D01*
D15*
%TO.C,C1*%
X157250001Y-58780000D02*
G75*
G03*
X157250001Y-58780000I-1J0D01*
G01*
D16*
X156740000Y-58942779D02*
X156740000Y-58617221D01*
X157760000Y-58942779D02*
X157760000Y-58617221D01*
%TO.C,J1*%
X262190389Y-41601918D02*
X261628307Y-40396528D01*
X261628307Y-40396528D02*
X260422918Y-40958611D01*
X262727115Y-42752929D02*
X260370714Y-43851736D01*
X260370714Y-43851736D02*
X259271907Y-41495336D01*
X259271907Y-41495336D02*
X243103376Y-49034846D01*
X245300991Y-53747646D02*
X243103376Y-49034846D01*
X263825922Y-45109329D02*
X245300991Y-53747646D01*
X263825922Y-45109329D02*
X262727115Y-42752929D01*
%TO.C,R2*%
G36*
X147004000Y-92407000D02*
G01*
X146496000Y-92407000D01*
X146496000Y-92153000D01*
X147004000Y-92153000D01*
X147004000Y-92407000D01*
G37*
D17*
X147004000Y-92407000D02*
X146496000Y-92407000D01*
X146496000Y-92153000D01*
X147004000Y-92153000D01*
X147004000Y-92407000D01*
D16*
X146240000Y-92442779D02*
X146240000Y-92117221D01*
X147260000Y-92442779D02*
X147260000Y-92117221D01*
%TO.C,R1*%
G36*
X145504000Y-92407000D02*
G01*
X144996000Y-92407000D01*
X144996000Y-92153000D01*
X145504000Y-92153000D01*
X145504000Y-92407000D01*
G37*
D17*
X145504000Y-92407000D02*
X144996000Y-92407000D01*
X144996000Y-92153000D01*
X145504000Y-92153000D01*
X145504000Y-92407000D01*
D16*
X145760000Y-92117221D02*
X145760000Y-92442779D01*
X144740000Y-92117221D02*
X144740000Y-92442779D01*
%TO.C,J12*%
X126660000Y-102810000D02*
X126660000Y-111750000D01*
X132170000Y-102810000D02*
X130370000Y-102810000D01*
X126660000Y-102810000D02*
X128120000Y-102810000D01*
X126660000Y-111750000D02*
X128120000Y-111750000D01*
X132170000Y-111750000D02*
X130370000Y-111750000D01*
%TO.C,U1*%
X160160000Y-69890000D02*
X160160000Y-71180000D01*
X160610000Y-69890000D02*
X160160000Y-69890000D01*
X160610000Y-69440000D02*
X160610000Y-69890000D01*
X160610000Y-62670000D02*
X160160000Y-62670000D01*
X160610000Y-63120000D02*
X160610000Y-62670000D01*
X153390000Y-69890000D02*
X153840000Y-69890000D01*
X153390000Y-69440000D02*
X153390000Y-69890000D01*
X153390000Y-62670000D02*
X153840000Y-62670000D01*
X153390000Y-63120000D02*
X153390000Y-62670000D01*
%TO.C,J11*%
X190186000Y-86928000D02*
X191516000Y-86928000D01*
X190186000Y-85598000D02*
X190186000Y-86928000D01*
X190186000Y-84328000D02*
X192846000Y-84328000D01*
X192846000Y-84328000D02*
X192846000Y-76648000D01*
X190186000Y-84328000D02*
X190186000Y-76648000D01*
X190186000Y-76648000D02*
X192846000Y-76648000D01*
%TO.C,J10*%
X176470000Y-95825000D02*
X176470000Y-97155000D01*
X177800000Y-95825000D02*
X176470000Y-95825000D01*
X179070000Y-95825000D02*
X179070000Y-98485000D01*
X179070000Y-98485000D02*
X181670000Y-98485000D01*
X179070000Y-95825000D02*
X181670000Y-95825000D01*
X181670000Y-95825000D02*
X181670000Y-98485000D01*
%TO.C,J7*%
X216360459Y-112319765D02*
X215798376Y-113525154D01*
X215798376Y-113525154D02*
X217003766Y-114087236D01*
X216897184Y-111168754D02*
X219253584Y-112267561D01*
X219253584Y-112267561D02*
X218154777Y-114623962D01*
X218154777Y-114623962D02*
X234323308Y-122163471D01*
X236520922Y-117450671D02*
X234323308Y-122163471D01*
X217995991Y-108812354D02*
X236520922Y-117450671D01*
X217995991Y-108812354D02*
X216897184Y-111168754D01*
%TO.C,J6*%
X189055459Y-112319765D02*
X188493376Y-113525154D01*
X188493376Y-113525154D02*
X189698766Y-114087236D01*
X189592184Y-111168754D02*
X191948584Y-112267561D01*
X191948584Y-112267561D02*
X190849777Y-114623962D01*
X190849777Y-114623962D02*
X207018308Y-122163471D01*
X209215922Y-117450671D02*
X207018308Y-122163471D01*
X190690991Y-108812354D02*
X209215922Y-117450671D01*
X190690991Y-108812354D02*
X189592184Y-111168754D01*
%TO.C,J5*%
X161750459Y-112319765D02*
X161188376Y-113525154D01*
X161188376Y-113525154D02*
X162393766Y-114087236D01*
X162287184Y-111168754D02*
X164643584Y-112267561D01*
X164643584Y-112267561D02*
X163544777Y-114623962D01*
X163544777Y-114623962D02*
X179713308Y-122163471D01*
X181910922Y-117450671D02*
X179713308Y-122163471D01*
X163385991Y-108812354D02*
X181910922Y-117450671D01*
X163385991Y-108812354D02*
X162287184Y-111168754D01*
%TO.C,J4*%
X180275389Y-41601918D02*
X179713307Y-40396528D01*
X179713307Y-40396528D02*
X178507918Y-40958611D01*
X180812115Y-42752929D02*
X178455714Y-43851736D01*
X178455714Y-43851736D02*
X177356907Y-41495336D01*
X177356907Y-41495336D02*
X161188376Y-49034846D01*
X163385991Y-53747646D02*
X161188376Y-49034846D01*
X181910922Y-45109329D02*
X163385991Y-53747646D01*
X181910922Y-45109329D02*
X180812115Y-42752929D01*
%TO.C,J3*%
X207580389Y-41601918D02*
X207018307Y-40396528D01*
X207018307Y-40396528D02*
X205812918Y-40958611D01*
X208117115Y-42752929D02*
X205760714Y-43851736D01*
X205760714Y-43851736D02*
X204661907Y-41495336D01*
X204661907Y-41495336D02*
X188493376Y-49034846D01*
X190690991Y-53747646D02*
X188493376Y-49034846D01*
X209215922Y-45109329D02*
X190690991Y-53747646D01*
X209215922Y-45109329D02*
X208117115Y-42752929D01*
%TO.C,J2*%
X234885389Y-41601918D02*
X234323307Y-40396528D01*
X234323307Y-40396528D02*
X233117918Y-40958611D01*
X235422115Y-42752929D02*
X233065714Y-43851736D01*
X233065714Y-43851736D02*
X231966907Y-41495336D01*
X231966907Y-41495336D02*
X215798376Y-49034846D01*
X217995991Y-53747646D02*
X215798376Y-49034846D01*
X236520922Y-45109329D02*
X217995991Y-53747646D01*
X236520922Y-45109329D02*
X235422115Y-42752929D01*
%TD*%
M02*
