%TF.GenerationSoftware,KiCad,Pcbnew,(5.99.0-2360-g1790c536e)*%
%TF.CreationDate,2020-08-29T16:18:38+02:00*%
%TF.ProjectId,chubby hat,63687562-6279-4206-9861-742e6b696361,rev?*%
%TF.SameCoordinates,Original*%
%TF.FileFunction,AssemblyDrawing,Top*%
%FSLAX46Y46*%
G04 Gerber Fmt 4.6, Leading zero omitted, Abs format (unit mm)*
G04 Created by KiCad (PCBNEW (5.99.0-2360-g1790c536e)) date 2020-08-29 16:18:38*
%MOMM*%
%LPD*%
G01*
G04 APERTURE LIST*
%ADD10C,0.150000*%
%ADD11C,0.100000*%
G04 APERTURE END LIST*
D10*
X198917619Y-103116428D02*
X198917619Y-102545000D01*
X198917619Y-102830714D02*
X199917619Y-102830714D01*
X199774761Y-102735476D01*
X199679523Y-102640238D01*
X199631904Y-102545000D01*
X198965238Y-103592619D02*
X198917619Y-103592619D01*
X198822380Y-103545000D01*
X198774761Y-103497380D01*
X199917619Y-104449761D02*
X199917619Y-104259285D01*
X199870000Y-104164047D01*
X199822380Y-104116428D01*
X199679523Y-104021190D01*
X199489047Y-103973571D01*
X199108095Y-103973571D01*
X199012857Y-104021190D01*
X198965238Y-104068809D01*
X198917619Y-104164047D01*
X198917619Y-104354523D01*
X198965238Y-104449761D01*
X199012857Y-104497380D01*
X199108095Y-104545000D01*
X199346190Y-104545000D01*
X199441428Y-104497380D01*
X199489047Y-104449761D01*
X199536666Y-104354523D01*
X199536666Y-104164047D01*
X199489047Y-104068809D01*
X199441428Y-104021190D01*
X199346190Y-103973571D01*
X199917619Y-105449761D02*
X199917619Y-104973571D01*
X199441428Y-104925952D01*
X199489047Y-104973571D01*
X199536666Y-105068809D01*
X199536666Y-105306904D01*
X199489047Y-105402142D01*
X199441428Y-105449761D01*
X199346190Y-105497380D01*
X199108095Y-105497380D01*
X199012857Y-105449761D01*
X198965238Y-105402142D01*
X198917619Y-105306904D01*
X198917619Y-105068809D01*
X198965238Y-104973571D01*
X199012857Y-104925952D01*
X199917619Y-106116428D02*
X199917619Y-106211666D01*
X199870000Y-106306904D01*
X199822380Y-106354523D01*
X199727142Y-106402142D01*
X199536666Y-106449761D01*
X199298571Y-106449761D01*
X199108095Y-106402142D01*
X199012857Y-106354523D01*
X198965238Y-106306904D01*
X198917619Y-106211666D01*
X198917619Y-106116428D01*
X198965238Y-106021190D01*
X199012857Y-105973571D01*
X199108095Y-105925952D01*
X199298571Y-105878333D01*
X199536666Y-105878333D01*
X199727142Y-105925952D01*
X199822380Y-105973571D01*
X199870000Y-106021190D01*
X199917619Y-106116428D01*
X199917619Y-107068809D02*
X199917619Y-107164047D01*
X199870000Y-107259285D01*
X199822380Y-107306904D01*
X199727142Y-107354523D01*
X199536666Y-107402142D01*
X199298571Y-107402142D01*
X199108095Y-107354523D01*
X199012857Y-107306904D01*
X198965238Y-107259285D01*
X198917619Y-107164047D01*
X198917619Y-107068809D01*
X198965238Y-106973571D01*
X199012857Y-106925952D01*
X199108095Y-106878333D01*
X199298571Y-106830714D01*
X199536666Y-106830714D01*
X199727142Y-106878333D01*
X199822380Y-106925952D01*
X199870000Y-106973571D01*
X199917619Y-107068809D01*
X198917619Y-108592619D02*
X199584285Y-108592619D01*
X199917619Y-108592619D02*
X199870000Y-108545000D01*
X199822380Y-108592619D01*
X199870000Y-108640238D01*
X199917619Y-108592619D01*
X199822380Y-108592619D01*
X199584285Y-109068809D02*
X198917619Y-109068809D01*
X199489047Y-109068809D02*
X199536666Y-109116428D01*
X199584285Y-109211666D01*
X199584285Y-109354523D01*
X199536666Y-109449761D01*
X199441428Y-109497380D01*
X198917619Y-109497380D01*
D11*
X198120000Y-85090000D02*
X198120000Y-127000000D01*
X191770000Y-85090000D02*
X198706421Y-85090000D01*
X191770000Y-127000000D02*
X198706421Y-127000000D01*
X198120000Y-127000000D02*
X197533579Y-125873496D01*
X198120000Y-127000000D02*
X198706421Y-125873496D01*
X198120000Y-85090000D02*
X197533579Y-86216504D01*
X198120000Y-85090000D02*
X198706421Y-86216504D01*
D10*
X148900000Y-92277620D02*
X148947619Y-92230001D01*
X149042857Y-92182381D01*
X149280952Y-92182381D01*
X149376190Y-92230001D01*
X149423809Y-92277620D01*
X149471428Y-92372858D01*
X149471428Y-92468096D01*
X149423809Y-92610953D01*
X148852380Y-93182381D01*
X149471428Y-93182381D01*
X149947619Y-93134762D02*
X149947619Y-93182381D01*
X149900000Y-93277620D01*
X149852380Y-93325239D01*
X150566666Y-92182381D02*
X150661904Y-92182381D01*
X150757142Y-92230001D01*
X150804761Y-92277620D01*
X150852380Y-92372858D01*
X150900000Y-92563334D01*
X150900000Y-92801429D01*
X150852380Y-92991905D01*
X150804761Y-93087143D01*
X150757142Y-93134762D01*
X150661904Y-93182381D01*
X150566666Y-93182381D01*
X150471428Y-93134762D01*
X150423809Y-93087143D01*
X150376190Y-92991905D01*
X150328571Y-92801429D01*
X150328571Y-92563334D01*
X150376190Y-92372858D01*
X150423809Y-92277620D01*
X150471428Y-92230001D01*
X150566666Y-92182381D01*
X151519047Y-92182381D02*
X151614285Y-92182381D01*
X151709523Y-92230001D01*
X151757142Y-92277620D01*
X151804761Y-92372858D01*
X151852380Y-92563334D01*
X151852380Y-92801429D01*
X151804761Y-92991905D01*
X151757142Y-93087143D01*
X151709523Y-93134762D01*
X151614285Y-93182381D01*
X151519047Y-93182381D01*
X151423809Y-93134762D01*
X151376190Y-93087143D01*
X151328571Y-92991905D01*
X151280952Y-92801429D01*
X151280952Y-92563334D01*
X151328571Y-92372858D01*
X151376190Y-92277620D01*
X151423809Y-92230001D01*
X151519047Y-92182381D01*
X152471428Y-92182381D02*
X152566666Y-92182381D01*
X152661904Y-92230001D01*
X152709523Y-92277620D01*
X152757142Y-92372858D01*
X152804761Y-92563334D01*
X152804761Y-92801429D01*
X152757142Y-92991905D01*
X152709523Y-93087143D01*
X152661904Y-93134762D01*
X152566666Y-93182381D01*
X152471428Y-93182381D01*
X152376190Y-93134762D01*
X152328571Y-93087143D01*
X152280952Y-92991905D01*
X152233333Y-92801429D01*
X152233333Y-92563334D01*
X152280952Y-92372858D01*
X152328571Y-92277620D01*
X152376190Y-92230001D01*
X152471428Y-92182381D01*
X153423809Y-92182381D02*
X153519047Y-92182381D01*
X153614285Y-92230001D01*
X153661904Y-92277620D01*
X153709523Y-92372858D01*
X153757142Y-92563334D01*
X153757142Y-92801429D01*
X153709523Y-92991905D01*
X153661904Y-93087143D01*
X153614285Y-93134762D01*
X153519047Y-93182381D01*
X153423809Y-93182381D01*
X153328571Y-93134762D01*
X153280952Y-93087143D01*
X153233333Y-92991905D01*
X153185714Y-92801429D01*
X153185714Y-92563334D01*
X153233333Y-92372858D01*
X153280952Y-92277620D01*
X153328571Y-92230001D01*
X153423809Y-92182381D01*
X154947619Y-93182381D02*
X154947619Y-92515715D01*
X154947619Y-92182381D02*
X154900000Y-92230001D01*
X154947619Y-92277620D01*
X154995238Y-92230001D01*
X154947619Y-92182381D01*
X154947619Y-92277620D01*
X155423809Y-92515715D02*
X155423809Y-93182381D01*
X155423809Y-92610953D02*
X155471428Y-92563334D01*
X155566666Y-92515715D01*
X155709523Y-92515715D01*
X155804761Y-92563334D01*
X155852380Y-92658572D01*
X155852380Y-93182381D01*
D11*
X177800000Y-93980001D02*
X127000000Y-93980001D01*
X177800000Y-97155000D02*
X177800000Y-93393580D01*
X127000000Y-97155000D02*
X127000000Y-93393580D01*
X127000000Y-93980001D02*
X128126504Y-93393580D01*
X127000000Y-93980001D02*
X128126504Y-94566422D01*
X177800000Y-93980001D02*
X176673496Y-93393580D01*
X177800000Y-93980001D02*
X176673496Y-94566422D01*
D10*
X186217619Y-109148928D02*
X186217619Y-108577500D01*
X186217619Y-108863214D02*
X187217619Y-108863214D01*
X187074761Y-108767976D01*
X186979523Y-108672738D01*
X186931904Y-108577500D01*
X186265238Y-109625119D02*
X186217619Y-109625119D01*
X186122380Y-109577500D01*
X186074761Y-109529880D01*
X186217619Y-110577500D02*
X186217619Y-110006071D01*
X186217619Y-110291785D02*
X187217619Y-110291785D01*
X187074761Y-110196547D01*
X186979523Y-110101309D01*
X186931904Y-110006071D01*
X187217619Y-110910833D02*
X187217619Y-111577500D01*
X186217619Y-111148928D01*
X187217619Y-112434642D02*
X187217619Y-111958452D01*
X186741428Y-111910833D01*
X186789047Y-111958452D01*
X186836666Y-112053690D01*
X186836666Y-112291785D01*
X186789047Y-112387023D01*
X186741428Y-112434642D01*
X186646190Y-112482261D01*
X186408095Y-112482261D01*
X186312857Y-112434642D01*
X186265238Y-112387023D01*
X186217619Y-112291785D01*
X186217619Y-112053690D01*
X186265238Y-111958452D01*
X186312857Y-111910833D01*
X187217619Y-113101309D02*
X187217619Y-113196547D01*
X187170000Y-113291785D01*
X187122380Y-113339404D01*
X187027142Y-113387023D01*
X186836666Y-113434642D01*
X186598571Y-113434642D01*
X186408095Y-113387023D01*
X186312857Y-113339404D01*
X186265238Y-113291785D01*
X186217619Y-113196547D01*
X186217619Y-113101309D01*
X186265238Y-113006071D01*
X186312857Y-112958452D01*
X186408095Y-112910833D01*
X186598571Y-112863214D01*
X186836666Y-112863214D01*
X187027142Y-112910833D01*
X187122380Y-112958452D01*
X187170000Y-113006071D01*
X187217619Y-113101309D01*
X186217619Y-114625119D02*
X186884285Y-114625119D01*
X187217619Y-114625119D02*
X187170000Y-114577500D01*
X187122380Y-114625119D01*
X187170000Y-114672738D01*
X187217619Y-114625119D01*
X187122380Y-114625119D01*
X186884285Y-115101309D02*
X186217619Y-115101309D01*
X186789047Y-115101309D02*
X186836666Y-115148928D01*
X186884285Y-115244166D01*
X186884285Y-115387023D01*
X186836666Y-115482261D01*
X186741428Y-115529880D01*
X186217619Y-115529880D01*
D11*
X185420000Y-97155000D02*
X185420000Y-127000000D01*
X177800000Y-97155000D02*
X186006421Y-97155000D01*
X177800000Y-127000000D02*
X186006421Y-127000000D01*
X185420000Y-127000000D02*
X184833579Y-125873496D01*
X185420000Y-127000000D02*
X186006421Y-125873496D01*
X185420000Y-97155000D02*
X184833579Y-98281504D01*
X185420000Y-97155000D02*
X186006421Y-98281504D01*
D10*
X273847619Y-84780000D02*
X273800000Y-84732380D01*
X273752380Y-84637142D01*
X273752380Y-84399047D01*
X273800000Y-84303809D01*
X273847619Y-84256190D01*
X273942857Y-84208571D01*
X274038095Y-84208571D01*
X274180952Y-84256190D01*
X274752380Y-84827619D01*
X274752380Y-84208571D01*
X274704761Y-83732380D02*
X274752380Y-83732380D01*
X274847619Y-83780000D01*
X274895238Y-83827619D01*
X273752380Y-83399047D02*
X273752380Y-82780000D01*
X274133333Y-83113333D01*
X274133333Y-82970476D01*
X274180952Y-82875238D01*
X274228571Y-82827619D01*
X274323809Y-82780000D01*
X274561904Y-82780000D01*
X274657142Y-82827619D01*
X274704761Y-82875238D01*
X274752380Y-82970476D01*
X274752380Y-83256190D01*
X274704761Y-83351428D01*
X274657142Y-83399047D01*
X273752380Y-82446666D02*
X273752380Y-81780000D01*
X274752380Y-82208571D01*
X273752380Y-80922857D02*
X273752380Y-81399047D01*
X274228571Y-81446666D01*
X274180952Y-81399047D01*
X274133333Y-81303809D01*
X274133333Y-81065714D01*
X274180952Y-80970476D01*
X274228571Y-80922857D01*
X274323809Y-80875238D01*
X274561904Y-80875238D01*
X274657142Y-80922857D01*
X274704761Y-80970476D01*
X274752380Y-81065714D01*
X274752380Y-81303809D01*
X274704761Y-81399047D01*
X274657142Y-81446666D01*
X273752380Y-80256190D02*
X273752380Y-80160952D01*
X273800000Y-80065714D01*
X273847619Y-80018095D01*
X273942857Y-79970476D01*
X274133333Y-79922857D01*
X274371428Y-79922857D01*
X274561904Y-79970476D01*
X274657142Y-80018095D01*
X274704761Y-80065714D01*
X274752380Y-80160952D01*
X274752380Y-80256190D01*
X274704761Y-80351428D01*
X274657142Y-80399047D01*
X274561904Y-80446666D01*
X274371428Y-80494285D01*
X274133333Y-80494285D01*
X273942857Y-80446666D01*
X273847619Y-80399047D01*
X273800000Y-80351428D01*
X273752380Y-80256190D01*
X274752380Y-78732380D02*
X274085714Y-78732380D01*
X273752380Y-78732380D02*
X273800000Y-78780000D01*
X273847619Y-78732380D01*
X273800000Y-78684761D01*
X273752380Y-78732380D01*
X273847619Y-78732380D01*
X274085714Y-78256190D02*
X274752380Y-78256190D01*
X274180952Y-78256190D02*
X274133333Y-78208571D01*
X274085714Y-78113333D01*
X274085714Y-77970476D01*
X274133333Y-77875238D01*
X274228571Y-77827619D01*
X274752380Y-77827619D01*
D11*
X273050000Y-111442500D02*
X273050000Y-51117500D01*
X266700000Y-111442500D02*
X273636421Y-111442500D01*
X266700000Y-51117500D02*
X273636421Y-51117500D01*
X273050000Y-51117500D02*
X273636421Y-52244004D01*
X273050000Y-51117500D02*
X272463579Y-52244004D01*
X273050000Y-111442500D02*
X273636421Y-110315996D01*
X273050000Y-111442500D02*
X272463579Y-110315996D01*
D10*
X131358095Y-94722380D02*
X131453333Y-94722380D01*
X131548571Y-94770000D01*
X131596190Y-94817619D01*
X131643809Y-94912857D01*
X131691428Y-95103333D01*
X131691428Y-95341428D01*
X131643809Y-95531904D01*
X131596190Y-95627142D01*
X131548571Y-95674761D01*
X131453333Y-95722380D01*
X131358095Y-95722380D01*
X131262857Y-95674761D01*
X131215238Y-95627142D01*
X131167619Y-95531904D01*
X131120000Y-95341428D01*
X131120000Y-95103333D01*
X131167619Y-94912857D01*
X131215238Y-94817619D01*
X131262857Y-94770000D01*
X131358095Y-94722380D01*
X132167619Y-95674761D02*
X132167619Y-95722380D01*
X132120000Y-95817619D01*
X132072380Y-95865238D01*
X133024761Y-94722380D02*
X132834285Y-94722380D01*
X132739047Y-94770000D01*
X132691428Y-94817619D01*
X132596190Y-94960476D01*
X132548571Y-95150952D01*
X132548571Y-95531904D01*
X132596190Y-95627142D01*
X132643809Y-95674761D01*
X132739047Y-95722380D01*
X132929523Y-95722380D01*
X133024761Y-95674761D01*
X133072380Y-95627142D01*
X133120000Y-95531904D01*
X133120000Y-95293809D01*
X133072380Y-95198571D01*
X133024761Y-95150952D01*
X132929523Y-95103333D01*
X132739047Y-95103333D01*
X132643809Y-95150952D01*
X132596190Y-95198571D01*
X132548571Y-95293809D01*
X133739047Y-94722380D02*
X133834285Y-94722380D01*
X133929523Y-94770000D01*
X133977142Y-94817619D01*
X134024761Y-94912857D01*
X134072380Y-95103333D01*
X134072380Y-95341428D01*
X134024761Y-95531904D01*
X133977142Y-95627142D01*
X133929523Y-95674761D01*
X133834285Y-95722380D01*
X133739047Y-95722380D01*
X133643809Y-95674761D01*
X133596190Y-95627142D01*
X133548571Y-95531904D01*
X133500952Y-95341428D01*
X133500952Y-95103333D01*
X133548571Y-94912857D01*
X133596190Y-94817619D01*
X133643809Y-94770000D01*
X133739047Y-94722380D01*
X134691428Y-94722380D02*
X134786666Y-94722380D01*
X134881904Y-94770000D01*
X134929523Y-94817619D01*
X134977142Y-94912857D01*
X135024761Y-95103333D01*
X135024761Y-95341428D01*
X134977142Y-95531904D01*
X134929523Y-95627142D01*
X134881904Y-95674761D01*
X134786666Y-95722380D01*
X134691428Y-95722380D01*
X134596190Y-95674761D01*
X134548571Y-95627142D01*
X134500952Y-95531904D01*
X134453333Y-95341428D01*
X134453333Y-95103333D01*
X134500952Y-94912857D01*
X134548571Y-94817619D01*
X134596190Y-94770000D01*
X134691428Y-94722380D01*
X135643809Y-94722380D02*
X135739047Y-94722380D01*
X135834285Y-94770000D01*
X135881904Y-94817619D01*
X135929523Y-94912857D01*
X135977142Y-95103333D01*
X135977142Y-95341428D01*
X135929523Y-95531904D01*
X135881904Y-95627142D01*
X135834285Y-95674761D01*
X135739047Y-95722380D01*
X135643809Y-95722380D01*
X135548571Y-95674761D01*
X135500952Y-95627142D01*
X135453333Y-95531904D01*
X135405714Y-95341428D01*
X135405714Y-95103333D01*
X135453333Y-94912857D01*
X135500952Y-94817619D01*
X135548571Y-94770000D01*
X135643809Y-94722380D01*
X137167619Y-95722380D02*
X137167619Y-95055714D01*
X137167619Y-94722380D02*
X137120000Y-94770000D01*
X137167619Y-94817619D01*
X137215238Y-94770000D01*
X137167619Y-94722380D01*
X137167619Y-94817619D01*
X137643809Y-95055714D02*
X137643809Y-95722380D01*
X137643809Y-95150952D02*
X137691428Y-95103333D01*
X137786666Y-95055714D01*
X137929523Y-95055714D01*
X138024761Y-95103333D01*
X138072380Y-95198571D01*
X138072380Y-95722380D01*
D11*
X127000000Y-96520000D02*
X142240000Y-96520000D01*
X127000000Y-103505000D02*
X127000000Y-95933579D01*
X142240000Y-103505000D02*
X142240000Y-95933579D01*
X142240000Y-96520000D02*
X141113496Y-97106421D01*
X142240000Y-96520000D02*
X141113496Y-95933579D01*
X127000000Y-96520000D02*
X128126504Y-97106421D01*
X127000000Y-96520000D02*
X128126504Y-95933579D01*
D10*
X123662380Y-115958571D02*
X123662380Y-116530000D01*
X123662380Y-116244285D02*
X122662380Y-116244285D01*
X122805238Y-116339523D01*
X122900476Y-116434761D01*
X122948095Y-116530000D01*
X123614761Y-115482380D02*
X123662380Y-115482380D01*
X123757619Y-115530000D01*
X123805238Y-115577619D01*
X123662380Y-114530000D02*
X123662380Y-115101428D01*
X123662380Y-114815714D02*
X122662380Y-114815714D01*
X122805238Y-114910952D01*
X122900476Y-115006190D01*
X122948095Y-115101428D01*
X122662380Y-113910952D02*
X122662380Y-113815714D01*
X122710000Y-113720476D01*
X122757619Y-113672857D01*
X122852857Y-113625238D01*
X123043333Y-113577619D01*
X123281428Y-113577619D01*
X123471904Y-113625238D01*
X123567142Y-113672857D01*
X123614761Y-113720476D01*
X123662380Y-113815714D01*
X123662380Y-113910952D01*
X123614761Y-114006190D01*
X123567142Y-114053809D01*
X123471904Y-114101428D01*
X123281428Y-114149047D01*
X123043333Y-114149047D01*
X122852857Y-114101428D01*
X122757619Y-114053809D01*
X122710000Y-114006190D01*
X122662380Y-113910952D01*
X122662380Y-112958571D02*
X122662380Y-112863333D01*
X122710000Y-112768095D01*
X122757619Y-112720476D01*
X122852857Y-112672857D01*
X123043333Y-112625238D01*
X123281428Y-112625238D01*
X123471904Y-112672857D01*
X123567142Y-112720476D01*
X123614761Y-112768095D01*
X123662380Y-112863333D01*
X123662380Y-112958571D01*
X123614761Y-113053809D01*
X123567142Y-113101428D01*
X123471904Y-113149047D01*
X123281428Y-113196666D01*
X123043333Y-113196666D01*
X122852857Y-113149047D01*
X122757619Y-113101428D01*
X122710000Y-113053809D01*
X122662380Y-112958571D01*
X122662380Y-112006190D02*
X122662380Y-111910952D01*
X122710000Y-111815714D01*
X122757619Y-111768095D01*
X122852857Y-111720476D01*
X123043333Y-111672857D01*
X123281428Y-111672857D01*
X123471904Y-111720476D01*
X123567142Y-111768095D01*
X123614761Y-111815714D01*
X123662380Y-111910952D01*
X123662380Y-112006190D01*
X123614761Y-112101428D01*
X123567142Y-112149047D01*
X123471904Y-112196666D01*
X123281428Y-112244285D01*
X123043333Y-112244285D01*
X122852857Y-112196666D01*
X122757619Y-112149047D01*
X122710000Y-112101428D01*
X122662380Y-112006190D01*
X123662380Y-110482380D02*
X122995714Y-110482380D01*
X122662380Y-110482380D02*
X122710000Y-110530000D01*
X122757619Y-110482380D01*
X122710000Y-110434761D01*
X122662380Y-110482380D01*
X122757619Y-110482380D01*
X122995714Y-110006190D02*
X123662380Y-110006190D01*
X123090952Y-110006190D02*
X123043333Y-109958571D01*
X122995714Y-109863333D01*
X122995714Y-109720476D01*
X123043333Y-109625238D01*
X123138571Y-109577619D01*
X123662380Y-109577619D01*
D11*
X124460000Y-127000000D02*
X124460000Y-99060000D01*
X131445000Y-127000000D02*
X123873579Y-127000000D01*
X131445000Y-99060000D02*
X123873579Y-99060000D01*
X124460000Y-99060000D02*
X125046421Y-100186504D01*
X124460000Y-99060000D02*
X123873579Y-100186504D01*
X124460000Y-127000000D02*
X125046421Y-125873496D01*
X124460000Y-127000000D02*
X123873579Y-125873496D01*
D10*
X217098928Y-131242380D02*
X216527500Y-131242380D01*
X216813214Y-131242380D02*
X216813214Y-130242380D01*
X216717976Y-130385238D01*
X216622738Y-130480476D01*
X216527500Y-130528095D01*
X217575119Y-131194761D02*
X217575119Y-131242380D01*
X217527500Y-131337619D01*
X217479880Y-131385238D01*
X218194166Y-130242380D02*
X218289404Y-130242380D01*
X218384642Y-130290000D01*
X218432261Y-130337619D01*
X218479880Y-130432857D01*
X218527500Y-130623333D01*
X218527500Y-130861428D01*
X218479880Y-131051904D01*
X218432261Y-131147142D01*
X218384642Y-131194761D01*
X218289404Y-131242380D01*
X218194166Y-131242380D01*
X218098928Y-131194761D01*
X218051309Y-131147142D01*
X218003690Y-131051904D01*
X217956071Y-130861428D01*
X217956071Y-130623333D01*
X218003690Y-130432857D01*
X218051309Y-130337619D01*
X218098928Y-130290000D01*
X218194166Y-130242380D01*
X218860833Y-130242380D02*
X219527500Y-130242380D01*
X219098928Y-131242380D01*
X220384642Y-130242380D02*
X219908452Y-130242380D01*
X219860833Y-130718571D01*
X219908452Y-130670952D01*
X220003690Y-130623333D01*
X220241785Y-130623333D01*
X220337023Y-130670952D01*
X220384642Y-130718571D01*
X220432261Y-130813809D01*
X220432261Y-131051904D01*
X220384642Y-131147142D01*
X220337023Y-131194761D01*
X220241785Y-131242380D01*
X220003690Y-131242380D01*
X219908452Y-131194761D01*
X219860833Y-131147142D01*
X221051309Y-130242380D02*
X221146547Y-130242380D01*
X221241785Y-130290000D01*
X221289404Y-130337619D01*
X221337023Y-130432857D01*
X221384642Y-130623333D01*
X221384642Y-130861428D01*
X221337023Y-131051904D01*
X221289404Y-131147142D01*
X221241785Y-131194761D01*
X221146547Y-131242380D01*
X221051309Y-131242380D01*
X220956071Y-131194761D01*
X220908452Y-131147142D01*
X220860833Y-131051904D01*
X220813214Y-130861428D01*
X220813214Y-130623333D01*
X220860833Y-130432857D01*
X220908452Y-130337619D01*
X220956071Y-130290000D01*
X221051309Y-130242380D01*
X222575119Y-131242380D02*
X222575119Y-130575714D01*
X222575119Y-130242380D02*
X222527500Y-130290000D01*
X222575119Y-130337619D01*
X222622738Y-130290000D01*
X222575119Y-130242380D01*
X222575119Y-130337619D01*
X223051309Y-130575714D02*
X223051309Y-131242380D01*
X223051309Y-130670952D02*
X223098928Y-130623333D01*
X223194166Y-130575714D01*
X223337023Y-130575714D01*
X223432261Y-130623333D01*
X223479880Y-130718571D01*
X223479880Y-131242380D01*
D11*
X206375000Y-129540000D02*
X233680000Y-129540000D01*
X206375000Y-120396000D02*
X206375000Y-130126421D01*
X233680000Y-120396000D02*
X233680000Y-130126421D01*
X233680000Y-129540000D02*
X232553496Y-130126421D01*
X233680000Y-129540000D02*
X232553496Y-128953579D01*
X206375000Y-129540000D02*
X207501504Y-130126421D01*
X206375000Y-129540000D02*
X207501504Y-128953579D01*
D10*
X244403928Y-131242380D02*
X243832500Y-131242380D01*
X244118214Y-131242380D02*
X244118214Y-130242380D01*
X244022976Y-130385238D01*
X243927738Y-130480476D01*
X243832500Y-130528095D01*
X244880119Y-131194761D02*
X244880119Y-131242380D01*
X244832500Y-131337619D01*
X244784880Y-131385238D01*
X245499166Y-130242380D02*
X245594404Y-130242380D01*
X245689642Y-130290000D01*
X245737261Y-130337619D01*
X245784880Y-130432857D01*
X245832500Y-130623333D01*
X245832500Y-130861428D01*
X245784880Y-131051904D01*
X245737261Y-131147142D01*
X245689642Y-131194761D01*
X245594404Y-131242380D01*
X245499166Y-131242380D01*
X245403928Y-131194761D01*
X245356309Y-131147142D01*
X245308690Y-131051904D01*
X245261071Y-130861428D01*
X245261071Y-130623333D01*
X245308690Y-130432857D01*
X245356309Y-130337619D01*
X245403928Y-130290000D01*
X245499166Y-130242380D01*
X246165833Y-130242380D02*
X246832500Y-130242380D01*
X246403928Y-131242380D01*
X247689642Y-130242380D02*
X247213452Y-130242380D01*
X247165833Y-130718571D01*
X247213452Y-130670952D01*
X247308690Y-130623333D01*
X247546785Y-130623333D01*
X247642023Y-130670952D01*
X247689642Y-130718571D01*
X247737261Y-130813809D01*
X247737261Y-131051904D01*
X247689642Y-131147142D01*
X247642023Y-131194761D01*
X247546785Y-131242380D01*
X247308690Y-131242380D01*
X247213452Y-131194761D01*
X247165833Y-131147142D01*
X248356309Y-130242380D02*
X248451547Y-130242380D01*
X248546785Y-130290000D01*
X248594404Y-130337619D01*
X248642023Y-130432857D01*
X248689642Y-130623333D01*
X248689642Y-130861428D01*
X248642023Y-131051904D01*
X248594404Y-131147142D01*
X248546785Y-131194761D01*
X248451547Y-131242380D01*
X248356309Y-131242380D01*
X248261071Y-131194761D01*
X248213452Y-131147142D01*
X248165833Y-131051904D01*
X248118214Y-130861428D01*
X248118214Y-130623333D01*
X248165833Y-130432857D01*
X248213452Y-130337619D01*
X248261071Y-130290000D01*
X248356309Y-130242380D01*
X249880119Y-131242380D02*
X249880119Y-130575714D01*
X249880119Y-130242380D02*
X249832500Y-130290000D01*
X249880119Y-130337619D01*
X249927738Y-130290000D01*
X249880119Y-130242380D01*
X249880119Y-130337619D01*
X250356309Y-130575714D02*
X250356309Y-131242380D01*
X250356309Y-130670952D02*
X250403928Y-130623333D01*
X250499166Y-130575714D01*
X250642023Y-130575714D01*
X250737261Y-130623333D01*
X250784880Y-130718571D01*
X250784880Y-131242380D01*
D11*
X233680000Y-129540000D02*
X260985000Y-129540000D01*
X233680000Y-120396000D02*
X233680000Y-130126421D01*
X260985000Y-120396000D02*
X260985000Y-130126421D01*
X260985000Y-129540000D02*
X259858496Y-130126421D01*
X260985000Y-129540000D02*
X259858496Y-128953579D01*
X233680000Y-129540000D02*
X234806504Y-130126421D01*
X233680000Y-129540000D02*
X234806504Y-128953579D01*
D10*
X189793928Y-131242380D02*
X189222500Y-131242380D01*
X189508214Y-131242380D02*
X189508214Y-130242380D01*
X189412976Y-130385238D01*
X189317738Y-130480476D01*
X189222500Y-130528095D01*
X190270119Y-131194761D02*
X190270119Y-131242380D01*
X190222500Y-131337619D01*
X190174880Y-131385238D01*
X190889166Y-130242380D02*
X190984404Y-130242380D01*
X191079642Y-130290000D01*
X191127261Y-130337619D01*
X191174880Y-130432857D01*
X191222500Y-130623333D01*
X191222500Y-130861428D01*
X191174880Y-131051904D01*
X191127261Y-131147142D01*
X191079642Y-131194761D01*
X190984404Y-131242380D01*
X190889166Y-131242380D01*
X190793928Y-131194761D01*
X190746309Y-131147142D01*
X190698690Y-131051904D01*
X190651071Y-130861428D01*
X190651071Y-130623333D01*
X190698690Y-130432857D01*
X190746309Y-130337619D01*
X190793928Y-130290000D01*
X190889166Y-130242380D01*
X191555833Y-130242380D02*
X192222500Y-130242380D01*
X191793928Y-131242380D01*
X193079642Y-130242380D02*
X192603452Y-130242380D01*
X192555833Y-130718571D01*
X192603452Y-130670952D01*
X192698690Y-130623333D01*
X192936785Y-130623333D01*
X193032023Y-130670952D01*
X193079642Y-130718571D01*
X193127261Y-130813809D01*
X193127261Y-131051904D01*
X193079642Y-131147142D01*
X193032023Y-131194761D01*
X192936785Y-131242380D01*
X192698690Y-131242380D01*
X192603452Y-131194761D01*
X192555833Y-131147142D01*
X193746309Y-130242380D02*
X193841547Y-130242380D01*
X193936785Y-130290000D01*
X193984404Y-130337619D01*
X194032023Y-130432857D01*
X194079642Y-130623333D01*
X194079642Y-130861428D01*
X194032023Y-131051904D01*
X193984404Y-131147142D01*
X193936785Y-131194761D01*
X193841547Y-131242380D01*
X193746309Y-131242380D01*
X193651071Y-131194761D01*
X193603452Y-131147142D01*
X193555833Y-131051904D01*
X193508214Y-130861428D01*
X193508214Y-130623333D01*
X193555833Y-130432857D01*
X193603452Y-130337619D01*
X193651071Y-130290000D01*
X193746309Y-130242380D01*
X195270119Y-131242380D02*
X195270119Y-130575714D01*
X195270119Y-130242380D02*
X195222500Y-130290000D01*
X195270119Y-130337619D01*
X195317738Y-130290000D01*
X195270119Y-130242380D01*
X195270119Y-130337619D01*
X195746309Y-130575714D02*
X195746309Y-131242380D01*
X195746309Y-130670952D02*
X195793928Y-130623333D01*
X195889166Y-130575714D01*
X196032023Y-130575714D01*
X196127261Y-130623333D01*
X196174880Y-130718571D01*
X196174880Y-131242380D01*
D11*
X179070000Y-129540000D02*
X206375000Y-129540000D01*
X179070000Y-120396000D02*
X179070000Y-130126421D01*
X206375000Y-120396000D02*
X206375000Y-130126421D01*
X206375000Y-129540000D02*
X205248496Y-130126421D01*
X206375000Y-129540000D02*
X205248496Y-128953579D01*
X179070000Y-129540000D02*
X180196504Y-130126421D01*
X179070000Y-129540000D02*
X180196504Y-128953579D01*
D10*
X262485595Y-130242380D02*
X262580833Y-130242380D01*
X262676071Y-130290000D01*
X262723690Y-130337619D01*
X262771309Y-130432857D01*
X262818928Y-130623333D01*
X262818928Y-130861428D01*
X262771309Y-131051904D01*
X262723690Y-131147142D01*
X262676071Y-131194761D01*
X262580833Y-131242380D01*
X262485595Y-131242380D01*
X262390357Y-131194761D01*
X262342738Y-131147142D01*
X262295119Y-131051904D01*
X262247500Y-130861428D01*
X262247500Y-130623333D01*
X262295119Y-130432857D01*
X262342738Y-130337619D01*
X262390357Y-130290000D01*
X262485595Y-130242380D01*
X263295119Y-131194761D02*
X263295119Y-131242380D01*
X263247500Y-131337619D01*
X263199880Y-131385238D01*
X263628452Y-130242380D02*
X264247500Y-130242380D01*
X263914166Y-130623333D01*
X264057023Y-130623333D01*
X264152261Y-130670952D01*
X264199880Y-130718571D01*
X264247500Y-130813809D01*
X264247500Y-131051904D01*
X264199880Y-131147142D01*
X264152261Y-131194761D01*
X264057023Y-131242380D01*
X263771309Y-131242380D01*
X263676071Y-131194761D01*
X263628452Y-131147142D01*
X264580833Y-130242380D02*
X265247500Y-130242380D01*
X264818928Y-131242380D01*
X266104642Y-130242380D02*
X265628452Y-130242380D01*
X265580833Y-130718571D01*
X265628452Y-130670952D01*
X265723690Y-130623333D01*
X265961785Y-130623333D01*
X266057023Y-130670952D01*
X266104642Y-130718571D01*
X266152261Y-130813809D01*
X266152261Y-131051904D01*
X266104642Y-131147142D01*
X266057023Y-131194761D01*
X265961785Y-131242380D01*
X265723690Y-131242380D01*
X265628452Y-131194761D01*
X265580833Y-131147142D01*
X266771309Y-130242380D02*
X266866547Y-130242380D01*
X266961785Y-130290000D01*
X267009404Y-130337619D01*
X267057023Y-130432857D01*
X267104642Y-130623333D01*
X267104642Y-130861428D01*
X267057023Y-131051904D01*
X267009404Y-131147142D01*
X266961785Y-131194761D01*
X266866547Y-131242380D01*
X266771309Y-131242380D01*
X266676071Y-131194761D01*
X266628452Y-131147142D01*
X266580833Y-131051904D01*
X266533214Y-130861428D01*
X266533214Y-130623333D01*
X266580833Y-130432857D01*
X266628452Y-130337619D01*
X266676071Y-130290000D01*
X266771309Y-130242380D01*
X268295119Y-131242380D02*
X268295119Y-130575714D01*
X268295119Y-130242380D02*
X268247500Y-130290000D01*
X268295119Y-130337619D01*
X268342738Y-130290000D01*
X268295119Y-130242380D01*
X268295119Y-130337619D01*
X268771309Y-130575714D02*
X268771309Y-131242380D01*
X268771309Y-130670952D02*
X268818928Y-130623333D01*
X268914166Y-130575714D01*
X269057023Y-130575714D01*
X269152261Y-130623333D01*
X269199880Y-130718571D01*
X269199880Y-131242380D01*
D11*
X270510000Y-129540000D02*
X260985000Y-129540000D01*
X270510000Y-120396000D02*
X270510000Y-130126421D01*
X260985000Y-120396000D02*
X260985000Y-130126421D01*
X260985000Y-129540000D02*
X262111504Y-128953579D01*
X260985000Y-129540000D02*
X262111504Y-130126421D01*
X270510000Y-129540000D02*
X269383496Y-128953579D01*
X270510000Y-129540000D02*
X269383496Y-130126421D01*
D10*
X273752380Y-126959904D02*
X273752380Y-126864666D01*
X273800000Y-126769428D01*
X273847619Y-126721809D01*
X273942857Y-126674190D01*
X274133333Y-126626571D01*
X274371428Y-126626571D01*
X274561904Y-126674190D01*
X274657142Y-126721809D01*
X274704761Y-126769428D01*
X274752380Y-126864666D01*
X274752380Y-126959904D01*
X274704761Y-127055142D01*
X274657142Y-127102761D01*
X274561904Y-127150380D01*
X274371428Y-127198000D01*
X274133333Y-127198000D01*
X273942857Y-127150380D01*
X273847619Y-127102761D01*
X273800000Y-127055142D01*
X273752380Y-126959904D01*
X274704761Y-126150380D02*
X274752380Y-126150380D01*
X274847619Y-126198000D01*
X274895238Y-126245619D01*
X273847619Y-125769428D02*
X273800000Y-125721809D01*
X273752380Y-125626571D01*
X273752380Y-125388476D01*
X273800000Y-125293238D01*
X273847619Y-125245619D01*
X273942857Y-125198000D01*
X274038095Y-125198000D01*
X274180952Y-125245619D01*
X274752380Y-125817047D01*
X274752380Y-125198000D01*
X273752380Y-124340857D02*
X273752380Y-124531333D01*
X273800000Y-124626571D01*
X273847619Y-124674190D01*
X273990476Y-124769428D01*
X274180952Y-124817047D01*
X274561904Y-124817047D01*
X274657142Y-124769428D01*
X274704761Y-124721809D01*
X274752380Y-124626571D01*
X274752380Y-124436095D01*
X274704761Y-124340857D01*
X274657142Y-124293238D01*
X274561904Y-124245619D01*
X274323809Y-124245619D01*
X274228571Y-124293238D01*
X274180952Y-124340857D01*
X274133333Y-124436095D01*
X274133333Y-124626571D01*
X274180952Y-124721809D01*
X274228571Y-124769428D01*
X274323809Y-124817047D01*
X273752380Y-123626571D02*
X273752380Y-123531333D01*
X273800000Y-123436095D01*
X273847619Y-123388476D01*
X273942857Y-123340857D01*
X274133333Y-123293238D01*
X274371428Y-123293238D01*
X274561904Y-123340857D01*
X274657142Y-123388476D01*
X274704761Y-123436095D01*
X274752380Y-123531333D01*
X274752380Y-123626571D01*
X274704761Y-123721809D01*
X274657142Y-123769428D01*
X274561904Y-123817047D01*
X274371428Y-123864666D01*
X274133333Y-123864666D01*
X273942857Y-123817047D01*
X273847619Y-123769428D01*
X273800000Y-123721809D01*
X273752380Y-123626571D01*
X273752380Y-122674190D02*
X273752380Y-122578952D01*
X273800000Y-122483714D01*
X273847619Y-122436095D01*
X273942857Y-122388476D01*
X274133333Y-122340857D01*
X274371428Y-122340857D01*
X274561904Y-122388476D01*
X274657142Y-122436095D01*
X274704761Y-122483714D01*
X274752380Y-122578952D01*
X274752380Y-122674190D01*
X274704761Y-122769428D01*
X274657142Y-122817047D01*
X274561904Y-122864666D01*
X274371428Y-122912285D01*
X274133333Y-122912285D01*
X273942857Y-122864666D01*
X273847619Y-122817047D01*
X273800000Y-122769428D01*
X273752380Y-122674190D01*
X274752380Y-121150380D02*
X274085714Y-121150380D01*
X273752380Y-121150380D02*
X273800000Y-121198000D01*
X273847619Y-121150380D01*
X273800000Y-121102761D01*
X273752380Y-121150380D01*
X273847619Y-121150380D01*
X274085714Y-120674190D02*
X274752380Y-120674190D01*
X274180952Y-120674190D02*
X274133333Y-120626571D01*
X274085714Y-120531333D01*
X274085714Y-120388476D01*
X274133333Y-120293238D01*
X274228571Y-120245619D01*
X274752380Y-120245619D01*
D11*
X273050000Y-127000000D02*
X273050000Y-120396000D01*
X260985000Y-127000000D02*
X273636421Y-127000000D01*
X260985000Y-120396000D02*
X273636421Y-120396000D01*
X273050000Y-120396000D02*
X273636421Y-121522504D01*
X273050000Y-120396000D02*
X272463579Y-121522504D01*
X273050000Y-127000000D02*
X273636421Y-125873496D01*
X273050000Y-127000000D02*
X272463579Y-125873496D01*
D10*
X189793928Y-32222380D02*
X189222500Y-32222380D01*
X189508214Y-32222380D02*
X189508214Y-31222380D01*
X189412976Y-31365238D01*
X189317738Y-31460476D01*
X189222500Y-31508095D01*
X190270119Y-32174761D02*
X190270119Y-32222380D01*
X190222500Y-32317619D01*
X190174880Y-32365238D01*
X190889166Y-31222380D02*
X190984404Y-31222380D01*
X191079642Y-31270000D01*
X191127261Y-31317619D01*
X191174880Y-31412857D01*
X191222500Y-31603333D01*
X191222500Y-31841428D01*
X191174880Y-32031904D01*
X191127261Y-32127142D01*
X191079642Y-32174761D01*
X190984404Y-32222380D01*
X190889166Y-32222380D01*
X190793928Y-32174761D01*
X190746309Y-32127142D01*
X190698690Y-32031904D01*
X190651071Y-31841428D01*
X190651071Y-31603333D01*
X190698690Y-31412857D01*
X190746309Y-31317619D01*
X190793928Y-31270000D01*
X190889166Y-31222380D01*
X191555833Y-31222380D02*
X192222500Y-31222380D01*
X191793928Y-32222380D01*
X193079642Y-31222380D02*
X192603452Y-31222380D01*
X192555833Y-31698571D01*
X192603452Y-31650952D01*
X192698690Y-31603333D01*
X192936785Y-31603333D01*
X193032023Y-31650952D01*
X193079642Y-31698571D01*
X193127261Y-31793809D01*
X193127261Y-32031904D01*
X193079642Y-32127142D01*
X193032023Y-32174761D01*
X192936785Y-32222380D01*
X192698690Y-32222380D01*
X192603452Y-32174761D01*
X192555833Y-32127142D01*
X193746309Y-31222380D02*
X193841547Y-31222380D01*
X193936785Y-31270000D01*
X193984404Y-31317619D01*
X194032023Y-31412857D01*
X194079642Y-31603333D01*
X194079642Y-31841428D01*
X194032023Y-32031904D01*
X193984404Y-32127142D01*
X193936785Y-32174761D01*
X193841547Y-32222380D01*
X193746309Y-32222380D01*
X193651071Y-32174761D01*
X193603452Y-32127142D01*
X193555833Y-32031904D01*
X193508214Y-31841428D01*
X193508214Y-31603333D01*
X193555833Y-31412857D01*
X193603452Y-31317619D01*
X193651071Y-31270000D01*
X193746309Y-31222380D01*
X195270119Y-32222380D02*
X195270119Y-31555714D01*
X195270119Y-31222380D02*
X195222500Y-31270000D01*
X195270119Y-31317619D01*
X195317738Y-31270000D01*
X195270119Y-31222380D01*
X195270119Y-31317619D01*
X195746309Y-31555714D02*
X195746309Y-32222380D01*
X195746309Y-31650952D02*
X195793928Y-31603333D01*
X195889166Y-31555714D01*
X196032023Y-31555714D01*
X196127261Y-31603333D01*
X196174880Y-31698571D01*
X196174880Y-32222380D01*
D11*
X206375000Y-33020000D02*
X179070000Y-33020000D01*
X206375000Y-42164000D02*
X206375000Y-32433579D01*
X179070000Y-42164000D02*
X179070000Y-32433579D01*
X179070000Y-33020000D02*
X180196504Y-32433579D01*
X179070000Y-33020000D02*
X180196504Y-33606421D01*
X206375000Y-33020000D02*
X205248496Y-32433579D01*
X206375000Y-33020000D02*
X205248496Y-33606421D01*
D10*
X217098928Y-32222380D02*
X216527500Y-32222380D01*
X216813214Y-32222380D02*
X216813214Y-31222380D01*
X216717976Y-31365238D01*
X216622738Y-31460476D01*
X216527500Y-31508095D01*
X217575119Y-32174761D02*
X217575119Y-32222380D01*
X217527500Y-32317619D01*
X217479880Y-32365238D01*
X218194166Y-31222380D02*
X218289404Y-31222380D01*
X218384642Y-31270000D01*
X218432261Y-31317619D01*
X218479880Y-31412857D01*
X218527500Y-31603333D01*
X218527500Y-31841428D01*
X218479880Y-32031904D01*
X218432261Y-32127142D01*
X218384642Y-32174761D01*
X218289404Y-32222380D01*
X218194166Y-32222380D01*
X218098928Y-32174761D01*
X218051309Y-32127142D01*
X218003690Y-32031904D01*
X217956071Y-31841428D01*
X217956071Y-31603333D01*
X218003690Y-31412857D01*
X218051309Y-31317619D01*
X218098928Y-31270000D01*
X218194166Y-31222380D01*
X218860833Y-31222380D02*
X219527500Y-31222380D01*
X219098928Y-32222380D01*
X220384642Y-31222380D02*
X219908452Y-31222380D01*
X219860833Y-31698571D01*
X219908452Y-31650952D01*
X220003690Y-31603333D01*
X220241785Y-31603333D01*
X220337023Y-31650952D01*
X220384642Y-31698571D01*
X220432261Y-31793809D01*
X220432261Y-32031904D01*
X220384642Y-32127142D01*
X220337023Y-32174761D01*
X220241785Y-32222380D01*
X220003690Y-32222380D01*
X219908452Y-32174761D01*
X219860833Y-32127142D01*
X221051309Y-31222380D02*
X221146547Y-31222380D01*
X221241785Y-31270000D01*
X221289404Y-31317619D01*
X221337023Y-31412857D01*
X221384642Y-31603333D01*
X221384642Y-31841428D01*
X221337023Y-32031904D01*
X221289404Y-32127142D01*
X221241785Y-32174761D01*
X221146547Y-32222380D01*
X221051309Y-32222380D01*
X220956071Y-32174761D01*
X220908452Y-32127142D01*
X220860833Y-32031904D01*
X220813214Y-31841428D01*
X220813214Y-31603333D01*
X220860833Y-31412857D01*
X220908452Y-31317619D01*
X220956071Y-31270000D01*
X221051309Y-31222380D01*
X222575119Y-32222380D02*
X222575119Y-31555714D01*
X222575119Y-31222380D02*
X222527500Y-31270000D01*
X222575119Y-31317619D01*
X222622738Y-31270000D01*
X222575119Y-31222380D01*
X222575119Y-31317619D01*
X223051309Y-31555714D02*
X223051309Y-32222380D01*
X223051309Y-31650952D02*
X223098928Y-31603333D01*
X223194166Y-31555714D01*
X223337023Y-31555714D01*
X223432261Y-31603333D01*
X223479880Y-31698571D01*
X223479880Y-32222380D01*
D11*
X233680000Y-33020000D02*
X206375000Y-33020000D01*
X233680000Y-42164000D02*
X233680000Y-32433579D01*
X206375000Y-42164000D02*
X206375000Y-32433579D01*
X206375000Y-33020000D02*
X207501504Y-32433579D01*
X206375000Y-33020000D02*
X207501504Y-33606421D01*
X233680000Y-33020000D02*
X232553496Y-32433579D01*
X233680000Y-33020000D02*
X232553496Y-33606421D01*
D10*
X244403928Y-32222380D02*
X243832500Y-32222380D01*
X244118214Y-32222380D02*
X244118214Y-31222380D01*
X244022976Y-31365238D01*
X243927738Y-31460476D01*
X243832500Y-31508095D01*
X244880119Y-32174761D02*
X244880119Y-32222380D01*
X244832500Y-32317619D01*
X244784880Y-32365238D01*
X245499166Y-31222380D02*
X245594404Y-31222380D01*
X245689642Y-31270000D01*
X245737261Y-31317619D01*
X245784880Y-31412857D01*
X245832500Y-31603333D01*
X245832500Y-31841428D01*
X245784880Y-32031904D01*
X245737261Y-32127142D01*
X245689642Y-32174761D01*
X245594404Y-32222380D01*
X245499166Y-32222380D01*
X245403928Y-32174761D01*
X245356309Y-32127142D01*
X245308690Y-32031904D01*
X245261071Y-31841428D01*
X245261071Y-31603333D01*
X245308690Y-31412857D01*
X245356309Y-31317619D01*
X245403928Y-31270000D01*
X245499166Y-31222380D01*
X246165833Y-31222380D02*
X246832500Y-31222380D01*
X246403928Y-32222380D01*
X247689642Y-31222380D02*
X247213452Y-31222380D01*
X247165833Y-31698571D01*
X247213452Y-31650952D01*
X247308690Y-31603333D01*
X247546785Y-31603333D01*
X247642023Y-31650952D01*
X247689642Y-31698571D01*
X247737261Y-31793809D01*
X247737261Y-32031904D01*
X247689642Y-32127142D01*
X247642023Y-32174761D01*
X247546785Y-32222380D01*
X247308690Y-32222380D01*
X247213452Y-32174761D01*
X247165833Y-32127142D01*
X248356309Y-31222380D02*
X248451547Y-31222380D01*
X248546785Y-31270000D01*
X248594404Y-31317619D01*
X248642023Y-31412857D01*
X248689642Y-31603333D01*
X248689642Y-31841428D01*
X248642023Y-32031904D01*
X248594404Y-32127142D01*
X248546785Y-32174761D01*
X248451547Y-32222380D01*
X248356309Y-32222380D01*
X248261071Y-32174761D01*
X248213452Y-32127142D01*
X248165833Y-32031904D01*
X248118214Y-31841428D01*
X248118214Y-31603333D01*
X248165833Y-31412857D01*
X248213452Y-31317619D01*
X248261071Y-31270000D01*
X248356309Y-31222380D01*
X249880119Y-32222380D02*
X249880119Y-31555714D01*
X249880119Y-31222380D02*
X249832500Y-31270000D01*
X249880119Y-31317619D01*
X249927738Y-31270000D01*
X249880119Y-31222380D01*
X249880119Y-31317619D01*
X250356309Y-31555714D02*
X250356309Y-32222380D01*
X250356309Y-31650952D02*
X250403928Y-31603333D01*
X250499166Y-31555714D01*
X250642023Y-31555714D01*
X250737261Y-31603333D01*
X250784880Y-31698571D01*
X250784880Y-32222380D01*
D11*
X260985000Y-33020000D02*
X233680000Y-33020000D01*
X260985000Y-42164000D02*
X260985000Y-32433579D01*
X233680000Y-42164000D02*
X233680000Y-32433579D01*
X233680000Y-33020000D02*
X234806504Y-32433579D01*
X233680000Y-33020000D02*
X234806504Y-33606421D01*
X260985000Y-33020000D02*
X259858496Y-32433579D01*
X260985000Y-33020000D02*
X259858496Y-33606421D01*
D10*
X273752380Y-42123904D02*
X273752380Y-42028666D01*
X273800000Y-41933428D01*
X273847619Y-41885809D01*
X273942857Y-41838190D01*
X274133333Y-41790571D01*
X274371428Y-41790571D01*
X274561904Y-41838190D01*
X274657142Y-41885809D01*
X274704761Y-41933428D01*
X274752380Y-42028666D01*
X274752380Y-42123904D01*
X274704761Y-42219142D01*
X274657142Y-42266761D01*
X274561904Y-42314380D01*
X274371428Y-42362000D01*
X274133333Y-42362000D01*
X273942857Y-42314380D01*
X273847619Y-42266761D01*
X273800000Y-42219142D01*
X273752380Y-42123904D01*
X274704761Y-41314380D02*
X274752380Y-41314380D01*
X274847619Y-41362000D01*
X274895238Y-41409619D01*
X273847619Y-40933428D02*
X273800000Y-40885809D01*
X273752380Y-40790571D01*
X273752380Y-40552476D01*
X273800000Y-40457238D01*
X273847619Y-40409619D01*
X273942857Y-40362000D01*
X274038095Y-40362000D01*
X274180952Y-40409619D01*
X274752380Y-40981047D01*
X274752380Y-40362000D01*
X273752380Y-39504857D02*
X273752380Y-39695333D01*
X273800000Y-39790571D01*
X273847619Y-39838190D01*
X273990476Y-39933428D01*
X274180952Y-39981047D01*
X274561904Y-39981047D01*
X274657142Y-39933428D01*
X274704761Y-39885809D01*
X274752380Y-39790571D01*
X274752380Y-39600095D01*
X274704761Y-39504857D01*
X274657142Y-39457238D01*
X274561904Y-39409619D01*
X274323809Y-39409619D01*
X274228571Y-39457238D01*
X274180952Y-39504857D01*
X274133333Y-39600095D01*
X274133333Y-39790571D01*
X274180952Y-39885809D01*
X274228571Y-39933428D01*
X274323809Y-39981047D01*
X273752380Y-38790571D02*
X273752380Y-38695333D01*
X273800000Y-38600095D01*
X273847619Y-38552476D01*
X273942857Y-38504857D01*
X274133333Y-38457238D01*
X274371428Y-38457238D01*
X274561904Y-38504857D01*
X274657142Y-38552476D01*
X274704761Y-38600095D01*
X274752380Y-38695333D01*
X274752380Y-38790571D01*
X274704761Y-38885809D01*
X274657142Y-38933428D01*
X274561904Y-38981047D01*
X274371428Y-39028666D01*
X274133333Y-39028666D01*
X273942857Y-38981047D01*
X273847619Y-38933428D01*
X273800000Y-38885809D01*
X273752380Y-38790571D01*
X273752380Y-37838190D02*
X273752380Y-37742952D01*
X273800000Y-37647714D01*
X273847619Y-37600095D01*
X273942857Y-37552476D01*
X274133333Y-37504857D01*
X274371428Y-37504857D01*
X274561904Y-37552476D01*
X274657142Y-37600095D01*
X274704761Y-37647714D01*
X274752380Y-37742952D01*
X274752380Y-37838190D01*
X274704761Y-37933428D01*
X274657142Y-37981047D01*
X274561904Y-38028666D01*
X274371428Y-38076285D01*
X274133333Y-38076285D01*
X273942857Y-38028666D01*
X273847619Y-37981047D01*
X273800000Y-37933428D01*
X273752380Y-37838190D01*
X274752380Y-36314380D02*
X274085714Y-36314380D01*
X273752380Y-36314380D02*
X273800000Y-36362000D01*
X273847619Y-36314380D01*
X273800000Y-36266761D01*
X273752380Y-36314380D01*
X273847619Y-36314380D01*
X274085714Y-35838190D02*
X274752380Y-35838190D01*
X274180952Y-35838190D02*
X274133333Y-35790571D01*
X274085714Y-35695333D01*
X274085714Y-35552476D01*
X274133333Y-35457238D01*
X274228571Y-35409619D01*
X274752380Y-35409619D01*
D11*
X273050000Y-42164000D02*
X273050000Y-35560000D01*
X260985000Y-42164000D02*
X273636421Y-42164000D01*
X260985000Y-35560000D02*
X273636421Y-35560000D01*
X273050000Y-35560000D02*
X273636421Y-36686504D01*
X273050000Y-35560000D02*
X272463579Y-36686504D01*
X273050000Y-42164000D02*
X273636421Y-41037496D01*
X273050000Y-42164000D02*
X272463579Y-41037496D01*
D10*
X262485595Y-31222380D02*
X262580833Y-31222380D01*
X262676071Y-31270000D01*
X262723690Y-31317619D01*
X262771309Y-31412857D01*
X262818928Y-31603333D01*
X262818928Y-31841428D01*
X262771309Y-32031904D01*
X262723690Y-32127142D01*
X262676071Y-32174761D01*
X262580833Y-32222380D01*
X262485595Y-32222380D01*
X262390357Y-32174761D01*
X262342738Y-32127142D01*
X262295119Y-32031904D01*
X262247500Y-31841428D01*
X262247500Y-31603333D01*
X262295119Y-31412857D01*
X262342738Y-31317619D01*
X262390357Y-31270000D01*
X262485595Y-31222380D01*
X263295119Y-32174761D02*
X263295119Y-32222380D01*
X263247500Y-32317619D01*
X263199880Y-32365238D01*
X263628452Y-31222380D02*
X264247500Y-31222380D01*
X263914166Y-31603333D01*
X264057023Y-31603333D01*
X264152261Y-31650952D01*
X264199880Y-31698571D01*
X264247500Y-31793809D01*
X264247500Y-32031904D01*
X264199880Y-32127142D01*
X264152261Y-32174761D01*
X264057023Y-32222380D01*
X263771309Y-32222380D01*
X263676071Y-32174761D01*
X263628452Y-32127142D01*
X264580833Y-31222380D02*
X265247500Y-31222380D01*
X264818928Y-32222380D01*
X266104642Y-31222380D02*
X265628452Y-31222380D01*
X265580833Y-31698571D01*
X265628452Y-31650952D01*
X265723690Y-31603333D01*
X265961785Y-31603333D01*
X266057023Y-31650952D01*
X266104642Y-31698571D01*
X266152261Y-31793809D01*
X266152261Y-32031904D01*
X266104642Y-32127142D01*
X266057023Y-32174761D01*
X265961785Y-32222380D01*
X265723690Y-32222380D01*
X265628452Y-32174761D01*
X265580833Y-32127142D01*
X266771309Y-31222380D02*
X266866547Y-31222380D01*
X266961785Y-31270000D01*
X267009404Y-31317619D01*
X267057023Y-31412857D01*
X267104642Y-31603333D01*
X267104642Y-31841428D01*
X267057023Y-32031904D01*
X267009404Y-32127142D01*
X266961785Y-32174761D01*
X266866547Y-32222380D01*
X266771309Y-32222380D01*
X266676071Y-32174761D01*
X266628452Y-32127142D01*
X266580833Y-32031904D01*
X266533214Y-31841428D01*
X266533214Y-31603333D01*
X266580833Y-31412857D01*
X266628452Y-31317619D01*
X266676071Y-31270000D01*
X266771309Y-31222380D01*
X268295119Y-32222380D02*
X268295119Y-31555714D01*
X268295119Y-31222380D02*
X268247500Y-31270000D01*
X268295119Y-31317619D01*
X268342738Y-31270000D01*
X268295119Y-31222380D01*
X268295119Y-31317619D01*
X268771309Y-31555714D02*
X268771309Y-32222380D01*
X268771309Y-31650952D02*
X268818928Y-31603333D01*
X268914166Y-31555714D01*
X269057023Y-31555714D01*
X269152261Y-31603333D01*
X269199880Y-31698571D01*
X269199880Y-32222380D01*
D11*
X260985000Y-33020000D02*
X270510000Y-33020000D01*
X260985000Y-42164000D02*
X260985000Y-32433579D01*
X270510000Y-42164000D02*
X270510000Y-32433579D01*
X270510000Y-33020000D02*
X269383496Y-33606421D01*
X270510000Y-33020000D02*
X269383496Y-32433579D01*
X260985000Y-33020000D02*
X262111504Y-33606421D01*
X260985000Y-33020000D02*
X262111504Y-32433579D01*
D10*
X121217619Y-77732380D02*
X121217619Y-78351428D01*
X120836666Y-78018095D01*
X120836666Y-78160952D01*
X120789047Y-78256190D01*
X120741428Y-78303809D01*
X120646190Y-78351428D01*
X120408095Y-78351428D01*
X120312857Y-78303809D01*
X120265238Y-78256190D01*
X120217619Y-78160952D01*
X120217619Y-77875238D01*
X120265238Y-77780000D01*
X120312857Y-77732380D01*
X120265238Y-78827619D02*
X120217619Y-78827619D01*
X120122380Y-78780000D01*
X120074761Y-78732380D01*
X121217619Y-79684761D02*
X121217619Y-79494285D01*
X121170000Y-79399047D01*
X121122380Y-79351428D01*
X120979523Y-79256190D01*
X120789047Y-79208571D01*
X120408095Y-79208571D01*
X120312857Y-79256190D01*
X120265238Y-79303809D01*
X120217619Y-79399047D01*
X120217619Y-79589523D01*
X120265238Y-79684761D01*
X120312857Y-79732380D01*
X120408095Y-79780000D01*
X120646190Y-79780000D01*
X120741428Y-79732380D01*
X120789047Y-79684761D01*
X120836666Y-79589523D01*
X120836666Y-79399047D01*
X120789047Y-79303809D01*
X120741428Y-79256190D01*
X120646190Y-79208571D01*
X121217619Y-80399047D02*
X121217619Y-80494285D01*
X121170000Y-80589523D01*
X121122380Y-80637142D01*
X121027142Y-80684761D01*
X120836666Y-80732380D01*
X120598571Y-80732380D01*
X120408095Y-80684761D01*
X120312857Y-80637142D01*
X120265238Y-80589523D01*
X120217619Y-80494285D01*
X120217619Y-80399047D01*
X120265238Y-80303809D01*
X120312857Y-80256190D01*
X120408095Y-80208571D01*
X120598571Y-80160952D01*
X120836666Y-80160952D01*
X121027142Y-80208571D01*
X121122380Y-80256190D01*
X121170000Y-80303809D01*
X121217619Y-80399047D01*
X121217619Y-81351428D02*
X121217619Y-81446666D01*
X121170000Y-81541904D01*
X121122380Y-81589523D01*
X121027142Y-81637142D01*
X120836666Y-81684761D01*
X120598571Y-81684761D01*
X120408095Y-81637142D01*
X120312857Y-81589523D01*
X120265238Y-81541904D01*
X120217619Y-81446666D01*
X120217619Y-81351428D01*
X120265238Y-81256190D01*
X120312857Y-81208571D01*
X120408095Y-81160952D01*
X120598571Y-81113333D01*
X120836666Y-81113333D01*
X121027142Y-81160952D01*
X121122380Y-81208571D01*
X121170000Y-81256190D01*
X121217619Y-81351428D01*
X121217619Y-82303809D02*
X121217619Y-82399047D01*
X121170000Y-82494285D01*
X121122380Y-82541904D01*
X121027142Y-82589523D01*
X120836666Y-82637142D01*
X120598571Y-82637142D01*
X120408095Y-82589523D01*
X120312857Y-82541904D01*
X120265238Y-82494285D01*
X120217619Y-82399047D01*
X120217619Y-82303809D01*
X120265238Y-82208571D01*
X120312857Y-82160952D01*
X120408095Y-82113333D01*
X120598571Y-82065714D01*
X120836666Y-82065714D01*
X121027142Y-82113333D01*
X121122380Y-82160952D01*
X121170000Y-82208571D01*
X121217619Y-82303809D01*
X120217619Y-83827619D02*
X120884285Y-83827619D01*
X121217619Y-83827619D02*
X121170000Y-83780000D01*
X121122380Y-83827619D01*
X121170000Y-83875238D01*
X121217619Y-83827619D01*
X121122380Y-83827619D01*
X120884285Y-84303809D02*
X120217619Y-84303809D01*
X120789047Y-84303809D02*
X120836666Y-84351428D01*
X120884285Y-84446666D01*
X120884285Y-84589523D01*
X120836666Y-84684761D01*
X120741428Y-84732380D01*
X120217619Y-84732380D01*
D11*
X121920000Y-35560000D02*
X121920000Y-127000000D01*
X131445000Y-35560000D02*
X121333579Y-35560000D01*
X131445000Y-127000000D02*
X121333579Y-127000000D01*
X121920000Y-127000000D02*
X121333579Y-125873496D01*
X121920000Y-127000000D02*
X122506421Y-125873496D01*
X121920000Y-35560000D02*
X121333579Y-36686504D01*
X121920000Y-35560000D02*
X122506421Y-36686504D01*
D10*
X195778809Y-130242379D02*
X195302619Y-130242379D01*
X195255000Y-130718570D01*
X195302619Y-130670951D01*
X195397857Y-130623332D01*
X195635952Y-130623332D01*
X195731190Y-130670951D01*
X195778809Y-130718570D01*
X195826428Y-130813808D01*
X195826428Y-131051903D01*
X195778809Y-131147141D01*
X195731190Y-131194760D01*
X195635952Y-131242379D01*
X195397857Y-131242379D01*
X195302619Y-131194760D01*
X195255000Y-131147141D01*
X196302619Y-131194760D02*
X196302619Y-131242379D01*
X196255000Y-131337618D01*
X196207380Y-131385237D01*
X197159761Y-130242379D02*
X196969285Y-130242379D01*
X196874047Y-130289999D01*
X196826428Y-130337618D01*
X196731190Y-130480475D01*
X196683571Y-130670951D01*
X196683571Y-131051903D01*
X196731190Y-131147141D01*
X196778809Y-131194760D01*
X196874047Y-131242379D01*
X197064523Y-131242379D01*
X197159761Y-131194760D01*
X197207380Y-131147141D01*
X197255000Y-131051903D01*
X197255000Y-130813808D01*
X197207380Y-130718570D01*
X197159761Y-130670951D01*
X197064523Y-130623332D01*
X196874047Y-130623332D01*
X196778809Y-130670951D01*
X196731190Y-130718570D01*
X196683571Y-130813808D01*
X198159761Y-130242379D02*
X197683571Y-130242379D01*
X197635952Y-130718570D01*
X197683571Y-130670951D01*
X197778809Y-130623332D01*
X198016904Y-130623332D01*
X198112142Y-130670951D01*
X198159761Y-130718570D01*
X198207380Y-130813808D01*
X198207380Y-131051903D01*
X198159761Y-131147141D01*
X198112142Y-131194760D01*
X198016904Y-131242379D01*
X197778809Y-131242379D01*
X197683571Y-131194760D01*
X197635952Y-131147141D01*
X198826428Y-130242379D02*
X198921666Y-130242379D01*
X199016904Y-130289999D01*
X199064523Y-130337618D01*
X199112142Y-130432856D01*
X199159761Y-130623332D01*
X199159761Y-130861427D01*
X199112142Y-131051903D01*
X199064523Y-131147141D01*
X199016904Y-131194760D01*
X198921666Y-131242379D01*
X198826428Y-131242379D01*
X198731190Y-131194760D01*
X198683571Y-131147141D01*
X198635952Y-131051903D01*
X198588333Y-130861427D01*
X198588333Y-130623332D01*
X198635952Y-130432856D01*
X198683571Y-130337618D01*
X198731190Y-130289999D01*
X198826428Y-130242379D01*
X199778809Y-130242379D02*
X199874047Y-130242379D01*
X199969285Y-130289999D01*
X200016904Y-130337618D01*
X200064523Y-130432856D01*
X200112142Y-130623332D01*
X200112142Y-130861427D01*
X200064523Y-131051903D01*
X200016904Y-131147141D01*
X199969285Y-131194760D01*
X199874047Y-131242379D01*
X199778809Y-131242379D01*
X199683571Y-131194760D01*
X199635952Y-131147141D01*
X199588333Y-131051903D01*
X199540714Y-130861427D01*
X199540714Y-130623332D01*
X199588333Y-130432856D01*
X199635952Y-130337618D01*
X199683571Y-130289999D01*
X199778809Y-130242379D01*
X201302619Y-131242379D02*
X201302619Y-130575713D01*
X201302619Y-130242379D02*
X201255000Y-130289999D01*
X201302619Y-130337618D01*
X201350238Y-130289999D01*
X201302619Y-130242379D01*
X201302619Y-130337618D01*
X201778809Y-130575713D02*
X201778809Y-131242379D01*
X201778809Y-130670951D02*
X201826428Y-130623332D01*
X201921666Y-130575713D01*
X202064523Y-130575713D01*
X202159761Y-130623332D01*
X202207380Y-130718570D01*
X202207380Y-131242379D01*
D11*
X127000000Y-129539999D02*
X270510000Y-129539999D01*
X127000000Y-122555000D02*
X127000000Y-130126420D01*
X270510000Y-122555000D02*
X270510000Y-130126420D01*
X270510000Y-129539999D02*
X269383496Y-130126420D01*
X270510000Y-129539999D02*
X269383496Y-128953578D01*
X127000000Y-129539999D02*
X128126504Y-130126420D01*
X127000000Y-129539999D02*
X128126504Y-128953578D01*
%TO.C,SW3*%
X158200000Y-93280000D02*
X161800000Y-93280000D01*
X158200000Y-99280000D02*
X161800000Y-99280000D01*
X158200000Y-99280000D02*
X158200000Y-93280000D01*
X161800000Y-99280000D02*
X161800000Y-93280000D01*
X159200000Y-97780000D02*
X160800000Y-97780000D01*
X159200000Y-94780000D02*
X160800000Y-94780000D01*
X159200000Y-97780000D02*
X159200000Y-94780000D01*
X160800000Y-97780000D02*
X160800000Y-94780000D01*
X161000000Y-98030000D02*
X159000000Y-98030000D01*
X161000000Y-94530000D02*
X161000000Y-98030000D01*
X159000000Y-94530000D02*
X161000000Y-94530000D01*
X159000000Y-98030000D02*
X159000000Y-94530000D01*
%TO.C,C22*%
X180800000Y-94680000D02*
X179200000Y-94680000D01*
X180800000Y-93880000D02*
X180800000Y-94680000D01*
X179200000Y-93880000D02*
X180800000Y-93880000D01*
X179200000Y-94680000D02*
X179200000Y-93880000D01*
%TO.C,C21*%
X180800000Y-92680000D02*
X179200000Y-92680000D01*
X180800000Y-91880000D02*
X180800000Y-92680000D01*
X179200000Y-91880000D02*
X180800000Y-91880000D01*
X179200000Y-92680000D02*
X179200000Y-91880000D01*
%TO.C,J19*%
X270510000Y-93980000D02*
X265430000Y-93980000D01*
X270510000Y-91440000D02*
X270510000Y-93980000D01*
X266065000Y-91440000D02*
X270510000Y-91440000D01*
X265430000Y-92075000D02*
X266065000Y-91440000D01*
X265430000Y-93980000D02*
X265430000Y-92075000D01*
%TO.C,J18*%
X229870000Y-127000000D02*
X229870000Y-121920000D01*
X232410000Y-127000000D02*
X229870000Y-127000000D01*
X232410000Y-122555000D02*
X232410000Y-127000000D01*
X231775000Y-121920000D02*
X232410000Y-122555000D01*
X229870000Y-121920000D02*
X231775000Y-121920000D01*
%TO.C,J17*%
X207010000Y-127000000D02*
X207010000Y-121920000D01*
X209550000Y-127000000D02*
X207010000Y-127000000D01*
X209550000Y-122555000D02*
X209550000Y-127000000D01*
X208915000Y-121920000D02*
X209550000Y-122555000D01*
X207010000Y-121920000D02*
X208915000Y-121920000D01*
%TO.C,J16*%
X209550000Y-35560000D02*
X209550000Y-40640000D01*
X207010000Y-35560000D02*
X209550000Y-35560000D01*
X207010000Y-40005000D02*
X207010000Y-35560000D01*
X207645000Y-40640000D02*
X207010000Y-40005000D01*
X209550000Y-40640000D02*
X207645000Y-40640000D01*
%TO.C,SW2*%
X152200000Y-93280000D02*
X155800000Y-93280000D01*
X152200000Y-99280000D02*
X155800000Y-99280000D01*
X152200000Y-99280000D02*
X152200000Y-93280000D01*
X155800000Y-99280000D02*
X155800000Y-93280000D01*
X153200000Y-97780000D02*
X154800000Y-97780000D01*
X153200000Y-94780000D02*
X154800000Y-94780000D01*
X153200000Y-97780000D02*
X153200000Y-94780000D01*
X154800000Y-97780000D02*
X154800000Y-94780000D01*
X155000000Y-98030000D02*
X153000000Y-98030000D01*
X155000000Y-94530000D02*
X155000000Y-98030000D01*
X153000000Y-94530000D02*
X155000000Y-94530000D01*
X153000000Y-98030000D02*
X153000000Y-94530000D01*
%TO.C,J15*%
X232410000Y-35560000D02*
X232410000Y-40640000D01*
X229870000Y-35560000D02*
X232410000Y-35560000D01*
X229870000Y-40005000D02*
X229870000Y-35560000D01*
X230505000Y-40640000D02*
X229870000Y-40005000D01*
X232410000Y-40640000D02*
X230505000Y-40640000D01*
%TO.C,D1*%
X157800000Y-88380000D02*
X156500000Y-88380000D01*
X156500000Y-88380000D02*
X156200000Y-88680000D01*
X156200000Y-88680000D02*
X156200000Y-89180000D01*
X156200000Y-89180000D02*
X157800000Y-89180000D01*
X157800000Y-89180000D02*
X157800000Y-88380000D01*
%TO.C,J14*%
X160930000Y-86550000D02*
X148230000Y-86550000D01*
X160930000Y-84010000D02*
X160930000Y-86550000D01*
X148865000Y-84010000D02*
X160930000Y-84010000D01*
X148230000Y-84645000D02*
X148865000Y-84010000D01*
X148230000Y-86550000D02*
X148230000Y-84645000D01*
%TO.C,J13*%
X203815000Y-71100000D02*
X203265000Y-71660000D01*
X203815000Y-91460000D02*
X203265000Y-90920000D01*
X194965000Y-71100000D02*
X195515000Y-71660000D01*
X194965000Y-91460000D02*
X195515000Y-90920000D01*
X195515000Y-71660000D02*
X203265000Y-71660000D01*
X194965000Y-71100000D02*
X203815000Y-71100000D01*
X195515000Y-90920000D02*
X203265000Y-90920000D01*
X194965000Y-91460000D02*
X203815000Y-91460000D01*
X203265000Y-79030000D02*
X203815000Y-79030000D01*
X203265000Y-83530000D02*
X203815000Y-83530000D01*
X203265000Y-79030000D02*
X203265000Y-71660000D01*
X203265000Y-90920000D02*
X203265000Y-83530000D01*
X203815000Y-91460000D02*
X203815000Y-71100000D01*
X195515000Y-90920000D02*
X195515000Y-71660000D01*
X194965000Y-91460000D02*
X194965000Y-71100000D01*
%TO.C,Pmod7*%
X249220000Y-123190000D02*
X248620000Y-123190000D01*
X249220000Y-127250000D02*
X249220000Y-123190000D01*
X248620000Y-123190000D02*
X248620000Y-127250000D01*
X246680000Y-123190000D02*
X246080000Y-123190000D01*
X246680000Y-127250000D02*
X246680000Y-123190000D01*
X246080000Y-123190000D02*
X246080000Y-127250000D01*
X244140000Y-123190000D02*
X243540000Y-123190000D01*
X244140000Y-127250000D02*
X244140000Y-123190000D01*
X243540000Y-123190000D02*
X243540000Y-127250000D01*
X241600000Y-123190000D02*
X241000000Y-123190000D01*
X241600000Y-127250000D02*
X241600000Y-123190000D01*
X241000000Y-123190000D02*
X241000000Y-127250000D01*
X239060000Y-123190000D02*
X238460000Y-123190000D01*
X239060000Y-127250000D02*
X239060000Y-123190000D01*
X238460000Y-123190000D02*
X238460000Y-127250000D01*
X236520000Y-123190000D02*
X235920000Y-123190000D01*
X236520000Y-127250000D02*
X236520000Y-123190000D01*
X235920000Y-123190000D02*
X235920000Y-127250000D01*
X250190000Y-135760000D02*
X234950000Y-135760000D01*
X250190000Y-127250000D02*
X250190000Y-135760000D01*
X235920000Y-127250000D02*
X250190000Y-127250000D01*
X234950000Y-128220000D02*
X235920000Y-127250000D01*
X234950000Y-135760000D02*
X234950000Y-128220000D01*
%TO.C,Pmod1*%
X266700000Y-74630000D02*
X266700000Y-75230000D01*
X270760000Y-74630000D02*
X266700000Y-74630000D01*
X266700000Y-75230000D02*
X270760000Y-75230000D01*
X266700000Y-77170000D02*
X266700000Y-77770000D01*
X270760000Y-77170000D02*
X266700000Y-77170000D01*
X266700000Y-77770000D02*
X270760000Y-77770000D01*
X266700000Y-79710000D02*
X266700000Y-80310000D01*
X270760000Y-79710000D02*
X266700000Y-79710000D01*
X266700000Y-80310000D02*
X270760000Y-80310000D01*
X266700000Y-82250000D02*
X266700000Y-82850000D01*
X270760000Y-82250000D02*
X266700000Y-82250000D01*
X266700000Y-82850000D02*
X270760000Y-82850000D01*
X266700000Y-84790000D02*
X266700000Y-85390000D01*
X270760000Y-84790000D02*
X266700000Y-84790000D01*
X266700000Y-85390000D02*
X270760000Y-85390000D01*
X266700000Y-87330000D02*
X266700000Y-87930000D01*
X270760000Y-87330000D02*
X266700000Y-87330000D01*
X266700000Y-87930000D02*
X270760000Y-87930000D01*
X279270000Y-73660000D02*
X279270000Y-88900000D01*
X270760000Y-73660000D02*
X279270000Y-73660000D01*
X270760000Y-87930000D02*
X270760000Y-73660000D01*
X271730000Y-88900000D02*
X270760000Y-87930000D01*
X279270000Y-88900000D02*
X271730000Y-88900000D01*
%TO.C,Pmod5*%
X203500000Y-123190000D02*
X202900000Y-123190000D01*
X203500000Y-127250000D02*
X203500000Y-123190000D01*
X202900000Y-123190000D02*
X202900000Y-127250000D01*
X200960000Y-123190000D02*
X200360000Y-123190000D01*
X200960000Y-127250000D02*
X200960000Y-123190000D01*
X200360000Y-123190000D02*
X200360000Y-127250000D01*
X198420000Y-123190000D02*
X197820000Y-123190000D01*
X198420000Y-127250000D02*
X198420000Y-123190000D01*
X197820000Y-123190000D02*
X197820000Y-127250000D01*
X195880000Y-123190000D02*
X195280000Y-123190000D01*
X195880000Y-127250000D02*
X195880000Y-123190000D01*
X195280000Y-123190000D02*
X195280000Y-127250000D01*
X193340000Y-123190000D02*
X192740000Y-123190000D01*
X193340000Y-127250000D02*
X193340000Y-123190000D01*
X192740000Y-123190000D02*
X192740000Y-127250000D01*
X190800000Y-123190000D02*
X190200000Y-123190000D01*
X190800000Y-127250000D02*
X190800000Y-123190000D01*
X190200000Y-123190000D02*
X190200000Y-127250000D01*
X204470000Y-135760000D02*
X189230000Y-135760000D01*
X204470000Y-127250000D02*
X204470000Y-135760000D01*
X190200000Y-127250000D02*
X204470000Y-127250000D01*
X189230000Y-128220000D02*
X190200000Y-127250000D01*
X189230000Y-135760000D02*
X189230000Y-128220000D01*
%TO.C,Pmod6*%
X226360000Y-123190000D02*
X225760000Y-123190000D01*
X226360000Y-127250000D02*
X226360000Y-123190000D01*
X225760000Y-123190000D02*
X225760000Y-127250000D01*
X223820000Y-123190000D02*
X223220000Y-123190000D01*
X223820000Y-127250000D02*
X223820000Y-123190000D01*
X223220000Y-123190000D02*
X223220000Y-127250000D01*
X221280000Y-123190000D02*
X220680000Y-123190000D01*
X221280000Y-127250000D02*
X221280000Y-123190000D01*
X220680000Y-123190000D02*
X220680000Y-127250000D01*
X218740000Y-123190000D02*
X218140000Y-123190000D01*
X218740000Y-127250000D02*
X218740000Y-123190000D01*
X218140000Y-123190000D02*
X218140000Y-127250000D01*
X216200000Y-123190000D02*
X215600000Y-123190000D01*
X216200000Y-127250000D02*
X216200000Y-123190000D01*
X215600000Y-123190000D02*
X215600000Y-127250000D01*
X213660000Y-123190000D02*
X213060000Y-123190000D01*
X213660000Y-127250000D02*
X213660000Y-123190000D01*
X213060000Y-123190000D02*
X213060000Y-127250000D01*
X227330000Y-135760000D02*
X212090000Y-135760000D01*
X227330000Y-127250000D02*
X227330000Y-135760000D01*
X213060000Y-127250000D02*
X227330000Y-127250000D01*
X212090000Y-128220000D02*
X213060000Y-127250000D01*
X212090000Y-135760000D02*
X212090000Y-128220000D01*
%TO.C,Pmod4*%
X190200000Y-39370000D02*
X190800000Y-39370000D01*
X190200000Y-35310000D02*
X190200000Y-39370000D01*
X190800000Y-39370000D02*
X190800000Y-35310000D01*
X192740000Y-39370000D02*
X193340000Y-39370000D01*
X192740000Y-35310000D02*
X192740000Y-39370000D01*
X193340000Y-39370000D02*
X193340000Y-35310000D01*
X195280000Y-39370000D02*
X195880000Y-39370000D01*
X195280000Y-35310000D02*
X195280000Y-39370000D01*
X195880000Y-39370000D02*
X195880000Y-35310000D01*
X197820000Y-39370000D02*
X198420000Y-39370000D01*
X197820000Y-35310000D02*
X197820000Y-39370000D01*
X198420000Y-39370000D02*
X198420000Y-35310000D01*
X200360000Y-39370000D02*
X200960000Y-39370000D01*
X200360000Y-35310000D02*
X200360000Y-39370000D01*
X200960000Y-39370000D02*
X200960000Y-35310000D01*
X202900000Y-39370000D02*
X203500000Y-39370000D01*
X202900000Y-35310000D02*
X202900000Y-39370000D01*
X203500000Y-39370000D02*
X203500000Y-35310000D01*
X189230000Y-26800000D02*
X204470000Y-26800000D01*
X189230000Y-35310000D02*
X189230000Y-26800000D01*
X203500000Y-35310000D02*
X189230000Y-35310000D01*
X204470000Y-34340000D02*
X203500000Y-35310000D01*
X204470000Y-26800000D02*
X204470000Y-34340000D01*
%TO.C,Pmod3*%
X213060000Y-39370000D02*
X213660000Y-39370000D01*
X213060000Y-35310000D02*
X213060000Y-39370000D01*
X213660000Y-39370000D02*
X213660000Y-35310000D01*
X215600000Y-39370000D02*
X216200000Y-39370000D01*
X215600000Y-35310000D02*
X215600000Y-39370000D01*
X216200000Y-39370000D02*
X216200000Y-35310000D01*
X218140000Y-39370000D02*
X218740000Y-39370000D01*
X218140000Y-35310000D02*
X218140000Y-39370000D01*
X218740000Y-39370000D02*
X218740000Y-35310000D01*
X220680000Y-39370000D02*
X221280000Y-39370000D01*
X220680000Y-35310000D02*
X220680000Y-39370000D01*
X221280000Y-39370000D02*
X221280000Y-35310000D01*
X223220000Y-39370000D02*
X223820000Y-39370000D01*
X223220000Y-35310000D02*
X223220000Y-39370000D01*
X223820000Y-39370000D02*
X223820000Y-35310000D01*
X225760000Y-39370000D02*
X226360000Y-39370000D01*
X225760000Y-35310000D02*
X225760000Y-39370000D01*
X226360000Y-39370000D02*
X226360000Y-35310000D01*
X212090000Y-26800000D02*
X227330000Y-26800000D01*
X212090000Y-35310000D02*
X212090000Y-26800000D01*
X226360000Y-35310000D02*
X212090000Y-35310000D01*
X227330000Y-34340000D02*
X226360000Y-35310000D01*
X227330000Y-26800000D02*
X227330000Y-34340000D01*
%TO.C,Pmod2*%
X235920000Y-39370000D02*
X236520000Y-39370000D01*
X235920000Y-35310000D02*
X235920000Y-39370000D01*
X236520000Y-39370000D02*
X236520000Y-35310000D01*
X238460000Y-39370000D02*
X239060000Y-39370000D01*
X238460000Y-35310000D02*
X238460000Y-39370000D01*
X239060000Y-39370000D02*
X239060000Y-35310000D01*
X241000000Y-39370000D02*
X241600000Y-39370000D01*
X241000000Y-35310000D02*
X241000000Y-39370000D01*
X241600000Y-39370000D02*
X241600000Y-35310000D01*
X243540000Y-39370000D02*
X244140000Y-39370000D01*
X243540000Y-35310000D02*
X243540000Y-39370000D01*
X244140000Y-39370000D02*
X244140000Y-35310000D01*
X246080000Y-39370000D02*
X246680000Y-39370000D01*
X246080000Y-35310000D02*
X246080000Y-39370000D01*
X246680000Y-39370000D02*
X246680000Y-35310000D01*
X248620000Y-39370000D02*
X249220000Y-39370000D01*
X248620000Y-35310000D02*
X248620000Y-39370000D01*
X249220000Y-39370000D02*
X249220000Y-35310000D01*
X234950000Y-26800000D02*
X250190000Y-26800000D01*
X234950000Y-35310000D02*
X234950000Y-26800000D01*
X249220000Y-35310000D02*
X234950000Y-35310000D01*
X250190000Y-34340000D02*
X249220000Y-35310000D01*
X250190000Y-26800000D02*
X250190000Y-34340000D01*
%TO.C,J20*%
X211255000Y-83602500D02*
X210402500Y-84455000D01*
X211255000Y-78105000D02*
X211255000Y-83602500D01*
X207845000Y-78105000D02*
X211255000Y-78105000D01*
X207845000Y-84455000D02*
X207845000Y-78105000D01*
X210402500Y-84455000D02*
X207845000Y-84455000D01*
%TD*%
M02*
