%TF.GenerationSoftware,KiCad,Pcbnew,(5.99.0-2360-g1790c536e)*%
%TF.CreationDate,2020-08-29T16:27:00+02:00*%
%TF.ProjectId,chubby hat,63687562-6279-4206-9861-742e6b696361,rev?*%
%TF.SameCoordinates,Original*%
%TF.FileFunction,Paste,Bot*%
%TF.FilePolarity,Positive*%
%FSLAX46Y46*%
G04 Gerber Fmt 4.6, Leading zero omitted, Abs format (unit mm)*
G04 Created by KiCad (PCBNEW (5.99.0-2360-g1790c536e)) date 2020-08-29 16:27:00*
%MOMM*%
%LPD*%
G01*
G04 APERTURE LIST*
%ADD10C,0.000000*%
%ADD11C,0.150000*%
%ADD12C,0.300000*%
%ADD13C,0.400000*%
%ADD14R,1.500000X2.000000*%
%ADD15R,3.800000X2.000000*%
%ADD16R,2.000000X4.500000*%
%ADD17R,0.800000X0.900000*%
%ADD18R,0.650000X1.060000*%
%ADD19R,1.160000X0.300000*%
%ADD20R,1.160000X0.600000*%
G04 APERTURE END LIST*
D10*
D11*
X177002200Y-166007200D02*
X177002200Y-198007200D01*
X285002200Y-198007200D01*
X285002200Y-166007200D01*
X177002200Y-166007200D01*
D10*
D11*
X10000000Y-10000000D02*
X10000000Y-200007200D01*
X287002200Y-200007200D01*
X287002200Y-10000000D01*
X10000000Y-10000000D01*
D10*
D11*
X12000000Y-12000000D02*
X12000000Y-198007200D01*
X285002200Y-198007200D01*
X285002200Y-12000000D01*
X12000000Y-12000000D01*
D10*
D11*
X60000000Y-12000000D02*
X60000000Y-10000000D01*
D10*
D11*
X110000000Y-12000000D02*
X110000000Y-10000000D01*
D10*
D11*
X160000000Y-12000000D02*
X160000000Y-10000000D01*
D10*
D11*
X210000000Y-12000000D02*
X210000000Y-10000000D01*
D10*
D11*
X260000000Y-12000000D02*
X260000000Y-10000000D01*
D10*
D11*
X36065476Y-11588095D02*
X35322619Y-11588095D01*
X35694047Y-11588095D02*
X35694047Y-10288095D01*
X35570238Y-10473809D01*
X35446428Y-10597619D01*
X35322619Y-10659523D01*
D10*
D11*
X85322619Y-10411904D02*
X85384523Y-10350000D01*
X85508333Y-10288095D01*
X85817857Y-10288095D01*
X85941666Y-10350000D01*
X86003571Y-10411904D01*
X86065476Y-10535714D01*
X86065476Y-10659523D01*
X86003571Y-10845238D01*
X85260714Y-11588095D01*
X86065476Y-11588095D01*
D10*
D11*
X135260714Y-10288095D02*
X136065476Y-10288095D01*
X135632142Y-10783333D01*
X135817857Y-10783333D01*
X135941666Y-10845238D01*
X136003571Y-10907142D01*
X136065476Y-11030952D01*
X136065476Y-11340476D01*
X136003571Y-11464285D01*
X135941666Y-11526190D01*
X135817857Y-11588095D01*
X135446428Y-11588095D01*
X135322619Y-11526190D01*
X135260714Y-11464285D01*
D10*
D11*
X185941666Y-10721428D02*
X185941666Y-11588095D01*
X185632142Y-10226190D02*
X185322619Y-11154761D01*
X186127380Y-11154761D01*
D10*
D11*
X236003571Y-10288095D02*
X235384523Y-10288095D01*
X235322619Y-10907142D01*
X235384523Y-10845238D01*
X235508333Y-10783333D01*
X235817857Y-10783333D01*
X235941666Y-10845238D01*
X236003571Y-10907142D01*
X236065476Y-11030952D01*
X236065476Y-11340476D01*
X236003571Y-11464285D01*
X235941666Y-11526190D01*
X235817857Y-11588095D01*
X235508333Y-11588095D01*
X235384523Y-11526190D01*
X235322619Y-11464285D01*
D10*
D11*
X285941666Y-10288095D02*
X285694047Y-10288095D01*
X285570238Y-10350000D01*
X285508333Y-10411904D01*
X285384523Y-10597619D01*
X285322619Y-10845238D01*
X285322619Y-11340476D01*
X285384523Y-11464285D01*
X285446428Y-11526190D01*
X285570238Y-11588095D01*
X285817857Y-11588095D01*
X285941666Y-11526190D01*
X286003571Y-11464285D01*
X286065476Y-11340476D01*
X286065476Y-11030952D01*
X286003571Y-10907142D01*
X285941666Y-10845238D01*
X285817857Y-10783333D01*
X285570238Y-10783333D01*
X285446428Y-10845238D01*
X285384523Y-10907142D01*
X285322619Y-11030952D01*
D10*
D11*
X60000000Y-198007200D02*
X60000000Y-200007200D01*
D10*
D11*
X110000000Y-198007200D02*
X110000000Y-200007200D01*
D10*
D11*
X160000000Y-198007200D02*
X160000000Y-200007200D01*
D10*
D11*
X210000000Y-198007200D02*
X210000000Y-200007200D01*
D10*
D11*
X260000000Y-198007200D02*
X260000000Y-200007200D01*
D10*
D11*
X36065476Y-199595295D02*
X35322619Y-199595295D01*
X35694047Y-199595295D02*
X35694047Y-198295295D01*
X35570238Y-198481009D01*
X35446428Y-198604819D01*
X35322619Y-198666723D01*
D10*
D11*
X85322619Y-198419104D02*
X85384523Y-198357200D01*
X85508333Y-198295295D01*
X85817857Y-198295295D01*
X85941666Y-198357200D01*
X86003571Y-198419104D01*
X86065476Y-198542914D01*
X86065476Y-198666723D01*
X86003571Y-198852438D01*
X85260714Y-199595295D01*
X86065476Y-199595295D01*
D10*
D11*
X135260714Y-198295295D02*
X136065476Y-198295295D01*
X135632142Y-198790533D01*
X135817857Y-198790533D01*
X135941666Y-198852438D01*
X136003571Y-198914342D01*
X136065476Y-199038152D01*
X136065476Y-199347676D01*
X136003571Y-199471485D01*
X135941666Y-199533390D01*
X135817857Y-199595295D01*
X135446428Y-199595295D01*
X135322619Y-199533390D01*
X135260714Y-199471485D01*
D10*
D11*
X185941666Y-198728628D02*
X185941666Y-199595295D01*
X185632142Y-198233390D02*
X185322619Y-199161961D01*
X186127380Y-199161961D01*
D10*
D11*
X236003571Y-198295295D02*
X235384523Y-198295295D01*
X235322619Y-198914342D01*
X235384523Y-198852438D01*
X235508333Y-198790533D01*
X235817857Y-198790533D01*
X235941666Y-198852438D01*
X236003571Y-198914342D01*
X236065476Y-199038152D01*
X236065476Y-199347676D01*
X236003571Y-199471485D01*
X235941666Y-199533390D01*
X235817857Y-199595295D01*
X235508333Y-199595295D01*
X235384523Y-199533390D01*
X235322619Y-199471485D01*
D10*
D11*
X285941666Y-198295295D02*
X285694047Y-198295295D01*
X285570238Y-198357200D01*
X285508333Y-198419104D01*
X285384523Y-198604819D01*
X285322619Y-198852438D01*
X285322619Y-199347676D01*
X285384523Y-199471485D01*
X285446428Y-199533390D01*
X285570238Y-199595295D01*
X285817857Y-199595295D01*
X285941666Y-199533390D01*
X286003571Y-199471485D01*
X286065476Y-199347676D01*
X286065476Y-199038152D01*
X286003571Y-198914342D01*
X285941666Y-198852438D01*
X285817857Y-198790533D01*
X285570238Y-198790533D01*
X285446428Y-198852438D01*
X285384523Y-198914342D01*
X285322619Y-199038152D01*
D10*
D11*
X10000000Y-60000000D02*
X12000000Y-60000000D01*
D10*
D11*
X10000000Y-110000000D02*
X12000000Y-110000000D01*
D10*
D11*
X10000000Y-160000000D02*
X12000000Y-160000000D01*
D10*
D11*
X10690476Y-35216666D02*
X11309523Y-35216666D01*
X10566666Y-35588095D02*
X11000000Y-34288095D01*
X11433333Y-35588095D01*
D10*
D11*
X11092857Y-84907142D02*
X11278571Y-84969047D01*
X11340476Y-85030952D01*
X11402380Y-85154761D01*
X11402380Y-85340476D01*
X11340476Y-85464285D01*
X11278571Y-85526190D01*
X11154761Y-85588095D01*
X10659523Y-85588095D01*
X10659523Y-84288095D01*
X11092857Y-84288095D01*
X11216666Y-84350000D01*
X11278571Y-84411904D01*
X11340476Y-84535714D01*
X11340476Y-84659523D01*
X11278571Y-84783333D01*
X11216666Y-84845238D01*
X11092857Y-84907142D01*
X10659523Y-84907142D01*
D10*
D11*
X11402380Y-135464285D02*
X11340476Y-135526190D01*
X11154761Y-135588095D01*
X11030952Y-135588095D01*
X10845238Y-135526190D01*
X10721428Y-135402380D01*
X10659523Y-135278571D01*
X10597619Y-135030952D01*
X10597619Y-134845238D01*
X10659523Y-134597619D01*
X10721428Y-134473809D01*
X10845238Y-134350000D01*
X11030952Y-134288095D01*
X11154761Y-134288095D01*
X11340476Y-134350000D01*
X11402380Y-134411904D01*
D10*
D11*
X10659523Y-185588095D02*
X10659523Y-184288095D01*
X10969047Y-184288095D01*
X11154761Y-184350000D01*
X11278571Y-184473809D01*
X11340476Y-184597619D01*
X11402380Y-184845238D01*
X11402380Y-185030952D01*
X11340476Y-185278571D01*
X11278571Y-185402380D01*
X11154761Y-185526190D01*
X10969047Y-185588095D01*
X10659523Y-185588095D01*
D10*
D11*
X287002200Y-60000000D02*
X285002200Y-60000000D01*
D10*
D11*
X287002200Y-110000000D02*
X285002200Y-110000000D01*
D10*
D11*
X287002200Y-160000000D02*
X285002200Y-160000000D01*
D10*
D11*
X285692676Y-35216666D02*
X286311723Y-35216666D01*
X285568866Y-35588095D02*
X286002200Y-34288095D01*
X286435533Y-35588095D01*
D10*
D11*
X286095057Y-84907142D02*
X286280771Y-84969047D01*
X286342676Y-85030952D01*
X286404580Y-85154761D01*
X286404580Y-85340476D01*
X286342676Y-85464285D01*
X286280771Y-85526190D01*
X286156961Y-85588095D01*
X285661723Y-85588095D01*
X285661723Y-84288095D01*
X286095057Y-84288095D01*
X286218866Y-84350000D01*
X286280771Y-84411904D01*
X286342676Y-84535714D01*
X286342676Y-84659523D01*
X286280771Y-84783333D01*
X286218866Y-84845238D01*
X286095057Y-84907142D01*
X285661723Y-84907142D01*
D10*
D11*
X286404580Y-135464285D02*
X286342676Y-135526190D01*
X286156961Y-135588095D01*
X286033152Y-135588095D01*
X285847438Y-135526190D01*
X285723628Y-135402380D01*
X285661723Y-135278571D01*
X285599819Y-135030952D01*
X285599819Y-134845238D01*
X285661723Y-134597619D01*
X285723628Y-134473809D01*
X285847438Y-134350000D01*
X286033152Y-134288095D01*
X286156961Y-134288095D01*
X286342676Y-134350000D01*
X286404580Y-134411904D01*
D10*
D11*
X285661723Y-185588095D02*
X285661723Y-184288095D01*
X285971247Y-184288095D01*
X286156961Y-184350000D01*
X286280771Y-184473809D01*
X286342676Y-184597619D01*
X286404580Y-184845238D01*
X286404580Y-185030952D01*
X286342676Y-185278571D01*
X286280771Y-185402380D01*
X286156961Y-185526190D01*
X285971247Y-185588095D01*
X285661723Y-185588095D01*
D10*
D11*
X200434342Y-193785771D02*
X200434342Y-192285771D01*
X200791485Y-192285771D01*
X201005771Y-192357200D01*
X201148628Y-192500057D01*
X201220057Y-192642914D01*
X201291485Y-192928628D01*
X201291485Y-193142914D01*
X201220057Y-193428628D01*
X201148628Y-193571485D01*
X201005771Y-193714342D01*
X200791485Y-193785771D01*
X200434342Y-193785771D01*
X202577200Y-193785771D02*
X202577200Y-193000057D01*
X202505771Y-192857200D01*
X202362914Y-192785771D01*
X202077200Y-192785771D01*
X201934342Y-192857200D01*
X202577200Y-193714342D02*
X202434342Y-193785771D01*
X202077200Y-193785771D01*
X201934342Y-193714342D01*
X201862914Y-193571485D01*
X201862914Y-193428628D01*
X201934342Y-193285771D01*
X202077200Y-193214342D01*
X202434342Y-193214342D01*
X202577200Y-193142914D01*
X203077200Y-192785771D02*
X203648628Y-192785771D01*
X203291485Y-192285771D02*
X203291485Y-193571485D01*
X203362914Y-193714342D01*
X203505771Y-193785771D01*
X203648628Y-193785771D01*
X204720057Y-193714342D02*
X204577200Y-193785771D01*
X204291485Y-193785771D01*
X204148628Y-193714342D01*
X204077200Y-193571485D01*
X204077200Y-193000057D01*
X204148628Y-192857200D01*
X204291485Y-192785771D01*
X204577200Y-192785771D01*
X204720057Y-192857200D01*
X204791485Y-193000057D01*
X204791485Y-193142914D01*
X204077200Y-193285771D01*
X205434342Y-193642914D02*
X205505771Y-193714342D01*
X205434342Y-193785771D01*
X205362914Y-193714342D01*
X205434342Y-193642914D01*
X205434342Y-193785771D01*
X205434342Y-192857200D02*
X205505771Y-192928628D01*
X205434342Y-193000057D01*
X205362914Y-192928628D01*
X205434342Y-192857200D01*
X205434342Y-193000057D01*
D10*
D11*
X177002200Y-194507200D02*
X285002200Y-194507200D01*
D10*
D11*
X178434342Y-196585771D02*
X178434342Y-195085771D01*
X179291485Y-196585771D02*
X178648628Y-195728628D01*
X179291485Y-195085771D02*
X178434342Y-195942914D01*
X179934342Y-196585771D02*
X179934342Y-195585771D01*
X179934342Y-195085771D02*
X179862914Y-195157200D01*
X179934342Y-195228628D01*
X180005771Y-195157200D01*
X179934342Y-195085771D01*
X179934342Y-195228628D01*
X181505771Y-196442914D02*
X181434342Y-196514342D01*
X181220057Y-196585771D01*
X181077200Y-196585771D01*
X180862914Y-196514342D01*
X180720057Y-196371485D01*
X180648628Y-196228628D01*
X180577200Y-195942914D01*
X180577200Y-195728628D01*
X180648628Y-195442914D01*
X180720057Y-195300057D01*
X180862914Y-195157200D01*
X181077200Y-195085771D01*
X181220057Y-195085771D01*
X181434342Y-195157200D01*
X181505771Y-195228628D01*
X182791485Y-196585771D02*
X182791485Y-195800057D01*
X182720057Y-195657200D01*
X182577200Y-195585771D01*
X182291485Y-195585771D01*
X182148628Y-195657200D01*
X182791485Y-196514342D02*
X182648628Y-196585771D01*
X182291485Y-196585771D01*
X182148628Y-196514342D01*
X182077200Y-196371485D01*
X182077200Y-196228628D01*
X182148628Y-196085771D01*
X182291485Y-196014342D01*
X182648628Y-196014342D01*
X182791485Y-195942914D01*
X184148628Y-196585771D02*
X184148628Y-195085771D01*
X184148628Y-196514342D02*
X184005771Y-196585771D01*
X183720057Y-196585771D01*
X183577200Y-196514342D01*
X183505771Y-196442914D01*
X183434342Y-196300057D01*
X183434342Y-195871485D01*
X183505771Y-195728628D01*
X183577200Y-195657200D01*
X183720057Y-195585771D01*
X184005771Y-195585771D01*
X184148628Y-195657200D01*
X186005771Y-195800057D02*
X186505771Y-195800057D01*
X186720057Y-196585771D02*
X186005771Y-196585771D01*
X186005771Y-195085771D01*
X186720057Y-195085771D01*
X187362914Y-196442914D02*
X187434342Y-196514342D01*
X187362914Y-196585771D01*
X187291485Y-196514342D01*
X187362914Y-196442914D01*
X187362914Y-196585771D01*
X188077200Y-196585771D02*
X188077200Y-195085771D01*
X188434342Y-195085771D01*
X188648628Y-195157200D01*
X188791485Y-195300057D01*
X188862914Y-195442914D01*
X188934342Y-195728628D01*
X188934342Y-195942914D01*
X188862914Y-196228628D01*
X188791485Y-196371485D01*
X188648628Y-196514342D01*
X188434342Y-196585771D01*
X188077200Y-196585771D01*
X189577200Y-196442914D02*
X189648628Y-196514342D01*
X189577200Y-196585771D01*
X189505771Y-196514342D01*
X189577200Y-196442914D01*
X189577200Y-196585771D01*
X190220057Y-196157200D02*
X190934342Y-196157200D01*
X190077200Y-196585771D02*
X190577200Y-195085771D01*
X191077200Y-196585771D01*
X191577200Y-196442914D02*
X191648628Y-196514342D01*
X191577200Y-196585771D01*
X191505771Y-196514342D01*
X191577200Y-196442914D01*
X191577200Y-196585771D01*
X194577200Y-196585771D02*
X194577200Y-195085771D01*
X194720057Y-196014342D02*
X195148628Y-196585771D01*
X195148628Y-195585771D02*
X194577200Y-196157200D01*
X195791485Y-196585771D02*
X195791485Y-195585771D01*
X195791485Y-195085771D02*
X195720057Y-195157200D01*
X195791485Y-195228628D01*
X195862914Y-195157200D01*
X195791485Y-195085771D01*
X195791485Y-195228628D01*
X197148628Y-196514342D02*
X197005771Y-196585771D01*
X196720057Y-196585771D01*
X196577200Y-196514342D01*
X196505771Y-196442914D01*
X196434342Y-196300057D01*
X196434342Y-195871485D01*
X196505771Y-195728628D01*
X196577200Y-195657200D01*
X196720057Y-195585771D01*
X197005771Y-195585771D01*
X197148628Y-195657200D01*
X198434342Y-196585771D02*
X198434342Y-195800057D01*
X198362914Y-195657200D01*
X198220057Y-195585771D01*
X197934342Y-195585771D01*
X197791485Y-195657200D01*
X198434342Y-196514342D02*
X198291485Y-196585771D01*
X197934342Y-196585771D01*
X197791485Y-196514342D01*
X197720057Y-196371485D01*
X197720057Y-196228628D01*
X197791485Y-196085771D01*
X197934342Y-196014342D01*
X198291485Y-196014342D01*
X198434342Y-195942914D01*
X199791485Y-196585771D02*
X199791485Y-195085771D01*
X199791485Y-196514342D02*
X199648628Y-196585771D01*
X199362914Y-196585771D01*
X199220057Y-196514342D01*
X199148628Y-196442914D01*
X199077200Y-196300057D01*
X199077200Y-195871485D01*
X199148628Y-195728628D01*
X199220057Y-195657200D01*
X199362914Y-195585771D01*
X199648628Y-195585771D01*
X199791485Y-195657200D01*
X202077200Y-197157200D02*
X202005771Y-197085771D01*
X201862914Y-196871485D01*
X201791485Y-196728628D01*
X201720057Y-196514342D01*
X201648628Y-196157200D01*
X201648628Y-195871485D01*
X201720057Y-195514342D01*
X201791485Y-195300057D01*
X201862914Y-195157200D01*
X202005771Y-194942914D01*
X202077200Y-194871485D01*
X203362914Y-195085771D02*
X202648628Y-195085771D01*
X202577200Y-195800057D01*
X202648628Y-195728628D01*
X202791485Y-195657200D01*
X203148628Y-195657200D01*
X203291485Y-195728628D01*
X203362914Y-195800057D01*
X203434342Y-195942914D01*
X203434342Y-196300057D01*
X203362914Y-196442914D01*
X203291485Y-196514342D01*
X203148628Y-196585771D01*
X202791485Y-196585771D01*
X202648628Y-196514342D01*
X202577200Y-196442914D01*
X204077200Y-196442914D02*
X204148628Y-196514342D01*
X204077200Y-196585771D01*
X204005771Y-196514342D01*
X204077200Y-196442914D01*
X204077200Y-196585771D01*
X204862914Y-196585771D02*
X205148628Y-196585771D01*
X205291485Y-196514342D01*
X205362914Y-196442914D01*
X205505771Y-196228628D01*
X205577200Y-195942914D01*
X205577200Y-195371485D01*
X205505771Y-195228628D01*
X205434342Y-195157200D01*
X205291485Y-195085771D01*
X205005771Y-195085771D01*
X204862914Y-195157200D01*
X204791485Y-195228628D01*
X204720057Y-195371485D01*
X204720057Y-195728628D01*
X204791485Y-195871485D01*
X204862914Y-195942914D01*
X205005771Y-196014342D01*
X205291485Y-196014342D01*
X205434342Y-195942914D01*
X205505771Y-195871485D01*
X205577200Y-195728628D01*
X206291485Y-196585771D02*
X206577200Y-196585771D01*
X206720057Y-196514342D01*
X206791485Y-196442914D01*
X206934342Y-196228628D01*
X207005771Y-195942914D01*
X207005771Y-195371485D01*
X206934342Y-195228628D01*
X206862914Y-195157200D01*
X206720057Y-195085771D01*
X206434342Y-195085771D01*
X206291485Y-195157200D01*
X206220057Y-195228628D01*
X206148628Y-195371485D01*
X206148628Y-195728628D01*
X206220057Y-195871485D01*
X206291485Y-195942914D01*
X206434342Y-196014342D01*
X206720057Y-196014342D01*
X206862914Y-195942914D01*
X206934342Y-195871485D01*
X207005771Y-195728628D01*
X207648628Y-196442914D02*
X207720057Y-196514342D01*
X207648628Y-196585771D01*
X207577200Y-196514342D01*
X207648628Y-196442914D01*
X207648628Y-196585771D01*
X208648628Y-195085771D02*
X208791485Y-195085771D01*
X208934342Y-195157200D01*
X209005771Y-195228628D01*
X209077200Y-195371485D01*
X209148628Y-195657200D01*
X209148628Y-196014342D01*
X209077200Y-196300057D01*
X209005771Y-196442914D01*
X208934342Y-196514342D01*
X208791485Y-196585771D01*
X208648628Y-196585771D01*
X208505771Y-196514342D01*
X208434342Y-196442914D01*
X208362914Y-196300057D01*
X208291485Y-196014342D01*
X208291485Y-195657200D01*
X208362914Y-195371485D01*
X208434342Y-195228628D01*
X208505771Y-195157200D01*
X208648628Y-195085771D01*
X209791485Y-196014342D02*
X210934342Y-196014342D01*
X211577200Y-195228628D02*
X211648628Y-195157200D01*
X211791485Y-195085771D01*
X212148628Y-195085771D01*
X212291485Y-195157200D01*
X212362914Y-195228628D01*
X212434342Y-195371485D01*
X212434342Y-195514342D01*
X212362914Y-195728628D01*
X211505771Y-196585771D01*
X212434342Y-196585771D01*
X212934342Y-195085771D02*
X213862914Y-195085771D01*
X213362914Y-195657200D01*
X213577200Y-195657200D01*
X213720057Y-195728628D01*
X213791485Y-195800057D01*
X213862914Y-195942914D01*
X213862914Y-196300057D01*
X213791485Y-196442914D01*
X213720057Y-196514342D01*
X213577200Y-196585771D01*
X213148628Y-196585771D01*
X213005771Y-196514342D01*
X212934342Y-196442914D01*
X215148628Y-195085771D02*
X214862914Y-195085771D01*
X214720057Y-195157200D01*
X214648628Y-195228628D01*
X214505771Y-195442914D01*
X214434342Y-195728628D01*
X214434342Y-196300057D01*
X214505771Y-196442914D01*
X214577200Y-196514342D01*
X214720057Y-196585771D01*
X215005771Y-196585771D01*
X215148628Y-196514342D01*
X215220057Y-196442914D01*
X215291485Y-196300057D01*
X215291485Y-195942914D01*
X215220057Y-195800057D01*
X215148628Y-195728628D01*
X215005771Y-195657200D01*
X214720057Y-195657200D01*
X214577200Y-195728628D01*
X214505771Y-195800057D01*
X214434342Y-195942914D01*
X216220057Y-195085771D02*
X216362914Y-195085771D01*
X216505771Y-195157200D01*
X216577200Y-195228628D01*
X216648628Y-195371485D01*
X216720057Y-195657200D01*
X216720057Y-196014342D01*
X216648628Y-196300057D01*
X216577200Y-196442914D01*
X216505771Y-196514342D01*
X216362914Y-196585771D01*
X216220057Y-196585771D01*
X216077200Y-196514342D01*
X216005771Y-196442914D01*
X215934342Y-196300057D01*
X215862914Y-196014342D01*
X215862914Y-195657200D01*
X215934342Y-195371485D01*
X216005771Y-195228628D01*
X216077200Y-195157200D01*
X216220057Y-195085771D01*
X217362914Y-196014342D02*
X218505771Y-196014342D01*
X219862914Y-195585771D02*
X219862914Y-196800057D01*
X219791485Y-196942914D01*
X219720057Y-197014342D01*
X219577200Y-197085771D01*
X219362914Y-197085771D01*
X219220057Y-197014342D01*
X219862914Y-196514342D02*
X219720057Y-196585771D01*
X219434342Y-196585771D01*
X219291485Y-196514342D01*
X219220057Y-196442914D01*
X219148628Y-196300057D01*
X219148628Y-195871485D01*
X219220057Y-195728628D01*
X219291485Y-195657200D01*
X219434342Y-195585771D01*
X219720057Y-195585771D01*
X219862914Y-195657200D01*
X221362914Y-196585771D02*
X220505771Y-196585771D01*
X220934342Y-196585771D02*
X220934342Y-195085771D01*
X220791485Y-195300057D01*
X220648628Y-195442914D01*
X220505771Y-195514342D01*
X221862914Y-195085771D02*
X222862914Y-195085771D01*
X222220057Y-196585771D01*
X223505771Y-196585771D02*
X223791485Y-196585771D01*
X223934342Y-196514342D01*
X224005771Y-196442914D01*
X224148628Y-196228628D01*
X224220057Y-195942914D01*
X224220057Y-195371485D01*
X224148628Y-195228628D01*
X224077200Y-195157200D01*
X223934342Y-195085771D01*
X223648628Y-195085771D01*
X223505771Y-195157200D01*
X223434342Y-195228628D01*
X223362914Y-195371485D01*
X223362914Y-195728628D01*
X223434342Y-195871485D01*
X223505771Y-195942914D01*
X223648628Y-196014342D01*
X223934342Y-196014342D01*
X224077200Y-195942914D01*
X224148628Y-195871485D01*
X224220057Y-195728628D01*
X225148628Y-195085771D02*
X225291485Y-195085771D01*
X225434342Y-195157200D01*
X225505771Y-195228628D01*
X225577200Y-195371485D01*
X225648628Y-195657200D01*
X225648628Y-196014342D01*
X225577200Y-196300057D01*
X225505771Y-196442914D01*
X225434342Y-196514342D01*
X225291485Y-196585771D01*
X225148628Y-196585771D01*
X225005771Y-196514342D01*
X224934342Y-196442914D01*
X224862914Y-196300057D01*
X224791485Y-196014342D01*
X224791485Y-195657200D01*
X224862914Y-195371485D01*
X224934342Y-195228628D01*
X225005771Y-195157200D01*
X225148628Y-195085771D01*
X226934342Y-196514342D02*
X226791485Y-196585771D01*
X226505771Y-196585771D01*
X226362914Y-196514342D01*
X226291485Y-196442914D01*
X226220057Y-196300057D01*
X226220057Y-195871485D01*
X226291485Y-195728628D01*
X226362914Y-195657200D01*
X226505771Y-195585771D01*
X226791485Y-195585771D01*
X226934342Y-195657200D01*
X228291485Y-195085771D02*
X227577199Y-195085771D01*
X227505771Y-195800057D01*
X227577199Y-195728628D01*
X227720057Y-195657200D01*
X228077199Y-195657200D01*
X228220057Y-195728628D01*
X228291485Y-195800057D01*
X228362914Y-195942914D01*
X228362914Y-196300057D01*
X228291485Y-196442914D01*
X228220057Y-196514342D01*
X228077199Y-196585771D01*
X227720057Y-196585771D01*
X227577199Y-196514342D01*
X227505771Y-196442914D01*
X228862914Y-195085771D02*
X229791485Y-195085771D01*
X229291485Y-195657200D01*
X229505771Y-195657200D01*
X229648628Y-195728628D01*
X229720057Y-195800057D01*
X229791485Y-195942914D01*
X229791485Y-196300057D01*
X229720057Y-196442914D01*
X229648628Y-196514342D01*
X229505771Y-196585771D01*
X229077199Y-196585771D01*
X228934342Y-196514342D01*
X228862914Y-196442914D01*
X231077199Y-195085771D02*
X230791485Y-195085771D01*
X230648628Y-195157200D01*
X230577199Y-195228628D01*
X230434342Y-195442914D01*
X230362914Y-195728628D01*
X230362914Y-196300057D01*
X230434342Y-196442914D01*
X230505771Y-196514342D01*
X230648628Y-196585771D01*
X230934342Y-196585771D01*
X231077199Y-196514342D01*
X231148628Y-196442914D01*
X231220057Y-196300057D01*
X231220057Y-195942914D01*
X231148628Y-195800057D01*
X231077199Y-195728628D01*
X230934342Y-195657200D01*
X230648628Y-195657200D01*
X230505771Y-195728628D01*
X230434342Y-195800057D01*
X230362914Y-195942914D01*
X232434342Y-196514342D02*
X232291485Y-196585771D01*
X232005771Y-196585771D01*
X231862914Y-196514342D01*
X231791485Y-196371485D01*
X231791485Y-195800057D01*
X231862914Y-195657200D01*
X232005771Y-195585771D01*
X232291485Y-195585771D01*
X232434342Y-195657200D01*
X232505771Y-195800057D01*
X232505771Y-195942914D01*
X231791485Y-196085771D01*
X233005771Y-197157200D02*
X233077199Y-197085771D01*
X233220057Y-196871485D01*
X233291485Y-196728628D01*
X233362914Y-196514342D01*
X233434342Y-196157200D01*
X233434342Y-195871485D01*
X233362914Y-195514342D01*
X233291485Y-195300057D01*
X233220057Y-195157200D01*
X233077199Y-194942914D01*
X233005771Y-194871485D01*
D10*
D11*
X177002200Y-191507200D02*
X285002200Y-191507200D01*
D10*
D12*
X264411485Y-193785771D02*
X263911485Y-193071485D01*
X263554342Y-193785771D02*
X263554342Y-192285771D01*
X264125771Y-192285771D01*
X264268628Y-192357200D01*
X264340057Y-192428628D01*
X264411485Y-192571485D01*
X264411485Y-192785771D01*
X264340057Y-192928628D01*
X264268628Y-193000057D01*
X264125771Y-193071485D01*
X263554342Y-193071485D01*
X265625771Y-193714342D02*
X265482914Y-193785771D01*
X265197200Y-193785771D01*
X265054342Y-193714342D01*
X264982914Y-193571485D01*
X264982914Y-193000057D01*
X265054342Y-192857200D01*
X265197200Y-192785771D01*
X265482914Y-192785771D01*
X265625771Y-192857200D01*
X265697200Y-193000057D01*
X265697200Y-193142914D01*
X264982914Y-193285771D01*
X266197200Y-192785771D02*
X266554342Y-193785771D01*
X266911485Y-192785771D01*
X267482914Y-193642914D02*
X267554342Y-193714342D01*
X267482914Y-193785771D01*
X267411485Y-193714342D01*
X267482914Y-193642914D01*
X267482914Y-193785771D01*
X267482914Y-192857200D02*
X267554342Y-192928628D01*
X267482914Y-193000057D01*
X267411485Y-192928628D01*
X267482914Y-192857200D01*
X267482914Y-193000057D01*
D10*
D11*
X178362914Y-193714342D02*
X178577200Y-193785771D01*
X178934342Y-193785771D01*
X179077200Y-193714342D01*
X179148628Y-193642914D01*
X179220057Y-193500057D01*
X179220057Y-193357200D01*
X179148628Y-193214342D01*
X179077200Y-193142914D01*
X178934342Y-193071485D01*
X178648628Y-193000057D01*
X178505771Y-192928628D01*
X178434342Y-192857200D01*
X178362914Y-192714342D01*
X178362914Y-192571485D01*
X178434342Y-192428628D01*
X178505771Y-192357200D01*
X178648628Y-192285771D01*
X179005771Y-192285771D01*
X179220057Y-192357200D01*
X179862914Y-193785771D02*
X179862914Y-192785771D01*
X179862914Y-192285771D02*
X179791485Y-192357200D01*
X179862914Y-192428628D01*
X179934342Y-192357200D01*
X179862914Y-192285771D01*
X179862914Y-192428628D01*
X180434342Y-192785771D02*
X181220057Y-192785771D01*
X180434342Y-193785771D01*
X181220057Y-193785771D01*
X182362914Y-193714342D02*
X182220057Y-193785771D01*
X181934342Y-193785771D01*
X181791485Y-193714342D01*
X181720057Y-193571485D01*
X181720057Y-193000057D01*
X181791485Y-192857200D01*
X181934342Y-192785771D01*
X182220057Y-192785771D01*
X182362914Y-192857200D01*
X182434342Y-193000057D01*
X182434342Y-193142914D01*
X181720057Y-193285771D01*
X183077200Y-193642914D02*
X183148628Y-193714342D01*
X183077200Y-193785771D01*
X183005771Y-193714342D01*
X183077200Y-193642914D01*
X183077200Y-193785771D01*
X183077200Y-192857200D02*
X183148628Y-192928628D01*
X183077200Y-193000057D01*
X183005771Y-192928628D01*
X183077200Y-192857200D01*
X183077200Y-193000057D01*
X184862914Y-193357200D02*
X185577200Y-193357200D01*
X184720057Y-193785771D02*
X185220057Y-192285771D01*
X185720057Y-193785771D01*
X186862914Y-192785771D02*
X186862914Y-193785771D01*
X186505771Y-192214342D02*
X186148628Y-193285771D01*
X187077200Y-193285771D01*
D10*
D11*
X263434342Y-196585771D02*
X263434342Y-195085771D01*
X264791485Y-196585771D02*
X264791485Y-195085771D01*
X264791485Y-196514342D02*
X264648628Y-196585771D01*
X264362914Y-196585771D01*
X264220057Y-196514342D01*
X264148628Y-196442914D01*
X264077200Y-196300057D01*
X264077200Y-195871485D01*
X264148628Y-195728628D01*
X264220057Y-195657200D01*
X264362914Y-195585771D01*
X264648628Y-195585771D01*
X264791485Y-195657200D01*
X265505771Y-196442914D02*
X265577200Y-196514342D01*
X265505771Y-196585771D01*
X265434342Y-196514342D01*
X265505771Y-196442914D01*
X265505771Y-196585771D01*
X265505771Y-195657200D02*
X265577200Y-195728628D01*
X265505771Y-195800057D01*
X265434342Y-195728628D01*
X265505771Y-195657200D01*
X265505771Y-195800057D01*
X268148628Y-196585771D02*
X267291485Y-196585771D01*
X267720057Y-196585771D02*
X267720057Y-195085771D01*
X267577200Y-195300057D01*
X267434342Y-195442914D01*
X267291485Y-195514342D01*
X269862914Y-195014342D02*
X268577200Y-196942914D01*
X271148628Y-196585771D02*
X270291485Y-196585771D01*
X270720057Y-196585771D02*
X270720057Y-195085771D01*
X270577200Y-195300057D01*
X270434342Y-195442914D01*
X270291485Y-195514342D01*
D10*
D11*
X177002200Y-187507200D02*
X285002200Y-187507200D01*
D10*
D13*
X178714580Y-188211961D02*
X179857438Y-188211961D01*
X179036009Y-190211961D02*
X179286009Y-188211961D01*
X180274104Y-190211961D02*
X180440771Y-188878628D01*
X180524104Y-188211961D02*
X180416961Y-188307200D01*
X180500295Y-188402438D01*
X180607438Y-188307200D01*
X180524104Y-188211961D01*
X180500295Y-188402438D01*
X181107438Y-188878628D02*
X181869342Y-188878628D01*
X181476485Y-188211961D02*
X181262200Y-189926247D01*
X181333628Y-190116723D01*
X181512200Y-190211961D01*
X181702676Y-190211961D01*
X182655057Y-190211961D02*
X182476485Y-190116723D01*
X182405057Y-189926247D01*
X182619342Y-188211961D01*
X184190771Y-190116723D02*
X183988390Y-190211961D01*
X183607438Y-190211961D01*
X183428866Y-190116723D01*
X183357438Y-189926247D01*
X183452676Y-189164342D01*
X183571723Y-188973866D01*
X183774104Y-188878628D01*
X184155057Y-188878628D01*
X184333628Y-188973866D01*
X184405057Y-189164342D01*
X184381247Y-189354819D01*
X183405057Y-189545295D01*
X185155057Y-190021485D02*
X185238390Y-190116723D01*
X185131247Y-190211961D01*
X185047914Y-190116723D01*
X185155057Y-190021485D01*
X185131247Y-190211961D01*
X185286009Y-188973866D02*
X185369342Y-189069104D01*
X185262200Y-189164342D01*
X185178866Y-189069104D01*
X185286009Y-188973866D01*
X185262200Y-189164342D01*
D10*
D11*
X178934342Y-185600057D02*
X178434342Y-185600057D01*
X178434342Y-186385771D02*
X178434342Y-184885771D01*
X179148628Y-184885771D01*
X179720057Y-186385771D02*
X179720057Y-185385771D01*
X179720057Y-184885771D02*
X179648628Y-184957200D01*
X179720057Y-185028628D01*
X179791485Y-184957200D01*
X179720057Y-184885771D01*
X179720057Y-185028628D01*
X180648628Y-186385771D02*
X180505771Y-186314342D01*
X180434342Y-186171485D01*
X180434342Y-184885771D01*
X181791485Y-186314342D02*
X181648628Y-186385771D01*
X181362914Y-186385771D01*
X181220057Y-186314342D01*
X181148628Y-186171485D01*
X181148628Y-185600057D01*
X181220057Y-185457200D01*
X181362914Y-185385771D01*
X181648628Y-185385771D01*
X181791485Y-185457200D01*
X181862914Y-185600057D01*
X181862914Y-185742914D01*
X181148628Y-185885771D01*
X182505771Y-186242914D02*
X182577200Y-186314342D01*
X182505771Y-186385771D01*
X182434342Y-186314342D01*
X182505771Y-186242914D01*
X182505771Y-186385771D01*
X182505771Y-185457200D02*
X182577200Y-185528628D01*
X182505771Y-185600057D01*
X182434342Y-185528628D01*
X182505771Y-185457200D01*
X182505771Y-185600057D01*
X185005771Y-186314342D02*
X184862914Y-186385771D01*
X184577200Y-186385771D01*
X184434342Y-186314342D01*
X184362914Y-186242914D01*
X184291485Y-186100057D01*
X184291485Y-185671485D01*
X184362914Y-185528628D01*
X184434342Y-185457200D01*
X184577200Y-185385771D01*
X184862914Y-185385771D01*
X185005771Y-185457200D01*
X185648628Y-186385771D02*
X185648628Y-184885771D01*
X186291485Y-186385771D02*
X186291485Y-185600057D01*
X186220057Y-185457200D01*
X186077200Y-185385771D01*
X185862914Y-185385771D01*
X185720057Y-185457200D01*
X185648628Y-185528628D01*
X187648628Y-185385771D02*
X187648628Y-186385771D01*
X187005771Y-185385771D02*
X187005771Y-186171485D01*
X187077200Y-186314342D01*
X187220057Y-186385771D01*
X187434342Y-186385771D01*
X187577200Y-186314342D01*
X187648628Y-186242914D01*
X188362914Y-186385771D02*
X188362914Y-184885771D01*
X188362914Y-185457200D02*
X188505771Y-185385771D01*
X188791485Y-185385771D01*
X188934342Y-185457200D01*
X189005771Y-185528628D01*
X189077200Y-185671485D01*
X189077200Y-186100057D01*
X189005771Y-186242914D01*
X188934342Y-186314342D01*
X188791485Y-186385771D01*
X188505771Y-186385771D01*
X188362914Y-186314342D01*
X189720057Y-186385771D02*
X189720057Y-184885771D01*
X189720057Y-185457200D02*
X189862914Y-185385771D01*
X190148628Y-185385771D01*
X190291485Y-185457200D01*
X190362914Y-185528628D01*
X190434342Y-185671485D01*
X190434342Y-186100057D01*
X190362914Y-186242914D01*
X190291485Y-186314342D01*
X190148628Y-186385771D01*
X189862914Y-186385771D01*
X189720057Y-186314342D01*
X190934342Y-185385771D02*
X191291485Y-186385771D01*
X191648628Y-185385771D02*
X191291485Y-186385771D01*
X191148628Y-186742914D01*
X191077200Y-186814342D01*
X190934342Y-186885771D01*
X193362914Y-186385771D02*
X193362914Y-184885771D01*
X194005771Y-186385771D02*
X194005771Y-185600057D01*
X193934342Y-185457200D01*
X193791485Y-185385771D01*
X193577200Y-185385771D01*
X193434342Y-185457200D01*
X193362914Y-185528628D01*
X195362914Y-186385771D02*
X195362914Y-185600057D01*
X195291485Y-185457200D01*
X195148628Y-185385771D01*
X194862914Y-185385771D01*
X194720057Y-185457200D01*
X195362914Y-186314342D02*
X195220057Y-186385771D01*
X194862914Y-186385771D01*
X194720057Y-186314342D01*
X194648628Y-186171485D01*
X194648628Y-186028628D01*
X194720057Y-185885771D01*
X194862914Y-185814342D01*
X195220057Y-185814342D01*
X195362914Y-185742914D01*
X195862914Y-185385771D02*
X196434342Y-185385771D01*
X196077200Y-184885771D02*
X196077200Y-186171485D01*
X196148628Y-186314342D01*
X196291485Y-186385771D01*
X196434342Y-186385771D01*
X196934342Y-186242914D02*
X197005771Y-186314342D01*
X196934342Y-186385771D01*
X196862914Y-186314342D01*
X196934342Y-186242914D01*
X196934342Y-186385771D01*
X197648628Y-186385771D02*
X197648628Y-184885771D01*
X197791485Y-185814342D02*
X198220057Y-186385771D01*
X198220057Y-185385771D02*
X197648628Y-185957200D01*
X198862914Y-186385771D02*
X198862914Y-185385771D01*
X198862914Y-184885771D02*
X198791485Y-184957200D01*
X198862914Y-185028628D01*
X198934342Y-184957200D01*
X198862914Y-184885771D01*
X198862914Y-185028628D01*
X200220057Y-186314342D02*
X200077200Y-186385771D01*
X199791485Y-186385771D01*
X199648628Y-186314342D01*
X199577200Y-186242914D01*
X199505771Y-186100057D01*
X199505771Y-185671485D01*
X199577200Y-185528628D01*
X199648628Y-185457200D01*
X199791485Y-185385771D01*
X200077200Y-185385771D01*
X200220057Y-185457200D01*
X201505771Y-186385771D02*
X201505771Y-185600057D01*
X201434342Y-185457200D01*
X201291485Y-185385771D01*
X201005771Y-185385771D01*
X200862914Y-185457200D01*
X201505771Y-186314342D02*
X201362914Y-186385771D01*
X201005771Y-186385771D01*
X200862914Y-186314342D01*
X200791485Y-186171485D01*
X200791485Y-186028628D01*
X200862914Y-185885771D01*
X201005771Y-185814342D01*
X201362914Y-185814342D01*
X201505771Y-185742914D01*
X202862914Y-186385771D02*
X202862914Y-184885771D01*
X202862914Y-186314342D02*
X202720057Y-186385771D01*
X202434342Y-186385771D01*
X202291485Y-186314342D01*
X202220057Y-186242914D01*
X202148628Y-186100057D01*
X202148628Y-185671485D01*
X202220057Y-185528628D01*
X202291485Y-185457200D01*
X202434342Y-185385771D01*
X202720057Y-185385771D01*
X202862914Y-185457200D01*
X203220057Y-186528628D02*
X204362914Y-186528628D01*
X204720057Y-185385771D02*
X204720057Y-186885771D01*
X204720057Y-185457200D02*
X204862914Y-185385771D01*
X205148628Y-185385771D01*
X205291485Y-185457200D01*
X205362914Y-185528628D01*
X205434342Y-185671485D01*
X205434342Y-186100057D01*
X205362914Y-186242914D01*
X205291485Y-186314342D01*
X205148628Y-186385771D01*
X204862914Y-186385771D01*
X204720057Y-186314342D01*
X206720057Y-186314342D02*
X206577200Y-186385771D01*
X206291485Y-186385771D01*
X206148628Y-186314342D01*
X206077200Y-186242914D01*
X206005771Y-186100057D01*
X206005771Y-185671485D01*
X206077200Y-185528628D01*
X206148628Y-185457200D01*
X206291485Y-185385771D01*
X206577200Y-185385771D01*
X206720057Y-185457200D01*
X207362914Y-186385771D02*
X207362914Y-184885771D01*
X207362914Y-185457200D02*
X207505771Y-185385771D01*
X207791485Y-185385771D01*
X207934342Y-185457200D01*
X208005771Y-185528628D01*
X208077200Y-185671485D01*
X208077200Y-186100057D01*
X208005771Y-186242914D01*
X207934342Y-186314342D01*
X207791485Y-186385771D01*
X207505771Y-186385771D01*
X207362914Y-186314342D01*
D10*
D11*
X177002200Y-181507200D02*
X285002200Y-181507200D01*
D10*
D11*
X178362914Y-183614342D02*
X178577200Y-183685771D01*
X178934342Y-183685771D01*
X179077200Y-183614342D01*
X179148628Y-183542914D01*
X179220057Y-183400057D01*
X179220057Y-183257200D01*
X179148628Y-183114342D01*
X179077200Y-183042914D01*
X178934342Y-182971485D01*
X178648628Y-182900057D01*
X178505771Y-182828628D01*
X178434342Y-182757200D01*
X178362914Y-182614342D01*
X178362914Y-182471485D01*
X178434342Y-182328628D01*
X178505771Y-182257200D01*
X178648628Y-182185771D01*
X179005771Y-182185771D01*
X179220057Y-182257200D01*
X179862914Y-183685771D02*
X179862914Y-182185771D01*
X180505771Y-183685771D02*
X180505771Y-182900057D01*
X180434342Y-182757200D01*
X180291485Y-182685771D01*
X180077200Y-182685771D01*
X179934342Y-182757200D01*
X179862914Y-182828628D01*
X181791485Y-183614342D02*
X181648628Y-183685771D01*
X181362914Y-183685771D01*
X181220057Y-183614342D01*
X181148628Y-183471485D01*
X181148628Y-182900057D01*
X181220057Y-182757200D01*
X181362914Y-182685771D01*
X181648628Y-182685771D01*
X181791485Y-182757200D01*
X181862914Y-182900057D01*
X181862914Y-183042914D01*
X181148628Y-183185771D01*
X183077200Y-183614342D02*
X182934342Y-183685771D01*
X182648628Y-183685771D01*
X182505771Y-183614342D01*
X182434342Y-183471485D01*
X182434342Y-182900057D01*
X182505771Y-182757200D01*
X182648628Y-182685771D01*
X182934342Y-182685771D01*
X183077200Y-182757200D01*
X183148628Y-182900057D01*
X183148628Y-183042914D01*
X182434342Y-183185771D01*
X183577200Y-182685771D02*
X184148628Y-182685771D01*
X183791485Y-182185771D02*
X183791485Y-183471485D01*
X183862914Y-183614342D01*
X184005771Y-183685771D01*
X184148628Y-183685771D01*
X184648628Y-183542914D02*
X184720057Y-183614342D01*
X184648628Y-183685771D01*
X184577200Y-183614342D01*
X184648628Y-183542914D01*
X184648628Y-183685771D01*
X184648628Y-182757200D02*
X184720057Y-182828628D01*
X184648628Y-182900057D01*
X184577200Y-182828628D01*
X184648628Y-182757200D01*
X184648628Y-182900057D01*
D10*
D12*
D10*
D11*
D10*
D11*
D10*
D11*
D10*
D11*
D10*
D11*
X197002200Y-191507200D02*
X197002200Y-194507200D01*
D10*
D11*
X261002200Y-191507200D02*
X261002200Y-198007200D01*
%TO.C,C24*%
G36*
G01*
X163493750Y-60130000D02*
X164006250Y-60130000D01*
G75*
G02*
X164225000Y-60348750I0J-218750D01*
G01*
X164225000Y-60786250D01*
G75*
G02*
X164006250Y-61005000I-218750J0D01*
G01*
X163493750Y-61005000D01*
G75*
G02*
X163275000Y-60786250I0J218750D01*
G01*
X163275000Y-60348750D01*
G75*
G02*
X163493750Y-60130000I218750J0D01*
G01*
G37*
G36*
G01*
X163493750Y-58555000D02*
X164006250Y-58555000D01*
G75*
G02*
X164225000Y-58773750I0J-218750D01*
G01*
X164225000Y-59211250D01*
G75*
G02*
X164006250Y-59430000I-218750J0D01*
G01*
X163493750Y-59430000D01*
G75*
G02*
X163275000Y-59211250I0J218750D01*
G01*
X163275000Y-58773750D01*
G75*
G02*
X163493750Y-58555000I218750J0D01*
G01*
G37*
%TD*%
%TO.C,R15*%
G36*
G01*
X158006250Y-88430000D02*
X157493750Y-88430000D01*
G75*
G02*
X157275000Y-88211250I0J218750D01*
G01*
X157275000Y-87773750D01*
G75*
G02*
X157493750Y-87555000I218750J0D01*
G01*
X158006250Y-87555000D01*
G75*
G02*
X158225000Y-87773750I0J-218750D01*
G01*
X158225000Y-88211250D01*
G75*
G02*
X158006250Y-88430000I-218750J0D01*
G01*
G37*
G36*
G01*
X158006250Y-90005000D02*
X157493750Y-90005000D01*
G75*
G02*
X157275000Y-89786250I0J218750D01*
G01*
X157275000Y-89348750D01*
G75*
G02*
X157493750Y-89130000I218750J0D01*
G01*
X158006250Y-89130000D01*
G75*
G02*
X158225000Y-89348750I0J-218750D01*
G01*
X158225000Y-89786250D01*
G75*
G02*
X158006250Y-90005000I-218750J0D01*
G01*
G37*
%TD*%
%TO.C,C23*%
G36*
G01*
X159493750Y-89130000D02*
X160006250Y-89130000D01*
G75*
G02*
X160225000Y-89348750I0J-218750D01*
G01*
X160225000Y-89786250D01*
G75*
G02*
X160006250Y-90005000I-218750J0D01*
G01*
X159493750Y-90005000D01*
G75*
G02*
X159275000Y-89786250I0J218750D01*
G01*
X159275000Y-89348750D01*
G75*
G02*
X159493750Y-89130000I218750J0D01*
G01*
G37*
G36*
G01*
X159493750Y-87555000D02*
X160006250Y-87555000D01*
G75*
G02*
X160225000Y-87773750I0J-218750D01*
G01*
X160225000Y-88211250D01*
G75*
G02*
X160006250Y-88430000I-218750J0D01*
G01*
X159493750Y-88430000D01*
G75*
G02*
X159275000Y-88211250I0J218750D01*
G01*
X159275000Y-87773750D01*
G75*
G02*
X159493750Y-87555000I218750J0D01*
G01*
G37*
%TD*%
%TO.C,R20*%
G36*
G01*
X154493750Y-59130000D02*
X155006250Y-59130000D01*
G75*
G02*
X155225000Y-59348750I0J-218750D01*
G01*
X155225000Y-59786250D01*
G75*
G02*
X155006250Y-60005000I-218750J0D01*
G01*
X154493750Y-60005000D01*
G75*
G02*
X154275000Y-59786250I0J218750D01*
G01*
X154275000Y-59348750D01*
G75*
G02*
X154493750Y-59130000I218750J0D01*
G01*
G37*
G36*
G01*
X154493750Y-57555000D02*
X155006250Y-57555000D01*
G75*
G02*
X155225000Y-57773750I0J-218750D01*
G01*
X155225000Y-58211250D01*
G75*
G02*
X155006250Y-58430000I-218750J0D01*
G01*
X154493750Y-58430000D01*
G75*
G02*
X154275000Y-58211250I0J218750D01*
G01*
X154275000Y-57773750D01*
G75*
G02*
X154493750Y-57555000I218750J0D01*
G01*
G37*
%TD*%
%TO.C,R19*%
G36*
G01*
X155506250Y-73430000D02*
X154993750Y-73430000D01*
G75*
G02*
X154775000Y-73211250I0J218750D01*
G01*
X154775000Y-72773750D01*
G75*
G02*
X154993750Y-72555000I218750J0D01*
G01*
X155506250Y-72555000D01*
G75*
G02*
X155725000Y-72773750I0J-218750D01*
G01*
X155725000Y-73211250D01*
G75*
G02*
X155506250Y-73430000I-218750J0D01*
G01*
G37*
G36*
G01*
X155506250Y-75005000D02*
X154993750Y-75005000D01*
G75*
G02*
X154775000Y-74786250I0J218750D01*
G01*
X154775000Y-74348750D01*
G75*
G02*
X154993750Y-74130000I218750J0D01*
G01*
X155506250Y-74130000D01*
G75*
G02*
X155725000Y-74348750I0J-218750D01*
G01*
X155725000Y-74786250D01*
G75*
G02*
X155506250Y-75005000I-218750J0D01*
G01*
G37*
%TD*%
D14*
%TO.C,U4*%
X148300000Y-80430000D03*
X143700000Y-80430000D03*
X146000000Y-80430000D03*
D15*
X146000000Y-74130000D03*
%TD*%
%TO.C,U3*%
G36*
G01*
X161900000Y-93455000D02*
X161900000Y-93605000D01*
G75*
G02*
X161825000Y-93680000I-75000J0D01*
G01*
X160500000Y-93680000D01*
G75*
G02*
X160425000Y-93605000I0J75000D01*
G01*
X160425000Y-93455000D01*
G75*
G02*
X160500000Y-93380000I75000J0D01*
G01*
X161825000Y-93380000D01*
G75*
G02*
X161900000Y-93455000I0J-75000D01*
G01*
G37*
G36*
G01*
X161900000Y-93955000D02*
X161900000Y-94105000D01*
G75*
G02*
X161825000Y-94180000I-75000J0D01*
G01*
X160500000Y-94180000D01*
G75*
G02*
X160425000Y-94105000I0J75000D01*
G01*
X160425000Y-93955000D01*
G75*
G02*
X160500000Y-93880000I75000J0D01*
G01*
X161825000Y-93880000D01*
G75*
G02*
X161900000Y-93955000I0J-75000D01*
G01*
G37*
G36*
G01*
X161900000Y-94455000D02*
X161900000Y-94605000D01*
G75*
G02*
X161825000Y-94680000I-75000J0D01*
G01*
X160500000Y-94680000D01*
G75*
G02*
X160425000Y-94605000I0J75000D01*
G01*
X160425000Y-94455000D01*
G75*
G02*
X160500000Y-94380000I75000J0D01*
G01*
X161825000Y-94380000D01*
G75*
G02*
X161900000Y-94455000I0J-75000D01*
G01*
G37*
G36*
G01*
X161900000Y-94955000D02*
X161900000Y-95105000D01*
G75*
G02*
X161825000Y-95180000I-75000J0D01*
G01*
X160500000Y-95180000D01*
G75*
G02*
X160425000Y-95105000I0J75000D01*
G01*
X160425000Y-94955000D01*
G75*
G02*
X160500000Y-94880000I75000J0D01*
G01*
X161825000Y-94880000D01*
G75*
G02*
X161900000Y-94955000I0J-75000D01*
G01*
G37*
G36*
G01*
X161900000Y-95455000D02*
X161900000Y-95605000D01*
G75*
G02*
X161825000Y-95680000I-75000J0D01*
G01*
X160500000Y-95680000D01*
G75*
G02*
X160425000Y-95605000I0J75000D01*
G01*
X160425000Y-95455000D01*
G75*
G02*
X160500000Y-95380000I75000J0D01*
G01*
X161825000Y-95380000D01*
G75*
G02*
X161900000Y-95455000I0J-75000D01*
G01*
G37*
G36*
G01*
X161900000Y-95955000D02*
X161900000Y-96105000D01*
G75*
G02*
X161825000Y-96180000I-75000J0D01*
G01*
X160500000Y-96180000D01*
G75*
G02*
X160425000Y-96105000I0J75000D01*
G01*
X160425000Y-95955000D01*
G75*
G02*
X160500000Y-95880000I75000J0D01*
G01*
X161825000Y-95880000D01*
G75*
G02*
X161900000Y-95955000I0J-75000D01*
G01*
G37*
G36*
G01*
X161900000Y-96455000D02*
X161900000Y-96605000D01*
G75*
G02*
X161825000Y-96680000I-75000J0D01*
G01*
X160500000Y-96680000D01*
G75*
G02*
X160425000Y-96605000I0J75000D01*
G01*
X160425000Y-96455000D01*
G75*
G02*
X160500000Y-96380000I75000J0D01*
G01*
X161825000Y-96380000D01*
G75*
G02*
X161900000Y-96455000I0J-75000D01*
G01*
G37*
G36*
G01*
X161900000Y-96955000D02*
X161900000Y-97105000D01*
G75*
G02*
X161825000Y-97180000I-75000J0D01*
G01*
X160500000Y-97180000D01*
G75*
G02*
X160425000Y-97105000I0J75000D01*
G01*
X160425000Y-96955000D01*
G75*
G02*
X160500000Y-96880000I75000J0D01*
G01*
X161825000Y-96880000D01*
G75*
G02*
X161900000Y-96955000I0J-75000D01*
G01*
G37*
G36*
G01*
X161900000Y-97455000D02*
X161900000Y-97605000D01*
G75*
G02*
X161825000Y-97680000I-75000J0D01*
G01*
X160500000Y-97680000D01*
G75*
G02*
X160425000Y-97605000I0J75000D01*
G01*
X160425000Y-97455000D01*
G75*
G02*
X160500000Y-97380000I75000J0D01*
G01*
X161825000Y-97380000D01*
G75*
G02*
X161900000Y-97455000I0J-75000D01*
G01*
G37*
G36*
G01*
X161900000Y-97955000D02*
X161900000Y-98105000D01*
G75*
G02*
X161825000Y-98180000I-75000J0D01*
G01*
X160500000Y-98180000D01*
G75*
G02*
X160425000Y-98105000I0J75000D01*
G01*
X160425000Y-97955000D01*
G75*
G02*
X160500000Y-97880000I75000J0D01*
G01*
X161825000Y-97880000D01*
G75*
G02*
X161900000Y-97955000I0J-75000D01*
G01*
G37*
G36*
G01*
X161900000Y-98455000D02*
X161900000Y-98605000D01*
G75*
G02*
X161825000Y-98680000I-75000J0D01*
G01*
X160500000Y-98680000D01*
G75*
G02*
X160425000Y-98605000I0J75000D01*
G01*
X160425000Y-98455000D01*
G75*
G02*
X160500000Y-98380000I75000J0D01*
G01*
X161825000Y-98380000D01*
G75*
G02*
X161900000Y-98455000I0J-75000D01*
G01*
G37*
G36*
G01*
X161900000Y-98955000D02*
X161900000Y-99105000D01*
G75*
G02*
X161825000Y-99180000I-75000J0D01*
G01*
X160500000Y-99180000D01*
G75*
G02*
X160425000Y-99105000I0J75000D01*
G01*
X160425000Y-98955000D01*
G75*
G02*
X160500000Y-98880000I75000J0D01*
G01*
X161825000Y-98880000D01*
G75*
G02*
X161900000Y-98955000I0J-75000D01*
G01*
G37*
G36*
G01*
X159900000Y-99780000D02*
X159900000Y-101105000D01*
G75*
G02*
X159825000Y-101180000I-75000J0D01*
G01*
X159675000Y-101180000D01*
G75*
G02*
X159600000Y-101105000I0J75000D01*
G01*
X159600000Y-99780000D01*
G75*
G02*
X159675000Y-99705000I75000J0D01*
G01*
X159825000Y-99705000D01*
G75*
G02*
X159900000Y-99780000I0J-75000D01*
G01*
G37*
G36*
G01*
X159400000Y-99780000D02*
X159400000Y-101105000D01*
G75*
G02*
X159325000Y-101180000I-75000J0D01*
G01*
X159175000Y-101180000D01*
G75*
G02*
X159100000Y-101105000I0J75000D01*
G01*
X159100000Y-99780000D01*
G75*
G02*
X159175000Y-99705000I75000J0D01*
G01*
X159325000Y-99705000D01*
G75*
G02*
X159400000Y-99780000I0J-75000D01*
G01*
G37*
G36*
G01*
X158900000Y-99780000D02*
X158900000Y-101105000D01*
G75*
G02*
X158825000Y-101180000I-75000J0D01*
G01*
X158675000Y-101180000D01*
G75*
G02*
X158600000Y-101105000I0J75000D01*
G01*
X158600000Y-99780000D01*
G75*
G02*
X158675000Y-99705000I75000J0D01*
G01*
X158825000Y-99705000D01*
G75*
G02*
X158900000Y-99780000I0J-75000D01*
G01*
G37*
G36*
G01*
X158400000Y-99780000D02*
X158400000Y-101105000D01*
G75*
G02*
X158325000Y-101180000I-75000J0D01*
G01*
X158175000Y-101180000D01*
G75*
G02*
X158100000Y-101105000I0J75000D01*
G01*
X158100000Y-99780000D01*
G75*
G02*
X158175000Y-99705000I75000J0D01*
G01*
X158325000Y-99705000D01*
G75*
G02*
X158400000Y-99780000I0J-75000D01*
G01*
G37*
G36*
G01*
X157900000Y-99780000D02*
X157900000Y-101105000D01*
G75*
G02*
X157825000Y-101180000I-75000J0D01*
G01*
X157675000Y-101180000D01*
G75*
G02*
X157600000Y-101105000I0J75000D01*
G01*
X157600000Y-99780000D01*
G75*
G02*
X157675000Y-99705000I75000J0D01*
G01*
X157825000Y-99705000D01*
G75*
G02*
X157900000Y-99780000I0J-75000D01*
G01*
G37*
G36*
G01*
X157400000Y-99780000D02*
X157400000Y-101105000D01*
G75*
G02*
X157325000Y-101180000I-75000J0D01*
G01*
X157175000Y-101180000D01*
G75*
G02*
X157100000Y-101105000I0J75000D01*
G01*
X157100000Y-99780000D01*
G75*
G02*
X157175000Y-99705000I75000J0D01*
G01*
X157325000Y-99705000D01*
G75*
G02*
X157400000Y-99780000I0J-75000D01*
G01*
G37*
G36*
G01*
X156900000Y-99780000D02*
X156900000Y-101105000D01*
G75*
G02*
X156825000Y-101180000I-75000J0D01*
G01*
X156675000Y-101180000D01*
G75*
G02*
X156600000Y-101105000I0J75000D01*
G01*
X156600000Y-99780000D01*
G75*
G02*
X156675000Y-99705000I75000J0D01*
G01*
X156825000Y-99705000D01*
G75*
G02*
X156900000Y-99780000I0J-75000D01*
G01*
G37*
G36*
G01*
X156400000Y-99780000D02*
X156400000Y-101105000D01*
G75*
G02*
X156325000Y-101180000I-75000J0D01*
G01*
X156175000Y-101180000D01*
G75*
G02*
X156100000Y-101105000I0J75000D01*
G01*
X156100000Y-99780000D01*
G75*
G02*
X156175000Y-99705000I75000J0D01*
G01*
X156325000Y-99705000D01*
G75*
G02*
X156400000Y-99780000I0J-75000D01*
G01*
G37*
G36*
G01*
X155900000Y-99780000D02*
X155900000Y-101105000D01*
G75*
G02*
X155825000Y-101180000I-75000J0D01*
G01*
X155675000Y-101180000D01*
G75*
G02*
X155600000Y-101105000I0J75000D01*
G01*
X155600000Y-99780000D01*
G75*
G02*
X155675000Y-99705000I75000J0D01*
G01*
X155825000Y-99705000D01*
G75*
G02*
X155900000Y-99780000I0J-75000D01*
G01*
G37*
G36*
G01*
X155400000Y-99780000D02*
X155400000Y-101105000D01*
G75*
G02*
X155325000Y-101180000I-75000J0D01*
G01*
X155175000Y-101180000D01*
G75*
G02*
X155100000Y-101105000I0J75000D01*
G01*
X155100000Y-99780000D01*
G75*
G02*
X155175000Y-99705000I75000J0D01*
G01*
X155325000Y-99705000D01*
G75*
G02*
X155400000Y-99780000I0J-75000D01*
G01*
G37*
G36*
G01*
X154900000Y-99780000D02*
X154900000Y-101105000D01*
G75*
G02*
X154825000Y-101180000I-75000J0D01*
G01*
X154675000Y-101180000D01*
G75*
G02*
X154600000Y-101105000I0J75000D01*
G01*
X154600000Y-99780000D01*
G75*
G02*
X154675000Y-99705000I75000J0D01*
G01*
X154825000Y-99705000D01*
G75*
G02*
X154900000Y-99780000I0J-75000D01*
G01*
G37*
G36*
G01*
X154400000Y-99780000D02*
X154400000Y-101105000D01*
G75*
G02*
X154325000Y-101180000I-75000J0D01*
G01*
X154175000Y-101180000D01*
G75*
G02*
X154100000Y-101105000I0J75000D01*
G01*
X154100000Y-99780000D01*
G75*
G02*
X154175000Y-99705000I75000J0D01*
G01*
X154325000Y-99705000D01*
G75*
G02*
X154400000Y-99780000I0J-75000D01*
G01*
G37*
G36*
G01*
X153575000Y-98955000D02*
X153575000Y-99105000D01*
G75*
G02*
X153500000Y-99180000I-75000J0D01*
G01*
X152175000Y-99180000D01*
G75*
G02*
X152100000Y-99105000I0J75000D01*
G01*
X152100000Y-98955000D01*
G75*
G02*
X152175000Y-98880000I75000J0D01*
G01*
X153500000Y-98880000D01*
G75*
G02*
X153575000Y-98955000I0J-75000D01*
G01*
G37*
G36*
G01*
X153575000Y-98455000D02*
X153575000Y-98605000D01*
G75*
G02*
X153500000Y-98680000I-75000J0D01*
G01*
X152175000Y-98680000D01*
G75*
G02*
X152100000Y-98605000I0J75000D01*
G01*
X152100000Y-98455000D01*
G75*
G02*
X152175000Y-98380000I75000J0D01*
G01*
X153500000Y-98380000D01*
G75*
G02*
X153575000Y-98455000I0J-75000D01*
G01*
G37*
G36*
G01*
X153575000Y-97955000D02*
X153575000Y-98105000D01*
G75*
G02*
X153500000Y-98180000I-75000J0D01*
G01*
X152175000Y-98180000D01*
G75*
G02*
X152100000Y-98105000I0J75000D01*
G01*
X152100000Y-97955000D01*
G75*
G02*
X152175000Y-97880000I75000J0D01*
G01*
X153500000Y-97880000D01*
G75*
G02*
X153575000Y-97955000I0J-75000D01*
G01*
G37*
G36*
G01*
X153575000Y-97455000D02*
X153575000Y-97605000D01*
G75*
G02*
X153500000Y-97680000I-75000J0D01*
G01*
X152175000Y-97680000D01*
G75*
G02*
X152100000Y-97605000I0J75000D01*
G01*
X152100000Y-97455000D01*
G75*
G02*
X152175000Y-97380000I75000J0D01*
G01*
X153500000Y-97380000D01*
G75*
G02*
X153575000Y-97455000I0J-75000D01*
G01*
G37*
G36*
G01*
X153575000Y-96955000D02*
X153575000Y-97105000D01*
G75*
G02*
X153500000Y-97180000I-75000J0D01*
G01*
X152175000Y-97180000D01*
G75*
G02*
X152100000Y-97105000I0J75000D01*
G01*
X152100000Y-96955000D01*
G75*
G02*
X152175000Y-96880000I75000J0D01*
G01*
X153500000Y-96880000D01*
G75*
G02*
X153575000Y-96955000I0J-75000D01*
G01*
G37*
G36*
G01*
X153575000Y-96455000D02*
X153575000Y-96605000D01*
G75*
G02*
X153500000Y-96680000I-75000J0D01*
G01*
X152175000Y-96680000D01*
G75*
G02*
X152100000Y-96605000I0J75000D01*
G01*
X152100000Y-96455000D01*
G75*
G02*
X152175000Y-96380000I75000J0D01*
G01*
X153500000Y-96380000D01*
G75*
G02*
X153575000Y-96455000I0J-75000D01*
G01*
G37*
G36*
G01*
X153575000Y-95955000D02*
X153575000Y-96105000D01*
G75*
G02*
X153500000Y-96180000I-75000J0D01*
G01*
X152175000Y-96180000D01*
G75*
G02*
X152100000Y-96105000I0J75000D01*
G01*
X152100000Y-95955000D01*
G75*
G02*
X152175000Y-95880000I75000J0D01*
G01*
X153500000Y-95880000D01*
G75*
G02*
X153575000Y-95955000I0J-75000D01*
G01*
G37*
G36*
G01*
X153575000Y-95455000D02*
X153575000Y-95605000D01*
G75*
G02*
X153500000Y-95680000I-75000J0D01*
G01*
X152175000Y-95680000D01*
G75*
G02*
X152100000Y-95605000I0J75000D01*
G01*
X152100000Y-95455000D01*
G75*
G02*
X152175000Y-95380000I75000J0D01*
G01*
X153500000Y-95380000D01*
G75*
G02*
X153575000Y-95455000I0J-75000D01*
G01*
G37*
G36*
G01*
X153575000Y-94955000D02*
X153575000Y-95105000D01*
G75*
G02*
X153500000Y-95180000I-75000J0D01*
G01*
X152175000Y-95180000D01*
G75*
G02*
X152100000Y-95105000I0J75000D01*
G01*
X152100000Y-94955000D01*
G75*
G02*
X152175000Y-94880000I75000J0D01*
G01*
X153500000Y-94880000D01*
G75*
G02*
X153575000Y-94955000I0J-75000D01*
G01*
G37*
G36*
G01*
X153575000Y-94455000D02*
X153575000Y-94605000D01*
G75*
G02*
X153500000Y-94680000I-75000J0D01*
G01*
X152175000Y-94680000D01*
G75*
G02*
X152100000Y-94605000I0J75000D01*
G01*
X152100000Y-94455000D01*
G75*
G02*
X152175000Y-94380000I75000J0D01*
G01*
X153500000Y-94380000D01*
G75*
G02*
X153575000Y-94455000I0J-75000D01*
G01*
G37*
G36*
G01*
X153575000Y-93955000D02*
X153575000Y-94105000D01*
G75*
G02*
X153500000Y-94180000I-75000J0D01*
G01*
X152175000Y-94180000D01*
G75*
G02*
X152100000Y-94105000I0J75000D01*
G01*
X152100000Y-93955000D01*
G75*
G02*
X152175000Y-93880000I75000J0D01*
G01*
X153500000Y-93880000D01*
G75*
G02*
X153575000Y-93955000I0J-75000D01*
G01*
G37*
G36*
G01*
X153575000Y-93455000D02*
X153575000Y-93605000D01*
G75*
G02*
X153500000Y-93680000I-75000J0D01*
G01*
X152175000Y-93680000D01*
G75*
G02*
X152100000Y-93605000I0J75000D01*
G01*
X152100000Y-93455000D01*
G75*
G02*
X152175000Y-93380000I75000J0D01*
G01*
X153500000Y-93380000D01*
G75*
G02*
X153575000Y-93455000I0J-75000D01*
G01*
G37*
G36*
G01*
X154400000Y-91455000D02*
X154400000Y-92780000D01*
G75*
G02*
X154325000Y-92855000I-75000J0D01*
G01*
X154175000Y-92855000D01*
G75*
G02*
X154100000Y-92780000I0J75000D01*
G01*
X154100000Y-91455000D01*
G75*
G02*
X154175000Y-91380000I75000J0D01*
G01*
X154325000Y-91380000D01*
G75*
G02*
X154400000Y-91455000I0J-75000D01*
G01*
G37*
G36*
G01*
X154900000Y-91455000D02*
X154900000Y-92780000D01*
G75*
G02*
X154825000Y-92855000I-75000J0D01*
G01*
X154675000Y-92855000D01*
G75*
G02*
X154600000Y-92780000I0J75000D01*
G01*
X154600000Y-91455000D01*
G75*
G02*
X154675000Y-91380000I75000J0D01*
G01*
X154825000Y-91380000D01*
G75*
G02*
X154900000Y-91455000I0J-75000D01*
G01*
G37*
G36*
G01*
X155400000Y-91455000D02*
X155400000Y-92780000D01*
G75*
G02*
X155325000Y-92855000I-75000J0D01*
G01*
X155175000Y-92855000D01*
G75*
G02*
X155100000Y-92780000I0J75000D01*
G01*
X155100000Y-91455000D01*
G75*
G02*
X155175000Y-91380000I75000J0D01*
G01*
X155325000Y-91380000D01*
G75*
G02*
X155400000Y-91455000I0J-75000D01*
G01*
G37*
G36*
G01*
X155900000Y-91455000D02*
X155900000Y-92780000D01*
G75*
G02*
X155825000Y-92855000I-75000J0D01*
G01*
X155675000Y-92855000D01*
G75*
G02*
X155600000Y-92780000I0J75000D01*
G01*
X155600000Y-91455000D01*
G75*
G02*
X155675000Y-91380000I75000J0D01*
G01*
X155825000Y-91380000D01*
G75*
G02*
X155900000Y-91455000I0J-75000D01*
G01*
G37*
G36*
G01*
X156400000Y-91455000D02*
X156400000Y-92780000D01*
G75*
G02*
X156325000Y-92855000I-75000J0D01*
G01*
X156175000Y-92855000D01*
G75*
G02*
X156100000Y-92780000I0J75000D01*
G01*
X156100000Y-91455000D01*
G75*
G02*
X156175000Y-91380000I75000J0D01*
G01*
X156325000Y-91380000D01*
G75*
G02*
X156400000Y-91455000I0J-75000D01*
G01*
G37*
G36*
G01*
X156900000Y-91455000D02*
X156900000Y-92780000D01*
G75*
G02*
X156825000Y-92855000I-75000J0D01*
G01*
X156675000Y-92855000D01*
G75*
G02*
X156600000Y-92780000I0J75000D01*
G01*
X156600000Y-91455000D01*
G75*
G02*
X156675000Y-91380000I75000J0D01*
G01*
X156825000Y-91380000D01*
G75*
G02*
X156900000Y-91455000I0J-75000D01*
G01*
G37*
G36*
G01*
X157400000Y-91455000D02*
X157400000Y-92780000D01*
G75*
G02*
X157325000Y-92855000I-75000J0D01*
G01*
X157175000Y-92855000D01*
G75*
G02*
X157100000Y-92780000I0J75000D01*
G01*
X157100000Y-91455000D01*
G75*
G02*
X157175000Y-91380000I75000J0D01*
G01*
X157325000Y-91380000D01*
G75*
G02*
X157400000Y-91455000I0J-75000D01*
G01*
G37*
G36*
G01*
X157900000Y-91455000D02*
X157900000Y-92780000D01*
G75*
G02*
X157825000Y-92855000I-75000J0D01*
G01*
X157675000Y-92855000D01*
G75*
G02*
X157600000Y-92780000I0J75000D01*
G01*
X157600000Y-91455000D01*
G75*
G02*
X157675000Y-91380000I75000J0D01*
G01*
X157825000Y-91380000D01*
G75*
G02*
X157900000Y-91455000I0J-75000D01*
G01*
G37*
G36*
G01*
X158400000Y-91455000D02*
X158400000Y-92780000D01*
G75*
G02*
X158325000Y-92855000I-75000J0D01*
G01*
X158175000Y-92855000D01*
G75*
G02*
X158100000Y-92780000I0J75000D01*
G01*
X158100000Y-91455000D01*
G75*
G02*
X158175000Y-91380000I75000J0D01*
G01*
X158325000Y-91380000D01*
G75*
G02*
X158400000Y-91455000I0J-75000D01*
G01*
G37*
G36*
G01*
X158900000Y-91455000D02*
X158900000Y-92780000D01*
G75*
G02*
X158825000Y-92855000I-75000J0D01*
G01*
X158675000Y-92855000D01*
G75*
G02*
X158600000Y-92780000I0J75000D01*
G01*
X158600000Y-91455000D01*
G75*
G02*
X158675000Y-91380000I75000J0D01*
G01*
X158825000Y-91380000D01*
G75*
G02*
X158900000Y-91455000I0J-75000D01*
G01*
G37*
G36*
G01*
X159400000Y-91455000D02*
X159400000Y-92780000D01*
G75*
G02*
X159325000Y-92855000I-75000J0D01*
G01*
X159175000Y-92855000D01*
G75*
G02*
X159100000Y-92780000I0J75000D01*
G01*
X159100000Y-91455000D01*
G75*
G02*
X159175000Y-91380000I75000J0D01*
G01*
X159325000Y-91380000D01*
G75*
G02*
X159400000Y-91455000I0J-75000D01*
G01*
G37*
G36*
G01*
X159900000Y-91455000D02*
X159900000Y-92780000D01*
G75*
G02*
X159825000Y-92855000I-75000J0D01*
G01*
X159675000Y-92855000D01*
G75*
G02*
X159600000Y-92780000I0J75000D01*
G01*
X159600000Y-91455000D01*
G75*
G02*
X159675000Y-91380000I75000J0D01*
G01*
X159825000Y-91380000D01*
G75*
G02*
X159900000Y-91455000I0J-75000D01*
G01*
G37*
%TD*%
%TO.C,C20*%
G36*
G01*
X160006250Y-73430000D02*
X159493750Y-73430000D01*
G75*
G02*
X159275000Y-73211250I0J218750D01*
G01*
X159275000Y-72773750D01*
G75*
G02*
X159493750Y-72555000I218750J0D01*
G01*
X160006250Y-72555000D01*
G75*
G02*
X160225000Y-72773750I0J-218750D01*
G01*
X160225000Y-73211250D01*
G75*
G02*
X160006250Y-73430000I-218750J0D01*
G01*
G37*
G36*
G01*
X160006250Y-75005000D02*
X159493750Y-75005000D01*
G75*
G02*
X159275000Y-74786250I0J218750D01*
G01*
X159275000Y-74348750D01*
G75*
G02*
X159493750Y-74130000I218750J0D01*
G01*
X160006250Y-74130000D01*
G75*
G02*
X160225000Y-74348750I0J-218750D01*
G01*
X160225000Y-74786250D01*
G75*
G02*
X160006250Y-75005000I-218750J0D01*
G01*
G37*
%TD*%
%TO.C,FB1*%
G36*
G01*
X137650000Y-103023750D02*
X137650000Y-103536250D01*
G75*
G02*
X137431250Y-103755000I-218750J0D01*
G01*
X136993750Y-103755000D01*
G75*
G02*
X136775000Y-103536250I0J218750D01*
G01*
X136775000Y-103023750D01*
G75*
G02*
X136993750Y-102805000I218750J0D01*
G01*
X137431250Y-102805000D01*
G75*
G02*
X137650000Y-103023750I0J-218750D01*
G01*
G37*
G36*
G01*
X139225000Y-103023750D02*
X139225000Y-103536250D01*
G75*
G02*
X139006250Y-103755000I-218750J0D01*
G01*
X138568750Y-103755000D01*
G75*
G02*
X138350000Y-103536250I0J218750D01*
G01*
X138350000Y-103023750D01*
G75*
G02*
X138568750Y-102805000I218750J0D01*
G01*
X139006250Y-102805000D01*
G75*
G02*
X139225000Y-103023750I0J-218750D01*
G01*
G37*
%TD*%
%TO.C,R18*%
G36*
G01*
X161493750Y-74130000D02*
X162006250Y-74130000D01*
G75*
G02*
X162225000Y-74348750I0J-218750D01*
G01*
X162225000Y-74786250D01*
G75*
G02*
X162006250Y-75005000I-218750J0D01*
G01*
X161493750Y-75005000D01*
G75*
G02*
X161275000Y-74786250I0J218750D01*
G01*
X161275000Y-74348750D01*
G75*
G02*
X161493750Y-74130000I218750J0D01*
G01*
G37*
G36*
G01*
X161493750Y-72555000D02*
X162006250Y-72555000D01*
G75*
G02*
X162225000Y-72773750I0J-218750D01*
G01*
X162225000Y-73211250D01*
G75*
G02*
X162006250Y-73430000I-218750J0D01*
G01*
X161493750Y-73430000D01*
G75*
G02*
X161275000Y-73211250I0J218750D01*
G01*
X161275000Y-72773750D01*
G75*
G02*
X161493750Y-72555000I218750J0D01*
G01*
G37*
%TD*%
%TO.C,R17*%
G36*
G01*
X164006250Y-90005000D02*
X163493750Y-90005000D01*
G75*
G02*
X163275000Y-89786250I0J218750D01*
G01*
X163275000Y-89348750D01*
G75*
G02*
X163493750Y-89130000I218750J0D01*
G01*
X164006250Y-89130000D01*
G75*
G02*
X164225000Y-89348750I0J-218750D01*
G01*
X164225000Y-89786250D01*
G75*
G02*
X164006250Y-90005000I-218750J0D01*
G01*
G37*
G36*
G01*
X164006250Y-88430000D02*
X163493750Y-88430000D01*
G75*
G02*
X163275000Y-88211250I0J218750D01*
G01*
X163275000Y-87773750D01*
G75*
G02*
X163493750Y-87555000I218750J0D01*
G01*
X164006250Y-87555000D01*
G75*
G02*
X164225000Y-87773750I0J-218750D01*
G01*
X164225000Y-88211250D01*
G75*
G02*
X164006250Y-88430000I-218750J0D01*
G01*
G37*
%TD*%
%TO.C,C19*%
G36*
G01*
X164006250Y-73430000D02*
X163493750Y-73430000D01*
G75*
G02*
X163275000Y-73211250I0J218750D01*
G01*
X163275000Y-72773750D01*
G75*
G02*
X163493750Y-72555000I218750J0D01*
G01*
X164006250Y-72555000D01*
G75*
G02*
X164225000Y-72773750I0J-218750D01*
G01*
X164225000Y-73211250D01*
G75*
G02*
X164006250Y-73430000I-218750J0D01*
G01*
G37*
G36*
G01*
X164006250Y-75005000D02*
X163493750Y-75005000D01*
G75*
G02*
X163275000Y-74786250I0J218750D01*
G01*
X163275000Y-74348750D01*
G75*
G02*
X163493750Y-74130000I218750J0D01*
G01*
X164006250Y-74130000D01*
G75*
G02*
X164225000Y-74348750I0J-218750D01*
G01*
X164225000Y-74786250D01*
G75*
G02*
X164006250Y-75005000I-218750J0D01*
G01*
G37*
%TD*%
%TO.C,R13*%
G36*
G01*
X157993750Y-104130000D02*
X158506250Y-104130000D01*
G75*
G02*
X158725000Y-104348750I0J-218750D01*
G01*
X158725000Y-104786250D01*
G75*
G02*
X158506250Y-105005000I-218750J0D01*
G01*
X157993750Y-105005000D01*
G75*
G02*
X157775000Y-104786250I0J218750D01*
G01*
X157775000Y-104348750D01*
G75*
G02*
X157993750Y-104130000I218750J0D01*
G01*
G37*
G36*
G01*
X157993750Y-102555000D02*
X158506250Y-102555000D01*
G75*
G02*
X158725000Y-102773750I0J-218750D01*
G01*
X158725000Y-103211250D01*
G75*
G02*
X158506250Y-103430000I-218750J0D01*
G01*
X157993750Y-103430000D01*
G75*
G02*
X157775000Y-103211250I0J218750D01*
G01*
X157775000Y-102773750D01*
G75*
G02*
X157993750Y-102555000I218750J0D01*
G01*
G37*
%TD*%
D16*
%TO.C,Y2*%
X168000000Y-100030000D03*
X168000000Y-91530000D03*
%TD*%
%TO.C,Y1*%
X168000000Y-71030000D03*
X168000000Y-62530000D03*
%TD*%
%TO.C,C18*%
G36*
G01*
X164006250Y-69930000D02*
X163493750Y-69930000D01*
G75*
G02*
X163275000Y-69711250I0J218750D01*
G01*
X163275000Y-69273750D01*
G75*
G02*
X163493750Y-69055000I218750J0D01*
G01*
X164006250Y-69055000D01*
G75*
G02*
X164225000Y-69273750I0J-218750D01*
G01*
X164225000Y-69711250D01*
G75*
G02*
X164006250Y-69930000I-218750J0D01*
G01*
G37*
G36*
G01*
X164006250Y-71505000D02*
X163493750Y-71505000D01*
G75*
G02*
X163275000Y-71286250I0J218750D01*
G01*
X163275000Y-70848750D01*
G75*
G02*
X163493750Y-70630000I218750J0D01*
G01*
X164006250Y-70630000D01*
G75*
G02*
X164225000Y-70848750I0J-218750D01*
G01*
X164225000Y-71286250D01*
G75*
G02*
X164006250Y-71505000I-218750J0D01*
G01*
G37*
%TD*%
%TO.C,C17*%
G36*
G01*
X163493750Y-63630000D02*
X164006250Y-63630000D01*
G75*
G02*
X164225000Y-63848750I0J-218750D01*
G01*
X164225000Y-64286250D01*
G75*
G02*
X164006250Y-64505000I-218750J0D01*
G01*
X163493750Y-64505000D01*
G75*
G02*
X163275000Y-64286250I0J218750D01*
G01*
X163275000Y-63848750D01*
G75*
G02*
X163493750Y-63630000I218750J0D01*
G01*
G37*
G36*
G01*
X163493750Y-62055000D02*
X164006250Y-62055000D01*
G75*
G02*
X164225000Y-62273750I0J-218750D01*
G01*
X164225000Y-62711250D01*
G75*
G02*
X164006250Y-62930000I-218750J0D01*
G01*
X163493750Y-62930000D01*
G75*
G02*
X163275000Y-62711250I0J218750D01*
G01*
X163275000Y-62273750D01*
G75*
G02*
X163493750Y-62055000I218750J0D01*
G01*
G37*
%TD*%
%TO.C,C16*%
G36*
G01*
X164006250Y-98930000D02*
X163493750Y-98930000D01*
G75*
G02*
X163275000Y-98711250I0J218750D01*
G01*
X163275000Y-98273750D01*
G75*
G02*
X163493750Y-98055000I218750J0D01*
G01*
X164006250Y-98055000D01*
G75*
G02*
X164225000Y-98273750I0J-218750D01*
G01*
X164225000Y-98711250D01*
G75*
G02*
X164006250Y-98930000I-218750J0D01*
G01*
G37*
G36*
G01*
X164006250Y-100505000D02*
X163493750Y-100505000D01*
G75*
G02*
X163275000Y-100286250I0J218750D01*
G01*
X163275000Y-99848750D01*
G75*
G02*
X163493750Y-99630000I218750J0D01*
G01*
X164006250Y-99630000D01*
G75*
G02*
X164225000Y-99848750I0J-218750D01*
G01*
X164225000Y-100286250D01*
G75*
G02*
X164006250Y-100505000I-218750J0D01*
G01*
G37*
%TD*%
%TO.C,C15*%
G36*
G01*
X163493750Y-92630000D02*
X164006250Y-92630000D01*
G75*
G02*
X164225000Y-92848750I0J-218750D01*
G01*
X164225000Y-93286250D01*
G75*
G02*
X164006250Y-93505000I-218750J0D01*
G01*
X163493750Y-93505000D01*
G75*
G02*
X163275000Y-93286250I0J218750D01*
G01*
X163275000Y-92848750D01*
G75*
G02*
X163493750Y-92630000I218750J0D01*
G01*
G37*
G36*
G01*
X163493750Y-91055000D02*
X164006250Y-91055000D01*
G75*
G02*
X164225000Y-91273750I0J-218750D01*
G01*
X164225000Y-91711250D01*
G75*
G02*
X164006250Y-91930000I-218750J0D01*
G01*
X163493750Y-91930000D01*
G75*
G02*
X163275000Y-91711250I0J218750D01*
G01*
X163275000Y-91273750D01*
G75*
G02*
X163493750Y-91055000I218750J0D01*
G01*
G37*
%TD*%
%TO.C,R16*%
G36*
G01*
X157493750Y-74130000D02*
X158006250Y-74130000D01*
G75*
G02*
X158225000Y-74348750I0J-218750D01*
G01*
X158225000Y-74786250D01*
G75*
G02*
X158006250Y-75005000I-218750J0D01*
G01*
X157493750Y-75005000D01*
G75*
G02*
X157275000Y-74786250I0J218750D01*
G01*
X157275000Y-74348750D01*
G75*
G02*
X157493750Y-74130000I218750J0D01*
G01*
G37*
G36*
G01*
X157493750Y-72555000D02*
X158006250Y-72555000D01*
G75*
G02*
X158225000Y-72773750I0J-218750D01*
G01*
X158225000Y-73211250D01*
G75*
G02*
X158006250Y-73430000I-218750J0D01*
G01*
X157493750Y-73430000D01*
G75*
G02*
X157275000Y-73211250I0J218750D01*
G01*
X157275000Y-72773750D01*
G75*
G02*
X157493750Y-72555000I218750J0D01*
G01*
G37*
%TD*%
%TO.C,C14*%
G36*
G01*
X156506250Y-103430000D02*
X155993750Y-103430000D01*
G75*
G02*
X155775000Y-103211250I0J218750D01*
G01*
X155775000Y-102773750D01*
G75*
G02*
X155993750Y-102555000I218750J0D01*
G01*
X156506250Y-102555000D01*
G75*
G02*
X156725000Y-102773750I0J-218750D01*
G01*
X156725000Y-103211250D01*
G75*
G02*
X156506250Y-103430000I-218750J0D01*
G01*
G37*
G36*
G01*
X156506250Y-105005000D02*
X155993750Y-105005000D01*
G75*
G02*
X155775000Y-104786250I0J218750D01*
G01*
X155775000Y-104348750D01*
G75*
G02*
X155993750Y-104130000I218750J0D01*
G01*
X156506250Y-104130000D01*
G75*
G02*
X156725000Y-104348750I0J-218750D01*
G01*
X156725000Y-104786250D01*
G75*
G02*
X156506250Y-105005000I-218750J0D01*
G01*
G37*
%TD*%
%TO.C,R12*%
G36*
G01*
X149850000Y-97286250D02*
X149850000Y-96773750D01*
G75*
G02*
X150068750Y-96555000I218750J0D01*
G01*
X150506250Y-96555000D01*
G75*
G02*
X150725000Y-96773750I0J-218750D01*
G01*
X150725000Y-97286250D01*
G75*
G02*
X150506250Y-97505000I-218750J0D01*
G01*
X150068750Y-97505000D01*
G75*
G02*
X149850000Y-97286250I0J218750D01*
G01*
G37*
G36*
G01*
X148275000Y-97286250D02*
X148275000Y-96773750D01*
G75*
G02*
X148493750Y-96555000I218750J0D01*
G01*
X148931250Y-96555000D01*
G75*
G02*
X149150000Y-96773750I0J-218750D01*
G01*
X149150000Y-97286250D01*
G75*
G02*
X148931250Y-97505000I-218750J0D01*
G01*
X148493750Y-97505000D01*
G75*
G02*
X148275000Y-97286250I0J218750D01*
G01*
G37*
%TD*%
D17*
%TO.C,Q1*%
X142000000Y-103280000D03*
X142950000Y-101280000D03*
X141050000Y-101280000D03*
%TD*%
%TO.C,C13*%
G36*
G01*
X160506250Y-103430000D02*
X159993750Y-103430000D01*
G75*
G02*
X159775000Y-103211250I0J218750D01*
G01*
X159775000Y-102773750D01*
G75*
G02*
X159993750Y-102555000I218750J0D01*
G01*
X160506250Y-102555000D01*
G75*
G02*
X160725000Y-102773750I0J-218750D01*
G01*
X160725000Y-103211250D01*
G75*
G02*
X160506250Y-103430000I-218750J0D01*
G01*
G37*
G36*
G01*
X160506250Y-105005000D02*
X159993750Y-105005000D01*
G75*
G02*
X159775000Y-104786250I0J218750D01*
G01*
X159775000Y-104348750D01*
G75*
G02*
X159993750Y-104130000I218750J0D01*
G01*
X160506250Y-104130000D01*
G75*
G02*
X160725000Y-104348750I0J-218750D01*
G01*
X160725000Y-104786250D01*
G75*
G02*
X160506250Y-105005000I-218750J0D01*
G01*
G37*
%TD*%
%TO.C,C12*%
G36*
G01*
X161493750Y-89130000D02*
X162006250Y-89130000D01*
G75*
G02*
X162225000Y-89348750I0J-218750D01*
G01*
X162225000Y-89786250D01*
G75*
G02*
X162006250Y-90005000I-218750J0D01*
G01*
X161493750Y-90005000D01*
G75*
G02*
X161275000Y-89786250I0J218750D01*
G01*
X161275000Y-89348750D01*
G75*
G02*
X161493750Y-89130000I218750J0D01*
G01*
G37*
G36*
G01*
X161493750Y-87555000D02*
X162006250Y-87555000D01*
G75*
G02*
X162225000Y-87773750I0J-218750D01*
G01*
X162225000Y-88211250D01*
G75*
G02*
X162006250Y-88430000I-218750J0D01*
G01*
X161493750Y-88430000D01*
G75*
G02*
X161275000Y-88211250I0J218750D01*
G01*
X161275000Y-87773750D01*
G75*
G02*
X161493750Y-87555000I218750J0D01*
G01*
G37*
%TD*%
%TO.C,C11*%
G36*
G01*
X149850000Y-93786250D02*
X149850000Y-93273750D01*
G75*
G02*
X150068750Y-93055000I218750J0D01*
G01*
X150506250Y-93055000D01*
G75*
G02*
X150725000Y-93273750I0J-218750D01*
G01*
X150725000Y-93786250D01*
G75*
G02*
X150506250Y-94005000I-218750J0D01*
G01*
X150068750Y-94005000D01*
G75*
G02*
X149850000Y-93786250I0J218750D01*
G01*
G37*
G36*
G01*
X148275000Y-93786250D02*
X148275000Y-93273750D01*
G75*
G02*
X148493750Y-93055000I218750J0D01*
G01*
X148931250Y-93055000D01*
G75*
G02*
X149150000Y-93273750I0J-218750D01*
G01*
X149150000Y-93786250D01*
G75*
G02*
X148931250Y-94005000I-218750J0D01*
G01*
X148493750Y-94005000D01*
G75*
G02*
X148275000Y-93786250I0J218750D01*
G01*
G37*
%TD*%
%TO.C,C10*%
G36*
G01*
X154506250Y-103430000D02*
X153993750Y-103430000D01*
G75*
G02*
X153775000Y-103211250I0J218750D01*
G01*
X153775000Y-102773750D01*
G75*
G02*
X153993750Y-102555000I218750J0D01*
G01*
X154506250Y-102555000D01*
G75*
G02*
X154725000Y-102773750I0J-218750D01*
G01*
X154725000Y-103211250D01*
G75*
G02*
X154506250Y-103430000I-218750J0D01*
G01*
G37*
G36*
G01*
X154506250Y-105005000D02*
X153993750Y-105005000D01*
G75*
G02*
X153775000Y-104786250I0J218750D01*
G01*
X153775000Y-104348750D01*
G75*
G02*
X153993750Y-104130000I218750J0D01*
G01*
X154506250Y-104130000D01*
G75*
G02*
X154725000Y-104348750I0J-218750D01*
G01*
X154725000Y-104786250D01*
G75*
G02*
X154506250Y-105005000I-218750J0D01*
G01*
G37*
%TD*%
%TO.C,C9*%
G36*
G01*
X145350000Y-71536250D02*
X145350000Y-71023750D01*
G75*
G02*
X145568750Y-70805000I218750J0D01*
G01*
X146006250Y-70805000D01*
G75*
G02*
X146225000Y-71023750I0J-218750D01*
G01*
X146225000Y-71536250D01*
G75*
G02*
X146006250Y-71755000I-218750J0D01*
G01*
X145568750Y-71755000D01*
G75*
G02*
X145350000Y-71536250I0J218750D01*
G01*
G37*
G36*
G01*
X143775000Y-71536250D02*
X143775000Y-71023750D01*
G75*
G02*
X143993750Y-70805000I218750J0D01*
G01*
X144431250Y-70805000D01*
G75*
G02*
X144650000Y-71023750I0J-218750D01*
G01*
X144650000Y-71536250D01*
G75*
G02*
X144431250Y-71755000I-218750J0D01*
G01*
X143993750Y-71755000D01*
G75*
G02*
X143775000Y-71536250I0J218750D01*
G01*
G37*
%TD*%
%TO.C,C8*%
G36*
G01*
X145350000Y-69536250D02*
X145350000Y-69023750D01*
G75*
G02*
X145568750Y-68805000I218750J0D01*
G01*
X146006250Y-68805000D01*
G75*
G02*
X146225000Y-69023750I0J-218750D01*
G01*
X146225000Y-69536250D01*
G75*
G02*
X146006250Y-69755000I-218750J0D01*
G01*
X145568750Y-69755000D01*
G75*
G02*
X145350000Y-69536250I0J218750D01*
G01*
G37*
G36*
G01*
X143775000Y-69536250D02*
X143775000Y-69023750D01*
G75*
G02*
X143993750Y-68805000I218750J0D01*
G01*
X144431250Y-68805000D01*
G75*
G02*
X144650000Y-69023750I0J-218750D01*
G01*
X144650000Y-69536250D01*
G75*
G02*
X144431250Y-69755000I-218750J0D01*
G01*
X143993750Y-69755000D01*
G75*
G02*
X143775000Y-69536250I0J218750D01*
G01*
G37*
%TD*%
%TO.C,C7*%
G36*
G01*
X144650000Y-85023750D02*
X144650000Y-85536250D01*
G75*
G02*
X144431250Y-85755000I-218750J0D01*
G01*
X143993750Y-85755000D01*
G75*
G02*
X143775000Y-85536250I0J218750D01*
G01*
X143775000Y-85023750D01*
G75*
G02*
X143993750Y-84805000I218750J0D01*
G01*
X144431250Y-84805000D01*
G75*
G02*
X144650000Y-85023750I0J-218750D01*
G01*
G37*
G36*
G01*
X146225000Y-85023750D02*
X146225000Y-85536250D01*
G75*
G02*
X146006250Y-85755000I-218750J0D01*
G01*
X145568750Y-85755000D01*
G75*
G02*
X145350000Y-85536250I0J218750D01*
G01*
X145350000Y-85023750D01*
G75*
G02*
X145568750Y-84805000I218750J0D01*
G01*
X146006250Y-84805000D01*
G75*
G02*
X146225000Y-85023750I0J-218750D01*
G01*
G37*
%TD*%
%TO.C,C6*%
G36*
G01*
X144650000Y-83023750D02*
X144650000Y-83536250D01*
G75*
G02*
X144431250Y-83755000I-218750J0D01*
G01*
X143993750Y-83755000D01*
G75*
G02*
X143775000Y-83536250I0J218750D01*
G01*
X143775000Y-83023750D01*
G75*
G02*
X143993750Y-82805000I218750J0D01*
G01*
X144431250Y-82805000D01*
G75*
G02*
X144650000Y-83023750I0J-218750D01*
G01*
G37*
G36*
G01*
X146225000Y-83023750D02*
X146225000Y-83536250D01*
G75*
G02*
X146006250Y-83755000I-218750J0D01*
G01*
X145568750Y-83755000D01*
G75*
G02*
X145350000Y-83536250I0J218750D01*
G01*
X145350000Y-83023750D01*
G75*
G02*
X145568750Y-82805000I218750J0D01*
G01*
X146006250Y-82805000D01*
G75*
G02*
X146225000Y-83023750I0J-218750D01*
G01*
G37*
%TD*%
%TO.C,C5*%
G36*
G01*
X138350000Y-101536250D02*
X138350000Y-101023750D01*
G75*
G02*
X138568750Y-100805000I218750J0D01*
G01*
X139006250Y-100805000D01*
G75*
G02*
X139225000Y-101023750I0J-218750D01*
G01*
X139225000Y-101536250D01*
G75*
G02*
X139006250Y-101755000I-218750J0D01*
G01*
X138568750Y-101755000D01*
G75*
G02*
X138350000Y-101536250I0J218750D01*
G01*
G37*
G36*
G01*
X136775000Y-101536250D02*
X136775000Y-101023750D01*
G75*
G02*
X136993750Y-100805000I218750J0D01*
G01*
X137431250Y-100805000D01*
G75*
G02*
X137650000Y-101023750I0J-218750D01*
G01*
X137650000Y-101536250D01*
G75*
G02*
X137431250Y-101755000I-218750J0D01*
G01*
X136993750Y-101755000D01*
G75*
G02*
X136775000Y-101536250I0J218750D01*
G01*
G37*
%TD*%
%TO.C,R11*%
G36*
G01*
X137650000Y-105523750D02*
X137650000Y-106036250D01*
G75*
G02*
X137431250Y-106255000I-218750J0D01*
G01*
X136993750Y-106255000D01*
G75*
G02*
X136775000Y-106036250I0J218750D01*
G01*
X136775000Y-105523750D01*
G75*
G02*
X136993750Y-105305000I218750J0D01*
G01*
X137431250Y-105305000D01*
G75*
G02*
X137650000Y-105523750I0J-218750D01*
G01*
G37*
G36*
G01*
X139225000Y-105523750D02*
X139225000Y-106036250D01*
G75*
G02*
X139006250Y-106255000I-218750J0D01*
G01*
X138568750Y-106255000D01*
G75*
G02*
X138350000Y-106036250I0J218750D01*
G01*
X138350000Y-105523750D01*
G75*
G02*
X138568750Y-105305000I218750J0D01*
G01*
X139006250Y-105305000D01*
G75*
G02*
X139225000Y-105523750I0J-218750D01*
G01*
G37*
%TD*%
%TO.C,R10*%
G36*
G01*
X137650000Y-108523750D02*
X137650000Y-109036250D01*
G75*
G02*
X137431250Y-109255000I-218750J0D01*
G01*
X136993750Y-109255000D01*
G75*
G02*
X136775000Y-109036250I0J218750D01*
G01*
X136775000Y-108523750D01*
G75*
G02*
X136993750Y-108305000I218750J0D01*
G01*
X137431250Y-108305000D01*
G75*
G02*
X137650000Y-108523750I0J-218750D01*
G01*
G37*
G36*
G01*
X139225000Y-108523750D02*
X139225000Y-109036250D01*
G75*
G02*
X139006250Y-109255000I-218750J0D01*
G01*
X138568750Y-109255000D01*
G75*
G02*
X138350000Y-109036250I0J218750D01*
G01*
X138350000Y-108523750D01*
G75*
G02*
X138568750Y-108305000I218750J0D01*
G01*
X139006250Y-108305000D01*
G75*
G02*
X139225000Y-108523750I0J-218750D01*
G01*
G37*
%TD*%
%TO.C,R9*%
G36*
G01*
X130650000Y-113023750D02*
X130650000Y-113536250D01*
G75*
G02*
X130431250Y-113755000I-218750J0D01*
G01*
X129993750Y-113755000D01*
G75*
G02*
X129775000Y-113536250I0J218750D01*
G01*
X129775000Y-113023750D01*
G75*
G02*
X129993750Y-112805000I218750J0D01*
G01*
X130431250Y-112805000D01*
G75*
G02*
X130650000Y-113023750I0J-218750D01*
G01*
G37*
G36*
G01*
X132225000Y-113023750D02*
X132225000Y-113536250D01*
G75*
G02*
X132006250Y-113755000I-218750J0D01*
G01*
X131568750Y-113755000D01*
G75*
G02*
X131350000Y-113536250I0J218750D01*
G01*
X131350000Y-113023750D01*
G75*
G02*
X131568750Y-112805000I218750J0D01*
G01*
X132006250Y-112805000D01*
G75*
G02*
X132225000Y-113023750I0J-218750D01*
G01*
G37*
%TD*%
%TO.C,C4*%
G36*
G01*
X144650000Y-110023750D02*
X144650000Y-110536250D01*
G75*
G02*
X144431250Y-110755000I-218750J0D01*
G01*
X143993750Y-110755000D01*
G75*
G02*
X143775000Y-110536250I0J218750D01*
G01*
X143775000Y-110023750D01*
G75*
G02*
X143993750Y-109805000I218750J0D01*
G01*
X144431250Y-109805000D01*
G75*
G02*
X144650000Y-110023750I0J-218750D01*
G01*
G37*
G36*
G01*
X146225000Y-110023750D02*
X146225000Y-110536250D01*
G75*
G02*
X146006250Y-110755000I-218750J0D01*
G01*
X145568750Y-110755000D01*
G75*
G02*
X145350000Y-110536250I0J218750D01*
G01*
X145350000Y-110023750D01*
G75*
G02*
X145568750Y-109805000I218750J0D01*
G01*
X146006250Y-109805000D01*
G75*
G02*
X146225000Y-110023750I0J-218750D01*
G01*
G37*
%TD*%
%TO.C,C3*%
G36*
G01*
X131350000Y-101536250D02*
X131350000Y-101023750D01*
G75*
G02*
X131568750Y-100805000I218750J0D01*
G01*
X132006250Y-100805000D01*
G75*
G02*
X132225000Y-101023750I0J-218750D01*
G01*
X132225000Y-101536250D01*
G75*
G02*
X132006250Y-101755000I-218750J0D01*
G01*
X131568750Y-101755000D01*
G75*
G02*
X131350000Y-101536250I0J218750D01*
G01*
G37*
G36*
G01*
X129775000Y-101536250D02*
X129775000Y-101023750D01*
G75*
G02*
X129993750Y-100805000I218750J0D01*
G01*
X130431250Y-100805000D01*
G75*
G02*
X130650000Y-101023750I0J-218750D01*
G01*
X130650000Y-101536250D01*
G75*
G02*
X130431250Y-101755000I-218750J0D01*
G01*
X129993750Y-101755000D01*
G75*
G02*
X129775000Y-101536250I0J218750D01*
G01*
G37*
%TD*%
D18*
%TO.C,U2*%
X145000000Y-108380000D03*
X144050000Y-108380000D03*
X145950000Y-108380000D03*
X145950000Y-106180000D03*
X145000000Y-106180000D03*
X144050000Y-106180000D03*
%TD*%
%TO.C,R8*%
G36*
G01*
X163493750Y-67130000D02*
X164006250Y-67130000D01*
G75*
G02*
X164225000Y-67348750I0J-218750D01*
G01*
X164225000Y-67786250D01*
G75*
G02*
X164006250Y-68005000I-218750J0D01*
G01*
X163493750Y-68005000D01*
G75*
G02*
X163275000Y-67786250I0J218750D01*
G01*
X163275000Y-67348750D01*
G75*
G02*
X163493750Y-67130000I218750J0D01*
G01*
G37*
G36*
G01*
X163493750Y-65555000D02*
X164006250Y-65555000D01*
G75*
G02*
X164225000Y-65773750I0J-218750D01*
G01*
X164225000Y-66211250D01*
G75*
G02*
X164006250Y-66430000I-218750J0D01*
G01*
X163493750Y-66430000D01*
G75*
G02*
X163275000Y-66211250I0J218750D01*
G01*
X163275000Y-65773750D01*
G75*
G02*
X163493750Y-65555000I218750J0D01*
G01*
G37*
%TD*%
%TO.C,R7*%
G36*
G01*
X144775000Y-94786250D02*
X144775000Y-94273750D01*
G75*
G02*
X144993750Y-94055000I218750J0D01*
G01*
X145431250Y-94055000D01*
G75*
G02*
X145650000Y-94273750I0J-218750D01*
G01*
X145650000Y-94786250D01*
G75*
G02*
X145431250Y-95005000I-218750J0D01*
G01*
X144993750Y-95005000D01*
G75*
G02*
X144775000Y-94786250I0J218750D01*
G01*
G37*
G36*
G01*
X146350000Y-94786250D02*
X146350000Y-94273750D01*
G75*
G02*
X146568750Y-94055000I218750J0D01*
G01*
X147006250Y-94055000D01*
G75*
G02*
X147225000Y-94273750I0J-218750D01*
G01*
X147225000Y-94786250D01*
G75*
G02*
X147006250Y-95005000I-218750J0D01*
G01*
X146568750Y-95005000D01*
G75*
G02*
X146350000Y-94786250I0J218750D01*
G01*
G37*
%TD*%
%TO.C,R6*%
G36*
G01*
X147225000Y-95773750D02*
X147225000Y-96286250D01*
G75*
G02*
X147006250Y-96505000I-218750J0D01*
G01*
X146568750Y-96505000D01*
G75*
G02*
X146350000Y-96286250I0J218750D01*
G01*
X146350000Y-95773750D01*
G75*
G02*
X146568750Y-95555000I218750J0D01*
G01*
X147006250Y-95555000D01*
G75*
G02*
X147225000Y-95773750I0J-218750D01*
G01*
G37*
G36*
G01*
X145650000Y-95773750D02*
X145650000Y-96286250D01*
G75*
G02*
X145431250Y-96505000I-218750J0D01*
G01*
X144993750Y-96505000D01*
G75*
G02*
X144775000Y-96286250I0J218750D01*
G01*
X144775000Y-95773750D01*
G75*
G02*
X144993750Y-95555000I218750J0D01*
G01*
X145431250Y-95555000D01*
G75*
G02*
X145650000Y-95773750I0J-218750D01*
G01*
G37*
%TD*%
%TO.C,R3*%
G36*
G01*
X163493750Y-96130000D02*
X164006250Y-96130000D01*
G75*
G02*
X164225000Y-96348750I0J-218750D01*
G01*
X164225000Y-96786250D01*
G75*
G02*
X164006250Y-97005000I-218750J0D01*
G01*
X163493750Y-97005000D01*
G75*
G02*
X163275000Y-96786250I0J218750D01*
G01*
X163275000Y-96348750D01*
G75*
G02*
X163493750Y-96130000I218750J0D01*
G01*
G37*
G36*
G01*
X163493750Y-94555000D02*
X164006250Y-94555000D01*
G75*
G02*
X164225000Y-94773750I0J-218750D01*
G01*
X164225000Y-95211250D01*
G75*
G02*
X164006250Y-95430000I-218750J0D01*
G01*
X163493750Y-95430000D01*
G75*
G02*
X163275000Y-95211250I0J218750D01*
G01*
X163275000Y-94773750D01*
G75*
G02*
X163493750Y-94555000I218750J0D01*
G01*
G37*
%TD*%
%TO.C,C2*%
G36*
G01*
X152993750Y-74130000D02*
X153506250Y-74130000D01*
G75*
G02*
X153725000Y-74348750I0J-218750D01*
G01*
X153725000Y-74786250D01*
G75*
G02*
X153506250Y-75005000I-218750J0D01*
G01*
X152993750Y-75005000D01*
G75*
G02*
X152775000Y-74786250I0J218750D01*
G01*
X152775000Y-74348750D01*
G75*
G02*
X152993750Y-74130000I218750J0D01*
G01*
G37*
G36*
G01*
X152993750Y-72555000D02*
X153506250Y-72555000D01*
G75*
G02*
X153725000Y-72773750I0J-218750D01*
G01*
X153725000Y-73211250D01*
G75*
G02*
X153506250Y-73430000I-218750J0D01*
G01*
X152993750Y-73430000D01*
G75*
G02*
X152775000Y-73211250I0J218750D01*
G01*
X152775000Y-72773750D01*
G75*
G02*
X152993750Y-72555000I218750J0D01*
G01*
G37*
%TD*%
%TO.C,C1*%
G36*
G01*
X157506250Y-58430000D02*
X156993750Y-58430000D01*
G75*
G02*
X156775000Y-58211250I0J218750D01*
G01*
X156775000Y-57773750D01*
G75*
G02*
X156993750Y-57555000I218750J0D01*
G01*
X157506250Y-57555000D01*
G75*
G02*
X157725000Y-57773750I0J-218750D01*
G01*
X157725000Y-58211250D01*
G75*
G02*
X157506250Y-58430000I-218750J0D01*
G01*
G37*
G36*
G01*
X157506250Y-60005000D02*
X156993750Y-60005000D01*
G75*
G02*
X156775000Y-59786250I0J218750D01*
G01*
X156775000Y-59348750D01*
G75*
G02*
X156993750Y-59130000I218750J0D01*
G01*
X157506250Y-59130000D01*
G75*
G02*
X157725000Y-59348750I0J-218750D01*
G01*
X157725000Y-59786250D01*
G75*
G02*
X157506250Y-60005000I-218750J0D01*
G01*
G37*
%TD*%
%TO.C,R2*%
G36*
G01*
X147006250Y-91930000D02*
X146493750Y-91930000D01*
G75*
G02*
X146275000Y-91711250I0J218750D01*
G01*
X146275000Y-91273750D01*
G75*
G02*
X146493750Y-91055000I218750J0D01*
G01*
X147006250Y-91055000D01*
G75*
G02*
X147225000Y-91273750I0J-218750D01*
G01*
X147225000Y-91711250D01*
G75*
G02*
X147006250Y-91930000I-218750J0D01*
G01*
G37*
G36*
G01*
X147006250Y-93505000D02*
X146493750Y-93505000D01*
G75*
G02*
X146275000Y-93286250I0J218750D01*
G01*
X146275000Y-92848750D01*
G75*
G02*
X146493750Y-92630000I218750J0D01*
G01*
X147006250Y-92630000D01*
G75*
G02*
X147225000Y-92848750I0J-218750D01*
G01*
X147225000Y-93286250D01*
G75*
G02*
X147006250Y-93505000I-218750J0D01*
G01*
G37*
%TD*%
%TO.C,R1*%
G36*
G01*
X144993750Y-92630000D02*
X145506250Y-92630000D01*
G75*
G02*
X145725000Y-92848750I0J-218750D01*
G01*
X145725000Y-93286250D01*
G75*
G02*
X145506250Y-93505000I-218750J0D01*
G01*
X144993750Y-93505000D01*
G75*
G02*
X144775000Y-93286250I0J218750D01*
G01*
X144775000Y-92848750D01*
G75*
G02*
X144993750Y-92630000I218750J0D01*
G01*
G37*
G36*
G01*
X144993750Y-91055000D02*
X145506250Y-91055000D01*
G75*
G02*
X145725000Y-91273750I0J-218750D01*
G01*
X145725000Y-91711250D01*
G75*
G02*
X145506250Y-91930000I-218750J0D01*
G01*
X144993750Y-91930000D01*
G75*
G02*
X144775000Y-91711250I0J218750D01*
G01*
X144775000Y-91273750D01*
G75*
G02*
X144993750Y-91055000I218750J0D01*
G01*
G37*
%TD*%
D19*
%TO.C,J12*%
X134010000Y-108030000D03*
X134010000Y-107530000D03*
X134010000Y-107030000D03*
X134010000Y-109030000D03*
X134010000Y-108530000D03*
X134010000Y-106030000D03*
X134010000Y-106530000D03*
X134010000Y-105530000D03*
D20*
X134010000Y-109680000D03*
X134010000Y-109680000D03*
X134010000Y-110480000D03*
X134010000Y-110480000D03*
X134010000Y-104880000D03*
X134010000Y-104080000D03*
X134010000Y-104880000D03*
X134010000Y-104080000D03*
%TD*%
%TO.C,U1*%
G36*
G01*
X161825000Y-69180000D02*
X160500000Y-69180000D01*
G75*
G02*
X160425000Y-69105000I0J75000D01*
G01*
X160425000Y-68955000D01*
G75*
G02*
X160500000Y-68880000I75000J0D01*
G01*
X161825000Y-68880000D01*
G75*
G02*
X161900000Y-68955000I0J-75000D01*
G01*
X161900000Y-69105000D01*
G75*
G02*
X161825000Y-69180000I-75000J0D01*
G01*
G37*
G36*
G01*
X161825000Y-68680000D02*
X160500000Y-68680000D01*
G75*
G02*
X160425000Y-68605000I0J75000D01*
G01*
X160425000Y-68455000D01*
G75*
G02*
X160500000Y-68380000I75000J0D01*
G01*
X161825000Y-68380000D01*
G75*
G02*
X161900000Y-68455000I0J-75000D01*
G01*
X161900000Y-68605000D01*
G75*
G02*
X161825000Y-68680000I-75000J0D01*
G01*
G37*
G36*
G01*
X161825000Y-68180000D02*
X160500000Y-68180000D01*
G75*
G02*
X160425000Y-68105000I0J75000D01*
G01*
X160425000Y-67955000D01*
G75*
G02*
X160500000Y-67880000I75000J0D01*
G01*
X161825000Y-67880000D01*
G75*
G02*
X161900000Y-67955000I0J-75000D01*
G01*
X161900000Y-68105000D01*
G75*
G02*
X161825000Y-68180000I-75000J0D01*
G01*
G37*
G36*
G01*
X161825000Y-67680000D02*
X160500000Y-67680000D01*
G75*
G02*
X160425000Y-67605000I0J75000D01*
G01*
X160425000Y-67455000D01*
G75*
G02*
X160500000Y-67380000I75000J0D01*
G01*
X161825000Y-67380000D01*
G75*
G02*
X161900000Y-67455000I0J-75000D01*
G01*
X161900000Y-67605000D01*
G75*
G02*
X161825000Y-67680000I-75000J0D01*
G01*
G37*
G36*
G01*
X161825000Y-67180000D02*
X160500000Y-67180000D01*
G75*
G02*
X160425000Y-67105000I0J75000D01*
G01*
X160425000Y-66955000D01*
G75*
G02*
X160500000Y-66880000I75000J0D01*
G01*
X161825000Y-66880000D01*
G75*
G02*
X161900000Y-66955000I0J-75000D01*
G01*
X161900000Y-67105000D01*
G75*
G02*
X161825000Y-67180000I-75000J0D01*
G01*
G37*
G36*
G01*
X161825000Y-66680000D02*
X160500000Y-66680000D01*
G75*
G02*
X160425000Y-66605000I0J75000D01*
G01*
X160425000Y-66455000D01*
G75*
G02*
X160500000Y-66380000I75000J0D01*
G01*
X161825000Y-66380000D01*
G75*
G02*
X161900000Y-66455000I0J-75000D01*
G01*
X161900000Y-66605000D01*
G75*
G02*
X161825000Y-66680000I-75000J0D01*
G01*
G37*
G36*
G01*
X161825000Y-66180000D02*
X160500000Y-66180000D01*
G75*
G02*
X160425000Y-66105000I0J75000D01*
G01*
X160425000Y-65955000D01*
G75*
G02*
X160500000Y-65880000I75000J0D01*
G01*
X161825000Y-65880000D01*
G75*
G02*
X161900000Y-65955000I0J-75000D01*
G01*
X161900000Y-66105000D01*
G75*
G02*
X161825000Y-66180000I-75000J0D01*
G01*
G37*
G36*
G01*
X161825000Y-65680000D02*
X160500000Y-65680000D01*
G75*
G02*
X160425000Y-65605000I0J75000D01*
G01*
X160425000Y-65455000D01*
G75*
G02*
X160500000Y-65380000I75000J0D01*
G01*
X161825000Y-65380000D01*
G75*
G02*
X161900000Y-65455000I0J-75000D01*
G01*
X161900000Y-65605000D01*
G75*
G02*
X161825000Y-65680000I-75000J0D01*
G01*
G37*
G36*
G01*
X161825000Y-65180000D02*
X160500000Y-65180000D01*
G75*
G02*
X160425000Y-65105000I0J75000D01*
G01*
X160425000Y-64955000D01*
G75*
G02*
X160500000Y-64880000I75000J0D01*
G01*
X161825000Y-64880000D01*
G75*
G02*
X161900000Y-64955000I0J-75000D01*
G01*
X161900000Y-65105000D01*
G75*
G02*
X161825000Y-65180000I-75000J0D01*
G01*
G37*
G36*
G01*
X161825000Y-64680000D02*
X160500000Y-64680000D01*
G75*
G02*
X160425000Y-64605000I0J75000D01*
G01*
X160425000Y-64455000D01*
G75*
G02*
X160500000Y-64380000I75000J0D01*
G01*
X161825000Y-64380000D01*
G75*
G02*
X161900000Y-64455000I0J-75000D01*
G01*
X161900000Y-64605000D01*
G75*
G02*
X161825000Y-64680000I-75000J0D01*
G01*
G37*
G36*
G01*
X161825000Y-64180000D02*
X160500000Y-64180000D01*
G75*
G02*
X160425000Y-64105000I0J75000D01*
G01*
X160425000Y-63955000D01*
G75*
G02*
X160500000Y-63880000I75000J0D01*
G01*
X161825000Y-63880000D01*
G75*
G02*
X161900000Y-63955000I0J-75000D01*
G01*
X161900000Y-64105000D01*
G75*
G02*
X161825000Y-64180000I-75000J0D01*
G01*
G37*
G36*
G01*
X161825000Y-63680000D02*
X160500000Y-63680000D01*
G75*
G02*
X160425000Y-63605000I0J75000D01*
G01*
X160425000Y-63455000D01*
G75*
G02*
X160500000Y-63380000I75000J0D01*
G01*
X161825000Y-63380000D01*
G75*
G02*
X161900000Y-63455000I0J-75000D01*
G01*
X161900000Y-63605000D01*
G75*
G02*
X161825000Y-63680000I-75000J0D01*
G01*
G37*
G36*
G01*
X159825000Y-62855000D02*
X159675000Y-62855000D01*
G75*
G02*
X159600000Y-62780000I0J75000D01*
G01*
X159600000Y-61455000D01*
G75*
G02*
X159675000Y-61380000I75000J0D01*
G01*
X159825000Y-61380000D01*
G75*
G02*
X159900000Y-61455000I0J-75000D01*
G01*
X159900000Y-62780000D01*
G75*
G02*
X159825000Y-62855000I-75000J0D01*
G01*
G37*
G36*
G01*
X159325000Y-62855000D02*
X159175000Y-62855000D01*
G75*
G02*
X159100000Y-62780000I0J75000D01*
G01*
X159100000Y-61455000D01*
G75*
G02*
X159175000Y-61380000I75000J0D01*
G01*
X159325000Y-61380000D01*
G75*
G02*
X159400000Y-61455000I0J-75000D01*
G01*
X159400000Y-62780000D01*
G75*
G02*
X159325000Y-62855000I-75000J0D01*
G01*
G37*
G36*
G01*
X158825000Y-62855000D02*
X158675000Y-62855000D01*
G75*
G02*
X158600000Y-62780000I0J75000D01*
G01*
X158600000Y-61455000D01*
G75*
G02*
X158675000Y-61380000I75000J0D01*
G01*
X158825000Y-61380000D01*
G75*
G02*
X158900000Y-61455000I0J-75000D01*
G01*
X158900000Y-62780000D01*
G75*
G02*
X158825000Y-62855000I-75000J0D01*
G01*
G37*
G36*
G01*
X158325000Y-62855000D02*
X158175000Y-62855000D01*
G75*
G02*
X158100000Y-62780000I0J75000D01*
G01*
X158100000Y-61455000D01*
G75*
G02*
X158175000Y-61380000I75000J0D01*
G01*
X158325000Y-61380000D01*
G75*
G02*
X158400000Y-61455000I0J-75000D01*
G01*
X158400000Y-62780000D01*
G75*
G02*
X158325000Y-62855000I-75000J0D01*
G01*
G37*
G36*
G01*
X157825000Y-62855000D02*
X157675000Y-62855000D01*
G75*
G02*
X157600000Y-62780000I0J75000D01*
G01*
X157600000Y-61455000D01*
G75*
G02*
X157675000Y-61380000I75000J0D01*
G01*
X157825000Y-61380000D01*
G75*
G02*
X157900000Y-61455000I0J-75000D01*
G01*
X157900000Y-62780000D01*
G75*
G02*
X157825000Y-62855000I-75000J0D01*
G01*
G37*
G36*
G01*
X157325000Y-62855000D02*
X157175000Y-62855000D01*
G75*
G02*
X157100000Y-62780000I0J75000D01*
G01*
X157100000Y-61455000D01*
G75*
G02*
X157175000Y-61380000I75000J0D01*
G01*
X157325000Y-61380000D01*
G75*
G02*
X157400000Y-61455000I0J-75000D01*
G01*
X157400000Y-62780000D01*
G75*
G02*
X157325000Y-62855000I-75000J0D01*
G01*
G37*
G36*
G01*
X156825000Y-62855000D02*
X156675000Y-62855000D01*
G75*
G02*
X156600000Y-62780000I0J75000D01*
G01*
X156600000Y-61455000D01*
G75*
G02*
X156675000Y-61380000I75000J0D01*
G01*
X156825000Y-61380000D01*
G75*
G02*
X156900000Y-61455000I0J-75000D01*
G01*
X156900000Y-62780000D01*
G75*
G02*
X156825000Y-62855000I-75000J0D01*
G01*
G37*
G36*
G01*
X156325000Y-62855000D02*
X156175000Y-62855000D01*
G75*
G02*
X156100000Y-62780000I0J75000D01*
G01*
X156100000Y-61455000D01*
G75*
G02*
X156175000Y-61380000I75000J0D01*
G01*
X156325000Y-61380000D01*
G75*
G02*
X156400000Y-61455000I0J-75000D01*
G01*
X156400000Y-62780000D01*
G75*
G02*
X156325000Y-62855000I-75000J0D01*
G01*
G37*
G36*
G01*
X155825000Y-62855000D02*
X155675000Y-62855000D01*
G75*
G02*
X155600000Y-62780000I0J75000D01*
G01*
X155600000Y-61455000D01*
G75*
G02*
X155675000Y-61380000I75000J0D01*
G01*
X155825000Y-61380000D01*
G75*
G02*
X155900000Y-61455000I0J-75000D01*
G01*
X155900000Y-62780000D01*
G75*
G02*
X155825000Y-62855000I-75000J0D01*
G01*
G37*
G36*
G01*
X155325000Y-62855000D02*
X155175000Y-62855000D01*
G75*
G02*
X155100000Y-62780000I0J75000D01*
G01*
X155100000Y-61455000D01*
G75*
G02*
X155175000Y-61380000I75000J0D01*
G01*
X155325000Y-61380000D01*
G75*
G02*
X155400000Y-61455000I0J-75000D01*
G01*
X155400000Y-62780000D01*
G75*
G02*
X155325000Y-62855000I-75000J0D01*
G01*
G37*
G36*
G01*
X154825000Y-62855000D02*
X154675000Y-62855000D01*
G75*
G02*
X154600000Y-62780000I0J75000D01*
G01*
X154600000Y-61455000D01*
G75*
G02*
X154675000Y-61380000I75000J0D01*
G01*
X154825000Y-61380000D01*
G75*
G02*
X154900000Y-61455000I0J-75000D01*
G01*
X154900000Y-62780000D01*
G75*
G02*
X154825000Y-62855000I-75000J0D01*
G01*
G37*
G36*
G01*
X154325000Y-62855000D02*
X154175000Y-62855000D01*
G75*
G02*
X154100000Y-62780000I0J75000D01*
G01*
X154100000Y-61455000D01*
G75*
G02*
X154175000Y-61380000I75000J0D01*
G01*
X154325000Y-61380000D01*
G75*
G02*
X154400000Y-61455000I0J-75000D01*
G01*
X154400000Y-62780000D01*
G75*
G02*
X154325000Y-62855000I-75000J0D01*
G01*
G37*
G36*
G01*
X153500000Y-63680000D02*
X152175000Y-63680000D01*
G75*
G02*
X152100000Y-63605000I0J75000D01*
G01*
X152100000Y-63455000D01*
G75*
G02*
X152175000Y-63380000I75000J0D01*
G01*
X153500000Y-63380000D01*
G75*
G02*
X153575000Y-63455000I0J-75000D01*
G01*
X153575000Y-63605000D01*
G75*
G02*
X153500000Y-63680000I-75000J0D01*
G01*
G37*
G36*
G01*
X153500000Y-64180000D02*
X152175000Y-64180000D01*
G75*
G02*
X152100000Y-64105000I0J75000D01*
G01*
X152100000Y-63955000D01*
G75*
G02*
X152175000Y-63880000I75000J0D01*
G01*
X153500000Y-63880000D01*
G75*
G02*
X153575000Y-63955000I0J-75000D01*
G01*
X153575000Y-64105000D01*
G75*
G02*
X153500000Y-64180000I-75000J0D01*
G01*
G37*
G36*
G01*
X153500000Y-64680000D02*
X152175000Y-64680000D01*
G75*
G02*
X152100000Y-64605000I0J75000D01*
G01*
X152100000Y-64455000D01*
G75*
G02*
X152175000Y-64380000I75000J0D01*
G01*
X153500000Y-64380000D01*
G75*
G02*
X153575000Y-64455000I0J-75000D01*
G01*
X153575000Y-64605000D01*
G75*
G02*
X153500000Y-64680000I-75000J0D01*
G01*
G37*
G36*
G01*
X153500000Y-65180000D02*
X152175000Y-65180000D01*
G75*
G02*
X152100000Y-65105000I0J75000D01*
G01*
X152100000Y-64955000D01*
G75*
G02*
X152175000Y-64880000I75000J0D01*
G01*
X153500000Y-64880000D01*
G75*
G02*
X153575000Y-64955000I0J-75000D01*
G01*
X153575000Y-65105000D01*
G75*
G02*
X153500000Y-65180000I-75000J0D01*
G01*
G37*
G36*
G01*
X153500000Y-65680000D02*
X152175000Y-65680000D01*
G75*
G02*
X152100000Y-65605000I0J75000D01*
G01*
X152100000Y-65455000D01*
G75*
G02*
X152175000Y-65380000I75000J0D01*
G01*
X153500000Y-65380000D01*
G75*
G02*
X153575000Y-65455000I0J-75000D01*
G01*
X153575000Y-65605000D01*
G75*
G02*
X153500000Y-65680000I-75000J0D01*
G01*
G37*
G36*
G01*
X153500000Y-66180000D02*
X152175000Y-66180000D01*
G75*
G02*
X152100000Y-66105000I0J75000D01*
G01*
X152100000Y-65955000D01*
G75*
G02*
X152175000Y-65880000I75000J0D01*
G01*
X153500000Y-65880000D01*
G75*
G02*
X153575000Y-65955000I0J-75000D01*
G01*
X153575000Y-66105000D01*
G75*
G02*
X153500000Y-66180000I-75000J0D01*
G01*
G37*
G36*
G01*
X153500000Y-66680000D02*
X152175000Y-66680000D01*
G75*
G02*
X152100000Y-66605000I0J75000D01*
G01*
X152100000Y-66455000D01*
G75*
G02*
X152175000Y-66380000I75000J0D01*
G01*
X153500000Y-66380000D01*
G75*
G02*
X153575000Y-66455000I0J-75000D01*
G01*
X153575000Y-66605000D01*
G75*
G02*
X153500000Y-66680000I-75000J0D01*
G01*
G37*
G36*
G01*
X153500000Y-67180000D02*
X152175000Y-67180000D01*
G75*
G02*
X152100000Y-67105000I0J75000D01*
G01*
X152100000Y-66955000D01*
G75*
G02*
X152175000Y-66880000I75000J0D01*
G01*
X153500000Y-66880000D01*
G75*
G02*
X153575000Y-66955000I0J-75000D01*
G01*
X153575000Y-67105000D01*
G75*
G02*
X153500000Y-67180000I-75000J0D01*
G01*
G37*
G36*
G01*
X153500000Y-67680000D02*
X152175000Y-67680000D01*
G75*
G02*
X152100000Y-67605000I0J75000D01*
G01*
X152100000Y-67455000D01*
G75*
G02*
X152175000Y-67380000I75000J0D01*
G01*
X153500000Y-67380000D01*
G75*
G02*
X153575000Y-67455000I0J-75000D01*
G01*
X153575000Y-67605000D01*
G75*
G02*
X153500000Y-67680000I-75000J0D01*
G01*
G37*
G36*
G01*
X153500000Y-68180000D02*
X152175000Y-68180000D01*
G75*
G02*
X152100000Y-68105000I0J75000D01*
G01*
X152100000Y-67955000D01*
G75*
G02*
X152175000Y-67880000I75000J0D01*
G01*
X153500000Y-67880000D01*
G75*
G02*
X153575000Y-67955000I0J-75000D01*
G01*
X153575000Y-68105000D01*
G75*
G02*
X153500000Y-68180000I-75000J0D01*
G01*
G37*
G36*
G01*
X153500000Y-68680000D02*
X152175000Y-68680000D01*
G75*
G02*
X152100000Y-68605000I0J75000D01*
G01*
X152100000Y-68455000D01*
G75*
G02*
X152175000Y-68380000I75000J0D01*
G01*
X153500000Y-68380000D01*
G75*
G02*
X153575000Y-68455000I0J-75000D01*
G01*
X153575000Y-68605000D01*
G75*
G02*
X153500000Y-68680000I-75000J0D01*
G01*
G37*
G36*
G01*
X153500000Y-69180000D02*
X152175000Y-69180000D01*
G75*
G02*
X152100000Y-69105000I0J75000D01*
G01*
X152100000Y-68955000D01*
G75*
G02*
X152175000Y-68880000I75000J0D01*
G01*
X153500000Y-68880000D01*
G75*
G02*
X153575000Y-68955000I0J-75000D01*
G01*
X153575000Y-69105000D01*
G75*
G02*
X153500000Y-69180000I-75000J0D01*
G01*
G37*
G36*
G01*
X154325000Y-71180000D02*
X154175000Y-71180000D01*
G75*
G02*
X154100000Y-71105000I0J75000D01*
G01*
X154100000Y-69780000D01*
G75*
G02*
X154175000Y-69705000I75000J0D01*
G01*
X154325000Y-69705000D01*
G75*
G02*
X154400000Y-69780000I0J-75000D01*
G01*
X154400000Y-71105000D01*
G75*
G02*
X154325000Y-71180000I-75000J0D01*
G01*
G37*
G36*
G01*
X154825000Y-71180000D02*
X154675000Y-71180000D01*
G75*
G02*
X154600000Y-71105000I0J75000D01*
G01*
X154600000Y-69780000D01*
G75*
G02*
X154675000Y-69705000I75000J0D01*
G01*
X154825000Y-69705000D01*
G75*
G02*
X154900000Y-69780000I0J-75000D01*
G01*
X154900000Y-71105000D01*
G75*
G02*
X154825000Y-71180000I-75000J0D01*
G01*
G37*
G36*
G01*
X155325000Y-71180000D02*
X155175000Y-71180000D01*
G75*
G02*
X155100000Y-71105000I0J75000D01*
G01*
X155100000Y-69780000D01*
G75*
G02*
X155175000Y-69705000I75000J0D01*
G01*
X155325000Y-69705000D01*
G75*
G02*
X155400000Y-69780000I0J-75000D01*
G01*
X155400000Y-71105000D01*
G75*
G02*
X155325000Y-71180000I-75000J0D01*
G01*
G37*
G36*
G01*
X155825000Y-71180000D02*
X155675000Y-71180000D01*
G75*
G02*
X155600000Y-71105000I0J75000D01*
G01*
X155600000Y-69780000D01*
G75*
G02*
X155675000Y-69705000I75000J0D01*
G01*
X155825000Y-69705000D01*
G75*
G02*
X155900000Y-69780000I0J-75000D01*
G01*
X155900000Y-71105000D01*
G75*
G02*
X155825000Y-71180000I-75000J0D01*
G01*
G37*
G36*
G01*
X156325000Y-71180000D02*
X156175000Y-71180000D01*
G75*
G02*
X156100000Y-71105000I0J75000D01*
G01*
X156100000Y-69780000D01*
G75*
G02*
X156175000Y-69705000I75000J0D01*
G01*
X156325000Y-69705000D01*
G75*
G02*
X156400000Y-69780000I0J-75000D01*
G01*
X156400000Y-71105000D01*
G75*
G02*
X156325000Y-71180000I-75000J0D01*
G01*
G37*
G36*
G01*
X156825000Y-71180000D02*
X156675000Y-71180000D01*
G75*
G02*
X156600000Y-71105000I0J75000D01*
G01*
X156600000Y-69780000D01*
G75*
G02*
X156675000Y-69705000I75000J0D01*
G01*
X156825000Y-69705000D01*
G75*
G02*
X156900000Y-69780000I0J-75000D01*
G01*
X156900000Y-71105000D01*
G75*
G02*
X156825000Y-71180000I-75000J0D01*
G01*
G37*
G36*
G01*
X157325000Y-71180000D02*
X157175000Y-71180000D01*
G75*
G02*
X157100000Y-71105000I0J75000D01*
G01*
X157100000Y-69780000D01*
G75*
G02*
X157175000Y-69705000I75000J0D01*
G01*
X157325000Y-69705000D01*
G75*
G02*
X157400000Y-69780000I0J-75000D01*
G01*
X157400000Y-71105000D01*
G75*
G02*
X157325000Y-71180000I-75000J0D01*
G01*
G37*
G36*
G01*
X157825000Y-71180000D02*
X157675000Y-71180000D01*
G75*
G02*
X157600000Y-71105000I0J75000D01*
G01*
X157600000Y-69780000D01*
G75*
G02*
X157675000Y-69705000I75000J0D01*
G01*
X157825000Y-69705000D01*
G75*
G02*
X157900000Y-69780000I0J-75000D01*
G01*
X157900000Y-71105000D01*
G75*
G02*
X157825000Y-71180000I-75000J0D01*
G01*
G37*
G36*
G01*
X158325000Y-71180000D02*
X158175000Y-71180000D01*
G75*
G02*
X158100000Y-71105000I0J75000D01*
G01*
X158100000Y-69780000D01*
G75*
G02*
X158175000Y-69705000I75000J0D01*
G01*
X158325000Y-69705000D01*
G75*
G02*
X158400000Y-69780000I0J-75000D01*
G01*
X158400000Y-71105000D01*
G75*
G02*
X158325000Y-71180000I-75000J0D01*
G01*
G37*
G36*
G01*
X158825000Y-71180000D02*
X158675000Y-71180000D01*
G75*
G02*
X158600000Y-71105000I0J75000D01*
G01*
X158600000Y-69780000D01*
G75*
G02*
X158675000Y-69705000I75000J0D01*
G01*
X158825000Y-69705000D01*
G75*
G02*
X158900000Y-69780000I0J-75000D01*
G01*
X158900000Y-71105000D01*
G75*
G02*
X158825000Y-71180000I-75000J0D01*
G01*
G37*
G36*
G01*
X159325000Y-71180000D02*
X159175000Y-71180000D01*
G75*
G02*
X159100000Y-71105000I0J75000D01*
G01*
X159100000Y-69780000D01*
G75*
G02*
X159175000Y-69705000I75000J0D01*
G01*
X159325000Y-69705000D01*
G75*
G02*
X159400000Y-69780000I0J-75000D01*
G01*
X159400000Y-71105000D01*
G75*
G02*
X159325000Y-71180000I-75000J0D01*
G01*
G37*
G36*
G01*
X159825000Y-71180000D02*
X159675000Y-71180000D01*
G75*
G02*
X159600000Y-71105000I0J75000D01*
G01*
X159600000Y-69780000D01*
G75*
G02*
X159675000Y-69705000I75000J0D01*
G01*
X159825000Y-69705000D01*
G75*
G02*
X159900000Y-69780000I0J-75000D01*
G01*
X159900000Y-71105000D01*
G75*
G02*
X159825000Y-71180000I-75000J0D01*
G01*
G37*
%TD*%
M02*
