%TF.GenerationSoftware,KiCad,Pcbnew,(5.99.0-2360-g1790c536e)*%
%TF.CreationDate,2020-08-29T16:27:01+02:00*%
%TF.ProjectId,chubby hat,63687562-6279-4206-9861-742e6b696361,rev?*%
%TF.SameCoordinates,Original*%
%TF.FileFunction,Soldermask,Bot*%
%TF.FilePolarity,Negative*%
%FSLAX46Y46*%
G04 Gerber Fmt 4.6, Leading zero omitted, Abs format (unit mm)*
G04 Created by KiCad (PCBNEW (5.99.0-2360-g1790c536e)) date 2020-08-29 16:27:01*
%MOMM*%
%LPD*%
G01*
G04 APERTURE LIST*
%ADD10C,0.000000*%
%ADD11C,0.150000*%
%ADD12C,0.300000*%
%ADD13C,0.400000*%
%ADD14O,1.800000X1.800000*%
%ADD15O,1.827200X1.827200*%
%ADD16C,2.474900*%
%ADD17C,1.090600*%
%ADD18O,1.100000X1.100000*%
%ADD19O,2.100000X1.000000*%
%ADD20O,1.800000X1.000000*%
%ADD21C,0.700000*%
%ADD22C,4.600880*%
%ADD23C,7.700000*%
G04 APERTURE END LIST*
D10*
D11*
X177002200Y-166007200D02*
X177002200Y-198007200D01*
X285002200Y-198007200D01*
X285002200Y-166007200D01*
X177002200Y-166007200D01*
D10*
D11*
X10000000Y-10000000D02*
X10000000Y-200007200D01*
X287002200Y-200007200D01*
X287002200Y-10000000D01*
X10000000Y-10000000D01*
D10*
D11*
X12000000Y-12000000D02*
X12000000Y-198007200D01*
X285002200Y-198007200D01*
X285002200Y-12000000D01*
X12000000Y-12000000D01*
D10*
D11*
X60000000Y-12000000D02*
X60000000Y-10000000D01*
D10*
D11*
X110000000Y-12000000D02*
X110000000Y-10000000D01*
D10*
D11*
X160000000Y-12000000D02*
X160000000Y-10000000D01*
D10*
D11*
X210000000Y-12000000D02*
X210000000Y-10000000D01*
D10*
D11*
X260000000Y-12000000D02*
X260000000Y-10000000D01*
D10*
D11*
X36065476Y-11588095D02*
X35322619Y-11588095D01*
X35694047Y-11588095D02*
X35694047Y-10288095D01*
X35570238Y-10473809D01*
X35446428Y-10597619D01*
X35322619Y-10659523D01*
D10*
D11*
X85322619Y-10411904D02*
X85384523Y-10350000D01*
X85508333Y-10288095D01*
X85817857Y-10288095D01*
X85941666Y-10350000D01*
X86003571Y-10411904D01*
X86065476Y-10535714D01*
X86065476Y-10659523D01*
X86003571Y-10845238D01*
X85260714Y-11588095D01*
X86065476Y-11588095D01*
D10*
D11*
X135260714Y-10288095D02*
X136065476Y-10288095D01*
X135632142Y-10783333D01*
X135817857Y-10783333D01*
X135941666Y-10845238D01*
X136003571Y-10907142D01*
X136065476Y-11030952D01*
X136065476Y-11340476D01*
X136003571Y-11464285D01*
X135941666Y-11526190D01*
X135817857Y-11588095D01*
X135446428Y-11588095D01*
X135322619Y-11526190D01*
X135260714Y-11464285D01*
D10*
D11*
X185941666Y-10721428D02*
X185941666Y-11588095D01*
X185632142Y-10226190D02*
X185322619Y-11154761D01*
X186127380Y-11154761D01*
D10*
D11*
X236003571Y-10288095D02*
X235384523Y-10288095D01*
X235322619Y-10907142D01*
X235384523Y-10845238D01*
X235508333Y-10783333D01*
X235817857Y-10783333D01*
X235941666Y-10845238D01*
X236003571Y-10907142D01*
X236065476Y-11030952D01*
X236065476Y-11340476D01*
X236003571Y-11464285D01*
X235941666Y-11526190D01*
X235817857Y-11588095D01*
X235508333Y-11588095D01*
X235384523Y-11526190D01*
X235322619Y-11464285D01*
D10*
D11*
X285941666Y-10288095D02*
X285694047Y-10288095D01*
X285570238Y-10350000D01*
X285508333Y-10411904D01*
X285384523Y-10597619D01*
X285322619Y-10845238D01*
X285322619Y-11340476D01*
X285384523Y-11464285D01*
X285446428Y-11526190D01*
X285570238Y-11588095D01*
X285817857Y-11588095D01*
X285941666Y-11526190D01*
X286003571Y-11464285D01*
X286065476Y-11340476D01*
X286065476Y-11030952D01*
X286003571Y-10907142D01*
X285941666Y-10845238D01*
X285817857Y-10783333D01*
X285570238Y-10783333D01*
X285446428Y-10845238D01*
X285384523Y-10907142D01*
X285322619Y-11030952D01*
D10*
D11*
X60000000Y-198007200D02*
X60000000Y-200007200D01*
D10*
D11*
X110000000Y-198007200D02*
X110000000Y-200007200D01*
D10*
D11*
X160000000Y-198007200D02*
X160000000Y-200007200D01*
D10*
D11*
X210000000Y-198007200D02*
X210000000Y-200007200D01*
D10*
D11*
X260000000Y-198007200D02*
X260000000Y-200007200D01*
D10*
D11*
X36065476Y-199595295D02*
X35322619Y-199595295D01*
X35694047Y-199595295D02*
X35694047Y-198295295D01*
X35570238Y-198481009D01*
X35446428Y-198604819D01*
X35322619Y-198666723D01*
D10*
D11*
X85322619Y-198419104D02*
X85384523Y-198357200D01*
X85508333Y-198295295D01*
X85817857Y-198295295D01*
X85941666Y-198357200D01*
X86003571Y-198419104D01*
X86065476Y-198542914D01*
X86065476Y-198666723D01*
X86003571Y-198852438D01*
X85260714Y-199595295D01*
X86065476Y-199595295D01*
D10*
D11*
X135260714Y-198295295D02*
X136065476Y-198295295D01*
X135632142Y-198790533D01*
X135817857Y-198790533D01*
X135941666Y-198852438D01*
X136003571Y-198914342D01*
X136065476Y-199038152D01*
X136065476Y-199347676D01*
X136003571Y-199471485D01*
X135941666Y-199533390D01*
X135817857Y-199595295D01*
X135446428Y-199595295D01*
X135322619Y-199533390D01*
X135260714Y-199471485D01*
D10*
D11*
X185941666Y-198728628D02*
X185941666Y-199595295D01*
X185632142Y-198233390D02*
X185322619Y-199161961D01*
X186127380Y-199161961D01*
D10*
D11*
X236003571Y-198295295D02*
X235384523Y-198295295D01*
X235322619Y-198914342D01*
X235384523Y-198852438D01*
X235508333Y-198790533D01*
X235817857Y-198790533D01*
X235941666Y-198852438D01*
X236003571Y-198914342D01*
X236065476Y-199038152D01*
X236065476Y-199347676D01*
X236003571Y-199471485D01*
X235941666Y-199533390D01*
X235817857Y-199595295D01*
X235508333Y-199595295D01*
X235384523Y-199533390D01*
X235322619Y-199471485D01*
D10*
D11*
X285941666Y-198295295D02*
X285694047Y-198295295D01*
X285570238Y-198357200D01*
X285508333Y-198419104D01*
X285384523Y-198604819D01*
X285322619Y-198852438D01*
X285322619Y-199347676D01*
X285384523Y-199471485D01*
X285446428Y-199533390D01*
X285570238Y-199595295D01*
X285817857Y-199595295D01*
X285941666Y-199533390D01*
X286003571Y-199471485D01*
X286065476Y-199347676D01*
X286065476Y-199038152D01*
X286003571Y-198914342D01*
X285941666Y-198852438D01*
X285817857Y-198790533D01*
X285570238Y-198790533D01*
X285446428Y-198852438D01*
X285384523Y-198914342D01*
X285322619Y-199038152D01*
D10*
D11*
X10000000Y-60000000D02*
X12000000Y-60000000D01*
D10*
D11*
X10000000Y-110000000D02*
X12000000Y-110000000D01*
D10*
D11*
X10000000Y-160000000D02*
X12000000Y-160000000D01*
D10*
D11*
X10690476Y-35216666D02*
X11309523Y-35216666D01*
X10566666Y-35588095D02*
X11000000Y-34288095D01*
X11433333Y-35588095D01*
D10*
D11*
X11092857Y-84907142D02*
X11278571Y-84969047D01*
X11340476Y-85030952D01*
X11402380Y-85154761D01*
X11402380Y-85340476D01*
X11340476Y-85464285D01*
X11278571Y-85526190D01*
X11154761Y-85588095D01*
X10659523Y-85588095D01*
X10659523Y-84288095D01*
X11092857Y-84288095D01*
X11216666Y-84350000D01*
X11278571Y-84411904D01*
X11340476Y-84535714D01*
X11340476Y-84659523D01*
X11278571Y-84783333D01*
X11216666Y-84845238D01*
X11092857Y-84907142D01*
X10659523Y-84907142D01*
D10*
D11*
X11402380Y-135464285D02*
X11340476Y-135526190D01*
X11154761Y-135588095D01*
X11030952Y-135588095D01*
X10845238Y-135526190D01*
X10721428Y-135402380D01*
X10659523Y-135278571D01*
X10597619Y-135030952D01*
X10597619Y-134845238D01*
X10659523Y-134597619D01*
X10721428Y-134473809D01*
X10845238Y-134350000D01*
X11030952Y-134288095D01*
X11154761Y-134288095D01*
X11340476Y-134350000D01*
X11402380Y-134411904D01*
D10*
D11*
X10659523Y-185588095D02*
X10659523Y-184288095D01*
X10969047Y-184288095D01*
X11154761Y-184350000D01*
X11278571Y-184473809D01*
X11340476Y-184597619D01*
X11402380Y-184845238D01*
X11402380Y-185030952D01*
X11340476Y-185278571D01*
X11278571Y-185402380D01*
X11154761Y-185526190D01*
X10969047Y-185588095D01*
X10659523Y-185588095D01*
D10*
D11*
X287002200Y-60000000D02*
X285002200Y-60000000D01*
D10*
D11*
X287002200Y-110000000D02*
X285002200Y-110000000D01*
D10*
D11*
X287002200Y-160000000D02*
X285002200Y-160000000D01*
D10*
D11*
X285692676Y-35216666D02*
X286311723Y-35216666D01*
X285568866Y-35588095D02*
X286002200Y-34288095D01*
X286435533Y-35588095D01*
D10*
D11*
X286095057Y-84907142D02*
X286280771Y-84969047D01*
X286342676Y-85030952D01*
X286404580Y-85154761D01*
X286404580Y-85340476D01*
X286342676Y-85464285D01*
X286280771Y-85526190D01*
X286156961Y-85588095D01*
X285661723Y-85588095D01*
X285661723Y-84288095D01*
X286095057Y-84288095D01*
X286218866Y-84350000D01*
X286280771Y-84411904D01*
X286342676Y-84535714D01*
X286342676Y-84659523D01*
X286280771Y-84783333D01*
X286218866Y-84845238D01*
X286095057Y-84907142D01*
X285661723Y-84907142D01*
D10*
D11*
X286404580Y-135464285D02*
X286342676Y-135526190D01*
X286156961Y-135588095D01*
X286033152Y-135588095D01*
X285847438Y-135526190D01*
X285723628Y-135402380D01*
X285661723Y-135278571D01*
X285599819Y-135030952D01*
X285599819Y-134845238D01*
X285661723Y-134597619D01*
X285723628Y-134473809D01*
X285847438Y-134350000D01*
X286033152Y-134288095D01*
X286156961Y-134288095D01*
X286342676Y-134350000D01*
X286404580Y-134411904D01*
D10*
D11*
X285661723Y-185588095D02*
X285661723Y-184288095D01*
X285971247Y-184288095D01*
X286156961Y-184350000D01*
X286280771Y-184473809D01*
X286342676Y-184597619D01*
X286404580Y-184845238D01*
X286404580Y-185030952D01*
X286342676Y-185278571D01*
X286280771Y-185402380D01*
X286156961Y-185526190D01*
X285971247Y-185588095D01*
X285661723Y-185588095D01*
D10*
D11*
X200434342Y-193785771D02*
X200434342Y-192285771D01*
X200791485Y-192285771D01*
X201005771Y-192357200D01*
X201148628Y-192500057D01*
X201220057Y-192642914D01*
X201291485Y-192928628D01*
X201291485Y-193142914D01*
X201220057Y-193428628D01*
X201148628Y-193571485D01*
X201005771Y-193714342D01*
X200791485Y-193785771D01*
X200434342Y-193785771D01*
X202577200Y-193785771D02*
X202577200Y-193000057D01*
X202505771Y-192857200D01*
X202362914Y-192785771D01*
X202077200Y-192785771D01*
X201934342Y-192857200D01*
X202577200Y-193714342D02*
X202434342Y-193785771D01*
X202077200Y-193785771D01*
X201934342Y-193714342D01*
X201862914Y-193571485D01*
X201862914Y-193428628D01*
X201934342Y-193285771D01*
X202077200Y-193214342D01*
X202434342Y-193214342D01*
X202577200Y-193142914D01*
X203077200Y-192785771D02*
X203648628Y-192785771D01*
X203291485Y-192285771D02*
X203291485Y-193571485D01*
X203362914Y-193714342D01*
X203505771Y-193785771D01*
X203648628Y-193785771D01*
X204720057Y-193714342D02*
X204577200Y-193785771D01*
X204291485Y-193785771D01*
X204148628Y-193714342D01*
X204077200Y-193571485D01*
X204077200Y-193000057D01*
X204148628Y-192857200D01*
X204291485Y-192785771D01*
X204577200Y-192785771D01*
X204720057Y-192857200D01*
X204791485Y-193000057D01*
X204791485Y-193142914D01*
X204077200Y-193285771D01*
X205434342Y-193642914D02*
X205505771Y-193714342D01*
X205434342Y-193785771D01*
X205362914Y-193714342D01*
X205434342Y-193642914D01*
X205434342Y-193785771D01*
X205434342Y-192857200D02*
X205505771Y-192928628D01*
X205434342Y-193000057D01*
X205362914Y-192928628D01*
X205434342Y-192857200D01*
X205434342Y-193000057D01*
D10*
D11*
X177002200Y-194507200D02*
X285002200Y-194507200D01*
D10*
D11*
X178434342Y-196585771D02*
X178434342Y-195085771D01*
X179291485Y-196585771D02*
X178648628Y-195728628D01*
X179291485Y-195085771D02*
X178434342Y-195942914D01*
X179934342Y-196585771D02*
X179934342Y-195585771D01*
X179934342Y-195085771D02*
X179862914Y-195157200D01*
X179934342Y-195228628D01*
X180005771Y-195157200D01*
X179934342Y-195085771D01*
X179934342Y-195228628D01*
X181505771Y-196442914D02*
X181434342Y-196514342D01*
X181220057Y-196585771D01*
X181077200Y-196585771D01*
X180862914Y-196514342D01*
X180720057Y-196371485D01*
X180648628Y-196228628D01*
X180577200Y-195942914D01*
X180577200Y-195728628D01*
X180648628Y-195442914D01*
X180720057Y-195300057D01*
X180862914Y-195157200D01*
X181077200Y-195085771D01*
X181220057Y-195085771D01*
X181434342Y-195157200D01*
X181505771Y-195228628D01*
X182791485Y-196585771D02*
X182791485Y-195800057D01*
X182720057Y-195657200D01*
X182577200Y-195585771D01*
X182291485Y-195585771D01*
X182148628Y-195657200D01*
X182791485Y-196514342D02*
X182648628Y-196585771D01*
X182291485Y-196585771D01*
X182148628Y-196514342D01*
X182077200Y-196371485D01*
X182077200Y-196228628D01*
X182148628Y-196085771D01*
X182291485Y-196014342D01*
X182648628Y-196014342D01*
X182791485Y-195942914D01*
X184148628Y-196585771D02*
X184148628Y-195085771D01*
X184148628Y-196514342D02*
X184005771Y-196585771D01*
X183720057Y-196585771D01*
X183577200Y-196514342D01*
X183505771Y-196442914D01*
X183434342Y-196300057D01*
X183434342Y-195871485D01*
X183505771Y-195728628D01*
X183577200Y-195657200D01*
X183720057Y-195585771D01*
X184005771Y-195585771D01*
X184148628Y-195657200D01*
X186005771Y-195800057D02*
X186505771Y-195800057D01*
X186720057Y-196585771D02*
X186005771Y-196585771D01*
X186005771Y-195085771D01*
X186720057Y-195085771D01*
X187362914Y-196442914D02*
X187434342Y-196514342D01*
X187362914Y-196585771D01*
X187291485Y-196514342D01*
X187362914Y-196442914D01*
X187362914Y-196585771D01*
X188077200Y-196585771D02*
X188077200Y-195085771D01*
X188434342Y-195085771D01*
X188648628Y-195157200D01*
X188791485Y-195300057D01*
X188862914Y-195442914D01*
X188934342Y-195728628D01*
X188934342Y-195942914D01*
X188862914Y-196228628D01*
X188791485Y-196371485D01*
X188648628Y-196514342D01*
X188434342Y-196585771D01*
X188077200Y-196585771D01*
X189577200Y-196442914D02*
X189648628Y-196514342D01*
X189577200Y-196585771D01*
X189505771Y-196514342D01*
X189577200Y-196442914D01*
X189577200Y-196585771D01*
X190220057Y-196157200D02*
X190934342Y-196157200D01*
X190077200Y-196585771D02*
X190577200Y-195085771D01*
X191077200Y-196585771D01*
X191577200Y-196442914D02*
X191648628Y-196514342D01*
X191577200Y-196585771D01*
X191505771Y-196514342D01*
X191577200Y-196442914D01*
X191577200Y-196585771D01*
X194577200Y-196585771D02*
X194577200Y-195085771D01*
X194720057Y-196014342D02*
X195148628Y-196585771D01*
X195148628Y-195585771D02*
X194577200Y-196157200D01*
X195791485Y-196585771D02*
X195791485Y-195585771D01*
X195791485Y-195085771D02*
X195720057Y-195157200D01*
X195791485Y-195228628D01*
X195862914Y-195157200D01*
X195791485Y-195085771D01*
X195791485Y-195228628D01*
X197148628Y-196514342D02*
X197005771Y-196585771D01*
X196720057Y-196585771D01*
X196577200Y-196514342D01*
X196505771Y-196442914D01*
X196434342Y-196300057D01*
X196434342Y-195871485D01*
X196505771Y-195728628D01*
X196577200Y-195657200D01*
X196720057Y-195585771D01*
X197005771Y-195585771D01*
X197148628Y-195657200D01*
X198434342Y-196585771D02*
X198434342Y-195800057D01*
X198362914Y-195657200D01*
X198220057Y-195585771D01*
X197934342Y-195585771D01*
X197791485Y-195657200D01*
X198434342Y-196514342D02*
X198291485Y-196585771D01*
X197934342Y-196585771D01*
X197791485Y-196514342D01*
X197720057Y-196371485D01*
X197720057Y-196228628D01*
X197791485Y-196085771D01*
X197934342Y-196014342D01*
X198291485Y-196014342D01*
X198434342Y-195942914D01*
X199791485Y-196585771D02*
X199791485Y-195085771D01*
X199791485Y-196514342D02*
X199648628Y-196585771D01*
X199362914Y-196585771D01*
X199220057Y-196514342D01*
X199148628Y-196442914D01*
X199077200Y-196300057D01*
X199077200Y-195871485D01*
X199148628Y-195728628D01*
X199220057Y-195657200D01*
X199362914Y-195585771D01*
X199648628Y-195585771D01*
X199791485Y-195657200D01*
X202077200Y-197157200D02*
X202005771Y-197085771D01*
X201862914Y-196871485D01*
X201791485Y-196728628D01*
X201720057Y-196514342D01*
X201648628Y-196157200D01*
X201648628Y-195871485D01*
X201720057Y-195514342D01*
X201791485Y-195300057D01*
X201862914Y-195157200D01*
X202005771Y-194942914D01*
X202077200Y-194871485D01*
X203362914Y-195085771D02*
X202648628Y-195085771D01*
X202577200Y-195800057D01*
X202648628Y-195728628D01*
X202791485Y-195657200D01*
X203148628Y-195657200D01*
X203291485Y-195728628D01*
X203362914Y-195800057D01*
X203434342Y-195942914D01*
X203434342Y-196300057D01*
X203362914Y-196442914D01*
X203291485Y-196514342D01*
X203148628Y-196585771D01*
X202791485Y-196585771D01*
X202648628Y-196514342D01*
X202577200Y-196442914D01*
X204077200Y-196442914D02*
X204148628Y-196514342D01*
X204077200Y-196585771D01*
X204005771Y-196514342D01*
X204077200Y-196442914D01*
X204077200Y-196585771D01*
X204862914Y-196585771D02*
X205148628Y-196585771D01*
X205291485Y-196514342D01*
X205362914Y-196442914D01*
X205505771Y-196228628D01*
X205577200Y-195942914D01*
X205577200Y-195371485D01*
X205505771Y-195228628D01*
X205434342Y-195157200D01*
X205291485Y-195085771D01*
X205005771Y-195085771D01*
X204862914Y-195157200D01*
X204791485Y-195228628D01*
X204720057Y-195371485D01*
X204720057Y-195728628D01*
X204791485Y-195871485D01*
X204862914Y-195942914D01*
X205005771Y-196014342D01*
X205291485Y-196014342D01*
X205434342Y-195942914D01*
X205505771Y-195871485D01*
X205577200Y-195728628D01*
X206291485Y-196585771D02*
X206577200Y-196585771D01*
X206720057Y-196514342D01*
X206791485Y-196442914D01*
X206934342Y-196228628D01*
X207005771Y-195942914D01*
X207005771Y-195371485D01*
X206934342Y-195228628D01*
X206862914Y-195157200D01*
X206720057Y-195085771D01*
X206434342Y-195085771D01*
X206291485Y-195157200D01*
X206220057Y-195228628D01*
X206148628Y-195371485D01*
X206148628Y-195728628D01*
X206220057Y-195871485D01*
X206291485Y-195942914D01*
X206434342Y-196014342D01*
X206720057Y-196014342D01*
X206862914Y-195942914D01*
X206934342Y-195871485D01*
X207005771Y-195728628D01*
X207648628Y-196442914D02*
X207720057Y-196514342D01*
X207648628Y-196585771D01*
X207577200Y-196514342D01*
X207648628Y-196442914D01*
X207648628Y-196585771D01*
X208648628Y-195085771D02*
X208791485Y-195085771D01*
X208934342Y-195157200D01*
X209005771Y-195228628D01*
X209077200Y-195371485D01*
X209148628Y-195657200D01*
X209148628Y-196014342D01*
X209077200Y-196300057D01*
X209005771Y-196442914D01*
X208934342Y-196514342D01*
X208791485Y-196585771D01*
X208648628Y-196585771D01*
X208505771Y-196514342D01*
X208434342Y-196442914D01*
X208362914Y-196300057D01*
X208291485Y-196014342D01*
X208291485Y-195657200D01*
X208362914Y-195371485D01*
X208434342Y-195228628D01*
X208505771Y-195157200D01*
X208648628Y-195085771D01*
X209791485Y-196014342D02*
X210934342Y-196014342D01*
X211577200Y-195228628D02*
X211648628Y-195157200D01*
X211791485Y-195085771D01*
X212148628Y-195085771D01*
X212291485Y-195157200D01*
X212362914Y-195228628D01*
X212434342Y-195371485D01*
X212434342Y-195514342D01*
X212362914Y-195728628D01*
X211505771Y-196585771D01*
X212434342Y-196585771D01*
X212934342Y-195085771D02*
X213862914Y-195085771D01*
X213362914Y-195657200D01*
X213577200Y-195657200D01*
X213720057Y-195728628D01*
X213791485Y-195800057D01*
X213862914Y-195942914D01*
X213862914Y-196300057D01*
X213791485Y-196442914D01*
X213720057Y-196514342D01*
X213577200Y-196585771D01*
X213148628Y-196585771D01*
X213005771Y-196514342D01*
X212934342Y-196442914D01*
X215148628Y-195085771D02*
X214862914Y-195085771D01*
X214720057Y-195157200D01*
X214648628Y-195228628D01*
X214505771Y-195442914D01*
X214434342Y-195728628D01*
X214434342Y-196300057D01*
X214505771Y-196442914D01*
X214577200Y-196514342D01*
X214720057Y-196585771D01*
X215005771Y-196585771D01*
X215148628Y-196514342D01*
X215220057Y-196442914D01*
X215291485Y-196300057D01*
X215291485Y-195942914D01*
X215220057Y-195800057D01*
X215148628Y-195728628D01*
X215005771Y-195657200D01*
X214720057Y-195657200D01*
X214577200Y-195728628D01*
X214505771Y-195800057D01*
X214434342Y-195942914D01*
X216220057Y-195085771D02*
X216362914Y-195085771D01*
X216505771Y-195157200D01*
X216577200Y-195228628D01*
X216648628Y-195371485D01*
X216720057Y-195657200D01*
X216720057Y-196014342D01*
X216648628Y-196300057D01*
X216577200Y-196442914D01*
X216505771Y-196514342D01*
X216362914Y-196585771D01*
X216220057Y-196585771D01*
X216077200Y-196514342D01*
X216005771Y-196442914D01*
X215934342Y-196300057D01*
X215862914Y-196014342D01*
X215862914Y-195657200D01*
X215934342Y-195371485D01*
X216005771Y-195228628D01*
X216077200Y-195157200D01*
X216220057Y-195085771D01*
X217362914Y-196014342D02*
X218505771Y-196014342D01*
X219862914Y-195585771D02*
X219862914Y-196800057D01*
X219791485Y-196942914D01*
X219720057Y-197014342D01*
X219577200Y-197085771D01*
X219362914Y-197085771D01*
X219220057Y-197014342D01*
X219862914Y-196514342D02*
X219720057Y-196585771D01*
X219434342Y-196585771D01*
X219291485Y-196514342D01*
X219220057Y-196442914D01*
X219148628Y-196300057D01*
X219148628Y-195871485D01*
X219220057Y-195728628D01*
X219291485Y-195657200D01*
X219434342Y-195585771D01*
X219720057Y-195585771D01*
X219862914Y-195657200D01*
X221362914Y-196585771D02*
X220505771Y-196585771D01*
X220934342Y-196585771D02*
X220934342Y-195085771D01*
X220791485Y-195300057D01*
X220648628Y-195442914D01*
X220505771Y-195514342D01*
X221862914Y-195085771D02*
X222862914Y-195085771D01*
X222220057Y-196585771D01*
X223505771Y-196585771D02*
X223791485Y-196585771D01*
X223934342Y-196514342D01*
X224005771Y-196442914D01*
X224148628Y-196228628D01*
X224220057Y-195942914D01*
X224220057Y-195371485D01*
X224148628Y-195228628D01*
X224077200Y-195157200D01*
X223934342Y-195085771D01*
X223648628Y-195085771D01*
X223505771Y-195157200D01*
X223434342Y-195228628D01*
X223362914Y-195371485D01*
X223362914Y-195728628D01*
X223434342Y-195871485D01*
X223505771Y-195942914D01*
X223648628Y-196014342D01*
X223934342Y-196014342D01*
X224077200Y-195942914D01*
X224148628Y-195871485D01*
X224220057Y-195728628D01*
X225148628Y-195085771D02*
X225291485Y-195085771D01*
X225434342Y-195157200D01*
X225505771Y-195228628D01*
X225577200Y-195371485D01*
X225648628Y-195657200D01*
X225648628Y-196014342D01*
X225577200Y-196300057D01*
X225505771Y-196442914D01*
X225434342Y-196514342D01*
X225291485Y-196585771D01*
X225148628Y-196585771D01*
X225005771Y-196514342D01*
X224934342Y-196442914D01*
X224862914Y-196300057D01*
X224791485Y-196014342D01*
X224791485Y-195657200D01*
X224862914Y-195371485D01*
X224934342Y-195228628D01*
X225005771Y-195157200D01*
X225148628Y-195085771D01*
X226934342Y-196514342D02*
X226791485Y-196585771D01*
X226505771Y-196585771D01*
X226362914Y-196514342D01*
X226291485Y-196442914D01*
X226220057Y-196300057D01*
X226220057Y-195871485D01*
X226291485Y-195728628D01*
X226362914Y-195657200D01*
X226505771Y-195585771D01*
X226791485Y-195585771D01*
X226934342Y-195657200D01*
X228291485Y-195085771D02*
X227577199Y-195085771D01*
X227505771Y-195800057D01*
X227577199Y-195728628D01*
X227720057Y-195657200D01*
X228077199Y-195657200D01*
X228220057Y-195728628D01*
X228291485Y-195800057D01*
X228362914Y-195942914D01*
X228362914Y-196300057D01*
X228291485Y-196442914D01*
X228220057Y-196514342D01*
X228077199Y-196585771D01*
X227720057Y-196585771D01*
X227577199Y-196514342D01*
X227505771Y-196442914D01*
X228862914Y-195085771D02*
X229791485Y-195085771D01*
X229291485Y-195657200D01*
X229505771Y-195657200D01*
X229648628Y-195728628D01*
X229720057Y-195800057D01*
X229791485Y-195942914D01*
X229791485Y-196300057D01*
X229720057Y-196442914D01*
X229648628Y-196514342D01*
X229505771Y-196585771D01*
X229077199Y-196585771D01*
X228934342Y-196514342D01*
X228862914Y-196442914D01*
X231077199Y-195085771D02*
X230791485Y-195085771D01*
X230648628Y-195157200D01*
X230577199Y-195228628D01*
X230434342Y-195442914D01*
X230362914Y-195728628D01*
X230362914Y-196300057D01*
X230434342Y-196442914D01*
X230505771Y-196514342D01*
X230648628Y-196585771D01*
X230934342Y-196585771D01*
X231077199Y-196514342D01*
X231148628Y-196442914D01*
X231220057Y-196300057D01*
X231220057Y-195942914D01*
X231148628Y-195800057D01*
X231077199Y-195728628D01*
X230934342Y-195657200D01*
X230648628Y-195657200D01*
X230505771Y-195728628D01*
X230434342Y-195800057D01*
X230362914Y-195942914D01*
X232434342Y-196514342D02*
X232291485Y-196585771D01*
X232005771Y-196585771D01*
X231862914Y-196514342D01*
X231791485Y-196371485D01*
X231791485Y-195800057D01*
X231862914Y-195657200D01*
X232005771Y-195585771D01*
X232291485Y-195585771D01*
X232434342Y-195657200D01*
X232505771Y-195800057D01*
X232505771Y-195942914D01*
X231791485Y-196085771D01*
X233005771Y-197157200D02*
X233077199Y-197085771D01*
X233220057Y-196871485D01*
X233291485Y-196728628D01*
X233362914Y-196514342D01*
X233434342Y-196157200D01*
X233434342Y-195871485D01*
X233362914Y-195514342D01*
X233291485Y-195300057D01*
X233220057Y-195157200D01*
X233077199Y-194942914D01*
X233005771Y-194871485D01*
D10*
D11*
X177002200Y-191507200D02*
X285002200Y-191507200D01*
D10*
D12*
X264411485Y-193785771D02*
X263911485Y-193071485D01*
X263554342Y-193785771D02*
X263554342Y-192285771D01*
X264125771Y-192285771D01*
X264268628Y-192357200D01*
X264340057Y-192428628D01*
X264411485Y-192571485D01*
X264411485Y-192785771D01*
X264340057Y-192928628D01*
X264268628Y-193000057D01*
X264125771Y-193071485D01*
X263554342Y-193071485D01*
X265625771Y-193714342D02*
X265482914Y-193785771D01*
X265197200Y-193785771D01*
X265054342Y-193714342D01*
X264982914Y-193571485D01*
X264982914Y-193000057D01*
X265054342Y-192857200D01*
X265197200Y-192785771D01*
X265482914Y-192785771D01*
X265625771Y-192857200D01*
X265697200Y-193000057D01*
X265697200Y-193142914D01*
X264982914Y-193285771D01*
X266197200Y-192785771D02*
X266554342Y-193785771D01*
X266911485Y-192785771D01*
X267482914Y-193642914D02*
X267554342Y-193714342D01*
X267482914Y-193785771D01*
X267411485Y-193714342D01*
X267482914Y-193642914D01*
X267482914Y-193785771D01*
X267482914Y-192857200D02*
X267554342Y-192928628D01*
X267482914Y-193000057D01*
X267411485Y-192928628D01*
X267482914Y-192857200D01*
X267482914Y-193000057D01*
D10*
D11*
X178362914Y-193714342D02*
X178577200Y-193785771D01*
X178934342Y-193785771D01*
X179077200Y-193714342D01*
X179148628Y-193642914D01*
X179220057Y-193500057D01*
X179220057Y-193357200D01*
X179148628Y-193214342D01*
X179077200Y-193142914D01*
X178934342Y-193071485D01*
X178648628Y-193000057D01*
X178505771Y-192928628D01*
X178434342Y-192857200D01*
X178362914Y-192714342D01*
X178362914Y-192571485D01*
X178434342Y-192428628D01*
X178505771Y-192357200D01*
X178648628Y-192285771D01*
X179005771Y-192285771D01*
X179220057Y-192357200D01*
X179862914Y-193785771D02*
X179862914Y-192785771D01*
X179862914Y-192285771D02*
X179791485Y-192357200D01*
X179862914Y-192428628D01*
X179934342Y-192357200D01*
X179862914Y-192285771D01*
X179862914Y-192428628D01*
X180434342Y-192785771D02*
X181220057Y-192785771D01*
X180434342Y-193785771D01*
X181220057Y-193785771D01*
X182362914Y-193714342D02*
X182220057Y-193785771D01*
X181934342Y-193785771D01*
X181791485Y-193714342D01*
X181720057Y-193571485D01*
X181720057Y-193000057D01*
X181791485Y-192857200D01*
X181934342Y-192785771D01*
X182220057Y-192785771D01*
X182362914Y-192857200D01*
X182434342Y-193000057D01*
X182434342Y-193142914D01*
X181720057Y-193285771D01*
X183077200Y-193642914D02*
X183148628Y-193714342D01*
X183077200Y-193785771D01*
X183005771Y-193714342D01*
X183077200Y-193642914D01*
X183077200Y-193785771D01*
X183077200Y-192857200D02*
X183148628Y-192928628D01*
X183077200Y-193000057D01*
X183005771Y-192928628D01*
X183077200Y-192857200D01*
X183077200Y-193000057D01*
X184862914Y-193357200D02*
X185577200Y-193357200D01*
X184720057Y-193785771D02*
X185220057Y-192285771D01*
X185720057Y-193785771D01*
X186862914Y-192785771D02*
X186862914Y-193785771D01*
X186505771Y-192214342D02*
X186148628Y-193285771D01*
X187077200Y-193285771D01*
D10*
D11*
X263434342Y-196585771D02*
X263434342Y-195085771D01*
X264791485Y-196585771D02*
X264791485Y-195085771D01*
X264791485Y-196514342D02*
X264648628Y-196585771D01*
X264362914Y-196585771D01*
X264220057Y-196514342D01*
X264148628Y-196442914D01*
X264077200Y-196300057D01*
X264077200Y-195871485D01*
X264148628Y-195728628D01*
X264220057Y-195657200D01*
X264362914Y-195585771D01*
X264648628Y-195585771D01*
X264791485Y-195657200D01*
X265505771Y-196442914D02*
X265577200Y-196514342D01*
X265505771Y-196585771D01*
X265434342Y-196514342D01*
X265505771Y-196442914D01*
X265505771Y-196585771D01*
X265505771Y-195657200D02*
X265577200Y-195728628D01*
X265505771Y-195800057D01*
X265434342Y-195728628D01*
X265505771Y-195657200D01*
X265505771Y-195800057D01*
X268148628Y-196585771D02*
X267291485Y-196585771D01*
X267720057Y-196585771D02*
X267720057Y-195085771D01*
X267577200Y-195300057D01*
X267434342Y-195442914D01*
X267291485Y-195514342D01*
X269862914Y-195014342D02*
X268577200Y-196942914D01*
X271148628Y-196585771D02*
X270291485Y-196585771D01*
X270720057Y-196585771D02*
X270720057Y-195085771D01*
X270577200Y-195300057D01*
X270434342Y-195442914D01*
X270291485Y-195514342D01*
D10*
D11*
X177002200Y-187507200D02*
X285002200Y-187507200D01*
D10*
D13*
X178714580Y-188211961D02*
X179857438Y-188211961D01*
X179036009Y-190211961D02*
X179286009Y-188211961D01*
X180274104Y-190211961D02*
X180440771Y-188878628D01*
X180524104Y-188211961D02*
X180416961Y-188307200D01*
X180500295Y-188402438D01*
X180607438Y-188307200D01*
X180524104Y-188211961D01*
X180500295Y-188402438D01*
X181107438Y-188878628D02*
X181869342Y-188878628D01*
X181476485Y-188211961D02*
X181262200Y-189926247D01*
X181333628Y-190116723D01*
X181512200Y-190211961D01*
X181702676Y-190211961D01*
X182655057Y-190211961D02*
X182476485Y-190116723D01*
X182405057Y-189926247D01*
X182619342Y-188211961D01*
X184190771Y-190116723D02*
X183988390Y-190211961D01*
X183607438Y-190211961D01*
X183428866Y-190116723D01*
X183357438Y-189926247D01*
X183452676Y-189164342D01*
X183571723Y-188973866D01*
X183774104Y-188878628D01*
X184155057Y-188878628D01*
X184333628Y-188973866D01*
X184405057Y-189164342D01*
X184381247Y-189354819D01*
X183405057Y-189545295D01*
X185155057Y-190021485D02*
X185238390Y-190116723D01*
X185131247Y-190211961D01*
X185047914Y-190116723D01*
X185155057Y-190021485D01*
X185131247Y-190211961D01*
X185286009Y-188973866D02*
X185369342Y-189069104D01*
X185262200Y-189164342D01*
X185178866Y-189069104D01*
X185286009Y-188973866D01*
X185262200Y-189164342D01*
D10*
D11*
X178934342Y-185600057D02*
X178434342Y-185600057D01*
X178434342Y-186385771D02*
X178434342Y-184885771D01*
X179148628Y-184885771D01*
X179720057Y-186385771D02*
X179720057Y-185385771D01*
X179720057Y-184885771D02*
X179648628Y-184957200D01*
X179720057Y-185028628D01*
X179791485Y-184957200D01*
X179720057Y-184885771D01*
X179720057Y-185028628D01*
X180648628Y-186385771D02*
X180505771Y-186314342D01*
X180434342Y-186171485D01*
X180434342Y-184885771D01*
X181791485Y-186314342D02*
X181648628Y-186385771D01*
X181362914Y-186385771D01*
X181220057Y-186314342D01*
X181148628Y-186171485D01*
X181148628Y-185600057D01*
X181220057Y-185457200D01*
X181362914Y-185385771D01*
X181648628Y-185385771D01*
X181791485Y-185457200D01*
X181862914Y-185600057D01*
X181862914Y-185742914D01*
X181148628Y-185885771D01*
X182505771Y-186242914D02*
X182577200Y-186314342D01*
X182505771Y-186385771D01*
X182434342Y-186314342D01*
X182505771Y-186242914D01*
X182505771Y-186385771D01*
X182505771Y-185457200D02*
X182577200Y-185528628D01*
X182505771Y-185600057D01*
X182434342Y-185528628D01*
X182505771Y-185457200D01*
X182505771Y-185600057D01*
X185005771Y-186314342D02*
X184862914Y-186385771D01*
X184577200Y-186385771D01*
X184434342Y-186314342D01*
X184362914Y-186242914D01*
X184291485Y-186100057D01*
X184291485Y-185671485D01*
X184362914Y-185528628D01*
X184434342Y-185457200D01*
X184577200Y-185385771D01*
X184862914Y-185385771D01*
X185005771Y-185457200D01*
X185648628Y-186385771D02*
X185648628Y-184885771D01*
X186291485Y-186385771D02*
X186291485Y-185600057D01*
X186220057Y-185457200D01*
X186077200Y-185385771D01*
X185862914Y-185385771D01*
X185720057Y-185457200D01*
X185648628Y-185528628D01*
X187648628Y-185385771D02*
X187648628Y-186385771D01*
X187005771Y-185385771D02*
X187005771Y-186171485D01*
X187077200Y-186314342D01*
X187220057Y-186385771D01*
X187434342Y-186385771D01*
X187577200Y-186314342D01*
X187648628Y-186242914D01*
X188362914Y-186385771D02*
X188362914Y-184885771D01*
X188362914Y-185457200D02*
X188505771Y-185385771D01*
X188791485Y-185385771D01*
X188934342Y-185457200D01*
X189005771Y-185528628D01*
X189077200Y-185671485D01*
X189077200Y-186100057D01*
X189005771Y-186242914D01*
X188934342Y-186314342D01*
X188791485Y-186385771D01*
X188505771Y-186385771D01*
X188362914Y-186314342D01*
X189720057Y-186385771D02*
X189720057Y-184885771D01*
X189720057Y-185457200D02*
X189862914Y-185385771D01*
X190148628Y-185385771D01*
X190291485Y-185457200D01*
X190362914Y-185528628D01*
X190434342Y-185671485D01*
X190434342Y-186100057D01*
X190362914Y-186242914D01*
X190291485Y-186314342D01*
X190148628Y-186385771D01*
X189862914Y-186385771D01*
X189720057Y-186314342D01*
X190934342Y-185385771D02*
X191291485Y-186385771D01*
X191648628Y-185385771D02*
X191291485Y-186385771D01*
X191148628Y-186742914D01*
X191077200Y-186814342D01*
X190934342Y-186885771D01*
X193362914Y-186385771D02*
X193362914Y-184885771D01*
X194005771Y-186385771D02*
X194005771Y-185600057D01*
X193934342Y-185457200D01*
X193791485Y-185385771D01*
X193577200Y-185385771D01*
X193434342Y-185457200D01*
X193362914Y-185528628D01*
X195362914Y-186385771D02*
X195362914Y-185600057D01*
X195291485Y-185457200D01*
X195148628Y-185385771D01*
X194862914Y-185385771D01*
X194720057Y-185457200D01*
X195362914Y-186314342D02*
X195220057Y-186385771D01*
X194862914Y-186385771D01*
X194720057Y-186314342D01*
X194648628Y-186171485D01*
X194648628Y-186028628D01*
X194720057Y-185885771D01*
X194862914Y-185814342D01*
X195220057Y-185814342D01*
X195362914Y-185742914D01*
X195862914Y-185385771D02*
X196434342Y-185385771D01*
X196077200Y-184885771D02*
X196077200Y-186171485D01*
X196148628Y-186314342D01*
X196291485Y-186385771D01*
X196434342Y-186385771D01*
X196934342Y-186242914D02*
X197005771Y-186314342D01*
X196934342Y-186385771D01*
X196862914Y-186314342D01*
X196934342Y-186242914D01*
X196934342Y-186385771D01*
X197648628Y-186385771D02*
X197648628Y-184885771D01*
X197791485Y-185814342D02*
X198220057Y-186385771D01*
X198220057Y-185385771D02*
X197648628Y-185957200D01*
X198862914Y-186385771D02*
X198862914Y-185385771D01*
X198862914Y-184885771D02*
X198791485Y-184957200D01*
X198862914Y-185028628D01*
X198934342Y-184957200D01*
X198862914Y-184885771D01*
X198862914Y-185028628D01*
X200220057Y-186314342D02*
X200077200Y-186385771D01*
X199791485Y-186385771D01*
X199648628Y-186314342D01*
X199577200Y-186242914D01*
X199505771Y-186100057D01*
X199505771Y-185671485D01*
X199577200Y-185528628D01*
X199648628Y-185457200D01*
X199791485Y-185385771D01*
X200077200Y-185385771D01*
X200220057Y-185457200D01*
X201505771Y-186385771D02*
X201505771Y-185600057D01*
X201434342Y-185457200D01*
X201291485Y-185385771D01*
X201005771Y-185385771D01*
X200862914Y-185457200D01*
X201505771Y-186314342D02*
X201362914Y-186385771D01*
X201005771Y-186385771D01*
X200862914Y-186314342D01*
X200791485Y-186171485D01*
X200791485Y-186028628D01*
X200862914Y-185885771D01*
X201005771Y-185814342D01*
X201362914Y-185814342D01*
X201505771Y-185742914D01*
X202862914Y-186385771D02*
X202862914Y-184885771D01*
X202862914Y-186314342D02*
X202720057Y-186385771D01*
X202434342Y-186385771D01*
X202291485Y-186314342D01*
X202220057Y-186242914D01*
X202148628Y-186100057D01*
X202148628Y-185671485D01*
X202220057Y-185528628D01*
X202291485Y-185457200D01*
X202434342Y-185385771D01*
X202720057Y-185385771D01*
X202862914Y-185457200D01*
X203220057Y-186528628D02*
X204362914Y-186528628D01*
X204720057Y-185385771D02*
X204720057Y-186885771D01*
X204720057Y-185457200D02*
X204862914Y-185385771D01*
X205148628Y-185385771D01*
X205291485Y-185457200D01*
X205362914Y-185528628D01*
X205434342Y-185671485D01*
X205434342Y-186100057D01*
X205362914Y-186242914D01*
X205291485Y-186314342D01*
X205148628Y-186385771D01*
X204862914Y-186385771D01*
X204720057Y-186314342D01*
X206720057Y-186314342D02*
X206577200Y-186385771D01*
X206291485Y-186385771D01*
X206148628Y-186314342D01*
X206077200Y-186242914D01*
X206005771Y-186100057D01*
X206005771Y-185671485D01*
X206077200Y-185528628D01*
X206148628Y-185457200D01*
X206291485Y-185385771D01*
X206577200Y-185385771D01*
X206720057Y-185457200D01*
X207362914Y-186385771D02*
X207362914Y-184885771D01*
X207362914Y-185457200D02*
X207505771Y-185385771D01*
X207791485Y-185385771D01*
X207934342Y-185457200D01*
X208005771Y-185528628D01*
X208077200Y-185671485D01*
X208077200Y-186100057D01*
X208005771Y-186242914D01*
X207934342Y-186314342D01*
X207791485Y-186385771D01*
X207505771Y-186385771D01*
X207362914Y-186314342D01*
D10*
D11*
X177002200Y-181507200D02*
X285002200Y-181507200D01*
D10*
D11*
X178362914Y-183614342D02*
X178577200Y-183685771D01*
X178934342Y-183685771D01*
X179077200Y-183614342D01*
X179148628Y-183542914D01*
X179220057Y-183400057D01*
X179220057Y-183257200D01*
X179148628Y-183114342D01*
X179077200Y-183042914D01*
X178934342Y-182971485D01*
X178648628Y-182900057D01*
X178505771Y-182828628D01*
X178434342Y-182757200D01*
X178362914Y-182614342D01*
X178362914Y-182471485D01*
X178434342Y-182328628D01*
X178505771Y-182257200D01*
X178648628Y-182185771D01*
X179005771Y-182185771D01*
X179220057Y-182257200D01*
X179862914Y-183685771D02*
X179862914Y-182185771D01*
X180505771Y-183685771D02*
X180505771Y-182900057D01*
X180434342Y-182757200D01*
X180291485Y-182685771D01*
X180077200Y-182685771D01*
X179934342Y-182757200D01*
X179862914Y-182828628D01*
X181791485Y-183614342D02*
X181648628Y-183685771D01*
X181362914Y-183685771D01*
X181220057Y-183614342D01*
X181148628Y-183471485D01*
X181148628Y-182900057D01*
X181220057Y-182757200D01*
X181362914Y-182685771D01*
X181648628Y-182685771D01*
X181791485Y-182757200D01*
X181862914Y-182900057D01*
X181862914Y-183042914D01*
X181148628Y-183185771D01*
X183077200Y-183614342D02*
X182934342Y-183685771D01*
X182648628Y-183685771D01*
X182505771Y-183614342D01*
X182434342Y-183471485D01*
X182434342Y-182900057D01*
X182505771Y-182757200D01*
X182648628Y-182685771D01*
X182934342Y-182685771D01*
X183077200Y-182757200D01*
X183148628Y-182900057D01*
X183148628Y-183042914D01*
X182434342Y-183185771D01*
X183577200Y-182685771D02*
X184148628Y-182685771D01*
X183791485Y-182185771D02*
X183791485Y-183471485D01*
X183862914Y-183614342D01*
X184005771Y-183685771D01*
X184148628Y-183685771D01*
X184648628Y-183542914D02*
X184720057Y-183614342D01*
X184648628Y-183685771D01*
X184577200Y-183614342D01*
X184648628Y-183542914D01*
X184648628Y-183685771D01*
X184648628Y-182757200D02*
X184720057Y-182828628D01*
X184648628Y-182900057D01*
X184577200Y-182828628D01*
X184648628Y-182757200D01*
X184648628Y-182900057D01*
D10*
D12*
D10*
D11*
D10*
D11*
D10*
D11*
D10*
D11*
D10*
D11*
X197002200Y-191507200D02*
X197002200Y-194507200D01*
D10*
D11*
X261002200Y-191507200D02*
X261002200Y-198007200D01*
%TO.C,C24*%
G36*
G01*
X163468750Y-60080000D02*
X164031250Y-60080000D01*
G75*
G02*
X164275000Y-60323750I0J-243750D01*
G01*
X164275000Y-60811250D01*
G75*
G02*
X164031250Y-61055000I-243750J0D01*
G01*
X163468750Y-61055000D01*
G75*
G02*
X163225000Y-60811250I0J243750D01*
G01*
X163225000Y-60323750D01*
G75*
G02*
X163468750Y-60080000I243750J0D01*
G01*
G37*
G36*
G01*
X163468750Y-58505000D02*
X164031250Y-58505000D01*
G75*
G02*
X164275000Y-58748750I0J-243750D01*
G01*
X164275000Y-59236250D01*
G75*
G02*
X164031250Y-59480000I-243750J0D01*
G01*
X163468750Y-59480000D01*
G75*
G02*
X163225000Y-59236250I0J243750D01*
G01*
X163225000Y-58748750D01*
G75*
G02*
X163468750Y-58505000I243750J0D01*
G01*
G37*
%TD*%
%TO.C,R15*%
G36*
G01*
X158031250Y-88480000D02*
X157468750Y-88480000D01*
G75*
G02*
X157225000Y-88236250I0J243750D01*
G01*
X157225000Y-87748750D01*
G75*
G02*
X157468750Y-87505000I243750J0D01*
G01*
X158031250Y-87505000D01*
G75*
G02*
X158275000Y-87748750I0J-243750D01*
G01*
X158275000Y-88236250D01*
G75*
G02*
X158031250Y-88480000I-243750J0D01*
G01*
G37*
G36*
G01*
X158031250Y-90055000D02*
X157468750Y-90055000D01*
G75*
G02*
X157225000Y-89811250I0J243750D01*
G01*
X157225000Y-89323750D01*
G75*
G02*
X157468750Y-89080000I243750J0D01*
G01*
X158031250Y-89080000D01*
G75*
G02*
X158275000Y-89323750I0J-243750D01*
G01*
X158275000Y-89811250D01*
G75*
G02*
X158031250Y-90055000I-243750J0D01*
G01*
G37*
%TD*%
%TO.C,C23*%
G36*
G01*
X159468750Y-89080000D02*
X160031250Y-89080000D01*
G75*
G02*
X160275000Y-89323750I0J-243750D01*
G01*
X160275000Y-89811250D01*
G75*
G02*
X160031250Y-90055000I-243750J0D01*
G01*
X159468750Y-90055000D01*
G75*
G02*
X159225000Y-89811250I0J243750D01*
G01*
X159225000Y-89323750D01*
G75*
G02*
X159468750Y-89080000I243750J0D01*
G01*
G37*
G36*
G01*
X159468750Y-87505000D02*
X160031250Y-87505000D01*
G75*
G02*
X160275000Y-87748750I0J-243750D01*
G01*
X160275000Y-88236250D01*
G75*
G02*
X160031250Y-88480000I-243750J0D01*
G01*
X159468750Y-88480000D01*
G75*
G02*
X159225000Y-88236250I0J243750D01*
G01*
X159225000Y-87748750D01*
G75*
G02*
X159468750Y-87505000I243750J0D01*
G01*
G37*
%TD*%
%TO.C,R20*%
G36*
G01*
X154468750Y-59080000D02*
X155031250Y-59080000D01*
G75*
G02*
X155275000Y-59323750I0J-243750D01*
G01*
X155275000Y-59811250D01*
G75*
G02*
X155031250Y-60055000I-243750J0D01*
G01*
X154468750Y-60055000D01*
G75*
G02*
X154225000Y-59811250I0J243750D01*
G01*
X154225000Y-59323750D01*
G75*
G02*
X154468750Y-59080000I243750J0D01*
G01*
G37*
G36*
G01*
X154468750Y-57505000D02*
X155031250Y-57505000D01*
G75*
G02*
X155275000Y-57748750I0J-243750D01*
G01*
X155275000Y-58236250D01*
G75*
G02*
X155031250Y-58480000I-243750J0D01*
G01*
X154468750Y-58480000D01*
G75*
G02*
X154225000Y-58236250I0J243750D01*
G01*
X154225000Y-57748750D01*
G75*
G02*
X154468750Y-57505000I243750J0D01*
G01*
G37*
%TD*%
%TO.C,R19*%
G36*
G01*
X155531250Y-73480000D02*
X154968750Y-73480000D01*
G75*
G02*
X154725000Y-73236250I0J243750D01*
G01*
X154725000Y-72748750D01*
G75*
G02*
X154968750Y-72505000I243750J0D01*
G01*
X155531250Y-72505000D01*
G75*
G02*
X155775000Y-72748750I0J-243750D01*
G01*
X155775000Y-73236250D01*
G75*
G02*
X155531250Y-73480000I-243750J0D01*
G01*
G37*
G36*
G01*
X155531250Y-75055000D02*
X154968750Y-75055000D01*
G75*
G02*
X154725000Y-74811250I0J243750D01*
G01*
X154725000Y-74323750D01*
G75*
G02*
X154968750Y-74080000I243750J0D01*
G01*
X155531250Y-74080000D01*
G75*
G02*
X155775000Y-74323750I0J-243750D01*
G01*
X155775000Y-74811250D01*
G75*
G02*
X155531250Y-75055000I-243750J0D01*
G01*
G37*
%TD*%
%TO.C,U4*%
G36*
G01*
X149046667Y-81480000D02*
X147553333Y-81480000D01*
G75*
G02*
X147500000Y-81426667I0J53333D01*
G01*
X147500000Y-79433333D01*
G75*
G02*
X147553333Y-79380000I53333J0D01*
G01*
X149046667Y-79380000D01*
G75*
G02*
X149100000Y-79433333I0J-53333D01*
G01*
X149100000Y-81426667D01*
G75*
G02*
X149046667Y-81480000I-53333J0D01*
G01*
G37*
G36*
G01*
X144446667Y-81480000D02*
X142953333Y-81480000D01*
G75*
G02*
X142900000Y-81426667I0J53333D01*
G01*
X142900000Y-79433333D01*
G75*
G02*
X142953333Y-79380000I53333J0D01*
G01*
X144446667Y-79380000D01*
G75*
G02*
X144500000Y-79433333I0J-53333D01*
G01*
X144500000Y-81426667D01*
G75*
G02*
X144446667Y-81480000I-53333J0D01*
G01*
G37*
G36*
G01*
X146746667Y-81480000D02*
X145253333Y-81480000D01*
G75*
G02*
X145200000Y-81426667I0J53333D01*
G01*
X145200000Y-79433333D01*
G75*
G02*
X145253333Y-79380000I53333J0D01*
G01*
X146746667Y-79380000D01*
G75*
G02*
X146800000Y-79433333I0J-53333D01*
G01*
X146800000Y-81426667D01*
G75*
G02*
X146746667Y-81480000I-53333J0D01*
G01*
G37*
G36*
G01*
X147897500Y-75180000D02*
X144102500Y-75180000D01*
G75*
G02*
X144050000Y-75127500I0J52500D01*
G01*
X144050000Y-73132500D01*
G75*
G02*
X144102500Y-73080000I52500J0D01*
G01*
X147897500Y-73080000D01*
G75*
G02*
X147950000Y-73132500I0J-52500D01*
G01*
X147950000Y-75127500D01*
G75*
G02*
X147897500Y-75180000I-52500J0D01*
G01*
G37*
%TD*%
D14*
%TO.C,J19*%
X269240000Y-92710000D03*
G36*
G01*
X267547059Y-93610000D02*
X265852941Y-93610000D01*
G75*
G02*
X265800000Y-93557059I0J52941D01*
G01*
X265800000Y-91862941D01*
G75*
G02*
X265852941Y-91810000I52941J0D01*
G01*
X267547059Y-91810000D01*
G75*
G02*
X267600000Y-91862941I0J-52941D01*
G01*
X267600000Y-93557059D01*
G75*
G02*
X267547059Y-93610000I-52941J0D01*
G01*
G37*
%TD*%
%TO.C,J18*%
X231140000Y-125730000D03*
G36*
G01*
X230240000Y-124037059D02*
X230240000Y-122342941D01*
G75*
G02*
X230292941Y-122290000I52941J0D01*
G01*
X231987059Y-122290000D01*
G75*
G02*
X232040000Y-122342941I0J-52941D01*
G01*
X232040000Y-124037059D01*
G75*
G02*
X231987059Y-124090000I-52941J0D01*
G01*
X230292941Y-124090000D01*
G75*
G02*
X230240000Y-124037059I0J52941D01*
G01*
G37*
%TD*%
%TO.C,J17*%
X208280000Y-125730000D03*
G36*
G01*
X207380000Y-124037059D02*
X207380000Y-122342941D01*
G75*
G02*
X207432941Y-122290000I52941J0D01*
G01*
X209127059Y-122290000D01*
G75*
G02*
X209180000Y-122342941I0J-52941D01*
G01*
X209180000Y-124037059D01*
G75*
G02*
X209127059Y-124090000I-52941J0D01*
G01*
X207432941Y-124090000D01*
G75*
G02*
X207380000Y-124037059I0J52941D01*
G01*
G37*
%TD*%
%TO.C,J16*%
X208280000Y-36830000D03*
G36*
G01*
X209180000Y-38522941D02*
X209180000Y-40217059D01*
G75*
G02*
X209127059Y-40270000I-52941J0D01*
G01*
X207432941Y-40270000D01*
G75*
G02*
X207380000Y-40217059I0J52941D01*
G01*
X207380000Y-38522941D01*
G75*
G02*
X207432941Y-38470000I52941J0D01*
G01*
X209127059Y-38470000D01*
G75*
G02*
X209180000Y-38522941I0J-52941D01*
G01*
G37*
%TD*%
%TO.C,J15*%
X231140000Y-36830000D03*
G36*
G01*
X232040000Y-38522941D02*
X232040000Y-40217059D01*
G75*
G02*
X231987059Y-40270000I-52941J0D01*
G01*
X230292941Y-40270000D01*
G75*
G02*
X230240000Y-40217059I0J52941D01*
G01*
X230240000Y-38522941D01*
G75*
G02*
X230292941Y-38470000I52941J0D01*
G01*
X231987059Y-38470000D01*
G75*
G02*
X232040000Y-38522941I0J-52941D01*
G01*
G37*
%TD*%
%TO.C,U3*%
G36*
G01*
X161950000Y-93430000D02*
X161950000Y-93630000D01*
G75*
G02*
X161850000Y-93730000I-100000J0D01*
G01*
X160475000Y-93730000D01*
G75*
G02*
X160375000Y-93630000I0J100000D01*
G01*
X160375000Y-93430000D01*
G75*
G02*
X160475000Y-93330000I100000J0D01*
G01*
X161850000Y-93330000D01*
G75*
G02*
X161950000Y-93430000I0J-100000D01*
G01*
G37*
G36*
G01*
X161950000Y-93930000D02*
X161950000Y-94130000D01*
G75*
G02*
X161850000Y-94230000I-100000J0D01*
G01*
X160475000Y-94230000D01*
G75*
G02*
X160375000Y-94130000I0J100000D01*
G01*
X160375000Y-93930000D01*
G75*
G02*
X160475000Y-93830000I100000J0D01*
G01*
X161850000Y-93830000D01*
G75*
G02*
X161950000Y-93930000I0J-100000D01*
G01*
G37*
G36*
G01*
X161950000Y-94430000D02*
X161950000Y-94630000D01*
G75*
G02*
X161850000Y-94730000I-100000J0D01*
G01*
X160475000Y-94730000D01*
G75*
G02*
X160375000Y-94630000I0J100000D01*
G01*
X160375000Y-94430000D01*
G75*
G02*
X160475000Y-94330000I100000J0D01*
G01*
X161850000Y-94330000D01*
G75*
G02*
X161950000Y-94430000I0J-100000D01*
G01*
G37*
G36*
G01*
X161950000Y-94930000D02*
X161950000Y-95130000D01*
G75*
G02*
X161850000Y-95230000I-100000J0D01*
G01*
X160475000Y-95230000D01*
G75*
G02*
X160375000Y-95130000I0J100000D01*
G01*
X160375000Y-94930000D01*
G75*
G02*
X160475000Y-94830000I100000J0D01*
G01*
X161850000Y-94830000D01*
G75*
G02*
X161950000Y-94930000I0J-100000D01*
G01*
G37*
G36*
G01*
X161950000Y-95430000D02*
X161950000Y-95630000D01*
G75*
G02*
X161850000Y-95730000I-100000J0D01*
G01*
X160475000Y-95730000D01*
G75*
G02*
X160375000Y-95630000I0J100000D01*
G01*
X160375000Y-95430000D01*
G75*
G02*
X160475000Y-95330000I100000J0D01*
G01*
X161850000Y-95330000D01*
G75*
G02*
X161950000Y-95430000I0J-100000D01*
G01*
G37*
G36*
G01*
X161950000Y-95930000D02*
X161950000Y-96130000D01*
G75*
G02*
X161850000Y-96230000I-100000J0D01*
G01*
X160475000Y-96230000D01*
G75*
G02*
X160375000Y-96130000I0J100000D01*
G01*
X160375000Y-95930000D01*
G75*
G02*
X160475000Y-95830000I100000J0D01*
G01*
X161850000Y-95830000D01*
G75*
G02*
X161950000Y-95930000I0J-100000D01*
G01*
G37*
G36*
G01*
X161950000Y-96430000D02*
X161950000Y-96630000D01*
G75*
G02*
X161850000Y-96730000I-100000J0D01*
G01*
X160475000Y-96730000D01*
G75*
G02*
X160375000Y-96630000I0J100000D01*
G01*
X160375000Y-96430000D01*
G75*
G02*
X160475000Y-96330000I100000J0D01*
G01*
X161850000Y-96330000D01*
G75*
G02*
X161950000Y-96430000I0J-100000D01*
G01*
G37*
G36*
G01*
X161950000Y-96930000D02*
X161950000Y-97130000D01*
G75*
G02*
X161850000Y-97230000I-100000J0D01*
G01*
X160475000Y-97230000D01*
G75*
G02*
X160375000Y-97130000I0J100000D01*
G01*
X160375000Y-96930000D01*
G75*
G02*
X160475000Y-96830000I100000J0D01*
G01*
X161850000Y-96830000D01*
G75*
G02*
X161950000Y-96930000I0J-100000D01*
G01*
G37*
G36*
G01*
X161950000Y-97430000D02*
X161950000Y-97630000D01*
G75*
G02*
X161850000Y-97730000I-100000J0D01*
G01*
X160475000Y-97730000D01*
G75*
G02*
X160375000Y-97630000I0J100000D01*
G01*
X160375000Y-97430000D01*
G75*
G02*
X160475000Y-97330000I100000J0D01*
G01*
X161850000Y-97330000D01*
G75*
G02*
X161950000Y-97430000I0J-100000D01*
G01*
G37*
G36*
G01*
X161950000Y-97930000D02*
X161950000Y-98130000D01*
G75*
G02*
X161850000Y-98230000I-100000J0D01*
G01*
X160475000Y-98230000D01*
G75*
G02*
X160375000Y-98130000I0J100000D01*
G01*
X160375000Y-97930000D01*
G75*
G02*
X160475000Y-97830000I100000J0D01*
G01*
X161850000Y-97830000D01*
G75*
G02*
X161950000Y-97930000I0J-100000D01*
G01*
G37*
G36*
G01*
X161950000Y-98430000D02*
X161950000Y-98630000D01*
G75*
G02*
X161850000Y-98730000I-100000J0D01*
G01*
X160475000Y-98730000D01*
G75*
G02*
X160375000Y-98630000I0J100000D01*
G01*
X160375000Y-98430000D01*
G75*
G02*
X160475000Y-98330000I100000J0D01*
G01*
X161850000Y-98330000D01*
G75*
G02*
X161950000Y-98430000I0J-100000D01*
G01*
G37*
G36*
G01*
X161950000Y-98930000D02*
X161950000Y-99130000D01*
G75*
G02*
X161850000Y-99230000I-100000J0D01*
G01*
X160475000Y-99230000D01*
G75*
G02*
X160375000Y-99130000I0J100000D01*
G01*
X160375000Y-98930000D01*
G75*
G02*
X160475000Y-98830000I100000J0D01*
G01*
X161850000Y-98830000D01*
G75*
G02*
X161950000Y-98930000I0J-100000D01*
G01*
G37*
G36*
G01*
X159950000Y-99755000D02*
X159950000Y-101130000D01*
G75*
G02*
X159850000Y-101230000I-100000J0D01*
G01*
X159650000Y-101230000D01*
G75*
G02*
X159550000Y-101130000I0J100000D01*
G01*
X159550000Y-99755000D01*
G75*
G02*
X159650000Y-99655000I100000J0D01*
G01*
X159850000Y-99655000D01*
G75*
G02*
X159950000Y-99755000I0J-100000D01*
G01*
G37*
G36*
G01*
X159450000Y-99755000D02*
X159450000Y-101130000D01*
G75*
G02*
X159350000Y-101230000I-100000J0D01*
G01*
X159150000Y-101230000D01*
G75*
G02*
X159050000Y-101130000I0J100000D01*
G01*
X159050000Y-99755000D01*
G75*
G02*
X159150000Y-99655000I100000J0D01*
G01*
X159350000Y-99655000D01*
G75*
G02*
X159450000Y-99755000I0J-100000D01*
G01*
G37*
G36*
G01*
X158950000Y-99755000D02*
X158950000Y-101130000D01*
G75*
G02*
X158850000Y-101230000I-100000J0D01*
G01*
X158650000Y-101230000D01*
G75*
G02*
X158550000Y-101130000I0J100000D01*
G01*
X158550000Y-99755000D01*
G75*
G02*
X158650000Y-99655000I100000J0D01*
G01*
X158850000Y-99655000D01*
G75*
G02*
X158950000Y-99755000I0J-100000D01*
G01*
G37*
G36*
G01*
X158450000Y-99755000D02*
X158450000Y-101130000D01*
G75*
G02*
X158350000Y-101230000I-100000J0D01*
G01*
X158150000Y-101230000D01*
G75*
G02*
X158050000Y-101130000I0J100000D01*
G01*
X158050000Y-99755000D01*
G75*
G02*
X158150000Y-99655000I100000J0D01*
G01*
X158350000Y-99655000D01*
G75*
G02*
X158450000Y-99755000I0J-100000D01*
G01*
G37*
G36*
G01*
X157950000Y-99755000D02*
X157950000Y-101130000D01*
G75*
G02*
X157850000Y-101230000I-100000J0D01*
G01*
X157650000Y-101230000D01*
G75*
G02*
X157550000Y-101130000I0J100000D01*
G01*
X157550000Y-99755000D01*
G75*
G02*
X157650000Y-99655000I100000J0D01*
G01*
X157850000Y-99655000D01*
G75*
G02*
X157950000Y-99755000I0J-100000D01*
G01*
G37*
G36*
G01*
X157450000Y-99755000D02*
X157450000Y-101130000D01*
G75*
G02*
X157350000Y-101230000I-100000J0D01*
G01*
X157150000Y-101230000D01*
G75*
G02*
X157050000Y-101130000I0J100000D01*
G01*
X157050000Y-99755000D01*
G75*
G02*
X157150000Y-99655000I100000J0D01*
G01*
X157350000Y-99655000D01*
G75*
G02*
X157450000Y-99755000I0J-100000D01*
G01*
G37*
G36*
G01*
X156950000Y-99755000D02*
X156950000Y-101130000D01*
G75*
G02*
X156850000Y-101230000I-100000J0D01*
G01*
X156650000Y-101230000D01*
G75*
G02*
X156550000Y-101130000I0J100000D01*
G01*
X156550000Y-99755000D01*
G75*
G02*
X156650000Y-99655000I100000J0D01*
G01*
X156850000Y-99655000D01*
G75*
G02*
X156950000Y-99755000I0J-100000D01*
G01*
G37*
G36*
G01*
X156450000Y-99755000D02*
X156450000Y-101130000D01*
G75*
G02*
X156350000Y-101230000I-100000J0D01*
G01*
X156150000Y-101230000D01*
G75*
G02*
X156050000Y-101130000I0J100000D01*
G01*
X156050000Y-99755000D01*
G75*
G02*
X156150000Y-99655000I100000J0D01*
G01*
X156350000Y-99655000D01*
G75*
G02*
X156450000Y-99755000I0J-100000D01*
G01*
G37*
G36*
G01*
X155950000Y-99755000D02*
X155950000Y-101130000D01*
G75*
G02*
X155850000Y-101230000I-100000J0D01*
G01*
X155650000Y-101230000D01*
G75*
G02*
X155550000Y-101130000I0J100000D01*
G01*
X155550000Y-99755000D01*
G75*
G02*
X155650000Y-99655000I100000J0D01*
G01*
X155850000Y-99655000D01*
G75*
G02*
X155950000Y-99755000I0J-100000D01*
G01*
G37*
G36*
G01*
X155450000Y-99755000D02*
X155450000Y-101130000D01*
G75*
G02*
X155350000Y-101230000I-100000J0D01*
G01*
X155150000Y-101230000D01*
G75*
G02*
X155050000Y-101130000I0J100000D01*
G01*
X155050000Y-99755000D01*
G75*
G02*
X155150000Y-99655000I100000J0D01*
G01*
X155350000Y-99655000D01*
G75*
G02*
X155450000Y-99755000I0J-100000D01*
G01*
G37*
G36*
G01*
X154950000Y-99755000D02*
X154950000Y-101130000D01*
G75*
G02*
X154850000Y-101230000I-100000J0D01*
G01*
X154650000Y-101230000D01*
G75*
G02*
X154550000Y-101130000I0J100000D01*
G01*
X154550000Y-99755000D01*
G75*
G02*
X154650000Y-99655000I100000J0D01*
G01*
X154850000Y-99655000D01*
G75*
G02*
X154950000Y-99755000I0J-100000D01*
G01*
G37*
G36*
G01*
X154450000Y-99755000D02*
X154450000Y-101130000D01*
G75*
G02*
X154350000Y-101230000I-100000J0D01*
G01*
X154150000Y-101230000D01*
G75*
G02*
X154050000Y-101130000I0J100000D01*
G01*
X154050000Y-99755000D01*
G75*
G02*
X154150000Y-99655000I100000J0D01*
G01*
X154350000Y-99655000D01*
G75*
G02*
X154450000Y-99755000I0J-100000D01*
G01*
G37*
G36*
G01*
X153625000Y-98930000D02*
X153625000Y-99130000D01*
G75*
G02*
X153525000Y-99230000I-100000J0D01*
G01*
X152150000Y-99230000D01*
G75*
G02*
X152050000Y-99130000I0J100000D01*
G01*
X152050000Y-98930000D01*
G75*
G02*
X152150000Y-98830000I100000J0D01*
G01*
X153525000Y-98830000D01*
G75*
G02*
X153625000Y-98930000I0J-100000D01*
G01*
G37*
G36*
G01*
X153625000Y-98430000D02*
X153625000Y-98630000D01*
G75*
G02*
X153525000Y-98730000I-100000J0D01*
G01*
X152150000Y-98730000D01*
G75*
G02*
X152050000Y-98630000I0J100000D01*
G01*
X152050000Y-98430000D01*
G75*
G02*
X152150000Y-98330000I100000J0D01*
G01*
X153525000Y-98330000D01*
G75*
G02*
X153625000Y-98430000I0J-100000D01*
G01*
G37*
G36*
G01*
X153625000Y-97930000D02*
X153625000Y-98130000D01*
G75*
G02*
X153525000Y-98230000I-100000J0D01*
G01*
X152150000Y-98230000D01*
G75*
G02*
X152050000Y-98130000I0J100000D01*
G01*
X152050000Y-97930000D01*
G75*
G02*
X152150000Y-97830000I100000J0D01*
G01*
X153525000Y-97830000D01*
G75*
G02*
X153625000Y-97930000I0J-100000D01*
G01*
G37*
G36*
G01*
X153625000Y-97430000D02*
X153625000Y-97630000D01*
G75*
G02*
X153525000Y-97730000I-100000J0D01*
G01*
X152150000Y-97730000D01*
G75*
G02*
X152050000Y-97630000I0J100000D01*
G01*
X152050000Y-97430000D01*
G75*
G02*
X152150000Y-97330000I100000J0D01*
G01*
X153525000Y-97330000D01*
G75*
G02*
X153625000Y-97430000I0J-100000D01*
G01*
G37*
G36*
G01*
X153625000Y-96930000D02*
X153625000Y-97130000D01*
G75*
G02*
X153525000Y-97230000I-100000J0D01*
G01*
X152150000Y-97230000D01*
G75*
G02*
X152050000Y-97130000I0J100000D01*
G01*
X152050000Y-96930000D01*
G75*
G02*
X152150000Y-96830000I100000J0D01*
G01*
X153525000Y-96830000D01*
G75*
G02*
X153625000Y-96930000I0J-100000D01*
G01*
G37*
G36*
G01*
X153625000Y-96430000D02*
X153625000Y-96630000D01*
G75*
G02*
X153525000Y-96730000I-100000J0D01*
G01*
X152150000Y-96730000D01*
G75*
G02*
X152050000Y-96630000I0J100000D01*
G01*
X152050000Y-96430000D01*
G75*
G02*
X152150000Y-96330000I100000J0D01*
G01*
X153525000Y-96330000D01*
G75*
G02*
X153625000Y-96430000I0J-100000D01*
G01*
G37*
G36*
G01*
X153625000Y-95930000D02*
X153625000Y-96130000D01*
G75*
G02*
X153525000Y-96230000I-100000J0D01*
G01*
X152150000Y-96230000D01*
G75*
G02*
X152050000Y-96130000I0J100000D01*
G01*
X152050000Y-95930000D01*
G75*
G02*
X152150000Y-95830000I100000J0D01*
G01*
X153525000Y-95830000D01*
G75*
G02*
X153625000Y-95930000I0J-100000D01*
G01*
G37*
G36*
G01*
X153625000Y-95430000D02*
X153625000Y-95630000D01*
G75*
G02*
X153525000Y-95730000I-100000J0D01*
G01*
X152150000Y-95730000D01*
G75*
G02*
X152050000Y-95630000I0J100000D01*
G01*
X152050000Y-95430000D01*
G75*
G02*
X152150000Y-95330000I100000J0D01*
G01*
X153525000Y-95330000D01*
G75*
G02*
X153625000Y-95430000I0J-100000D01*
G01*
G37*
G36*
G01*
X153625000Y-94930000D02*
X153625000Y-95130000D01*
G75*
G02*
X153525000Y-95230000I-100000J0D01*
G01*
X152150000Y-95230000D01*
G75*
G02*
X152050000Y-95130000I0J100000D01*
G01*
X152050000Y-94930000D01*
G75*
G02*
X152150000Y-94830000I100000J0D01*
G01*
X153525000Y-94830000D01*
G75*
G02*
X153625000Y-94930000I0J-100000D01*
G01*
G37*
G36*
G01*
X153625000Y-94430000D02*
X153625000Y-94630000D01*
G75*
G02*
X153525000Y-94730000I-100000J0D01*
G01*
X152150000Y-94730000D01*
G75*
G02*
X152050000Y-94630000I0J100000D01*
G01*
X152050000Y-94430000D01*
G75*
G02*
X152150000Y-94330000I100000J0D01*
G01*
X153525000Y-94330000D01*
G75*
G02*
X153625000Y-94430000I0J-100000D01*
G01*
G37*
G36*
G01*
X153625000Y-93930000D02*
X153625000Y-94130000D01*
G75*
G02*
X153525000Y-94230000I-100000J0D01*
G01*
X152150000Y-94230000D01*
G75*
G02*
X152050000Y-94130000I0J100000D01*
G01*
X152050000Y-93930000D01*
G75*
G02*
X152150000Y-93830000I100000J0D01*
G01*
X153525000Y-93830000D01*
G75*
G02*
X153625000Y-93930000I0J-100000D01*
G01*
G37*
G36*
G01*
X153625000Y-93430000D02*
X153625000Y-93630000D01*
G75*
G02*
X153525000Y-93730000I-100000J0D01*
G01*
X152150000Y-93730000D01*
G75*
G02*
X152050000Y-93630000I0J100000D01*
G01*
X152050000Y-93430000D01*
G75*
G02*
X152150000Y-93330000I100000J0D01*
G01*
X153525000Y-93330000D01*
G75*
G02*
X153625000Y-93430000I0J-100000D01*
G01*
G37*
G36*
G01*
X154450000Y-91430000D02*
X154450000Y-92805000D01*
G75*
G02*
X154350000Y-92905000I-100000J0D01*
G01*
X154150000Y-92905000D01*
G75*
G02*
X154050000Y-92805000I0J100000D01*
G01*
X154050000Y-91430000D01*
G75*
G02*
X154150000Y-91330000I100000J0D01*
G01*
X154350000Y-91330000D01*
G75*
G02*
X154450000Y-91430000I0J-100000D01*
G01*
G37*
G36*
G01*
X154950000Y-91430000D02*
X154950000Y-92805000D01*
G75*
G02*
X154850000Y-92905000I-100000J0D01*
G01*
X154650000Y-92905000D01*
G75*
G02*
X154550000Y-92805000I0J100000D01*
G01*
X154550000Y-91430000D01*
G75*
G02*
X154650000Y-91330000I100000J0D01*
G01*
X154850000Y-91330000D01*
G75*
G02*
X154950000Y-91430000I0J-100000D01*
G01*
G37*
G36*
G01*
X155450000Y-91430000D02*
X155450000Y-92805000D01*
G75*
G02*
X155350000Y-92905000I-100000J0D01*
G01*
X155150000Y-92905000D01*
G75*
G02*
X155050000Y-92805000I0J100000D01*
G01*
X155050000Y-91430000D01*
G75*
G02*
X155150000Y-91330000I100000J0D01*
G01*
X155350000Y-91330000D01*
G75*
G02*
X155450000Y-91430000I0J-100000D01*
G01*
G37*
G36*
G01*
X155950000Y-91430000D02*
X155950000Y-92805000D01*
G75*
G02*
X155850000Y-92905000I-100000J0D01*
G01*
X155650000Y-92905000D01*
G75*
G02*
X155550000Y-92805000I0J100000D01*
G01*
X155550000Y-91430000D01*
G75*
G02*
X155650000Y-91330000I100000J0D01*
G01*
X155850000Y-91330000D01*
G75*
G02*
X155950000Y-91430000I0J-100000D01*
G01*
G37*
G36*
G01*
X156450000Y-91430000D02*
X156450000Y-92805000D01*
G75*
G02*
X156350000Y-92905000I-100000J0D01*
G01*
X156150000Y-92905000D01*
G75*
G02*
X156050000Y-92805000I0J100000D01*
G01*
X156050000Y-91430000D01*
G75*
G02*
X156150000Y-91330000I100000J0D01*
G01*
X156350000Y-91330000D01*
G75*
G02*
X156450000Y-91430000I0J-100000D01*
G01*
G37*
G36*
G01*
X156950000Y-91430000D02*
X156950000Y-92805000D01*
G75*
G02*
X156850000Y-92905000I-100000J0D01*
G01*
X156650000Y-92905000D01*
G75*
G02*
X156550000Y-92805000I0J100000D01*
G01*
X156550000Y-91430000D01*
G75*
G02*
X156650000Y-91330000I100000J0D01*
G01*
X156850000Y-91330000D01*
G75*
G02*
X156950000Y-91430000I0J-100000D01*
G01*
G37*
G36*
G01*
X157450000Y-91430000D02*
X157450000Y-92805000D01*
G75*
G02*
X157350000Y-92905000I-100000J0D01*
G01*
X157150000Y-92905000D01*
G75*
G02*
X157050000Y-92805000I0J100000D01*
G01*
X157050000Y-91430000D01*
G75*
G02*
X157150000Y-91330000I100000J0D01*
G01*
X157350000Y-91330000D01*
G75*
G02*
X157450000Y-91430000I0J-100000D01*
G01*
G37*
G36*
G01*
X157950000Y-91430000D02*
X157950000Y-92805000D01*
G75*
G02*
X157850000Y-92905000I-100000J0D01*
G01*
X157650000Y-92905000D01*
G75*
G02*
X157550000Y-92805000I0J100000D01*
G01*
X157550000Y-91430000D01*
G75*
G02*
X157650000Y-91330000I100000J0D01*
G01*
X157850000Y-91330000D01*
G75*
G02*
X157950000Y-91430000I0J-100000D01*
G01*
G37*
G36*
G01*
X158450000Y-91430000D02*
X158450000Y-92805000D01*
G75*
G02*
X158350000Y-92905000I-100000J0D01*
G01*
X158150000Y-92905000D01*
G75*
G02*
X158050000Y-92805000I0J100000D01*
G01*
X158050000Y-91430000D01*
G75*
G02*
X158150000Y-91330000I100000J0D01*
G01*
X158350000Y-91330000D01*
G75*
G02*
X158450000Y-91430000I0J-100000D01*
G01*
G37*
G36*
G01*
X158950000Y-91430000D02*
X158950000Y-92805000D01*
G75*
G02*
X158850000Y-92905000I-100000J0D01*
G01*
X158650000Y-92905000D01*
G75*
G02*
X158550000Y-92805000I0J100000D01*
G01*
X158550000Y-91430000D01*
G75*
G02*
X158650000Y-91330000I100000J0D01*
G01*
X158850000Y-91330000D01*
G75*
G02*
X158950000Y-91430000I0J-100000D01*
G01*
G37*
G36*
G01*
X159450000Y-91430000D02*
X159450000Y-92805000D01*
G75*
G02*
X159350000Y-92905000I-100000J0D01*
G01*
X159150000Y-92905000D01*
G75*
G02*
X159050000Y-92805000I0J100000D01*
G01*
X159050000Y-91430000D01*
G75*
G02*
X159150000Y-91330000I100000J0D01*
G01*
X159350000Y-91330000D01*
G75*
G02*
X159450000Y-91430000I0J-100000D01*
G01*
G37*
G36*
G01*
X159950000Y-91430000D02*
X159950000Y-92805000D01*
G75*
G02*
X159850000Y-92905000I-100000J0D01*
G01*
X159650000Y-92905000D01*
G75*
G02*
X159550000Y-92805000I0J100000D01*
G01*
X159550000Y-91430000D01*
G75*
G02*
X159650000Y-91330000I100000J0D01*
G01*
X159850000Y-91330000D01*
G75*
G02*
X159950000Y-91430000I0J-100000D01*
G01*
G37*
%TD*%
%TO.C,C20*%
G36*
G01*
X160031250Y-73480000D02*
X159468750Y-73480000D01*
G75*
G02*
X159225000Y-73236250I0J243750D01*
G01*
X159225000Y-72748750D01*
G75*
G02*
X159468750Y-72505000I243750J0D01*
G01*
X160031250Y-72505000D01*
G75*
G02*
X160275000Y-72748750I0J-243750D01*
G01*
X160275000Y-73236250D01*
G75*
G02*
X160031250Y-73480000I-243750J0D01*
G01*
G37*
G36*
G01*
X160031250Y-75055000D02*
X159468750Y-75055000D01*
G75*
G02*
X159225000Y-74811250I0J243750D01*
G01*
X159225000Y-74323750D01*
G75*
G02*
X159468750Y-74080000I243750J0D01*
G01*
X160031250Y-74080000D01*
G75*
G02*
X160275000Y-74323750I0J-243750D01*
G01*
X160275000Y-74811250D01*
G75*
G02*
X160031250Y-75055000I-243750J0D01*
G01*
G37*
%TD*%
%TO.C,FB1*%
G36*
G01*
X137700000Y-102998750D02*
X137700000Y-103561250D01*
G75*
G02*
X137456250Y-103805000I-243750J0D01*
G01*
X136968750Y-103805000D01*
G75*
G02*
X136725000Y-103561250I0J243750D01*
G01*
X136725000Y-102998750D01*
G75*
G02*
X136968750Y-102755000I243750J0D01*
G01*
X137456250Y-102755000D01*
G75*
G02*
X137700000Y-102998750I0J-243750D01*
G01*
G37*
G36*
G01*
X139275000Y-102998750D02*
X139275000Y-103561250D01*
G75*
G02*
X139031250Y-103805000I-243750J0D01*
G01*
X138543750Y-103805000D01*
G75*
G02*
X138300000Y-103561250I0J243750D01*
G01*
X138300000Y-102998750D01*
G75*
G02*
X138543750Y-102755000I243750J0D01*
G01*
X139031250Y-102755000D01*
G75*
G02*
X139275000Y-102998750I0J-243750D01*
G01*
G37*
%TD*%
%TO.C,R18*%
G36*
G01*
X161468750Y-74080000D02*
X162031250Y-74080000D01*
G75*
G02*
X162275000Y-74323750I0J-243750D01*
G01*
X162275000Y-74811250D01*
G75*
G02*
X162031250Y-75055000I-243750J0D01*
G01*
X161468750Y-75055000D01*
G75*
G02*
X161225000Y-74811250I0J243750D01*
G01*
X161225000Y-74323750D01*
G75*
G02*
X161468750Y-74080000I243750J0D01*
G01*
G37*
G36*
G01*
X161468750Y-72505000D02*
X162031250Y-72505000D01*
G75*
G02*
X162275000Y-72748750I0J-243750D01*
G01*
X162275000Y-73236250D01*
G75*
G02*
X162031250Y-73480000I-243750J0D01*
G01*
X161468750Y-73480000D01*
G75*
G02*
X161225000Y-73236250I0J243750D01*
G01*
X161225000Y-72748750D01*
G75*
G02*
X161468750Y-72505000I243750J0D01*
G01*
G37*
%TD*%
%TO.C,R17*%
G36*
G01*
X164031250Y-90055000D02*
X163468750Y-90055000D01*
G75*
G02*
X163225000Y-89811250I0J243750D01*
G01*
X163225000Y-89323750D01*
G75*
G02*
X163468750Y-89080000I243750J0D01*
G01*
X164031250Y-89080000D01*
G75*
G02*
X164275000Y-89323750I0J-243750D01*
G01*
X164275000Y-89811250D01*
G75*
G02*
X164031250Y-90055000I-243750J0D01*
G01*
G37*
G36*
G01*
X164031250Y-88480000D02*
X163468750Y-88480000D01*
G75*
G02*
X163225000Y-88236250I0J243750D01*
G01*
X163225000Y-87748750D01*
G75*
G02*
X163468750Y-87505000I243750J0D01*
G01*
X164031250Y-87505000D01*
G75*
G02*
X164275000Y-87748750I0J-243750D01*
G01*
X164275000Y-88236250D01*
G75*
G02*
X164031250Y-88480000I-243750J0D01*
G01*
G37*
%TD*%
%TO.C,C19*%
G36*
G01*
X164031250Y-73480000D02*
X163468750Y-73480000D01*
G75*
G02*
X163225000Y-73236250I0J243750D01*
G01*
X163225000Y-72748750D01*
G75*
G02*
X163468750Y-72505000I243750J0D01*
G01*
X164031250Y-72505000D01*
G75*
G02*
X164275000Y-72748750I0J-243750D01*
G01*
X164275000Y-73236250D01*
G75*
G02*
X164031250Y-73480000I-243750J0D01*
G01*
G37*
G36*
G01*
X164031250Y-75055000D02*
X163468750Y-75055000D01*
G75*
G02*
X163225000Y-74811250I0J243750D01*
G01*
X163225000Y-74323750D01*
G75*
G02*
X163468750Y-74080000I243750J0D01*
G01*
X164031250Y-74080000D01*
G75*
G02*
X164275000Y-74323750I0J-243750D01*
G01*
X164275000Y-74811250D01*
G75*
G02*
X164031250Y-75055000I-243750J0D01*
G01*
G37*
%TD*%
%TO.C,J14*%
X159660000Y-85280000D03*
X157120000Y-85280000D03*
X154580000Y-85280000D03*
X152040000Y-85280000D03*
G36*
G01*
X150347059Y-86180000D02*
X148652941Y-86180000D01*
G75*
G02*
X148600000Y-86127059I0J52941D01*
G01*
X148600000Y-84432941D01*
G75*
G02*
X148652941Y-84380000I52941J0D01*
G01*
X150347059Y-84380000D01*
G75*
G02*
X150400000Y-84432941I0J-52941D01*
G01*
X150400000Y-86127059D01*
G75*
G02*
X150347059Y-86180000I-52941J0D01*
G01*
G37*
%TD*%
%TO.C,R13*%
G36*
G01*
X157968750Y-104080000D02*
X158531250Y-104080000D01*
G75*
G02*
X158775000Y-104323750I0J-243750D01*
G01*
X158775000Y-104811250D01*
G75*
G02*
X158531250Y-105055000I-243750J0D01*
G01*
X157968750Y-105055000D01*
G75*
G02*
X157725000Y-104811250I0J243750D01*
G01*
X157725000Y-104323750D01*
G75*
G02*
X157968750Y-104080000I243750J0D01*
G01*
G37*
G36*
G01*
X157968750Y-102505000D02*
X158531250Y-102505000D01*
G75*
G02*
X158775000Y-102748750I0J-243750D01*
G01*
X158775000Y-103236250D01*
G75*
G02*
X158531250Y-103480000I-243750J0D01*
G01*
X157968750Y-103480000D01*
G75*
G02*
X157725000Y-103236250I0J243750D01*
G01*
X157725000Y-102748750D01*
G75*
G02*
X157968750Y-102505000I243750J0D01*
G01*
G37*
%TD*%
%TO.C,Y2*%
G36*
G01*
X167002500Y-97730000D02*
X168997500Y-97730000D01*
G75*
G02*
X169050000Y-97782500I0J-52500D01*
G01*
X169050000Y-102277500D01*
G75*
G02*
X168997500Y-102330000I-52500J0D01*
G01*
X167002500Y-102330000D01*
G75*
G02*
X166950000Y-102277500I0J52500D01*
G01*
X166950000Y-97782500D01*
G75*
G02*
X167002500Y-97730000I52500J0D01*
G01*
G37*
G36*
G01*
X167002500Y-89230000D02*
X168997500Y-89230000D01*
G75*
G02*
X169050000Y-89282500I0J-52500D01*
G01*
X169050000Y-93777500D01*
G75*
G02*
X168997500Y-93830000I-52500J0D01*
G01*
X167002500Y-93830000D01*
G75*
G02*
X166950000Y-93777500I0J52500D01*
G01*
X166950000Y-89282500D01*
G75*
G02*
X167002500Y-89230000I52500J0D01*
G01*
G37*
%TD*%
%TO.C,Y1*%
G36*
G01*
X167002500Y-68730000D02*
X168997500Y-68730000D01*
G75*
G02*
X169050000Y-68782500I0J-52500D01*
G01*
X169050000Y-73277500D01*
G75*
G02*
X168997500Y-73330000I-52500J0D01*
G01*
X167002500Y-73330000D01*
G75*
G02*
X166950000Y-73277500I0J52500D01*
G01*
X166950000Y-68782500D01*
G75*
G02*
X167002500Y-68730000I52500J0D01*
G01*
G37*
G36*
G01*
X167002500Y-60230000D02*
X168997500Y-60230000D01*
G75*
G02*
X169050000Y-60282500I0J-52500D01*
G01*
X169050000Y-64777500D01*
G75*
G02*
X168997500Y-64830000I-52500J0D01*
G01*
X167002500Y-64830000D01*
G75*
G02*
X166950000Y-64777500I0J52500D01*
G01*
X166950000Y-60282500D01*
G75*
G02*
X167002500Y-60230000I52500J0D01*
G01*
G37*
%TD*%
%TO.C,C18*%
G36*
G01*
X164031250Y-69980000D02*
X163468750Y-69980000D01*
G75*
G02*
X163225000Y-69736250I0J243750D01*
G01*
X163225000Y-69248750D01*
G75*
G02*
X163468750Y-69005000I243750J0D01*
G01*
X164031250Y-69005000D01*
G75*
G02*
X164275000Y-69248750I0J-243750D01*
G01*
X164275000Y-69736250D01*
G75*
G02*
X164031250Y-69980000I-243750J0D01*
G01*
G37*
G36*
G01*
X164031250Y-71555000D02*
X163468750Y-71555000D01*
G75*
G02*
X163225000Y-71311250I0J243750D01*
G01*
X163225000Y-70823750D01*
G75*
G02*
X163468750Y-70580000I243750J0D01*
G01*
X164031250Y-70580000D01*
G75*
G02*
X164275000Y-70823750I0J-243750D01*
G01*
X164275000Y-71311250D01*
G75*
G02*
X164031250Y-71555000I-243750J0D01*
G01*
G37*
%TD*%
%TO.C,C17*%
G36*
G01*
X163468750Y-63580000D02*
X164031250Y-63580000D01*
G75*
G02*
X164275000Y-63823750I0J-243750D01*
G01*
X164275000Y-64311250D01*
G75*
G02*
X164031250Y-64555000I-243750J0D01*
G01*
X163468750Y-64555000D01*
G75*
G02*
X163225000Y-64311250I0J243750D01*
G01*
X163225000Y-63823750D01*
G75*
G02*
X163468750Y-63580000I243750J0D01*
G01*
G37*
G36*
G01*
X163468750Y-62005000D02*
X164031250Y-62005000D01*
G75*
G02*
X164275000Y-62248750I0J-243750D01*
G01*
X164275000Y-62736250D01*
G75*
G02*
X164031250Y-62980000I-243750J0D01*
G01*
X163468750Y-62980000D01*
G75*
G02*
X163225000Y-62736250I0J243750D01*
G01*
X163225000Y-62248750D01*
G75*
G02*
X163468750Y-62005000I243750J0D01*
G01*
G37*
%TD*%
%TO.C,C16*%
G36*
G01*
X164031250Y-98980000D02*
X163468750Y-98980000D01*
G75*
G02*
X163225000Y-98736250I0J243750D01*
G01*
X163225000Y-98248750D01*
G75*
G02*
X163468750Y-98005000I243750J0D01*
G01*
X164031250Y-98005000D01*
G75*
G02*
X164275000Y-98248750I0J-243750D01*
G01*
X164275000Y-98736250D01*
G75*
G02*
X164031250Y-98980000I-243750J0D01*
G01*
G37*
G36*
G01*
X164031250Y-100555000D02*
X163468750Y-100555000D01*
G75*
G02*
X163225000Y-100311250I0J243750D01*
G01*
X163225000Y-99823750D01*
G75*
G02*
X163468750Y-99580000I243750J0D01*
G01*
X164031250Y-99580000D01*
G75*
G02*
X164275000Y-99823750I0J-243750D01*
G01*
X164275000Y-100311250D01*
G75*
G02*
X164031250Y-100555000I-243750J0D01*
G01*
G37*
%TD*%
%TO.C,C15*%
G36*
G01*
X163468750Y-92580000D02*
X164031250Y-92580000D01*
G75*
G02*
X164275000Y-92823750I0J-243750D01*
G01*
X164275000Y-93311250D01*
G75*
G02*
X164031250Y-93555000I-243750J0D01*
G01*
X163468750Y-93555000D01*
G75*
G02*
X163225000Y-93311250I0J243750D01*
G01*
X163225000Y-92823750D01*
G75*
G02*
X163468750Y-92580000I243750J0D01*
G01*
G37*
G36*
G01*
X163468750Y-91005000D02*
X164031250Y-91005000D01*
G75*
G02*
X164275000Y-91248750I0J-243750D01*
G01*
X164275000Y-91736250D01*
G75*
G02*
X164031250Y-91980000I-243750J0D01*
G01*
X163468750Y-91980000D01*
G75*
G02*
X163225000Y-91736250I0J243750D01*
G01*
X163225000Y-91248750D01*
G75*
G02*
X163468750Y-91005000I243750J0D01*
G01*
G37*
%TD*%
%TO.C,R16*%
G36*
G01*
X157468750Y-74080000D02*
X158031250Y-74080000D01*
G75*
G02*
X158275000Y-74323750I0J-243750D01*
G01*
X158275000Y-74811250D01*
G75*
G02*
X158031250Y-75055000I-243750J0D01*
G01*
X157468750Y-75055000D01*
G75*
G02*
X157225000Y-74811250I0J243750D01*
G01*
X157225000Y-74323750D01*
G75*
G02*
X157468750Y-74080000I243750J0D01*
G01*
G37*
G36*
G01*
X157468750Y-72505000D02*
X158031250Y-72505000D01*
G75*
G02*
X158275000Y-72748750I0J-243750D01*
G01*
X158275000Y-73236250D01*
G75*
G02*
X158031250Y-73480000I-243750J0D01*
G01*
X157468750Y-73480000D01*
G75*
G02*
X157225000Y-73236250I0J243750D01*
G01*
X157225000Y-72748750D01*
G75*
G02*
X157468750Y-72505000I243750J0D01*
G01*
G37*
%TD*%
%TO.C,C14*%
G36*
G01*
X156531250Y-103480000D02*
X155968750Y-103480000D01*
G75*
G02*
X155725000Y-103236250I0J243750D01*
G01*
X155725000Y-102748750D01*
G75*
G02*
X155968750Y-102505000I243750J0D01*
G01*
X156531250Y-102505000D01*
G75*
G02*
X156775000Y-102748750I0J-243750D01*
G01*
X156775000Y-103236250D01*
G75*
G02*
X156531250Y-103480000I-243750J0D01*
G01*
G37*
G36*
G01*
X156531250Y-105055000D02*
X155968750Y-105055000D01*
G75*
G02*
X155725000Y-104811250I0J243750D01*
G01*
X155725000Y-104323750D01*
G75*
G02*
X155968750Y-104080000I243750J0D01*
G01*
X156531250Y-104080000D01*
G75*
G02*
X156775000Y-104323750I0J-243750D01*
G01*
X156775000Y-104811250D01*
G75*
G02*
X156531250Y-105055000I-243750J0D01*
G01*
G37*
%TD*%
%TO.C,R12*%
G36*
G01*
X149800000Y-97311250D02*
X149800000Y-96748750D01*
G75*
G02*
X150043750Y-96505000I243750J0D01*
G01*
X150531250Y-96505000D01*
G75*
G02*
X150775000Y-96748750I0J-243750D01*
G01*
X150775000Y-97311250D01*
G75*
G02*
X150531250Y-97555000I-243750J0D01*
G01*
X150043750Y-97555000D01*
G75*
G02*
X149800000Y-97311250I0J243750D01*
G01*
G37*
G36*
G01*
X148225000Y-97311250D02*
X148225000Y-96748750D01*
G75*
G02*
X148468750Y-96505000I243750J0D01*
G01*
X148956250Y-96505000D01*
G75*
G02*
X149200000Y-96748750I0J-243750D01*
G01*
X149200000Y-97311250D01*
G75*
G02*
X148956250Y-97555000I-243750J0D01*
G01*
X148468750Y-97555000D01*
G75*
G02*
X148225000Y-97311250I0J243750D01*
G01*
G37*
%TD*%
%TO.C,Q1*%
G36*
G01*
X141606250Y-102780000D02*
X142393750Y-102780000D01*
G75*
G02*
X142450000Y-102836250I0J-56250D01*
G01*
X142450000Y-103723750D01*
G75*
G02*
X142393750Y-103780000I-56250J0D01*
G01*
X141606250Y-103780000D01*
G75*
G02*
X141550000Y-103723750I0J56250D01*
G01*
X141550000Y-102836250D01*
G75*
G02*
X141606250Y-102780000I56250J0D01*
G01*
G37*
G36*
G01*
X142556250Y-100780000D02*
X143343750Y-100780000D01*
G75*
G02*
X143400000Y-100836250I0J-56250D01*
G01*
X143400000Y-101723750D01*
G75*
G02*
X143343750Y-101780000I-56250J0D01*
G01*
X142556250Y-101780000D01*
G75*
G02*
X142500000Y-101723750I0J56250D01*
G01*
X142500000Y-100836250D01*
G75*
G02*
X142556250Y-100780000I56250J0D01*
G01*
G37*
G36*
G01*
X140656250Y-100780000D02*
X141443750Y-100780000D01*
G75*
G02*
X141500000Y-100836250I0J-56250D01*
G01*
X141500000Y-101723750D01*
G75*
G02*
X141443750Y-101780000I-56250J0D01*
G01*
X140656250Y-101780000D01*
G75*
G02*
X140600000Y-101723750I0J56250D01*
G01*
X140600000Y-100836250D01*
G75*
G02*
X140656250Y-100780000I56250J0D01*
G01*
G37*
%TD*%
%TO.C,C13*%
G36*
G01*
X160531250Y-103480000D02*
X159968750Y-103480000D01*
G75*
G02*
X159725000Y-103236250I0J243750D01*
G01*
X159725000Y-102748750D01*
G75*
G02*
X159968750Y-102505000I243750J0D01*
G01*
X160531250Y-102505000D01*
G75*
G02*
X160775000Y-102748750I0J-243750D01*
G01*
X160775000Y-103236250D01*
G75*
G02*
X160531250Y-103480000I-243750J0D01*
G01*
G37*
G36*
G01*
X160531250Y-105055000D02*
X159968750Y-105055000D01*
G75*
G02*
X159725000Y-104811250I0J243750D01*
G01*
X159725000Y-104323750D01*
G75*
G02*
X159968750Y-104080000I243750J0D01*
G01*
X160531250Y-104080000D01*
G75*
G02*
X160775000Y-104323750I0J-243750D01*
G01*
X160775000Y-104811250D01*
G75*
G02*
X160531250Y-105055000I-243750J0D01*
G01*
G37*
%TD*%
%TO.C,C12*%
G36*
G01*
X161468750Y-89080000D02*
X162031250Y-89080000D01*
G75*
G02*
X162275000Y-89323750I0J-243750D01*
G01*
X162275000Y-89811250D01*
G75*
G02*
X162031250Y-90055000I-243750J0D01*
G01*
X161468750Y-90055000D01*
G75*
G02*
X161225000Y-89811250I0J243750D01*
G01*
X161225000Y-89323750D01*
G75*
G02*
X161468750Y-89080000I243750J0D01*
G01*
G37*
G36*
G01*
X161468750Y-87505000D02*
X162031250Y-87505000D01*
G75*
G02*
X162275000Y-87748750I0J-243750D01*
G01*
X162275000Y-88236250D01*
G75*
G02*
X162031250Y-88480000I-243750J0D01*
G01*
X161468750Y-88480000D01*
G75*
G02*
X161225000Y-88236250I0J243750D01*
G01*
X161225000Y-87748750D01*
G75*
G02*
X161468750Y-87505000I243750J0D01*
G01*
G37*
%TD*%
%TO.C,C11*%
G36*
G01*
X149800000Y-93811250D02*
X149800000Y-93248750D01*
G75*
G02*
X150043750Y-93005000I243750J0D01*
G01*
X150531250Y-93005000D01*
G75*
G02*
X150775000Y-93248750I0J-243750D01*
G01*
X150775000Y-93811250D01*
G75*
G02*
X150531250Y-94055000I-243750J0D01*
G01*
X150043750Y-94055000D01*
G75*
G02*
X149800000Y-93811250I0J243750D01*
G01*
G37*
G36*
G01*
X148225000Y-93811250D02*
X148225000Y-93248750D01*
G75*
G02*
X148468750Y-93005000I243750J0D01*
G01*
X148956250Y-93005000D01*
G75*
G02*
X149200000Y-93248750I0J-243750D01*
G01*
X149200000Y-93811250D01*
G75*
G02*
X148956250Y-94055000I-243750J0D01*
G01*
X148468750Y-94055000D01*
G75*
G02*
X148225000Y-93811250I0J243750D01*
G01*
G37*
%TD*%
%TO.C,C10*%
G36*
G01*
X154531250Y-103480000D02*
X153968750Y-103480000D01*
G75*
G02*
X153725000Y-103236250I0J243750D01*
G01*
X153725000Y-102748750D01*
G75*
G02*
X153968750Y-102505000I243750J0D01*
G01*
X154531250Y-102505000D01*
G75*
G02*
X154775000Y-102748750I0J-243750D01*
G01*
X154775000Y-103236250D01*
G75*
G02*
X154531250Y-103480000I-243750J0D01*
G01*
G37*
G36*
G01*
X154531250Y-105055000D02*
X153968750Y-105055000D01*
G75*
G02*
X153725000Y-104811250I0J243750D01*
G01*
X153725000Y-104323750D01*
G75*
G02*
X153968750Y-104080000I243750J0D01*
G01*
X154531250Y-104080000D01*
G75*
G02*
X154775000Y-104323750I0J-243750D01*
G01*
X154775000Y-104811250D01*
G75*
G02*
X154531250Y-105055000I-243750J0D01*
G01*
G37*
%TD*%
%TO.C,C9*%
G36*
G01*
X145300000Y-71561250D02*
X145300000Y-70998750D01*
G75*
G02*
X145543750Y-70755000I243750J0D01*
G01*
X146031250Y-70755000D01*
G75*
G02*
X146275000Y-70998750I0J-243750D01*
G01*
X146275000Y-71561250D01*
G75*
G02*
X146031250Y-71805000I-243750J0D01*
G01*
X145543750Y-71805000D01*
G75*
G02*
X145300000Y-71561250I0J243750D01*
G01*
G37*
G36*
G01*
X143725000Y-71561250D02*
X143725000Y-70998750D01*
G75*
G02*
X143968750Y-70755000I243750J0D01*
G01*
X144456250Y-70755000D01*
G75*
G02*
X144700000Y-70998750I0J-243750D01*
G01*
X144700000Y-71561250D01*
G75*
G02*
X144456250Y-71805000I-243750J0D01*
G01*
X143968750Y-71805000D01*
G75*
G02*
X143725000Y-71561250I0J243750D01*
G01*
G37*
%TD*%
%TO.C,C8*%
G36*
G01*
X145300000Y-69561250D02*
X145300000Y-68998750D01*
G75*
G02*
X145543750Y-68755000I243750J0D01*
G01*
X146031250Y-68755000D01*
G75*
G02*
X146275000Y-68998750I0J-243750D01*
G01*
X146275000Y-69561250D01*
G75*
G02*
X146031250Y-69805000I-243750J0D01*
G01*
X145543750Y-69805000D01*
G75*
G02*
X145300000Y-69561250I0J243750D01*
G01*
G37*
G36*
G01*
X143725000Y-69561250D02*
X143725000Y-68998750D01*
G75*
G02*
X143968750Y-68755000I243750J0D01*
G01*
X144456250Y-68755000D01*
G75*
G02*
X144700000Y-68998750I0J-243750D01*
G01*
X144700000Y-69561250D01*
G75*
G02*
X144456250Y-69805000I-243750J0D01*
G01*
X143968750Y-69805000D01*
G75*
G02*
X143725000Y-69561250I0J243750D01*
G01*
G37*
%TD*%
%TO.C,C7*%
G36*
G01*
X144700000Y-84998750D02*
X144700000Y-85561250D01*
G75*
G02*
X144456250Y-85805000I-243750J0D01*
G01*
X143968750Y-85805000D01*
G75*
G02*
X143725000Y-85561250I0J243750D01*
G01*
X143725000Y-84998750D01*
G75*
G02*
X143968750Y-84755000I243750J0D01*
G01*
X144456250Y-84755000D01*
G75*
G02*
X144700000Y-84998750I0J-243750D01*
G01*
G37*
G36*
G01*
X146275000Y-84998750D02*
X146275000Y-85561250D01*
G75*
G02*
X146031250Y-85805000I-243750J0D01*
G01*
X145543750Y-85805000D01*
G75*
G02*
X145300000Y-85561250I0J243750D01*
G01*
X145300000Y-84998750D01*
G75*
G02*
X145543750Y-84755000I243750J0D01*
G01*
X146031250Y-84755000D01*
G75*
G02*
X146275000Y-84998750I0J-243750D01*
G01*
G37*
%TD*%
%TO.C,C6*%
G36*
G01*
X144700000Y-82998750D02*
X144700000Y-83561250D01*
G75*
G02*
X144456250Y-83805000I-243750J0D01*
G01*
X143968750Y-83805000D01*
G75*
G02*
X143725000Y-83561250I0J243750D01*
G01*
X143725000Y-82998750D01*
G75*
G02*
X143968750Y-82755000I243750J0D01*
G01*
X144456250Y-82755000D01*
G75*
G02*
X144700000Y-82998750I0J-243750D01*
G01*
G37*
G36*
G01*
X146275000Y-82998750D02*
X146275000Y-83561250D01*
G75*
G02*
X146031250Y-83805000I-243750J0D01*
G01*
X145543750Y-83805000D01*
G75*
G02*
X145300000Y-83561250I0J243750D01*
G01*
X145300000Y-82998750D01*
G75*
G02*
X145543750Y-82755000I243750J0D01*
G01*
X146031250Y-82755000D01*
G75*
G02*
X146275000Y-82998750I0J-243750D01*
G01*
G37*
%TD*%
%TO.C,C5*%
G36*
G01*
X138300000Y-101561250D02*
X138300000Y-100998750D01*
G75*
G02*
X138543750Y-100755000I243750J0D01*
G01*
X139031250Y-100755000D01*
G75*
G02*
X139275000Y-100998750I0J-243750D01*
G01*
X139275000Y-101561250D01*
G75*
G02*
X139031250Y-101805000I-243750J0D01*
G01*
X138543750Y-101805000D01*
G75*
G02*
X138300000Y-101561250I0J243750D01*
G01*
G37*
G36*
G01*
X136725000Y-101561250D02*
X136725000Y-100998750D01*
G75*
G02*
X136968750Y-100755000I243750J0D01*
G01*
X137456250Y-100755000D01*
G75*
G02*
X137700000Y-100998750I0J-243750D01*
G01*
X137700000Y-101561250D01*
G75*
G02*
X137456250Y-101805000I-243750J0D01*
G01*
X136968750Y-101805000D01*
G75*
G02*
X136725000Y-101561250I0J243750D01*
G01*
G37*
%TD*%
%TO.C,R11*%
G36*
G01*
X137700000Y-105498750D02*
X137700000Y-106061250D01*
G75*
G02*
X137456250Y-106305000I-243750J0D01*
G01*
X136968750Y-106305000D01*
G75*
G02*
X136725000Y-106061250I0J243750D01*
G01*
X136725000Y-105498750D01*
G75*
G02*
X136968750Y-105255000I243750J0D01*
G01*
X137456250Y-105255000D01*
G75*
G02*
X137700000Y-105498750I0J-243750D01*
G01*
G37*
G36*
G01*
X139275000Y-105498750D02*
X139275000Y-106061250D01*
G75*
G02*
X139031250Y-106305000I-243750J0D01*
G01*
X138543750Y-106305000D01*
G75*
G02*
X138300000Y-106061250I0J243750D01*
G01*
X138300000Y-105498750D01*
G75*
G02*
X138543750Y-105255000I243750J0D01*
G01*
X139031250Y-105255000D01*
G75*
G02*
X139275000Y-105498750I0J-243750D01*
G01*
G37*
%TD*%
%TO.C,R10*%
G36*
G01*
X137700000Y-108498750D02*
X137700000Y-109061250D01*
G75*
G02*
X137456250Y-109305000I-243750J0D01*
G01*
X136968750Y-109305000D01*
G75*
G02*
X136725000Y-109061250I0J243750D01*
G01*
X136725000Y-108498750D01*
G75*
G02*
X136968750Y-108255000I243750J0D01*
G01*
X137456250Y-108255000D01*
G75*
G02*
X137700000Y-108498750I0J-243750D01*
G01*
G37*
G36*
G01*
X139275000Y-108498750D02*
X139275000Y-109061250D01*
G75*
G02*
X139031250Y-109305000I-243750J0D01*
G01*
X138543750Y-109305000D01*
G75*
G02*
X138300000Y-109061250I0J243750D01*
G01*
X138300000Y-108498750D01*
G75*
G02*
X138543750Y-108255000I243750J0D01*
G01*
X139031250Y-108255000D01*
G75*
G02*
X139275000Y-108498750I0J-243750D01*
G01*
G37*
%TD*%
D15*
%TO.C,J13*%
X198120000Y-76200000D03*
X200660000Y-76200000D03*
X198120000Y-78740000D03*
X200660000Y-78740000D03*
X198120000Y-81280000D03*
X200660000Y-81280000D03*
X198120000Y-83820000D03*
X200660000Y-83820000D03*
X198120000Y-86360000D03*
G36*
G01*
X201573600Y-85499295D02*
X201573600Y-87220705D01*
G75*
G02*
X201520705Y-87273600I-52895J0D01*
G01*
X199799295Y-87273600D01*
G75*
G02*
X199746400Y-87220705I0J52895D01*
G01*
X199746400Y-85499295D01*
G75*
G02*
X199799295Y-85446400I52895J0D01*
G01*
X201520705Y-85446400D01*
G75*
G02*
X201573600Y-85499295I0J-52895D01*
G01*
G37*
%TD*%
%TO.C,R9*%
G36*
G01*
X130700000Y-112998750D02*
X130700000Y-113561250D01*
G75*
G02*
X130456250Y-113805000I-243750J0D01*
G01*
X129968750Y-113805000D01*
G75*
G02*
X129725000Y-113561250I0J243750D01*
G01*
X129725000Y-112998750D01*
G75*
G02*
X129968750Y-112755000I243750J0D01*
G01*
X130456250Y-112755000D01*
G75*
G02*
X130700000Y-112998750I0J-243750D01*
G01*
G37*
G36*
G01*
X132275000Y-112998750D02*
X132275000Y-113561250D01*
G75*
G02*
X132031250Y-113805000I-243750J0D01*
G01*
X131543750Y-113805000D01*
G75*
G02*
X131300000Y-113561250I0J243750D01*
G01*
X131300000Y-112998750D01*
G75*
G02*
X131543750Y-112755000I243750J0D01*
G01*
X132031250Y-112755000D01*
G75*
G02*
X132275000Y-112998750I0J-243750D01*
G01*
G37*
%TD*%
%TO.C,C4*%
G36*
G01*
X144700000Y-109998750D02*
X144700000Y-110561250D01*
G75*
G02*
X144456250Y-110805000I-243750J0D01*
G01*
X143968750Y-110805000D01*
G75*
G02*
X143725000Y-110561250I0J243750D01*
G01*
X143725000Y-109998750D01*
G75*
G02*
X143968750Y-109755000I243750J0D01*
G01*
X144456250Y-109755000D01*
G75*
G02*
X144700000Y-109998750I0J-243750D01*
G01*
G37*
G36*
G01*
X146275000Y-109998750D02*
X146275000Y-110561250D01*
G75*
G02*
X146031250Y-110805000I-243750J0D01*
G01*
X145543750Y-110805000D01*
G75*
G02*
X145300000Y-110561250I0J243750D01*
G01*
X145300000Y-109998750D01*
G75*
G02*
X145543750Y-109755000I243750J0D01*
G01*
X146031250Y-109755000D01*
G75*
G02*
X146275000Y-109998750I0J-243750D01*
G01*
G37*
%TD*%
%TO.C,C3*%
G36*
G01*
X131300000Y-101561250D02*
X131300000Y-100998750D01*
G75*
G02*
X131543750Y-100755000I243750J0D01*
G01*
X132031250Y-100755000D01*
G75*
G02*
X132275000Y-100998750I0J-243750D01*
G01*
X132275000Y-101561250D01*
G75*
G02*
X132031250Y-101805000I-243750J0D01*
G01*
X131543750Y-101805000D01*
G75*
G02*
X131300000Y-101561250I0J243750D01*
G01*
G37*
G36*
G01*
X129725000Y-101561250D02*
X129725000Y-100998750D01*
G75*
G02*
X129968750Y-100755000I243750J0D01*
G01*
X130456250Y-100755000D01*
G75*
G02*
X130700000Y-100998750I0J-243750D01*
G01*
X130700000Y-101561250D01*
G75*
G02*
X130456250Y-101805000I-243750J0D01*
G01*
X129968750Y-101805000D01*
G75*
G02*
X129725000Y-101561250I0J243750D01*
G01*
G37*
%TD*%
D14*
%TO.C,Pmod7*%
X248920000Y-125730000D03*
X248920000Y-123190000D03*
X246380000Y-125730000D03*
X246380000Y-123190000D03*
X243840000Y-125730000D03*
X243840000Y-123190000D03*
X241300000Y-125730000D03*
X241300000Y-123190000D03*
X238760000Y-125730000D03*
X238760000Y-123190000D03*
X236220000Y-125730000D03*
G36*
G01*
X237067059Y-124090000D02*
X235372941Y-124090000D01*
G75*
G02*
X235320000Y-124037059I0J52941D01*
G01*
X235320000Y-122342941D01*
G75*
G02*
X235372941Y-122290000I52941J0D01*
G01*
X237067059Y-122290000D01*
G75*
G02*
X237120000Y-122342941I0J-52941D01*
G01*
X237120000Y-124037059D01*
G75*
G02*
X237067059Y-124090000I-52941J0D01*
G01*
G37*
%TD*%
%TO.C,Pmod1*%
X269240000Y-74930000D03*
X266700000Y-74930000D03*
X269240000Y-77470000D03*
X266700000Y-77470000D03*
X269240000Y-80010000D03*
X266700000Y-80010000D03*
X269240000Y-82550000D03*
X266700000Y-82550000D03*
X269240000Y-85090000D03*
X266700000Y-85090000D03*
X269240000Y-87630000D03*
G36*
G01*
X267600000Y-86782941D02*
X267600000Y-88477059D01*
G75*
G02*
X267547059Y-88530000I-52941J0D01*
G01*
X265852941Y-88530000D01*
G75*
G02*
X265800000Y-88477059I0J52941D01*
G01*
X265800000Y-86782941D01*
G75*
G02*
X265852941Y-86730000I52941J0D01*
G01*
X267547059Y-86730000D01*
G75*
G02*
X267600000Y-86782941I0J-52941D01*
G01*
G37*
%TD*%
%TO.C,Pmod5*%
X203200000Y-125730000D03*
X203200000Y-123190000D03*
X200660000Y-125730000D03*
X200660000Y-123190000D03*
X198120000Y-125730000D03*
X198120000Y-123190000D03*
X195580000Y-125730000D03*
X195580000Y-123190000D03*
X193040000Y-125730000D03*
X193040000Y-123190000D03*
X190500000Y-125730000D03*
G36*
G01*
X191347059Y-124090000D02*
X189652941Y-124090000D01*
G75*
G02*
X189600000Y-124037059I0J52941D01*
G01*
X189600000Y-122342941D01*
G75*
G02*
X189652941Y-122290000I52941J0D01*
G01*
X191347059Y-122290000D01*
G75*
G02*
X191400000Y-122342941I0J-52941D01*
G01*
X191400000Y-124037059D01*
G75*
G02*
X191347059Y-124090000I-52941J0D01*
G01*
G37*
%TD*%
%TO.C,Pmod6*%
X226060000Y-125730000D03*
X226060000Y-123190000D03*
X223520000Y-125730000D03*
X223520000Y-123190000D03*
X220980000Y-125730000D03*
X220980000Y-123190000D03*
X218440000Y-125730000D03*
X218440000Y-123190000D03*
X215900000Y-125730000D03*
X215900000Y-123190000D03*
X213360000Y-125730000D03*
G36*
G01*
X214207059Y-124090000D02*
X212512941Y-124090000D01*
G75*
G02*
X212460000Y-124037059I0J52941D01*
G01*
X212460000Y-122342941D01*
G75*
G02*
X212512941Y-122290000I52941J0D01*
G01*
X214207059Y-122290000D01*
G75*
G02*
X214260000Y-122342941I0J-52941D01*
G01*
X214260000Y-124037059D01*
G75*
G02*
X214207059Y-124090000I-52941J0D01*
G01*
G37*
%TD*%
%TO.C,Pmod4*%
X190500000Y-36830000D03*
X190500000Y-39370000D03*
X193040000Y-36830000D03*
X193040000Y-39370000D03*
X195580000Y-36830000D03*
X195580000Y-39370000D03*
X198120000Y-36830000D03*
X198120000Y-39370000D03*
X200660000Y-36830000D03*
X200660000Y-39370000D03*
X203200000Y-36830000D03*
G36*
G01*
X202352941Y-38470000D02*
X204047059Y-38470000D01*
G75*
G02*
X204100000Y-38522941I0J-52941D01*
G01*
X204100000Y-40217059D01*
G75*
G02*
X204047059Y-40270000I-52941J0D01*
G01*
X202352941Y-40270000D01*
G75*
G02*
X202300000Y-40217059I0J52941D01*
G01*
X202300000Y-38522941D01*
G75*
G02*
X202352941Y-38470000I52941J0D01*
G01*
G37*
%TD*%
%TO.C,Pmod3*%
X213360000Y-36830000D03*
X213360000Y-39370000D03*
X215900000Y-36830000D03*
X215900000Y-39370000D03*
X218440000Y-36830000D03*
X218440000Y-39370000D03*
X220980000Y-36830000D03*
X220980000Y-39370000D03*
X223520000Y-36830000D03*
X223520000Y-39370000D03*
X226060000Y-36830000D03*
G36*
G01*
X225212941Y-38470000D02*
X226907059Y-38470000D01*
G75*
G02*
X226960000Y-38522941I0J-52941D01*
G01*
X226960000Y-40217059D01*
G75*
G02*
X226907059Y-40270000I-52941J0D01*
G01*
X225212941Y-40270000D01*
G75*
G02*
X225160000Y-40217059I0J52941D01*
G01*
X225160000Y-38522941D01*
G75*
G02*
X225212941Y-38470000I52941J0D01*
G01*
G37*
%TD*%
%TO.C,Pmod2*%
X236220000Y-36830000D03*
X236220000Y-39370000D03*
X238760000Y-36830000D03*
X238760000Y-39370000D03*
X241300000Y-36830000D03*
X241300000Y-39370000D03*
X243840000Y-36830000D03*
X243840000Y-39370000D03*
X246380000Y-36830000D03*
X246380000Y-39370000D03*
X248920000Y-36830000D03*
G36*
G01*
X248072941Y-38470000D02*
X249767059Y-38470000D01*
G75*
G02*
X249820000Y-38522941I0J-52941D01*
G01*
X249820000Y-40217059D01*
G75*
G02*
X249767059Y-40270000I-52941J0D01*
G01*
X248072941Y-40270000D01*
G75*
G02*
X248020000Y-40217059I0J52941D01*
G01*
X248020000Y-38522941D01*
G75*
G02*
X248072941Y-38470000I52941J0D01*
G01*
G37*
%TD*%
%TO.C,J8*%
G36*
G01*
X262438807Y-117278301D02*
X262438807Y-117278301D01*
G75*
G02*
X262874128Y-118474334I-380356J-815677D01*
G01*
X262874128Y-118474334D01*
G75*
G02*
X261678095Y-118909655I-815677J380356D01*
G01*
X261678095Y-118909655D01*
G75*
G02*
X261242774Y-117713622I380356J815677D01*
G01*
X261242774Y-117713622D01*
G75*
G02*
X262438807Y-117278301I815677J-380356D01*
G01*
G37*
G36*
G01*
X261365356Y-119580323D02*
X261365356Y-119580323D01*
G75*
G02*
X261800677Y-120776356I-380356J-815677D01*
G01*
X261800677Y-120776356D01*
G75*
G02*
X260604644Y-121211677I-815677J380356D01*
G01*
X260604644Y-121211677D01*
G75*
G02*
X260169323Y-120015644I380356J815677D01*
G01*
X260169323Y-120015644D01*
G75*
G02*
X261365356Y-119580323I815677J-380356D01*
G01*
G37*
G36*
G01*
X260136785Y-116204851D02*
X260136785Y-116204851D01*
G75*
G02*
X260572106Y-117400884I-380356J-815677D01*
G01*
X260572106Y-117400884D01*
G75*
G02*
X259376073Y-117836205I-815677J380356D01*
G01*
X259376073Y-117836205D01*
G75*
G02*
X258940752Y-116640172I380356J815677D01*
G01*
X258940752Y-116640172D01*
G75*
G02*
X260136785Y-116204851I815677J-380356D01*
G01*
G37*
G36*
G01*
X259063335Y-118506872D02*
X259063335Y-118506872D01*
G75*
G02*
X259498656Y-119702905I-380356J-815677D01*
G01*
X259498656Y-119702905D01*
G75*
G02*
X258302623Y-120138226I-815677J380356D01*
G01*
X258302623Y-120138226D01*
G75*
G02*
X257867302Y-118942193I380356J815677D01*
G01*
X257867302Y-118942193D01*
G75*
G02*
X259063335Y-118506872I815677J-380356D01*
G01*
G37*
G36*
G01*
X257834763Y-115131400D02*
X257834763Y-115131400D01*
G75*
G02*
X258270084Y-116327433I-380356J-815677D01*
G01*
X258270084Y-116327433D01*
G75*
G02*
X257074051Y-116762754I-815677J380356D01*
G01*
X257074051Y-116762754D01*
G75*
G02*
X256638730Y-115566721I380356J815677D01*
G01*
X256638730Y-115566721D01*
G75*
G02*
X257834763Y-115131400I815677J-380356D01*
G01*
G37*
G36*
G01*
X256761313Y-117433422D02*
X256761313Y-117433422D01*
G75*
G02*
X257196634Y-118629455I-380356J-815677D01*
G01*
X257196634Y-118629455D01*
G75*
G02*
X256000601Y-119064776I-815677J380356D01*
G01*
X256000601Y-119064776D01*
G75*
G02*
X255565280Y-117868743I380356J815677D01*
G01*
X255565280Y-117868743D01*
G75*
G02*
X256761313Y-117433422I815677J-380356D01*
G01*
G37*
G36*
G01*
X255532742Y-114057950D02*
X255532742Y-114057950D01*
G75*
G02*
X255968063Y-115253983I-380356J-815677D01*
G01*
X255968063Y-115253983D01*
G75*
G02*
X254772030Y-115689304I-815677J380356D01*
G01*
X254772030Y-115689304D01*
G75*
G02*
X254336709Y-114493271I380356J815677D01*
G01*
X254336709Y-114493271D01*
G75*
G02*
X255532742Y-114057950I815677J-380356D01*
G01*
G37*
G36*
G01*
X254459291Y-116359972D02*
X254459291Y-116359972D01*
G75*
G02*
X254894612Y-117556005I-380356J-815677D01*
G01*
X254894612Y-117556005D01*
G75*
G02*
X253698579Y-117991326I-815677J380356D01*
G01*
X253698579Y-117991326D01*
G75*
G02*
X253263258Y-116795293I380356J815677D01*
G01*
X253263258Y-116795293D01*
G75*
G02*
X254459291Y-116359972I815677J-380356D01*
G01*
G37*
G36*
G01*
X253230720Y-112984499D02*
X253230720Y-112984499D01*
G75*
G02*
X253666041Y-114180532I-380356J-815677D01*
G01*
X253666041Y-114180532D01*
G75*
G02*
X252470008Y-114615853I-815677J380356D01*
G01*
X252470008Y-114615853D01*
G75*
G02*
X252034687Y-113419820I380356J815677D01*
G01*
X252034687Y-113419820D01*
G75*
G02*
X253230720Y-112984499I815677J-380356D01*
G01*
G37*
G36*
G01*
X252157269Y-115286521D02*
X252157269Y-115286521D01*
G75*
G02*
X252592590Y-116482554I-380356J-815677D01*
G01*
X252592590Y-116482554D01*
G75*
G02*
X251396557Y-116917875I-815677J380356D01*
G01*
X251396557Y-116917875D01*
G75*
G02*
X250961236Y-115721842I380356J815677D01*
G01*
X250961236Y-115721842D01*
G75*
G02*
X252157269Y-115286521I815677J-380356D01*
G01*
G37*
G36*
G01*
X250928698Y-111911049D02*
X250928698Y-111911049D01*
G75*
G02*
X251364019Y-113107082I-380356J-815677D01*
G01*
X251364019Y-113107082D01*
G75*
G02*
X250167986Y-113542403I-815677J380356D01*
G01*
X250167986Y-113542403D01*
G75*
G02*
X249732665Y-112346370I380356J815677D01*
G01*
X249732665Y-112346370D01*
G75*
G02*
X250928698Y-111911049I815677J-380356D01*
G01*
G37*
G36*
G01*
X249855248Y-114213071D02*
X249855248Y-114213071D01*
G75*
G02*
X250290569Y-115409104I-380356J-815677D01*
G01*
X250290569Y-115409104D01*
G75*
G02*
X249094536Y-115844425I-815677J380356D01*
G01*
X249094536Y-115844425D01*
G75*
G02*
X248659215Y-114648392I380356J815677D01*
G01*
X248659215Y-114648392D01*
G75*
G02*
X249855248Y-114213071I815677J-380356D01*
G01*
G37*
G36*
G01*
X248626676Y-110837599D02*
X248626676Y-110837599D01*
G75*
G02*
X249061997Y-112033632I-380356J-815677D01*
G01*
X249061997Y-112033632D01*
G75*
G02*
X247865964Y-112468953I-815677J380356D01*
G01*
X247865964Y-112468953D01*
G75*
G02*
X247430643Y-111272920I380356J815677D01*
G01*
X247430643Y-111272920D01*
G75*
G02*
X248626676Y-110837599I815677J-380356D01*
G01*
G37*
G36*
G01*
X247553226Y-113139620D02*
X247553226Y-113139620D01*
G75*
G02*
X247988547Y-114335653I-380356J-815677D01*
G01*
X247988547Y-114335653D01*
G75*
G02*
X246792514Y-114770974I-815677J380356D01*
G01*
X246792514Y-114770974D01*
G75*
G02*
X246357193Y-113574941I380356J815677D01*
G01*
X246357193Y-113574941D01*
G75*
G02*
X247553226Y-113139620I815677J-380356D01*
G01*
G37*
G36*
G01*
X246324654Y-109764148D02*
X246324654Y-109764148D01*
G75*
G02*
X246759975Y-110960181I-380356J-815677D01*
G01*
X246759975Y-110960181D01*
G75*
G02*
X245563942Y-111395502I-815677J380356D01*
G01*
X245563942Y-111395502D01*
G75*
G02*
X245128621Y-110199469I380356J815677D01*
G01*
X245128621Y-110199469D01*
G75*
G02*
X246324654Y-109764148I815677J-380356D01*
G01*
G37*
G36*
G01*
X244483508Y-111708187D02*
X246018901Y-112424152D01*
G75*
G02*
X246044508Y-112494507I-22374J-47981D01*
G01*
X245328543Y-114029900D01*
G75*
G02*
X245258188Y-114055507I-47981J22374D01*
G01*
X243722795Y-113339542D01*
G75*
G02*
X243697188Y-113269187I22374J47981D01*
G01*
X244413153Y-111733794D01*
G75*
G02*
X244483508Y-111708187I47981J-22374D01*
G01*
G37*
%TD*%
%TO.C,U2*%
G36*
G01*
X144682692Y-107800000D02*
X145317308Y-107800000D01*
G75*
G02*
X145375000Y-107857692I0J-57692D01*
G01*
X145375000Y-108902308D01*
G75*
G02*
X145317308Y-108960000I-57692J0D01*
G01*
X144682692Y-108960000D01*
G75*
G02*
X144625000Y-108902308I0J57692D01*
G01*
X144625000Y-107857692D01*
G75*
G02*
X144682692Y-107800000I57692J0D01*
G01*
G37*
G36*
G01*
X143732692Y-107800000D02*
X144367308Y-107800000D01*
G75*
G02*
X144425000Y-107857692I0J-57692D01*
G01*
X144425000Y-108902308D01*
G75*
G02*
X144367308Y-108960000I-57692J0D01*
G01*
X143732692Y-108960000D01*
G75*
G02*
X143675000Y-108902308I0J57692D01*
G01*
X143675000Y-107857692D01*
G75*
G02*
X143732692Y-107800000I57692J0D01*
G01*
G37*
G36*
G01*
X145632692Y-107800000D02*
X146267308Y-107800000D01*
G75*
G02*
X146325000Y-107857692I0J-57692D01*
G01*
X146325000Y-108902308D01*
G75*
G02*
X146267308Y-108960000I-57692J0D01*
G01*
X145632692Y-108960000D01*
G75*
G02*
X145575000Y-108902308I0J57692D01*
G01*
X145575000Y-107857692D01*
G75*
G02*
X145632692Y-107800000I57692J0D01*
G01*
G37*
G36*
G01*
X145632692Y-105600000D02*
X146267308Y-105600000D01*
G75*
G02*
X146325000Y-105657692I0J-57692D01*
G01*
X146325000Y-106702308D01*
G75*
G02*
X146267308Y-106760000I-57692J0D01*
G01*
X145632692Y-106760000D01*
G75*
G02*
X145575000Y-106702308I0J57692D01*
G01*
X145575000Y-105657692D01*
G75*
G02*
X145632692Y-105600000I57692J0D01*
G01*
G37*
G36*
G01*
X144682692Y-105600000D02*
X145317308Y-105600000D01*
G75*
G02*
X145375000Y-105657692I0J-57692D01*
G01*
X145375000Y-106702308D01*
G75*
G02*
X145317308Y-106760000I-57692J0D01*
G01*
X144682692Y-106760000D01*
G75*
G02*
X144625000Y-106702308I0J57692D01*
G01*
X144625000Y-105657692D01*
G75*
G02*
X144682692Y-105600000I57692J0D01*
G01*
G37*
G36*
G01*
X143732692Y-105600000D02*
X144367308Y-105600000D01*
G75*
G02*
X144425000Y-105657692I0J-57692D01*
G01*
X144425000Y-106702308D01*
G75*
G02*
X144367308Y-106760000I-57692J0D01*
G01*
X143732692Y-106760000D01*
G75*
G02*
X143675000Y-106702308I0J57692D01*
G01*
X143675000Y-105657692D01*
G75*
G02*
X143732692Y-105600000I57692J0D01*
G01*
G37*
%TD*%
%TO.C,R8*%
G36*
G01*
X163468750Y-67080000D02*
X164031250Y-67080000D01*
G75*
G02*
X164275000Y-67323750I0J-243750D01*
G01*
X164275000Y-67811250D01*
G75*
G02*
X164031250Y-68055000I-243750J0D01*
G01*
X163468750Y-68055000D01*
G75*
G02*
X163225000Y-67811250I0J243750D01*
G01*
X163225000Y-67323750D01*
G75*
G02*
X163468750Y-67080000I243750J0D01*
G01*
G37*
G36*
G01*
X163468750Y-65505000D02*
X164031250Y-65505000D01*
G75*
G02*
X164275000Y-65748750I0J-243750D01*
G01*
X164275000Y-66236250D01*
G75*
G02*
X164031250Y-66480000I-243750J0D01*
G01*
X163468750Y-66480000D01*
G75*
G02*
X163225000Y-66236250I0J243750D01*
G01*
X163225000Y-65748750D01*
G75*
G02*
X163468750Y-65505000I243750J0D01*
G01*
G37*
%TD*%
D16*
%TO.C,J21*%
X187540000Y-63740000D03*
X187540000Y-68820000D03*
X184365000Y-68820000D03*
X184365000Y-63740000D03*
D17*
X182460000Y-67296000D03*
X182460000Y-65264000D03*
X187540000Y-66280000D03*
%TD*%
D18*
%TO.C,J20*%
X208915000Y-78740000D03*
X210185000Y-78740000D03*
X208915000Y-80010000D03*
X210185000Y-80010000D03*
X208915000Y-81280000D03*
X210185000Y-81280000D03*
X208915000Y-82550000D03*
X210185000Y-82550000D03*
X208915000Y-83820000D03*
G36*
G01*
X210735000Y-83325000D02*
X210735000Y-84315000D01*
G75*
G02*
X210680000Y-84370000I-55000J0D01*
G01*
X209690000Y-84370000D01*
G75*
G02*
X209635000Y-84315000I0J55000D01*
G01*
X209635000Y-83325000D01*
G75*
G02*
X209690000Y-83270000I55000J0D01*
G01*
X210680000Y-83270000D01*
G75*
G02*
X210735000Y-83325000I0J-55000D01*
G01*
G37*
%TD*%
%TO.C,R7*%
G36*
G01*
X144725000Y-94811250D02*
X144725000Y-94248750D01*
G75*
G02*
X144968750Y-94005000I243750J0D01*
G01*
X145456250Y-94005000D01*
G75*
G02*
X145700000Y-94248750I0J-243750D01*
G01*
X145700000Y-94811250D01*
G75*
G02*
X145456250Y-95055000I-243750J0D01*
G01*
X144968750Y-95055000D01*
G75*
G02*
X144725000Y-94811250I0J243750D01*
G01*
G37*
G36*
G01*
X146300000Y-94811250D02*
X146300000Y-94248750D01*
G75*
G02*
X146543750Y-94005000I243750J0D01*
G01*
X147031250Y-94005000D01*
G75*
G02*
X147275000Y-94248750I0J-243750D01*
G01*
X147275000Y-94811250D01*
G75*
G02*
X147031250Y-95055000I-243750J0D01*
G01*
X146543750Y-95055000D01*
G75*
G02*
X146300000Y-94811250I0J243750D01*
G01*
G37*
%TD*%
%TO.C,R6*%
G36*
G01*
X147275000Y-95748750D02*
X147275000Y-96311250D01*
G75*
G02*
X147031250Y-96555000I-243750J0D01*
G01*
X146543750Y-96555000D01*
G75*
G02*
X146300000Y-96311250I0J243750D01*
G01*
X146300000Y-95748750D01*
G75*
G02*
X146543750Y-95505000I243750J0D01*
G01*
X147031250Y-95505000D01*
G75*
G02*
X147275000Y-95748750I0J-243750D01*
G01*
G37*
G36*
G01*
X145700000Y-95748750D02*
X145700000Y-96311250D01*
G75*
G02*
X145456250Y-96555000I-243750J0D01*
G01*
X144968750Y-96555000D01*
G75*
G02*
X144725000Y-96311250I0J243750D01*
G01*
X144725000Y-95748750D01*
G75*
G02*
X144968750Y-95505000I243750J0D01*
G01*
X145456250Y-95505000D01*
G75*
G02*
X145700000Y-95748750I0J-243750D01*
G01*
G37*
%TD*%
%TO.C,R3*%
G36*
G01*
X163468750Y-96080000D02*
X164031250Y-96080000D01*
G75*
G02*
X164275000Y-96323750I0J-243750D01*
G01*
X164275000Y-96811250D01*
G75*
G02*
X164031250Y-97055000I-243750J0D01*
G01*
X163468750Y-97055000D01*
G75*
G02*
X163225000Y-96811250I0J243750D01*
G01*
X163225000Y-96323750D01*
G75*
G02*
X163468750Y-96080000I243750J0D01*
G01*
G37*
G36*
G01*
X163468750Y-94505000D02*
X164031250Y-94505000D01*
G75*
G02*
X164275000Y-94748750I0J-243750D01*
G01*
X164275000Y-95236250D01*
G75*
G02*
X164031250Y-95480000I-243750J0D01*
G01*
X163468750Y-95480000D01*
G75*
G02*
X163225000Y-95236250I0J243750D01*
G01*
X163225000Y-94748750D01*
G75*
G02*
X163468750Y-94505000I243750J0D01*
G01*
G37*
%TD*%
%TO.C,C2*%
G36*
G01*
X152968750Y-74080000D02*
X153531250Y-74080000D01*
G75*
G02*
X153775000Y-74323750I0J-243750D01*
G01*
X153775000Y-74811250D01*
G75*
G02*
X153531250Y-75055000I-243750J0D01*
G01*
X152968750Y-75055000D01*
G75*
G02*
X152725000Y-74811250I0J243750D01*
G01*
X152725000Y-74323750D01*
G75*
G02*
X152968750Y-74080000I243750J0D01*
G01*
G37*
G36*
G01*
X152968750Y-72505000D02*
X153531250Y-72505000D01*
G75*
G02*
X153775000Y-72748750I0J-243750D01*
G01*
X153775000Y-73236250D01*
G75*
G02*
X153531250Y-73480000I-243750J0D01*
G01*
X152968750Y-73480000D01*
G75*
G02*
X152725000Y-73236250I0J243750D01*
G01*
X152725000Y-72748750D01*
G75*
G02*
X152968750Y-72505000I243750J0D01*
G01*
G37*
%TD*%
%TO.C,C1*%
G36*
G01*
X157531250Y-58480000D02*
X156968750Y-58480000D01*
G75*
G02*
X156725000Y-58236250I0J243750D01*
G01*
X156725000Y-57748750D01*
G75*
G02*
X156968750Y-57505000I243750J0D01*
G01*
X157531250Y-57505000D01*
G75*
G02*
X157775000Y-57748750I0J-243750D01*
G01*
X157775000Y-58236250D01*
G75*
G02*
X157531250Y-58480000I-243750J0D01*
G01*
G37*
G36*
G01*
X157531250Y-60055000D02*
X156968750Y-60055000D01*
G75*
G02*
X156725000Y-59811250I0J243750D01*
G01*
X156725000Y-59323750D01*
G75*
G02*
X156968750Y-59080000I243750J0D01*
G01*
X157531250Y-59080000D01*
G75*
G02*
X157775000Y-59323750I0J-243750D01*
G01*
X157775000Y-59811250D01*
G75*
G02*
X157531250Y-60055000I-243750J0D01*
G01*
G37*
%TD*%
%TO.C,J1*%
G36*
G01*
X246324654Y-52795851D02*
X246324654Y-52795851D01*
G75*
G02*
X245128621Y-52360530I-380356J815677D01*
G01*
X245128621Y-52360530D01*
G75*
G02*
X245563942Y-51164497I815677J380356D01*
G01*
X245563942Y-51164497D01*
G75*
G02*
X246759975Y-51599818I380356J-815677D01*
G01*
X246759975Y-51599818D01*
G75*
G02*
X246324654Y-52795851I-815677J-380356D01*
G01*
G37*
G36*
G01*
X245251204Y-50493830D02*
X245251204Y-50493830D01*
G75*
G02*
X244055171Y-50058509I-380356J815677D01*
G01*
X244055171Y-50058509D01*
G75*
G02*
X244490492Y-48862476I815677J380356D01*
G01*
X244490492Y-48862476D01*
G75*
G02*
X245686525Y-49297797I380356J-815677D01*
G01*
X245686525Y-49297797D01*
G75*
G02*
X245251204Y-50493830I-815677J-380356D01*
G01*
G37*
G36*
G01*
X248626676Y-51722401D02*
X248626676Y-51722401D01*
G75*
G02*
X247430643Y-51287080I-380356J815677D01*
G01*
X247430643Y-51287080D01*
G75*
G02*
X247865964Y-50091047I815677J380356D01*
G01*
X247865964Y-50091047D01*
G75*
G02*
X249061997Y-50526368I380356J-815677D01*
G01*
X249061997Y-50526368D01*
G75*
G02*
X248626676Y-51722401I-815677J-380356D01*
G01*
G37*
G36*
G01*
X247553225Y-49420379D02*
X247553225Y-49420379D01*
G75*
G02*
X246357192Y-48985058I-380356J815677D01*
G01*
X246357192Y-48985058D01*
G75*
G02*
X246792513Y-47789025I815677J380356D01*
G01*
X246792513Y-47789025D01*
G75*
G02*
X247988546Y-48224346I380356J-815677D01*
G01*
X247988546Y-48224346D01*
G75*
G02*
X247553225Y-49420379I-815677J-380356D01*
G01*
G37*
G36*
G01*
X250928697Y-50648951D02*
X250928697Y-50648951D01*
G75*
G02*
X249732664Y-50213630I-380356J815677D01*
G01*
X249732664Y-50213630D01*
G75*
G02*
X250167985Y-49017597I815677J380356D01*
G01*
X250167985Y-49017597D01*
G75*
G02*
X251364018Y-49452918I380356J-815677D01*
G01*
X251364018Y-49452918D01*
G75*
G02*
X250928697Y-50648951I-815677J-380356D01*
G01*
G37*
G36*
G01*
X249855247Y-48346929D02*
X249855247Y-48346929D01*
G75*
G02*
X248659214Y-47911608I-380356J815677D01*
G01*
X248659214Y-47911608D01*
G75*
G02*
X249094535Y-46715575I815677J380356D01*
G01*
X249094535Y-46715575D01*
G75*
G02*
X250290568Y-47150896I380356J-815677D01*
G01*
X250290568Y-47150896D01*
G75*
G02*
X249855247Y-48346929I-815677J-380356D01*
G01*
G37*
G36*
G01*
X253230719Y-49575500D02*
X253230719Y-49575500D01*
G75*
G02*
X252034686Y-49140179I-380356J815677D01*
G01*
X252034686Y-49140179D01*
G75*
G02*
X252470007Y-47944146I815677J380356D01*
G01*
X252470007Y-47944146D01*
G75*
G02*
X253666040Y-48379467I380356J-815677D01*
G01*
X253666040Y-48379467D01*
G75*
G02*
X253230719Y-49575500I-815677J-380356D01*
G01*
G37*
G36*
G01*
X252157269Y-47273479D02*
X252157269Y-47273479D01*
G75*
G02*
X250961236Y-46838158I-380356J815677D01*
G01*
X250961236Y-46838158D01*
G75*
G02*
X251396557Y-45642125I815677J380356D01*
G01*
X251396557Y-45642125D01*
G75*
G02*
X252592590Y-46077446I380356J-815677D01*
G01*
X252592590Y-46077446D01*
G75*
G02*
X252157269Y-47273479I-815677J-380356D01*
G01*
G37*
G36*
G01*
X255532741Y-48502050D02*
X255532741Y-48502050D01*
G75*
G02*
X254336708Y-48066729I-380356J815677D01*
G01*
X254336708Y-48066729D01*
G75*
G02*
X254772029Y-46870696I815677J380356D01*
G01*
X254772029Y-46870696D01*
G75*
G02*
X255968062Y-47306017I380356J-815677D01*
G01*
X255968062Y-47306017D01*
G75*
G02*
X255532741Y-48502050I-815677J-380356D01*
G01*
G37*
G36*
G01*
X254459291Y-46200028D02*
X254459291Y-46200028D01*
G75*
G02*
X253263258Y-45764707I-380356J815677D01*
G01*
X253263258Y-45764707D01*
G75*
G02*
X253698579Y-44568674I815677J380356D01*
G01*
X253698579Y-44568674D01*
G75*
G02*
X254894612Y-45003995I380356J-815677D01*
G01*
X254894612Y-45003995D01*
G75*
G02*
X254459291Y-46200028I-815677J-380356D01*
G01*
G37*
G36*
G01*
X257834763Y-47428600D02*
X257834763Y-47428600D01*
G75*
G02*
X256638730Y-46993279I-380356J815677D01*
G01*
X256638730Y-46993279D01*
G75*
G02*
X257074051Y-45797246I815677J380356D01*
G01*
X257074051Y-45797246D01*
G75*
G02*
X258270084Y-46232567I380356J-815677D01*
G01*
X258270084Y-46232567D01*
G75*
G02*
X257834763Y-47428600I-815677J-380356D01*
G01*
G37*
G36*
G01*
X256761312Y-45126578D02*
X256761312Y-45126578D01*
G75*
G02*
X255565279Y-44691257I-380356J815677D01*
G01*
X255565279Y-44691257D01*
G75*
G02*
X256000600Y-43495224I815677J380356D01*
G01*
X256000600Y-43495224D01*
G75*
G02*
X257196633Y-43930545I380356J-815677D01*
G01*
X257196633Y-43930545D01*
G75*
G02*
X256761312Y-45126578I-815677J-380356D01*
G01*
G37*
G36*
G01*
X260136785Y-46355149D02*
X260136785Y-46355149D01*
G75*
G02*
X258940752Y-45919828I-380356J815677D01*
G01*
X258940752Y-45919828D01*
G75*
G02*
X259376073Y-44723795I815677J380356D01*
G01*
X259376073Y-44723795D01*
G75*
G02*
X260572106Y-45159116I380356J-815677D01*
G01*
X260572106Y-45159116D01*
G75*
G02*
X260136785Y-46355149I-815677J-380356D01*
G01*
G37*
G36*
G01*
X259063334Y-44053127D02*
X259063334Y-44053127D01*
G75*
G02*
X257867301Y-43617806I-380356J815677D01*
G01*
X257867301Y-43617806D01*
G75*
G02*
X258302622Y-42421773I815677J380356D01*
G01*
X258302622Y-42421773D01*
G75*
G02*
X259498655Y-42857094I380356J-815677D01*
G01*
X259498655Y-42857094D01*
G75*
G02*
X259063334Y-44053127I-815677J-380356D01*
G01*
G37*
G36*
G01*
X262438806Y-45281699D02*
X262438806Y-45281699D01*
G75*
G02*
X261242773Y-44846378I-380356J815677D01*
G01*
X261242773Y-44846378D01*
G75*
G02*
X261678094Y-43650345I815677J380356D01*
G01*
X261678094Y-43650345D01*
G75*
G02*
X262874127Y-44085666I380356J-815677D01*
G01*
X262874127Y-44085666D01*
G75*
G02*
X262438806Y-45281699I-815677J-380356D01*
G01*
G37*
G36*
G01*
X262133053Y-42621695D02*
X260597660Y-43337660D01*
G75*
G02*
X260527305Y-43312053I-22374J47981D01*
G01*
X259811340Y-41776660D01*
G75*
G02*
X259836947Y-41706305I47981J22374D01*
G01*
X261372340Y-40990340D01*
G75*
G02*
X261442695Y-41015947I22374J-47981D01*
G01*
X262158660Y-42551340D01*
G75*
G02*
X262133053Y-42621695I-47981J-22374D01*
G01*
G37*
%TD*%
%TO.C,R2*%
G36*
G01*
X147031250Y-91980000D02*
X146468750Y-91980000D01*
G75*
G02*
X146225000Y-91736250I0J243750D01*
G01*
X146225000Y-91248750D01*
G75*
G02*
X146468750Y-91005000I243750J0D01*
G01*
X147031250Y-91005000D01*
G75*
G02*
X147275000Y-91248750I0J-243750D01*
G01*
X147275000Y-91736250D01*
G75*
G02*
X147031250Y-91980000I-243750J0D01*
G01*
G37*
G36*
G01*
X147031250Y-93555000D02*
X146468750Y-93555000D01*
G75*
G02*
X146225000Y-93311250I0J243750D01*
G01*
X146225000Y-92823750D01*
G75*
G02*
X146468750Y-92580000I243750J0D01*
G01*
X147031250Y-92580000D01*
G75*
G02*
X147275000Y-92823750I0J-243750D01*
G01*
X147275000Y-93311250D01*
G75*
G02*
X147031250Y-93555000I-243750J0D01*
G01*
G37*
%TD*%
%TO.C,R1*%
G36*
G01*
X144968750Y-92580000D02*
X145531250Y-92580000D01*
G75*
G02*
X145775000Y-92823750I0J-243750D01*
G01*
X145775000Y-93311250D01*
G75*
G02*
X145531250Y-93555000I-243750J0D01*
G01*
X144968750Y-93555000D01*
G75*
G02*
X144725000Y-93311250I0J243750D01*
G01*
X144725000Y-92823750D01*
G75*
G02*
X144968750Y-92580000I243750J0D01*
G01*
G37*
G36*
G01*
X144968750Y-91005000D02*
X145531250Y-91005000D01*
G75*
G02*
X145775000Y-91248750I0J-243750D01*
G01*
X145775000Y-91736250D01*
G75*
G02*
X145531250Y-91980000I-243750J0D01*
G01*
X144968750Y-91980000D01*
G75*
G02*
X144725000Y-91736250I0J243750D01*
G01*
X144725000Y-91248750D01*
G75*
G02*
X144968750Y-91005000I243750J0D01*
G01*
G37*
%TD*%
D19*
%TO.C,J12*%
X133430000Y-111600000D03*
X133430000Y-102960000D03*
D20*
X129260000Y-111600000D03*
X129260000Y-102960000D03*
G36*
G01*
X133446667Y-107830000D02*
X134573333Y-107830000D01*
G75*
G02*
X134640000Y-107896667I0J-66667D01*
G01*
X134640000Y-108163333D01*
G75*
G02*
X134573333Y-108230000I-66667J0D01*
G01*
X133446667Y-108230000D01*
G75*
G02*
X133380000Y-108163333I0J66667D01*
G01*
X133380000Y-107896667D01*
G75*
G02*
X133446667Y-107830000I66667J0D01*
G01*
G37*
G36*
G01*
X133446667Y-107330000D02*
X134573333Y-107330000D01*
G75*
G02*
X134640000Y-107396667I0J-66667D01*
G01*
X134640000Y-107663333D01*
G75*
G02*
X134573333Y-107730000I-66667J0D01*
G01*
X133446667Y-107730000D01*
G75*
G02*
X133380000Y-107663333I0J66667D01*
G01*
X133380000Y-107396667D01*
G75*
G02*
X133446667Y-107330000I66667J0D01*
G01*
G37*
G36*
G01*
X133446667Y-106830000D02*
X134573333Y-106830000D01*
G75*
G02*
X134640000Y-106896667I0J-66667D01*
G01*
X134640000Y-107163333D01*
G75*
G02*
X134573333Y-107230000I-66667J0D01*
G01*
X133446667Y-107230000D01*
G75*
G02*
X133380000Y-107163333I0J66667D01*
G01*
X133380000Y-106896667D01*
G75*
G02*
X133446667Y-106830000I66667J0D01*
G01*
G37*
G36*
G01*
X133446667Y-108830000D02*
X134573333Y-108830000D01*
G75*
G02*
X134640000Y-108896667I0J-66667D01*
G01*
X134640000Y-109163333D01*
G75*
G02*
X134573333Y-109230000I-66667J0D01*
G01*
X133446667Y-109230000D01*
G75*
G02*
X133380000Y-109163333I0J66667D01*
G01*
X133380000Y-108896667D01*
G75*
G02*
X133446667Y-108830000I66667J0D01*
G01*
G37*
G36*
G01*
X133446667Y-108330000D02*
X134573333Y-108330000D01*
G75*
G02*
X134640000Y-108396667I0J-66667D01*
G01*
X134640000Y-108663333D01*
G75*
G02*
X134573333Y-108730000I-66667J0D01*
G01*
X133446667Y-108730000D01*
G75*
G02*
X133380000Y-108663333I0J66667D01*
G01*
X133380000Y-108396667D01*
G75*
G02*
X133446667Y-108330000I66667J0D01*
G01*
G37*
G36*
G01*
X133446667Y-105830000D02*
X134573333Y-105830000D01*
G75*
G02*
X134640000Y-105896667I0J-66667D01*
G01*
X134640000Y-106163333D01*
G75*
G02*
X134573333Y-106230000I-66667J0D01*
G01*
X133446667Y-106230000D01*
G75*
G02*
X133380000Y-106163333I0J66667D01*
G01*
X133380000Y-105896667D01*
G75*
G02*
X133446667Y-105830000I66667J0D01*
G01*
G37*
G36*
G01*
X133446667Y-106330000D02*
X134573333Y-106330000D01*
G75*
G02*
X134640000Y-106396667I0J-66667D01*
G01*
X134640000Y-106663333D01*
G75*
G02*
X134573333Y-106730000I-66667J0D01*
G01*
X133446667Y-106730000D01*
G75*
G02*
X133380000Y-106663333I0J66667D01*
G01*
X133380000Y-106396667D01*
G75*
G02*
X133446667Y-106330000I66667J0D01*
G01*
G37*
G36*
G01*
X133446667Y-105330000D02*
X134573333Y-105330000D01*
G75*
G02*
X134640000Y-105396667I0J-66667D01*
G01*
X134640000Y-105663333D01*
G75*
G02*
X134573333Y-105730000I-66667J0D01*
G01*
X133446667Y-105730000D01*
G75*
G02*
X133380000Y-105663333I0J66667D01*
G01*
X133380000Y-105396667D01*
G75*
G02*
X133446667Y-105330000I66667J0D01*
G01*
G37*
D21*
X132950000Y-104390000D03*
X132950000Y-110170000D03*
G36*
G01*
X134581667Y-110030000D02*
X133438333Y-110030000D01*
G75*
G02*
X133380000Y-109971667I0J58333D01*
G01*
X133380000Y-109388333D01*
G75*
G02*
X133438333Y-109330000I58333J0D01*
G01*
X134581667Y-109330000D01*
G75*
G02*
X134640000Y-109388333I0J-58333D01*
G01*
X134640000Y-109971667D01*
G75*
G02*
X134581667Y-110030000I-58333J0D01*
G01*
G37*
G36*
G01*
X134581667Y-110030000D02*
X133438333Y-110030000D01*
G75*
G02*
X133380000Y-109971667I0J58333D01*
G01*
X133380000Y-109388333D01*
G75*
G02*
X133438333Y-109330000I58333J0D01*
G01*
X134581667Y-109330000D01*
G75*
G02*
X134640000Y-109388333I0J-58333D01*
G01*
X134640000Y-109971667D01*
G75*
G02*
X134581667Y-110030000I-58333J0D01*
G01*
G37*
G36*
G01*
X134581667Y-110830000D02*
X133438333Y-110830000D01*
G75*
G02*
X133380000Y-110771667I0J58333D01*
G01*
X133380000Y-110188333D01*
G75*
G02*
X133438333Y-110130000I58333J0D01*
G01*
X134581667Y-110130000D01*
G75*
G02*
X134640000Y-110188333I0J-58333D01*
G01*
X134640000Y-110771667D01*
G75*
G02*
X134581667Y-110830000I-58333J0D01*
G01*
G37*
G36*
G01*
X134581667Y-110830000D02*
X133438333Y-110830000D01*
G75*
G02*
X133380000Y-110771667I0J58333D01*
G01*
X133380000Y-110188333D01*
G75*
G02*
X133438333Y-110130000I58333J0D01*
G01*
X134581667Y-110130000D01*
G75*
G02*
X134640000Y-110188333I0J-58333D01*
G01*
X134640000Y-110771667D01*
G75*
G02*
X134581667Y-110830000I-58333J0D01*
G01*
G37*
G36*
G01*
X134581667Y-105230000D02*
X133438333Y-105230000D01*
G75*
G02*
X133380000Y-105171667I0J58333D01*
G01*
X133380000Y-104588333D01*
G75*
G02*
X133438333Y-104530000I58333J0D01*
G01*
X134581667Y-104530000D01*
G75*
G02*
X134640000Y-104588333I0J-58333D01*
G01*
X134640000Y-105171667D01*
G75*
G02*
X134581667Y-105230000I-58333J0D01*
G01*
G37*
G36*
G01*
X134581667Y-104430000D02*
X133438333Y-104430000D01*
G75*
G02*
X133380000Y-104371667I0J58333D01*
G01*
X133380000Y-103788333D01*
G75*
G02*
X133438333Y-103730000I58333J0D01*
G01*
X134581667Y-103730000D01*
G75*
G02*
X134640000Y-103788333I0J-58333D01*
G01*
X134640000Y-104371667D01*
G75*
G02*
X134581667Y-104430000I-58333J0D01*
G01*
G37*
G36*
G01*
X134581667Y-105230000D02*
X133438333Y-105230000D01*
G75*
G02*
X133380000Y-105171667I0J58333D01*
G01*
X133380000Y-104588333D01*
G75*
G02*
X133438333Y-104530000I58333J0D01*
G01*
X134581667Y-104530000D01*
G75*
G02*
X134640000Y-104588333I0J-58333D01*
G01*
X134640000Y-105171667D01*
G75*
G02*
X134581667Y-105230000I-58333J0D01*
G01*
G37*
G36*
G01*
X134581667Y-104430000D02*
X133438333Y-104430000D01*
G75*
G02*
X133380000Y-104371667I0J58333D01*
G01*
X133380000Y-103788333D01*
G75*
G02*
X133438333Y-103730000I58333J0D01*
G01*
X134581667Y-103730000D01*
G75*
G02*
X134640000Y-103788333I0J-58333D01*
G01*
X134640000Y-104371667D01*
G75*
G02*
X134581667Y-104430000I-58333J0D01*
G01*
G37*
%TD*%
%TO.C,U1*%
G36*
G01*
X161850000Y-69230000D02*
X160475000Y-69230000D01*
G75*
G02*
X160375000Y-69130000I0J100000D01*
G01*
X160375000Y-68930000D01*
G75*
G02*
X160475000Y-68830000I100000J0D01*
G01*
X161850000Y-68830000D01*
G75*
G02*
X161950000Y-68930000I0J-100000D01*
G01*
X161950000Y-69130000D01*
G75*
G02*
X161850000Y-69230000I-100000J0D01*
G01*
G37*
G36*
G01*
X161850000Y-68730000D02*
X160475000Y-68730000D01*
G75*
G02*
X160375000Y-68630000I0J100000D01*
G01*
X160375000Y-68430000D01*
G75*
G02*
X160475000Y-68330000I100000J0D01*
G01*
X161850000Y-68330000D01*
G75*
G02*
X161950000Y-68430000I0J-100000D01*
G01*
X161950000Y-68630000D01*
G75*
G02*
X161850000Y-68730000I-100000J0D01*
G01*
G37*
G36*
G01*
X161850000Y-68230000D02*
X160475000Y-68230000D01*
G75*
G02*
X160375000Y-68130000I0J100000D01*
G01*
X160375000Y-67930000D01*
G75*
G02*
X160475000Y-67830000I100000J0D01*
G01*
X161850000Y-67830000D01*
G75*
G02*
X161950000Y-67930000I0J-100000D01*
G01*
X161950000Y-68130000D01*
G75*
G02*
X161850000Y-68230000I-100000J0D01*
G01*
G37*
G36*
G01*
X161850000Y-67730000D02*
X160475000Y-67730000D01*
G75*
G02*
X160375000Y-67630000I0J100000D01*
G01*
X160375000Y-67430000D01*
G75*
G02*
X160475000Y-67330000I100000J0D01*
G01*
X161850000Y-67330000D01*
G75*
G02*
X161950000Y-67430000I0J-100000D01*
G01*
X161950000Y-67630000D01*
G75*
G02*
X161850000Y-67730000I-100000J0D01*
G01*
G37*
G36*
G01*
X161850000Y-67230000D02*
X160475000Y-67230000D01*
G75*
G02*
X160375000Y-67130000I0J100000D01*
G01*
X160375000Y-66930000D01*
G75*
G02*
X160475000Y-66830000I100000J0D01*
G01*
X161850000Y-66830000D01*
G75*
G02*
X161950000Y-66930000I0J-100000D01*
G01*
X161950000Y-67130000D01*
G75*
G02*
X161850000Y-67230000I-100000J0D01*
G01*
G37*
G36*
G01*
X161850000Y-66730000D02*
X160475000Y-66730000D01*
G75*
G02*
X160375000Y-66630000I0J100000D01*
G01*
X160375000Y-66430000D01*
G75*
G02*
X160475000Y-66330000I100000J0D01*
G01*
X161850000Y-66330000D01*
G75*
G02*
X161950000Y-66430000I0J-100000D01*
G01*
X161950000Y-66630000D01*
G75*
G02*
X161850000Y-66730000I-100000J0D01*
G01*
G37*
G36*
G01*
X161850000Y-66230000D02*
X160475000Y-66230000D01*
G75*
G02*
X160375000Y-66130000I0J100000D01*
G01*
X160375000Y-65930000D01*
G75*
G02*
X160475000Y-65830000I100000J0D01*
G01*
X161850000Y-65830000D01*
G75*
G02*
X161950000Y-65930000I0J-100000D01*
G01*
X161950000Y-66130000D01*
G75*
G02*
X161850000Y-66230000I-100000J0D01*
G01*
G37*
G36*
G01*
X161850000Y-65730000D02*
X160475000Y-65730000D01*
G75*
G02*
X160375000Y-65630000I0J100000D01*
G01*
X160375000Y-65430000D01*
G75*
G02*
X160475000Y-65330000I100000J0D01*
G01*
X161850000Y-65330000D01*
G75*
G02*
X161950000Y-65430000I0J-100000D01*
G01*
X161950000Y-65630000D01*
G75*
G02*
X161850000Y-65730000I-100000J0D01*
G01*
G37*
G36*
G01*
X161850000Y-65230000D02*
X160475000Y-65230000D01*
G75*
G02*
X160375000Y-65130000I0J100000D01*
G01*
X160375000Y-64930000D01*
G75*
G02*
X160475000Y-64830000I100000J0D01*
G01*
X161850000Y-64830000D01*
G75*
G02*
X161950000Y-64930000I0J-100000D01*
G01*
X161950000Y-65130000D01*
G75*
G02*
X161850000Y-65230000I-100000J0D01*
G01*
G37*
G36*
G01*
X161850000Y-64730000D02*
X160475000Y-64730000D01*
G75*
G02*
X160375000Y-64630000I0J100000D01*
G01*
X160375000Y-64430000D01*
G75*
G02*
X160475000Y-64330000I100000J0D01*
G01*
X161850000Y-64330000D01*
G75*
G02*
X161950000Y-64430000I0J-100000D01*
G01*
X161950000Y-64630000D01*
G75*
G02*
X161850000Y-64730000I-100000J0D01*
G01*
G37*
G36*
G01*
X161850000Y-64230000D02*
X160475000Y-64230000D01*
G75*
G02*
X160375000Y-64130000I0J100000D01*
G01*
X160375000Y-63930000D01*
G75*
G02*
X160475000Y-63830000I100000J0D01*
G01*
X161850000Y-63830000D01*
G75*
G02*
X161950000Y-63930000I0J-100000D01*
G01*
X161950000Y-64130000D01*
G75*
G02*
X161850000Y-64230000I-100000J0D01*
G01*
G37*
G36*
G01*
X161850000Y-63730000D02*
X160475000Y-63730000D01*
G75*
G02*
X160375000Y-63630000I0J100000D01*
G01*
X160375000Y-63430000D01*
G75*
G02*
X160475000Y-63330000I100000J0D01*
G01*
X161850000Y-63330000D01*
G75*
G02*
X161950000Y-63430000I0J-100000D01*
G01*
X161950000Y-63630000D01*
G75*
G02*
X161850000Y-63730000I-100000J0D01*
G01*
G37*
G36*
G01*
X159850000Y-62905000D02*
X159650000Y-62905000D01*
G75*
G02*
X159550000Y-62805000I0J100000D01*
G01*
X159550000Y-61430000D01*
G75*
G02*
X159650000Y-61330000I100000J0D01*
G01*
X159850000Y-61330000D01*
G75*
G02*
X159950000Y-61430000I0J-100000D01*
G01*
X159950000Y-62805000D01*
G75*
G02*
X159850000Y-62905000I-100000J0D01*
G01*
G37*
G36*
G01*
X159350000Y-62905000D02*
X159150000Y-62905000D01*
G75*
G02*
X159050000Y-62805000I0J100000D01*
G01*
X159050000Y-61430000D01*
G75*
G02*
X159150000Y-61330000I100000J0D01*
G01*
X159350000Y-61330000D01*
G75*
G02*
X159450000Y-61430000I0J-100000D01*
G01*
X159450000Y-62805000D01*
G75*
G02*
X159350000Y-62905000I-100000J0D01*
G01*
G37*
G36*
G01*
X158850000Y-62905000D02*
X158650000Y-62905000D01*
G75*
G02*
X158550000Y-62805000I0J100000D01*
G01*
X158550000Y-61430000D01*
G75*
G02*
X158650000Y-61330000I100000J0D01*
G01*
X158850000Y-61330000D01*
G75*
G02*
X158950000Y-61430000I0J-100000D01*
G01*
X158950000Y-62805000D01*
G75*
G02*
X158850000Y-62905000I-100000J0D01*
G01*
G37*
G36*
G01*
X158350000Y-62905000D02*
X158150000Y-62905000D01*
G75*
G02*
X158050000Y-62805000I0J100000D01*
G01*
X158050000Y-61430000D01*
G75*
G02*
X158150000Y-61330000I100000J0D01*
G01*
X158350000Y-61330000D01*
G75*
G02*
X158450000Y-61430000I0J-100000D01*
G01*
X158450000Y-62805000D01*
G75*
G02*
X158350000Y-62905000I-100000J0D01*
G01*
G37*
G36*
G01*
X157850000Y-62905000D02*
X157650000Y-62905000D01*
G75*
G02*
X157550000Y-62805000I0J100000D01*
G01*
X157550000Y-61430000D01*
G75*
G02*
X157650000Y-61330000I100000J0D01*
G01*
X157850000Y-61330000D01*
G75*
G02*
X157950000Y-61430000I0J-100000D01*
G01*
X157950000Y-62805000D01*
G75*
G02*
X157850000Y-62905000I-100000J0D01*
G01*
G37*
G36*
G01*
X157350000Y-62905000D02*
X157150000Y-62905000D01*
G75*
G02*
X157050000Y-62805000I0J100000D01*
G01*
X157050000Y-61430000D01*
G75*
G02*
X157150000Y-61330000I100000J0D01*
G01*
X157350000Y-61330000D01*
G75*
G02*
X157450000Y-61430000I0J-100000D01*
G01*
X157450000Y-62805000D01*
G75*
G02*
X157350000Y-62905000I-100000J0D01*
G01*
G37*
G36*
G01*
X156850000Y-62905000D02*
X156650000Y-62905000D01*
G75*
G02*
X156550000Y-62805000I0J100000D01*
G01*
X156550000Y-61430000D01*
G75*
G02*
X156650000Y-61330000I100000J0D01*
G01*
X156850000Y-61330000D01*
G75*
G02*
X156950000Y-61430000I0J-100000D01*
G01*
X156950000Y-62805000D01*
G75*
G02*
X156850000Y-62905000I-100000J0D01*
G01*
G37*
G36*
G01*
X156350000Y-62905000D02*
X156150000Y-62905000D01*
G75*
G02*
X156050000Y-62805000I0J100000D01*
G01*
X156050000Y-61430000D01*
G75*
G02*
X156150000Y-61330000I100000J0D01*
G01*
X156350000Y-61330000D01*
G75*
G02*
X156450000Y-61430000I0J-100000D01*
G01*
X156450000Y-62805000D01*
G75*
G02*
X156350000Y-62905000I-100000J0D01*
G01*
G37*
G36*
G01*
X155850000Y-62905000D02*
X155650000Y-62905000D01*
G75*
G02*
X155550000Y-62805000I0J100000D01*
G01*
X155550000Y-61430000D01*
G75*
G02*
X155650000Y-61330000I100000J0D01*
G01*
X155850000Y-61330000D01*
G75*
G02*
X155950000Y-61430000I0J-100000D01*
G01*
X155950000Y-62805000D01*
G75*
G02*
X155850000Y-62905000I-100000J0D01*
G01*
G37*
G36*
G01*
X155350000Y-62905000D02*
X155150000Y-62905000D01*
G75*
G02*
X155050000Y-62805000I0J100000D01*
G01*
X155050000Y-61430000D01*
G75*
G02*
X155150000Y-61330000I100000J0D01*
G01*
X155350000Y-61330000D01*
G75*
G02*
X155450000Y-61430000I0J-100000D01*
G01*
X155450000Y-62805000D01*
G75*
G02*
X155350000Y-62905000I-100000J0D01*
G01*
G37*
G36*
G01*
X154850000Y-62905000D02*
X154650000Y-62905000D01*
G75*
G02*
X154550000Y-62805000I0J100000D01*
G01*
X154550000Y-61430000D01*
G75*
G02*
X154650000Y-61330000I100000J0D01*
G01*
X154850000Y-61330000D01*
G75*
G02*
X154950000Y-61430000I0J-100000D01*
G01*
X154950000Y-62805000D01*
G75*
G02*
X154850000Y-62905000I-100000J0D01*
G01*
G37*
G36*
G01*
X154350000Y-62905000D02*
X154150000Y-62905000D01*
G75*
G02*
X154050000Y-62805000I0J100000D01*
G01*
X154050000Y-61430000D01*
G75*
G02*
X154150000Y-61330000I100000J0D01*
G01*
X154350000Y-61330000D01*
G75*
G02*
X154450000Y-61430000I0J-100000D01*
G01*
X154450000Y-62805000D01*
G75*
G02*
X154350000Y-62905000I-100000J0D01*
G01*
G37*
G36*
G01*
X153525000Y-63730000D02*
X152150000Y-63730000D01*
G75*
G02*
X152050000Y-63630000I0J100000D01*
G01*
X152050000Y-63430000D01*
G75*
G02*
X152150000Y-63330000I100000J0D01*
G01*
X153525000Y-63330000D01*
G75*
G02*
X153625000Y-63430000I0J-100000D01*
G01*
X153625000Y-63630000D01*
G75*
G02*
X153525000Y-63730000I-100000J0D01*
G01*
G37*
G36*
G01*
X153525000Y-64230000D02*
X152150000Y-64230000D01*
G75*
G02*
X152050000Y-64130000I0J100000D01*
G01*
X152050000Y-63930000D01*
G75*
G02*
X152150000Y-63830000I100000J0D01*
G01*
X153525000Y-63830000D01*
G75*
G02*
X153625000Y-63930000I0J-100000D01*
G01*
X153625000Y-64130000D01*
G75*
G02*
X153525000Y-64230000I-100000J0D01*
G01*
G37*
G36*
G01*
X153525000Y-64730000D02*
X152150000Y-64730000D01*
G75*
G02*
X152050000Y-64630000I0J100000D01*
G01*
X152050000Y-64430000D01*
G75*
G02*
X152150000Y-64330000I100000J0D01*
G01*
X153525000Y-64330000D01*
G75*
G02*
X153625000Y-64430000I0J-100000D01*
G01*
X153625000Y-64630000D01*
G75*
G02*
X153525000Y-64730000I-100000J0D01*
G01*
G37*
G36*
G01*
X153525000Y-65230000D02*
X152150000Y-65230000D01*
G75*
G02*
X152050000Y-65130000I0J100000D01*
G01*
X152050000Y-64930000D01*
G75*
G02*
X152150000Y-64830000I100000J0D01*
G01*
X153525000Y-64830000D01*
G75*
G02*
X153625000Y-64930000I0J-100000D01*
G01*
X153625000Y-65130000D01*
G75*
G02*
X153525000Y-65230000I-100000J0D01*
G01*
G37*
G36*
G01*
X153525000Y-65730000D02*
X152150000Y-65730000D01*
G75*
G02*
X152050000Y-65630000I0J100000D01*
G01*
X152050000Y-65430000D01*
G75*
G02*
X152150000Y-65330000I100000J0D01*
G01*
X153525000Y-65330000D01*
G75*
G02*
X153625000Y-65430000I0J-100000D01*
G01*
X153625000Y-65630000D01*
G75*
G02*
X153525000Y-65730000I-100000J0D01*
G01*
G37*
G36*
G01*
X153525000Y-66230000D02*
X152150000Y-66230000D01*
G75*
G02*
X152050000Y-66130000I0J100000D01*
G01*
X152050000Y-65930000D01*
G75*
G02*
X152150000Y-65830000I100000J0D01*
G01*
X153525000Y-65830000D01*
G75*
G02*
X153625000Y-65930000I0J-100000D01*
G01*
X153625000Y-66130000D01*
G75*
G02*
X153525000Y-66230000I-100000J0D01*
G01*
G37*
G36*
G01*
X153525000Y-66730000D02*
X152150000Y-66730000D01*
G75*
G02*
X152050000Y-66630000I0J100000D01*
G01*
X152050000Y-66430000D01*
G75*
G02*
X152150000Y-66330000I100000J0D01*
G01*
X153525000Y-66330000D01*
G75*
G02*
X153625000Y-66430000I0J-100000D01*
G01*
X153625000Y-66630000D01*
G75*
G02*
X153525000Y-66730000I-100000J0D01*
G01*
G37*
G36*
G01*
X153525000Y-67230000D02*
X152150000Y-67230000D01*
G75*
G02*
X152050000Y-67130000I0J100000D01*
G01*
X152050000Y-66930000D01*
G75*
G02*
X152150000Y-66830000I100000J0D01*
G01*
X153525000Y-66830000D01*
G75*
G02*
X153625000Y-66930000I0J-100000D01*
G01*
X153625000Y-67130000D01*
G75*
G02*
X153525000Y-67230000I-100000J0D01*
G01*
G37*
G36*
G01*
X153525000Y-67730000D02*
X152150000Y-67730000D01*
G75*
G02*
X152050000Y-67630000I0J100000D01*
G01*
X152050000Y-67430000D01*
G75*
G02*
X152150000Y-67330000I100000J0D01*
G01*
X153525000Y-67330000D01*
G75*
G02*
X153625000Y-67430000I0J-100000D01*
G01*
X153625000Y-67630000D01*
G75*
G02*
X153525000Y-67730000I-100000J0D01*
G01*
G37*
G36*
G01*
X153525000Y-68230000D02*
X152150000Y-68230000D01*
G75*
G02*
X152050000Y-68130000I0J100000D01*
G01*
X152050000Y-67930000D01*
G75*
G02*
X152150000Y-67830000I100000J0D01*
G01*
X153525000Y-67830000D01*
G75*
G02*
X153625000Y-67930000I0J-100000D01*
G01*
X153625000Y-68130000D01*
G75*
G02*
X153525000Y-68230000I-100000J0D01*
G01*
G37*
G36*
G01*
X153525000Y-68730000D02*
X152150000Y-68730000D01*
G75*
G02*
X152050000Y-68630000I0J100000D01*
G01*
X152050000Y-68430000D01*
G75*
G02*
X152150000Y-68330000I100000J0D01*
G01*
X153525000Y-68330000D01*
G75*
G02*
X153625000Y-68430000I0J-100000D01*
G01*
X153625000Y-68630000D01*
G75*
G02*
X153525000Y-68730000I-100000J0D01*
G01*
G37*
G36*
G01*
X153525000Y-69230000D02*
X152150000Y-69230000D01*
G75*
G02*
X152050000Y-69130000I0J100000D01*
G01*
X152050000Y-68930000D01*
G75*
G02*
X152150000Y-68830000I100000J0D01*
G01*
X153525000Y-68830000D01*
G75*
G02*
X153625000Y-68930000I0J-100000D01*
G01*
X153625000Y-69130000D01*
G75*
G02*
X153525000Y-69230000I-100000J0D01*
G01*
G37*
G36*
G01*
X154350000Y-71230000D02*
X154150000Y-71230000D01*
G75*
G02*
X154050000Y-71130000I0J100000D01*
G01*
X154050000Y-69755000D01*
G75*
G02*
X154150000Y-69655000I100000J0D01*
G01*
X154350000Y-69655000D01*
G75*
G02*
X154450000Y-69755000I0J-100000D01*
G01*
X154450000Y-71130000D01*
G75*
G02*
X154350000Y-71230000I-100000J0D01*
G01*
G37*
G36*
G01*
X154850000Y-71230000D02*
X154650000Y-71230000D01*
G75*
G02*
X154550000Y-71130000I0J100000D01*
G01*
X154550000Y-69755000D01*
G75*
G02*
X154650000Y-69655000I100000J0D01*
G01*
X154850000Y-69655000D01*
G75*
G02*
X154950000Y-69755000I0J-100000D01*
G01*
X154950000Y-71130000D01*
G75*
G02*
X154850000Y-71230000I-100000J0D01*
G01*
G37*
G36*
G01*
X155350000Y-71230000D02*
X155150000Y-71230000D01*
G75*
G02*
X155050000Y-71130000I0J100000D01*
G01*
X155050000Y-69755000D01*
G75*
G02*
X155150000Y-69655000I100000J0D01*
G01*
X155350000Y-69655000D01*
G75*
G02*
X155450000Y-69755000I0J-100000D01*
G01*
X155450000Y-71130000D01*
G75*
G02*
X155350000Y-71230000I-100000J0D01*
G01*
G37*
G36*
G01*
X155850000Y-71230000D02*
X155650000Y-71230000D01*
G75*
G02*
X155550000Y-71130000I0J100000D01*
G01*
X155550000Y-69755000D01*
G75*
G02*
X155650000Y-69655000I100000J0D01*
G01*
X155850000Y-69655000D01*
G75*
G02*
X155950000Y-69755000I0J-100000D01*
G01*
X155950000Y-71130000D01*
G75*
G02*
X155850000Y-71230000I-100000J0D01*
G01*
G37*
G36*
G01*
X156350000Y-71230000D02*
X156150000Y-71230000D01*
G75*
G02*
X156050000Y-71130000I0J100000D01*
G01*
X156050000Y-69755000D01*
G75*
G02*
X156150000Y-69655000I100000J0D01*
G01*
X156350000Y-69655000D01*
G75*
G02*
X156450000Y-69755000I0J-100000D01*
G01*
X156450000Y-71130000D01*
G75*
G02*
X156350000Y-71230000I-100000J0D01*
G01*
G37*
G36*
G01*
X156850000Y-71230000D02*
X156650000Y-71230000D01*
G75*
G02*
X156550000Y-71130000I0J100000D01*
G01*
X156550000Y-69755000D01*
G75*
G02*
X156650000Y-69655000I100000J0D01*
G01*
X156850000Y-69655000D01*
G75*
G02*
X156950000Y-69755000I0J-100000D01*
G01*
X156950000Y-71130000D01*
G75*
G02*
X156850000Y-71230000I-100000J0D01*
G01*
G37*
G36*
G01*
X157350000Y-71230000D02*
X157150000Y-71230000D01*
G75*
G02*
X157050000Y-71130000I0J100000D01*
G01*
X157050000Y-69755000D01*
G75*
G02*
X157150000Y-69655000I100000J0D01*
G01*
X157350000Y-69655000D01*
G75*
G02*
X157450000Y-69755000I0J-100000D01*
G01*
X157450000Y-71130000D01*
G75*
G02*
X157350000Y-71230000I-100000J0D01*
G01*
G37*
G36*
G01*
X157850000Y-71230000D02*
X157650000Y-71230000D01*
G75*
G02*
X157550000Y-71130000I0J100000D01*
G01*
X157550000Y-69755000D01*
G75*
G02*
X157650000Y-69655000I100000J0D01*
G01*
X157850000Y-69655000D01*
G75*
G02*
X157950000Y-69755000I0J-100000D01*
G01*
X157950000Y-71130000D01*
G75*
G02*
X157850000Y-71230000I-100000J0D01*
G01*
G37*
G36*
G01*
X158350000Y-71230000D02*
X158150000Y-71230000D01*
G75*
G02*
X158050000Y-71130000I0J100000D01*
G01*
X158050000Y-69755000D01*
G75*
G02*
X158150000Y-69655000I100000J0D01*
G01*
X158350000Y-69655000D01*
G75*
G02*
X158450000Y-69755000I0J-100000D01*
G01*
X158450000Y-71130000D01*
G75*
G02*
X158350000Y-71230000I-100000J0D01*
G01*
G37*
G36*
G01*
X158850000Y-71230000D02*
X158650000Y-71230000D01*
G75*
G02*
X158550000Y-71130000I0J100000D01*
G01*
X158550000Y-69755000D01*
G75*
G02*
X158650000Y-69655000I100000J0D01*
G01*
X158850000Y-69655000D01*
G75*
G02*
X158950000Y-69755000I0J-100000D01*
G01*
X158950000Y-71130000D01*
G75*
G02*
X158850000Y-71230000I-100000J0D01*
G01*
G37*
G36*
G01*
X159350000Y-71230000D02*
X159150000Y-71230000D01*
G75*
G02*
X159050000Y-71130000I0J100000D01*
G01*
X159050000Y-69755000D01*
G75*
G02*
X159150000Y-69655000I100000J0D01*
G01*
X159350000Y-69655000D01*
G75*
G02*
X159450000Y-69755000I0J-100000D01*
G01*
X159450000Y-71130000D01*
G75*
G02*
X159350000Y-71230000I-100000J0D01*
G01*
G37*
G36*
G01*
X159850000Y-71230000D02*
X159650000Y-71230000D01*
G75*
G02*
X159550000Y-71130000I0J100000D01*
G01*
X159550000Y-69755000D01*
G75*
G02*
X159650000Y-69655000I100000J0D01*
G01*
X159850000Y-69655000D01*
G75*
G02*
X159950000Y-69755000I0J-100000D01*
G01*
X159950000Y-71130000D01*
G75*
G02*
X159850000Y-71230000I-100000J0D01*
G01*
G37*
%TD*%
D14*
%TO.C,J11*%
X191516000Y-77978000D03*
X191516000Y-80518000D03*
X191516000Y-83058000D03*
G36*
G01*
X190616000Y-86445059D02*
X190616000Y-84750941D01*
G75*
G02*
X190668941Y-84698000I52941J0D01*
G01*
X192363059Y-84698000D01*
G75*
G02*
X192416000Y-84750941I0J-52941D01*
G01*
X192416000Y-86445059D01*
G75*
G02*
X192363059Y-86498000I-52941J0D01*
G01*
X190668941Y-86498000D01*
G75*
G02*
X190616000Y-86445059I0J52941D01*
G01*
G37*
%TD*%
%TO.C,J10*%
X180340000Y-97155000D03*
G36*
G01*
X176952941Y-96255000D02*
X178647059Y-96255000D01*
G75*
G02*
X178700000Y-96307941I0J-52941D01*
G01*
X178700000Y-98002059D01*
G75*
G02*
X178647059Y-98055000I-52941J0D01*
G01*
X176952941Y-98055000D01*
G75*
G02*
X176900000Y-98002059I0J52941D01*
G01*
X176900000Y-96307941D01*
G75*
G02*
X176952941Y-96255000I52941J0D01*
G01*
G37*
%TD*%
D22*
%TO.C,J9*%
X147320000Y-49530000D03*
G36*
G01*
X149569329Y-58180440D02*
X145070671Y-58180440D01*
G75*
G02*
X145019560Y-58129329I0J51111D01*
G01*
X145019560Y-53630671D01*
G75*
G02*
X145070671Y-53579560I51111J0D01*
G01*
X149569329Y-53579560D01*
G75*
G02*
X149620440Y-53630671I0J-51111D01*
G01*
X149620440Y-58129329D01*
G75*
G02*
X149569329Y-58180440I-51111J0D01*
G01*
G37*
%TD*%
D23*
%TO.C,H4*%
X266700000Y-111442500D03*
%TD*%
%TO.C,H3*%
X131445000Y-122555000D03*
%TD*%
%TO.C,H2*%
X266700000Y-51117500D03*
%TD*%
%TO.C,H1*%
X131445000Y-40005000D03*
%TD*%
%TO.C,J7*%
G36*
G01*
X235133807Y-117278301D02*
X235133807Y-117278301D01*
G75*
G02*
X235569128Y-118474334I-380356J-815677D01*
G01*
X235569128Y-118474334D01*
G75*
G02*
X234373095Y-118909655I-815677J380356D01*
G01*
X234373095Y-118909655D01*
G75*
G02*
X233937774Y-117713622I380356J815677D01*
G01*
X233937774Y-117713622D01*
G75*
G02*
X235133807Y-117278301I815677J-380356D01*
G01*
G37*
G36*
G01*
X234060356Y-119580323D02*
X234060356Y-119580323D01*
G75*
G02*
X234495677Y-120776356I-380356J-815677D01*
G01*
X234495677Y-120776356D01*
G75*
G02*
X233299644Y-121211677I-815677J380356D01*
G01*
X233299644Y-121211677D01*
G75*
G02*
X232864323Y-120015644I380356J815677D01*
G01*
X232864323Y-120015644D01*
G75*
G02*
X234060356Y-119580323I815677J-380356D01*
G01*
G37*
G36*
G01*
X232831785Y-116204851D02*
X232831785Y-116204851D01*
G75*
G02*
X233267106Y-117400884I-380356J-815677D01*
G01*
X233267106Y-117400884D01*
G75*
G02*
X232071073Y-117836205I-815677J380356D01*
G01*
X232071073Y-117836205D01*
G75*
G02*
X231635752Y-116640172I380356J815677D01*
G01*
X231635752Y-116640172D01*
G75*
G02*
X232831785Y-116204851I815677J-380356D01*
G01*
G37*
G36*
G01*
X231758335Y-118506872D02*
X231758335Y-118506872D01*
G75*
G02*
X232193656Y-119702905I-380356J-815677D01*
G01*
X232193656Y-119702905D01*
G75*
G02*
X230997623Y-120138226I-815677J380356D01*
G01*
X230997623Y-120138226D01*
G75*
G02*
X230562302Y-118942193I380356J815677D01*
G01*
X230562302Y-118942193D01*
G75*
G02*
X231758335Y-118506872I815677J-380356D01*
G01*
G37*
G36*
G01*
X230529763Y-115131400D02*
X230529763Y-115131400D01*
G75*
G02*
X230965084Y-116327433I-380356J-815677D01*
G01*
X230965084Y-116327433D01*
G75*
G02*
X229769051Y-116762754I-815677J380356D01*
G01*
X229769051Y-116762754D01*
G75*
G02*
X229333730Y-115566721I380356J815677D01*
G01*
X229333730Y-115566721D01*
G75*
G02*
X230529763Y-115131400I815677J-380356D01*
G01*
G37*
G36*
G01*
X229456313Y-117433422D02*
X229456313Y-117433422D01*
G75*
G02*
X229891634Y-118629455I-380356J-815677D01*
G01*
X229891634Y-118629455D01*
G75*
G02*
X228695601Y-119064776I-815677J380356D01*
G01*
X228695601Y-119064776D01*
G75*
G02*
X228260280Y-117868743I380356J815677D01*
G01*
X228260280Y-117868743D01*
G75*
G02*
X229456313Y-117433422I815677J-380356D01*
G01*
G37*
G36*
G01*
X228227742Y-114057950D02*
X228227742Y-114057950D01*
G75*
G02*
X228663063Y-115253983I-380356J-815677D01*
G01*
X228663063Y-115253983D01*
G75*
G02*
X227467030Y-115689304I-815677J380356D01*
G01*
X227467030Y-115689304D01*
G75*
G02*
X227031709Y-114493271I380356J815677D01*
G01*
X227031709Y-114493271D01*
G75*
G02*
X228227742Y-114057950I815677J-380356D01*
G01*
G37*
G36*
G01*
X227154291Y-116359972D02*
X227154291Y-116359972D01*
G75*
G02*
X227589612Y-117556005I-380356J-815677D01*
G01*
X227589612Y-117556005D01*
G75*
G02*
X226393579Y-117991326I-815677J380356D01*
G01*
X226393579Y-117991326D01*
G75*
G02*
X225958258Y-116795293I380356J815677D01*
G01*
X225958258Y-116795293D01*
G75*
G02*
X227154291Y-116359972I815677J-380356D01*
G01*
G37*
G36*
G01*
X225925720Y-112984499D02*
X225925720Y-112984499D01*
G75*
G02*
X226361041Y-114180532I-380356J-815677D01*
G01*
X226361041Y-114180532D01*
G75*
G02*
X225165008Y-114615853I-815677J380356D01*
G01*
X225165008Y-114615853D01*
G75*
G02*
X224729687Y-113419820I380356J815677D01*
G01*
X224729687Y-113419820D01*
G75*
G02*
X225925720Y-112984499I815677J-380356D01*
G01*
G37*
G36*
G01*
X224852269Y-115286521D02*
X224852269Y-115286521D01*
G75*
G02*
X225287590Y-116482554I-380356J-815677D01*
G01*
X225287590Y-116482554D01*
G75*
G02*
X224091557Y-116917875I-815677J380356D01*
G01*
X224091557Y-116917875D01*
G75*
G02*
X223656236Y-115721842I380356J815677D01*
G01*
X223656236Y-115721842D01*
G75*
G02*
X224852269Y-115286521I815677J-380356D01*
G01*
G37*
G36*
G01*
X223623698Y-111911049D02*
X223623698Y-111911049D01*
G75*
G02*
X224059019Y-113107082I-380356J-815677D01*
G01*
X224059019Y-113107082D01*
G75*
G02*
X222862986Y-113542403I-815677J380356D01*
G01*
X222862986Y-113542403D01*
G75*
G02*
X222427665Y-112346370I380356J815677D01*
G01*
X222427665Y-112346370D01*
G75*
G02*
X223623698Y-111911049I815677J-380356D01*
G01*
G37*
G36*
G01*
X222550248Y-114213071D02*
X222550248Y-114213071D01*
G75*
G02*
X222985569Y-115409104I-380356J-815677D01*
G01*
X222985569Y-115409104D01*
G75*
G02*
X221789536Y-115844425I-815677J380356D01*
G01*
X221789536Y-115844425D01*
G75*
G02*
X221354215Y-114648392I380356J815677D01*
G01*
X221354215Y-114648392D01*
G75*
G02*
X222550248Y-114213071I815677J-380356D01*
G01*
G37*
G36*
G01*
X221321676Y-110837599D02*
X221321676Y-110837599D01*
G75*
G02*
X221756997Y-112033632I-380356J-815677D01*
G01*
X221756997Y-112033632D01*
G75*
G02*
X220560964Y-112468953I-815677J380356D01*
G01*
X220560964Y-112468953D01*
G75*
G02*
X220125643Y-111272920I380356J815677D01*
G01*
X220125643Y-111272920D01*
G75*
G02*
X221321676Y-110837599I815677J-380356D01*
G01*
G37*
G36*
G01*
X220248226Y-113139620D02*
X220248226Y-113139620D01*
G75*
G02*
X220683547Y-114335653I-380356J-815677D01*
G01*
X220683547Y-114335653D01*
G75*
G02*
X219487514Y-114770974I-815677J380356D01*
G01*
X219487514Y-114770974D01*
G75*
G02*
X219052193Y-113574941I380356J815677D01*
G01*
X219052193Y-113574941D01*
G75*
G02*
X220248226Y-113139620I815677J-380356D01*
G01*
G37*
G36*
G01*
X219019654Y-109764148D02*
X219019654Y-109764148D01*
G75*
G02*
X219454975Y-110960181I-380356J-815677D01*
G01*
X219454975Y-110960181D01*
G75*
G02*
X218258942Y-111395502I-815677J380356D01*
G01*
X218258942Y-111395502D01*
G75*
G02*
X217823621Y-110199469I380356J815677D01*
G01*
X217823621Y-110199469D01*
G75*
G02*
X219019654Y-109764148I815677J-380356D01*
G01*
G37*
G36*
G01*
X217178508Y-111708187D02*
X218713901Y-112424152D01*
G75*
G02*
X218739508Y-112494507I-22374J-47981D01*
G01*
X218023543Y-114029900D01*
G75*
G02*
X217953188Y-114055507I-47981J22374D01*
G01*
X216417795Y-113339542D01*
G75*
G02*
X216392188Y-113269187I22374J47981D01*
G01*
X217108153Y-111733794D01*
G75*
G02*
X217178508Y-111708187I47981J-22374D01*
G01*
G37*
%TD*%
%TO.C,J6*%
G36*
G01*
X207828807Y-117278301D02*
X207828807Y-117278301D01*
G75*
G02*
X208264128Y-118474334I-380356J-815677D01*
G01*
X208264128Y-118474334D01*
G75*
G02*
X207068095Y-118909655I-815677J380356D01*
G01*
X207068095Y-118909655D01*
G75*
G02*
X206632774Y-117713622I380356J815677D01*
G01*
X206632774Y-117713622D01*
G75*
G02*
X207828807Y-117278301I815677J-380356D01*
G01*
G37*
G36*
G01*
X206755356Y-119580323D02*
X206755356Y-119580323D01*
G75*
G02*
X207190677Y-120776356I-380356J-815677D01*
G01*
X207190677Y-120776356D01*
G75*
G02*
X205994644Y-121211677I-815677J380356D01*
G01*
X205994644Y-121211677D01*
G75*
G02*
X205559323Y-120015644I380356J815677D01*
G01*
X205559323Y-120015644D01*
G75*
G02*
X206755356Y-119580323I815677J-380356D01*
G01*
G37*
G36*
G01*
X205526785Y-116204851D02*
X205526785Y-116204851D01*
G75*
G02*
X205962106Y-117400884I-380356J-815677D01*
G01*
X205962106Y-117400884D01*
G75*
G02*
X204766073Y-117836205I-815677J380356D01*
G01*
X204766073Y-117836205D01*
G75*
G02*
X204330752Y-116640172I380356J815677D01*
G01*
X204330752Y-116640172D01*
G75*
G02*
X205526785Y-116204851I815677J-380356D01*
G01*
G37*
G36*
G01*
X204453335Y-118506872D02*
X204453335Y-118506872D01*
G75*
G02*
X204888656Y-119702905I-380356J-815677D01*
G01*
X204888656Y-119702905D01*
G75*
G02*
X203692623Y-120138226I-815677J380356D01*
G01*
X203692623Y-120138226D01*
G75*
G02*
X203257302Y-118942193I380356J815677D01*
G01*
X203257302Y-118942193D01*
G75*
G02*
X204453335Y-118506872I815677J-380356D01*
G01*
G37*
G36*
G01*
X203224763Y-115131400D02*
X203224763Y-115131400D01*
G75*
G02*
X203660084Y-116327433I-380356J-815677D01*
G01*
X203660084Y-116327433D01*
G75*
G02*
X202464051Y-116762754I-815677J380356D01*
G01*
X202464051Y-116762754D01*
G75*
G02*
X202028730Y-115566721I380356J815677D01*
G01*
X202028730Y-115566721D01*
G75*
G02*
X203224763Y-115131400I815677J-380356D01*
G01*
G37*
G36*
G01*
X202151313Y-117433422D02*
X202151313Y-117433422D01*
G75*
G02*
X202586634Y-118629455I-380356J-815677D01*
G01*
X202586634Y-118629455D01*
G75*
G02*
X201390601Y-119064776I-815677J380356D01*
G01*
X201390601Y-119064776D01*
G75*
G02*
X200955280Y-117868743I380356J815677D01*
G01*
X200955280Y-117868743D01*
G75*
G02*
X202151313Y-117433422I815677J-380356D01*
G01*
G37*
G36*
G01*
X200922742Y-114057950D02*
X200922742Y-114057950D01*
G75*
G02*
X201358063Y-115253983I-380356J-815677D01*
G01*
X201358063Y-115253983D01*
G75*
G02*
X200162030Y-115689304I-815677J380356D01*
G01*
X200162030Y-115689304D01*
G75*
G02*
X199726709Y-114493271I380356J815677D01*
G01*
X199726709Y-114493271D01*
G75*
G02*
X200922742Y-114057950I815677J-380356D01*
G01*
G37*
G36*
G01*
X199849291Y-116359972D02*
X199849291Y-116359972D01*
G75*
G02*
X200284612Y-117556005I-380356J-815677D01*
G01*
X200284612Y-117556005D01*
G75*
G02*
X199088579Y-117991326I-815677J380356D01*
G01*
X199088579Y-117991326D01*
G75*
G02*
X198653258Y-116795293I380356J815677D01*
G01*
X198653258Y-116795293D01*
G75*
G02*
X199849291Y-116359972I815677J-380356D01*
G01*
G37*
G36*
G01*
X198620720Y-112984499D02*
X198620720Y-112984499D01*
G75*
G02*
X199056041Y-114180532I-380356J-815677D01*
G01*
X199056041Y-114180532D01*
G75*
G02*
X197860008Y-114615853I-815677J380356D01*
G01*
X197860008Y-114615853D01*
G75*
G02*
X197424687Y-113419820I380356J815677D01*
G01*
X197424687Y-113419820D01*
G75*
G02*
X198620720Y-112984499I815677J-380356D01*
G01*
G37*
G36*
G01*
X197547269Y-115286521D02*
X197547269Y-115286521D01*
G75*
G02*
X197982590Y-116482554I-380356J-815677D01*
G01*
X197982590Y-116482554D01*
G75*
G02*
X196786557Y-116917875I-815677J380356D01*
G01*
X196786557Y-116917875D01*
G75*
G02*
X196351236Y-115721842I380356J815677D01*
G01*
X196351236Y-115721842D01*
G75*
G02*
X197547269Y-115286521I815677J-380356D01*
G01*
G37*
G36*
G01*
X196318698Y-111911049D02*
X196318698Y-111911049D01*
G75*
G02*
X196754019Y-113107082I-380356J-815677D01*
G01*
X196754019Y-113107082D01*
G75*
G02*
X195557986Y-113542403I-815677J380356D01*
G01*
X195557986Y-113542403D01*
G75*
G02*
X195122665Y-112346370I380356J815677D01*
G01*
X195122665Y-112346370D01*
G75*
G02*
X196318698Y-111911049I815677J-380356D01*
G01*
G37*
G36*
G01*
X195245248Y-114213071D02*
X195245248Y-114213071D01*
G75*
G02*
X195680569Y-115409104I-380356J-815677D01*
G01*
X195680569Y-115409104D01*
G75*
G02*
X194484536Y-115844425I-815677J380356D01*
G01*
X194484536Y-115844425D01*
G75*
G02*
X194049215Y-114648392I380356J815677D01*
G01*
X194049215Y-114648392D01*
G75*
G02*
X195245248Y-114213071I815677J-380356D01*
G01*
G37*
G36*
G01*
X194016676Y-110837599D02*
X194016676Y-110837599D01*
G75*
G02*
X194451997Y-112033632I-380356J-815677D01*
G01*
X194451997Y-112033632D01*
G75*
G02*
X193255964Y-112468953I-815677J380356D01*
G01*
X193255964Y-112468953D01*
G75*
G02*
X192820643Y-111272920I380356J815677D01*
G01*
X192820643Y-111272920D01*
G75*
G02*
X194016676Y-110837599I815677J-380356D01*
G01*
G37*
G36*
G01*
X192943226Y-113139620D02*
X192943226Y-113139620D01*
G75*
G02*
X193378547Y-114335653I-380356J-815677D01*
G01*
X193378547Y-114335653D01*
G75*
G02*
X192182514Y-114770974I-815677J380356D01*
G01*
X192182514Y-114770974D01*
G75*
G02*
X191747193Y-113574941I380356J815677D01*
G01*
X191747193Y-113574941D01*
G75*
G02*
X192943226Y-113139620I815677J-380356D01*
G01*
G37*
G36*
G01*
X191714654Y-109764148D02*
X191714654Y-109764148D01*
G75*
G02*
X192149975Y-110960181I-380356J-815677D01*
G01*
X192149975Y-110960181D01*
G75*
G02*
X190953942Y-111395502I-815677J380356D01*
G01*
X190953942Y-111395502D01*
G75*
G02*
X190518621Y-110199469I380356J815677D01*
G01*
X190518621Y-110199469D01*
G75*
G02*
X191714654Y-109764148I815677J-380356D01*
G01*
G37*
G36*
G01*
X189873508Y-111708187D02*
X191408901Y-112424152D01*
G75*
G02*
X191434508Y-112494507I-22374J-47981D01*
G01*
X190718543Y-114029900D01*
G75*
G02*
X190648188Y-114055507I-47981J22374D01*
G01*
X189112795Y-113339542D01*
G75*
G02*
X189087188Y-113269187I22374J47981D01*
G01*
X189803153Y-111733794D01*
G75*
G02*
X189873508Y-111708187I47981J-22374D01*
G01*
G37*
%TD*%
%TO.C,J5*%
G36*
G01*
X180523807Y-117278301D02*
X180523807Y-117278301D01*
G75*
G02*
X180959128Y-118474334I-380356J-815677D01*
G01*
X180959128Y-118474334D01*
G75*
G02*
X179763095Y-118909655I-815677J380356D01*
G01*
X179763095Y-118909655D01*
G75*
G02*
X179327774Y-117713622I380356J815677D01*
G01*
X179327774Y-117713622D01*
G75*
G02*
X180523807Y-117278301I815677J-380356D01*
G01*
G37*
G36*
G01*
X179450356Y-119580323D02*
X179450356Y-119580323D01*
G75*
G02*
X179885677Y-120776356I-380356J-815677D01*
G01*
X179885677Y-120776356D01*
G75*
G02*
X178689644Y-121211677I-815677J380356D01*
G01*
X178689644Y-121211677D01*
G75*
G02*
X178254323Y-120015644I380356J815677D01*
G01*
X178254323Y-120015644D01*
G75*
G02*
X179450356Y-119580323I815677J-380356D01*
G01*
G37*
G36*
G01*
X178221785Y-116204851D02*
X178221785Y-116204851D01*
G75*
G02*
X178657106Y-117400884I-380356J-815677D01*
G01*
X178657106Y-117400884D01*
G75*
G02*
X177461073Y-117836205I-815677J380356D01*
G01*
X177461073Y-117836205D01*
G75*
G02*
X177025752Y-116640172I380356J815677D01*
G01*
X177025752Y-116640172D01*
G75*
G02*
X178221785Y-116204851I815677J-380356D01*
G01*
G37*
G36*
G01*
X177148335Y-118506872D02*
X177148335Y-118506872D01*
G75*
G02*
X177583656Y-119702905I-380356J-815677D01*
G01*
X177583656Y-119702905D01*
G75*
G02*
X176387623Y-120138226I-815677J380356D01*
G01*
X176387623Y-120138226D01*
G75*
G02*
X175952302Y-118942193I380356J815677D01*
G01*
X175952302Y-118942193D01*
G75*
G02*
X177148335Y-118506872I815677J-380356D01*
G01*
G37*
G36*
G01*
X175919763Y-115131400D02*
X175919763Y-115131400D01*
G75*
G02*
X176355084Y-116327433I-380356J-815677D01*
G01*
X176355084Y-116327433D01*
G75*
G02*
X175159051Y-116762754I-815677J380356D01*
G01*
X175159051Y-116762754D01*
G75*
G02*
X174723730Y-115566721I380356J815677D01*
G01*
X174723730Y-115566721D01*
G75*
G02*
X175919763Y-115131400I815677J-380356D01*
G01*
G37*
G36*
G01*
X174846313Y-117433422D02*
X174846313Y-117433422D01*
G75*
G02*
X175281634Y-118629455I-380356J-815677D01*
G01*
X175281634Y-118629455D01*
G75*
G02*
X174085601Y-119064776I-815677J380356D01*
G01*
X174085601Y-119064776D01*
G75*
G02*
X173650280Y-117868743I380356J815677D01*
G01*
X173650280Y-117868743D01*
G75*
G02*
X174846313Y-117433422I815677J-380356D01*
G01*
G37*
G36*
G01*
X173617742Y-114057950D02*
X173617742Y-114057950D01*
G75*
G02*
X174053063Y-115253983I-380356J-815677D01*
G01*
X174053063Y-115253983D01*
G75*
G02*
X172857030Y-115689304I-815677J380356D01*
G01*
X172857030Y-115689304D01*
G75*
G02*
X172421709Y-114493271I380356J815677D01*
G01*
X172421709Y-114493271D01*
G75*
G02*
X173617742Y-114057950I815677J-380356D01*
G01*
G37*
G36*
G01*
X172544291Y-116359972D02*
X172544291Y-116359972D01*
G75*
G02*
X172979612Y-117556005I-380356J-815677D01*
G01*
X172979612Y-117556005D01*
G75*
G02*
X171783579Y-117991326I-815677J380356D01*
G01*
X171783579Y-117991326D01*
G75*
G02*
X171348258Y-116795293I380356J815677D01*
G01*
X171348258Y-116795293D01*
G75*
G02*
X172544291Y-116359972I815677J-380356D01*
G01*
G37*
G36*
G01*
X171315720Y-112984499D02*
X171315720Y-112984499D01*
G75*
G02*
X171751041Y-114180532I-380356J-815677D01*
G01*
X171751041Y-114180532D01*
G75*
G02*
X170555008Y-114615853I-815677J380356D01*
G01*
X170555008Y-114615853D01*
G75*
G02*
X170119687Y-113419820I380356J815677D01*
G01*
X170119687Y-113419820D01*
G75*
G02*
X171315720Y-112984499I815677J-380356D01*
G01*
G37*
G36*
G01*
X170242269Y-115286521D02*
X170242269Y-115286521D01*
G75*
G02*
X170677590Y-116482554I-380356J-815677D01*
G01*
X170677590Y-116482554D01*
G75*
G02*
X169481557Y-116917875I-815677J380356D01*
G01*
X169481557Y-116917875D01*
G75*
G02*
X169046236Y-115721842I380356J815677D01*
G01*
X169046236Y-115721842D01*
G75*
G02*
X170242269Y-115286521I815677J-380356D01*
G01*
G37*
G36*
G01*
X169013698Y-111911049D02*
X169013698Y-111911049D01*
G75*
G02*
X169449019Y-113107082I-380356J-815677D01*
G01*
X169449019Y-113107082D01*
G75*
G02*
X168252986Y-113542403I-815677J380356D01*
G01*
X168252986Y-113542403D01*
G75*
G02*
X167817665Y-112346370I380356J815677D01*
G01*
X167817665Y-112346370D01*
G75*
G02*
X169013698Y-111911049I815677J-380356D01*
G01*
G37*
G36*
G01*
X167940248Y-114213071D02*
X167940248Y-114213071D01*
G75*
G02*
X168375569Y-115409104I-380356J-815677D01*
G01*
X168375569Y-115409104D01*
G75*
G02*
X167179536Y-115844425I-815677J380356D01*
G01*
X167179536Y-115844425D01*
G75*
G02*
X166744215Y-114648392I380356J815677D01*
G01*
X166744215Y-114648392D01*
G75*
G02*
X167940248Y-114213071I815677J-380356D01*
G01*
G37*
G36*
G01*
X166711676Y-110837599D02*
X166711676Y-110837599D01*
G75*
G02*
X167146997Y-112033632I-380356J-815677D01*
G01*
X167146997Y-112033632D01*
G75*
G02*
X165950964Y-112468953I-815677J380356D01*
G01*
X165950964Y-112468953D01*
G75*
G02*
X165515643Y-111272920I380356J815677D01*
G01*
X165515643Y-111272920D01*
G75*
G02*
X166711676Y-110837599I815677J-380356D01*
G01*
G37*
G36*
G01*
X165638226Y-113139620D02*
X165638226Y-113139620D01*
G75*
G02*
X166073547Y-114335653I-380356J-815677D01*
G01*
X166073547Y-114335653D01*
G75*
G02*
X164877514Y-114770974I-815677J380356D01*
G01*
X164877514Y-114770974D01*
G75*
G02*
X164442193Y-113574941I380356J815677D01*
G01*
X164442193Y-113574941D01*
G75*
G02*
X165638226Y-113139620I815677J-380356D01*
G01*
G37*
G36*
G01*
X164409654Y-109764148D02*
X164409654Y-109764148D01*
G75*
G02*
X164844975Y-110960181I-380356J-815677D01*
G01*
X164844975Y-110960181D01*
G75*
G02*
X163648942Y-111395502I-815677J380356D01*
G01*
X163648942Y-111395502D01*
G75*
G02*
X163213621Y-110199469I380356J815677D01*
G01*
X163213621Y-110199469D01*
G75*
G02*
X164409654Y-109764148I815677J-380356D01*
G01*
G37*
G36*
G01*
X162568508Y-111708187D02*
X164103901Y-112424152D01*
G75*
G02*
X164129508Y-112494507I-22374J-47981D01*
G01*
X163413543Y-114029900D01*
G75*
G02*
X163343188Y-114055507I-47981J22374D01*
G01*
X161807795Y-113339542D01*
G75*
G02*
X161782188Y-113269187I22374J47981D01*
G01*
X162498153Y-111733794D01*
G75*
G02*
X162568508Y-111708187I47981J-22374D01*
G01*
G37*
%TD*%
%TO.C,J4*%
G36*
G01*
X164409654Y-52795851D02*
X164409654Y-52795851D01*
G75*
G02*
X163213621Y-52360530I-380356J815677D01*
G01*
X163213621Y-52360530D01*
G75*
G02*
X163648942Y-51164497I815677J380356D01*
G01*
X163648942Y-51164497D01*
G75*
G02*
X164844975Y-51599818I380356J-815677D01*
G01*
X164844975Y-51599818D01*
G75*
G02*
X164409654Y-52795851I-815677J-380356D01*
G01*
G37*
G36*
G01*
X163336204Y-50493830D02*
X163336204Y-50493830D01*
G75*
G02*
X162140171Y-50058509I-380356J815677D01*
G01*
X162140171Y-50058509D01*
G75*
G02*
X162575492Y-48862476I815677J380356D01*
G01*
X162575492Y-48862476D01*
G75*
G02*
X163771525Y-49297797I380356J-815677D01*
G01*
X163771525Y-49297797D01*
G75*
G02*
X163336204Y-50493830I-815677J-380356D01*
G01*
G37*
G36*
G01*
X166711676Y-51722401D02*
X166711676Y-51722401D01*
G75*
G02*
X165515643Y-51287080I-380356J815677D01*
G01*
X165515643Y-51287080D01*
G75*
G02*
X165950964Y-50091047I815677J380356D01*
G01*
X165950964Y-50091047D01*
G75*
G02*
X167146997Y-50526368I380356J-815677D01*
G01*
X167146997Y-50526368D01*
G75*
G02*
X166711676Y-51722401I-815677J-380356D01*
G01*
G37*
G36*
G01*
X165638225Y-49420379D02*
X165638225Y-49420379D01*
G75*
G02*
X164442192Y-48985058I-380356J815677D01*
G01*
X164442192Y-48985058D01*
G75*
G02*
X164877513Y-47789025I815677J380356D01*
G01*
X164877513Y-47789025D01*
G75*
G02*
X166073546Y-48224346I380356J-815677D01*
G01*
X166073546Y-48224346D01*
G75*
G02*
X165638225Y-49420379I-815677J-380356D01*
G01*
G37*
G36*
G01*
X169013697Y-50648951D02*
X169013697Y-50648951D01*
G75*
G02*
X167817664Y-50213630I-380356J815677D01*
G01*
X167817664Y-50213630D01*
G75*
G02*
X168252985Y-49017597I815677J380356D01*
G01*
X168252985Y-49017597D01*
G75*
G02*
X169449018Y-49452918I380356J-815677D01*
G01*
X169449018Y-49452918D01*
G75*
G02*
X169013697Y-50648951I-815677J-380356D01*
G01*
G37*
G36*
G01*
X167940247Y-48346929D02*
X167940247Y-48346929D01*
G75*
G02*
X166744214Y-47911608I-380356J815677D01*
G01*
X166744214Y-47911608D01*
G75*
G02*
X167179535Y-46715575I815677J380356D01*
G01*
X167179535Y-46715575D01*
G75*
G02*
X168375568Y-47150896I380356J-815677D01*
G01*
X168375568Y-47150896D01*
G75*
G02*
X167940247Y-48346929I-815677J-380356D01*
G01*
G37*
G36*
G01*
X171315719Y-49575500D02*
X171315719Y-49575500D01*
G75*
G02*
X170119686Y-49140179I-380356J815677D01*
G01*
X170119686Y-49140179D01*
G75*
G02*
X170555007Y-47944146I815677J380356D01*
G01*
X170555007Y-47944146D01*
G75*
G02*
X171751040Y-48379467I380356J-815677D01*
G01*
X171751040Y-48379467D01*
G75*
G02*
X171315719Y-49575500I-815677J-380356D01*
G01*
G37*
G36*
G01*
X170242269Y-47273479D02*
X170242269Y-47273479D01*
G75*
G02*
X169046236Y-46838158I-380356J815677D01*
G01*
X169046236Y-46838158D01*
G75*
G02*
X169481557Y-45642125I815677J380356D01*
G01*
X169481557Y-45642125D01*
G75*
G02*
X170677590Y-46077446I380356J-815677D01*
G01*
X170677590Y-46077446D01*
G75*
G02*
X170242269Y-47273479I-815677J-380356D01*
G01*
G37*
G36*
G01*
X173617741Y-48502050D02*
X173617741Y-48502050D01*
G75*
G02*
X172421708Y-48066729I-380356J815677D01*
G01*
X172421708Y-48066729D01*
G75*
G02*
X172857029Y-46870696I815677J380356D01*
G01*
X172857029Y-46870696D01*
G75*
G02*
X174053062Y-47306017I380356J-815677D01*
G01*
X174053062Y-47306017D01*
G75*
G02*
X173617741Y-48502050I-815677J-380356D01*
G01*
G37*
G36*
G01*
X172544291Y-46200028D02*
X172544291Y-46200028D01*
G75*
G02*
X171348258Y-45764707I-380356J815677D01*
G01*
X171348258Y-45764707D01*
G75*
G02*
X171783579Y-44568674I815677J380356D01*
G01*
X171783579Y-44568674D01*
G75*
G02*
X172979612Y-45003995I380356J-815677D01*
G01*
X172979612Y-45003995D01*
G75*
G02*
X172544291Y-46200028I-815677J-380356D01*
G01*
G37*
G36*
G01*
X175919763Y-47428600D02*
X175919763Y-47428600D01*
G75*
G02*
X174723730Y-46993279I-380356J815677D01*
G01*
X174723730Y-46993279D01*
G75*
G02*
X175159051Y-45797246I815677J380356D01*
G01*
X175159051Y-45797246D01*
G75*
G02*
X176355084Y-46232567I380356J-815677D01*
G01*
X176355084Y-46232567D01*
G75*
G02*
X175919763Y-47428600I-815677J-380356D01*
G01*
G37*
G36*
G01*
X174846312Y-45126578D02*
X174846312Y-45126578D01*
G75*
G02*
X173650279Y-44691257I-380356J815677D01*
G01*
X173650279Y-44691257D01*
G75*
G02*
X174085600Y-43495224I815677J380356D01*
G01*
X174085600Y-43495224D01*
G75*
G02*
X175281633Y-43930545I380356J-815677D01*
G01*
X175281633Y-43930545D01*
G75*
G02*
X174846312Y-45126578I-815677J-380356D01*
G01*
G37*
G36*
G01*
X178221785Y-46355149D02*
X178221785Y-46355149D01*
G75*
G02*
X177025752Y-45919828I-380356J815677D01*
G01*
X177025752Y-45919828D01*
G75*
G02*
X177461073Y-44723795I815677J380356D01*
G01*
X177461073Y-44723795D01*
G75*
G02*
X178657106Y-45159116I380356J-815677D01*
G01*
X178657106Y-45159116D01*
G75*
G02*
X178221785Y-46355149I-815677J-380356D01*
G01*
G37*
G36*
G01*
X177148334Y-44053127D02*
X177148334Y-44053127D01*
G75*
G02*
X175952301Y-43617806I-380356J815677D01*
G01*
X175952301Y-43617806D01*
G75*
G02*
X176387622Y-42421773I815677J380356D01*
G01*
X176387622Y-42421773D01*
G75*
G02*
X177583655Y-42857094I380356J-815677D01*
G01*
X177583655Y-42857094D01*
G75*
G02*
X177148334Y-44053127I-815677J-380356D01*
G01*
G37*
G36*
G01*
X180523806Y-45281699D02*
X180523806Y-45281699D01*
G75*
G02*
X179327773Y-44846378I-380356J815677D01*
G01*
X179327773Y-44846378D01*
G75*
G02*
X179763094Y-43650345I815677J380356D01*
G01*
X179763094Y-43650345D01*
G75*
G02*
X180959127Y-44085666I380356J-815677D01*
G01*
X180959127Y-44085666D01*
G75*
G02*
X180523806Y-45281699I-815677J-380356D01*
G01*
G37*
G36*
G01*
X180218053Y-42621695D02*
X178682660Y-43337660D01*
G75*
G02*
X178612305Y-43312053I-22374J47981D01*
G01*
X177896340Y-41776660D01*
G75*
G02*
X177921947Y-41706305I47981J22374D01*
G01*
X179457340Y-40990340D01*
G75*
G02*
X179527695Y-41015947I22374J-47981D01*
G01*
X180243660Y-42551340D01*
G75*
G02*
X180218053Y-42621695I-47981J-22374D01*
G01*
G37*
%TD*%
%TO.C,J3*%
G36*
G01*
X191714654Y-52795851D02*
X191714654Y-52795851D01*
G75*
G02*
X190518621Y-52360530I-380356J815677D01*
G01*
X190518621Y-52360530D01*
G75*
G02*
X190953942Y-51164497I815677J380356D01*
G01*
X190953942Y-51164497D01*
G75*
G02*
X192149975Y-51599818I380356J-815677D01*
G01*
X192149975Y-51599818D01*
G75*
G02*
X191714654Y-52795851I-815677J-380356D01*
G01*
G37*
G36*
G01*
X190641204Y-50493830D02*
X190641204Y-50493830D01*
G75*
G02*
X189445171Y-50058509I-380356J815677D01*
G01*
X189445171Y-50058509D01*
G75*
G02*
X189880492Y-48862476I815677J380356D01*
G01*
X189880492Y-48862476D01*
G75*
G02*
X191076525Y-49297797I380356J-815677D01*
G01*
X191076525Y-49297797D01*
G75*
G02*
X190641204Y-50493830I-815677J-380356D01*
G01*
G37*
G36*
G01*
X194016676Y-51722401D02*
X194016676Y-51722401D01*
G75*
G02*
X192820643Y-51287080I-380356J815677D01*
G01*
X192820643Y-51287080D01*
G75*
G02*
X193255964Y-50091047I815677J380356D01*
G01*
X193255964Y-50091047D01*
G75*
G02*
X194451997Y-50526368I380356J-815677D01*
G01*
X194451997Y-50526368D01*
G75*
G02*
X194016676Y-51722401I-815677J-380356D01*
G01*
G37*
G36*
G01*
X192943225Y-49420379D02*
X192943225Y-49420379D01*
G75*
G02*
X191747192Y-48985058I-380356J815677D01*
G01*
X191747192Y-48985058D01*
G75*
G02*
X192182513Y-47789025I815677J380356D01*
G01*
X192182513Y-47789025D01*
G75*
G02*
X193378546Y-48224346I380356J-815677D01*
G01*
X193378546Y-48224346D01*
G75*
G02*
X192943225Y-49420379I-815677J-380356D01*
G01*
G37*
G36*
G01*
X196318697Y-50648951D02*
X196318697Y-50648951D01*
G75*
G02*
X195122664Y-50213630I-380356J815677D01*
G01*
X195122664Y-50213630D01*
G75*
G02*
X195557985Y-49017597I815677J380356D01*
G01*
X195557985Y-49017597D01*
G75*
G02*
X196754018Y-49452918I380356J-815677D01*
G01*
X196754018Y-49452918D01*
G75*
G02*
X196318697Y-50648951I-815677J-380356D01*
G01*
G37*
G36*
G01*
X195245247Y-48346929D02*
X195245247Y-48346929D01*
G75*
G02*
X194049214Y-47911608I-380356J815677D01*
G01*
X194049214Y-47911608D01*
G75*
G02*
X194484535Y-46715575I815677J380356D01*
G01*
X194484535Y-46715575D01*
G75*
G02*
X195680568Y-47150896I380356J-815677D01*
G01*
X195680568Y-47150896D01*
G75*
G02*
X195245247Y-48346929I-815677J-380356D01*
G01*
G37*
G36*
G01*
X198620719Y-49575500D02*
X198620719Y-49575500D01*
G75*
G02*
X197424686Y-49140179I-380356J815677D01*
G01*
X197424686Y-49140179D01*
G75*
G02*
X197860007Y-47944146I815677J380356D01*
G01*
X197860007Y-47944146D01*
G75*
G02*
X199056040Y-48379467I380356J-815677D01*
G01*
X199056040Y-48379467D01*
G75*
G02*
X198620719Y-49575500I-815677J-380356D01*
G01*
G37*
G36*
G01*
X197547269Y-47273479D02*
X197547269Y-47273479D01*
G75*
G02*
X196351236Y-46838158I-380356J815677D01*
G01*
X196351236Y-46838158D01*
G75*
G02*
X196786557Y-45642125I815677J380356D01*
G01*
X196786557Y-45642125D01*
G75*
G02*
X197982590Y-46077446I380356J-815677D01*
G01*
X197982590Y-46077446D01*
G75*
G02*
X197547269Y-47273479I-815677J-380356D01*
G01*
G37*
G36*
G01*
X200922741Y-48502050D02*
X200922741Y-48502050D01*
G75*
G02*
X199726708Y-48066729I-380356J815677D01*
G01*
X199726708Y-48066729D01*
G75*
G02*
X200162029Y-46870696I815677J380356D01*
G01*
X200162029Y-46870696D01*
G75*
G02*
X201358062Y-47306017I380356J-815677D01*
G01*
X201358062Y-47306017D01*
G75*
G02*
X200922741Y-48502050I-815677J-380356D01*
G01*
G37*
G36*
G01*
X199849291Y-46200028D02*
X199849291Y-46200028D01*
G75*
G02*
X198653258Y-45764707I-380356J815677D01*
G01*
X198653258Y-45764707D01*
G75*
G02*
X199088579Y-44568674I815677J380356D01*
G01*
X199088579Y-44568674D01*
G75*
G02*
X200284612Y-45003995I380356J-815677D01*
G01*
X200284612Y-45003995D01*
G75*
G02*
X199849291Y-46200028I-815677J-380356D01*
G01*
G37*
G36*
G01*
X203224763Y-47428600D02*
X203224763Y-47428600D01*
G75*
G02*
X202028730Y-46993279I-380356J815677D01*
G01*
X202028730Y-46993279D01*
G75*
G02*
X202464051Y-45797246I815677J380356D01*
G01*
X202464051Y-45797246D01*
G75*
G02*
X203660084Y-46232567I380356J-815677D01*
G01*
X203660084Y-46232567D01*
G75*
G02*
X203224763Y-47428600I-815677J-380356D01*
G01*
G37*
G36*
G01*
X202151312Y-45126578D02*
X202151312Y-45126578D01*
G75*
G02*
X200955279Y-44691257I-380356J815677D01*
G01*
X200955279Y-44691257D01*
G75*
G02*
X201390600Y-43495224I815677J380356D01*
G01*
X201390600Y-43495224D01*
G75*
G02*
X202586633Y-43930545I380356J-815677D01*
G01*
X202586633Y-43930545D01*
G75*
G02*
X202151312Y-45126578I-815677J-380356D01*
G01*
G37*
G36*
G01*
X205526785Y-46355149D02*
X205526785Y-46355149D01*
G75*
G02*
X204330752Y-45919828I-380356J815677D01*
G01*
X204330752Y-45919828D01*
G75*
G02*
X204766073Y-44723795I815677J380356D01*
G01*
X204766073Y-44723795D01*
G75*
G02*
X205962106Y-45159116I380356J-815677D01*
G01*
X205962106Y-45159116D01*
G75*
G02*
X205526785Y-46355149I-815677J-380356D01*
G01*
G37*
G36*
G01*
X204453334Y-44053127D02*
X204453334Y-44053127D01*
G75*
G02*
X203257301Y-43617806I-380356J815677D01*
G01*
X203257301Y-43617806D01*
G75*
G02*
X203692622Y-42421773I815677J380356D01*
G01*
X203692622Y-42421773D01*
G75*
G02*
X204888655Y-42857094I380356J-815677D01*
G01*
X204888655Y-42857094D01*
G75*
G02*
X204453334Y-44053127I-815677J-380356D01*
G01*
G37*
G36*
G01*
X207828806Y-45281699D02*
X207828806Y-45281699D01*
G75*
G02*
X206632773Y-44846378I-380356J815677D01*
G01*
X206632773Y-44846378D01*
G75*
G02*
X207068094Y-43650345I815677J380356D01*
G01*
X207068094Y-43650345D01*
G75*
G02*
X208264127Y-44085666I380356J-815677D01*
G01*
X208264127Y-44085666D01*
G75*
G02*
X207828806Y-45281699I-815677J-380356D01*
G01*
G37*
G36*
G01*
X207523053Y-42621695D02*
X205987660Y-43337660D01*
G75*
G02*
X205917305Y-43312053I-22374J47981D01*
G01*
X205201340Y-41776660D01*
G75*
G02*
X205226947Y-41706305I47981J22374D01*
G01*
X206762340Y-40990340D01*
G75*
G02*
X206832695Y-41015947I22374J-47981D01*
G01*
X207548660Y-42551340D01*
G75*
G02*
X207523053Y-42621695I-47981J-22374D01*
G01*
G37*
%TD*%
%TO.C,J2*%
G36*
G01*
X219019654Y-52795851D02*
X219019654Y-52795851D01*
G75*
G02*
X217823621Y-52360530I-380356J815677D01*
G01*
X217823621Y-52360530D01*
G75*
G02*
X218258942Y-51164497I815677J380356D01*
G01*
X218258942Y-51164497D01*
G75*
G02*
X219454975Y-51599818I380356J-815677D01*
G01*
X219454975Y-51599818D01*
G75*
G02*
X219019654Y-52795851I-815677J-380356D01*
G01*
G37*
G36*
G01*
X217946204Y-50493830D02*
X217946204Y-50493830D01*
G75*
G02*
X216750171Y-50058509I-380356J815677D01*
G01*
X216750171Y-50058509D01*
G75*
G02*
X217185492Y-48862476I815677J380356D01*
G01*
X217185492Y-48862476D01*
G75*
G02*
X218381525Y-49297797I380356J-815677D01*
G01*
X218381525Y-49297797D01*
G75*
G02*
X217946204Y-50493830I-815677J-380356D01*
G01*
G37*
G36*
G01*
X221321676Y-51722401D02*
X221321676Y-51722401D01*
G75*
G02*
X220125643Y-51287080I-380356J815677D01*
G01*
X220125643Y-51287080D01*
G75*
G02*
X220560964Y-50091047I815677J380356D01*
G01*
X220560964Y-50091047D01*
G75*
G02*
X221756997Y-50526368I380356J-815677D01*
G01*
X221756997Y-50526368D01*
G75*
G02*
X221321676Y-51722401I-815677J-380356D01*
G01*
G37*
G36*
G01*
X220248225Y-49420379D02*
X220248225Y-49420379D01*
G75*
G02*
X219052192Y-48985058I-380356J815677D01*
G01*
X219052192Y-48985058D01*
G75*
G02*
X219487513Y-47789025I815677J380356D01*
G01*
X219487513Y-47789025D01*
G75*
G02*
X220683546Y-48224346I380356J-815677D01*
G01*
X220683546Y-48224346D01*
G75*
G02*
X220248225Y-49420379I-815677J-380356D01*
G01*
G37*
G36*
G01*
X223623697Y-50648951D02*
X223623697Y-50648951D01*
G75*
G02*
X222427664Y-50213630I-380356J815677D01*
G01*
X222427664Y-50213630D01*
G75*
G02*
X222862985Y-49017597I815677J380356D01*
G01*
X222862985Y-49017597D01*
G75*
G02*
X224059018Y-49452918I380356J-815677D01*
G01*
X224059018Y-49452918D01*
G75*
G02*
X223623697Y-50648951I-815677J-380356D01*
G01*
G37*
G36*
G01*
X222550247Y-48346929D02*
X222550247Y-48346929D01*
G75*
G02*
X221354214Y-47911608I-380356J815677D01*
G01*
X221354214Y-47911608D01*
G75*
G02*
X221789535Y-46715575I815677J380356D01*
G01*
X221789535Y-46715575D01*
G75*
G02*
X222985568Y-47150896I380356J-815677D01*
G01*
X222985568Y-47150896D01*
G75*
G02*
X222550247Y-48346929I-815677J-380356D01*
G01*
G37*
G36*
G01*
X225925719Y-49575500D02*
X225925719Y-49575500D01*
G75*
G02*
X224729686Y-49140179I-380356J815677D01*
G01*
X224729686Y-49140179D01*
G75*
G02*
X225165007Y-47944146I815677J380356D01*
G01*
X225165007Y-47944146D01*
G75*
G02*
X226361040Y-48379467I380356J-815677D01*
G01*
X226361040Y-48379467D01*
G75*
G02*
X225925719Y-49575500I-815677J-380356D01*
G01*
G37*
G36*
G01*
X224852269Y-47273479D02*
X224852269Y-47273479D01*
G75*
G02*
X223656236Y-46838158I-380356J815677D01*
G01*
X223656236Y-46838158D01*
G75*
G02*
X224091557Y-45642125I815677J380356D01*
G01*
X224091557Y-45642125D01*
G75*
G02*
X225287590Y-46077446I380356J-815677D01*
G01*
X225287590Y-46077446D01*
G75*
G02*
X224852269Y-47273479I-815677J-380356D01*
G01*
G37*
G36*
G01*
X228227741Y-48502050D02*
X228227741Y-48502050D01*
G75*
G02*
X227031708Y-48066729I-380356J815677D01*
G01*
X227031708Y-48066729D01*
G75*
G02*
X227467029Y-46870696I815677J380356D01*
G01*
X227467029Y-46870696D01*
G75*
G02*
X228663062Y-47306017I380356J-815677D01*
G01*
X228663062Y-47306017D01*
G75*
G02*
X228227741Y-48502050I-815677J-380356D01*
G01*
G37*
G36*
G01*
X227154291Y-46200028D02*
X227154291Y-46200028D01*
G75*
G02*
X225958258Y-45764707I-380356J815677D01*
G01*
X225958258Y-45764707D01*
G75*
G02*
X226393579Y-44568674I815677J380356D01*
G01*
X226393579Y-44568674D01*
G75*
G02*
X227589612Y-45003995I380356J-815677D01*
G01*
X227589612Y-45003995D01*
G75*
G02*
X227154291Y-46200028I-815677J-380356D01*
G01*
G37*
G36*
G01*
X230529763Y-47428600D02*
X230529763Y-47428600D01*
G75*
G02*
X229333730Y-46993279I-380356J815677D01*
G01*
X229333730Y-46993279D01*
G75*
G02*
X229769051Y-45797246I815677J380356D01*
G01*
X229769051Y-45797246D01*
G75*
G02*
X230965084Y-46232567I380356J-815677D01*
G01*
X230965084Y-46232567D01*
G75*
G02*
X230529763Y-47428600I-815677J-380356D01*
G01*
G37*
G36*
G01*
X229456312Y-45126578D02*
X229456312Y-45126578D01*
G75*
G02*
X228260279Y-44691257I-380356J815677D01*
G01*
X228260279Y-44691257D01*
G75*
G02*
X228695600Y-43495224I815677J380356D01*
G01*
X228695600Y-43495224D01*
G75*
G02*
X229891633Y-43930545I380356J-815677D01*
G01*
X229891633Y-43930545D01*
G75*
G02*
X229456312Y-45126578I-815677J-380356D01*
G01*
G37*
G36*
G01*
X232831785Y-46355149D02*
X232831785Y-46355149D01*
G75*
G02*
X231635752Y-45919828I-380356J815677D01*
G01*
X231635752Y-45919828D01*
G75*
G02*
X232071073Y-44723795I815677J380356D01*
G01*
X232071073Y-44723795D01*
G75*
G02*
X233267106Y-45159116I380356J-815677D01*
G01*
X233267106Y-45159116D01*
G75*
G02*
X232831785Y-46355149I-815677J-380356D01*
G01*
G37*
G36*
G01*
X231758334Y-44053127D02*
X231758334Y-44053127D01*
G75*
G02*
X230562301Y-43617806I-380356J815677D01*
G01*
X230562301Y-43617806D01*
G75*
G02*
X230997622Y-42421773I815677J380356D01*
G01*
X230997622Y-42421773D01*
G75*
G02*
X232193655Y-42857094I380356J-815677D01*
G01*
X232193655Y-42857094D01*
G75*
G02*
X231758334Y-44053127I-815677J-380356D01*
G01*
G37*
G36*
G01*
X235133806Y-45281699D02*
X235133806Y-45281699D01*
G75*
G02*
X233937773Y-44846378I-380356J815677D01*
G01*
X233937773Y-44846378D01*
G75*
G02*
X234373094Y-43650345I815677J380356D01*
G01*
X234373094Y-43650345D01*
G75*
G02*
X235569127Y-44085666I380356J-815677D01*
G01*
X235569127Y-44085666D01*
G75*
G02*
X235133806Y-45281699I-815677J-380356D01*
G01*
G37*
G36*
G01*
X234828053Y-42621695D02*
X233292660Y-43337660D01*
G75*
G02*
X233222305Y-43312053I-22374J47981D01*
G01*
X232506340Y-41776660D01*
G75*
G02*
X232531947Y-41706305I47981J22374D01*
G01*
X234067340Y-40990340D01*
G75*
G02*
X234137695Y-41015947I22374J-47981D01*
G01*
X234853660Y-42551340D01*
G75*
G02*
X234828053Y-42621695I-47981J-22374D01*
G01*
G37*
%TD*%
M02*
