<?xml version="1.0" standalone="no"?>
<!DOCTYPE svg PUBLIC "-//W3C//DTD SVG 1.1//EN" "http://www.w3.org/Graphics/SVG/1.1/DTD/svg11.dtd">
<svg width="144mm" height="92mm" viewBox="0 -92 144 92" xmlns="http://www.w3.org/2000/svg" version="1.1">
<title>OpenSCAD Model</title>
<path d="
M 51,-90 L 52.5,-90 L 51.0628,-91.4372 L 46.5628,-91.4372 L 48,-90 L 49.5,-90
 L 51,-88.5 z
M 45,-90 L 46.5,-90 L 45.0628,-91.4372 L 40.64,-91.4372 L 40.5637,-91.4363 L 41.6683,-90.3317
 L 41.8688,-90.2666 L 42.0863,-90.1765 L 42.366,-90.034 L 42.4214,-90 L 43.5,-90 L 45,-88.5
 z
M 141,-90 L 142.335,-90 L 142.21,-90.137 L 141.906,-90.4137 L 141.578,-90.6613 L 141.229,-90.8775
 L 140.861,-91.0606 L 140.478,-91.209 L 140.083,-91.3214 L 139.679,-91.3969 L 139.27,-91.4348 L 139.065,-91.4372
 L 136.563,-91.4372 L 137.764,-90.2365 L 137.836,-90.2666 L 138.135,-90.3635 L 138.363,-90.4185 L 138.673,-90.4676
 L 138.908,-90.486 L 139.222,-90.486 L 139.457,-90.4676 L 139.767,-90.4185 L 139.995,-90.3635 L 140.294,-90.2665
 L 140.511,-90.1765 L 140.791,-90.034 L 140.992,-89.911 L 141,-89.905 z
M 135,-90 L 136.5,-90 L 135.063,-91.4372 L 130.563,-91.4372 L 132,-90 L 133.5,-90
 L 135,-88.5 z
M 57,-90 L 58.5,-90 L 57.0628,-91.4372 L 52.5628,-91.4372 L 54,-90 L 55.5,-90
 L 57,-88.5 z
M 59.67,-91.1272 L 59.67,-91.4372 L 58.5628,-91.4372 L 60,-90 L 60.2128,-90 z
M 129,-90 L 130.5,-90 L 129.063,-91.4372 L 125.75,-91.4372 L 125.75,-91.1272 L 125.523,-90.4774
 L 126,-90 L 127.5,-90 L 129,-88.5 z
M 38.2805,-89.5737 L 38.4594,-89.7265 L 38.7133,-89.911 L 38.914,-90.034 L 39.1937,-90.1765 L 39.4111,-90.2666
 L 39.7096,-90.3635 L 39.9384,-90.4185 L 40.062,-90.438 L 39.2768,-91.2232 L 39.2267,-91.209 L 38.8436,-91.0606
 L 38.4759,-90.8775 L 38.1266,-90.6613 L 37.7988,-90.4137 L 37.4952,-90.137 L 37.3703,-90 L 37.5,-90
 L 38.1034,-89.3966 z
M 60.6172,-87.9249 L 60.6529,-88.1503 L 60.64,-88.1772 L 60.64,-89.36 L 60.4437,-89.5563 L 60.423,-89.5635
 L 60.4105,-89.5895 L 60,-90 L 60,-88.5 L 60.6142,-87.8858 z
M 57,-84 L 58.5,-84 L 57,-85.5 L 57,-87 L 54,-90 L 54,-88.5
 L 55.5,-87 L 54.2379,-87 L 54.3391,-86.8291 L 55.0575,-85.2884 L 55.1885,-84.9147 L 55.1931,-84.8957
 L 55.208,-84.5592 L 55.3007,-84.4665 L 55.3924,-84.3591 L 55.5769,-84.1053 L 55.6507,-83.9848 L 55.7914,-83.7086
 L 57,-82.5 z
M 125.905,-84.2625 L 126.035,-84.3165 L 126.334,-84.4135 L 126.471,-84.4465 L 126.781,-84.4955 L 126.922,-84.5066
 L 127.127,-84.5066 L 127.132,-84.5142 L 127.224,-84.6216 L 127.446,-84.8435 L 127.553,-84.9352 L 127.807,-85.1197
 L 127.927,-85.1935 L 128.207,-85.336 L 128.338,-85.3901 L 128.636,-85.487 L 128.773,-85.5199 L 129,-85.5558
 L 129,-87 L 126,-90 L 126,-88.5 L 127.5,-87 L 126,-87 L 126,-85.5
 L 125.681,-85.8193 L 125.314,-84.7702 L 125.257,-84.743 L 125.794,-84.206 z
M 133.53,-87.8207 L 133.904,-87.9517 L 133.923,-87.9563 L 134.039,-87.9614 L 132,-90 L 132,-88.5
 L 132.95,-87.5503 z
M 48.1942,-86.1933 L 48.3146,-86.2671 L 48.594,-86.4094 L 48.7245,-86.4635 L 49.0229,-86.5605 L 49.1602,-86.5934
 L 49.4703,-86.6425 L 49.4952,-86.6445 L 49.7205,-86.8907 L 49.7363,-86.9023 L 50.0741,-87.1023 L 50.6358,-87.3642
 L 48,-90 L 48,-88.5 L 49.5,-87 L 48,-87 L 48,-86.0522 z
M 37.1646,-87.3837 L 37.2137,-87.6937 L 37.2687,-87.9226 L 37.3656,-88.2211 L 37.4557,-88.4385 L 37.4914,-88.5086
 L 36.7887,-89.2113 L 36.7547,-89.1563 L 36.5716,-88.7886 L 36.4232,-88.4055 L 36.3504,-88.1496 L 37.1611,-87.3389
 z
M 43.5898,-84.0462 L 43.7102,-84.1199 L 43.9899,-84.2625 L 44.1204,-84.3165 L 44.419,-84.4135 L 44.5564,-84.4465
 L 44.8662,-84.4955 L 45.007,-84.5066 L 45.2115,-84.5066 L 45.217,-84.5141 L 45.3087,-84.6215 L 45.5307,-84.8435
 L 45.5985,-84.9015 L 45,-85.5 L 45,-87 L 43.9795,-88.0205 L 44.0113,-87.9226 L 44.0663,-87.6937
 L 44.1153,-87.3839 L 44.1338,-87.1492 L 44.1338,-86.8352 L 44.1153,-86.6005 L 44.0663,-86.2906 L 44.0113,-86.0618
 L 43.9144,-85.7634 L 43.8243,-85.5459 L 43.6818,-85.2662 L 43.5588,-85.0655 L 43.3743,-84.8116 L 43.2215,-84.6327
 L 42.9995,-84.4107 L 42.8205,-84.2578 L 42.5667,-84.0734 L 42.4469,-84 L 43.5,-84 L 43.5111,-83.9889
 z
M 62.7362,-83.9777 L 62.7361,-84.8326 L 62.4565,-84.9235 L 62.326,-84.9775 L 62.0463,-85.12 L 61.9259,-85.1938
 L 61.6721,-85.3783 L 61.5647,-85.47 L 61.3428,-85.6919 L 61.2511,-85.7993 L 61.0666,-86.0531 L 60.9928,-86.1735
 L 60.8503,-86.4532 L 60.7963,-86.5837 L 60.6993,-86.8821 L 60.671,-87 L 60,-87 L 60,-85.5
 L 58.5,-87 L 57,-87 L 60,-84 L 61.5,-84 L 63,-82.5 L 63,-83.582
 z
M 38.914,-83.9504 L 38.7133,-84.0734 L 38.4594,-84.2578 L 38.2805,-84.4107 L 38.0585,-84.6327 L 37.9056,-84.8116
 L 37.7212,-85.0655 L 37.5982,-85.2662 L 37.4557,-85.5459 L 37.3656,-85.7634 L 37.2687,-86.0618 L 37.2137,-86.2906
 L 37.1646,-86.6007 L 37.1462,-86.8353 L 37.1462,-87 L 36.1951,-87 L 36.195,-86.9922 L 36.195,-84
 L 37.5,-84 L 39,-82.5 L 39,-83.9066 z
M 46.7209,-85.487 L 46.8582,-85.5199 L 47.1683,-85.569 L 47.3091,-85.5801 L 47.5136,-85.5801 L 47.5191,-85.5877
 L 47.6108,-85.6951 L 47.7079,-85.7922 L 46.5,-87 L 45,-87 L 46.564,-85.436 z
M 130.109,-86.1933 L 130.229,-86.267 L 130.509,-86.4094 L 130.639,-86.4635 L 130.938,-86.5605 L 130.939,-86.5608
 L 130.5,-87 L 129,-87 L 129.934,-86.066 z
M 143.51,-85.99 L 142.559,-86.9412 L 142.559,-86.8353 L 142.54,-86.6007 L 142.491,-86.2906 L 142.436,-86.0618
 L 142.339,-85.7634 L 142.309,-85.6907 L 143.51,-84.49 z
M 85.5962,-83.9777 L 85.5961,-84.8326 L 85.3165,-84.9235 L 85.186,-84.9775 L 84.9064,-85.12 L 84.786,-85.1938
 L 84.532,-85.3784 L 84.4246,-85.4701 L 84.2028,-85.6919 L 84.1111,-85.7993 L 84,-85.9522 L 84,-85.5
 L 83.8443,-85.6557 L 83.8432,-85.653 L 83.8324,-85.6367 L 83.6654,-85.4698 L 83.3712,-84.6288 L 84,-84
 L 85.5,-84 L 85.7439,-83.7561 z
M 141,-84 L 142.5,-84 L 141.748,-84.7518 L 141.646,-84.6327 L 141.425,-84.4107 L 141.246,-84.2578
 L 140.992,-84.0734 L 140.791,-83.9504 L 140.511,-83.8079 L 140.294,-83.7178 L 139.995,-83.6209 L 139.902,-83.5984
 L 141,-82.5 z
M 122.842,-82.6965 L 122.949,-82.7882 L 123,-82.8254 L 123,-84 L 124.5,-84 L 124.245,-84.2554
 L 123.75,-84.0172 L 122.687,-84.0172 L 122.687,-83.9778 L 122.221,-83.2789 L 122.823,-82.6775 z
M 87,-78 L 87.7497,-78 L 87.7651,-78.0639 L 87.8621,-78.3625 L 87.9161,-78.493 L 87.9468,-78.5532
 L 87,-79.5 L 87,-81 L 84,-84 L 84,-82.5 L 85.5,-81 L 84,-81
 L 84,-79.5 L 82.7392,-80.7608 L 82.6973,-80.7033 L 82.6056,-80.5959 L 82.3837,-80.374 L 82.2763,-80.2823
 L 82.0222,-80.0977 L 81.9479,-80.0521 L 84,-78 L 85.5,-78 L 87,-76.5 z
M 60.4601,-78.0641 L 60.5571,-78.3625 L 60.6111,-78.493 L 60.7536,-78.7726 L 60.8274,-78.8931 L 61.0118,-79.1468
 L 61.1035,-79.2542 L 61.3255,-79.4762 L 61.4329,-79.5679 L 61.6868,-79.7524 L 61.8072,-79.8262 L 62.0868,-79.9686
 L 62.2173,-80.0227 L 62.5157,-80.1197 L 62.653,-80.1526 L 62.9631,-80.2018 L 63,-80.2047 L 63,-81
 L 60,-84 L 60,-82.5 L 61.5,-81 L 60,-81 L 60,-79.5 L 58.5,-81
 L 57,-81 L 60,-78 L 60.4447,-78 z
M 42.1168,-83.3401 L 42.2542,-83.373 L 42.5642,-83.4221 L 42.5769,-83.4231 L 42.1564,-83.8436 L 42.0863,-83.8079
 L 42,-83.7722 L 42,-83.3021 z
M 37.5128,-81.1932 L 37.6501,-81.2261 L 37.9602,-81.2753 L 38.101,-81.2863 L 38.3055,-81.2863 L 38.311,-81.2938
 L 38.4027,-81.4012 L 38.5007,-81.4993 L 36.195,-83.805 L 36.195,-82.5472 L 36.1926,-82.3418 L 36.1897,-82.3103
 L 37.3573,-81.1427 z
M 141,-78 L 142.5,-78 L 141,-79.5 L 141,-81 L 138.447,-83.5526 L 138.363,-83.5659
 L 138.135,-83.6209 L 138,-83.6646 L 138,-82.5 L 139.5,-81 L 138,-81 L 138,-79.5
 L 137.06,-80.4402 L 136.994,-80.374 L 136.886,-80.2823 L 136.632,-80.0977 L 136.512,-80.0239 L 136.232,-79.8815
 L 136.152,-79.8482 L 138,-78 L 139.5,-78 L 141,-76.5 z
M 120.901,-81.8992 L 121.021,-81.973 L 121.301,-82.1155 L 121.431,-82.1696 L 121.73,-82.2666 L 121.733,-82.2673
 L 121.551,-82.4489 L 120.574,-81.926 L 120.727,-81.773 z
M 57,-78 L 58.5,-78 L 57,-79.5 L 57,-81 L 55.9907,-82.0093 L 55.9772,-81.9236
 L 55.9442,-81.7863 L 55.8472,-81.4877 L 55.7932,-81.3572 L 55.6507,-81.0776 L 55.5769,-80.9572 L 55.3924,-80.7033
 L 55.3007,-80.5959 L 55.0788,-80.374 L 54.9714,-80.2823 L 54.7173,-80.0977 L 54.5969,-80.0239 L 54.3175,-79.8815
 L 54.187,-79.8275 L 54,-79.7667 L 54,-79.5 L 53.7925,-79.7075 L 53.7513,-79.6976 L 53.4412,-79.6484
 L 53.3004,-79.6374 L 53.0958,-79.6374 L 53.0903,-79.6298 L 52.9986,-79.5224 L 52.7766,-79.3004 L 52.7351,-79.2649
 L 54,-78 L 55.5,-78 L 57,-76.5 z
M 90.2681,-80.2018 L 90.4089,-80.2128 L 90.6135,-80.2128 L 90.619,-80.2204 L 90.7107,-80.3278 L 90.9326,-80.5497
 L 91.04,-80.6414 L 91.2939,-80.8259 L 91.4143,-80.8997 L 91.6939,-81.0421 L 91.8244,-81.0962 L 92.1228,-81.1932
 L 92.2601,-81.2261 L 92.5702,-81.2753 L 92.711,-81.2863 L 92.7137,-81.2863 L 92.34,-81.66 L 90.84,-81.66
 L 91.5,-81 L 90,-81 L 90,-80.1593 z
M 115.07,-78.0641 L 115.167,-78.3625 L 115.221,-78.493 L 115.364,-78.7725 L 115.437,-78.8929 L 115.622,-79.1469
 L 115.714,-79.2543 L 115.936,-79.4762 L 116.043,-79.5679 L 116.297,-79.7524 L 116.417,-79.8262 L 116.697,-79.9686
 L 116.827,-80.0227 L 117,-80.0788 L 117,-81 L 116.345,-81.6553 L 114.845,-81.6553 L 115.5,-81
 L 114,-81 L 114,-79.5 L 112.5,-81 L 111,-81 L 114,-78 L 115.055,-78
 z
M 111,-78 L 112.5,-78 L 111,-79.5 L 111,-81 L 110.471,-81.5294 L 110.457,-81.4877
 L 110.403,-81.3572 L 110.261,-81.0776 L 110.187,-80.9572 L 110.002,-80.7033 L 109.911,-80.5959 L 109.689,-80.374
 L 109.581,-80.2823 L 109.327,-80.0977 L 109.207,-80.024 L 108.927,-79.8815 L 108.797,-79.8275 L 108.498,-79.7305
 L 108.361,-79.6975 L 108.051,-79.6484 L 108,-79.6444 L 108,-79.5 L 107.863,-79.6374 L 107.706,-79.6374
 L 107.7,-79.6298 L 107.609,-79.5224 L 107.387,-79.3004 L 107.279,-79.2087 L 107.025,-79.0243 L 106.995,-79.0054
 L 108,-78 L 109.5,-78 L 111,-76.5 z
M 36.009,-80.2204 L 36.1007,-80.3278 L 36.3226,-80.5497 L 36.43,-80.6414 L 36.6839,-80.8259 L 36.8043,-80.8997
 L 37.0012,-81 L 36,-81 L 36,-80.2128 L 36.0035,-80.2128 z
M 143.51,-79.99 L 142.5,-81 L 141,-81 L 143.51,-78.49 z
M 117.918,-80.2128 L 117.924,-80.2204 L 118.016,-80.3278 L 118.238,-80.5497 L 118.345,-80.6414 L 118.599,-80.8259
 L 118.646,-80.8545 L 118.5,-81 L 117,-81 L 117.787,-80.2128 z
M 88.6305,-79.4762 L 88.7379,-79.5679 L 88.9917,-79.7523 L 89.1121,-79.8261 L 89.3918,-79.9686 L 89.4905,-80.0095
 L 88.5,-81 L 87,-81 L 88.5772,-79.4229 z
M 63.6276,-80.5497 L 63.735,-80.6414 L 63.9888,-80.8259 L 64.1092,-80.8996 L 64.3062,-81 L 63,-81
 L 63.539,-80.461 z
M 81,-78 L 82.5,-78 L 81,-79.5 L 81,-79.6887 L 80.7461,-79.6484 L 80.6053,-79.6374
 L 80.4008,-79.6374 L 80.3953,-79.6298 L 80.3036,-79.5224 L 80.0816,-79.3004 L 79.9742,-79.2087 L 79.7204,-79.0243
 L 79.5999,-78.9505 L 79.3204,-78.8081 L 79.19,-78.754 L 78.8915,-78.657 L 78.7541,-78.624 L 78.4441,-78.5749
 L 78.3033,-78.5639 L 78.0987,-78.5639 L 78.0933,-78.5564 L 78.0016,-78.449 L 77.7797,-78.2271 L 77.776,-78.224
 L 78,-78 L 79.5,-78 L 81,-76.5 z
M 135,-78 L 136.5,-78 L 135,-79.5 L 135,-79.6236 L 134.914,-79.5224 L 134.692,-79.3004
 L 134.584,-79.2087 L 134.33,-79.0243 L 134.21,-78.9505 L 133.93,-78.808 L 133.8,-78.754 L 133.501,-78.657
 L 133.364,-78.6241 L 133.054,-78.5749 L 132.913,-78.5639 L 132.709,-78.5639 L 132.703,-78.5564 L 132.612,-78.449
 L 132.39,-78.2271 L 132.282,-78.1354 L 132.096,-78 L 133.5,-78 L 135,-76.5 z
M 51,-78 L 52.5,-78 L 51.7801,-78.7199 L 51.5865,-78.657 L 51.4491,-78.624 L 51.1391,-78.5749
 L 50.9983,-78.5639 L 50.7937,-78.5639 L 50.7883,-78.5564 L 50.6966,-78.449 L 50.4748,-78.2272 L 50.3674,-78.1355
 L 50.1134,-77.9509 L 49.993,-77.8771 L 49.7478,-77.7522 L 51,-76.5 z
M 105,-78 L 106.5,-78 L 105.901,-78.599 L 105.749,-78.5749 L 105.608,-78.5639 L 105.404,-78.5639
 L 105.398,-78.5564 L 105.307,-78.449 L 105.085,-78.2272 L 104.977,-78.1355 L 104.723,-77.9509 L 104.603,-77.8771
 L 104.323,-77.7346 L 104.193,-77.6806 L 103.911,-77.589 L 105,-76.5 z
M 33,-78 L 33.1397,-78 L 33.1551,-78.0639 L 33.2521,-78.3625 L 33.2532,-78.3652 L 33.1633,-78.3304
 L 32.7682,-78.218 L 32.3644,-78.1425 L 31.9554,-78.1046 L 31.75,-78.1022 L 31.4941,-78.1022 L 31.4965,-78.0972
 L 31.8,-78.0972 L 32.0316,-78.0837 L 32.1003,-78.0757 L 32.6763,-77.9189 L 32.7771,-77.8744 L 33,-77.7217
 z
M 117,-72 L 118.5,-72 L 118.31,-72.1896 L 118.199,-72.2163 L 117.901,-72.3133 L 117.77,-72.3673
 L 117.491,-72.5098 L 117.37,-72.5836 L 117.116,-72.7681 L 117.009,-72.8598 L 116.787,-73.0817 L 116.695,-73.1891
 L 116.511,-73.4429 L 116.437,-73.5633 L 116.295,-73.8432 L 116.241,-73.9737 L 116.144,-74.2719 L 116.111,-74.4093
 L 116.062,-74.7193 L 116.05,-74.8601 L 116.05,-75.0646 L 116.043,-75.0701 L 115.936,-75.1618 L 115.714,-75.3836
 L 115.622,-75.491 L 115.437,-75.7452 L 115.363,-75.8656 L 115.221,-76.145 L 115.167,-76.2755 L 115.07,-76.5739
 L 115.037,-76.7113 L 114.99,-77.0102 L 114,-78 L 114,-76.5 L 115.5,-75 L 114,-75
 L 114,-73.5 L 112.5,-75 L 111,-75 L 114,-72 L 115.5,-72 L 117,-70.5
 z
M 141,-72 L 142.5,-72 L 141,-73.5 L 141,-75 L 138,-78 L 138,-76.5
 L 139.5,-75 L 138,-75 L 138,-73.5 L 136.5,-75 L 135,-75 L 138,-72
 L 139.5,-72 L 141,-70.5 z
M 57,-72 L 58.5,-72 L 57,-73.5 L 57,-75 L 54,-78 L 54,-76.5
 L 55.5,-75 L 54,-75 L 54,-73.5 L 52.5,-75 L 51,-75 L 53.0178,-72.9822
 L 55.235,-72.9822 L 56.482,-72.5459 L 57,-71.4701 z
M 87,-72 L 88.5,-72 L 87,-73.5 L 87,-75 L 84,-78 L 84,-76.5
 L 85.5,-75 L 84,-75 L 84,-73.5 L 82.5,-75 L 81,-75 L 84,-72
 L 85.5,-72 L 86.0431,-71.4569 L 86.0623,-71.4599 L 86.2031,-71.471 L 86.5169,-71.471 L 86.6577,-71.4599
 L 86.9677,-71.4108 L 87,-71.4031 z
M 110.586,-71.2269 L 110.717,-71.281 L 111,-71.373 L 111,-72 L 112.5,-72 L 111,-73.5
 L 111,-75 L 108,-78 L 108,-76.5 L 109.5,-75 L 108,-75 L 108,-73.5
 L 106.5,-75 L 105,-75 L 108,-72 L 109.5,-72 L 110.198,-71.3023 L 110.263,-71.281
 L 110.394,-71.2269 L 110.49,-71.1779 z
M 80.2367,-71.281 L 80.5349,-71.3779 L 80.6723,-71.4108 L 80.9823,-71.4599 L 81,-71.4613 L 81,-72
 L 82.5,-72 L 81,-73.5 L 81,-75 L 78,-78 L 78,-76.5 L 79.5,-75
 L 78,-75 L 78,-73.5 L 76.5,-75 L 75,-75 L 78,-72 L 79.5,-72
 L 80.2242,-71.2758 z
M 61.0119,-75.4911 L 60.8274,-75.745 L 60.7536,-75.8654 L 60.6111,-76.145 L 60.5571,-76.2755 L 60.4601,-76.5739
 L 60.4271,-76.7113 L 60.378,-77.0213 L 60.367,-77.1621 L 60.367,-77.4759 L 60.378,-77.6167 L 60.3788,-77.6212
 L 60,-78 L 60,-76.5 L 61.0292,-75.4708 z
M 135,-72 L 136.5,-72 L 135,-73.5 L 135,-75 L 132.04,-77.9596 L 132.028,-77.9509
 L 132,-77.9335 L 132,-76.5 L 133.5,-75 L 132,-75 L 132,-73.5 L 130.5,-75
 L 129,-75 L 132,-72 L 133.5,-72 L 135,-70.5 z
M 49.765,-72.9822 L 51.5178,-72.9822 L 51,-73.5 L 51,-75 L 48.5095,-77.4905 L 48.4918,-77.4905
 L 48.4863,-77.4829 L 48.3946,-77.3755 L 48.1727,-77.1536 L 48.0653,-77.0619 L 48,-77.0144 L 48,-76.5
 L 49.5,-75 L 48,-75 L 48,-73.5 L 46.5,-75 L 45,-75 L 48,-72
 L 48.1212,-72 L 48.2013,-72.2292 z
M 105,-72 L 106.5,-72 L 105,-73.5 L 105,-75 L 102.815,-77.1855 L 102.783,-77.1536
 L 102.675,-77.0619 L 102.421,-76.8774 L 102.301,-76.8036 L 102.021,-76.6611 L 102,-76.6523 L 102,-76.5
 L 103.5,-75 L 102,-75 L 102,-73.5 L 100.5,-75 L 99,-75 L 102,-72
 L 103.5,-72 L 104.029,-71.471 L 104.297,-71.471 L 104.438,-71.4599 L 104.748,-71.4108 L 104.885,-71.3779
 L 105,-71.3405 z
M 75,-76.8061 L 74.996,-76.8036 L 74.7975,-76.7025 L 75,-76.5 z
M 129,-76.5434 L 128.967,-76.5328 L 129,-76.5 z
M 76.5,-72 L 75,-73.5 L 75,-75 L 73.583,-76.417 L 73.4947,-76.417 L 73.4893,-76.4095
 L 73.3976,-76.3021 L 73.1757,-76.0802 L 73.0683,-75.9885 L 72.8145,-75.804 L 72.741,-75.759 L 73.5,-75
 L 72,-75 L 72,-74.7024 L 72.347,-74.5809 L 73.1,-73.0173 L 73.1,-72 L 73.5,-72
 L 75,-70.5 L 75,-72 z
M 129,-72 L 130.5,-72 L 129,-73.5 L 129,-75 L 127.853,-76.1473 L 127.786,-76.0802
 L 127.678,-75.9885 L 127.424,-75.804 L 127.304,-75.7302 L 127.024,-75.5877 L 126.945,-75.5549 L 127.5,-75
 L 126,-75 L 126,-73.5 L 124.897,-74.6032 L 124.722,-74.5142 L 124.592,-74.4602 L 124.293,-74.3632
 L 124.156,-74.3302 L 123.846,-74.2812 L 123.728,-74.2719 L 126,-72 L 127.5,-72 L 129,-70.5
 z
M 45,-72 L 46.5,-72 L 45,-73.5 L 45,-75 L 44.586,-75.414 L 44.543,-75.4037
 L 44.2333,-75.3547 L 44.0925,-75.3436 L 43.8877,-75.3436 L 43.8822,-75.336 L 43.7905,-75.2286 L 43.5686,-75.0067
 L 43.4612,-74.915 L 43.2074,-74.7305 L 43.0869,-74.6567 L 42.8073,-74.5142 L 42.6768,-74.4602 L 42.3782,-74.3632
 L 42.2408,-74.3302 L 42,-74.2921 L 42,-73.5 L 41.4166,-74.0834 L 41.2667,-73.9334 L 41.1593,-73.8417
 L 40.9053,-73.6571 L 40.7849,-73.5833 L 40.541,-73.459 L 42,-72 L 43.5,-72 L 45,-70.5
 z
M 98.4523,-71.4108 L 98.7623,-71.4599 L 98.9031,-71.471 L 99,-71.471 L 99,-72 L 100.5,-72
 L 99,-73.5 L 99,-75 L 98.6564,-75.3436 L 98.4977,-75.3436 L 98.4922,-75.336 L 98.4005,-75.2286
 L 98.1786,-75.0067 L 98.0712,-74.915 L 97.8174,-74.7305 L 97.6969,-74.6567 L 97.4173,-74.5142 L 97.2868,-74.4602
 L 96.9882,-74.3632 L 96.8508,-74.3302 L 96.5412,-74.2812 L 96.4004,-74.2701 L 96.1956,-74.2701 L 96.1902,-74.2626
 L 96.0985,-74.1552 L 96,-74.0567 L 96,-73.5 L 95.705,-73.795 L 95.5153,-73.6571 L 95.3949,-73.5833
 L 95.1153,-73.4408 L 94.9848,-73.3868 L 94.7043,-73.2957 L 96,-72 L 97.5,-72 L 98.1694,-71.3306
 L 98.3149,-71.3779 z
M 61.4405,-75.0646 L 61.4329,-75.0701 L 61.4126,-75.0874 L 61.4405,-75.0595 z
M 60,-75 L 60,-74.5453 L 60.9441,-75 z
M 143.51,-73.99 L 142.5,-75 L 141,-75 L 143.51,-72.49 z
M 92.8062,-71.2269 L 92.9367,-71.281 L 93,-71.3015 L 93,-72 L 94.5,-72 L 93.6074,-72.8926
 L 93.5746,-72.8598 L 93.4672,-72.7681 L 93.2133,-72.5836 L 93.0928,-72.5098 L 92.8133,-72.3673 L 92.6828,-72.3133
 L 92.3844,-72.2163 L 92.2471,-72.1833 L 91.937,-72.1342 L 91.7962,-72.1232 L 91.4824,-72.1232 L 91.3416,-72.1342
 L 91.0316,-72.1833 L 90.8942,-72.2163 L 90.5958,-72.3133 L 90.4653,-72.3673 L 90.1856,-72.5098 L 90.0652,-72.5836
 L 89.8114,-72.7681 L 89.704,-72.8598 L 89.4821,-73.0817 L 89.3904,-73.1891 L 89.2059,-73.4429 L 89.1321,-73.5633
 L 88.9896,-73.843 L 88.9356,-73.9735 L 88.8386,-74.2719 L 88.8056,-74.4093 L 88.7565,-74.7193 L 88.7545,-74.7455
 L 88.5,-75 L 87,-75 L 90,-72 L 91.5,-72 L 92.1022,-71.3978 L 92.1851,-71.3779
 L 92.4833,-71.281 L 92.6138,-71.2269 L 92.71,-71.1779 z
M 59.3695,-74.1305 L 58.5,-75 L 57,-75 L 58.9807,-73.0193 z
M 34.5959,-73.4429 L 34.5221,-73.5633 L 34.3796,-73.843 L 34.3256,-73.9735 L 34.2286,-74.2719 L 34.1956,-74.4093
 L 34.1465,-74.7193 L 34.1355,-74.8601 L 34.1355,-75 L 34.1,-75 L 34.1,-74.1972 L 34.0866,-73.966
 L 34.0811,-73.9189 L 34.6992,-73.3008 z
M 123,-72 L 124.5,-72 L 123,-73.5 L 123,-73.7877 L 122.82,-73.6571 L 122.7,-73.5833
 L 122.42,-73.4409 L 122.29,-73.3868 L 121.991,-73.2898 L 121.854,-73.2568 L 121.544,-73.2077 L 121.403,-73.1967
 L 121.199,-73.1967 L 121.193,-73.1891 L 121.102,-73.0817 L 120.88,-72.8598 L 120.772,-72.7681 L 120.518,-72.5836
 L 120.398,-72.5098 L 120.118,-72.3673 L 119.988,-72.3133 L 119.761,-72.2394 L 120,-72 L 121.5,-72
 L 123,-70.5 z
M 15.4919,-72.0551 L 15.6026,-72.2357 L 15.787,-72.4896 L 15.8899,-72.6101 L 15.24,-73.26 L 15.24,-72
 L 15.4638,-72 z
M 40.5,-72 L 39.3033,-73.1967 L 39.2837,-73.1967 L 39.2783,-73.1892 L 39.1866,-73.0818 L 38.9646,-72.8598
 L 38.8572,-72.7681 L 38.6033,-72.5836 L 38.4828,-72.5098 L 38.2033,-72.3673 L 38.0728,-72.3133 L 37.7744,-72.2163
 L 37.6371,-72.1833 L 37.327,-72.1342 L 37.1862,-72.1232 L 36.8724,-72.1232 L 36.7316,-72.1342 L 36.4216,-72.1833
 L 36.2842,-72.2163 L 35.9858,-72.3133 L 35.8553,-72.3673 L 35.5756,-72.5098 L 35.4552,-72.5836 L 35.3131,-72.6869
 L 36,-72 L 37.5,-72 L 39,-70.5 L 39,-72 z
M 34.5,-72 L 33.6344,-72.8656 L 33.4618,-72.6136 L 33.3839,-72.5356 L 33.2966,-72.4759 L 33.2986,-72.4739
 L 33.4107,-72.3427 L 33.5952,-72.0887 L 33.6496,-72 z
M 118.206,-66.1469 L 118.31,-66.1899 L 117,-67.5 L 117,-69 L 114,-72 L 114,-70.5
 L 115.5,-69 L 114.623,-69 L 114.637,-68.9138 L 114.908,-68.8708 L 115.045,-68.8379 L 115.343,-68.7409
 L 115.474,-68.6868 L 115.754,-68.5443 L 115.874,-68.4706 L 116.128,-68.2861 L 116.235,-68.1944 L 116.457,-67.9725
 L 116.549,-67.8651 L 116.733,-67.6113 L 116.807,-67.4908 L 116.95,-67.2112 L 117.004,-67.0807 L 117.101,-66.7823
 L 117.134,-66.6449 L 117.177,-66.3738 L 117.448,-66.3309 L 117.585,-66.2979 L 117.883,-66.2009 L 118.014,-66.1469
 L 118.11,-66.0979 z
M 108.046,-71.2269 L 108.177,-71.281 L 108.475,-71.3779 L 108.594,-71.4064 L 108,-72 L 108,-71.2034
 z
M 38.4332,-69.5668 L 36,-72 L 36,-70.5 L 37.4028,-69.0972 L 37.4579,-69.0972 z
M 48.0898,-71.9102 L 48,-72 L 48,-71.6538 z
M 84,-72 L 84,-71.4692 L 84.1177,-71.4599 L 84.4277,-71.4108 L 84.5651,-71.3779 L 84.6496,-71.3504
 z
M 128.304,-66.4361 L 129.823,-66.6771 L 129,-67.5 L 129,-69 L 126,-72 L 126,-70.5
 L 127.5,-69 L 126,-69 L 126,-67.5 L 124.5,-69 L 123,-69 L 126,-66
 L 127.5,-66 L 127.878,-65.6221 z
M 45,-66 L 46.5,-66 L 45,-67.5 L 45,-69 L 42,-72 L 42,-70.5
 L 43.5,-69 L 42.2778,-69 L 43.247,-68.6609 L 44,-67.0972 L 44,-65.5 L 45,-64.5
 z
M 78.1322,-71.4108 L 78.4423,-71.4599 L 78.5329,-71.4671 L 78,-72 L 78,-71.3791 z
M 96.2223,-71.4599 L 96.3631,-71.471 L 96.529,-71.471 L 96,-72 L 96,-71.4247 z
M 138.246,-66.0043 L 138.526,-66.1469 L 138.656,-66.2009 L 138.955,-66.2979 L 139.092,-66.3309 L 139.402,-66.3799
 L 139.543,-66.391 L 139.857,-66.391 L 139.998,-66.3799 L 140.223,-66.3443 L 140.25,-66.3572 L 141.56,-66.3572
 L 141.636,-66.5742 L 141.832,-66.6683 L 141,-67.5 L 141,-69 L 138,-72 L 138,-70.5
 L 139.5,-69 L 138,-69 L 138,-67.5 L 136.5,-69 L 135,-69 L 138,-66
 L 138.239,-66 z
M 102,-72 L 102,-71.4437 L 102.208,-71.4108 L 102.345,-71.3779 L 102.643,-71.281 L 102.773,-71.2274
 z
M 123.286,-66.1468 L 123.416,-66.2009 L 123.715,-66.2979 L 123.852,-66.3309 L 124.126,-66.3742 L 123,-67.5
 L 123,-69 L 120,-72 L 120,-70.5 L 121.5,-69 L 120,-69 L 120,-67.5
 L 118.5,-69 L 117,-69 L 119.615,-66.3849 L 119.678,-66.3799 L 119.988,-66.3309 L 120.125,-66.2979
 L 120.423,-66.2009 L 120.554,-66.1469 L 120.65,-66.0979 L 120.746,-66.1469 L 120.876,-66.2009 L 121.175,-66.2979
 L 121.312,-66.3309 L 121.622,-66.3799 L 121.763,-66.391 L 122.077,-66.391 L 122.218,-66.3799 L 122.528,-66.3309
 L 122.665,-66.2979 L 122.963,-66.2009 L 123.094,-66.1469 L 123.19,-66.0979 z
M 135,-66 L 136.5,-66 L 135,-67.5 L 135,-69 L 132,-72 L 132,-70.5
 L 133.5,-69 L 132,-69 L 132,-67.5 L 130.5,-69 L 129,-69 L 131.838,-66.1621
 L 132.378,-66 L 133.5,-66 L 135,-64.5 z
M 90.2662,-71.2269 L 90.3967,-71.281 L 90.64,-71.36 L 90,-72 L 90,-71.2575 L 90.0738,-71.2269
 L 90.17,-71.1779 z
M 75,-66 L 75.8462,-66 L 75.8462,-66.1941 L 75.8572,-66.3349 L 75.8993,-66.6007 L 75,-67.5
 L 75,-69 L 73.1,-70.9 L 73.1,-69.4 L 73.5,-69 L 73.1,-69 L 73.1,-66
 L 73.5,-66 L 75,-64.5 z
M 48.3062,-66.1542 L 48.3148,-66.2637 L 48.3496,-66.4833 L 47.765,-67.6972 L 47.765,-67.735 L 46.5,-69
 L 45,-69 L 48,-66 L 48.3062,-66 z
M 17.1499,-67.2935 L 17.0217,-67.3466 L 16.7421,-67.489 L 16.5615,-67.5997 L 16.3076,-67.7842 L 16.1465,-67.9218
 L 15.9246,-68.1437 L 15.787,-68.3047 L 15.6026,-68.5587 L 15.4919,-68.7393 L 15.359,-69 L 15.24,-69
 L 15.24,-68.76 L 16.8507,-67.1493 z
M 143.2,-67.3272 L 143.51,-67.3272 L 143.51,-67.99 L 142.5,-69 L 141,-69 L 142.844,-67.1558
 z
M 75.8572,-68.2795 L 75.8462,-68.4203 L 75.8462,-68.7341 L 75.8572,-68.8749 L 75.8771,-69 L 75,-69
 L 75.883,-68.117 z
M 58.98,-68.52 L 58.5,-69 L 57.235,-69 L 57.235,-68.765 L 58.98,-67.02 z
M 57,-66 L 58.5,-66 L 57.123,-67.377 L 56.7986,-66.4502 L 56.6658,-66.3862 L 56.6852,-66.2637
 L 56.6938,-66.1542 L 56.6938,-66.1021 L 56.9284,-65.615 L 56.9284,-64.5716 L 57,-64.5 z
M 15.6563,-66.5742 L 15.8382,-66.6618 L 15.24,-67.26 L 15.24,-66 L 15.4554,-66 z
M 28.5,-66 L 27.7628,-66.7372 L 23.2628,-66.7372 L 23.5728,-66.4272 L 27.4126,-66.4272 L 28.2285,-66
 z
M 30,-66.7372 L 29.2628,-66.7372 L 30,-66 z
M 126,-66 L 126,-65.9514 L 126.034,-65.9306 L 126.163,-65.8365 z
M 138.093,-65.9068 L 138,-66 L 138,-65.8391 z
M 48.0684,-65.6172 L 48.2011,-65.7989 L 48,-66 L 48,-64.5 L 48.0684,-64.4316 z
M 127.443,-64.5565 L 126.799,-65.2007 L 126.893,-65.0712 L 126.967,-64.9507 L 127.11,-64.6712 L 127.164,-64.5408
 L 127.261,-64.2421 L 127.294,-64.1047 L 127.343,-63.7949 L 127.354,-63.6541 L 127.354,-63.3403 L 127.343,-63.1995
 L 127.337,-63.163 L 127.443,-63.0565 z
M 75,-60 L 76.0082,-60 L 75.9393,-60.2121 L 75.9063,-60.3495 L 75.8604,-60.6396 L 75,-61.5
 L 75,-63 L 73.1,-64.9 L 73.1,-63.4 L 73.5,-63 L 73.1,-63 L 73.1,-60
 L 73.5,-60 L 75,-58.5 z
M 45,-60 L 46.5,-60 L 45,-61.5 L 45,-63 L 44,-64 L 44,-62.8972
 L 43.5637,-61.6502 L 42.8283,-61.2961 L 42.8349,-61.2733 L 42.9098,-60.945 L 42.9473,-60.724 L 42.985,-60.3894
 L 42.9974,-60.1941 L 42.9998,-60.0258 L 43,-60 L 43.5,-60 L 45,-58.5 z
M 134.623,-63.3096 L 134.664,-63.3364 L 134.176,-63.8235 L 134.176,-62.4746 z
M 57,-60 L 58.5,-60 L 57,-61.5 L 57,-63 L 56.9284,-63.0716 L 56.9284,-58.5716
 L 57,-58.5 z
M 127.311,-63 L 127.294,-62.8896 L 127.261,-62.7523 L 127.164,-62.4536 L 127.11,-62.3232 L 127.061,-62.2272
 L 127.11,-62.1312 L 127.164,-62.0007 L 127.261,-61.7021 L 127.294,-61.5647 L 127.343,-61.2549 L 127.354,-61.1141
 L 127.354,-60.8003 L 127.343,-60.6595 L 127.294,-60.3497 L 127.261,-60.2123 L 127.192,-60 L 127.443,-60
 L 127.443,-63 z
M 48,-63 L 48,-61.5 L 46.5,-63 L 45,-63 L 48,-60 L 48.0684,-60
 L 48.0684,-63 z
M 29.3061,-62.1939 L 29.1217,-60.8783 L 30,-60 L 31,-60 L 31.0002,-60.0257 L 31.0026,-60.194
 L 31.015,-60.3894 L 31.0527,-60.724 L 31.0902,-60.945 L 31.1474,-61.1955 L 30.753,-61.3335 L 30,-62.8972
 L 30,-61.5 z
M 76.0362,-62.0005 L 76.0903,-62.131 L 76.1393,-62.2272 L 76.0903,-62.3233 L 76.0363,-62.4538 L 75.9393,-62.7521
 L 75.9063,-62.8895 L 75.8888,-63 L 75,-63 L 76.0272,-61.9728 z
M 58.98,-62.52 L 58.5,-63 L 57,-63 L 58.98,-61.02 z
M 48.0684,-59.9316 L 48,-60 L 48,-58.5 L 48.0684,-58.4316 z
M 31.3384,-57.1876 L 31.2272,-57.5054 L 31.1651,-57.7211 L 31.0902,-58.0494 L 31.0527,-58.2704 L 31.015,-58.605
 L 31.0026,-58.8004 L 31.0002,-58.9687 L 31,-59 L 30,-60 L 30,-58.5 L 31.3569,-57.1431
 z
M 45,-54 L 46.5,-54 L 45,-55.5 L 45,-57 L 43.185,-58.815 L 43.0752,-58.5012
 L 43.0811,-58.4547 L 43.0697,-58.4203 L 43.0604,-57.8298 L 42.8622,-57.6378 L 43.5,-57 L 42.5838,-57
 L 42.5756,-56.9802 L 42.4295,-56.6769 L 42.3213,-56.481 L 42.1422,-56.1959 L 42.0122,-56.0128 L 42,-55.9975
 L 42,-55.5 L 41.7778,-55.7222 L 41.6529,-55.5824 L 41.4148,-55.3443 L 41.2476,-55.1949 L 41.0014,-54.9986
 L 42,-54 L 43.5,-54 L 45,-52.5 z
M 127.443,-58.5565 L 127.348,-58.6523 L 127.354,-58.5741 L 127.354,-58.2603 L 127.343,-58.1195 L 127.294,-57.8096
 L 127.261,-57.6723 L 127.164,-57.3737 L 127.153,-57.3473 L 127.443,-57.0565 z
M 57,-54 L 58.5,-54 L 57,-55.5 L 57,-57 L 56.3765,-57.6235 L 55.5378,-56.4745
 L 54,-56.6899 L 54,-55.5 L 52.7463,-56.7537 L 52.5409,-56.4723 L 51.3626,-56.6374 L 54,-54
 L 55.5,-54 L 57,-52.5 z
M 75,-54 L 75.9196,-54 L 75.9393,-54.0823 L 76.0362,-54.3805 L 76.0606,-54.4394 L 75,-55.5
 L 75,-57 L 74.5621,-57.4379 L 74.6171,-57.0076 L 74.462,-56.8071 L 74.4579,-56.5292 L 74.49,-56.5292
 L 74.49,-56.1472 L 74.4505,-56.0343 L 74.4496,-55.9764 L 74.3849,-55.8469 L 74.0536,-54.9002 L 73.5805,-54.6723
 L 73.1,-54.2059 L 73.1,-54 L 73.5,-54 L 75,-52.5 z
M 127.131,-57 L 127.164,-56.9207 L 127.261,-56.6221 L 127.294,-56.4848 L 127.343,-56.1749 L 127.354,-56.0341
 L 127.354,-55.7203 L 127.343,-55.5795 L 127.294,-55.2697 L 127.261,-55.1323 L 127.164,-54.8337 L 127.11,-54.7032
 L 127.061,-54.6072 L 127.11,-54.5112 L 127.164,-54.3807 L 127.261,-54.0821 L 127.28,-54 L 127.443,-54
 L 127.443,-57 z
M 52.5,-54 L 51,-55.5 L 51,-56.6882 L 50.8222,-56.7131 L 50.7979,-56.7293 L 48.8214,-56.8135
 L 48.7316,-57 L 48,-57 L 48,-55.5 L 46.5,-57 L 45,-57 L 48,-54
 L 49.5,-54 L 51,-52.5 L 51,-54 z
M 34.5,-54 L 34.1459,-54.3541 L 33.983,-54.4216 L 33.6797,-54.5677 L 33.4838,-54.6759 L 33.1987,-54.855
 L 33.0156,-54.985 L 32.7524,-55.1949 L 32.5852,-55.3443 L 32.3471,-55.5824 L 32.1976,-55.7496 L 31.9877,-56.0128
 L 31.8578,-56.1959 L 31.6787,-56.481 L 31.5705,-56.6769 L 31.4244,-56.9802 L 31.4162,-57 L 30,-57
 L 30,-55.895 L 31.9395,-55.3132 L 32.9288,-53.9835 L 33,-53.9835 L 33,-54 z
M 75.8572,-56.1749 L 75.9064,-56.485 L 75.9393,-56.6223 L 76.0362,-56.9205 L 76.0691,-57 L 75,-57
 L 75.8549,-56.1451 z
M 21,-54 L 22.5,-54 L 21.577,-54.923 L 20.88,-54.5873 L 18.55,-54.5873 L 17.303,-55.0236
 L 16.7478,-56.1766 L 16.4976,-56.4267 L 16.4868,-56.443 L 16.2573,-57 L 15.24,-57 L 15.24,-56.76
 L 18,-54 L 19.5,-54 L 19.7359,-53.7641 L 19.7901,-53.7588 L 19.8092,-53.755 L 20.5242,-53.4604
 L 20.5405,-53.4496 L 21,-52.9901 z
M 58.98,-56.52 L 58.5,-57 L 57,-57 L 58.98,-55.02 z
M 28.5,-57 L 28.4984,-57 L 28.2911,-56.4076 L 29.4358,-56.0642 z
M 25.5907,-53.9595 L 25.6352,-53.9639 L 25.6352,-54.5163 L 26.1431,-55.4864 L 22.5136,-55.4864 L 24,-54
 L 25.5,-54 L 25.547,-53.953 z
M 15.24,-55.26 L 15.24,-54 L 16.5,-54 z
M 38.4595,-53.4496 L 38.4758,-53.4604 L 39,-53.6764 L 39,-54 L 40.5,-54 L 40.0585,-54.4415
 L 40.017,-54.4216 L 39.8095,-54.3356 L 39.707,-54.2997 L 39.427,-54.028 L 38.8936,-54.0359 L 37.7228,-53.8864
 L 37.5795,-53.9972 L 37.5028,-53.9972 L 38.255,-53.245 z
M 49.5759,-48.1933 L 49.5938,-48.2202 L 49.6763,-50.1575 L 51,-50.7949 L 51,-51 L 48,-54
 L 48,-52.5 L 49.5,-51 L 48,-51 L 48,-49.5 L 46.5,-51 L 45,-51
 L 48,-48 L 49.5,-48 L 49.5428,-47.9572 z
M 45,-48 L 46.5,-48 L 45,-49.5 L 45,-51 L 42,-54 L 42,-53.4703
 L 42.0242,-53.4604 L 42.0405,-53.4496 L 42.6024,-52.8877 L 42.6132,-52.8714 L 42.8314,-52.3418 L 42.977,-52.2908
 L 43.73,-50.7272 L 43.73,-47.77 L 45,-46.5 z
M 24,-54 L 24,-53.7874 L 24.2359,-53.7641 z
M 18.1,-53.7972 L 18.2028,-53.7972 L 18,-54 L 18,-53.7874 z
M 57,-51 L 54,-54 L 54,-52.5 L 55.5,-51 L 54,-51 L 54,-50.9105
 L 57,-50.9105 z
M 36.0028,-53.9972 L 36,-53.9972 L 36,-53.7972 L 36.2028,-53.7972 z
M 75,-48 L 75.854,-48 L 75.8462,-48.1003 L 75.8462,-48.4141 L 75.8572,-48.5549 L 75.8693,-48.6307
 L 75,-49.5 L 75,-51 L 73.1,-52.9 L 73.1,-52.7215 L 73.1105,-52.7146 L 73.6724,-52.1527
 L 73.6832,-52.1364 L 73.9778,-51.4214 L 73.9816,-51.4023 L 74.02,-51.0122 L 74.02,-49.3122 L 73.9816,-48.9221
 L 73.9778,-48.903 L 73.8485,-48.5893 L 73.9207,-48.3673 L 73.9536,-48.2299 L 74.0027,-47.9199 L 74.0138,-47.7791
 L 74.0138,-47.4862 L 75,-46.5 z
M 127.443,-52.5565 L 127.289,-52.7108 L 127.261,-52.5923 L 127.164,-52.2937 L 127.11,-52.1632 L 127.061,-52.0672
 L 127.11,-51.9712 L 127.164,-51.8407 L 127.261,-51.5421 L 127.294,-51.4048 L 127.331,-51.169 L 127.443,-51.0565
 z
M 135,-48 L 136.028,-48 L 136.151,-48.3493 L 135,-49.5 L 135,-50.7337 L 134.623,-50.9848
 L 134.176,-51.8198 L 134.176,-47.3235 L 135,-46.5 z
M 127.35,-51 L 127.354,-50.9541 L 127.354,-50.6403 L 127.343,-50.4995 L 127.294,-50.1897 L 127.261,-50.0523
 L 127.164,-49.7537 L 127.11,-49.6232 L 127.061,-49.5272 L 127.11,-49.4312 L 127.164,-49.3007 L 127.261,-49.0021
 L 127.294,-48.8647 L 127.343,-48.5549 L 127.354,-48.4141 L 127.354,-48.1003 L 127.346,-48 L 127.443,-48
 L 127.443,-51 z
M 15.3654,-51 L 15.24,-51 L 15.24,-50.76 L 15.2707,-50.7293 z
M 58.6767,-50.8233 L 58.5,-51 L 57,-51 L 57.0895,-50.9105 L 57.8467,-50.9105 L 57.9448,-50.9081
 L 58.0343,-50.9037 L 58.2289,-50.8846 L 58.3175,-50.8715 L 58.5111,-50.833 L 58.5981,-50.8112 L 58.6308,-50.8012
 z
M 75.9063,-50.1895 L 75.8572,-50.4995 L 75.8462,-50.6403 L 75.8462,-50.9541 L 75.8498,-51 L 75,-51
 L 75.9366,-50.0634 z
M 51.24,-50.9105 L 52.5895,-50.9105 L 52.5,-51 L 51,-51 L 51.1384,-50.8616 z
M 136.09,-50.0333 L 136.051,-50.0333 L 135.799,-50.201 L 136.09,-49.91 z
M 68.2373,-47.3243 L 68.2262,-47.4651 L 68.2262,-47.7793 L 68.2373,-47.9201 L 68.2863,-48.2297 L 68.3193,-48.3671
 L 68.3915,-48.5893 L 68.2622,-48.903 L 68.2584,-48.9221 L 68.22,-49.3122 L 68.22,-49.4372 L 67.3797,-49.4372
 L 67.3987,-49.3169 L 67.4098,-49.1761 L 67.4098,-48.8623 L 67.3987,-48.7215 L 67.3497,-48.4117 L 67.3167,-48.2743
 L 67.2276,-48 L 67.5,-48 L 68.2488,-47.2512 z
M 15.27,-49.23 L 15.24,-49.26 L 15.24,-48 L 15.27,-48 z
M 49.6624,-42.1742 L 49.947,-42.3112 L 49.5626,-42.8879 L 49.5626,-45.1065 L 50.095,-45.905 L 50.0402,-45.9598
 L 49.3351,-46.4746 L 49.3584,-46.6416 L 48,-48 L 48,-46.5 L 49.5,-45 L 48,-45
 L 48,-43.5 L 46.6623,-44.8377 L 46.6851,-44.807 L 46.7947,-44.6428 L 46.8601,-44.5336 L 46.9519,-44.3621
 L 47.0064,-44.247 L 47.0818,-44.0648 L 47.1248,-43.9449 L 47.1819,-43.7566 L 47.2128,-43.6331 L 47.2509,-43.4411
 L 47.2696,-43.3151 L 47.2889,-43.119 L 47.2951,-42.9919 L 47.2975,-42.8945 L 47.2975,-42.7025 L 48,-42
 L 49.5,-42 L 49.6487,-41.8513 z
M 21,-47.7272 L 20.27,-47.7272 L 20.27,-47.23 L 21,-46.5 z
M 38.73,-47.7272 L 37.7728,-47.7272 L 38.73,-46.77 z
M 127.443,-46.5565 L 127.11,-46.8898 L 127.164,-46.7607 L 127.261,-46.4621 L 127.294,-46.3248 L 127.343,-46.0149
 L 127.354,-45.8741 L 127.354,-45.5603 L 127.343,-45.4195 L 127.307,-45.1931 L 127.443,-45.0565 z
M 37.27,-46.73 L 37.27,-46.2672 L 37.7328,-46.2672 z
M 69,-40.5697 L 68.9628,-40.6069 L 68.8711,-40.7143 L 68.6866,-40.9682 L 68.6128,-41.0886 L 68.4703,-41.3682
 L 68.4163,-41.4987 L 68.3193,-41.7973 L 68.2863,-41.9346 L 68.2373,-42.2443 L 68.2262,-42.3851 L 68.2262,-42.6993
 L 68.2373,-42.8401 L 68.2863,-43.1497 L 68.3193,-43.2871 L 68.4163,-43.5857 L 68.4703,-43.7162 L 68.5193,-43.8122
 L 68.4703,-43.9082 L 68.4163,-44.0387 L 68.3193,-44.3373 L 68.2863,-44.4747 L 68.2373,-44.7843 L 68.2262,-44.9251
 L 68.2262,-45.2393 L 68.2373,-45.3801 L 68.2863,-45.6897 L 68.2909,-45.7091 L 67.4098,-46.5902 L 67.4098,-46.3223
 L 67.3987,-46.1815 L 67.3497,-45.8716 L 67.3167,-45.7343 L 67.2197,-45.4357 L 67.1742,-45.3258 L 67.5,-45
 L 67.2125,-45 L 67.2197,-44.9827 L 67.3167,-44.6841 L 67.3497,-44.5468 L 67.3987,-44.2369 L 67.4098,-44.0961
 L 67.4098,-43.7823 L 67.3987,-43.6415 L 67.3497,-43.3316 L 67.3167,-43.1943 L 67.2446,-42.9722 L 67.3738,-42.6584
 L 67.3776,-42.6393 L 67.416,-42.2492 L 67.416,-42 L 67.5,-42 L 69,-40.5 z
M 43.7755,-46.1834 L 43.8147,-46.1853 L 43.73,-46.27 L 43.73,-46.179 z
M 75,-42 L 76.092,-42 L 76.0903,-42.0034 L 76.0362,-42.1339 L 75.9393,-42.4321 L 75.9063,-42.5695
 L 75.9018,-42.5982 L 75,-43.5 L 75,-45 L 73.7879,-46.2121 L 73.8238,-46.1255 L 73.9207,-45.8273
 L 73.9536,-45.6899 L 74.0027,-45.3799 L 74.0138,-45.2391 L 74.0138,-44.9253 L 74.0027,-44.7845 L 73.9536,-44.4745
 L 73.9207,-44.3371 L 73.8238,-44.0389 L 73.7697,-43.9084 L 73.7207,-43.8122 L 73.7697,-43.716 L 73.8238,-43.5855
 L 73.9207,-43.2873 L 73.9536,-43.1499 L 74.0027,-42.8399 L 74.0138,-42.6991 L 74.0138,-42.3853 L 74.0027,-42.2445
 L 73.9536,-41.9344 L 73.9207,-41.7971 L 73.8672,-41.6328 L 75,-40.5 z
M 135,-40.7046 L 135,-42 L 136.5,-42 L 135,-43.5 L 135,-45 L 134.176,-45.8235
 L 134.176,-41.3235 L 134.877,-40.6228 z
M 127.267,-45 L 127.261,-44.9723 L 127.164,-44.6737 L 127.11,-44.5432 L 127.061,-44.4472 L 127.11,-44.3512
 L 127.164,-44.2207 L 127.261,-43.9221 L 127.294,-43.7847 L 127.343,-43.4749 L 127.354,-43.3341 L 127.354,-43.0203
 L 127.343,-42.8795 L 127.294,-42.5697 L 127.261,-42.4323 L 127.164,-42.1337 L 127.11,-42.0032 L 127.108,-42
 L 127.443,-42 L 127.443,-45 z
M 15.27,-45 L 15.24,-45 L 15.24,-44.76 L 15.27,-44.73 z
M 76.0362,-44.2205 L 76.0903,-44.351 L 76.1393,-44.4472 L 76.0903,-44.5434 L 76.0362,-44.6739 L 75.9393,-44.9721
 L 75.9326,-45 L 75,-45 L 75.9733,-44.0267 z
M 137.543,-42.5725 L 137.765,-42.7944 L 137.872,-42.8861 L 138.054,-43.0185 L 137.727,-43.1533 L 137.711,-43.1641
 L 137.543,-43.3316 L 136.623,-43.6535 L 135.975,-45 L 135,-45 L 137.49,-42.5103 z
M 15.3045,-43.1955 L 15.24,-43.26 L 15.24,-42 L 15.8802,-42 z
M 49.562,-40.1766 L 49.5783,-40.2011 L 49.5873,-40.4127 L 48,-42 L 48,-40.5 L 49.4098,-39.0902
 z
M 21,-41.0043 L 20.7478,-40.7522 L 21,-40.5 z
M 75,-36 L 75.8802,-36 L 75.9063,-36.1649 L 75.9393,-36.3023 L 76.0027,-36.4973 L 75,-37.5
 L 75,-39 L 73.3306,-40.6694 L 73.2772,-40.6069 L 73.0553,-40.385 L 72.9479,-40.2933 L 72.694,-40.1088
 L 72.5735,-40.035 L 72.5016,-39.9984 L 73.5,-39 L 72,-39 L 72,-37.5 L 70.5,-39
 L 69,-39 L 72,-36 L 73.5,-36 L 75,-34.5 z
M 127.443,-40.5565 L 127.354,-40.6462 L 127.354,-40.4803 L 127.343,-40.3395 L 127.294,-40.0296 L 127.261,-39.8923
 L 127.164,-39.5936 L 127.11,-39.4632 L 127.085,-39.4149 L 127.443,-39.0565 z
M 69,-36 L 70.5,-36 L 69,-37.5 L 69,-39 L 67.416,-40.584 L 67.416,-40.5492
 L 67.3776,-40.1591 L 67.3738,-40.14 L 67.0799,-39.4261 L 67.0775,-39.4225 L 67.5,-39 L 66.6594,-39
 L 66.5058,-38.8463 L 66.4894,-38.8355 L 66,-38.6339 L 66,-37.5 L 65.0008,-38.4992 L 63.9308,-38.4992
 L 63.9308,-38.0692 L 66,-36 L 67.5,-36 L 69,-34.5 z
M 37.2547,-36.2012 L 37.3556,-36.2482 L 37.3965,-36.1603 L 38.2,-36.5472 L 38.5914,-36.5472 L 38.6693,-36.554
 L 38.6699,-36.5472 L 38.6783,-36.5472 L 38.6783,-36.4523 L 38.8318,-36.5103 L 38.8268,-36.5677 L 38.9811,-36.5811
 L 39.0037,-36.5754 L 39.0192,-36.5812 L 39.1743,-36.5677 L 39.1712,-36.5327 L 39.3219,-36.4943 L 39.3219,-36.5472
 L 39.3304,-36.5472 L 39.331,-36.554 L 39.409,-36.5472 L 39.8,-36.5472 L 40.0351,-36.4649 L 39,-37.5
 L 39,-39 L 37.483,-40.517 L 36.8092,-40.2394 L 36.7901,-40.2356 L 36.4,-40.1972 L 36.3028,-40.1972
 L 37.5,-39 L 36,-39 L 36,-37.5 L 34.5,-39 L 33.1145,-39 L 33.0751,-38.9249
 L 35.4528,-36.5472 L 35.8,-36.5472 L 37.047,-36.1109 L 37.0581,-36.0878 z
M 25.0475,-36.0816 L 25.2547,-36.2012 L 25.3556,-36.2482 L 25.3965,-36.1603 L 26.2,-36.5472 L 26.5914,-36.5472
 L 26.6693,-36.554 L 26.6699,-36.5472 L 26.6783,-36.5472 L 26.6783,-36.4523 L 26.8318,-36.5103 L 26.8268,-36.5677
 L 26.9811,-36.5811 L 27.0037,-36.5754 L 27.0192,-36.5812 L 27.1743,-36.5677 L 27.1712,-36.5327 L 27.3219,-36.4943
 L 27.3219,-36.5472 L 27.3304,-36.5472 L 27.331,-36.554 L 27.409,-36.5472 L 27.8,-36.5472 L 28.0351,-36.4649
 L 27,-37.5 L 27,-38.7626 L 26.3099,-39.6901 L 25.9901,-40.0099 L 25.9016,-40.0099 L 25.7858,-40.0156
 L 25.5907,-40.0349 L 25.4761,-40.0518 L 25.2833,-40.0902 L 25.1708,-40.1184 L 24.9839,-40.1751 L 24.8748,-40.2141
 L 24.6925,-40.2896 L 24.5877,-40.3392 L 24.5719,-40.3477 L 24.3092,-40.2394 L 24.2901,-40.2356 L 24.2667,-40.2333
 L 25.5,-39 L 24,-39 L 24,-37.5 L 22.5,-39 L 21,-39 L 24,-36
 L 24.8779,-36 z
M 21,-36 L 22.5,-36 L 21,-37.5 L 21,-39 L 19.7667,-40.2333 L 19.4,-40.1972
 L 18.3028,-40.1972 L 19.5,-39 L 18,-39 L 18,-37.5 L 16.5,-39 L 15.24,-39
 L 15.24,-38.76 L 18,-36 L 19.5,-36 L 21,-34.5 z
M 134.245,-39.7545 L 134.176,-39.8235 L 134.176,-39.6256 z
M 127.209,-39 L 127.261,-38.8421 L 127.294,-38.7047 L 127.343,-38.3949 L 127.354,-38.2541 L 127.354,-37.9403
 L 127.343,-37.7995 L 127.294,-37.4897 L 127.261,-37.3523 L 127.164,-37.0537 L 127.11,-36.9232 L 127.061,-36.8272
 L 127.11,-36.7312 L 127.164,-36.6007 L 127.261,-36.3021 L 127.294,-36.1647 L 127.32,-36 L 127.443,-36
 L 127.443,-39 z
M 49.5783,-36.2011 L 49.6624,-38.1742 L 49.691,-38.1879 L 49.3212,-38.4579 L 49.3971,-39 L 48,-39
 L 48,-37.5 L 47.2975,-38.2025 L 47.2975,-36.7025 L 48,-36 L 49.5,-36 L 49.5327,-35.9673
 L 49.562,-36.1766 z
M 40.7025,-38.7975 L 40.5,-39 L 39,-39 L 40.7025,-37.2975 z
M 75.8462,-38.2541 L 75.8572,-38.3949 L 75.9063,-38.7049 L 75.9393,-38.8423 L 75.9906,-39 L 75,-39
 L 75.8462,-38.1538 z
M 33.2547,-36.2012 L 33.3556,-36.2482 L 33.3965,-36.1603 L 34.0332,-36.4668 L 33,-37.5 L 33,-38.7813
 L 32.5042,-37.8344 L 30.7901,-37.5624 L 30,-37.7995 L 30,-37.5 L 29.5722,-37.9278 L 27.4294,-38.5706
 L 29.6957,-36.3043 L 30.2,-36.5472 L 30.5914,-36.5472 L 30.6693,-36.554 L 30.6699,-36.5472 L 30.6783,-36.5472
 L 30.6783,-36.4523 L 30.8318,-36.5103 L 30.8268,-36.5677 L 30.9811,-36.5811 L 31.0037,-36.5754 L 31.0192,-36.5812
 L 31.1743,-36.5677 L 31.1712,-36.5327 L 31.3219,-36.4943 L 31.3219,-36.5472 L 31.3304,-36.5472 L 31.331,-36.554
 L 31.409,-36.5472 L 31.8,-36.5472 L 33.047,-36.1109 L 33.0581,-36.0878 z
M 15.24,-37.26 L 15.24,-36 L 16.5,-36 z
M 64.5,-36 L 63.9308,-36.5692 L 63.9308,-36 z
M 24.0858,-35.6185 L 24.2854,-35.7146 L 24,-36 L 24,-35.5327 z
M 21,-30 L 22.5,-30 L 21,-31.5 L 21,-33 L 18,-36 L 18,-34.5
 L 19.5,-33 L 18,-33 L 18,-31.5 L 16.5,-33 L 15.24,-33 L 15.24,-32.76
 L 18,-30 L 19.5,-30 L 21,-28.5 z
M 47.9,-30.6922 L 47.9385,-31.0826 L 47.9423,-31.1017 L 48.2368,-31.8164 L 48.2476,-31.8327 L 48.8095,-32.3946
 L 48.8258,-32.4054 L 49.5408,-32.7 L 49.5599,-32.7038 L 49.95,-32.7422 L 51,-32.7422 L 51,-33
 L 50.1397,-33.8603 L 49.3212,-34.4579 L 49.3483,-34.6517 L 48,-36 L 48,-34.5 L 49.5,-33
 L 48,-33 L 48,-31.5 L 47.2935,-32.2065 L 47.2935,-30.7065 L 47.9,-30.1 z
M 72.9995,-33.6441 L 73.3094,-33.6932 L 73.503,-33.7084 L 73.817,-33.7084 L 74.0106,-33.6932 L 74.3205,-33.6441
 L 74.3671,-33.6329 L 72,-36 L 72,-34.5 L 72.8837,-33.6163 z
M 67.253,-33.4275 L 67.4324,-33.5018 L 67.7307,-33.5987 L 67.9194,-33.6441 L 68.2294,-33.6932 L 68.3012,-33.6988
 L 66,-36 L 66,-34.5 L 67.1334,-33.3666 z
M 127.443,-34.5565 L 127.243,-34.7572 L 127.164,-34.5137 L 127.11,-34.3832 L 127.061,-34.2872 L 127.11,-34.1912
 L 127.164,-34.0607 L 127.261,-33.7621 L 127.294,-33.6248 L 127.343,-33.3149 L 127.354,-33.1741 L 127.354,-33.1462
 L 127.443,-33.0565 z
M 57,-30 L 57.33,-30 L 57.33,-31.17 L 57,-31.5 L 57,-33 L 56.9328,-33.0672
 L 55.4328,-33.0672 L 55.5,-33 L 54,-33 L 54,-32.6633 L 54.0849,-32.6429 L 54.3835,-32.5459
 L 54.514,-32.4919 L 54.7935,-32.3494 L 54.914,-32.2756 L 55.1679,-32.0911 L 55.2753,-31.9994 L 55.4972,-31.7775
 L 55.5889,-31.6701 L 55.7735,-31.416 L 55.8473,-31.2956 L 55.9896,-31.0162 L 56.0437,-30.8857 L 56.1407,-30.5873
 L 56.1736,-30.45 L 56.2227,-30.1399 L 56.2338,-29.9991 L 56.2338,-29.6853 L 56.2227,-29.5445 L 56.1862,-29.3138
 L 57,-28.5 z
M 127.354,-33 L 127.354,-32.8603 L 127.343,-32.7195 L 127.294,-32.4097 L 127.261,-32.2723 L 127.164,-31.9737
 L 127.11,-31.8432 L 127.061,-31.7472 L 127.11,-31.6512 L 127.164,-31.5207 L 127.261,-31.2221 L 127.294,-31.0847
 L 127.343,-30.7749 L 127.354,-30.6341 L 127.354,-30.3203 L 127.343,-30.1795 L 127.314,-30 L 127.443,-30
 L 127.443,-33 z
M 66.1841,-32.651 L 66.4061,-32.873 L 66.5538,-32.9991 L 66.555,-33 L 66,-33 L 66,-32.4234
 L 66.058,-32.5033 z
M 23.5,-30.5382 L 23.466,-30.928 L 23.5112,-31.1055 L 23.5,-31.1055 L 23.5,-31.3589 L 23.4975,-31.3642
 L 23.3787,-31.483 L 22.8055,-32.6733 L 22.811,-32.689 L 22.5,-33 L 21,-33 L 23.5,-30.5
 z
M 57.7663,-32.9842 L 57.7992,-33 L 57,-33 L 57.5718,-32.4282 z
M 52.5951,-32.6429 L 52.7325,-32.6759 L 52.8116,-32.6884 L 52.5,-33 L 51,-33 L 51.2578,-32.7422
 L 51.65,-32.7422 L 52.0401,-32.7038 L 52.0592,-32.7 L 52.3729,-32.5707 z
M 75.8462,-33 L 75.685,-33 L 75.6861,-32.9992 L 75.8338,-32.8731 L 75.8462,-32.8607 z
M 15.24,-31.26 L 15.24,-30 L 16.5,-30 z
M 21.6679,-24.2723 L 21.8041,-24.3287 L 22.0812,-24.4188 L 21,-25.5 L 21,-27 L 18,-30
 L 18,-28.5 L 19.5,-27 L 18,-27 L 18,-26.2462 L 18.28,-26.2462 L 19.527,-25.8098
 L 20.1483,-24.5197 L 20.1631,-24.5208 L 20.4769,-24.5208 L 20.6239,-24.5093 L 20.9339,-24.4602 L 21.0773,-24.4258
 L 21.3759,-24.3287 L 21.5121,-24.2723 L 21.59,-24.2326 z
M 26.7322,-23.6744 L 27,-23.5941 L 27,-24 L 28.5,-24 L 27,-25.5 L 27,-27
 L 26.5528,-27.4472 L 26.2,-27.4472 L 24.953,-27.8835 L 24.8922,-28.0098 L 24.7804,-28.0881 L 24.5132,-28.3123
 L 24.365,-28.4605 L 24.3247,-28.5085 L 24.253,-28.5335 L 24.1848,-28.6752 L 24.1408,-28.7277 L 24.0206,-28.8994
 L 24,-28.935 L 24,-28.5 L 25.5,-27 L 24,-27 L 24,-25.5 L 22.5,-27
 L 21,-27 L 23.5607,-24.4393 L 23.6172,-24.4258 L 23.9159,-24.3287 L 24.0521,-24.2723 L 24.3316,-24.1299
 L 24.4574,-24.0528 L 24.53,-24 L 25.5,-24 L 25.9497,-23.5503 z
M 127.443,-28.5565 L 127.233,-28.7668 L 127.261,-28.6821 L 127.294,-28.5448 L 127.343,-28.2349 L 127.354,-28.0941
 L 127.354,-27.7803 L 127.343,-27.6395 L 127.294,-27.3297 L 127.27,-27.2302 L 127.443,-27.0565 z
M 55.7559,-28.2441 L 55.5889,-28.0143 L 55.5085,-27.9201 L 56.0799,-27.9201 z
M 7.12,-26.2462 L 8.12,-26.2462 L 9,-25.9383 L 9,-27 L 8.06281,-27.9372 L 6.56281,-27.9372
 L 7.5,-27 L 6,-27 L 6,-26.0992 L 6.47191,-25.9341 z
M 14.74,-26.2462 L 15,-26.2462 L 15,-27 L 14.8293,-27.1707 L 14.7853,-27.1613 L 14.5517,-27.1509
 L 14.3196,-27.1788 L 14.0952,-27.2444 L 13.8845,-27.3458 L 13.6934,-27.4804 L 13.5268,-27.6445 L 13.3894,-27.8337
 L 13.335,-27.9372 L 12.5628,-27.9372 L 13.5,-27 L 12,-27 L 12,-26.1499 L 12.2,-26.2462
 L 13.2,-26.2462 L 14.0919,-25.9341 z
M 135,-24 L 136.5,-24 L 135,-25.5 L 135,-27 L 134.176,-27.8235 L 134.176,-27.4619
 L 132.751,-25.5462 L 130.984,-25.0161 L 132,-24 L 133.5,-24 L 135,-22.5 z
M 33,-24 L 34.5,-24 L 33,-25.5 L 33,-27 L 32.3081,-27.6919 L 31.8,-27.4472
 L 31.4093,-27.4472 L 31.332,-27.4404 L 31.3314,-27.4472 L 31.3214,-27.4472 L 31.3214,-27.5423 L 31.1701,-27.4851
 L 31.1753,-27.4266 L 31.0817,-27.4183 L 31.5,-27 L 30,-27 L 30,-25.5 L 28.5,-27
 L 27,-27 L 30,-24 L 31.5,-24 L 33,-22.5 z
M 2.03999,-26.2462 L 3,-26.2462 L 3,-27 L 2.50894,-27.4911 L 2.2809,-27.3775 L 1.93159,-27.1613
 L 1.60379,-26.9137 L 1.30019,-26.637 L 1.0235,-26.3334 L 0.775894,-26.0056 L 0.559692,-25.6563 L 0.479126,-25.4945
 z
M 130.5,-24 L 129.715,-24.7849 L 128.197,-25.0783 L 127.443,-26.642 L 127.443,-27 L 127.198,-27
 L 127.164,-26.8937 L 127.11,-26.7632 L 126.967,-26.4835 L 126.893,-26.3631 L 126.709,-26.1093 L 126.617,-26.0019
 L 126.395,-25.78 L 126.288,-25.6883 L 126.034,-25.5038 L 125.914,-25.43 L 125.634,-25.2875 L 125.503,-25.2335
 L 125.205,-25.1365 L 125.068,-25.1035 L 124.92,-25.0801 L 126,-24 L 127.5,-24 L 129,-22.5
 L 129,-24 z
M 11.5614,-25.9386 L 10.5,-27 L 9,-27 L 9.75381,-26.2462 L 10.6599,-26.2462 L 11.5519,-25.9341
 z
M 136.09,-26.1072 L 136.09,-27 L 135,-27 L 136.273,-25.7268 z
M 4.57999,-26.2462 L 5.25381,-26.2462 L 4.5,-27 L 3,-27 L 4.02235,-25.9776 z
M 39,-24 L 40.5,-24 L 39.3945,-25.1055 L 39.31,-25.0972 L 37.61,-25.0972 L 37.2196,-25.1357
 L 37.2005,-25.1395 L 36.4876,-25.4328 L 36.4713,-25.4436 L 36,-25.9149 L 36,-25.5 L 34.5,-27
 L 33,-27 L 36,-24 L 37.5,-24 L 39,-22.5 z
M 17.2623,-26.2377 L 16.5,-27 L 15,-27 L 15.7613,-26.2387 L 16.6319,-25.9341 z
M 69,-23.11 L 68.8114,-23.2061 L 68.7384,-23.2508 L 68.4845,-23.4353 L 68.4195,-23.4908 L 68.1976,-23.7127
 L 68.1421,-23.7777 L 67.9576,-24.0316 L 67.9129,-24.1046 L 67.8941,-24.1414 L 67.7308,-24.1806 L 67.4322,-24.2776
 L 67.2528,-24.3519 L 66.9732,-24.4944 L 66.8076,-24.5958 L 66.5538,-24.7803 L 66.4061,-24.9064 L 66.1842,-25.1283
 L 66.0581,-25.276 L 65.8736,-25.5298 L 65.86,-25.5521 L 65.86,-24.2022 L 65.8439,-24.1561 L 66,-24
 L 67.5,-24 L 69,-22.5 z
M 0.471313,-25.4788 L 0.376587,-25.2886 L 0.228195,-24.9055 L 0.115799,-24.5104 L 0.0966949,-24.4082 z
M 123,-24 L 124.5,-24 L 123.172,-25.3275 L 123.094,-25.2875 L 122.963,-25.2335 L 122.665,-25.1365
 L 122.528,-25.1035 L 122.218,-25.0545 L 122.077,-25.0434 L 121.763,-25.0434 L 121.622,-25.0545 L 121.312,-25.1035
 L 121.175,-25.1365 L 120.876,-25.2335 L 120.746,-25.2875 L 120.65,-25.3365 L 120.554,-25.2875 L 120.423,-25.2335
 L 120.125,-25.1365 L 119.988,-25.1035 L 119.678,-25.0545 L 119.537,-25.0434 L 119.223,-25.0434 L 119.082,-25.0545
 L 118.92,-25.0802 L 120,-24 L 121.5,-24 L 123,-22.5 z
M 117,-24 L 118.5,-24 L 117.403,-25.0965 L 117.177,-25.0606 L 117.134,-24.7895 L 117.101,-24.6521
 L 117.004,-24.3537 L 116.95,-24.2232 L 116.807,-23.9436 L 116.733,-23.8232 L 116.549,-23.5692 L 116.457,-23.4618
 L 116.248,-23.2523 L 117,-22.5 z
M 141,-24 L 142.5,-24 L 141.958,-24.5417 L 141.953,-24.5435 L 141.95,-24.5502 L 141.68,-24.8199
 L 140.2,-24.1072 L 138.09,-24.1072 L 137.787,-24.2133 L 138,-24 L 139.5,-24 L 141,-22.5
 z
M 75,-24 L 76.0774,-24 L 76.0903,-24.0311 L 76.1393,-24.1272 L 76.0903,-24.2234 L 76.0362,-24.3539
 L 75.9833,-24.5167 L 75.7043,-24.7957 L 75.6861,-24.7802 L 75.4323,-24.5958 L 75.2668,-24.4944 L 74.9872,-24.3519
 L 74.8078,-24.2776 L 74.5092,-24.1806 L 74.3459,-24.1414 L 74.3271,-24.1046 L 74.2824,-24.0316 L 74.0979,-23.7777
 L 74.0424,-23.7127 L 73.9148,-23.5852 L 75,-22.5 z
M 0.0399933,-24.1033 L 0.030426,-24 L 0.0399933,-24 z
M 129,-18 L 130.5,-18 L 129,-19.5 L 129,-21 L 126,-24 L 126,-22.5
 L 127.5,-21 L 126,-21 L 126,-19.5 L 124.5,-21 L 123,-21 L 126,-18
 L 127.5,-18 L 129,-16.5 z
M 123,-18 L 124.5,-18 L 123,-19.5 L 123,-21 L 120,-24 L 120,-22.5
 L 121.5,-21 L 120,-21 L 120,-19.5 L 118.5,-21 L 117,-21 L 118.696,-19.304
 L 118.787,-19.3112 L 119.101,-19.3112 L 119.242,-19.3001 L 119.552,-19.2511 L 119.689,-19.2181 L 119.988,-19.1211
 L 120.118,-19.067 L 120.398,-18.9245 L 120.518,-18.8508 L 120.772,-18.6663 L 120.88,-18.5746 L 121.102,-18.3527
 L 121.193,-18.2453 L 121.199,-18.2377 L 121.403,-18.2377 L 121.544,-18.2267 L 121.854,-18.1776 L 121.991,-18.1446
 L 122.29,-18.0476 L 122.42,-17.9935 L 122.7,-17.8511 L 122.82,-17.7773 L 123,-17.6467 z
M 30,-24 L 30,-22.6941 L 31.8656,-22.1344 z
M 135,-18 L 136.5,-18 L 135,-19.5 L 135,-21 L 132,-24 L 132,-22.5
 L 133.5,-21 L 132,-21 L 132,-19.5 L 130.5,-21 L 129,-21 L 132,-18
 L 133.5,-18 L 135,-16.5 z
M 40.5,-18 L 39,-19.5 L 39,-21 L 36,-24 L 36,-22.5 L 37.5,-21
 L 36,-21 L 36,-19.5 L 35.2489,-20.2511 L 35.8425,-19.4533 L 35.8425,-19.0605 L 35.8553,-19.067
 L 35.9858,-19.1211 L 36.2844,-19.2181 L 36.4218,-19.2511 L 36.7314,-19.3001 L 36.8722,-19.3112 L 37.1864,-19.3112
 L 37.3272,-19.3001 L 37.6369,-19.2511 L 37.7742,-19.2181 L 38.0728,-19.1211 L 38.2033,-19.067 L 38.4828,-18.9246
 L 38.6033,-18.8508 L 38.8572,-18.6663 L 38.9646,-18.5746 L 39.1866,-18.3526 L 39.2783,-18.2452 L 39.2837,-18.2377
 L 39.4882,-18.2377 L 39.629,-18.2267 L 39.939,-18.1776 L 40.0764,-18.1446 L 40.3748,-18.0476 L 40.4897,-18
 z
M 141,-18 L 142.5,-18 L 141,-19.5 L 141,-21 L 138,-24 L 138,-22.5
 L 139.5,-21 L 138,-21 L 138,-19.5 L 136.5,-21 L 135,-21 L 138,-18
 L 139.5,-18 L 141,-16.5 z
M 69,-18 L 70.5,-18 L 69,-19.5 L 69,-21 L 66,-24 L 66,-22.5
 L 67.5,-21 L 66,-21 L 66,-19.5 L 64.5,-21 L 63,-21 L 64.7126,-19.2874
 L 64.9418,-19.2511 L 65.0792,-19.2181 L 65.3778,-19.1211 L 65.5083,-19.067 L 65.7879,-18.9245 L 65.9084,-18.8508
 L 66.1622,-18.6663 L 66.2696,-18.5746 L 66.4915,-18.3527 L 66.5832,-18.2453 L 66.5887,-18.2377 L 66.7932,-18.2377
 L 66.934,-18.2267 L 67.244,-18.1776 L 67.3814,-18.1446 L 67.6798,-18.0476 L 67.8103,-17.9935 L 68.09,-17.851
 L 68.2104,-17.7773 L 68.4642,-17.5928 L 68.5716,-17.5011 L 68.7935,-17.2792 L 68.8852,-17.1718 L 68.8906,-17.1643
 L 69,-17.1643 z
M 0.0399933,-23.1284 L 0.0399933,-23.96 L 0.0278473,-23.9722 L 0.00239563,-23.6976 L 0,-23.4922 L 0,-23.0632
 z
M 75,-18 L 76.5,-18 L 75,-19.5 L 75,-21 L 72.9939,-23.0061 L 72.7713,-22.9338
 L 72.6881,-22.9139 L 72.3782,-22.8648 L 72.2929,-22.8581 L 72,-22.8581 L 72,-22.5 L 73.5,-21
 L 72,-21 L 72,-19.5 L 70.5,-21 L 69,-21 L 72,-18 L 73.5,-18
 L 75,-16.5 z
M 116.241,-17.4607 L 116.295,-17.5912 L 116.437,-17.871 L 116.511,-17.9915 L 116.695,-18.2453 L 116.787,-18.3527
 L 117.009,-18.5746 L 117.116,-18.6663 L 117.37,-18.8508 L 117.491,-18.9246 L 117.547,-18.9532 L 117,-19.5
 L 117,-21 L 115.316,-22.6844 L 115.045,-22.5965 L 114.908,-22.5635 L 114.637,-22.5206 L 114.594,-22.2495
 L 114.561,-22.1121 L 114.518,-21.9817 L 115.5,-21 L 114,-21 L 114,-19.5 L 113.171,-20.3285
 L 112.934,-20.2075 L 112.803,-20.1535 L 112.505,-20.0565 L 112.368,-20.0235 L 112.058,-19.9744 L 112.028,-19.9721
 L 114,-18 L 115.5,-18 L 116.191,-17.3088 z
M 61.9009,-17.9915 L 62.0854,-18.2453 L 62.1771,-18.3527 L 62.399,-18.5746 L 62.5064,-18.6663 L 62.7603,-18.8508
 L 62.8807,-18.9246 L 63.1603,-19.067 L 63.2908,-19.1211 L 63.3573,-19.1427 L 63,-19.5 L 63,-21
 L 61.7978,-22.2022 L 60.2978,-22.2022 L 61.5,-21 L 60,-21 L 60,-19.5 L 59.1095,-20.3905
 L 59.1615,-20.2933 L 59.2007,-20.2106 L 59.2764,-20.0278 L 59.3073,-19.9418 L 59.3645,-19.753 L 59.3867,-19.6642
 L 59.4245,-19.4743 L 59.438,-19.3838 L 59.4576,-19.1846 L 59.462,-19.0932 L 59.462,-18.9011 L 59.4576,-18.8097
 L 59.438,-18.6106 L 59.4317,-18.5683 L 60,-18 L 61.5,-18 L 61.7602,-17.7398 L 61.8271,-17.871
 z
M 42.3622,-18.0059 L 42.2534,-18.0711 L 42.0905,-18.1799 L 41.9885,-18.2555 L 41.8362,-18.3804 L 41.7421,-18.4657
 L 41.6034,-18.6045 L 41.5182,-18.6985 L 41.3933,-18.8507 L 41.3177,-18.9527 L 41.2093,-19.115 L 41.144,-19.2239
 L 41.0509,-19.398 L 40.9967,-19.5127 L 40.9221,-19.6928 L 40.8793,-19.8123 L 40.8223,-20.0002 L 40.7914,-20.1234
 L 40.7529,-20.3167 L 40.7343,-20.4422 L 40.7151,-20.6378 L 40.7089,-20.7646 L 40.7082,-20.7918 L 40.5,-21
 L 39,-21 L 42,-18 L 42.3733,-18 z
M 143.51,-19.99 L 142.5,-21 L 141,-21 L 143.51,-18.49 z
M 81,-18 L 82.5,-18 L 81,-19.5 L 81,-19.9731 L 80.9823,-19.9744 L 80.6725,-20.0235
 L 80.5351,-20.0565 L 80.2365,-20.1535 L 80.106,-20.2075 L 80.01,-20.2565 L 79.914,-20.2075 L 79.7835,-20.1535
 L 79.4849,-20.0565 L 79.3475,-20.0235 L 79.0377,-19.9744 L 78.8969,-19.9634 L 78.5831,-19.9634 L 78.4423,-19.9744
 L 78.1324,-20.0235 L 78,-20.0553 L 78,-19.5 L 76.5,-21 L 75,-21 L 78,-18
 L 79.5,-18 L 81,-16.5 z
M 111,-18 L 112.5,-18 L 111,-19.5 L 111,-20.0614 L 110.716,-20.1535 L 110.586,-20.2075
 L 110.49,-20.2565 L 110.394,-20.2075 L 110.263,-20.1535 L 109.965,-20.0565 L 109.828,-20.0235 L 109.518,-19.9744
 L 109.377,-19.9634 L 109.063,-19.9634 L 108.922,-19.9744 L 108.612,-20.0235 L 108.475,-20.0565 L 108.176,-20.1535
 L 108.046,-20.2075 L 108,-20.231 L 108,-19.5 L 107.439,-20.061 L 107.425,-20.0565 L 107.288,-20.0235
 L 106.978,-19.9744 L 106.837,-19.9634 L 106.523,-19.9634 L 106.382,-19.9744 L 106.072,-20.0235 L 105.946,-20.0538
 L 108,-18 L 109.5,-18 L 111,-16.5 z
M 105,-18 L 106.5,-18 L 105,-19.5 L 105,-20.0939 L 104.885,-20.0565 L 104.748,-20.0235
 L 104.438,-19.9744 L 104.297,-19.9634 L 103.983,-19.9634 L 103.842,-19.9744 L 103.532,-20.0235 L 103.395,-20.0565
 L 103.096,-20.1535 L 102.966,-20.2075 L 102.87,-20.2565 L 102.774,-20.2075 L 102.643,-20.1535 L 102.345,-20.0565
 L 102.208,-20.0235 L 102,-19.9906 L 102,-19.5 L 101.537,-19.9634 L 101.443,-19.9634 L 101.302,-19.9744
 L 100.992,-20.0235 L 100.855,-20.0565 L 100.557,-20.1535 L 100.426,-20.2075 L 100.33,-20.2565 L 100.234,-20.2075
 L 100.103,-20.1535 L 99.9095,-20.0905 L 102,-18 L 103.5,-18 L 105,-16.5 z
M 87,-18 L 88.5,-18 L 87,-19.5 L 87,-20.0313 L 86.9675,-20.0235 L 86.6577,-19.9744
 L 86.5169,-19.9634 L 86.2031,-19.9634 L 86.0623,-19.9744 L 85.7525,-20.0235 L 85.6151,-20.0565 L 85.3165,-20.1535
 L 85.186,-20.2075 L 85.09,-20.2565 L 84.994,-20.2076 L 84.8636,-20.1535 L 84.5649,-20.0565 L 84.4275,-20.0235
 L 84.1177,-19.9744 L 84,-19.9652 L 84,-19.5 L 83.5258,-19.9742 L 83.5223,-19.9744 L 83.2124,-20.0235
 L 83.0751,-20.0565 L 82.7764,-20.1535 L 82.646,-20.2076 L 82.55,-20.2565 L 82.454,-20.2075 L 82.3235,-20.1535
 L 82.0249,-20.0565 L 81.9593,-20.0407 L 84,-18 L 85.5,-18 L 87,-16.5 z
M 93,-19.5 L 93,-20.1329 L 92.9365,-20.1535 L 92.806,-20.2075 L 92.71,-20.2565 L 92.614,-20.2075
 L 92.4835,-20.1535 L 92.1849,-20.0565 L 92.0475,-20.0235 L 91.7377,-19.9744 L 91.5969,-19.9634 L 91.2831,-19.9634
 L 91.1423,-19.9744 L 90.8324,-20.0235 L 90.6951,-20.0565 L 90.3965,-20.1535 L 90.266,-20.2075 L 90.17,-20.2565
 L 90.074,-20.2075 L 90,-20.1769 L 90,-19.5 L 89.4807,-20.0193 L 89.1977,-19.9744 L 89.0569,-19.9634
 L 88.7431,-19.9634 L 88.6023,-19.9744 L 88.2924,-20.0235 L 88.1551,-20.0565 L 87.8565,-20.1535 L 87.8395,-20.1605
 L 89.5647,-18.4353 L 89.704,-18.5746 L 89.8114,-18.6663 L 90.0652,-18.8508 L 90.1856,-18.9245 L 90.4653,-19.067
 L 90.5958,-19.1211 L 90.8944,-19.2181 L 91.0318,-19.2511 L 91.3414,-19.3001 L 91.4822,-19.3112 L 91.7964,-19.3112
 L 91.9372,-19.3001 L 92.2469,-19.2511 L 92.3842,-19.2181 L 92.6828,-19.1211 L 92.8133,-19.067 L 93.0928,-18.9246
 L 93.2133,-18.8508 L 93.4672,-18.6663 L 93.5746,-18.5746 L 93.7966,-18.3526 L 93.8883,-18.2452 L 93.8937,-18.2377
 L 94.0982,-18.2377 L 94.239,-18.2267 L 94.2798,-18.2202 z
M 99,-18 L 100.5,-18 L 99,-19.5 L 99,-19.9634 L 98.9031,-19.9634 L 98.7623,-19.9744
 L 98.4525,-20.0235 L 98.3151,-20.0565 L 98.0165,-20.1535 L 97.886,-20.2075 L 97.79,-20.2565 L 97.694,-20.2075
 L 97.5635,-20.1535 L 97.2649,-20.0565 L 97.1275,-20.0235 L 96.8177,-19.9744 L 96.6769,-19.9634 L 96.3631,-19.9634
 L 96.2223,-19.9744 L 96,-20.0096 L 96,-19.5 L 95.2457,-20.2543 L 95.154,-20.2075 L 95.0235,-20.1535
 L 94.7249,-20.0565 L 94.5876,-20.0235 L 94.2777,-19.9744 L 94.1369,-19.9634 L 94.0366,-19.9634 L 96,-18
 L 97.5,-18 L 99,-16.5 z
M 60.9918,-16.1114 L 61.1904,-16.4472 L 61.2019,-16.4629 L 61.3769,-16.6231 L 60,-18 L 60,-16.5
 L 60.8,-15.7 z
M 75,-15 L 72,-18 L 72,-16.5 L 73.0163,-15.4837 L 73.0683,-15.4459 L 73.1757,-15.3542
 L 73.3976,-15.1323 L 73.4893,-15.0249 L 73.4947,-15.0174 L 73.6993,-15.0174 L 73.8401,-15.0063 L 74.1501,-14.9572
 L 74.2875,-14.9243 L 74.5859,-14.8273 L 74.7164,-14.7732 L 74.9959,-14.6308 L 75,-14.6283 z
M 96,-18 L 96,-17.3777 L 96.0985,-17.2792 L 96.1902,-17.1718 L 96.1956,-17.1643 L 96.4002,-17.1643
 L 96.541,-17.1532 L 96.8508,-17.1042 L 96.91,-17.09 z
M 135,-12 L 136.5,-12 L 135,-13.5 L 135,-15 L 132,-18 L 132,-16.5
 L 133.5,-15 L 132,-15 L 132,-13.5009 L 132.028,-13.4835 L 132.282,-13.299 L 132.39,-13.2073
 L 132.612,-12.9854 L 132.703,-12.878 L 132.709,-12.8705 L 132.913,-12.8705 L 133.054,-12.8595 L 133.364,-12.8103
 L 133.501,-12.7774 L 133.8,-12.6804 L 133.93,-12.6263 L 134.21,-12.4839 L 134.33,-12.4101 L 134.584,-12.2256
 L 134.692,-12.1339 L 134.914,-11.912 L 135,-11.8108 z
M 115.602,-16.1114 L 115.708,-16.2916 L 114,-18 L 114,-16.5 L 115.216,-15.284 z
M 129,-15 L 126,-18 L 126,-16.5 L 126.473,-16.0271 L 126.595,-15.9977 L 126.894,-15.9007
 L 127.024,-15.8466 L 127.304,-15.7041 L 127.424,-15.6304 L 127.678,-15.4459 L 127.786,-15.3542 L 128.008,-15.1323
 L 128.099,-15.0249 L 128.105,-15.0174 L 128.309,-15.0174 L 128.45,-15.0063 L 128.76,-14.9572 L 128.897,-14.9243
 L 129,-14.8909 z
M 42,-18 L 42,-17.1423 L 42.2408,-17.1042 L 42.3782,-17.0712 L 42.6768,-16.9742 L 42.8073,-16.9202
 L 43.0869,-16.7776 L 43.2074,-16.7039 L 43.4612,-16.5194 L 43.5686,-16.4277 L 43.7905,-16.2058 L 43.8822,-16.0984
 L 43.8877,-16.0908 L 43.9092,-16.0908 z
M 141,-12 L 142.5,-12 L 141,-13.5 L 141,-15 L 138,-18 L 138,-16.5
 L 139.5,-15 L 138,-15 L 138,-13.5 L 136.5,-15 L 135,-15 L 138,-12
 L 139.5,-12 L 141,-10.5 z
M 81,-12 L 82.5,-12 L 81,-13.5 L 81,-15 L 78,-18 L 78,-16.5
 L 79.5,-15 L 78,-15 L 78,-13.5 L 76.5,-15 L 75,-15 L 76.0608,-13.9392
 L 76.1421,-13.9328 L 76.4521,-13.8837 L 76.5895,-13.8508 L 76.8877,-13.7539 L 77.0182,-13.6998 L 77.298,-13.5573
 L 77.4185,-13.4835 L 77.6723,-13.299 L 77.7797,-13.2073 L 78.0016,-12.9854 L 78.0933,-12.878 L 78.0987,-12.8705
 L 78.3033,-12.8705 L 78.4441,-12.8595 L 78.7541,-12.8103 L 78.8915,-12.7774 L 79.19,-12.6804 L 79.3204,-12.6263
 L 79.5999,-12.4839 L 79.7204,-12.4101 L 79.9743,-12.2256 L 80.0817,-12.1339 L 80.3036,-11.912 L 80.3953,-11.8046
 L 80.4008,-11.797 L 80.6054,-11.797 L 80.7462,-11.7859 L 81,-11.7458 z
M 87,-12 L 88.3102,-12 L 88.2322,-12.0462 L 88.2165,-12.0577 L 87.6883,-12.635 L 87.6782,-12.6517
 L 87.5807,-12.9193 L 87,-13.5 L 87,-15 L 84,-18 L 84,-16.5 L 85.5,-15
 L 84,-15 L 84,-13.5 L 82.5,-15 L 81,-15 L 84,-12 L 85.5,-12
 L 87,-10.5 z
M 105,-13.5 L 105,-15 L 102,-18 L 102,-16.5 L 103.5,-15 L 102,-15
 L 102,-14.7821 L 102.021,-14.7732 L 102.301,-14.6309 L 102.421,-14.5571 L 102.675,-14.3725 L 102.783,-14.2808
 L 103.005,-14.0588 L 103.096,-13.9514 L 103.102,-13.9439 L 103.306,-13.9439 L 103.447,-13.9328 L 103.757,-13.8837
 L 103.894,-13.8508 L 104.193,-13.7539 L 104.323,-13.6998 L 104.603,-13.5573 L 104.723,-13.4835 L 104.977,-13.2989
 L 105.085,-13.2072 L 105.307,-12.9854 L 105.398,-12.878 L 105.404,-12.8705 L 105.608,-12.8705 L 105.631,-12.8687
 z
M 111,-12 L 112.5,-12 L 111,-13.5 L 111,-15 L 108,-18 L 108,-16.5
 L 109.5,-15 L 108,-15 L 108,-13.5 L 106.5,-15 L 105,-15 L 108,-12
 L 109.5,-12 L 111,-10.5 z
M 45,-17.1006 L 44.7342,-17.6527 L 44.5454,-17.6152 L 44.4198,-17.5966 L 44.2261,-17.5775 L 44.0993,-17.5712
 L 43.9288,-17.5712 L 45,-16.5 z
M 58.5,-12 L 57,-13.5 L 57,-15 L 55.9352,-16.0648 L 54.4352,-16.0648 L 55.5,-15
 L 54,-15 L 54,-13.5 L 52.5,-15 L 51,-15 L 54,-12 L 55.5,-12
 L 57,-10.5 L 57,-12 z
M 51,-13.5 L 51,-15 L 50.1556,-15.8444 L 49.985,-15.7622 L 48.7378,-15.7622 L 49.5,-15
 L 48,-15 L 48,-14.42 L 48.0653,-14.3725 L 48.1727,-14.2808 L 48.3946,-14.0589 L 48.4863,-13.9515
 L 48.4918,-13.9439 L 48.6963,-13.9439 L 48.8371,-13.9328 L 49.1471,-13.8837 L 49.2845,-13.8508 L 49.5827,-13.7539
 L 49.7132,-13.6998 L 49.993,-13.5573 L 50.1134,-13.4835 L 50.3674,-13.2989 L 50.4748,-13.2072 L 50.6966,-12.9854
 L 50.7883,-12.878 L 50.7937,-12.8705 L 50.9983,-12.8705 L 51.1391,-12.8595 L 51.4491,-12.8103 L 51.5865,-12.7774
 L 51.7882,-12.7118 z
M 115.875,-11.8462 L 115.538,-12.0456 L 115.522,-12.0571 L 114.993,-12.635 L 114.983,-12.6517 L 114.718,-13.3809
 L 114.715,-13.4002 L 114.748,-14.1785 L 114.752,-14.1974 L 114.883,-14.5706 L 115.084,-15 L 114,-15
 L 114,-13.5 L 112.5,-15 L 111,-15 L 114,-12 L 115.5,-12 L 117,-10.5
 L 117,-11.3217 z
M 60.9123,-12.0571 L 60.3833,-12.635 L 60.3732,-12.6517 L 60.1079,-13.3809 L 60.1049,-13.4002 L 60.1378,-14.1785
 L 60.1424,-14.1974 L 60.2733,-14.5706 L 60.4735,-15 L 60,-15 L 60,-13.5 L 58.5,-15
 L 57,-15 L 60,-12 L 61.0051,-12 L 60.928,-12.0456 z
M 87.5783,-14.5705 L 87.7785,-15 L 87,-15 L 87.5396,-14.4604 z
M 143.51,-13.99 L 142.5,-15 L 141,-15 L 143.51,-12.49 z
M 130.5,-15 L 129,-15 L 129.162,-14.8384 L 129.196,-14.8273 L 129.326,-14.7732 L 129.606,-14.6308
 L 129.726,-14.5571 L 129.98,-14.3725 L 130.088,-14.2808 L 130.31,-14.0589 L 130.401,-13.9515 L 130.407,-13.9439
 L 130.611,-13.9439 L 130.752,-13.9328 L 131.062,-13.8837 L 131.199,-13.8508 L 131.498,-13.7539 L 131.628,-13.6998
 L 131.908,-13.5573 L 131.998,-13.5023 z
M 117,-6 L 118.5,-6 L 117,-7.5 L 117,-9 L 114,-12 L 114,-10.5
 L 115.5,-9 L 114,-9 L 114,-7.5 L 112.5,-9 L 111,-9 L 114,-6
 L 115.5,-6 L 117,-4.5 z
M 108,-12 L 108,-11.79 L 108.051,-11.7859 L 108.245,-11.7553 z
M 60.1063,-6.66417 L 61.67,-7.41719 L 62.7361,-7.41719 L 62.7361,-7.45663 L 63,-7.85245 L 63,-9
 L 60,-12 L 60,-10.5 L 61.5,-9 L 60,-9 L 60,-7.5 L 58.5,-9
 L 57,-9 L 59.9066,-6.09338 z
M 54,-12 L 54,-11.6676 L 54.187,-11.6069 L 54.3175,-11.5528 L 54.5819,-11.4181 z
M 142.5,-6 L 141,-7.5 L 141,-9 L 138,-12 L 138,-10.5 L 139.5,-9
 L 138,-9 L 138,-7.76979 L 138.135,-7.81351 L 138.363,-7.86845 L 138.673,-7.91754 L 138.908,-7.93602
 L 139.222,-7.93602 L 139.457,-7.91754 L 139.767,-7.86847 L 139.995,-7.81352 L 140.294,-7.71654 L 140.511,-7.62646
 L 140.791,-7.48399 L 140.992,-7.36101 L 141.246,-7.17654 L 141.425,-7.02368 L 141.646,-6.80173 L 141.799,-6.62274
 L 141.984,-6.36891 L 142.107,-6.16823 L 142.192,-6 z
M 84.53,-7.41719 L 85.593,-7.41719 L 85.593,-7.45659 L 86.5476,-8.88849 L 86.9149,-9.08508 L 84,-12
 L 84,-10.5 L 85.5,-9 L 84,-9 L 84,-7.5 L 83.2671,-8.23288 L 83.2492,-8.15813
 L 83.1522,-7.8597 L 83.0981,-7.72922 L 83.0513,-7.63719 L 83.11,-7.63719 L 84.197,-7.25682 z
M 63,-11.0591 L 62.8057,-11.1278 L 61.9934,-11.5066 L 63,-10.5 z
M 92.2209,-9.7791 L 91.5183,-10.4817 L 91.4143,-10.5347 L 91.2939,-10.6085 L 91.04,-10.793 L 90.9326,-10.8847
 L 90.8378,-10.9794 L 90.4923,-10.9949 L 90.4734,-10.9996 L 90.1107,-11.1278 L 90,-11.1795 L 90,-10.5
 L 90.7209,-9.7791 z
M 36.11,-8.10719 L 39,-8.10719 L 39,-9 L 37.8184,-10.1816 L 37.6501,-10.2083 L 37.5128,-10.2412
 L 37.2144,-10.3382 L 37.0839,-10.3922 L 36.8043,-10.5347 L 36.6839,-10.6085 L 36.43,-10.793 L 36.3226,-10.8847
 L 36.2278,-10.9794 L 36,-10.9896 L 36,-10.5 L 37.5,-9 L 36,-9 L 36,-8.05423
 z
M 57,-6 L 58.5,-6 L 57,-7.5 L 57,-9 L 55.6585,-10.3415 L 55.7932,-10.0772
 L 55.8472,-9.94669 L 55.9442,-9.64806 L 55.9772,-9.51073 L 56.0262,-9.20087 L 56.0373,-9.06009 L 56.0373,-8.74632
 L 56.0262,-8.60553 L 55.9772,-8.29565 L 55.9442,-8.15833 L 55.8472,-7.8597 L 55.7932,-7.72922 L 55.6507,-7.44954
 L 55.5769,-7.32913 L 55.3924,-7.0753 L 55.3007,-6.96791 L 55.0788,-6.74599 L 54.9714,-6.65427 L 54.9638,-6.64877
 L 54.9638,-6.44432 L 54.9527,-6.30353 L 54.9047,-6 L 55.5,-6 L 57,-4.5 z
M 123,-6 L 124.5,-6 L 123,-7.5 L 123,-8.60901 L 122.949,-8.64615 L 122.842,-8.73787
 L 122.62,-8.9597 L 122.528,-9.06709 L 122.522,-9.07466 L 122.318,-9.07466 L 122.177,-9.08574 L 121.867,-9.13484
 L 121.73,-9.16782 L 121.432,-9.26472 L 121.301,-9.31876 L 121.057,-9.44324 L 121.5,-9 L 120,-9
 L 120,-7.5 L 118.5,-9 L 117,-9 L 120,-6 L 121.5,-6 L 123,-4.5
 z
M 111,-6 L 112.5,-6 L 111,-7.5 L 111,-9 L 110.606,-9.39441 L 110.636,-9.20087
 L 110.647,-9.06009 L 110.647,-8.74632 L 110.636,-8.60553 L 110.587,-8.29546 L 110.554,-8.15813 L 110.457,-7.85988
 L 110.403,-7.7294 L 110.261,-7.44954 L 110.187,-7.32913 L 110.002,-7.0753 L 109.911,-6.96791 L 109.689,-6.74599
 L 109.581,-6.65427 L 109.574,-6.64877 L 109.574,-6.44432 L 109.563,-6.30353 L 109.514,-5.99365 L 109.512,-5.98773
 L 111,-4.5 z
M 40.5,-9 L 39,-9 L 39.8928,-8.10719 L 41.3928,-8.10719 z
M 143.51,-7.99001 L 142.5,-9 L 141,-9 L 143.51,-6.49001 z
M 63.6876,-8.88383 L 63.9047,-9 L 63,-9 L 63.459,-8.54097 z
M 129,-5.87854 L 128.773,-5.9144 L 128.636,-5.94736 L 128.337,-6.04439 L 128.207,-6.09843 L 127.927,-6.24094
 L 127.807,-6.31473 L 127.553,-6.49916 L 127.446,-6.59088 L 127.224,-6.81281 L 127.132,-6.9202 L 127.127,-6.92776
 L 126.922,-6.92776 L 126.781,-6.93886 L 126.471,-6.98792 L 126.334,-7.02087 L 126.035,-7.11789 L 125.905,-7.17194
 L 125.625,-7.31438 L 125.505,-7.38817 L 125.251,-7.57266 L 125.144,-7.66438 L 124.922,-7.88643 L 124.83,-7.99382
 L 124.825,-8.00116 L 124.62,-8.00116 L 124.479,-8.01224 L 124.169,-8.06134 L 124.032,-8.09431 L 123.845,-8.15504
 L 126,-6 L 127.5,-6 L 129,-4.5 z
M 43.0067,-7.88631 L 42.915,-7.9937 L 42.9095,-8.00116 L 42.705,-8.00116 L 42.5642,-8.01224 L 42.2542,-8.06134
 L 42.1168,-8.09431 L 42,-8.13228 L 42,-7.91124 L 42.183,-7.8472 L 42.55,-7.8472 L 42.7816,-7.83374
 L 42.8503,-7.82573 L 43.1485,-7.74454 z
M 137.799,-7.70111 L 137.726,-7.77351 L 137.708,-7.72922 L 137.666,-7.64597 z
M 99.827,-6.673 L 99.827,-6.60074 L 99.9341,-6.56595 z
M 27,-6 L 27.3882,-6 L 27.3914,-6.00967 L 27.4183,-6.07478 L 25.7889,-6.5636 L 25.7936,-6.50406
 L 25.7936,-6.19034 L 25.7821,-6.04332 L 25.7376,-5.76242 L 27,-4.5 z
M 129,-1.5 L 129,-3 L 126,-6 L 126,-4.5 L 127.5,-3 L 126,-3
 L 126,-1.5 L 124.5,-3 L 123,-3 L 126,-0 L 130.5,-0 z
M 123,-1.5 L 123,-3 L 120,-6 L 120,-4.5 L 121.5,-3 L 120,-3
 L 120,-1.5 L 118.5,-3 L 117,-3 L 120,-0 L 124.5,-0 z
M 117,-1.5 L 117,-3 L 114,-6 L 114,-4.5 L 115.5,-3 L 114,-3
 L 114,-1.5 L 112.5,-3 L 111,-3 L 114,-0 L 118.5,-0 z
M 105,-1.5 L 105,-3 L 102.638,-5.36162 L 102.55,-5.42577 L 102.443,-5.51749 L 102.221,-5.73941
 L 102.129,-5.8468 L 102.124,-5.85426 L 102,-5.85426 L 102,-4.5 L 103.5,-3 L 102,-3
 L 102,-1.91878 L 102.137,-1.87085 L 102.89,-0.30719 L 102.89,-0 L 106.5,-0 z
M 57,-1.5 L 57,-3 L 54.6701,-5.32993 L 54.5771,-5.14754 L 54.5034,-5.02713 L 54.3189,-4.7733
 L 54.2272,-4.66591 L 54.0307,-4.46936 L 55.5,-3 L 54,-3 L 54,-1.5 L 52.5,-3
 L 51,-3 L 54,-0 L 58.5,-0 z
M 111,-1.5 L 111,-3 L 109.054,-4.94577 L 108.929,-4.7733 L 108.837,-4.66591 L 108.615,-4.44398
 L 108.508,-4.35226 L 108.299,-4.2007 L 109.5,-3 L 108,-3 L 108,-1.5 L 106.5,-3
 L 105,-3 L 108,-0 L 112.5,-0 z
M 0.0399933,-4.80592 L 0,-4.87119 L 0,-4.5 L 0.0399933,-4.46001 z
M 27.4394,-0.268723 L 27.3914,-0.384705 L 27.2944,-0.682999 L 27.2651,-0.805069 L 27.216,-1.11523 L 27.2062,-1.24037
 L 27.2062,-1.29384 L 27,-1.5 L 27,-3 L 25.2939,-4.70613 L 25.1412,-4.49597 L 25.0454,-4.38383
 L 24.8233,-4.16177 L 24.7112,-4.06601 L 24.5506,-3.94936 L 25.5,-3 L 24,-3 L 24,-1.5
 L 22.5,-3 L 21,-3 L 24,-0 L 27.5763,-0 z
M 135,-1.5 L 135,-3 L 134.282,-3.71837 L 134.142,-3.70737 L 133.828,-3.70737 L 133.687,-3.71846
 L 133.377,-3.7675 L 133.24,-3.80046 L 132.941,-3.89749 L 132.811,-3.95154 L 132.531,-4.09398 L 132.411,-4.16777
 L 132.157,-4.35236 L 132.093,-4.40707 L 133.5,-3 L 132,-3 L 132,-1.5 L 130.5,-3
 L 129,-3 L 132,-0 L 136.5,-0 z
M 51,-1.5 L 51,-3 L 50.3082,-3.69177 L 50.2679,-2.74551 L 50.3605,-2.60655 L 50.3605,-0.387833
 L 50.102,-0 L 52.5,-0 z
M 33.4394,-0.268723 L 33.3914,-0.384705 L 33.2944,-0.682999 L 33.2651,-0.805069 L 33.216,-1.11523 L 33.2062,-1.24037
 L 33.2062,-1.29384 L 33,-1.5 L 33,-3 L 32.4154,-3.58461 L 32.3525,-3.48193 L 32.168,-3.22809
 L 32.1416,-3.19719 L 32.168,-3.16629 L 32.3524,-2.91255 L 32.418,-2.80553 L 32.5606,-2.52567 L 32.6086,-2.40968
 L 32.7056,-2.11139 L 32.7349,-1.98932 L 32.784,-1.67914 L 32.7938,-1.55399 L 32.7938,-1.24037 L 32.784,-1.11523
 L 32.7349,-0.805069 L 32.7056,-0.682999 L 32.6086,-0.384705 L 32.5606,-0.268723 L 32.4237,-0 L 33.5763,-0
 z
M 21,-1.5 L 21,-3 L 20.5784,-3.42155 L 20.4769,-3.41356 L 20.1839,-3.41356 L 19.8437,-2.44121
 L 18.28,-1.68819 L 18,-1.68819 L 18,-1.5 L 17.8118,-1.68819 L 17.28,-1.68819 L 16.3881,-2.00029
 L 16.1259,-1.87405 L 18,-0 L 22.5,-0 z
M 3,-1.68819 L 2.03999,-1.68819 L 0.793015,-2.12453 L 0.371414,-3 L 0.23938,-3 L 0.376587,-2.6458
 L 0.559692,-2.27809 L 0.775894,-1.92879 L 1.0235,-1.601 L 1.30019,-1.29739 L 1.60379,-1.02069 L 1.93159,-0.773087
 L 2.2809,-0.556885 L 2.64859,-0.373795 L 3.03169,-0.225388 L 3.42679,-0.112991 L 3.8306,-0.0374908 L 4.23515,-0
 L 4.5,-0 L 3,-1.5 z
M 139.679,-0.0374908 L 140.083,-0.112991 L 140.478,-0.225388 L 140.861,-0.373795 L 141.229,-0.556885 L 141.578,-0.773087
 L 141.663,-0.83699 L 141,-1.5 L 141,-1.52943 L 140.992,-1.52338 L 140.791,-1.40039 L 140.511,-1.25792
 L 140.294,-1.16785 L 139.995,-1.07086 L 139.767,-1.01591 L 139.457,-0.966827 L 139.222,-0.948364 L 138.908,-0.948364
 L 138.673,-0.966827 L 138.363,-1.01593 L 138.135,-1.07088 L 137.836,-1.16783 L 137.619,-1.2579 L 137.339,-1.40042
 L 137.138,-1.52341 L 136.884,-1.70784 L 136.705,-1.8607 L 136.484,-2.08266 L 136.331,-2.26164 L 136.146,-2.51547
 L 136.023,-2.71616 L 135.881,-2.99588 L 135.879,-3 L 135,-3 L 138,-0 L 139.275,-0
 z
M 33.582,-2.80553 L 33.6476,-2.91255 L 33.7111,-3 L 33,-3 L 33.4512,-2.54881 z
M 60.1063,-1.55417 L 60.4673,-1.72803 L 60.423,-1.74353 L 60,-2.62193 L 60,-1.5 L 58.5,-3
 L 57,-3 L 59.6759,-0.324081 z
M 27.582,-2.80553 L 27.6476,-2.91255 L 27.7111,-3 L 27,-3 L 27.4512,-2.54881 z
M 142.486,-1.601 L 142.734,-1.92879 L 142.95,-2.27809 L 143.041,-2.45941 L 142.5,-3 L 142.251,-3
 L 142.249,-2.99588 L 142.107,-2.71616 L 141.984,-2.51547 L 141.799,-2.26164 L 141.771,-2.22874 L 142.445,-1.55522
 z
M 15,-1.5 L 15,-1.68819 L 14.74,-1.68819 L 13.8481,-2.00029 L 13.2,-1.68819 L 12.2,-1.68819
 L 12,-1.75816 L 12,-1.5 L 11.6029,-1.89713 L 11.308,-2.00031 L 10.6599,-1.68819 L 10.3118,-1.68819
 L 12,-0 L 16.5,-0 z
M 9,-1.5 L 9,-1.9191 L 8.76804,-2.00026 L 8.12,-1.68819 L 7.12,-1.68819 L 6.22807,-2.00029
 L 6,-1.89046 L 6,-1.5 L 5.73647,-1.76353 L 5.57999,-1.68819 L 4.57999,-1.68819 L 4.16747,-1.83253
 L 6,-0 L 10.5,-0 z
"  fill="lightgray" />
</svg>
