%TF.GenerationSoftware,KiCad,Pcbnew,7.0.1*%
%TF.CreationDate,2023-04-19T20:57:18+02:00*%
%TF.ProjectId,hc245t-bypass-esd,68633234-3574-42d6-9279-706173732d65,0.1.0*%
%TF.SameCoordinates,Original*%
%TF.FileFunction,Copper,L1,Top*%
%TF.FilePolarity,Positive*%
%FSLAX46Y46*%
G04 Gerber Fmt 4.6, Leading zero omitted, Abs format (unit mm)*
G04 Created by KiCad (PCBNEW 7.0.1) date 2023-04-19 20:57:18*
%MOMM*%
%LPD*%
G01*
G04 APERTURE LIST*
G04 Aperture macros list*
%AMRoundRect*
0 Rectangle with rounded corners*
0 $1 Rounding radius*
0 $2 $3 $4 $5 $6 $7 $8 $9 X,Y pos of 4 corners*
0 Add a 4 corners polygon primitive as box body*
4,1,4,$2,$3,$4,$5,$6,$7,$8,$9,$2,$3,0*
0 Add four circle primitives for the rounded corners*
1,1,$1+$1,$2,$3*
1,1,$1+$1,$4,$5*
1,1,$1+$1,$6,$7*
1,1,$1+$1,$8,$9*
0 Add four rect primitives between the rounded corners*
20,1,$1+$1,$2,$3,$4,$5,0*
20,1,$1+$1,$4,$5,$6,$7,0*
20,1,$1+$1,$6,$7,$8,$9,0*
20,1,$1+$1,$8,$9,$2,$3,0*%
G04 Aperture macros list end*
%TA.AperFunction,SMDPad,CuDef*%
%ADD10R,0.650000X0.400000*%
%TD*%
%TA.AperFunction,SMDPad,CuDef*%
%ADD11RoundRect,0.140000X0.140000X0.170000X-0.140000X0.170000X-0.140000X-0.170000X0.140000X-0.170000X0*%
%TD*%
%TA.AperFunction,ComponentPad*%
%ADD12RoundRect,0.100000X-0.637500X-0.100000X0.637500X-0.100000X0.637500X0.100000X-0.637500X0.100000X0*%
%TD*%
%TA.AperFunction,SMDPad,CuDef*%
%ADD13RoundRect,0.135000X0.135000X0.185000X-0.135000X0.185000X-0.135000X-0.185000X0.135000X-0.185000X0*%
%TD*%
%TA.AperFunction,Conductor*%
%ADD14C,0.250000*%
%TD*%
G04 APERTURE END LIST*
D10*
%TO.P,U2,1*%
%TO.N,/D1*%
X186050000Y-110250000D03*
%TO.P,U2,2*%
%TO.N,GND*%
X186050000Y-110900000D03*
%TO.P,U2,3*%
%TO.N,/D3*%
X186050000Y-111550000D03*
%TO.P,U2,4*%
%TO.N,/D2*%
X187950000Y-111550000D03*
%TO.P,U2,5*%
%TO.N,Net-(C1-Pad1)*%
X187950000Y-110900000D03*
%TO.P,U2,6*%
%TO.N,/D0*%
X187950000Y-110250000D03*
%TD*%
D11*
%TO.P,C1,1*%
%TO.N,Net-(C1-Pad1)*%
X186480000Y-109000000D03*
%TO.P,C1,2*%
%TO.N,GND*%
X185520000Y-109000000D03*
%TD*%
D10*
%TO.P,U3,1*%
%TO.N,/D5*%
X186050000Y-113050000D03*
%TO.P,U3,2*%
%TO.N,GND*%
X186050000Y-113700000D03*
%TO.P,U3,3*%
%TO.N,/D7*%
X186050000Y-114350000D03*
%TO.P,U3,4*%
%TO.N,/D6*%
X187950000Y-114350000D03*
%TO.P,U3,5*%
%TO.N,Net-(C1-Pad1)*%
X187950000Y-113700000D03*
%TO.P,U3,6*%
%TO.N,/D4*%
X187950000Y-113050000D03*
%TD*%
D12*
%TO.P,U1,1,A->B*%
%TO.N,unconnected-(U1-Pad1)*%
X184137500Y-109075000D03*
%TO.P,U1,2,A0*%
%TO.N,/D0*%
X184137500Y-109725000D03*
%TO.P,U1,3,A1*%
%TO.N,/D1*%
X184137500Y-110375000D03*
%TO.P,U1,4,A2*%
%TO.N,/D2*%
X184137500Y-111025000D03*
%TO.P,U1,5,A3*%
%TO.N,/D3*%
X184137500Y-111675000D03*
%TO.P,U1,6,A4*%
%TO.N,/D4*%
X184137500Y-112325000D03*
%TO.P,U1,7,A5*%
%TO.N,/D5*%
X184137500Y-112975000D03*
%TO.P,U1,8,A6*%
%TO.N,/D6*%
X184137500Y-113625000D03*
%TO.P,U1,9,A7*%
%TO.N,/D7*%
X184137500Y-114275000D03*
%TO.P,U1,10,GND*%
%TO.N,GND*%
X184137500Y-114925000D03*
%TO.P,U1,11,B7*%
%TO.N,/D7*%
X189862500Y-114925000D03*
%TO.P,U1,12,B6*%
%TO.N,/D6*%
X189862500Y-114275000D03*
%TO.P,U1,13,B5*%
%TO.N,/D5*%
X189862500Y-113625000D03*
%TO.P,U1,14,B4*%
%TO.N,/D4*%
X189862500Y-112975000D03*
%TO.P,U1,15,B3*%
%TO.N,/D3*%
X189862500Y-112325000D03*
%TO.P,U1,16,B2*%
%TO.N,/D2*%
X189862500Y-111675000D03*
%TO.P,U1,17,B1*%
%TO.N,/D1*%
X189862500Y-111025000D03*
%TO.P,U1,18,B0*%
%TO.N,/D0*%
X189862500Y-110375000D03*
%TO.P,U1,19,CE*%
%TO.N,unconnected-(U1-Pad19)*%
X189862500Y-109725000D03*
%TO.P,U1,20,VCC*%
%TO.N,VCC*%
X189862500Y-109075000D03*
%TD*%
D13*
%TO.P,R1,1*%
%TO.N,VCC*%
X188510000Y-109000000D03*
%TO.P,R1,2*%
%TO.N,Net-(C1-Pad1)*%
X187490000Y-109000000D03*
%TD*%
D14*
%TO.N,Net-(C1-Pad1)*%
X187950000Y-111025000D02*
X187950000Y-110900000D01*
X186480000Y-109000000D02*
X187000000Y-109000000D01*
X187000000Y-109000000D02*
X187490000Y-109000000D01*
X187000000Y-109500000D02*
X187300000Y-109800000D01*
X187950000Y-113700000D02*
X187500000Y-113700000D01*
X187500000Y-113700000D02*
X187300000Y-113500000D01*
X187300000Y-111025000D02*
X187950000Y-111025000D01*
X187300000Y-113500000D02*
X187300000Y-111025000D01*
X187000000Y-109000000D02*
X187000000Y-109500000D01*
X187300000Y-109800000D02*
X187300000Y-111025000D01*
%TO.N,GND*%
X186700000Y-113700000D02*
X186050000Y-113700000D01*
X186700000Y-113700000D02*
X186700000Y-110900000D01*
X186700000Y-110900000D02*
X186050000Y-110900000D01*
X184137500Y-114925000D02*
X186475000Y-114925000D01*
X186700000Y-114700000D02*
X186700000Y-113700000D01*
X186475000Y-114925000D02*
X186700000Y-114700000D01*
X186700000Y-109900000D02*
X186700000Y-110900000D01*
X186500000Y-109700000D02*
X186700000Y-109900000D01*
X186200000Y-109700000D02*
X186500000Y-109700000D01*
X185520000Y-109000000D02*
X185520000Y-109020000D01*
X185520000Y-109020000D02*
X186200000Y-109700000D01*
%TO.N,VCC*%
X188585000Y-109075000D02*
X188510000Y-109000000D01*
X189862500Y-109075000D02*
X188585000Y-109075000D01*
%TO.N,/D1*%
X184137500Y-110375000D02*
X185925000Y-110375000D01*
X185925000Y-110375000D02*
X186050000Y-110250000D01*
%TO.N,/D3*%
X184137500Y-111675000D02*
X185925000Y-111675000D01*
X185925000Y-111675000D02*
X186050000Y-111550000D01*
%TO.N,/D2*%
X189862500Y-111675000D02*
X188075000Y-111675000D01*
X188075000Y-111675000D02*
X187950000Y-111550000D01*
%TO.N,/D0*%
X189862500Y-110375000D02*
X188075000Y-110375000D01*
X188075000Y-110375000D02*
X187950000Y-110250000D01*
%TO.N,/D5*%
X184137500Y-112975000D02*
X185975000Y-112975000D01*
X185975000Y-112975000D02*
X186050000Y-113050000D01*
%TO.N,/D7*%
X185975000Y-114275000D02*
X186050000Y-114350000D01*
X184137500Y-114275000D02*
X185975000Y-114275000D01*
%TO.N,/D6*%
X189862500Y-114275000D02*
X188025000Y-114275000D01*
X188025000Y-114275000D02*
X187950000Y-114350000D01*
%TO.N,/D4*%
X189862500Y-112975000D02*
X188025000Y-112975000D01*
X188025000Y-112975000D02*
X187950000Y-113050000D01*
%TD*%
M02*
