M48
; DRILL file {KiCad 7.0.1} date 2023-04-19T20:57:20 CEST
; FORMAT={-:-/ absolute / metric / decimal}
; #@! TF.CreationDate,2023-04-19T20:57:20+02:00
; #@! TF.GenerationSoftware,Kicad,Pcbnew,7.0.1
; #@! TF.FileFunction,Plated,1,2,PTH
FMAT,2
METRIC
; #@! TA.AperFunction,Plated,PTH,ComponentDrill
T1C0.400
%
G90
G05
T1
X184.137Y-109.075
X184.137Y-109.725
X184.137Y-110.375
X184.137Y-111.025
X184.137Y-111.675
X184.137Y-112.325
X184.137Y-112.975
X184.137Y-113.625
X184.137Y-114.275
X184.137Y-114.925
X189.862Y-109.075
X189.862Y-109.725
X189.862Y-110.375
X189.862Y-111.025
X189.862Y-111.675
X189.862Y-112.325
X189.862Y-112.975
X189.862Y-113.625
X189.862Y-114.275
X189.862Y-114.925
T0
M30
