M48
; DRILL file {KiCad 7.0.1} date 2023-03-20T19:53:52 CET
; FORMAT={-:-/ absolute / metric / decimal}
; #@! TF.CreationDate,2023-03-20T19:53:52+01:00
; #@! TF.GenerationSoftware,Kicad,Pcbnew,7.0.1
; #@! TF.FileFunction,Plated,1,2,PTH
FMAT,2
METRIC
; #@! TA.AperFunction,Plated,PTH,ViaDrill
T1C0.400
; #@! TA.AperFunction,Plated,PTH,ComponentDrill
T2C0.500
; #@! TA.AperFunction,Plated,PTH,ComponentDrill
T3C0.600
; #@! TA.AperFunction,Plated,PTH,ComponentDrill
T4C0.650
; #@! TA.AperFunction,Plated,PTH,ComponentDrill
T5C1.000
; #@! TA.AperFunction,Plated,PTH,ComponentDrill
T6C1.100
%
G90
G05
T1
X129.0Y-101.0
X129.0Y-125.0
X131.0Y-124.16
X136.0Y-102.0
X138.0Y-100.0
X144.0Y-94.0
X146.0Y-77.0
X146.0Y-80.0
X146.0Y-97.0
X146.0Y-102.0
X147.0Y-85.5
X148.0Y-75.0
X148.0Y-77.0
X148.0Y-86.5
X148.0Y-96.0
X148.0Y-98.0
X148.0Y-100.0
X148.5Y-73.5
X149.0Y-80.0
X149.0Y-97.0
X149.0Y-99.0
X149.0Y-101.0
X150.0Y-78.0
X150.0Y-82.0
X151.0Y-72.0
X151.0Y-80.0
X151.5Y-70.5
X152.0Y-74.0
X152.0Y-105.0
X153.0Y-69.0
X153.0Y-104.0
X154.0Y-76.0
X154.0Y-80.0
X154.0Y-103.0
X154.0Y-111.0
X154.5Y-68.5
X155.0Y-102.0
X155.0Y-113.0
X155.0Y-115.0
X155.0Y-117.0
X156.0Y-118.0
X157.0Y-77.0
X157.0Y-83.0
X157.0Y-105.3
X157.0Y-119.0
X158.0Y-93.0
X158.0Y-109.0
X158.0Y-111.0
X158.0Y-113.0
X158.0Y-115.0
X158.0Y-120.0
X159.0Y-92.0
X159.0Y-119.0
X159.0Y-121.0
X159.0Y-123.0
X159.5Y-68.5
X159.5Y-89.5
X160.0Y-80.0
X160.0Y-124.0
X161.0Y-88.0
X161.0Y-89.5
X161.0Y-123.0
X162.0Y-68.0
X162.0Y-80.0
X162.0Y-93.0
X162.5Y-92.0
X163.0Y-65.0
X165.0Y-65.0
X165.0Y-72.0
X167.0Y-73.0
X167.0Y-82.0
X167.0Y-103.0
X168.0Y-67.0
X168.0Y-86.0
X168.0Y-106.0
X169.0Y-93.0
X169.0Y-109.0
X170.0Y-92.0
X171.0Y-66.0
X171.0Y-79.0
X171.0Y-81.0
X173.0Y-55.0
X173.0Y-65.0
X173.0Y-80.0
X174.0Y-53.0
X174.0Y-56.0
X175.0Y-55.0
X175.0Y-64.0
X175.0Y-88.0
X176.0Y-61.0
X176.0Y-66.0
X176.0Y-89.0
X177.0Y-90.0
X177.0Y-102.0
X177.0Y-105.0
X177.0Y-108.0
X178.0Y-56.0
X178.0Y-91.0
X179.0Y-92.0
X180.0Y-68.0
X180.0Y-72.0
X180.0Y-75.0
X180.0Y-77.0
X180.0Y-79.0
X181.0Y-56.0
X182.0Y-72.0
X183.0Y-61.0
X184.0Y-50.0
X184.0Y-53.0
X184.0Y-55.0
X184.0Y-67.0
X184.0Y-69.0
X184.0Y-71.0
X185.0Y-51.0
X186.0Y-53.0
X186.0Y-55.0
X186.0Y-67.0
X186.0Y-69.0
X186.0Y-71.0
X186.0Y-76.0
X186.0Y-80.0
X186.0Y-84.0
X186.0Y-88.0
X186.0Y-92.0
X191.77Y-100.33
X193.04Y-101.6
X196.85Y-91.44
X198.12Y-92.71
X198.12Y-102.87
X199.39Y-91.44
X200.66Y-93.98
X200.66Y-101.6
X201.93Y-92.71
X201.93Y-102.87
X209.0Y-53.0
X210.0Y-55.0
X211.0Y-53.0
X228.6Y-123.19
X228.6Y-125.73
X236.0Y-53.0
X237.0Y-55.0
X238.0Y-53.0
X251.46Y-36.83
X259.08Y-36.83
X259.08Y-123.19
X259.08Y-125.73
X262.0Y-81.0
X262.89Y-119.38
X264.0Y-80.0
X264.0Y-82.0
X266.7Y-46.99
X266.7Y-101.6
X266.7Y-115.57
X267.97Y-38.1
X267.97Y-124.46
X269.24Y-46.99
X269.24Y-60.96
X269.24Y-101.6
X269.24Y-115.57
T2
X160.15Y-61.325
X160.15Y-62.675
X161.25Y-61.325
X161.25Y-62.675
X162.35Y-61.325
X162.35Y-62.675
X163.45Y-61.325
X163.45Y-62.675
X164.55Y-61.325
X164.55Y-62.675
X165.65Y-61.325
X165.65Y-62.675
X166.75Y-61.325
X166.75Y-62.675
X167.85Y-61.325
X167.85Y-62.675
T3
X169.0Y-122.0
X169.0Y-125.6
T4
X187.96Y-96.52
X187.96Y-97.79
X187.96Y-99.06
X187.96Y-100.33
X187.96Y-101.6
X189.23Y-96.52
X189.23Y-97.79
X189.23Y-99.06
X189.23Y-100.33
X189.23Y-101.6
T5
X129.54Y-105.41
X129.54Y-105.41
X129.54Y-120.65
X129.54Y-120.65
X132.08Y-105.41
X132.08Y-105.41
X132.08Y-120.65
X132.08Y-120.65
X134.62Y-105.41
X134.62Y-105.41
X134.62Y-120.65
X134.62Y-120.65
X137.16Y-105.41
X137.16Y-105.41
X137.16Y-120.65
X137.16Y-120.65
X139.7Y-105.41
X139.7Y-105.41
X139.7Y-120.65
X139.7Y-120.65
X142.24Y-105.41
X142.24Y-105.41
X142.24Y-120.65
X142.24Y-120.65
X144.78Y-105.41
X144.78Y-105.41
X144.78Y-120.65
X144.78Y-120.65
X146.05Y-63.5
X146.05Y-66.04
X146.05Y-68.58
X147.32Y-105.41
X147.32Y-120.65
X149.86Y-105.41
X149.86Y-107.95
X149.86Y-110.49
X149.86Y-113.03
X149.86Y-115.57
X149.86Y-118.11
X149.86Y-120.65
X162.956Y-49.678
X162.956Y-112.882
X164.029Y-51.98
X164.029Y-110.58
X165.258Y-48.605
X165.258Y-113.955
X165.46Y-99.0
X166.331Y-50.907
X166.331Y-111.653
X167.56Y-47.531
X167.56Y-115.029
X168.0Y-99.0
X168.633Y-49.833
X168.633Y-112.727
X169.862Y-46.458
X169.862Y-116.102
X170.935Y-48.76
X170.935Y-113.8
X172.164Y-45.384
X172.164Y-117.176
X173.237Y-47.686
X173.237Y-114.874
X174.466Y-44.311
X174.466Y-118.249
X175.539Y-46.613
X175.539Y-115.947
X176.768Y-43.237
X176.768Y-119.323
X177.8Y-97.155
X177.841Y-45.539
X177.841Y-117.021
X179.07Y-42.164
X179.07Y-120.396
X180.143Y-44.466
X180.143Y-118.094
X180.34Y-97.155
X190.261Y-49.678
X190.261Y-112.882
X190.5Y-36.83
X190.5Y-39.37
X190.5Y-123.19
X190.5Y-125.73
X191.334Y-51.98
X191.334Y-110.58
X191.516Y-77.978
X191.516Y-80.518
X191.516Y-83.058
X191.516Y-85.598
X191.77Y-59.69
X191.77Y-62.23
X191.77Y-64.77
X191.77Y-67.31
X191.77Y-69.85
X192.563Y-48.605
X192.563Y-113.955
X193.04Y-36.83
X193.04Y-39.37
X193.04Y-123.19
X193.04Y-125.73
X193.636Y-50.907
X193.636Y-111.653
X194.31Y-59.69
X194.31Y-62.23
X194.31Y-64.77
X194.31Y-67.31
X194.31Y-69.85
X194.865Y-47.531
X194.865Y-115.029
X195.58Y-36.83
X195.58Y-39.37
X195.58Y-123.19
X195.58Y-125.73
X195.938Y-49.833
X195.938Y-112.727
X197.167Y-46.458
X197.167Y-116.102
X198.12Y-36.83
X198.12Y-39.37
X198.12Y-76.835
X198.12Y-79.375
X198.12Y-81.915
X198.12Y-84.455
X198.12Y-123.19
X198.12Y-125.73
X198.24Y-48.76
X198.24Y-113.8
X199.469Y-45.384
X199.469Y-117.176
X200.542Y-47.686
X200.542Y-114.874
X200.66Y-36.83
X200.66Y-39.37
X200.66Y-123.19
X200.66Y-125.73
X201.771Y-44.311
X201.771Y-118.249
X202.844Y-46.613
X202.844Y-115.947
X203.2Y-36.83
X203.2Y-39.37
X203.2Y-123.19
X203.2Y-125.73
X204.073Y-43.237
X204.073Y-119.323
X205.146Y-45.539
X205.146Y-117.021
X205.74Y-58.42
X205.74Y-60.96
X205.74Y-63.5
X205.74Y-66.04
X205.74Y-68.58
X205.74Y-71.12
X205.74Y-73.66
X205.74Y-76.2
X205.74Y-78.74
X205.74Y-81.28
X205.74Y-83.82
X205.74Y-86.36
X205.74Y-88.9
X205.74Y-91.44
X205.74Y-93.98
X205.74Y-96.52
X205.74Y-99.06
X205.74Y-101.6
X205.74Y-104.14
X206.375Y-42.164
X206.375Y-120.396
X207.448Y-44.466
X207.448Y-118.094
X208.28Y-36.83
X208.28Y-39.37
X208.28Y-58.42
X208.28Y-60.96
X208.28Y-63.5
X208.28Y-66.04
X208.28Y-68.58
X208.28Y-71.12
X208.28Y-73.66
X208.28Y-76.2
X208.28Y-78.74
X208.28Y-81.28
X208.28Y-83.82
X208.28Y-86.36
X208.28Y-88.9
X208.28Y-91.44
X208.28Y-93.98
X208.28Y-96.52
X208.28Y-99.06
X208.28Y-101.6
X208.28Y-104.14
X208.28Y-123.19
X208.28Y-125.73
X210.82Y-58.42
X210.82Y-60.96
X210.82Y-63.5
X210.82Y-66.04
X210.82Y-68.58
X210.82Y-71.12
X210.82Y-73.66
X210.82Y-76.2
X210.82Y-78.74
X210.82Y-81.28
X210.82Y-83.82
X210.82Y-86.36
X210.82Y-88.9
X210.82Y-91.44
X210.82Y-93.98
X210.82Y-96.52
X210.82Y-99.06
X210.82Y-101.6
X210.82Y-104.14
X213.36Y-36.83
X213.36Y-39.37
X213.36Y-58.42
X213.36Y-60.96
X213.36Y-63.5
X213.36Y-66.04
X213.36Y-68.58
X213.36Y-71.12
X213.36Y-73.66
X213.36Y-76.2
X213.36Y-78.74
X213.36Y-81.28
X213.36Y-83.82
X213.36Y-86.36
X213.36Y-88.9
X213.36Y-91.44
X213.36Y-93.98
X213.36Y-96.52
X213.36Y-99.06
X213.36Y-101.6
X213.36Y-104.14
X213.36Y-123.19
X213.36Y-125.73
X215.9Y-36.83
X215.9Y-39.37
X215.9Y-58.42
X215.9Y-60.96
X215.9Y-63.5
X215.9Y-66.04
X215.9Y-68.58
X215.9Y-71.12
X215.9Y-73.66
X215.9Y-76.2
X215.9Y-78.74
X215.9Y-81.28
X215.9Y-83.82
X215.9Y-86.36
X215.9Y-88.9
X215.9Y-91.44
X215.9Y-93.98
X215.9Y-96.52
X215.9Y-99.06
X215.9Y-101.6
X215.9Y-104.14
X215.9Y-123.19
X215.9Y-125.73
X217.566Y-49.678
X217.566Y-112.882
X218.44Y-36.83
X218.44Y-39.37
X218.44Y-58.42
X218.44Y-60.96
X218.44Y-63.5
X218.44Y-66.04
X218.44Y-68.58
X218.44Y-71.12
X218.44Y-73.66
X218.44Y-76.2
X218.44Y-78.74
X218.44Y-81.28
X218.44Y-83.82
X218.44Y-86.36
X218.44Y-88.9
X218.44Y-91.44
X218.44Y-93.98
X218.44Y-96.52
X218.44Y-99.06
X218.44Y-101.6
X218.44Y-104.14
X218.44Y-123.19
X218.44Y-125.73
X218.639Y-51.98
X218.639Y-110.58
X219.868Y-48.605
X219.868Y-113.955
X220.941Y-50.907
X220.941Y-111.653
X220.98Y-36.83
X220.98Y-39.37
X220.98Y-58.42
X220.98Y-60.96
X220.98Y-63.5
X220.98Y-66.04
X220.98Y-68.58
X220.98Y-71.12
X220.98Y-73.66
X220.98Y-76.2
X220.98Y-78.74
X220.98Y-81.28
X220.98Y-83.82
X220.98Y-86.36
X220.98Y-88.9
X220.98Y-91.44
X220.98Y-93.98
X220.98Y-96.52
X220.98Y-99.06
X220.98Y-101.6
X220.98Y-104.14
X220.98Y-123.19
X220.98Y-125.73
X222.17Y-47.531
X222.17Y-115.029
X223.243Y-49.833
X223.243Y-112.727
X223.52Y-36.83
X223.52Y-39.37
X223.52Y-58.42
X223.52Y-60.96
X223.52Y-63.5
X223.52Y-66.04
X223.52Y-68.58
X223.52Y-71.12
X223.52Y-73.66
X223.52Y-76.2
X223.52Y-78.74
X223.52Y-81.28
X223.52Y-83.82
X223.52Y-86.36
X223.52Y-88.9
X223.52Y-91.44
X223.52Y-93.98
X223.52Y-96.52
X223.52Y-99.06
X223.52Y-101.6
X223.52Y-104.14
X223.52Y-123.19
X223.52Y-125.73
X224.472Y-46.458
X224.472Y-116.102
X225.545Y-48.76
X225.545Y-113.8
X226.06Y-36.83
X226.06Y-39.37
X226.06Y-58.42
X226.06Y-60.96
X226.06Y-63.5
X226.06Y-66.04
X226.06Y-68.58
X226.06Y-71.12
X226.06Y-91.44
X226.06Y-93.98
X226.06Y-96.52
X226.06Y-99.06
X226.06Y-101.6
X226.06Y-104.14
X226.06Y-123.19
X226.06Y-125.73
X226.774Y-45.384
X226.774Y-117.176
X227.847Y-47.686
X227.847Y-114.874
X228.6Y-58.42
X228.6Y-60.96
X228.6Y-63.5
X228.6Y-66.04
X228.6Y-68.58
X228.6Y-71.12
X228.6Y-91.44
X228.6Y-93.98
X228.6Y-96.52
X228.6Y-99.06
X228.6Y-101.6
X228.6Y-104.14
X229.076Y-44.311
X229.076Y-118.249
X230.149Y-46.613
X230.149Y-115.947
X231.14Y-36.83
X231.14Y-39.37
X231.14Y-58.42
X231.14Y-60.96
X231.14Y-63.5
X231.14Y-66.04
X231.14Y-68.58
X231.14Y-71.12
X231.14Y-91.44
X231.14Y-93.98
X231.14Y-96.52
X231.14Y-99.06
X231.14Y-101.6
X231.14Y-104.14
X231.378Y-43.237
X231.378Y-119.323
X232.451Y-45.539
X232.451Y-117.021
X233.68Y-42.164
X233.68Y-58.42
X233.68Y-60.96
X233.68Y-63.5
X233.68Y-66.04
X233.68Y-68.58
X233.68Y-71.12
X233.68Y-91.44
X233.68Y-93.98
X233.68Y-96.52
X233.68Y-99.06
X233.68Y-101.6
X233.68Y-104.14
X233.68Y-120.396
X234.753Y-44.466
X234.753Y-118.094
X236.22Y-36.83
X236.22Y-39.37
X236.22Y-58.42
X236.22Y-60.96
X236.22Y-63.5
X236.22Y-66.04
X236.22Y-68.58
X236.22Y-71.12
X236.22Y-91.44
X236.22Y-93.98
X236.22Y-96.52
X236.22Y-99.06
X236.22Y-101.6
X236.22Y-104.14
X238.76Y-36.83
X238.76Y-39.37
X238.76Y-58.42
X238.76Y-60.96
X238.76Y-63.5
X238.76Y-66.04
X238.76Y-68.58
X238.76Y-71.12
X238.76Y-91.44
X238.76Y-93.98
X238.76Y-96.52
X238.76Y-99.06
X238.76Y-101.6
X238.76Y-104.14
X241.3Y-36.83
X241.3Y-39.37
X241.3Y-60.96
X241.3Y-63.5
X241.3Y-66.04
X241.3Y-68.58
X241.3Y-71.12
X241.3Y-91.44
X241.3Y-93.98
X241.3Y-96.52
X241.3Y-99.06
X241.3Y-101.6
X243.84Y-36.83
X243.84Y-39.37
X243.84Y-63.5
X243.84Y-66.04
X243.84Y-68.58
X243.84Y-71.12
X243.84Y-91.44
X243.84Y-93.98
X243.84Y-96.52
X243.84Y-99.06
X244.871Y-49.678
X244.871Y-112.882
X245.944Y-51.98
X245.944Y-110.58
X246.38Y-36.83
X246.38Y-39.37
X246.38Y-63.5
X246.38Y-66.04
X246.38Y-68.58
X246.38Y-71.12
X246.38Y-91.44
X246.38Y-93.98
X246.38Y-96.52
X246.38Y-99.06
X247.173Y-48.605
X247.173Y-113.955
X248.246Y-50.907
X248.246Y-111.653
X248.92Y-36.83
X248.92Y-39.37
X248.92Y-63.5
X248.92Y-66.04
X248.92Y-68.58
X248.92Y-71.12
X248.92Y-73.66
X248.92Y-76.2
X248.92Y-78.74
X248.92Y-81.28
X248.92Y-83.82
X248.92Y-86.36
X248.92Y-88.9
X248.92Y-91.44
X248.92Y-93.98
X248.92Y-96.52
X248.92Y-99.06
X249.475Y-47.531
X249.475Y-115.029
X250.548Y-49.833
X250.548Y-112.727
X251.46Y-63.5
X251.46Y-66.04
X251.46Y-68.58
X251.46Y-71.12
X251.46Y-73.66
X251.46Y-76.2
X251.46Y-78.74
X251.46Y-81.28
X251.46Y-83.82
X251.46Y-86.36
X251.46Y-88.9
X251.46Y-91.44
X251.46Y-93.98
X251.46Y-96.52
X251.46Y-99.06
X251.777Y-46.458
X251.777Y-116.102
X252.85Y-48.76
X252.85Y-113.8
X254.079Y-45.384
X254.079Y-117.176
X255.152Y-47.686
X255.152Y-114.874
X256.381Y-44.311
X256.381Y-118.249
X257.454Y-46.613
X257.454Y-115.947
X258.683Y-43.237
X258.683Y-119.323
X259.756Y-45.539
X259.756Y-117.021
X260.985Y-42.164
X260.985Y-120.396
X262.058Y-44.466
X262.058Y-118.094
X266.7Y-63.5
X266.7Y-66.04
X266.7Y-68.58
X266.7Y-71.12
X266.7Y-73.66
X266.7Y-76.2
X266.7Y-81.28
X266.7Y-86.36
X266.7Y-88.9
X266.7Y-91.44
X266.7Y-93.98
X266.7Y-96.52
X266.7Y-99.06
X269.24Y-63.5
X269.24Y-66.04
X269.24Y-68.58
X269.24Y-71.12
X269.24Y-73.66
X269.24Y-76.2
X269.24Y-81.28
X269.24Y-86.36
X269.24Y-88.9
X269.24Y-91.44
X269.24Y-93.98
X269.24Y-96.52
X269.24Y-99.06
T6
X158.0Y-52.0
X158.0Y-56.6
T3
X161.882Y-59.85G85X161.118Y-59.85
G05
X161.882Y-64.15G85X161.118Y-64.15
G05
X166.882Y-59.85G85X166.117Y-59.85
G05
X166.882Y-64.15G85X166.117Y-64.15
G05
T0
M30
