%TF.GenerationSoftware,KiCad,Pcbnew,6.0.9*%
%TF.CreationDate,2023-02-10T02:22:55+01:00*%
%TF.ProjectId,chubby-hat,63687562-6279-42d6-9861-742e6b696361,0.2.1*%
%TF.SameCoordinates,Original*%
%TF.FileFunction,Legend,Bot*%
%TF.FilePolarity,Positive*%
%FSLAX46Y46*%
G04 Gerber Fmt 4.6, Leading zero omitted, Abs format (unit mm)*
G04 Created by KiCad (PCBNEW 6.0.9) date 2023-02-10 02:22:55*
%MOMM*%
%LPD*%
G01*
G04 APERTURE LIST*
%ADD10C,0.100000*%
%ADD11C,0.150000*%
%ADD12C,0.300000*%
%ADD13C,0.400000*%
%ADD14C,0.120000*%
G04 APERTURE END LIST*
D10*
D11*
X177002200Y-166007200D02*
X177002200Y-198007200D01*
X285002200Y-198007200D01*
X285002200Y-166007200D01*
X177002200Y-166007200D01*
D10*
D11*
X10000000Y-10000000D02*
X10000000Y-200007200D01*
X287002200Y-200007200D01*
X287002200Y-10000000D01*
X10000000Y-10000000D01*
D10*
D11*
X12000000Y-12000000D02*
X12000000Y-198007200D01*
X285002200Y-198007200D01*
X285002200Y-12000000D01*
X12000000Y-12000000D01*
D10*
D11*
X60000000Y-12000000D02*
X60000000Y-10000000D01*
D10*
D11*
X110000000Y-12000000D02*
X110000000Y-10000000D01*
D10*
D11*
X160000000Y-12000000D02*
X160000000Y-10000000D01*
D10*
D11*
X210000000Y-12000000D02*
X210000000Y-10000000D01*
D10*
D11*
X260000000Y-12000000D02*
X260000000Y-10000000D01*
D10*
D11*
X36065476Y-11588095D02*
X35322619Y-11588095D01*
X35694047Y-11588095D02*
X35694047Y-10288095D01*
X35570238Y-10473809D01*
X35446428Y-10597619D01*
X35322619Y-10659523D01*
D10*
D11*
X85322619Y-10411904D02*
X85384523Y-10350000D01*
X85508333Y-10288095D01*
X85817857Y-10288095D01*
X85941666Y-10350000D01*
X86003571Y-10411904D01*
X86065476Y-10535714D01*
X86065476Y-10659523D01*
X86003571Y-10845238D01*
X85260714Y-11588095D01*
X86065476Y-11588095D01*
D10*
D11*
X135260714Y-10288095D02*
X136065476Y-10288095D01*
X135632142Y-10783333D01*
X135817857Y-10783333D01*
X135941666Y-10845238D01*
X136003571Y-10907142D01*
X136065476Y-11030952D01*
X136065476Y-11340476D01*
X136003571Y-11464285D01*
X135941666Y-11526190D01*
X135817857Y-11588095D01*
X135446428Y-11588095D01*
X135322619Y-11526190D01*
X135260714Y-11464285D01*
D10*
D11*
X185941666Y-10721428D02*
X185941666Y-11588095D01*
X185632142Y-10226190D02*
X185322619Y-11154761D01*
X186127380Y-11154761D01*
D10*
D11*
X236003571Y-10288095D02*
X235384523Y-10288095D01*
X235322619Y-10907142D01*
X235384523Y-10845238D01*
X235508333Y-10783333D01*
X235817857Y-10783333D01*
X235941666Y-10845238D01*
X236003571Y-10907142D01*
X236065476Y-11030952D01*
X236065476Y-11340476D01*
X236003571Y-11464285D01*
X235941666Y-11526190D01*
X235817857Y-11588095D01*
X235508333Y-11588095D01*
X235384523Y-11526190D01*
X235322619Y-11464285D01*
D10*
D11*
X285941666Y-10288095D02*
X285694047Y-10288095D01*
X285570238Y-10350000D01*
X285508333Y-10411904D01*
X285384523Y-10597619D01*
X285322619Y-10845238D01*
X285322619Y-11340476D01*
X285384523Y-11464285D01*
X285446428Y-11526190D01*
X285570238Y-11588095D01*
X285817857Y-11588095D01*
X285941666Y-11526190D01*
X286003571Y-11464285D01*
X286065476Y-11340476D01*
X286065476Y-11030952D01*
X286003571Y-10907142D01*
X285941666Y-10845238D01*
X285817857Y-10783333D01*
X285570238Y-10783333D01*
X285446428Y-10845238D01*
X285384523Y-10907142D01*
X285322619Y-11030952D01*
D10*
D11*
X60000000Y-198007200D02*
X60000000Y-200007200D01*
D10*
D11*
X110000000Y-198007200D02*
X110000000Y-200007200D01*
D10*
D11*
X160000000Y-198007200D02*
X160000000Y-200007200D01*
D10*
D11*
X210000000Y-198007200D02*
X210000000Y-200007200D01*
D10*
D11*
X260000000Y-198007200D02*
X260000000Y-200007200D01*
D10*
D11*
X36065476Y-199595295D02*
X35322619Y-199595295D01*
X35694047Y-199595295D02*
X35694047Y-198295295D01*
X35570238Y-198481009D01*
X35446428Y-198604819D01*
X35322619Y-198666723D01*
D10*
D11*
X85322619Y-198419104D02*
X85384523Y-198357200D01*
X85508333Y-198295295D01*
X85817857Y-198295295D01*
X85941666Y-198357200D01*
X86003571Y-198419104D01*
X86065476Y-198542914D01*
X86065476Y-198666723D01*
X86003571Y-198852438D01*
X85260714Y-199595295D01*
X86065476Y-199595295D01*
D10*
D11*
X135260714Y-198295295D02*
X136065476Y-198295295D01*
X135632142Y-198790533D01*
X135817857Y-198790533D01*
X135941666Y-198852438D01*
X136003571Y-198914342D01*
X136065476Y-199038152D01*
X136065476Y-199347676D01*
X136003571Y-199471485D01*
X135941666Y-199533390D01*
X135817857Y-199595295D01*
X135446428Y-199595295D01*
X135322619Y-199533390D01*
X135260714Y-199471485D01*
D10*
D11*
X185941666Y-198728628D02*
X185941666Y-199595295D01*
X185632142Y-198233390D02*
X185322619Y-199161961D01*
X186127380Y-199161961D01*
D10*
D11*
X236003571Y-198295295D02*
X235384523Y-198295295D01*
X235322619Y-198914342D01*
X235384523Y-198852438D01*
X235508333Y-198790533D01*
X235817857Y-198790533D01*
X235941666Y-198852438D01*
X236003571Y-198914342D01*
X236065476Y-199038152D01*
X236065476Y-199347676D01*
X236003571Y-199471485D01*
X235941666Y-199533390D01*
X235817857Y-199595295D01*
X235508333Y-199595295D01*
X235384523Y-199533390D01*
X235322619Y-199471485D01*
D10*
D11*
X285941666Y-198295295D02*
X285694047Y-198295295D01*
X285570238Y-198357200D01*
X285508333Y-198419104D01*
X285384523Y-198604819D01*
X285322619Y-198852438D01*
X285322619Y-199347676D01*
X285384523Y-199471485D01*
X285446428Y-199533390D01*
X285570238Y-199595295D01*
X285817857Y-199595295D01*
X285941666Y-199533390D01*
X286003571Y-199471485D01*
X286065476Y-199347676D01*
X286065476Y-199038152D01*
X286003571Y-198914342D01*
X285941666Y-198852438D01*
X285817857Y-198790533D01*
X285570238Y-198790533D01*
X285446428Y-198852438D01*
X285384523Y-198914342D01*
X285322619Y-199038152D01*
D10*
D11*
X10000000Y-60000000D02*
X12000000Y-60000000D01*
D10*
D11*
X10000000Y-110000000D02*
X12000000Y-110000000D01*
D10*
D11*
X10000000Y-160000000D02*
X12000000Y-160000000D01*
D10*
D11*
X10690476Y-35216666D02*
X11309523Y-35216666D01*
X10566666Y-35588095D02*
X11000000Y-34288095D01*
X11433333Y-35588095D01*
D10*
D11*
X11092857Y-84907142D02*
X11278571Y-84969047D01*
X11340476Y-85030952D01*
X11402380Y-85154761D01*
X11402380Y-85340476D01*
X11340476Y-85464285D01*
X11278571Y-85526190D01*
X11154761Y-85588095D01*
X10659523Y-85588095D01*
X10659523Y-84288095D01*
X11092857Y-84288095D01*
X11216666Y-84350000D01*
X11278571Y-84411904D01*
X11340476Y-84535714D01*
X11340476Y-84659523D01*
X11278571Y-84783333D01*
X11216666Y-84845238D01*
X11092857Y-84907142D01*
X10659523Y-84907142D01*
D10*
D11*
X11402380Y-135464285D02*
X11340476Y-135526190D01*
X11154761Y-135588095D01*
X11030952Y-135588095D01*
X10845238Y-135526190D01*
X10721428Y-135402380D01*
X10659523Y-135278571D01*
X10597619Y-135030952D01*
X10597619Y-134845238D01*
X10659523Y-134597619D01*
X10721428Y-134473809D01*
X10845238Y-134350000D01*
X11030952Y-134288095D01*
X11154761Y-134288095D01*
X11340476Y-134350000D01*
X11402380Y-134411904D01*
D10*
D11*
X10659523Y-185588095D02*
X10659523Y-184288095D01*
X10969047Y-184288095D01*
X11154761Y-184350000D01*
X11278571Y-184473809D01*
X11340476Y-184597619D01*
X11402380Y-184845238D01*
X11402380Y-185030952D01*
X11340476Y-185278571D01*
X11278571Y-185402380D01*
X11154761Y-185526190D01*
X10969047Y-185588095D01*
X10659523Y-185588095D01*
D10*
D11*
X287002200Y-60000000D02*
X285002200Y-60000000D01*
D10*
D11*
X287002200Y-110000000D02*
X285002200Y-110000000D01*
D10*
D11*
X287002200Y-160000000D02*
X285002200Y-160000000D01*
D10*
D11*
X285692676Y-35216666D02*
X286311723Y-35216666D01*
X285568866Y-35588095D02*
X286002200Y-34288095D01*
X286435533Y-35588095D01*
D10*
D11*
X286095057Y-84907142D02*
X286280771Y-84969047D01*
X286342676Y-85030952D01*
X286404580Y-85154761D01*
X286404580Y-85340476D01*
X286342676Y-85464285D01*
X286280771Y-85526190D01*
X286156961Y-85588095D01*
X285661723Y-85588095D01*
X285661723Y-84288095D01*
X286095057Y-84288095D01*
X286218866Y-84350000D01*
X286280771Y-84411904D01*
X286342676Y-84535714D01*
X286342676Y-84659523D01*
X286280771Y-84783333D01*
X286218866Y-84845238D01*
X286095057Y-84907142D01*
X285661723Y-84907142D01*
D10*
D11*
X286404580Y-135464285D02*
X286342676Y-135526190D01*
X286156961Y-135588095D01*
X286033152Y-135588095D01*
X285847438Y-135526190D01*
X285723628Y-135402380D01*
X285661723Y-135278571D01*
X285599819Y-135030952D01*
X285599819Y-134845238D01*
X285661723Y-134597619D01*
X285723628Y-134473809D01*
X285847438Y-134350000D01*
X286033152Y-134288095D01*
X286156961Y-134288095D01*
X286342676Y-134350000D01*
X286404580Y-134411904D01*
D10*
D11*
X285661723Y-185588095D02*
X285661723Y-184288095D01*
X285971247Y-184288095D01*
X286156961Y-184350000D01*
X286280771Y-184473809D01*
X286342676Y-184597619D01*
X286404580Y-184845238D01*
X286404580Y-185030952D01*
X286342676Y-185278571D01*
X286280771Y-185402380D01*
X286156961Y-185526190D01*
X285971247Y-185588095D01*
X285661723Y-185588095D01*
D10*
D11*
X200434342Y-193785771D02*
X200434342Y-192285771D01*
X200791485Y-192285771D01*
X201005771Y-192357200D01*
X201148628Y-192500057D01*
X201220057Y-192642914D01*
X201291485Y-192928628D01*
X201291485Y-193142914D01*
X201220057Y-193428628D01*
X201148628Y-193571485D01*
X201005771Y-193714342D01*
X200791485Y-193785771D01*
X200434342Y-193785771D01*
X202577200Y-193785771D02*
X202577200Y-193000057D01*
X202505771Y-192857200D01*
X202362914Y-192785771D01*
X202077200Y-192785771D01*
X201934342Y-192857200D01*
X202577200Y-193714342D02*
X202434342Y-193785771D01*
X202077200Y-193785771D01*
X201934342Y-193714342D01*
X201862914Y-193571485D01*
X201862914Y-193428628D01*
X201934342Y-193285771D01*
X202077200Y-193214342D01*
X202434342Y-193214342D01*
X202577200Y-193142914D01*
X203077200Y-192785771D02*
X203648628Y-192785771D01*
X203291485Y-192285771D02*
X203291485Y-193571485D01*
X203362914Y-193714342D01*
X203505771Y-193785771D01*
X203648628Y-193785771D01*
X204720057Y-193714342D02*
X204577200Y-193785771D01*
X204291485Y-193785771D01*
X204148628Y-193714342D01*
X204077200Y-193571485D01*
X204077200Y-193000057D01*
X204148628Y-192857200D01*
X204291485Y-192785771D01*
X204577200Y-192785771D01*
X204720057Y-192857200D01*
X204791485Y-193000057D01*
X204791485Y-193142914D01*
X204077200Y-193285771D01*
X205434342Y-193642914D02*
X205505771Y-193714342D01*
X205434342Y-193785771D01*
X205362914Y-193714342D01*
X205434342Y-193642914D01*
X205434342Y-193785771D01*
X205434342Y-192857200D02*
X205505771Y-192928628D01*
X205434342Y-193000057D01*
X205362914Y-192928628D01*
X205434342Y-192857200D01*
X205434342Y-193000057D01*
X207220057Y-192428628D02*
X207291485Y-192357200D01*
X207434342Y-192285771D01*
X207791485Y-192285771D01*
X207934342Y-192357200D01*
X208005771Y-192428628D01*
X208077200Y-192571485D01*
X208077200Y-192714342D01*
X208005771Y-192928628D01*
X207148628Y-193785771D01*
X208077200Y-193785771D01*
X209005771Y-192285771D02*
X209148628Y-192285771D01*
X209291485Y-192357200D01*
X209362914Y-192428628D01*
X209434342Y-192571485D01*
X209505771Y-192857200D01*
X209505771Y-193214342D01*
X209434342Y-193500057D01*
X209362914Y-193642914D01*
X209291485Y-193714342D01*
X209148628Y-193785771D01*
X209005771Y-193785771D01*
X208862914Y-193714342D01*
X208791485Y-193642914D01*
X208720057Y-193500057D01*
X208648628Y-193214342D01*
X208648628Y-192857200D01*
X208720057Y-192571485D01*
X208791485Y-192428628D01*
X208862914Y-192357200D01*
X209005771Y-192285771D01*
X210077200Y-192428628D02*
X210148628Y-192357200D01*
X210291485Y-192285771D01*
X210648628Y-192285771D01*
X210791485Y-192357200D01*
X210862914Y-192428628D01*
X210934342Y-192571485D01*
X210934342Y-192714342D01*
X210862914Y-192928628D01*
X210005771Y-193785771D01*
X210934342Y-193785771D01*
X211434342Y-192285771D02*
X212362914Y-192285771D01*
X211862914Y-192857200D01*
X212077200Y-192857200D01*
X212220057Y-192928628D01*
X212291485Y-193000057D01*
X212362914Y-193142914D01*
X212362914Y-193500057D01*
X212291485Y-193642914D01*
X212220057Y-193714342D01*
X212077200Y-193785771D01*
X211648628Y-193785771D01*
X211505771Y-193714342D01*
X211434342Y-193642914D01*
X213005771Y-193214342D02*
X214148628Y-193214342D01*
X215148628Y-192285771D02*
X215291485Y-192285771D01*
X215434342Y-192357200D01*
X215505771Y-192428628D01*
X215577200Y-192571485D01*
X215648628Y-192857200D01*
X215648628Y-193214342D01*
X215577200Y-193500057D01*
X215505771Y-193642914D01*
X215434342Y-193714342D01*
X215291485Y-193785771D01*
X215148628Y-193785771D01*
X215005771Y-193714342D01*
X214934342Y-193642914D01*
X214862914Y-193500057D01*
X214791485Y-193214342D01*
X214791485Y-192857200D01*
X214862914Y-192571485D01*
X214934342Y-192428628D01*
X215005771Y-192357200D01*
X215148628Y-192285771D01*
X217077200Y-193785771D02*
X216220057Y-193785771D01*
X216648628Y-193785771D02*
X216648628Y-192285771D01*
X216505771Y-192500057D01*
X216362914Y-192642914D01*
X216220057Y-192714342D01*
X217720057Y-193214342D02*
X218862914Y-193214342D01*
X219505771Y-192428628D02*
X219577200Y-192357200D01*
X219720057Y-192285771D01*
X220077200Y-192285771D01*
X220220057Y-192357200D01*
X220291485Y-192428628D01*
X220362914Y-192571485D01*
X220362914Y-192714342D01*
X220291485Y-192928628D01*
X219434342Y-193785771D01*
X220362914Y-193785771D01*
X221077200Y-193785771D02*
X221362914Y-193785771D01*
X221505771Y-193714342D01*
X221577200Y-193642914D01*
X221720057Y-193428628D01*
X221791485Y-193142914D01*
X221791485Y-192571485D01*
X221720057Y-192428628D01*
X221648628Y-192357200D01*
X221505771Y-192285771D01*
X221220057Y-192285771D01*
X221077200Y-192357200D01*
X221005771Y-192428628D01*
X220934342Y-192571485D01*
X220934342Y-192928628D01*
X221005771Y-193071485D01*
X221077200Y-193142914D01*
X221220057Y-193214342D01*
X221505771Y-193214342D01*
X221648628Y-193142914D01*
X221720057Y-193071485D01*
X221791485Y-192928628D01*
D10*
D11*
X177002200Y-194507200D02*
X285002200Y-194507200D01*
D10*
D11*
X178434342Y-196585771D02*
X178434342Y-195085771D01*
X179291485Y-196585771D02*
X178648628Y-195728628D01*
X179291485Y-195085771D02*
X178434342Y-195942914D01*
X179934342Y-196585771D02*
X179934342Y-195585771D01*
X179934342Y-195085771D02*
X179862914Y-195157200D01*
X179934342Y-195228628D01*
X180005771Y-195157200D01*
X179934342Y-195085771D01*
X179934342Y-195228628D01*
X181505771Y-196442914D02*
X181434342Y-196514342D01*
X181220057Y-196585771D01*
X181077200Y-196585771D01*
X180862914Y-196514342D01*
X180720057Y-196371485D01*
X180648628Y-196228628D01*
X180577200Y-195942914D01*
X180577200Y-195728628D01*
X180648628Y-195442914D01*
X180720057Y-195300057D01*
X180862914Y-195157200D01*
X181077200Y-195085771D01*
X181220057Y-195085771D01*
X181434342Y-195157200D01*
X181505771Y-195228628D01*
X182791485Y-196585771D02*
X182791485Y-195800057D01*
X182720057Y-195657200D01*
X182577200Y-195585771D01*
X182291485Y-195585771D01*
X182148628Y-195657200D01*
X182791485Y-196514342D02*
X182648628Y-196585771D01*
X182291485Y-196585771D01*
X182148628Y-196514342D01*
X182077200Y-196371485D01*
X182077200Y-196228628D01*
X182148628Y-196085771D01*
X182291485Y-196014342D01*
X182648628Y-196014342D01*
X182791485Y-195942914D01*
X184148628Y-196585771D02*
X184148628Y-195085771D01*
X184148628Y-196514342D02*
X184005771Y-196585771D01*
X183720057Y-196585771D01*
X183577200Y-196514342D01*
X183505771Y-196442914D01*
X183434342Y-196300057D01*
X183434342Y-195871485D01*
X183505771Y-195728628D01*
X183577200Y-195657200D01*
X183720057Y-195585771D01*
X184005771Y-195585771D01*
X184148628Y-195657200D01*
X186005771Y-195800057D02*
X186505771Y-195800057D01*
X186720057Y-196585771D02*
X186005771Y-196585771D01*
X186005771Y-195085771D01*
X186720057Y-195085771D01*
X187362914Y-196442914D02*
X187434342Y-196514342D01*
X187362914Y-196585771D01*
X187291485Y-196514342D01*
X187362914Y-196442914D01*
X187362914Y-196585771D01*
X188077200Y-196585771D02*
X188077200Y-195085771D01*
X188434342Y-195085771D01*
X188648628Y-195157200D01*
X188791485Y-195300057D01*
X188862914Y-195442914D01*
X188934342Y-195728628D01*
X188934342Y-195942914D01*
X188862914Y-196228628D01*
X188791485Y-196371485D01*
X188648628Y-196514342D01*
X188434342Y-196585771D01*
X188077200Y-196585771D01*
X189577200Y-196442914D02*
X189648628Y-196514342D01*
X189577200Y-196585771D01*
X189505771Y-196514342D01*
X189577200Y-196442914D01*
X189577200Y-196585771D01*
X190220057Y-196157200D02*
X190934342Y-196157200D01*
X190077200Y-196585771D02*
X190577200Y-195085771D01*
X191077200Y-196585771D01*
X191577200Y-196442914D02*
X191648628Y-196514342D01*
X191577200Y-196585771D01*
X191505771Y-196514342D01*
X191577200Y-196442914D01*
X191577200Y-196585771D01*
X194577200Y-196585771D02*
X194577200Y-195085771D01*
X194720057Y-196014342D02*
X195148628Y-196585771D01*
X195148628Y-195585771D02*
X194577200Y-196157200D01*
X195791485Y-196585771D02*
X195791485Y-195585771D01*
X195791485Y-195085771D02*
X195720057Y-195157200D01*
X195791485Y-195228628D01*
X195862914Y-195157200D01*
X195791485Y-195085771D01*
X195791485Y-195228628D01*
X197148628Y-196514342D02*
X197005771Y-196585771D01*
X196720057Y-196585771D01*
X196577200Y-196514342D01*
X196505771Y-196442914D01*
X196434342Y-196300057D01*
X196434342Y-195871485D01*
X196505771Y-195728628D01*
X196577200Y-195657200D01*
X196720057Y-195585771D01*
X197005771Y-195585771D01*
X197148628Y-195657200D01*
X198434342Y-196585771D02*
X198434342Y-195800057D01*
X198362914Y-195657200D01*
X198220057Y-195585771D01*
X197934342Y-195585771D01*
X197791485Y-195657200D01*
X198434342Y-196514342D02*
X198291485Y-196585771D01*
X197934342Y-196585771D01*
X197791485Y-196514342D01*
X197720057Y-196371485D01*
X197720057Y-196228628D01*
X197791485Y-196085771D01*
X197934342Y-196014342D01*
X198291485Y-196014342D01*
X198434342Y-195942914D01*
X199791485Y-196585771D02*
X199791485Y-195085771D01*
X199791485Y-196514342D02*
X199648628Y-196585771D01*
X199362914Y-196585771D01*
X199220057Y-196514342D01*
X199148628Y-196442914D01*
X199077200Y-196300057D01*
X199077200Y-195871485D01*
X199148628Y-195728628D01*
X199220057Y-195657200D01*
X199362914Y-195585771D01*
X199648628Y-195585771D01*
X199791485Y-195657200D01*
X202291485Y-195085771D02*
X202005771Y-195085771D01*
X201862914Y-195157200D01*
X201791485Y-195228628D01*
X201648628Y-195442914D01*
X201577200Y-195728628D01*
X201577200Y-196300057D01*
X201648628Y-196442914D01*
X201720057Y-196514342D01*
X201862914Y-196585771D01*
X202148628Y-196585771D01*
X202291485Y-196514342D01*
X202362914Y-196442914D01*
X202434342Y-196300057D01*
X202434342Y-195942914D01*
X202362914Y-195800057D01*
X202291485Y-195728628D01*
X202148628Y-195657200D01*
X201862914Y-195657200D01*
X201720057Y-195728628D01*
X201648628Y-195800057D01*
X201577200Y-195942914D01*
X203077200Y-196442914D02*
X203148628Y-196514342D01*
X203077200Y-196585771D01*
X203005771Y-196514342D01*
X203077200Y-196442914D01*
X203077200Y-196585771D01*
X204077200Y-195085771D02*
X204220057Y-195085771D01*
X204362914Y-195157200D01*
X204434342Y-195228628D01*
X204505771Y-195371485D01*
X204577200Y-195657200D01*
X204577200Y-196014342D01*
X204505771Y-196300057D01*
X204434342Y-196442914D01*
X204362914Y-196514342D01*
X204220057Y-196585771D01*
X204077200Y-196585771D01*
X203934342Y-196514342D01*
X203862914Y-196442914D01*
X203791485Y-196300057D01*
X203720057Y-196014342D01*
X203720057Y-195657200D01*
X203791485Y-195371485D01*
X203862914Y-195228628D01*
X203934342Y-195157200D01*
X204077200Y-195085771D01*
X205220057Y-196442914D02*
X205291485Y-196514342D01*
X205220057Y-196585771D01*
X205148628Y-196514342D01*
X205220057Y-196442914D01*
X205220057Y-196585771D01*
X206005771Y-196585771D02*
X206291485Y-196585771D01*
X206434342Y-196514342D01*
X206505771Y-196442914D01*
X206648628Y-196228628D01*
X206720057Y-195942914D01*
X206720057Y-195371485D01*
X206648628Y-195228628D01*
X206577200Y-195157200D01*
X206434342Y-195085771D01*
X206148628Y-195085771D01*
X206005771Y-195157200D01*
X205934342Y-195228628D01*
X205862914Y-195371485D01*
X205862914Y-195728628D01*
X205934342Y-195871485D01*
X206005771Y-195942914D01*
X206148628Y-196014342D01*
X206434342Y-196014342D01*
X206577200Y-195942914D01*
X206648628Y-195871485D01*
X206720057Y-195728628D01*
D10*
D11*
X177002200Y-191507200D02*
X285002200Y-191507200D01*
D10*
D12*
X264411485Y-193785771D02*
X263911485Y-193071485D01*
X263554342Y-193785771D02*
X263554342Y-192285771D01*
X264125771Y-192285771D01*
X264268628Y-192357200D01*
X264340057Y-192428628D01*
X264411485Y-192571485D01*
X264411485Y-192785771D01*
X264340057Y-192928628D01*
X264268628Y-193000057D01*
X264125771Y-193071485D01*
X263554342Y-193071485D01*
X265625771Y-193714342D02*
X265482914Y-193785771D01*
X265197200Y-193785771D01*
X265054342Y-193714342D01*
X264982914Y-193571485D01*
X264982914Y-193000057D01*
X265054342Y-192857200D01*
X265197200Y-192785771D01*
X265482914Y-192785771D01*
X265625771Y-192857200D01*
X265697200Y-193000057D01*
X265697200Y-193142914D01*
X264982914Y-193285771D01*
X266197200Y-192785771D02*
X266554342Y-193785771D01*
X266911485Y-192785771D01*
X267482914Y-193642914D02*
X267554342Y-193714342D01*
X267482914Y-193785771D01*
X267411485Y-193714342D01*
X267482914Y-193642914D01*
X267482914Y-193785771D01*
X267482914Y-192857200D02*
X267554342Y-192928628D01*
X267482914Y-193000057D01*
X267411485Y-192928628D01*
X267482914Y-192857200D01*
X267482914Y-193000057D01*
X269625771Y-192285771D02*
X269768628Y-192285771D01*
X269911485Y-192357200D01*
X269982914Y-192428628D01*
X270054342Y-192571485D01*
X270125771Y-192857200D01*
X270125771Y-193214342D01*
X270054342Y-193500057D01*
X269982914Y-193642914D01*
X269911485Y-193714342D01*
X269768628Y-193785771D01*
X269625771Y-193785771D01*
X269482914Y-193714342D01*
X269411485Y-193642914D01*
X269340057Y-193500057D01*
X269268628Y-193214342D01*
X269268628Y-192857200D01*
X269340057Y-192571485D01*
X269411485Y-192428628D01*
X269482914Y-192357200D01*
X269625771Y-192285771D01*
X270768628Y-193642914D02*
X270840057Y-193714342D01*
X270768628Y-193785771D01*
X270697200Y-193714342D01*
X270768628Y-193642914D01*
X270768628Y-193785771D01*
X271411485Y-192428628D02*
X271482914Y-192357200D01*
X271625771Y-192285771D01*
X271982914Y-192285771D01*
X272125771Y-192357200D01*
X272197200Y-192428628D01*
X272268628Y-192571485D01*
X272268628Y-192714342D01*
X272197200Y-192928628D01*
X271340057Y-193785771D01*
X272268628Y-193785771D01*
X272911485Y-193642914D02*
X272982914Y-193714342D01*
X272911485Y-193785771D01*
X272840057Y-193714342D01*
X272911485Y-193642914D01*
X272911485Y-193785771D01*
X274411485Y-193785771D02*
X273554342Y-193785771D01*
X273982914Y-193785771D02*
X273982914Y-192285771D01*
X273840057Y-192500057D01*
X273697200Y-192642914D01*
X273554342Y-192714342D01*
D10*
D11*
X178362914Y-193714342D02*
X178577200Y-193785771D01*
X178934342Y-193785771D01*
X179077200Y-193714342D01*
X179148628Y-193642914D01*
X179220057Y-193500057D01*
X179220057Y-193357200D01*
X179148628Y-193214342D01*
X179077200Y-193142914D01*
X178934342Y-193071485D01*
X178648628Y-193000057D01*
X178505771Y-192928628D01*
X178434342Y-192857200D01*
X178362914Y-192714342D01*
X178362914Y-192571485D01*
X178434342Y-192428628D01*
X178505771Y-192357200D01*
X178648628Y-192285771D01*
X179005771Y-192285771D01*
X179220057Y-192357200D01*
X179862914Y-193785771D02*
X179862914Y-192785771D01*
X179862914Y-192285771D02*
X179791485Y-192357200D01*
X179862914Y-192428628D01*
X179934342Y-192357200D01*
X179862914Y-192285771D01*
X179862914Y-192428628D01*
X180434342Y-192785771D02*
X181220057Y-192785771D01*
X180434342Y-193785771D01*
X181220057Y-193785771D01*
X182362914Y-193714342D02*
X182220057Y-193785771D01*
X181934342Y-193785771D01*
X181791485Y-193714342D01*
X181720057Y-193571485D01*
X181720057Y-193000057D01*
X181791485Y-192857200D01*
X181934342Y-192785771D01*
X182220057Y-192785771D01*
X182362914Y-192857200D01*
X182434342Y-193000057D01*
X182434342Y-193142914D01*
X181720057Y-193285771D01*
X183077200Y-193642914D02*
X183148628Y-193714342D01*
X183077200Y-193785771D01*
X183005771Y-193714342D01*
X183077200Y-193642914D01*
X183077200Y-193785771D01*
X183077200Y-192857200D02*
X183148628Y-192928628D01*
X183077200Y-193000057D01*
X183005771Y-192928628D01*
X183077200Y-192857200D01*
X183077200Y-193000057D01*
X184862914Y-193357200D02*
X185577200Y-193357200D01*
X184720057Y-193785771D02*
X185220057Y-192285771D01*
X185720057Y-193785771D01*
X186862914Y-192785771D02*
X186862914Y-193785771D01*
X186505771Y-192214342D02*
X186148628Y-193285771D01*
X187077200Y-193285771D01*
D10*
D11*
X263434342Y-196585771D02*
X263434342Y-195085771D01*
X264791485Y-196585771D02*
X264791485Y-195085771D01*
X264791485Y-196514342D02*
X264648628Y-196585771D01*
X264362914Y-196585771D01*
X264220057Y-196514342D01*
X264148628Y-196442914D01*
X264077200Y-196300057D01*
X264077200Y-195871485D01*
X264148628Y-195728628D01*
X264220057Y-195657200D01*
X264362914Y-195585771D01*
X264648628Y-195585771D01*
X264791485Y-195657200D01*
X265505771Y-196442914D02*
X265577200Y-196514342D01*
X265505771Y-196585771D01*
X265434342Y-196514342D01*
X265505771Y-196442914D01*
X265505771Y-196585771D01*
X265505771Y-195657200D02*
X265577200Y-195728628D01*
X265505771Y-195800057D01*
X265434342Y-195728628D01*
X265505771Y-195657200D01*
X265505771Y-195800057D01*
X268148628Y-196585771D02*
X267291485Y-196585771D01*
X267720057Y-196585771D02*
X267720057Y-195085771D01*
X267577200Y-195300057D01*
X267434342Y-195442914D01*
X267291485Y-195514342D01*
X269862914Y-195014342D02*
X268577200Y-196942914D01*
X271148628Y-196585771D02*
X270291485Y-196585771D01*
X270720057Y-196585771D02*
X270720057Y-195085771D01*
X270577200Y-195300057D01*
X270434342Y-195442914D01*
X270291485Y-195514342D01*
D10*
D11*
X177002200Y-187507200D02*
X285002200Y-187507200D01*
D10*
D13*
X178714580Y-188211961D02*
X179857438Y-188211961D01*
X179036009Y-190211961D02*
X179286009Y-188211961D01*
X180274104Y-190211961D02*
X180440771Y-188878628D01*
X180524104Y-188211961D02*
X180416961Y-188307200D01*
X180500295Y-188402438D01*
X180607438Y-188307200D01*
X180524104Y-188211961D01*
X180500295Y-188402438D01*
X181107438Y-188878628D02*
X181869342Y-188878628D01*
X181476485Y-188211961D02*
X181262200Y-189926247D01*
X181333628Y-190116723D01*
X181512200Y-190211961D01*
X181702676Y-190211961D01*
X182655057Y-190211961D02*
X182476485Y-190116723D01*
X182405057Y-189926247D01*
X182619342Y-188211961D01*
X184190771Y-190116723D02*
X183988390Y-190211961D01*
X183607438Y-190211961D01*
X183428866Y-190116723D01*
X183357438Y-189926247D01*
X183452676Y-189164342D01*
X183571723Y-188973866D01*
X183774104Y-188878628D01*
X184155057Y-188878628D01*
X184333628Y-188973866D01*
X184405057Y-189164342D01*
X184381247Y-189354819D01*
X183405057Y-189545295D01*
X185155057Y-190021485D02*
X185238390Y-190116723D01*
X185131247Y-190211961D01*
X185047914Y-190116723D01*
X185155057Y-190021485D01*
X185131247Y-190211961D01*
X185286009Y-188973866D02*
X185369342Y-189069104D01*
X185262200Y-189164342D01*
X185178866Y-189069104D01*
X185286009Y-188973866D01*
X185262200Y-189164342D01*
X188774104Y-190021485D02*
X188666961Y-190116723D01*
X188369342Y-190211961D01*
X188178866Y-190211961D01*
X187905057Y-190116723D01*
X187738390Y-189926247D01*
X187666961Y-189735771D01*
X187619342Y-189354819D01*
X187655057Y-189069104D01*
X187797914Y-188688152D01*
X187916961Y-188497676D01*
X188131247Y-188307200D01*
X188428866Y-188211961D01*
X188619342Y-188211961D01*
X188893152Y-188307200D01*
X188976485Y-188402438D01*
X189607438Y-190211961D02*
X189857438Y-188211961D01*
X190464580Y-190211961D02*
X190595533Y-189164342D01*
X190524104Y-188973866D01*
X190345533Y-188878628D01*
X190059819Y-188878628D01*
X189857438Y-188973866D01*
X189750295Y-189069104D01*
X192440771Y-188878628D02*
X192274104Y-190211961D01*
X191583628Y-188878628D02*
X191452676Y-189926247D01*
X191524104Y-190116723D01*
X191702676Y-190211961D01*
X191988390Y-190211961D01*
X192190771Y-190116723D01*
X192297914Y-190021485D01*
X193226485Y-190211961D02*
X193476485Y-188211961D01*
X193381247Y-188973866D02*
X193583628Y-188878628D01*
X193964580Y-188878628D01*
X194143152Y-188973866D01*
X194226485Y-189069104D01*
X194297914Y-189259580D01*
X194226485Y-189831009D01*
X194107438Y-190021485D01*
X194000295Y-190116723D01*
X193797914Y-190211961D01*
X193416961Y-190211961D01*
X193238390Y-190116723D01*
X195036009Y-190211961D02*
X195286009Y-188211961D01*
X195190771Y-188973866D02*
X195393152Y-188878628D01*
X195774104Y-188878628D01*
X195952676Y-188973866D01*
X196036009Y-189069104D01*
X196107438Y-189259580D01*
X196036009Y-189831009D01*
X195916961Y-190021485D01*
X195809819Y-190116723D01*
X195607438Y-190211961D01*
X195226485Y-190211961D01*
X195047914Y-190116723D01*
X196821723Y-188878628D02*
X197131247Y-190211961D01*
X197774104Y-188878628D02*
X197131247Y-190211961D01*
X196881247Y-190688152D01*
X196774104Y-190783390D01*
X196571723Y-190878628D01*
X199893152Y-190211961D02*
X200143152Y-188211961D01*
X200024104Y-189164342D02*
X201166961Y-189164342D01*
X201036009Y-190211961D02*
X201286009Y-188211961D01*
X202845533Y-190211961D02*
X202976485Y-189164342D01*
X202905057Y-188973866D01*
X202726485Y-188878628D01*
X202345533Y-188878628D01*
X202143152Y-188973866D01*
X202857438Y-190116723D02*
X202655057Y-190211961D01*
X202178866Y-190211961D01*
X202000295Y-190116723D01*
X201928866Y-189926247D01*
X201952676Y-189735771D01*
X202071723Y-189545295D01*
X202274104Y-189450057D01*
X202750295Y-189450057D01*
X202952676Y-189354819D01*
X203678866Y-188878628D02*
X204440771Y-188878628D01*
X204047914Y-188211961D02*
X203833628Y-189926247D01*
X203905057Y-190116723D01*
X204083628Y-190211961D01*
X204274104Y-190211961D01*
D10*
D11*
X178934342Y-185600057D02*
X178434342Y-185600057D01*
X178434342Y-186385771D02*
X178434342Y-184885771D01*
X179148628Y-184885771D01*
X179720057Y-186385771D02*
X179720057Y-185385771D01*
X179720057Y-184885771D02*
X179648628Y-184957200D01*
X179720057Y-185028628D01*
X179791485Y-184957200D01*
X179720057Y-184885771D01*
X179720057Y-185028628D01*
X180648628Y-186385771D02*
X180505771Y-186314342D01*
X180434342Y-186171485D01*
X180434342Y-184885771D01*
X181791485Y-186314342D02*
X181648628Y-186385771D01*
X181362914Y-186385771D01*
X181220057Y-186314342D01*
X181148628Y-186171485D01*
X181148628Y-185600057D01*
X181220057Y-185457200D01*
X181362914Y-185385771D01*
X181648628Y-185385771D01*
X181791485Y-185457200D01*
X181862914Y-185600057D01*
X181862914Y-185742914D01*
X181148628Y-185885771D01*
X182505771Y-186242914D02*
X182577200Y-186314342D01*
X182505771Y-186385771D01*
X182434342Y-186314342D01*
X182505771Y-186242914D01*
X182505771Y-186385771D01*
X182505771Y-185457200D02*
X182577200Y-185528628D01*
X182505771Y-185600057D01*
X182434342Y-185528628D01*
X182505771Y-185457200D01*
X182505771Y-185600057D01*
X185005771Y-186314342D02*
X184862914Y-186385771D01*
X184577200Y-186385771D01*
X184434342Y-186314342D01*
X184362914Y-186242914D01*
X184291485Y-186100057D01*
X184291485Y-185671485D01*
X184362914Y-185528628D01*
X184434342Y-185457200D01*
X184577200Y-185385771D01*
X184862914Y-185385771D01*
X185005771Y-185457200D01*
X185648628Y-186385771D02*
X185648628Y-184885771D01*
X186291485Y-186385771D02*
X186291485Y-185600057D01*
X186220057Y-185457200D01*
X186077200Y-185385771D01*
X185862914Y-185385771D01*
X185720057Y-185457200D01*
X185648628Y-185528628D01*
X187648628Y-185385771D02*
X187648628Y-186385771D01*
X187005771Y-185385771D02*
X187005771Y-186171485D01*
X187077200Y-186314342D01*
X187220057Y-186385771D01*
X187434342Y-186385771D01*
X187577200Y-186314342D01*
X187648628Y-186242914D01*
X188362914Y-186385771D02*
X188362914Y-184885771D01*
X188362914Y-185457200D02*
X188505771Y-185385771D01*
X188791485Y-185385771D01*
X188934342Y-185457200D01*
X189005771Y-185528628D01*
X189077200Y-185671485D01*
X189077200Y-186100057D01*
X189005771Y-186242914D01*
X188934342Y-186314342D01*
X188791485Y-186385771D01*
X188505771Y-186385771D01*
X188362914Y-186314342D01*
X189720057Y-186385771D02*
X189720057Y-184885771D01*
X189720057Y-185457200D02*
X189862914Y-185385771D01*
X190148628Y-185385771D01*
X190291485Y-185457200D01*
X190362914Y-185528628D01*
X190434342Y-185671485D01*
X190434342Y-186100057D01*
X190362914Y-186242914D01*
X190291485Y-186314342D01*
X190148628Y-186385771D01*
X189862914Y-186385771D01*
X189720057Y-186314342D01*
X190934342Y-185385771D02*
X191291485Y-186385771D01*
X191648628Y-185385771D02*
X191291485Y-186385771D01*
X191148628Y-186742914D01*
X191077200Y-186814342D01*
X190934342Y-186885771D01*
X192220057Y-185814342D02*
X193362914Y-185814342D01*
X194077200Y-186385771D02*
X194077200Y-184885771D01*
X194720057Y-186385771D02*
X194720057Y-185600057D01*
X194648628Y-185457200D01*
X194505771Y-185385771D01*
X194291485Y-185385771D01*
X194148628Y-185457200D01*
X194077200Y-185528628D01*
X196077200Y-186385771D02*
X196077200Y-185600057D01*
X196005771Y-185457200D01*
X195862914Y-185385771D01*
X195577200Y-185385771D01*
X195434342Y-185457200D01*
X196077200Y-186314342D02*
X195934342Y-186385771D01*
X195577200Y-186385771D01*
X195434342Y-186314342D01*
X195362914Y-186171485D01*
X195362914Y-186028628D01*
X195434342Y-185885771D01*
X195577200Y-185814342D01*
X195934342Y-185814342D01*
X196077200Y-185742914D01*
X196577200Y-185385771D02*
X197148628Y-185385771D01*
X196791485Y-184885771D02*
X196791485Y-186171485D01*
X196862914Y-186314342D01*
X197005771Y-186385771D01*
X197148628Y-186385771D01*
X197648628Y-186242914D02*
X197720057Y-186314342D01*
X197648628Y-186385771D01*
X197577200Y-186314342D01*
X197648628Y-186242914D01*
X197648628Y-186385771D01*
X198362914Y-186385771D02*
X198362914Y-184885771D01*
X198505771Y-185814342D02*
X198934342Y-186385771D01*
X198934342Y-185385771D02*
X198362914Y-185957200D01*
X199577200Y-186385771D02*
X199577200Y-185385771D01*
X199577200Y-184885771D02*
X199505771Y-184957200D01*
X199577200Y-185028628D01*
X199648628Y-184957200D01*
X199577200Y-184885771D01*
X199577200Y-185028628D01*
X200934342Y-186314342D02*
X200791485Y-186385771D01*
X200505771Y-186385771D01*
X200362914Y-186314342D01*
X200291485Y-186242914D01*
X200220057Y-186100057D01*
X200220057Y-185671485D01*
X200291485Y-185528628D01*
X200362914Y-185457200D01*
X200505771Y-185385771D01*
X200791485Y-185385771D01*
X200934342Y-185457200D01*
X202220057Y-186385771D02*
X202220057Y-185600057D01*
X202148628Y-185457200D01*
X202005771Y-185385771D01*
X201720057Y-185385771D01*
X201577200Y-185457200D01*
X202220057Y-186314342D02*
X202077200Y-186385771D01*
X201720057Y-186385771D01*
X201577200Y-186314342D01*
X201505771Y-186171485D01*
X201505771Y-186028628D01*
X201577200Y-185885771D01*
X201720057Y-185814342D01*
X202077200Y-185814342D01*
X202220057Y-185742914D01*
X203577200Y-186385771D02*
X203577200Y-184885771D01*
X203577200Y-186314342D02*
X203434342Y-186385771D01*
X203148628Y-186385771D01*
X203005771Y-186314342D01*
X202934342Y-186242914D01*
X202862914Y-186100057D01*
X202862914Y-185671485D01*
X202934342Y-185528628D01*
X203005771Y-185457200D01*
X203148628Y-185385771D01*
X203434342Y-185385771D01*
X203577200Y-185457200D01*
X203934342Y-186528628D02*
X205077200Y-186528628D01*
X205434342Y-185385771D02*
X205434342Y-186885771D01*
X205434342Y-185457200D02*
X205577200Y-185385771D01*
X205862914Y-185385771D01*
X206005771Y-185457200D01*
X206077200Y-185528628D01*
X206148628Y-185671485D01*
X206148628Y-186100057D01*
X206077200Y-186242914D01*
X206005771Y-186314342D01*
X205862914Y-186385771D01*
X205577200Y-186385771D01*
X205434342Y-186314342D01*
X207434342Y-186314342D02*
X207291485Y-186385771D01*
X207005771Y-186385771D01*
X206862914Y-186314342D01*
X206791485Y-186242914D01*
X206720057Y-186100057D01*
X206720057Y-185671485D01*
X206791485Y-185528628D01*
X206862914Y-185457200D01*
X207005771Y-185385771D01*
X207291485Y-185385771D01*
X207434342Y-185457200D01*
X208077200Y-186385771D02*
X208077200Y-184885771D01*
X208077200Y-185457200D02*
X208220057Y-185385771D01*
X208505771Y-185385771D01*
X208648628Y-185457200D01*
X208720057Y-185528628D01*
X208791485Y-185671485D01*
X208791485Y-186100057D01*
X208720057Y-186242914D01*
X208648628Y-186314342D01*
X208505771Y-186385771D01*
X208220057Y-186385771D01*
X208077200Y-186314342D01*
D10*
D11*
X177002200Y-181507200D02*
X285002200Y-181507200D01*
D10*
D11*
X178362914Y-183614342D02*
X178577200Y-183685771D01*
X178934342Y-183685771D01*
X179077200Y-183614342D01*
X179148628Y-183542914D01*
X179220057Y-183400057D01*
X179220057Y-183257200D01*
X179148628Y-183114342D01*
X179077200Y-183042914D01*
X178934342Y-182971485D01*
X178648628Y-182900057D01*
X178505771Y-182828628D01*
X178434342Y-182757200D01*
X178362914Y-182614342D01*
X178362914Y-182471485D01*
X178434342Y-182328628D01*
X178505771Y-182257200D01*
X178648628Y-182185771D01*
X179005771Y-182185771D01*
X179220057Y-182257200D01*
X179862914Y-183685771D02*
X179862914Y-182185771D01*
X180505771Y-183685771D02*
X180505771Y-182900057D01*
X180434342Y-182757200D01*
X180291485Y-182685771D01*
X180077200Y-182685771D01*
X179934342Y-182757200D01*
X179862914Y-182828628D01*
X181791485Y-183614342D02*
X181648628Y-183685771D01*
X181362914Y-183685771D01*
X181220057Y-183614342D01*
X181148628Y-183471485D01*
X181148628Y-182900057D01*
X181220057Y-182757200D01*
X181362914Y-182685771D01*
X181648628Y-182685771D01*
X181791485Y-182757200D01*
X181862914Y-182900057D01*
X181862914Y-183042914D01*
X181148628Y-183185771D01*
X183077200Y-183614342D02*
X182934342Y-183685771D01*
X182648628Y-183685771D01*
X182505771Y-183614342D01*
X182434342Y-183471485D01*
X182434342Y-182900057D01*
X182505771Y-182757200D01*
X182648628Y-182685771D01*
X182934342Y-182685771D01*
X183077200Y-182757200D01*
X183148628Y-182900057D01*
X183148628Y-183042914D01*
X182434342Y-183185771D01*
X183577200Y-182685771D02*
X184148628Y-182685771D01*
X183791485Y-182185771D02*
X183791485Y-183471485D01*
X183862914Y-183614342D01*
X184005771Y-183685771D01*
X184148628Y-183685771D01*
X184648628Y-183542914D02*
X184720057Y-183614342D01*
X184648628Y-183685771D01*
X184577200Y-183614342D01*
X184648628Y-183542914D01*
X184648628Y-183685771D01*
X184648628Y-182757200D02*
X184720057Y-182828628D01*
X184648628Y-182900057D01*
X184577200Y-182828628D01*
X184648628Y-182757200D01*
X184648628Y-182900057D01*
D10*
D12*
D10*
D11*
X179077200Y-176685771D02*
X179077200Y-177900057D01*
X179005771Y-178042914D01*
X178934342Y-178114342D01*
X178791485Y-178185771D01*
X178577200Y-178185771D01*
X178434342Y-178114342D01*
X179077200Y-177614342D02*
X178934342Y-177685771D01*
X178648628Y-177685771D01*
X178505771Y-177614342D01*
X178434342Y-177542914D01*
X178362914Y-177400057D01*
X178362914Y-176971485D01*
X178434342Y-176828628D01*
X178505771Y-176757200D01*
X178648628Y-176685771D01*
X178934342Y-176685771D01*
X179077200Y-176757200D01*
X179791485Y-177685771D02*
X179791485Y-176685771D01*
X179791485Y-176185771D02*
X179720057Y-176257200D01*
X179791485Y-176328628D01*
X179862914Y-176257200D01*
X179791485Y-176185771D01*
X179791485Y-176328628D01*
X180291485Y-176685771D02*
X180862914Y-176685771D01*
X180505771Y-176185771D02*
X180505771Y-177471485D01*
X180577200Y-177614342D01*
X180720057Y-177685771D01*
X180862914Y-177685771D01*
X181362914Y-177685771D02*
X181362914Y-176185771D01*
X182005771Y-177685771D02*
X182005771Y-176900057D01*
X181934342Y-176757200D01*
X181791485Y-176685771D01*
X181577200Y-176685771D01*
X181434342Y-176757200D01*
X181362914Y-176828628D01*
X183362914Y-176685771D02*
X183362914Y-177685771D01*
X182720057Y-176685771D02*
X182720057Y-177471485D01*
X182791485Y-177614342D01*
X182934342Y-177685771D01*
X183148628Y-177685771D01*
X183291485Y-177614342D01*
X183362914Y-177542914D01*
X184077200Y-177685771D02*
X184077200Y-176185771D01*
X184077200Y-176757200D02*
X184220057Y-176685771D01*
X184505771Y-176685771D01*
X184648628Y-176757200D01*
X184720057Y-176828628D01*
X184791485Y-176971485D01*
X184791485Y-177400057D01*
X184720057Y-177542914D01*
X184648628Y-177614342D01*
X184505771Y-177685771D01*
X184220057Y-177685771D01*
X184077200Y-177614342D01*
X185434342Y-177542914D02*
X185505771Y-177614342D01*
X185434342Y-177685771D01*
X185362914Y-177614342D01*
X185434342Y-177542914D01*
X185434342Y-177685771D01*
X186791485Y-177614342D02*
X186648628Y-177685771D01*
X186362914Y-177685771D01*
X186220057Y-177614342D01*
X186148628Y-177542914D01*
X186077200Y-177400057D01*
X186077200Y-176971485D01*
X186148628Y-176828628D01*
X186220057Y-176757200D01*
X186362914Y-176685771D01*
X186648628Y-176685771D01*
X186791485Y-176757200D01*
X187648628Y-177685771D02*
X187505771Y-177614342D01*
X187434342Y-177542914D01*
X187362914Y-177400057D01*
X187362914Y-176971485D01*
X187434342Y-176828628D01*
X187505771Y-176757200D01*
X187648628Y-176685771D01*
X187862914Y-176685771D01*
X188005771Y-176757200D01*
X188077200Y-176828628D01*
X188148628Y-176971485D01*
X188148628Y-177400057D01*
X188077200Y-177542914D01*
X188005771Y-177614342D01*
X187862914Y-177685771D01*
X187648628Y-177685771D01*
X188791485Y-177685771D02*
X188791485Y-176685771D01*
X188791485Y-176828628D02*
X188862914Y-176757200D01*
X189005771Y-176685771D01*
X189220057Y-176685771D01*
X189362914Y-176757200D01*
X189434342Y-176900057D01*
X189434342Y-177685771D01*
X189434342Y-176900057D02*
X189505771Y-176757200D01*
X189648628Y-176685771D01*
X189862914Y-176685771D01*
X190005771Y-176757200D01*
X190077200Y-176900057D01*
X190077200Y-177685771D01*
X191862914Y-176114342D02*
X190577200Y-178042914D01*
X193005771Y-177614342D02*
X192862914Y-177685771D01*
X192577200Y-177685771D01*
X192434342Y-177614342D01*
X192362914Y-177542914D01*
X192291485Y-177400057D01*
X192291485Y-176971485D01*
X192362914Y-176828628D01*
X192434342Y-176757200D01*
X192577200Y-176685771D01*
X192862914Y-176685771D01*
X193005771Y-176757200D01*
X193505771Y-176685771D02*
X193862914Y-177685771D01*
X194220057Y-176685771D02*
X193862914Y-177685771D01*
X193720057Y-178042914D01*
X193648628Y-178114342D01*
X193505771Y-178185771D01*
X194791485Y-177685771D02*
X194791485Y-176185771D01*
X194791485Y-176757200D02*
X194934342Y-176685771D01*
X195220057Y-176685771D01*
X195362914Y-176757200D01*
X195434342Y-176828628D01*
X195505771Y-176971485D01*
X195505771Y-177400057D01*
X195434342Y-177542914D01*
X195362914Y-177614342D01*
X195220057Y-177685771D01*
X194934342Y-177685771D01*
X194791485Y-177614342D01*
X196720057Y-177614342D02*
X196577200Y-177685771D01*
X196291485Y-177685771D01*
X196148628Y-177614342D01*
X196077200Y-177471485D01*
X196077200Y-176900057D01*
X196148628Y-176757200D01*
X196291485Y-176685771D01*
X196577200Y-176685771D01*
X196720057Y-176757200D01*
X196791485Y-176900057D01*
X196791485Y-177042914D01*
X196077200Y-177185771D01*
X197434342Y-177685771D02*
X197434342Y-176685771D01*
X197434342Y-176971485D02*
X197505771Y-176828628D01*
X197577200Y-176757200D01*
X197720057Y-176685771D01*
X197862914Y-176685771D01*
X198362914Y-177114342D02*
X199505771Y-177114342D01*
X200220057Y-177685771D02*
X200220057Y-176685771D01*
X200220057Y-176828628D02*
X200291485Y-176757200D01*
X200434342Y-176685771D01*
X200648628Y-176685771D01*
X200791485Y-176757200D01*
X200862914Y-176900057D01*
X200862914Y-177685771D01*
X200862914Y-176900057D02*
X200934342Y-176757200D01*
X201077200Y-176685771D01*
X201291485Y-176685771D01*
X201434342Y-176757200D01*
X201505771Y-176900057D01*
X201505771Y-177685771D01*
X202862914Y-176685771D02*
X202862914Y-177685771D01*
X202220057Y-176685771D02*
X202220057Y-177471485D01*
X202291485Y-177614342D01*
X202434342Y-177685771D01*
X202648628Y-177685771D01*
X202791485Y-177614342D01*
X202862914Y-177542914D01*
X203577200Y-177685771D02*
X203577200Y-176685771D01*
X203577200Y-176971485D02*
X203648628Y-176828628D01*
X203720057Y-176757200D01*
X203862914Y-176685771D01*
X204005771Y-176685771D01*
X204505771Y-177685771D02*
X204505771Y-176685771D01*
X204505771Y-176828628D02*
X204577200Y-176757200D01*
X204720057Y-176685771D01*
X204934342Y-176685771D01*
X205077200Y-176757200D01*
X205148628Y-176900057D01*
X205148628Y-177685771D01*
X205148628Y-176900057D02*
X205220057Y-176757200D01*
X205362914Y-176685771D01*
X205577200Y-176685771D01*
X205720057Y-176757200D01*
X205791485Y-176900057D01*
X205791485Y-177685771D01*
X207077200Y-177614342D02*
X206934342Y-177685771D01*
X206648628Y-177685771D01*
X206505771Y-177614342D01*
X206434342Y-177471485D01*
X206434342Y-176900057D01*
X206505771Y-176757200D01*
X206648628Y-176685771D01*
X206934342Y-176685771D01*
X207077200Y-176757200D01*
X207148628Y-176900057D01*
X207148628Y-177042914D01*
X206434342Y-177185771D01*
X208005771Y-177685771D02*
X207862914Y-177614342D01*
X207791485Y-177471485D01*
X207791485Y-176185771D01*
X209648628Y-176114342D02*
X208362914Y-178042914D01*
X210791485Y-177614342D02*
X210648628Y-177685771D01*
X210362914Y-177685771D01*
X210220057Y-177614342D01*
X210148628Y-177542914D01*
X210077200Y-177400057D01*
X210077200Y-176971485D01*
X210148628Y-176828628D01*
X210220057Y-176757200D01*
X210362914Y-176685771D01*
X210648628Y-176685771D01*
X210791485Y-176757200D01*
X211434342Y-177685771D02*
X211434342Y-176185771D01*
X212077200Y-177685771D02*
X212077200Y-176900057D01*
X212005771Y-176757200D01*
X211862914Y-176685771D01*
X211648628Y-176685771D01*
X211505771Y-176757200D01*
X211434342Y-176828628D01*
X213434342Y-176685771D02*
X213434342Y-177685771D01*
X212791485Y-176685771D02*
X212791485Y-177471485D01*
X212862914Y-177614342D01*
X213005771Y-177685771D01*
X213220057Y-177685771D01*
X213362914Y-177614342D01*
X213434342Y-177542914D01*
X214148628Y-177685771D02*
X214148628Y-176185771D01*
X214148628Y-176757200D02*
X214291485Y-176685771D01*
X214577200Y-176685771D01*
X214720057Y-176757200D01*
X214791485Y-176828628D01*
X214862914Y-176971485D01*
X214862914Y-177400057D01*
X214791485Y-177542914D01*
X214720057Y-177614342D01*
X214577200Y-177685771D01*
X214291485Y-177685771D01*
X214148628Y-177614342D01*
X215505771Y-177685771D02*
X215505771Y-176185771D01*
X215505771Y-176757200D02*
X215648628Y-176685771D01*
X215934342Y-176685771D01*
X216077200Y-176757200D01*
X216148628Y-176828628D01*
X216220057Y-176971485D01*
X216220057Y-177400057D01*
X216148628Y-177542914D01*
X216077200Y-177614342D01*
X215934342Y-177685771D01*
X215648628Y-177685771D01*
X215505771Y-177614342D01*
X216720057Y-176685771D02*
X217077200Y-177685771D01*
X217434342Y-176685771D02*
X217077200Y-177685771D01*
X216934342Y-178042914D01*
X216862914Y-178114342D01*
X216720057Y-178185771D01*
X218005771Y-177114342D02*
X219148628Y-177114342D01*
X219862914Y-177685771D02*
X219862914Y-176185771D01*
X220505771Y-177685771D02*
X220505771Y-176900057D01*
X220434342Y-176757200D01*
X220291485Y-176685771D01*
X220077200Y-176685771D01*
X219934342Y-176757200D01*
X219862914Y-176828628D01*
X221862914Y-177685771D02*
X221862914Y-176900057D01*
X221791485Y-176757200D01*
X221648628Y-176685771D01*
X221362914Y-176685771D01*
X221220057Y-176757200D01*
X221862914Y-177614342D02*
X221720057Y-177685771D01*
X221362914Y-177685771D01*
X221220057Y-177614342D01*
X221148628Y-177471485D01*
X221148628Y-177328628D01*
X221220057Y-177185771D01*
X221362914Y-177114342D01*
X221720057Y-177114342D01*
X221862914Y-177042914D01*
X222362914Y-176685771D02*
X222934342Y-176685771D01*
X222577200Y-176185771D02*
X222577200Y-177471485D01*
X222648628Y-177614342D01*
X222791485Y-177685771D01*
X222934342Y-177685771D01*
D10*
D11*
D10*
D11*
D10*
D11*
D10*
D11*
X197002200Y-191507200D02*
X197002200Y-194507200D01*
D10*
D11*
X261002200Y-191507200D02*
X261002200Y-198007200D01*
X175500000Y-65000000D02*
X176000000Y-65500000D01*
X176000000Y-67500000D02*
X176500000Y-68000000D01*
X176000000Y-65500000D02*
X176000000Y-67500000D01*
X176500000Y-64000000D02*
X176500000Y-66500000D01*
X175500000Y-63000000D02*
X176500000Y-64000000D01*
X175954845Y-48551594D02*
X176256715Y-49198957D01*
X176360246Y-49308305D01*
X176486811Y-49354370D01*
X176636408Y-49337154D01*
X176722723Y-49296905D01*
X175514313Y-49860396D02*
X175945888Y-49659149D01*
X175523269Y-48752841D01*
X174654070Y-50156449D02*
X174717353Y-50179482D01*
X174866950Y-50162266D01*
X174953265Y-50122016D01*
X175062613Y-50018485D01*
X175108678Y-49891920D01*
X175111587Y-49785481D01*
X175074245Y-49592726D01*
X175013871Y-49463253D01*
X174890215Y-49310748D01*
X174806808Y-49244558D01*
X174680244Y-49198492D01*
X174530647Y-49215709D01*
X174444332Y-49255958D01*
X174334984Y-49359490D01*
X174311951Y-49422772D01*
X173624339Y-49638327D02*
X173926209Y-50285690D01*
X174029741Y-50395037D01*
X174156305Y-50441103D01*
X174305902Y-50423887D01*
X174392217Y-50383637D01*
X173183807Y-50947128D02*
X173615382Y-50745881D01*
X173192764Y-49839574D01*
X172323565Y-51243182D02*
X172386847Y-51266215D01*
X172536444Y-51248998D01*
X172622759Y-51208749D01*
X172732107Y-51105218D01*
X172778173Y-50978653D01*
X172781081Y-50872213D01*
X172743740Y-50679459D01*
X172683366Y-50549986D01*
X172559709Y-50397481D01*
X172476302Y-50331290D01*
X172349738Y-50285225D01*
X172200141Y-50302441D01*
X172113826Y-50342691D01*
X172004478Y-50446222D01*
X171981445Y-50509504D01*
X171293833Y-50725060D02*
X171595703Y-51372422D01*
X171699235Y-51481770D01*
X171825799Y-51527836D01*
X171975396Y-51510619D01*
X172061711Y-51470370D01*
X170853301Y-52033861D02*
X171284876Y-51832614D01*
X170862258Y-50926306D01*
X169993059Y-52329915D02*
X170056341Y-52352948D01*
X170205938Y-52335731D01*
X170292253Y-52295482D01*
X170401601Y-52191950D01*
X170447667Y-52065386D01*
X170450575Y-51958946D01*
X170413234Y-51766191D01*
X170352860Y-51636719D01*
X170229204Y-51484213D01*
X170145797Y-51418023D01*
X170019232Y-51371957D01*
X169869635Y-51389174D01*
X169783320Y-51429423D01*
X169673972Y-51532955D01*
X169650939Y-51596237D01*
X168963327Y-51811792D02*
X169265197Y-52459155D01*
X169368729Y-52568503D01*
X169495293Y-52614568D01*
X169644891Y-52597352D01*
X169731206Y-52557103D01*
X168522795Y-53120594D02*
X168954370Y-52919347D01*
X168531752Y-52013039D01*
X167662553Y-53416647D02*
X167725835Y-53439680D01*
X167875433Y-53422464D01*
X167961748Y-53382214D01*
X168071095Y-53278683D01*
X168117161Y-53152118D01*
X168120069Y-53045679D01*
X168082728Y-52852924D01*
X168022354Y-52723452D01*
X167898698Y-52570946D01*
X167815291Y-52504756D01*
X167688727Y-52458690D01*
X167539129Y-52475907D01*
X167452814Y-52516156D01*
X167343466Y-52619688D01*
X167320434Y-52682970D01*
D14*
%TO.C,J1*%
X162390000Y-121390000D02*
X157610000Y-121390000D01*
X162390000Y-124990000D02*
X157610000Y-124990000D01*
X162390000Y-122610000D02*
X157610000Y-122610000D01*
X162390000Y-126210000D02*
X157610000Y-126210000D01*
%TO.C,Y1*%
X150419060Y-88247487D02*
X153247487Y-85419060D01*
X152752513Y-90580940D02*
X150419060Y-88247487D01*
%TO.C,C5*%
X170510000Y-60140580D02*
X170510000Y-59859420D01*
X169490000Y-60140580D02*
X169490000Y-59859420D01*
%TO.C,J12*%
X190690991Y-108812354D02*
X209215922Y-117450671D01*
X189055459Y-112319765D02*
X188493376Y-113525154D01*
X190690991Y-108812354D02*
X189592184Y-111168754D01*
X188493376Y-113525154D02*
X189698766Y-114087236D01*
X190849777Y-114623962D02*
X207018308Y-122163471D01*
X189592184Y-111168754D02*
X191948584Y-112267561D01*
X209215922Y-117450671D02*
X207018308Y-122163471D01*
X191948584Y-112267561D02*
X190849777Y-114623962D01*
%TO.C,R9*%
X160798303Y-71462770D02*
X160462770Y-71798303D01*
X161537230Y-72201697D02*
X161201697Y-72537230D01*
%TO.C,R2*%
X179522500Y-70237258D02*
X179522500Y-69762742D01*
X178477500Y-70237258D02*
X178477500Y-69762742D01*
%TO.C,R5*%
X157477500Y-64237258D02*
X157477500Y-63762742D01*
X158522500Y-64237258D02*
X158522500Y-63762742D01*
%TO.C,J21*%
X245300991Y-108812354D02*
X244202184Y-111168754D01*
X243103376Y-113525154D02*
X244308766Y-114087236D01*
X243665459Y-112319765D02*
X243103376Y-113525154D01*
X245300991Y-108812354D02*
X263825922Y-117450671D01*
X263825922Y-117450671D02*
X261628308Y-122163471D01*
X244202184Y-111168754D02*
X246558584Y-112267561D01*
X245459777Y-114623962D02*
X261628308Y-122163471D01*
X246558584Y-112267561D02*
X245459777Y-114623962D01*
%TO.C,J18*%
X236520922Y-45109329D02*
X217995991Y-53747646D01*
X236520922Y-45109329D02*
X235422115Y-42752929D01*
X235422115Y-42752929D02*
X233065714Y-43851736D01*
X233065714Y-43851736D02*
X231966907Y-41495336D01*
X231966907Y-41495336D02*
X215798376Y-49034846D01*
X234323307Y-40396528D02*
X233117918Y-40958611D01*
X234885389Y-41601918D02*
X234323307Y-40396528D01*
X217995991Y-53747646D02*
X215798376Y-49034846D01*
%TO.C,FB1*%
X170162779Y-70490000D02*
X169837221Y-70490000D01*
X170162779Y-71510000D02*
X169837221Y-71510000D01*
%TO.C,C15*%
X148460030Y-83261219D02*
X148261219Y-83460030D01*
X147738781Y-82539970D02*
X147539970Y-82738781D01*
%TO.C,C8*%
X185490000Y-98140580D02*
X185490000Y-97859420D01*
X186510000Y-98140580D02*
X186510000Y-97859420D01*
%TO.C,C19*%
X164539970Y-73738781D02*
X164738781Y-73539970D01*
X165261219Y-74460030D02*
X165460030Y-74261219D01*
%TO.C,C13*%
X166539970Y-74738781D02*
X166738781Y-74539970D01*
X167261219Y-75460030D02*
X167460030Y-75261219D01*
%TO.C,C14*%
X159039970Y-70238781D02*
X159238781Y-70039970D01*
X159761219Y-70960030D02*
X159960030Y-70761219D01*
%TO.C,J22*%
X263825922Y-45109329D02*
X245300991Y-53747646D01*
X261628307Y-40396528D02*
X260422918Y-40958611D01*
X259271907Y-41495336D02*
X243103376Y-49034846D01*
X262190389Y-41601918D02*
X261628307Y-40396528D01*
X260370714Y-43851736D02*
X259271907Y-41495336D01*
X262727115Y-42752929D02*
X260370714Y-43851736D01*
X245300991Y-53747646D02*
X243103376Y-49034846D01*
X263825922Y-45109329D02*
X262727115Y-42752929D01*
%TO.C,C6*%
X170490000Y-67859420D02*
X170490000Y-68140580D01*
X171510000Y-67859420D02*
X171510000Y-68140580D01*
%TO.C,U3*%
X162440000Y-68000000D02*
X162440000Y-68800000D01*
X165560000Y-68000000D02*
X165560000Y-69800000D01*
X162440000Y-68000000D02*
X162440000Y-67200000D01*
X165560000Y-68000000D02*
X165560000Y-67200000D01*
%TO.C,R4*%
X170522500Y-64237258D02*
X170522500Y-63762742D01*
X169477500Y-64237258D02*
X169477500Y-63762742D01*
%TO.C,C16*%
X166261219Y-82539970D02*
X166460030Y-82738781D01*
X165539970Y-83261219D02*
X165738781Y-83460030D01*
%TO.C,J20*%
X164130000Y-97670000D02*
X164130000Y-99000000D01*
X166730000Y-97670000D02*
X166730000Y-100330000D01*
X166730000Y-100330000D02*
X169330000Y-100330000D01*
X169330000Y-97670000D02*
X169330000Y-100330000D01*
X165460000Y-97670000D02*
X164130000Y-97670000D01*
X166730000Y-97670000D02*
X169330000Y-97670000D01*
%TO.C,J10*%
X163385991Y-108812354D02*
X181910922Y-117450671D01*
X161188376Y-113525154D02*
X162393766Y-114087236D01*
X162287184Y-111168754D02*
X164643584Y-112267561D01*
X164643584Y-112267561D02*
X163544777Y-114623962D01*
X181910922Y-117450671D02*
X179713308Y-122163471D01*
X163385991Y-108812354D02*
X162287184Y-111168754D01*
X161750459Y-112319765D02*
X161188376Y-113525154D01*
X163544777Y-114623962D02*
X179713308Y-122163471D01*
%TO.C,C11*%
X154738781Y-89539970D02*
X154539970Y-89738781D01*
X155460030Y-90261219D02*
X155261219Y-90460030D01*
%TO.C,U5*%
X157000000Y-74894689D02*
X156540381Y-75354308D01*
X157000000Y-85105311D02*
X157459619Y-84645692D01*
X151894689Y-80000000D02*
X152354308Y-79540381D01*
X157459619Y-75354308D02*
X157000000Y-74894689D01*
X156540381Y-84645692D02*
X157000000Y-85105311D01*
X152354308Y-80459619D02*
X151894689Y-80000000D01*
X161645692Y-79540381D02*
X162105311Y-80000000D01*
%TO.C,C10*%
X177859420Y-78510000D02*
X178140580Y-78510000D01*
X177859420Y-77490000D02*
X178140580Y-77490000D01*
%TO.C,C7*%
X167510000Y-68140580D02*
X167510000Y-67859420D01*
X166490000Y-68140580D02*
X166490000Y-67859420D01*
%TO.C,R10*%
X151201697Y-86537230D02*
X151537230Y-86201697D01*
X150462770Y-85798303D02*
X150798303Y-85462770D01*
%TO.C,J17*%
X216360459Y-112319765D02*
X215798376Y-113525154D01*
X219253584Y-112267561D02*
X218154777Y-114623962D01*
X216897184Y-111168754D02*
X219253584Y-112267561D01*
X236520922Y-117450671D02*
X234323308Y-122163471D01*
X218154777Y-114623962D02*
X234323308Y-122163471D01*
X217995991Y-108812354D02*
X216897184Y-111168754D01*
X215798376Y-113525154D02*
X217003766Y-114087236D01*
X217995991Y-108812354D02*
X236520922Y-117450671D01*
%TO.C,U4*%
X175725000Y-80000000D02*
X175725000Y-77275000D01*
X170275000Y-80000000D02*
X170275000Y-77275000D01*
X175725000Y-82725000D02*
X175465000Y-82725000D01*
X175465000Y-82725000D02*
X175465000Y-84400000D01*
X170275000Y-82725000D02*
X170535000Y-82725000D01*
X175725000Y-80000000D02*
X175725000Y-82725000D01*
X170275000Y-77275000D02*
X170535000Y-77275000D01*
X170275000Y-80000000D02*
X170275000Y-82725000D01*
X175725000Y-77275000D02*
X175465000Y-77275000D01*
%TO.C,U1*%
X179410000Y-61100000D02*
X179410000Y-55090000D01*
X172590000Y-58850000D02*
X172590000Y-55090000D01*
X179410000Y-55090000D02*
X178150000Y-55090000D01*
X172590000Y-55090000D02*
X173850000Y-55090000D01*
%TO.C,J11*%
X180812115Y-42752929D02*
X178455714Y-43851736D01*
X179713307Y-40396528D02*
X178507918Y-40958611D01*
X180275389Y-41601918D02*
X179713307Y-40396528D01*
X178455714Y-43851736D02*
X177356907Y-41495336D01*
X177356907Y-41495336D02*
X161188376Y-49034846D01*
X181910922Y-45109329D02*
X180812115Y-42752929D01*
X181910922Y-45109329D02*
X163385991Y-53747646D01*
X163385991Y-53747646D02*
X161188376Y-49034846D01*
%TO.C,J14*%
X196790000Y-83185000D02*
X196790000Y-75505000D01*
X196790000Y-85785000D02*
X198120000Y-85785000D01*
X196790000Y-75505000D02*
X199450000Y-75505000D01*
X196790000Y-83185000D02*
X199450000Y-83185000D01*
X199450000Y-83185000D02*
X199450000Y-75505000D01*
X196790000Y-84455000D02*
X196790000Y-85785000D01*
%TO.C,R7*%
X178477500Y-80762742D02*
X178477500Y-81237258D01*
X179522500Y-80762742D02*
X179522500Y-81237258D01*
%TO.C,C17*%
X149238781Y-84039970D02*
X149039970Y-84238781D01*
X149960030Y-84761219D02*
X149761219Y-84960030D01*
%TO.C,C12*%
X150039970Y-90761219D02*
X150238781Y-90960030D01*
X150761219Y-90039970D02*
X150960030Y-90238781D01*
%TO.C,R8*%
X161962770Y-73298303D02*
X162298303Y-72962770D01*
X162701697Y-74037230D02*
X163037230Y-73701697D01*
%TO.C,C9*%
X184510000Y-98140580D02*
X184510000Y-97859420D01*
X183490000Y-98140580D02*
X183490000Y-97859420D01*
%TO.C,F1*%
X168477500Y-67762742D02*
X168477500Y-68237258D01*
X169522500Y-67762742D02*
X169522500Y-68237258D01*
%TO.C,R1*%
X181477500Y-70237258D02*
X181477500Y-69762742D01*
X182522500Y-70237258D02*
X182522500Y-69762742D01*
%TO.C,C4*%
X178140580Y-63510000D02*
X177859420Y-63510000D01*
X178140580Y-62490000D02*
X177859420Y-62490000D01*
%TO.C,J19*%
X181670000Y-95825000D02*
X181670000Y-98485000D01*
X177800000Y-95825000D02*
X176470000Y-95825000D01*
X176470000Y-95825000D02*
X176470000Y-97155000D01*
X179070000Y-95825000D02*
X181670000Y-95825000D01*
X179070000Y-95825000D02*
X179070000Y-98485000D01*
X179070000Y-98485000D02*
X181670000Y-98485000D01*
%TO.C,J15*%
X207018307Y-40396528D02*
X205812918Y-40958611D01*
X190690991Y-53747646D02*
X188493376Y-49034846D01*
X207580389Y-41601918D02*
X207018307Y-40396528D01*
X209215922Y-45109329D02*
X190690991Y-53747646D01*
X204661907Y-41495336D02*
X188493376Y-49034846D01*
X208117115Y-42752929D02*
X205760714Y-43851736D01*
X205760714Y-43851736D02*
X204661907Y-41495336D01*
X209215922Y-45109329D02*
X208117115Y-42752929D01*
%TO.C,C18*%
X154238781Y-70960030D02*
X154039970Y-70761219D01*
X154960030Y-70238781D02*
X154761219Y-70039970D01*
%TO.C,C1*%
X173859420Y-63510000D02*
X174140580Y-63510000D01*
X173859420Y-62490000D02*
X174140580Y-62490000D01*
%TO.C,J13*%
X190186000Y-84328000D02*
X192846000Y-84328000D01*
X192846000Y-84328000D02*
X192846000Y-76648000D01*
X190186000Y-84328000D02*
X190186000Y-76648000D01*
X190186000Y-76648000D02*
X192846000Y-76648000D01*
X190186000Y-86928000D02*
X191516000Y-86928000D01*
X190186000Y-85598000D02*
X190186000Y-86928000D01*
%TO.C,C2*%
X173859420Y-64490000D02*
X174140580Y-64490000D01*
X173859420Y-65510000D02*
X174140580Y-65510000D01*
%TO.C,Q1*%
X175560000Y-68000000D02*
X175560000Y-67350000D01*
X172440000Y-68000000D02*
X172440000Y-66325000D01*
X175560000Y-68000000D02*
X175560000Y-68650000D01*
X172440000Y-68000000D02*
X172440000Y-68650000D01*
%TO.C,C21*%
X162261219Y-86539970D02*
X162460030Y-86738781D01*
X161539970Y-87261219D02*
X161738781Y-87460030D01*
%TO.C,C3*%
X178140580Y-64490000D02*
X177859420Y-64490000D01*
X178140580Y-65510000D02*
X177859420Y-65510000D01*
%TO.C,R6*%
X177522500Y-80762742D02*
X177522500Y-81237258D01*
X176477500Y-80762742D02*
X176477500Y-81237258D01*
%TO.C,R3*%
X157477500Y-59762742D02*
X157477500Y-60237258D01*
X158522500Y-59762742D02*
X158522500Y-60237258D01*
%TO.C,C22*%
X150460030Y-74738781D02*
X150261219Y-74539970D01*
X149738781Y-75460030D02*
X149539970Y-75261219D01*
%TO.C,kibuzzard-63D6B79B*%
G36*
X155295826Y-113763579D02*
G01*
X155495752Y-113823705D01*
X155615707Y-113923916D01*
X155655692Y-114064212D01*
X155616799Y-114207285D01*
X155500117Y-114309480D01*
X155305649Y-114370797D01*
X155033392Y-114391237D01*
X155014342Y-114391237D01*
X154735141Y-114370996D01*
X154535711Y-114310274D01*
X154416053Y-114209071D01*
X154376167Y-114067387D01*
X154416153Y-113925702D01*
X154536108Y-113824499D01*
X154736034Y-113763777D01*
X155015930Y-113743537D01*
X155295826Y-113763579D01*
G37*
G36*
X154973067Y-110251037D02*
G01*
X154903217Y-110438362D01*
X154693667Y-110530437D01*
X154482530Y-110438362D01*
X154411092Y-110247862D01*
X154411092Y-109850987D01*
X154973067Y-109850987D01*
X154973067Y-110251037D01*
G37*
G36*
X159216103Y-110224104D02*
G01*
X159116005Y-110342971D01*
X159000266Y-110288229D01*
X158956473Y-110131825D01*
X159039367Y-109930064D01*
X159216103Y-109829966D01*
X159216103Y-110224104D01*
G37*
G36*
X154973067Y-108253962D02*
G01*
X154903217Y-108438112D01*
X154693667Y-108530187D01*
X154482530Y-108438112D01*
X154411092Y-108247612D01*
X154411092Y-107847562D01*
X154973067Y-107847562D01*
X154973067Y-108253962D01*
G37*
G36*
X153152734Y-121733029D02*
G01*
X153152734Y-117877387D01*
X153814192Y-117877387D01*
X153835624Y-118082571D01*
X153899917Y-118259974D01*
X153995961Y-118406024D01*
X154112642Y-118517149D01*
X154250755Y-118601683D01*
X154411092Y-118667962D01*
X154605473Y-118720878D01*
X154807615Y-118752628D01*
X155017517Y-118763212D01*
X155289972Y-118747733D01*
X155532661Y-118701299D01*
X155745585Y-118623908D01*
X155928742Y-118515562D01*
X156044630Y-118405627D01*
X156138292Y-118259974D01*
X156200205Y-118083365D01*
X156220842Y-117880562D01*
X156199808Y-117676965D01*
X156136705Y-117497974D01*
X156042646Y-117349543D01*
X155928742Y-117237624D01*
X155793011Y-117152296D01*
X155633467Y-117083637D01*
X155443320Y-117032484D01*
X155236945Y-117001792D01*
X155014342Y-116991562D01*
X154812906Y-116999852D01*
X154631931Y-117024723D01*
X154471417Y-117066174D01*
X154270202Y-117145152D01*
X154117405Y-117232862D01*
X153999136Y-117343590D01*
X153901505Y-117491624D01*
X153836021Y-117671408D01*
X153814192Y-117877387D01*
X153152734Y-117877387D01*
X153152734Y-115553287D01*
X153836417Y-115553287D01*
X153858642Y-115699337D01*
X153939605Y-115866024D01*
X154061842Y-115921587D01*
X154195192Y-115899362D01*
X154204717Y-115896187D01*
X154979417Y-115702512D01*
X154979417Y-116220037D01*
X154112642Y-116220037D01*
X154004692Y-116224799D01*
X153925317Y-116254962D01*
X153863405Y-116342274D01*
X153845942Y-116504199D01*
X153866580Y-116664537D01*
X153933255Y-116750262D01*
X154017392Y-116780424D01*
X154128517Y-116785187D01*
X155893817Y-116785187D01*
X156076380Y-116755024D01*
X156154167Y-116662949D01*
X156173217Y-116508962D01*
X156157342Y-116362912D01*
X156119242Y-116280362D01*
X156055742Y-116239087D01*
X155890642Y-116220037D01*
X155503292Y-116220037D01*
X155503292Y-115359612D01*
X155473130Y-115182605D01*
X155382642Y-115096087D01*
X155246117Y-115080212D01*
X155119117Y-115089737D01*
X154055492Y-115353262D01*
X153944367Y-115386599D01*
X153871342Y-115443749D01*
X153836417Y-115553287D01*
X153152734Y-115553287D01*
X153152734Y-114067387D01*
X153814192Y-114067387D01*
X153835624Y-114272571D01*
X153899917Y-114449974D01*
X153995961Y-114596024D01*
X154112642Y-114707149D01*
X154250755Y-114791683D01*
X154411092Y-114857962D01*
X154605473Y-114910878D01*
X154807615Y-114942628D01*
X155017517Y-114953212D01*
X155289972Y-114937733D01*
X155532661Y-114891299D01*
X155745585Y-114813908D01*
X155928742Y-114705562D01*
X156044630Y-114595627D01*
X156138292Y-114449974D01*
X156200205Y-114273365D01*
X156220842Y-114070562D01*
X156199808Y-113866965D01*
X156136705Y-113687974D01*
X156042646Y-113539543D01*
X155928742Y-113427624D01*
X155793011Y-113342296D01*
X155772372Y-113333414D01*
X158459108Y-113333414D01*
X158486044Y-113549947D01*
X158566853Y-113749101D01*
X158701534Y-113930877D01*
X158872353Y-114070562D01*
X158877923Y-114075116D01*
X159083855Y-114161660D01*
X159319330Y-114190508D01*
X159564493Y-114156881D01*
X159780721Y-114056000D01*
X159955894Y-113907026D01*
X160077889Y-113729116D01*
X160149444Y-113533220D01*
X160173295Y-113330286D01*
X160147880Y-113126961D01*
X160071633Y-112929892D01*
X159945727Y-112751200D01*
X159771337Y-112603008D01*
X159559801Y-112503300D01*
X159322458Y-112470064D01*
X159086809Y-112499260D01*
X158880356Y-112586846D01*
X158703098Y-112732823D01*
X158676516Y-112768812D01*
X158567548Y-112916337D01*
X158486218Y-113116534D01*
X158459108Y-113333414D01*
X155772372Y-113333414D01*
X155633467Y-113273637D01*
X155443320Y-113222484D01*
X155236945Y-113191792D01*
X155014342Y-113181562D01*
X154812906Y-113189852D01*
X154631931Y-113214723D01*
X154471417Y-113256174D01*
X154270202Y-113335152D01*
X154117405Y-113422862D01*
X153999136Y-113533590D01*
X153901505Y-113681624D01*
X153836021Y-113861408D01*
X153814192Y-114067387D01*
X153152734Y-114067387D01*
X153152734Y-112103649D01*
X153814192Y-112103649D01*
X153843649Y-112342656D01*
X153932020Y-112549560D01*
X154079305Y-112724362D01*
X154264337Y-112856653D01*
X154465949Y-112936028D01*
X154684142Y-112962487D01*
X154860355Y-112942643D01*
X155027042Y-112883112D01*
X155173092Y-112795799D01*
X155287392Y-112692612D01*
X155462811Y-112470362D01*
X155569967Y-112273512D01*
X155601717Y-112194137D01*
X155617592Y-112194137D01*
X155617592Y-112775162D01*
X155647755Y-112960899D01*
X155739830Y-113035512D01*
X155901755Y-113054562D01*
X156062092Y-113033924D01*
X156144642Y-112965662D01*
X156182742Y-112768812D01*
X156182742Y-111974264D01*
X158481005Y-111974264D01*
X158488825Y-112097823D01*
X158515413Y-112207306D01*
X158579539Y-112305840D01*
X158724995Y-112344941D01*
X158943960Y-112285508D01*
X159062827Y-112113463D01*
X159037803Y-112005545D01*
X159012778Y-111869473D01*
X159072211Y-111711505D01*
X159216103Y-111637995D01*
X159873000Y-111637995D01*
X159980918Y-111633303D01*
X160063812Y-111603587D01*
X160124810Y-111519128D01*
X160145142Y-111359596D01*
X160091965Y-111143759D01*
X159957458Y-111087454D01*
X158768788Y-111087454D01*
X158660869Y-111092146D01*
X158581103Y-111118734D01*
X158517759Y-111201628D01*
X158496645Y-111362724D01*
X158514631Y-111515218D01*
X158568591Y-111597330D01*
X158671817Y-111631739D01*
X158618640Y-111677096D01*
X158534182Y-111803784D01*
X158481005Y-111974264D01*
X156182742Y-111974264D01*
X156182742Y-111527387D01*
X156097017Y-111330537D01*
X155896992Y-111247987D01*
X155732289Y-111277752D01*
X155581080Y-111367049D01*
X155446936Y-111498415D01*
X155333430Y-111654387D01*
X155231036Y-111822662D01*
X155130230Y-111990937D01*
X155023471Y-112146908D01*
X154903217Y-112278274D01*
X154772249Y-112367571D01*
X154633342Y-112397337D01*
X154552380Y-112375112D01*
X154466655Y-112325899D01*
X154404742Y-112241762D01*
X154376167Y-112083012D01*
X154450780Y-111906799D01*
X154598417Y-111822662D01*
X154671442Y-111809962D01*
X154690492Y-111809962D01*
X154795267Y-111805199D01*
X154874642Y-111775037D01*
X154931792Y-111689312D01*
X154950842Y-111527387D01*
X154920680Y-111350380D01*
X154830192Y-111263862D01*
X154668267Y-111247987D01*
X154455719Y-111274268D01*
X154258340Y-111353114D01*
X154076130Y-111484524D01*
X153930609Y-111658443D01*
X153843297Y-111864818D01*
X153814192Y-112103649D01*
X153152734Y-112103649D01*
X153152734Y-110251037D01*
X153849117Y-110251037D01*
X153871695Y-110435539D01*
X153939429Y-110616514D01*
X154052317Y-110793962D01*
X154168205Y-110912230D01*
X154319017Y-111006687D01*
X154496817Y-111068599D01*
X154693667Y-111089237D01*
X154890121Y-111068599D01*
X155066730Y-111006687D01*
X155216352Y-110912230D01*
X155331842Y-110793962D01*
X155444731Y-110616162D01*
X155512465Y-110434128D01*
X155535042Y-110247862D01*
X155535042Y-110139646D01*
X158462236Y-110139646D01*
X158481396Y-110342580D01*
X158538874Y-110516579D01*
X158634671Y-110661644D01*
X158768788Y-110777774D01*
X158938877Y-110857540D01*
X159123825Y-110884128D01*
X159291177Y-110860277D01*
X159408480Y-110788722D01*
X159500758Y-110577577D01*
X159500758Y-109836222D01*
X159647778Y-109939449D01*
X159707211Y-110145902D01*
X159697827Y-110307780D01*
X159669675Y-110430557D01*
X159657162Y-110464966D01*
X159622753Y-110590089D01*
X159763517Y-110762133D01*
X159907408Y-110802798D01*
X160029208Y-110761156D01*
X160116208Y-110636228D01*
X160168408Y-110428015D01*
X160185808Y-110136518D01*
X160165866Y-109917943D01*
X160106042Y-109725175D01*
X160013372Y-109565252D01*
X159894896Y-109445212D01*
X159719376Y-109335729D01*
X159530649Y-109270040D01*
X159328714Y-109248143D01*
X159083507Y-109276470D01*
X158873405Y-109361449D01*
X158698406Y-109503082D01*
X158651830Y-109568412D01*
X158567201Y-109687117D01*
X158488477Y-109899305D01*
X158462236Y-110139646D01*
X155535042Y-110139646D01*
X155535042Y-109850987D01*
X155893817Y-109850987D01*
X156003355Y-109846224D01*
X156087492Y-109816062D01*
X156151786Y-109731924D01*
X156173217Y-109568412D01*
X156143849Y-109392199D01*
X156055742Y-109308062D01*
X155890642Y-109289012D01*
X154128517Y-109289012D01*
X154018980Y-109293774D01*
X153934842Y-109323937D01*
X153870549Y-109408074D01*
X153849117Y-109571587D01*
X153849117Y-110251037D01*
X153152734Y-110251037D01*
X153152734Y-108253962D01*
X153849117Y-108253962D01*
X153871695Y-108438464D01*
X153939429Y-108619439D01*
X154052317Y-108796887D01*
X154168205Y-108912774D01*
X154319017Y-109006437D01*
X154496817Y-109068349D01*
X154693667Y-109088987D01*
X154918740Y-109062528D01*
X155115590Y-108983153D01*
X155284217Y-108850862D01*
X155414392Y-108905895D01*
X155580551Y-108977862D01*
X155782692Y-109066762D01*
X155947792Y-109114387D01*
X156058917Y-109065174D01*
X156150992Y-108917537D01*
X156190372Y-108772675D01*
X157849133Y-108772675D01*
X157886670Y-108910311D01*
X157986768Y-109011973D01*
X158133788Y-109047946D01*
X158268295Y-109010409D01*
X159610241Y-108040705D01*
X159610241Y-108819596D01*
X159639958Y-108996333D01*
X159725980Y-109071407D01*
X159869872Y-109091739D01*
X160010635Y-109076099D01*
X160091965Y-109038562D01*
X160132630Y-108972872D01*
X160151399Y-108813340D01*
X160151399Y-107512059D01*
X160113862Y-107374424D01*
X160012981Y-107271197D01*
X159866743Y-107236788D01*
X159735364Y-107274325D01*
X158393418Y-108244030D01*
X158393418Y-107524572D01*
X158388726Y-107413525D01*
X158362138Y-107327503D01*
X158281590Y-107259467D01*
X158127532Y-107236788D01*
X157966436Y-107257903D01*
X157883542Y-107321247D01*
X157853825Y-107404141D01*
X157849133Y-107515188D01*
X157849133Y-108772675D01*
X156190372Y-108772675D01*
X156195442Y-108754024D01*
X156165280Y-108652424D01*
X156103367Y-108593687D01*
X156012704Y-108552059D01*
X155821145Y-108469509D01*
X155528692Y-108346037D01*
X155535042Y-108247612D01*
X155535042Y-107847562D01*
X155893817Y-107847562D01*
X156003355Y-107842799D01*
X156087492Y-107812637D01*
X156151786Y-107728499D01*
X156173217Y-107564987D01*
X156143849Y-107388774D01*
X156055742Y-107304637D01*
X155890642Y-107285587D01*
X154128517Y-107285587D01*
X154018980Y-107290349D01*
X153934842Y-107320512D01*
X153870549Y-107404649D01*
X153849117Y-107568162D01*
X153849117Y-108253962D01*
X153152734Y-108253962D01*
X153152734Y-106575330D01*
X160847266Y-104266971D01*
X160847266Y-119424670D01*
X153152734Y-121733029D01*
G37*
G36*
X159450709Y-113048759D02*
G01*
X159546115Y-113123833D01*
X159622753Y-113327158D01*
X159544551Y-113533611D01*
X159447581Y-113611031D01*
X159313074Y-113636838D01*
X159179348Y-113612595D01*
X159084724Y-113539867D01*
X159009650Y-113330286D01*
X159087852Y-113120705D01*
X159184431Y-113047977D01*
X159317766Y-113023734D01*
X159450709Y-113048759D01*
G37*
G36*
X155295826Y-117573579D02*
G01*
X155495752Y-117633705D01*
X155615707Y-117733916D01*
X155655692Y-117874212D01*
X155616799Y-118017285D01*
X155500117Y-118119480D01*
X155305649Y-118180797D01*
X155033392Y-118201237D01*
X155014342Y-118201237D01*
X154735141Y-118180996D01*
X154535711Y-118120274D01*
X154416053Y-118019071D01*
X154376167Y-117877387D01*
X154416153Y-117735702D01*
X154536108Y-117634499D01*
X154736034Y-117573777D01*
X155015930Y-117553537D01*
X155295826Y-117573579D01*
G37*
%TO.C,C20*%
X153460030Y-71738781D02*
X153261219Y-71539970D01*
X152738781Y-72460030D02*
X152539970Y-72261219D01*
%TD*%
M02*
