%TF.GenerationSoftware,KiCad,Pcbnew,7.0.1*%
%TF.CreationDate,2023-03-19T19:41:09+01:00*%
%TF.ProjectId,chubby-hat,63687562-6279-42d6-9861-742e6b696361,0.2.2*%
%TF.SameCoordinates,Original*%
%TF.FileFunction,Legend,Bot*%
%TF.FilePolarity,Positive*%
%FSLAX46Y46*%
G04 Gerber Fmt 4.6, Leading zero omitted, Abs format (unit mm)*
G04 Created by KiCad (PCBNEW 7.0.1) date 2023-03-19 19:41:09*
%MOMM*%
%LPD*%
G01*
G04 APERTURE LIST*
G04 Aperture macros list*
%AMRoundRect*
0 Rectangle with rounded corners*
0 $1 Rounding radius*
0 $2 $3 $4 $5 $6 $7 $8 $9 X,Y pos of 4 corners*
0 Add a 4 corners polygon primitive as box body*
4,1,4,$2,$3,$4,$5,$6,$7,$8,$9,$2,$3,0*
0 Add four circle primitives for the rounded corners*
1,1,$1+$1,$2,$3*
1,1,$1+$1,$4,$5*
1,1,$1+$1,$6,$7*
1,1,$1+$1,$8,$9*
0 Add four rect primitives between the rounded corners*
20,1,$1+$1,$2,$3,$4,$5,0*
20,1,$1+$1,$4,$5,$6,$7,0*
20,1,$1+$1,$6,$7,$8,$9,0*
20,1,$1+$1,$8,$9,$2,$3,0*%
%AMHorizOval*
0 Thick line with rounded ends*
0 $1 width*
0 $2 $3 position (X,Y) of the first rounded end (center of the circle)*
0 $4 $5 position (X,Y) of the second rounded end (center of the circle)*
0 Add line between two ends*
20,1,$1,$2,$3,$4,$5,0*
0 Add two circle primitives to create the rounded ends*
1,1,$1,$2,$3*
1,1,$1,$4,$5*%
G04 Aperture macros list end*
%ADD10C,0.150000*%
%ADD11C,0.120000*%
%ADD12C,0.900000*%
%ADD13O,1.900000X1.100000*%
%ADD14RoundRect,0.050000X0.850000X-0.850000X0.850000X0.850000X-0.850000X0.850000X-0.850000X-0.850000X0*%
%ADD15O,1.800000X1.800000*%
%ADD16RoundRect,0.050000X-0.850000X0.850000X-0.850000X-0.850000X0.850000X-0.850000X0.850000X0.850000X0*%
%ADD17C,1.879600*%
%ADD18RoundRect,0.050000X0.850000X0.850000X-0.850000X0.850000X-0.850000X-0.850000X0.850000X-0.850000X0*%
%ADD19C,2.700000*%
%ADD20RoundRect,0.300001X-0.799999X0.799999X-0.799999X-0.799999X0.799999X-0.799999X0.799999X0.799999X0*%
%ADD21C,2.200000*%
%ADD22C,2.474900*%
%ADD23C,1.090600*%
%ADD24C,1.800000*%
%ADD25C,1.600000*%
%ADD26RoundRect,0.300000X-0.550000X0.550000X-0.550000X-0.550000X0.550000X-0.550000X0.550000X0.550000X0*%
%ADD27C,1.700000*%
%ADD28RoundRect,0.300000X0.600000X0.600000X-0.600000X0.600000X-0.600000X-0.600000X0.600000X-0.600000X0*%
%ADD29RoundRect,0.050000X-0.850000X-0.850000X0.850000X-0.850000X0.850000X0.850000X-0.850000X0.850000X0*%
%ADD30RoundRect,0.050000X-0.500000X-0.500000X0.500000X-0.500000X0.500000X0.500000X-0.500000X0.500000X0*%
%ADD31O,1.100000X1.100000*%
%ADD32RoundRect,0.050000X-0.070711X-0.919239X0.919239X0.070711X0.070711X0.919239X-0.919239X-0.070711X0*%
%ADD33RoundRect,0.275000X0.250000X-0.225000X0.250000X0.225000X-0.250000X0.225000X-0.250000X-0.225000X0*%
%ADD34RoundRect,0.050000X-0.411136X1.129587X-1.129587X-0.411136X0.411136X-1.129587X1.129587X0.411136X0*%
%ADD35HorizOval,1.800000X0.000000X0.000000X0.000000X0.000000X0*%
%ADD36RoundRect,0.250000X-0.053033X0.335876X-0.335876X0.053033X0.053033X-0.335876X0.335876X-0.053033X0*%
%ADD37RoundRect,0.050000X0.150000X0.400000X-0.150000X0.400000X-0.150000X-0.400000X0.150000X-0.400000X0*%
%ADD38RoundRect,0.250000X-0.275000X0.200000X-0.275000X-0.200000X0.275000X-0.200000X0.275000X0.200000X0*%
%ADD39RoundRect,0.250000X0.275000X-0.200000X0.275000X0.200000X-0.275000X0.200000X-0.275000X-0.200000X0*%
%ADD40RoundRect,0.050000X1.129587X-0.411136X0.411136X1.129587X-1.129587X0.411136X-0.411136X-1.129587X0*%
%ADD41HorizOval,1.800000X0.000000X0.000000X0.000000X0.000000X0*%
%ADD42RoundRect,0.200000X0.150000X-0.587500X0.150000X0.587500X-0.150000X0.587500X-0.150000X-0.587500X0*%
%ADD43RoundRect,0.268750X0.218750X0.256250X-0.218750X0.256250X-0.218750X-0.256250X0.218750X-0.256250X0*%
%ADD44RoundRect,0.275000X-0.017678X0.335876X-0.335876X0.017678X0.017678X-0.335876X0.335876X-0.017678X0*%
%ADD45RoundRect,0.275000X0.017678X-0.335876X0.335876X-0.017678X-0.017678X0.335876X-0.335876X0.017678X0*%
%ADD46RoundRect,0.275000X-0.250000X0.225000X-0.250000X-0.225000X0.250000X-0.225000X0.250000X0.225000X0*%
%ADD47RoundRect,0.200000X0.150000X-0.512500X0.150000X0.512500X-0.150000X0.512500X-0.150000X-0.512500X0*%
%ADD48C,3.000000*%
%ADD49RoundRect,0.275000X-0.335876X-0.017678X-0.017678X-0.335876X0.335876X0.017678X0.017678X0.335876X0*%
%ADD50RoundRect,0.100000X0.309359X-0.238649X-0.238649X0.309359X-0.309359X0.238649X0.238649X-0.309359X0*%
%ADD51RoundRect,0.100000X0.309359X0.238649X0.238649X0.309359X-0.309359X-0.238649X-0.238649X-0.309359X0*%
%ADD52RoundRect,0.050000X2.262742X0.000000X0.000000X2.262742X-2.262742X0.000000X0.000000X-2.262742X0*%
%ADD53RoundRect,0.275000X-0.225000X-0.250000X0.225000X-0.250000X0.225000X0.250000X-0.225000X0.250000X0*%
%ADD54RoundRect,0.250000X0.200000X0.275000X-0.200000X0.275000X-0.200000X-0.275000X0.200000X-0.275000X0*%
%ADD55RoundRect,0.250000X0.053033X-0.335876X0.335876X-0.053033X-0.053033X0.335876X-0.335876X0.053033X0*%
%ADD56RoundRect,0.200000X0.150000X-0.650000X0.150000X0.650000X-0.150000X0.650000X-0.150000X-0.650000X0*%
%ADD57RoundRect,0.050000X-1.000000X-0.750000X1.000000X-0.750000X1.000000X0.750000X-1.000000X0.750000X0*%
%ADD58RoundRect,0.050000X-1.000000X-1.900000X1.000000X-1.900000X1.000000X1.900000X-1.000000X1.900000X0*%
%ADD59RoundRect,0.175000X0.587500X0.125000X-0.587500X0.125000X-0.587500X-0.125000X0.587500X-0.125000X0*%
%ADD60O,1.879600X3.657600*%
%ADD61O,3.657600X1.879600*%
%ADD62RoundRect,0.200000X0.309359X0.521491X-0.521491X-0.309359X-0.309359X-0.521491X0.521491X0.309359X0*%
%ADD63RoundRect,0.275000X0.335876X0.017678X0.017678X0.335876X-0.335876X-0.017678X-0.017678X-0.335876X0*%
%ADD64RoundRect,0.175000X-0.503814X0.327037X0.327037X-0.503814X0.503814X-0.327037X-0.327037X0.503814X0*%
G04 APERTURE END LIST*
D10*
X172000000Y-70000000D02*
X171500000Y-69500000D01*
X168500000Y-69500000D02*
X167500000Y-70500000D01*
X172000000Y-73000000D02*
X172000000Y-70000000D01*
X175959172Y-48560873D02*
X176261042Y-49208235D01*
X176261042Y-49208235D02*
X176364574Y-49317583D01*
X176364574Y-49317583D02*
X176491138Y-49363649D01*
X176491138Y-49363649D02*
X176640735Y-49346432D01*
X176640735Y-49346432D02*
X176727050Y-49306183D01*
X175518640Y-49869674D02*
X175950215Y-49668427D01*
X175950215Y-49668427D02*
X175527597Y-48762120D01*
X174658398Y-50165728D02*
X174721680Y-50188761D01*
X174721680Y-50188761D02*
X174871277Y-50171544D01*
X174871277Y-50171544D02*
X174957592Y-50131295D01*
X174957592Y-50131295D02*
X175066940Y-50027764D01*
X175066940Y-50027764D02*
X175113006Y-49901199D01*
X175113006Y-49901199D02*
X175115914Y-49794759D01*
X175115914Y-49794759D02*
X175078573Y-49602005D01*
X175078573Y-49602005D02*
X175018198Y-49472532D01*
X175018198Y-49472532D02*
X174894542Y-49320027D01*
X174894542Y-49320027D02*
X174811135Y-49253836D01*
X174811135Y-49253836D02*
X174684571Y-49207771D01*
X174684571Y-49207771D02*
X174534974Y-49224987D01*
X174534974Y-49224987D02*
X174448659Y-49265237D01*
X174448659Y-49265237D02*
X174339311Y-49368768D01*
X174339311Y-49368768D02*
X174316278Y-49432050D01*
X173628666Y-49647606D02*
X173930536Y-50294968D01*
X173930536Y-50294968D02*
X174034068Y-50404316D01*
X174034068Y-50404316D02*
X174160632Y-50450382D01*
X174160632Y-50450382D02*
X174310229Y-50433165D01*
X174310229Y-50433165D02*
X174396544Y-50392916D01*
X173188134Y-50956407D02*
X173619709Y-50755160D01*
X173619709Y-50755160D02*
X173197091Y-49848852D01*
X172327891Y-51252461D02*
X172391174Y-51275494D01*
X172391174Y-51275494D02*
X172540771Y-51258277D01*
X172540771Y-51258277D02*
X172627086Y-51218028D01*
X172627086Y-51218028D02*
X172736434Y-51114496D01*
X172736434Y-51114496D02*
X172782499Y-50987932D01*
X172782499Y-50987932D02*
X172785408Y-50881492D01*
X172785408Y-50881492D02*
X172748066Y-50688738D01*
X172748066Y-50688738D02*
X172687692Y-50559265D01*
X172687692Y-50559265D02*
X172564036Y-50406760D01*
X172564036Y-50406760D02*
X172480629Y-50340569D01*
X172480629Y-50340569D02*
X172354065Y-50294504D01*
X172354065Y-50294504D02*
X172204468Y-50311720D01*
X172204468Y-50311720D02*
X172118153Y-50351970D01*
X172118153Y-50351970D02*
X172008805Y-50455501D01*
X172008805Y-50455501D02*
X171985772Y-50518783D01*
X171298160Y-50734338D02*
X171600030Y-51381701D01*
X171600030Y-51381701D02*
X171703562Y-51491049D01*
X171703562Y-51491049D02*
X171830126Y-51537115D01*
X171830126Y-51537115D02*
X171979723Y-51519898D01*
X171979723Y-51519898D02*
X172066038Y-51479649D01*
X170857628Y-52043140D02*
X171289203Y-51841893D01*
X171289203Y-51841893D02*
X170866584Y-50935585D01*
X169997385Y-52339194D02*
X170060668Y-52362227D01*
X170060668Y-52362227D02*
X170210265Y-52345010D01*
X170210265Y-52345010D02*
X170296580Y-52304761D01*
X170296580Y-52304761D02*
X170405928Y-52201229D01*
X170405928Y-52201229D02*
X170451993Y-52074665D01*
X170451993Y-52074665D02*
X170454901Y-51968225D01*
X170454901Y-51968225D02*
X170417560Y-51775470D01*
X170417560Y-51775470D02*
X170357186Y-51645998D01*
X170357186Y-51645998D02*
X170233530Y-51493493D01*
X170233530Y-51493493D02*
X170150123Y-51427302D01*
X170150123Y-51427302D02*
X170023559Y-51381236D01*
X170023559Y-51381236D02*
X169873962Y-51398453D01*
X169873962Y-51398453D02*
X169787646Y-51438702D01*
X169787646Y-51438702D02*
X169678299Y-51542234D01*
X169678299Y-51542234D02*
X169655266Y-51605516D01*
X168967654Y-51821071D02*
X169269524Y-52468434D01*
X169269524Y-52468434D02*
X169373055Y-52577782D01*
X169373055Y-52577782D02*
X169499620Y-52623848D01*
X169499620Y-52623848D02*
X169649217Y-52606631D01*
X169649217Y-52606631D02*
X169735532Y-52566382D01*
X168527121Y-53129873D02*
X168958697Y-52928626D01*
X168958697Y-52928626D02*
X168536078Y-52022318D01*
X167666879Y-53425927D02*
X167730161Y-53448960D01*
X167730161Y-53448960D02*
X167879759Y-53431743D01*
X167879759Y-53431743D02*
X167966074Y-53391494D01*
X167966074Y-53391494D02*
X168075422Y-53287962D01*
X168075422Y-53287962D02*
X168121487Y-53161398D01*
X168121487Y-53161398D02*
X168124395Y-53054958D01*
X168124395Y-53054958D02*
X168087054Y-52862203D01*
X168087054Y-52862203D02*
X168026680Y-52732731D01*
X168026680Y-52732731D02*
X167903024Y-52580225D01*
X167903024Y-52580225D02*
X167819617Y-52514035D01*
X167819617Y-52514035D02*
X167693053Y-52467969D01*
X167693053Y-52467969D02*
X167543455Y-52485186D01*
X167543455Y-52485186D02*
X167457140Y-52525435D01*
X167457140Y-52525435D02*
X167347792Y-52628967D01*
X167347792Y-52628967D02*
X167324760Y-52692249D01*
%TO.C,Y1*%
X155432279Y-86241156D02*
X155095561Y-86577873D01*
X156038370Y-86106469D02*
X155432279Y-86241156D01*
X155432279Y-86241156D02*
X155566966Y-85635064D01*
X154253767Y-85736079D02*
X154657828Y-86140140D01*
X154455798Y-85938110D02*
X155162904Y-85231003D01*
X155162904Y-85231003D02*
X155129233Y-85399362D01*
X155129233Y-85399362D02*
X155129233Y-85534049D01*
X155129233Y-85534049D02*
X155162904Y-85635064D01*
%TO.C,C5*%
X171797380Y-59833333D02*
X171845000Y-59785714D01*
X171845000Y-59785714D02*
X171892619Y-59642857D01*
X171892619Y-59642857D02*
X171892619Y-59547619D01*
X171892619Y-59547619D02*
X171845000Y-59404762D01*
X171845000Y-59404762D02*
X171749761Y-59309524D01*
X171749761Y-59309524D02*
X171654523Y-59261905D01*
X171654523Y-59261905D02*
X171464047Y-59214286D01*
X171464047Y-59214286D02*
X171321190Y-59214286D01*
X171321190Y-59214286D02*
X171130714Y-59261905D01*
X171130714Y-59261905D02*
X171035476Y-59309524D01*
X171035476Y-59309524D02*
X170940238Y-59404762D01*
X170940238Y-59404762D02*
X170892619Y-59547619D01*
X170892619Y-59547619D02*
X170892619Y-59642857D01*
X170892619Y-59642857D02*
X170940238Y-59785714D01*
X170940238Y-59785714D02*
X170987857Y-59833333D01*
X170892619Y-60738095D02*
X170892619Y-60261905D01*
X170892619Y-60261905D02*
X171368809Y-60214286D01*
X171368809Y-60214286D02*
X171321190Y-60261905D01*
X171321190Y-60261905D02*
X171273571Y-60357143D01*
X171273571Y-60357143D02*
X171273571Y-60595238D01*
X171273571Y-60595238D02*
X171321190Y-60690476D01*
X171321190Y-60690476D02*
X171368809Y-60738095D01*
X171368809Y-60738095D02*
X171464047Y-60785714D01*
X171464047Y-60785714D02*
X171702142Y-60785714D01*
X171702142Y-60785714D02*
X171797380Y-60738095D01*
X171797380Y-60738095D02*
X171845000Y-60690476D01*
X171845000Y-60690476D02*
X171892619Y-60595238D01*
X171892619Y-60595238D02*
X171892619Y-60357143D01*
X171892619Y-60357143D02*
X171845000Y-60261905D01*
X171845000Y-60261905D02*
X171797380Y-60214286D01*
%TO.C,R16*%
X159952507Y-73800729D02*
X159851492Y-73228309D01*
X160356568Y-73396668D02*
X159649461Y-72689561D01*
X159649461Y-72689561D02*
X159380087Y-72958935D01*
X159380087Y-72958935D02*
X159346416Y-73059950D01*
X159346416Y-73059950D02*
X159346416Y-73127294D01*
X159346416Y-73127294D02*
X159380087Y-73228309D01*
X159380087Y-73228309D02*
X159481103Y-73329324D01*
X159481103Y-73329324D02*
X159582118Y-73362996D01*
X159582118Y-73362996D02*
X159649461Y-73362996D01*
X159649461Y-73362996D02*
X159750477Y-73329324D01*
X159750477Y-73329324D02*
X160019851Y-73059950D01*
X159279072Y-74474164D02*
X159683133Y-74070103D01*
X159481103Y-74272133D02*
X158773996Y-73565027D01*
X158773996Y-73565027D02*
X158942355Y-73598698D01*
X158942355Y-73598698D02*
X159077042Y-73598698D01*
X159077042Y-73598698D02*
X159178057Y-73565027D01*
X157965874Y-74373149D02*
X158100561Y-74238462D01*
X158100561Y-74238462D02*
X158201576Y-74204790D01*
X158201576Y-74204790D02*
X158268920Y-74204790D01*
X158268920Y-74204790D02*
X158437278Y-74238462D01*
X158437278Y-74238462D02*
X158605637Y-74339477D01*
X158605637Y-74339477D02*
X158875011Y-74608851D01*
X158875011Y-74608851D02*
X158908683Y-74709866D01*
X158908683Y-74709866D02*
X158908683Y-74777210D01*
X158908683Y-74777210D02*
X158875011Y-74878225D01*
X158875011Y-74878225D02*
X158740324Y-75012912D01*
X158740324Y-75012912D02*
X158639309Y-75046584D01*
X158639309Y-75046584D02*
X158571965Y-75046584D01*
X158571965Y-75046584D02*
X158470950Y-75012912D01*
X158470950Y-75012912D02*
X158302591Y-74844553D01*
X158302591Y-74844553D02*
X158268920Y-74743538D01*
X158268920Y-74743538D02*
X158268920Y-74676194D01*
X158268920Y-74676194D02*
X158302591Y-74575179D01*
X158302591Y-74575179D02*
X158437278Y-74440492D01*
X158437278Y-74440492D02*
X158538294Y-74406820D01*
X158538294Y-74406820D02*
X158605637Y-74406820D01*
X158605637Y-74406820D02*
X158706652Y-74440492D01*
%TO.C,U6*%
X174462619Y-79238095D02*
X175272142Y-79238095D01*
X175272142Y-79238095D02*
X175367380Y-79285714D01*
X175367380Y-79285714D02*
X175415000Y-79333333D01*
X175415000Y-79333333D02*
X175462619Y-79428571D01*
X175462619Y-79428571D02*
X175462619Y-79619047D01*
X175462619Y-79619047D02*
X175415000Y-79714285D01*
X175415000Y-79714285D02*
X175367380Y-79761904D01*
X175367380Y-79761904D02*
X175272142Y-79809523D01*
X175272142Y-79809523D02*
X174462619Y-79809523D01*
X174462619Y-80714285D02*
X174462619Y-80523809D01*
X174462619Y-80523809D02*
X174510238Y-80428571D01*
X174510238Y-80428571D02*
X174557857Y-80380952D01*
X174557857Y-80380952D02*
X174700714Y-80285714D01*
X174700714Y-80285714D02*
X174891190Y-80238095D01*
X174891190Y-80238095D02*
X175272142Y-80238095D01*
X175272142Y-80238095D02*
X175367380Y-80285714D01*
X175367380Y-80285714D02*
X175415000Y-80333333D01*
X175415000Y-80333333D02*
X175462619Y-80428571D01*
X175462619Y-80428571D02*
X175462619Y-80619047D01*
X175462619Y-80619047D02*
X175415000Y-80714285D01*
X175415000Y-80714285D02*
X175367380Y-80761904D01*
X175367380Y-80761904D02*
X175272142Y-80809523D01*
X175272142Y-80809523D02*
X175034047Y-80809523D01*
X175034047Y-80809523D02*
X174938809Y-80761904D01*
X174938809Y-80761904D02*
X174891190Y-80714285D01*
X174891190Y-80714285D02*
X174843571Y-80619047D01*
X174843571Y-80619047D02*
X174843571Y-80428571D01*
X174843571Y-80428571D02*
X174891190Y-80333333D01*
X174891190Y-80333333D02*
X174938809Y-80285714D01*
X174938809Y-80285714D02*
X175034047Y-80238095D01*
%TO.C,R2*%
X180032619Y-57833333D02*
X179556428Y-57500000D01*
X180032619Y-57261905D02*
X179032619Y-57261905D01*
X179032619Y-57261905D02*
X179032619Y-57642857D01*
X179032619Y-57642857D02*
X179080238Y-57738095D01*
X179080238Y-57738095D02*
X179127857Y-57785714D01*
X179127857Y-57785714D02*
X179223095Y-57833333D01*
X179223095Y-57833333D02*
X179365952Y-57833333D01*
X179365952Y-57833333D02*
X179461190Y-57785714D01*
X179461190Y-57785714D02*
X179508809Y-57738095D01*
X179508809Y-57738095D02*
X179556428Y-57642857D01*
X179556428Y-57642857D02*
X179556428Y-57261905D01*
X179127857Y-58214286D02*
X179080238Y-58261905D01*
X179080238Y-58261905D02*
X179032619Y-58357143D01*
X179032619Y-58357143D02*
X179032619Y-58595238D01*
X179032619Y-58595238D02*
X179080238Y-58690476D01*
X179080238Y-58690476D02*
X179127857Y-58738095D01*
X179127857Y-58738095D02*
X179223095Y-58785714D01*
X179223095Y-58785714D02*
X179318333Y-58785714D01*
X179318333Y-58785714D02*
X179461190Y-58738095D01*
X179461190Y-58738095D02*
X180032619Y-58166667D01*
X180032619Y-58166667D02*
X180032619Y-58785714D01*
%TO.C,R8*%
X156892619Y-63833333D02*
X156416428Y-63500000D01*
X156892619Y-63261905D02*
X155892619Y-63261905D01*
X155892619Y-63261905D02*
X155892619Y-63642857D01*
X155892619Y-63642857D02*
X155940238Y-63738095D01*
X155940238Y-63738095D02*
X155987857Y-63785714D01*
X155987857Y-63785714D02*
X156083095Y-63833333D01*
X156083095Y-63833333D02*
X156225952Y-63833333D01*
X156225952Y-63833333D02*
X156321190Y-63785714D01*
X156321190Y-63785714D02*
X156368809Y-63738095D01*
X156368809Y-63738095D02*
X156416428Y-63642857D01*
X156416428Y-63642857D02*
X156416428Y-63261905D01*
X156321190Y-64404762D02*
X156273571Y-64309524D01*
X156273571Y-64309524D02*
X156225952Y-64261905D01*
X156225952Y-64261905D02*
X156130714Y-64214286D01*
X156130714Y-64214286D02*
X156083095Y-64214286D01*
X156083095Y-64214286D02*
X155987857Y-64261905D01*
X155987857Y-64261905D02*
X155940238Y-64309524D01*
X155940238Y-64309524D02*
X155892619Y-64404762D01*
X155892619Y-64404762D02*
X155892619Y-64595238D01*
X155892619Y-64595238D02*
X155940238Y-64690476D01*
X155940238Y-64690476D02*
X155987857Y-64738095D01*
X155987857Y-64738095D02*
X156083095Y-64785714D01*
X156083095Y-64785714D02*
X156130714Y-64785714D01*
X156130714Y-64785714D02*
X156225952Y-64738095D01*
X156225952Y-64738095D02*
X156273571Y-64690476D01*
X156273571Y-64690476D02*
X156321190Y-64595238D01*
X156321190Y-64595238D02*
X156321190Y-64404762D01*
X156321190Y-64404762D02*
X156368809Y-64309524D01*
X156368809Y-64309524D02*
X156416428Y-64261905D01*
X156416428Y-64261905D02*
X156511666Y-64214286D01*
X156511666Y-64214286D02*
X156702142Y-64214286D01*
X156702142Y-64214286D02*
X156797380Y-64261905D01*
X156797380Y-64261905D02*
X156845000Y-64309524D01*
X156845000Y-64309524D02*
X156892619Y-64404762D01*
X156892619Y-64404762D02*
X156892619Y-64595238D01*
X156892619Y-64595238D02*
X156845000Y-64690476D01*
X156845000Y-64690476D02*
X156797380Y-64738095D01*
X156797380Y-64738095D02*
X156702142Y-64785714D01*
X156702142Y-64785714D02*
X156511666Y-64785714D01*
X156511666Y-64785714D02*
X156416428Y-64738095D01*
X156416428Y-64738095D02*
X156368809Y-64690476D01*
X156368809Y-64690476D02*
X156321190Y-64595238D01*
%TO.C,Q2*%
X174095238Y-64157857D02*
X174190476Y-64110238D01*
X174190476Y-64110238D02*
X174285714Y-64015000D01*
X174285714Y-64015000D02*
X174428571Y-63872142D01*
X174428571Y-63872142D02*
X174523809Y-63824523D01*
X174523809Y-63824523D02*
X174619047Y-63824523D01*
X174571428Y-64062619D02*
X174666666Y-64015000D01*
X174666666Y-64015000D02*
X174761904Y-63919761D01*
X174761904Y-63919761D02*
X174809523Y-63729285D01*
X174809523Y-63729285D02*
X174809523Y-63395952D01*
X174809523Y-63395952D02*
X174761904Y-63205476D01*
X174761904Y-63205476D02*
X174666666Y-63110238D01*
X174666666Y-63110238D02*
X174571428Y-63062619D01*
X174571428Y-63062619D02*
X174380952Y-63062619D01*
X174380952Y-63062619D02*
X174285714Y-63110238D01*
X174285714Y-63110238D02*
X174190476Y-63205476D01*
X174190476Y-63205476D02*
X174142857Y-63395952D01*
X174142857Y-63395952D02*
X174142857Y-63729285D01*
X174142857Y-63729285D02*
X174190476Y-63919761D01*
X174190476Y-63919761D02*
X174285714Y-64015000D01*
X174285714Y-64015000D02*
X174380952Y-64062619D01*
X174380952Y-64062619D02*
X174571428Y-64062619D01*
X173761904Y-63157857D02*
X173714285Y-63110238D01*
X173714285Y-63110238D02*
X173619047Y-63062619D01*
X173619047Y-63062619D02*
X173380952Y-63062619D01*
X173380952Y-63062619D02*
X173285714Y-63110238D01*
X173285714Y-63110238D02*
X173238095Y-63157857D01*
X173238095Y-63157857D02*
X173190476Y-63253095D01*
X173190476Y-63253095D02*
X173190476Y-63348333D01*
X173190476Y-63348333D02*
X173238095Y-63491190D01*
X173238095Y-63491190D02*
X173809523Y-64062619D01*
X173809523Y-64062619D02*
X173190476Y-64062619D01*
%TO.C,FB1*%
X170833333Y-72508809D02*
X171166666Y-72508809D01*
X171166666Y-73032619D02*
X171166666Y-72032619D01*
X171166666Y-72032619D02*
X170690476Y-72032619D01*
X169976190Y-72508809D02*
X169833333Y-72556428D01*
X169833333Y-72556428D02*
X169785714Y-72604047D01*
X169785714Y-72604047D02*
X169738095Y-72699285D01*
X169738095Y-72699285D02*
X169738095Y-72842142D01*
X169738095Y-72842142D02*
X169785714Y-72937380D01*
X169785714Y-72937380D02*
X169833333Y-72985000D01*
X169833333Y-72985000D02*
X169928571Y-73032619D01*
X169928571Y-73032619D02*
X170309523Y-73032619D01*
X170309523Y-73032619D02*
X170309523Y-72032619D01*
X170309523Y-72032619D02*
X169976190Y-72032619D01*
X169976190Y-72032619D02*
X169880952Y-72080238D01*
X169880952Y-72080238D02*
X169833333Y-72127857D01*
X169833333Y-72127857D02*
X169785714Y-72223095D01*
X169785714Y-72223095D02*
X169785714Y-72318333D01*
X169785714Y-72318333D02*
X169833333Y-72413571D01*
X169833333Y-72413571D02*
X169880952Y-72461190D01*
X169880952Y-72461190D02*
X169976190Y-72508809D01*
X169976190Y-72508809D02*
X170309523Y-72508809D01*
X168785714Y-73032619D02*
X169357142Y-73032619D01*
X169071428Y-73032619D02*
X169071428Y-72032619D01*
X169071428Y-72032619D02*
X169166666Y-72175476D01*
X169166666Y-72175476D02*
X169261904Y-72270714D01*
X169261904Y-72270714D02*
X169357142Y-72318333D01*
%TO.C,C15*%
X146642523Y-84976026D02*
X146709866Y-84976026D01*
X146709866Y-84976026D02*
X146844553Y-84908683D01*
X146844553Y-84908683D02*
X146911897Y-84841339D01*
X146911897Y-84841339D02*
X146979240Y-84706652D01*
X146979240Y-84706652D02*
X146979240Y-84571965D01*
X146979240Y-84571965D02*
X146945569Y-84470950D01*
X146945569Y-84470950D02*
X146844553Y-84302591D01*
X146844553Y-84302591D02*
X146743538Y-84201576D01*
X146743538Y-84201576D02*
X146575179Y-84100561D01*
X146575179Y-84100561D02*
X146474164Y-84066889D01*
X146474164Y-84066889D02*
X146339477Y-84066889D01*
X146339477Y-84066889D02*
X146204790Y-84134233D01*
X146204790Y-84134233D02*
X146137446Y-84201576D01*
X146137446Y-84201576D02*
X146070103Y-84336263D01*
X146070103Y-84336263D02*
X146070103Y-84403607D01*
X146036431Y-85716805D02*
X146440492Y-85312744D01*
X146238462Y-85514774D02*
X145531355Y-84807668D01*
X145531355Y-84807668D02*
X145699714Y-84841339D01*
X145699714Y-84841339D02*
X145834401Y-84841339D01*
X145834401Y-84841339D02*
X145935416Y-84807668D01*
X144689561Y-85649461D02*
X145026279Y-85312744D01*
X145026279Y-85312744D02*
X145396668Y-85615790D01*
X145396668Y-85615790D02*
X145329324Y-85615790D01*
X145329324Y-85615790D02*
X145228309Y-85649461D01*
X145228309Y-85649461D02*
X145059950Y-85817820D01*
X145059950Y-85817820D02*
X145026279Y-85918835D01*
X145026279Y-85918835D02*
X145026279Y-85986179D01*
X145026279Y-85986179D02*
X145059950Y-86087194D01*
X145059950Y-86087194D02*
X145228309Y-86255553D01*
X145228309Y-86255553D02*
X145329324Y-86289225D01*
X145329324Y-86289225D02*
X145396668Y-86289225D01*
X145396668Y-86289225D02*
X145497683Y-86255553D01*
X145497683Y-86255553D02*
X145666042Y-86087194D01*
X145666042Y-86087194D02*
X145699714Y-85986179D01*
X145699714Y-85986179D02*
X145699714Y-85918835D01*
%TO.C,C8*%
X186297380Y-100333333D02*
X186345000Y-100285714D01*
X186345000Y-100285714D02*
X186392619Y-100142857D01*
X186392619Y-100142857D02*
X186392619Y-100047619D01*
X186392619Y-100047619D02*
X186345000Y-99904762D01*
X186345000Y-99904762D02*
X186249761Y-99809524D01*
X186249761Y-99809524D02*
X186154523Y-99761905D01*
X186154523Y-99761905D02*
X185964047Y-99714286D01*
X185964047Y-99714286D02*
X185821190Y-99714286D01*
X185821190Y-99714286D02*
X185630714Y-99761905D01*
X185630714Y-99761905D02*
X185535476Y-99809524D01*
X185535476Y-99809524D02*
X185440238Y-99904762D01*
X185440238Y-99904762D02*
X185392619Y-100047619D01*
X185392619Y-100047619D02*
X185392619Y-100142857D01*
X185392619Y-100142857D02*
X185440238Y-100285714D01*
X185440238Y-100285714D02*
X185487857Y-100333333D01*
X185821190Y-100904762D02*
X185773571Y-100809524D01*
X185773571Y-100809524D02*
X185725952Y-100761905D01*
X185725952Y-100761905D02*
X185630714Y-100714286D01*
X185630714Y-100714286D02*
X185583095Y-100714286D01*
X185583095Y-100714286D02*
X185487857Y-100761905D01*
X185487857Y-100761905D02*
X185440238Y-100809524D01*
X185440238Y-100809524D02*
X185392619Y-100904762D01*
X185392619Y-100904762D02*
X185392619Y-101095238D01*
X185392619Y-101095238D02*
X185440238Y-101190476D01*
X185440238Y-101190476D02*
X185487857Y-101238095D01*
X185487857Y-101238095D02*
X185583095Y-101285714D01*
X185583095Y-101285714D02*
X185630714Y-101285714D01*
X185630714Y-101285714D02*
X185725952Y-101238095D01*
X185725952Y-101238095D02*
X185773571Y-101190476D01*
X185773571Y-101190476D02*
X185821190Y-101095238D01*
X185821190Y-101095238D02*
X185821190Y-100904762D01*
X185821190Y-100904762D02*
X185868809Y-100809524D01*
X185868809Y-100809524D02*
X185916428Y-100761905D01*
X185916428Y-100761905D02*
X186011666Y-100714286D01*
X186011666Y-100714286D02*
X186202142Y-100714286D01*
X186202142Y-100714286D02*
X186297380Y-100761905D01*
X186297380Y-100761905D02*
X186345000Y-100809524D01*
X186345000Y-100809524D02*
X186392619Y-100904762D01*
X186392619Y-100904762D02*
X186392619Y-101095238D01*
X186392619Y-101095238D02*
X186345000Y-101190476D01*
X186345000Y-101190476D02*
X186297380Y-101238095D01*
X186297380Y-101238095D02*
X186202142Y-101285714D01*
X186202142Y-101285714D02*
X186011666Y-101285714D01*
X186011666Y-101285714D02*
X185916428Y-101238095D01*
X185916428Y-101238095D02*
X185868809Y-101190476D01*
X185868809Y-101190476D02*
X185821190Y-101095238D01*
%TO.C,C19*%
X163286169Y-76134390D02*
X163353512Y-76134390D01*
X163353512Y-76134390D02*
X163488199Y-76067047D01*
X163488199Y-76067047D02*
X163555543Y-75999703D01*
X163555543Y-75999703D02*
X163622886Y-75865016D01*
X163622886Y-75865016D02*
X163622886Y-75730329D01*
X163622886Y-75730329D02*
X163589215Y-75629314D01*
X163589215Y-75629314D02*
X163488199Y-75460955D01*
X163488199Y-75460955D02*
X163387184Y-75359940D01*
X163387184Y-75359940D02*
X163218825Y-75258925D01*
X163218825Y-75258925D02*
X163117810Y-75225253D01*
X163117810Y-75225253D02*
X162983123Y-75225253D01*
X162983123Y-75225253D02*
X162848436Y-75292597D01*
X162848436Y-75292597D02*
X162781092Y-75359940D01*
X162781092Y-75359940D02*
X162713749Y-75494627D01*
X162713749Y-75494627D02*
X162713749Y-75561971D01*
X162680077Y-76875169D02*
X163084138Y-76471108D01*
X162882108Y-76673138D02*
X162175001Y-75966032D01*
X162175001Y-75966032D02*
X162343360Y-75999703D01*
X162343360Y-75999703D02*
X162478047Y-75999703D01*
X162478047Y-75999703D02*
X162579062Y-75966032D01*
X162343360Y-77211886D02*
X162208673Y-77346573D01*
X162208673Y-77346573D02*
X162107657Y-77380245D01*
X162107657Y-77380245D02*
X162040314Y-77380245D01*
X162040314Y-77380245D02*
X161871955Y-77346573D01*
X161871955Y-77346573D02*
X161703596Y-77245558D01*
X161703596Y-77245558D02*
X161434222Y-76976184D01*
X161434222Y-76976184D02*
X161400551Y-76875169D01*
X161400551Y-76875169D02*
X161400551Y-76807825D01*
X161400551Y-76807825D02*
X161434222Y-76706810D01*
X161434222Y-76706810D02*
X161568909Y-76572123D01*
X161568909Y-76572123D02*
X161669925Y-76538451D01*
X161669925Y-76538451D02*
X161737268Y-76538451D01*
X161737268Y-76538451D02*
X161838283Y-76572123D01*
X161838283Y-76572123D02*
X162006642Y-76740482D01*
X162006642Y-76740482D02*
X162040314Y-76841497D01*
X162040314Y-76841497D02*
X162040314Y-76908841D01*
X162040314Y-76908841D02*
X162006642Y-77009856D01*
X162006642Y-77009856D02*
X161871955Y-77144543D01*
X161871955Y-77144543D02*
X161770940Y-77178215D01*
X161770940Y-77178215D02*
X161703596Y-77178215D01*
X161703596Y-77178215D02*
X161602581Y-77144543D01*
%TO.C,C13*%
X165286169Y-77134390D02*
X165353512Y-77134390D01*
X165353512Y-77134390D02*
X165488199Y-77067047D01*
X165488199Y-77067047D02*
X165555543Y-76999703D01*
X165555543Y-76999703D02*
X165622886Y-76865016D01*
X165622886Y-76865016D02*
X165622886Y-76730329D01*
X165622886Y-76730329D02*
X165589215Y-76629314D01*
X165589215Y-76629314D02*
X165488199Y-76460955D01*
X165488199Y-76460955D02*
X165387184Y-76359940D01*
X165387184Y-76359940D02*
X165218825Y-76258925D01*
X165218825Y-76258925D02*
X165117810Y-76225253D01*
X165117810Y-76225253D02*
X164983123Y-76225253D01*
X164983123Y-76225253D02*
X164848436Y-76292597D01*
X164848436Y-76292597D02*
X164781092Y-76359940D01*
X164781092Y-76359940D02*
X164713749Y-76494627D01*
X164713749Y-76494627D02*
X164713749Y-76561971D01*
X164680077Y-77875169D02*
X165084138Y-77471108D01*
X164882108Y-77673138D02*
X164175001Y-76966032D01*
X164175001Y-76966032D02*
X164343360Y-76999703D01*
X164343360Y-76999703D02*
X164478047Y-76999703D01*
X164478047Y-76999703D02*
X164579062Y-76966032D01*
X163737268Y-77403764D02*
X163299535Y-77841497D01*
X163299535Y-77841497D02*
X163804612Y-77875169D01*
X163804612Y-77875169D02*
X163703596Y-77976184D01*
X163703596Y-77976184D02*
X163669925Y-78077199D01*
X163669925Y-78077199D02*
X163669925Y-78144543D01*
X163669925Y-78144543D02*
X163703596Y-78245558D01*
X163703596Y-78245558D02*
X163871955Y-78413917D01*
X163871955Y-78413917D02*
X163972970Y-78447589D01*
X163972970Y-78447589D02*
X164040314Y-78447589D01*
X164040314Y-78447589D02*
X164141329Y-78413917D01*
X164141329Y-78413917D02*
X164343360Y-78211886D01*
X164343360Y-78211886D02*
X164377031Y-78110871D01*
X164377031Y-78110871D02*
X164377031Y-78043528D01*
%TO.C,C14*%
X159286169Y-69134390D02*
X159353512Y-69134390D01*
X159353512Y-69134390D02*
X159488199Y-69067047D01*
X159488199Y-69067047D02*
X159555543Y-68999703D01*
X159555543Y-68999703D02*
X159622886Y-68865016D01*
X159622886Y-68865016D02*
X159622886Y-68730329D01*
X159622886Y-68730329D02*
X159589215Y-68629314D01*
X159589215Y-68629314D02*
X159488199Y-68460955D01*
X159488199Y-68460955D02*
X159387184Y-68359940D01*
X159387184Y-68359940D02*
X159218825Y-68258925D01*
X159218825Y-68258925D02*
X159117810Y-68225253D01*
X159117810Y-68225253D02*
X158983123Y-68225253D01*
X158983123Y-68225253D02*
X158848436Y-68292597D01*
X158848436Y-68292597D02*
X158781092Y-68359940D01*
X158781092Y-68359940D02*
X158713749Y-68494627D01*
X158713749Y-68494627D02*
X158713749Y-68561971D01*
X158680077Y-69875169D02*
X159084138Y-69471108D01*
X158882108Y-69673138D02*
X158175001Y-68966032D01*
X158175001Y-68966032D02*
X158343360Y-68999703D01*
X158343360Y-68999703D02*
X158478047Y-68999703D01*
X158478047Y-68999703D02*
X158579062Y-68966032D01*
X157602581Y-70009856D02*
X158073986Y-70481260D01*
X157501566Y-69572123D02*
X158175001Y-69908841D01*
X158175001Y-69908841D02*
X157737268Y-70346573D01*
%TO.C,C7*%
X172166666Y-74797383D02*
X172214285Y-74845003D01*
X172214285Y-74845003D02*
X172357142Y-74892622D01*
X172357142Y-74892622D02*
X172452380Y-74892622D01*
X172452380Y-74892622D02*
X172595237Y-74845003D01*
X172595237Y-74845003D02*
X172690475Y-74749764D01*
X172690475Y-74749764D02*
X172738094Y-74654526D01*
X172738094Y-74654526D02*
X172785713Y-74464050D01*
X172785713Y-74464050D02*
X172785713Y-74321193D01*
X172785713Y-74321193D02*
X172738094Y-74130717D01*
X172738094Y-74130717D02*
X172690475Y-74035479D01*
X172690475Y-74035479D02*
X172595237Y-73940241D01*
X172595237Y-73940241D02*
X172452380Y-73892622D01*
X172452380Y-73892622D02*
X172357142Y-73892622D01*
X172357142Y-73892622D02*
X172214285Y-73940241D01*
X172214285Y-73940241D02*
X172166666Y-73987860D01*
X171833332Y-73892622D02*
X171166666Y-73892622D01*
X171166666Y-73892622D02*
X171595237Y-74892622D01*
%TO.C,U3*%
X160862619Y-67238095D02*
X161672142Y-67238095D01*
X161672142Y-67238095D02*
X161767380Y-67285714D01*
X161767380Y-67285714D02*
X161815000Y-67333333D01*
X161815000Y-67333333D02*
X161862619Y-67428571D01*
X161862619Y-67428571D02*
X161862619Y-67619047D01*
X161862619Y-67619047D02*
X161815000Y-67714285D01*
X161815000Y-67714285D02*
X161767380Y-67761904D01*
X161767380Y-67761904D02*
X161672142Y-67809523D01*
X161672142Y-67809523D02*
X160862619Y-67809523D01*
X160862619Y-68190476D02*
X160862619Y-68809523D01*
X160862619Y-68809523D02*
X161243571Y-68476190D01*
X161243571Y-68476190D02*
X161243571Y-68619047D01*
X161243571Y-68619047D02*
X161291190Y-68714285D01*
X161291190Y-68714285D02*
X161338809Y-68761904D01*
X161338809Y-68761904D02*
X161434047Y-68809523D01*
X161434047Y-68809523D02*
X161672142Y-68809523D01*
X161672142Y-68809523D02*
X161767380Y-68761904D01*
X161767380Y-68761904D02*
X161815000Y-68714285D01*
X161815000Y-68714285D02*
X161862619Y-68619047D01*
X161862619Y-68619047D02*
X161862619Y-68333333D01*
X161862619Y-68333333D02*
X161815000Y-68238095D01*
X161815000Y-68238095D02*
X161767380Y-68190476D01*
%TO.C,R7*%
X171892619Y-63833333D02*
X171416428Y-63500000D01*
X171892619Y-63261905D02*
X170892619Y-63261905D01*
X170892619Y-63261905D02*
X170892619Y-63642857D01*
X170892619Y-63642857D02*
X170940238Y-63738095D01*
X170940238Y-63738095D02*
X170987857Y-63785714D01*
X170987857Y-63785714D02*
X171083095Y-63833333D01*
X171083095Y-63833333D02*
X171225952Y-63833333D01*
X171225952Y-63833333D02*
X171321190Y-63785714D01*
X171321190Y-63785714D02*
X171368809Y-63738095D01*
X171368809Y-63738095D02*
X171416428Y-63642857D01*
X171416428Y-63642857D02*
X171416428Y-63261905D01*
X170892619Y-64166667D02*
X170892619Y-64833333D01*
X170892619Y-64833333D02*
X171892619Y-64404762D01*
%TO.C,C16*%
X165183628Y-84725509D02*
X165183628Y-84792852D01*
X165183628Y-84792852D02*
X165250971Y-84927539D01*
X165250971Y-84927539D02*
X165318315Y-84994883D01*
X165318315Y-84994883D02*
X165453002Y-85062226D01*
X165453002Y-85062226D02*
X165587689Y-85062226D01*
X165587689Y-85062226D02*
X165688704Y-85028555D01*
X165688704Y-85028555D02*
X165857063Y-84927539D01*
X165857063Y-84927539D02*
X165958078Y-84826524D01*
X165958078Y-84826524D02*
X166059093Y-84658165D01*
X166059093Y-84658165D02*
X166092765Y-84557150D01*
X166092765Y-84557150D02*
X166092765Y-84422463D01*
X166092765Y-84422463D02*
X166025421Y-84287776D01*
X166025421Y-84287776D02*
X165958078Y-84220432D01*
X165958078Y-84220432D02*
X165823391Y-84153089D01*
X165823391Y-84153089D02*
X165756047Y-84153089D01*
X164442849Y-84119417D02*
X164846910Y-84523478D01*
X164644880Y-84321448D02*
X165351986Y-83614341D01*
X165351986Y-83614341D02*
X165318315Y-83782700D01*
X165318315Y-83782700D02*
X165318315Y-83917387D01*
X165318315Y-83917387D02*
X165351986Y-84018402D01*
X164543864Y-82806219D02*
X164678551Y-82940906D01*
X164678551Y-82940906D02*
X164712223Y-83041921D01*
X164712223Y-83041921D02*
X164712223Y-83109265D01*
X164712223Y-83109265D02*
X164678551Y-83277623D01*
X164678551Y-83277623D02*
X164577536Y-83445982D01*
X164577536Y-83445982D02*
X164308162Y-83715356D01*
X164308162Y-83715356D02*
X164207147Y-83749028D01*
X164207147Y-83749028D02*
X164139803Y-83749028D01*
X164139803Y-83749028D02*
X164038788Y-83715356D01*
X164038788Y-83715356D02*
X163904101Y-83580669D01*
X163904101Y-83580669D02*
X163870429Y-83479654D01*
X163870429Y-83479654D02*
X163870429Y-83412310D01*
X163870429Y-83412310D02*
X163904101Y-83311295D01*
X163904101Y-83311295D02*
X164072460Y-83142936D01*
X164072460Y-83142936D02*
X164173475Y-83109265D01*
X164173475Y-83109265D02*
X164240819Y-83109265D01*
X164240819Y-83109265D02*
X164341834Y-83142936D01*
X164341834Y-83142936D02*
X164476521Y-83277623D01*
X164476521Y-83277623D02*
X164510193Y-83378639D01*
X164510193Y-83378639D02*
X164510193Y-83445982D01*
X164510193Y-83445982D02*
X164476521Y-83546997D01*
%TO.C,J21*%
X162592619Y-98190476D02*
X163306904Y-98190476D01*
X163306904Y-98190476D02*
X163449761Y-98142857D01*
X163449761Y-98142857D02*
X163545000Y-98047619D01*
X163545000Y-98047619D02*
X163592619Y-97904762D01*
X163592619Y-97904762D02*
X163592619Y-97809524D01*
X162687857Y-98619048D02*
X162640238Y-98666667D01*
X162640238Y-98666667D02*
X162592619Y-98761905D01*
X162592619Y-98761905D02*
X162592619Y-99000000D01*
X162592619Y-99000000D02*
X162640238Y-99095238D01*
X162640238Y-99095238D02*
X162687857Y-99142857D01*
X162687857Y-99142857D02*
X162783095Y-99190476D01*
X162783095Y-99190476D02*
X162878333Y-99190476D01*
X162878333Y-99190476D02*
X163021190Y-99142857D01*
X163021190Y-99142857D02*
X163592619Y-98571429D01*
X163592619Y-98571429D02*
X163592619Y-99190476D01*
X163592619Y-100142857D02*
X163592619Y-99571429D01*
X163592619Y-99857143D02*
X162592619Y-99857143D01*
X162592619Y-99857143D02*
X162735476Y-99761905D01*
X162735476Y-99761905D02*
X162830714Y-99666667D01*
X162830714Y-99666667D02*
X162878333Y-99571429D01*
%TO.C,C11*%
X156642523Y-90976026D02*
X156709866Y-90976026D01*
X156709866Y-90976026D02*
X156844553Y-90908683D01*
X156844553Y-90908683D02*
X156911897Y-90841339D01*
X156911897Y-90841339D02*
X156979240Y-90706652D01*
X156979240Y-90706652D02*
X156979240Y-90571965D01*
X156979240Y-90571965D02*
X156945569Y-90470950D01*
X156945569Y-90470950D02*
X156844553Y-90302591D01*
X156844553Y-90302591D02*
X156743538Y-90201576D01*
X156743538Y-90201576D02*
X156575179Y-90100561D01*
X156575179Y-90100561D02*
X156474164Y-90066889D01*
X156474164Y-90066889D02*
X156339477Y-90066889D01*
X156339477Y-90066889D02*
X156204790Y-90134233D01*
X156204790Y-90134233D02*
X156137446Y-90201576D01*
X156137446Y-90201576D02*
X156070103Y-90336263D01*
X156070103Y-90336263D02*
X156070103Y-90403607D01*
X156036431Y-91716805D02*
X156440492Y-91312744D01*
X156238462Y-91514774D02*
X155531355Y-90807668D01*
X155531355Y-90807668D02*
X155699714Y-90841339D01*
X155699714Y-90841339D02*
X155834401Y-90841339D01*
X155834401Y-90841339D02*
X155935416Y-90807668D01*
X155362996Y-92390240D02*
X155767057Y-91986179D01*
X155565027Y-92188209D02*
X154857920Y-91481103D01*
X154857920Y-91481103D02*
X155026279Y-91514774D01*
X155026279Y-91514774D02*
X155160966Y-91514774D01*
X155160966Y-91514774D02*
X155261981Y-91481103D01*
%TO.C,U5*%
X165326988Y-80750507D02*
X164754568Y-81322927D01*
X164754568Y-81322927D02*
X164653553Y-81356598D01*
X164653553Y-81356598D02*
X164586210Y-81356598D01*
X164586210Y-81356598D02*
X164485194Y-81322927D01*
X164485194Y-81322927D02*
X164350507Y-81188240D01*
X164350507Y-81188240D02*
X164316836Y-81087224D01*
X164316836Y-81087224D02*
X164316836Y-81019881D01*
X164316836Y-81019881D02*
X164350507Y-80918866D01*
X164350507Y-80918866D02*
X164922927Y-80346446D01*
X164249492Y-79673011D02*
X164586210Y-80009728D01*
X164586210Y-80009728D02*
X164283164Y-80380118D01*
X164283164Y-80380118D02*
X164283164Y-80312774D01*
X164283164Y-80312774D02*
X164249492Y-80211759D01*
X164249492Y-80211759D02*
X164081133Y-80043400D01*
X164081133Y-80043400D02*
X163980118Y-80009728D01*
X163980118Y-80009728D02*
X163912775Y-80009728D01*
X163912775Y-80009728D02*
X163811759Y-80043400D01*
X163811759Y-80043400D02*
X163643401Y-80211759D01*
X163643401Y-80211759D02*
X163609729Y-80312774D01*
X163609729Y-80312774D02*
X163609729Y-80380118D01*
X163609729Y-80380118D02*
X163643401Y-80481133D01*
X163643401Y-80481133D02*
X163811759Y-80649492D01*
X163811759Y-80649492D02*
X163912775Y-80683163D01*
X163912775Y-80683163D02*
X163980118Y-80683163D01*
%TO.C,C10*%
X181642857Y-78297380D02*
X181690476Y-78345000D01*
X181690476Y-78345000D02*
X181833333Y-78392619D01*
X181833333Y-78392619D02*
X181928571Y-78392619D01*
X181928571Y-78392619D02*
X182071428Y-78345000D01*
X182071428Y-78345000D02*
X182166666Y-78249761D01*
X182166666Y-78249761D02*
X182214285Y-78154523D01*
X182214285Y-78154523D02*
X182261904Y-77964047D01*
X182261904Y-77964047D02*
X182261904Y-77821190D01*
X182261904Y-77821190D02*
X182214285Y-77630714D01*
X182214285Y-77630714D02*
X182166666Y-77535476D01*
X182166666Y-77535476D02*
X182071428Y-77440238D01*
X182071428Y-77440238D02*
X181928571Y-77392619D01*
X181928571Y-77392619D02*
X181833333Y-77392619D01*
X181833333Y-77392619D02*
X181690476Y-77440238D01*
X181690476Y-77440238D02*
X181642857Y-77487857D01*
X180690476Y-78392619D02*
X181261904Y-78392619D01*
X180976190Y-78392619D02*
X180976190Y-77392619D01*
X180976190Y-77392619D02*
X181071428Y-77535476D01*
X181071428Y-77535476D02*
X181166666Y-77630714D01*
X181166666Y-77630714D02*
X181261904Y-77678333D01*
X180071428Y-77392619D02*
X179976190Y-77392619D01*
X179976190Y-77392619D02*
X179880952Y-77440238D01*
X179880952Y-77440238D02*
X179833333Y-77487857D01*
X179833333Y-77487857D02*
X179785714Y-77583095D01*
X179785714Y-77583095D02*
X179738095Y-77773571D01*
X179738095Y-77773571D02*
X179738095Y-78011666D01*
X179738095Y-78011666D02*
X179785714Y-78202142D01*
X179785714Y-78202142D02*
X179833333Y-78297380D01*
X179833333Y-78297380D02*
X179880952Y-78345000D01*
X179880952Y-78345000D02*
X179976190Y-78392619D01*
X179976190Y-78392619D02*
X180071428Y-78392619D01*
X180071428Y-78392619D02*
X180166666Y-78345000D01*
X180166666Y-78345000D02*
X180214285Y-78297380D01*
X180214285Y-78297380D02*
X180261904Y-78202142D01*
X180261904Y-78202142D02*
X180309523Y-78011666D01*
X180309523Y-78011666D02*
X180309523Y-77773571D01*
X180309523Y-77773571D02*
X180261904Y-77583095D01*
X180261904Y-77583095D02*
X180214285Y-77487857D01*
X180214285Y-77487857D02*
X180166666Y-77440238D01*
X180166666Y-77440238D02*
X180071428Y-77392619D01*
%TO.C,R3*%
X175166666Y-107032619D02*
X175499999Y-106556428D01*
X175738094Y-107032619D02*
X175738094Y-106032619D01*
X175738094Y-106032619D02*
X175357142Y-106032619D01*
X175357142Y-106032619D02*
X175261904Y-106080238D01*
X175261904Y-106080238D02*
X175214285Y-106127857D01*
X175214285Y-106127857D02*
X175166666Y-106223095D01*
X175166666Y-106223095D02*
X175166666Y-106365952D01*
X175166666Y-106365952D02*
X175214285Y-106461190D01*
X175214285Y-106461190D02*
X175261904Y-106508809D01*
X175261904Y-106508809D02*
X175357142Y-106556428D01*
X175357142Y-106556428D02*
X175738094Y-106556428D01*
X174833332Y-106032619D02*
X174214285Y-106032619D01*
X174214285Y-106032619D02*
X174547618Y-106413571D01*
X174547618Y-106413571D02*
X174404761Y-106413571D01*
X174404761Y-106413571D02*
X174309523Y-106461190D01*
X174309523Y-106461190D02*
X174261904Y-106508809D01*
X174261904Y-106508809D02*
X174214285Y-106604047D01*
X174214285Y-106604047D02*
X174214285Y-106842142D01*
X174214285Y-106842142D02*
X174261904Y-106937380D01*
X174261904Y-106937380D02*
X174309523Y-106985000D01*
X174309523Y-106985000D02*
X174404761Y-107032619D01*
X174404761Y-107032619D02*
X174690475Y-107032619D01*
X174690475Y-107032619D02*
X174785713Y-106985000D01*
X174785713Y-106985000D02*
X174833332Y-106937380D01*
%TO.C,C6*%
X167166666Y-66377380D02*
X167214285Y-66425000D01*
X167214285Y-66425000D02*
X167357142Y-66472619D01*
X167357142Y-66472619D02*
X167452380Y-66472619D01*
X167452380Y-66472619D02*
X167595237Y-66425000D01*
X167595237Y-66425000D02*
X167690475Y-66329761D01*
X167690475Y-66329761D02*
X167738094Y-66234523D01*
X167738094Y-66234523D02*
X167785713Y-66044047D01*
X167785713Y-66044047D02*
X167785713Y-65901190D01*
X167785713Y-65901190D02*
X167738094Y-65710714D01*
X167738094Y-65710714D02*
X167690475Y-65615476D01*
X167690475Y-65615476D02*
X167595237Y-65520238D01*
X167595237Y-65520238D02*
X167452380Y-65472619D01*
X167452380Y-65472619D02*
X167357142Y-65472619D01*
X167357142Y-65472619D02*
X167214285Y-65520238D01*
X167214285Y-65520238D02*
X167166666Y-65567857D01*
X166309523Y-65472619D02*
X166499999Y-65472619D01*
X166499999Y-65472619D02*
X166595237Y-65520238D01*
X166595237Y-65520238D02*
X166642856Y-65567857D01*
X166642856Y-65567857D02*
X166738094Y-65710714D01*
X166738094Y-65710714D02*
X166785713Y-65901190D01*
X166785713Y-65901190D02*
X166785713Y-66282142D01*
X166785713Y-66282142D02*
X166738094Y-66377380D01*
X166738094Y-66377380D02*
X166690475Y-66425000D01*
X166690475Y-66425000D02*
X166595237Y-66472619D01*
X166595237Y-66472619D02*
X166404761Y-66472619D01*
X166404761Y-66472619D02*
X166309523Y-66425000D01*
X166309523Y-66425000D02*
X166261904Y-66377380D01*
X166261904Y-66377380D02*
X166214285Y-66282142D01*
X166214285Y-66282142D02*
X166214285Y-66044047D01*
X166214285Y-66044047D02*
X166261904Y-65948809D01*
X166261904Y-65948809D02*
X166309523Y-65901190D01*
X166309523Y-65901190D02*
X166404761Y-65853571D01*
X166404761Y-65853571D02*
X166595237Y-65853571D01*
X166595237Y-65853571D02*
X166690475Y-65901190D01*
X166690475Y-65901190D02*
X166738094Y-65948809D01*
X166738094Y-65948809D02*
X166785713Y-66044047D01*
%TO.C,R11*%
X152792852Y-96883715D02*
X152691837Y-96311295D01*
X153196913Y-96479654D02*
X152489806Y-95772547D01*
X152489806Y-95772547D02*
X152220432Y-96041921D01*
X152220432Y-96041921D02*
X152186761Y-96142936D01*
X152186761Y-96142936D02*
X152186761Y-96210280D01*
X152186761Y-96210280D02*
X152220432Y-96311295D01*
X152220432Y-96311295D02*
X152321448Y-96412310D01*
X152321448Y-96412310D02*
X152422463Y-96445982D01*
X152422463Y-96445982D02*
X152489806Y-96445982D01*
X152489806Y-96445982D02*
X152590822Y-96412310D01*
X152590822Y-96412310D02*
X152860196Y-96142936D01*
X152119417Y-97557150D02*
X152523478Y-97153089D01*
X152321448Y-97355119D02*
X151614341Y-96648013D01*
X151614341Y-96648013D02*
X151782700Y-96681684D01*
X151782700Y-96681684D02*
X151917387Y-96681684D01*
X151917387Y-96681684D02*
X152018402Y-96648013D01*
X151445982Y-98230585D02*
X151850043Y-97826524D01*
X151648013Y-98028554D02*
X150940906Y-97321448D01*
X150940906Y-97321448D02*
X151109265Y-97355119D01*
X151109265Y-97355119D02*
X151243952Y-97355119D01*
X151243952Y-97355119D02*
X151344967Y-97321448D01*
%TO.C,R17*%
X149257318Y-88297928D02*
X149156303Y-87725508D01*
X149661379Y-87893867D02*
X148954272Y-87186760D01*
X148954272Y-87186760D02*
X148684898Y-87456134D01*
X148684898Y-87456134D02*
X148651227Y-87557149D01*
X148651227Y-87557149D02*
X148651227Y-87624493D01*
X148651227Y-87624493D02*
X148684898Y-87725508D01*
X148684898Y-87725508D02*
X148785914Y-87826523D01*
X148785914Y-87826523D02*
X148886929Y-87860195D01*
X148886929Y-87860195D02*
X148954272Y-87860195D01*
X148954272Y-87860195D02*
X149055288Y-87826523D01*
X149055288Y-87826523D02*
X149324662Y-87557149D01*
X148583883Y-88971363D02*
X148987944Y-88567302D01*
X148785914Y-88769332D02*
X148078807Y-88062226D01*
X148078807Y-88062226D02*
X148247166Y-88095897D01*
X148247166Y-88095897D02*
X148381853Y-88095897D01*
X148381853Y-88095897D02*
X148482868Y-88062226D01*
X147641074Y-88499958D02*
X147169670Y-88971363D01*
X147169670Y-88971363D02*
X148179822Y-89375424D01*
%TO.C,U4*%
X174522619Y-85238095D02*
X175332142Y-85238095D01*
X175332142Y-85238095D02*
X175427380Y-85285714D01*
X175427380Y-85285714D02*
X175475000Y-85333333D01*
X175475000Y-85333333D02*
X175522619Y-85428571D01*
X175522619Y-85428571D02*
X175522619Y-85619047D01*
X175522619Y-85619047D02*
X175475000Y-85714285D01*
X175475000Y-85714285D02*
X175427380Y-85761904D01*
X175427380Y-85761904D02*
X175332142Y-85809523D01*
X175332142Y-85809523D02*
X174522619Y-85809523D01*
X174855952Y-86714285D02*
X175522619Y-86714285D01*
X174475000Y-86476190D02*
X175189285Y-86238095D01*
X175189285Y-86238095D02*
X175189285Y-86857142D01*
%TO.C,U1*%
X185761904Y-71962619D02*
X185761904Y-72772142D01*
X185761904Y-72772142D02*
X185714285Y-72867380D01*
X185714285Y-72867380D02*
X185666666Y-72915000D01*
X185666666Y-72915000D02*
X185571428Y-72962619D01*
X185571428Y-72962619D02*
X185380952Y-72962619D01*
X185380952Y-72962619D02*
X185285714Y-72915000D01*
X185285714Y-72915000D02*
X185238095Y-72867380D01*
X185238095Y-72867380D02*
X185190476Y-72772142D01*
X185190476Y-72772142D02*
X185190476Y-71962619D01*
X184190476Y-72962619D02*
X184761904Y-72962619D01*
X184476190Y-72962619D02*
X184476190Y-71962619D01*
X184476190Y-71962619D02*
X184571428Y-72105476D01*
X184571428Y-72105476D02*
X184666666Y-72200714D01*
X184666666Y-72200714D02*
X184761904Y-72248333D01*
%TO.C,Q1*%
X174095238Y-73157857D02*
X174190476Y-73110238D01*
X174190476Y-73110238D02*
X174285714Y-73015000D01*
X174285714Y-73015000D02*
X174428571Y-72872142D01*
X174428571Y-72872142D02*
X174523809Y-72824523D01*
X174523809Y-72824523D02*
X174619047Y-72824523D01*
X174571428Y-73062619D02*
X174666666Y-73015000D01*
X174666666Y-73015000D02*
X174761904Y-72919761D01*
X174761904Y-72919761D02*
X174809523Y-72729285D01*
X174809523Y-72729285D02*
X174809523Y-72395952D01*
X174809523Y-72395952D02*
X174761904Y-72205476D01*
X174761904Y-72205476D02*
X174666666Y-72110238D01*
X174666666Y-72110238D02*
X174571428Y-72062619D01*
X174571428Y-72062619D02*
X174380952Y-72062619D01*
X174380952Y-72062619D02*
X174285714Y-72110238D01*
X174285714Y-72110238D02*
X174190476Y-72205476D01*
X174190476Y-72205476D02*
X174142857Y-72395952D01*
X174142857Y-72395952D02*
X174142857Y-72729285D01*
X174142857Y-72729285D02*
X174190476Y-72919761D01*
X174190476Y-72919761D02*
X174285714Y-73015000D01*
X174285714Y-73015000D02*
X174380952Y-73062619D01*
X174380952Y-73062619D02*
X174571428Y-73062619D01*
X173190476Y-73062619D02*
X173761904Y-73062619D01*
X173476190Y-73062619D02*
X173476190Y-72062619D01*
X173476190Y-72062619D02*
X173571428Y-72205476D01*
X173571428Y-72205476D02*
X173666666Y-72300714D01*
X173666666Y-72300714D02*
X173761904Y-72348333D01*
%TO.C,J15*%
X198929523Y-73967619D02*
X198929523Y-74681904D01*
X198929523Y-74681904D02*
X198977142Y-74824761D01*
X198977142Y-74824761D02*
X199072380Y-74920000D01*
X199072380Y-74920000D02*
X199215237Y-74967619D01*
X199215237Y-74967619D02*
X199310475Y-74967619D01*
X197929523Y-74967619D02*
X198500951Y-74967619D01*
X198215237Y-74967619D02*
X198215237Y-73967619D01*
X198215237Y-73967619D02*
X198310475Y-74110476D01*
X198310475Y-74110476D02*
X198405713Y-74205714D01*
X198405713Y-74205714D02*
X198500951Y-74253333D01*
X197024761Y-73967619D02*
X197500951Y-73967619D01*
X197500951Y-73967619D02*
X197548570Y-74443809D01*
X197548570Y-74443809D02*
X197500951Y-74396190D01*
X197500951Y-74396190D02*
X197405713Y-74348571D01*
X197405713Y-74348571D02*
X197167618Y-74348571D01*
X197167618Y-74348571D02*
X197072380Y-74396190D01*
X197072380Y-74396190D02*
X197024761Y-74443809D01*
X197024761Y-74443809D02*
X196977142Y-74539047D01*
X196977142Y-74539047D02*
X196977142Y-74777142D01*
X196977142Y-74777142D02*
X197024761Y-74872380D01*
X197024761Y-74872380D02*
X197072380Y-74920000D01*
X197072380Y-74920000D02*
X197167618Y-74967619D01*
X197167618Y-74967619D02*
X197405713Y-74967619D01*
X197405713Y-74967619D02*
X197500951Y-74920000D01*
X197500951Y-74920000D02*
X197548570Y-74872380D01*
%TO.C,R14*%
X179532619Y-83357142D02*
X179056428Y-83023809D01*
X179532619Y-82785714D02*
X178532619Y-82785714D01*
X178532619Y-82785714D02*
X178532619Y-83166666D01*
X178532619Y-83166666D02*
X178580238Y-83261904D01*
X178580238Y-83261904D02*
X178627857Y-83309523D01*
X178627857Y-83309523D02*
X178723095Y-83357142D01*
X178723095Y-83357142D02*
X178865952Y-83357142D01*
X178865952Y-83357142D02*
X178961190Y-83309523D01*
X178961190Y-83309523D02*
X179008809Y-83261904D01*
X179008809Y-83261904D02*
X179056428Y-83166666D01*
X179056428Y-83166666D02*
X179056428Y-82785714D01*
X179532619Y-84309523D02*
X179532619Y-83738095D01*
X179532619Y-84023809D02*
X178532619Y-84023809D01*
X178532619Y-84023809D02*
X178675476Y-83928571D01*
X178675476Y-83928571D02*
X178770714Y-83833333D01*
X178770714Y-83833333D02*
X178818333Y-83738095D01*
X178865952Y-85166666D02*
X179532619Y-85166666D01*
X178485000Y-84928571D02*
X179199285Y-84690476D01*
X179199285Y-84690476D02*
X179199285Y-85309523D01*
%TO.C,C17*%
X148142523Y-86476026D02*
X148209866Y-86476026D01*
X148209866Y-86476026D02*
X148344553Y-86408683D01*
X148344553Y-86408683D02*
X148411897Y-86341339D01*
X148411897Y-86341339D02*
X148479240Y-86206652D01*
X148479240Y-86206652D02*
X148479240Y-86071965D01*
X148479240Y-86071965D02*
X148445569Y-85970950D01*
X148445569Y-85970950D02*
X148344553Y-85802591D01*
X148344553Y-85802591D02*
X148243538Y-85701576D01*
X148243538Y-85701576D02*
X148075179Y-85600561D01*
X148075179Y-85600561D02*
X147974164Y-85566889D01*
X147974164Y-85566889D02*
X147839477Y-85566889D01*
X147839477Y-85566889D02*
X147704790Y-85634233D01*
X147704790Y-85634233D02*
X147637446Y-85701576D01*
X147637446Y-85701576D02*
X147570103Y-85836263D01*
X147570103Y-85836263D02*
X147570103Y-85903607D01*
X147536431Y-87216805D02*
X147940492Y-86812744D01*
X147738462Y-87014774D02*
X147031355Y-86307668D01*
X147031355Y-86307668D02*
X147199714Y-86341339D01*
X147199714Y-86341339D02*
X147334401Y-86341339D01*
X147334401Y-86341339D02*
X147435416Y-86307668D01*
X146593622Y-86745400D02*
X146122218Y-87216805D01*
X146122218Y-87216805D02*
X147132370Y-87620866D01*
%TO.C,C12*%
X152683628Y-93225509D02*
X152683628Y-93292852D01*
X152683628Y-93292852D02*
X152750971Y-93427539D01*
X152750971Y-93427539D02*
X152818315Y-93494883D01*
X152818315Y-93494883D02*
X152953002Y-93562226D01*
X152953002Y-93562226D02*
X153087689Y-93562226D01*
X153087689Y-93562226D02*
X153188704Y-93528555D01*
X153188704Y-93528555D02*
X153357063Y-93427539D01*
X153357063Y-93427539D02*
X153458078Y-93326524D01*
X153458078Y-93326524D02*
X153559093Y-93158165D01*
X153559093Y-93158165D02*
X153592765Y-93057150D01*
X153592765Y-93057150D02*
X153592765Y-92922463D01*
X153592765Y-92922463D02*
X153525421Y-92787776D01*
X153525421Y-92787776D02*
X153458078Y-92720432D01*
X153458078Y-92720432D02*
X153323391Y-92653089D01*
X153323391Y-92653089D02*
X153256047Y-92653089D01*
X151942849Y-92619417D02*
X152346910Y-93023478D01*
X152144880Y-92821448D02*
X152851986Y-92114341D01*
X152851986Y-92114341D02*
X152818315Y-92282700D01*
X152818315Y-92282700D02*
X152818315Y-92417387D01*
X152818315Y-92417387D02*
X152851986Y-92518402D01*
X152313238Y-91710280D02*
X152313238Y-91642936D01*
X152313238Y-91642936D02*
X152279567Y-91541921D01*
X152279567Y-91541921D02*
X152111208Y-91373562D01*
X152111208Y-91373562D02*
X152010193Y-91339891D01*
X152010193Y-91339891D02*
X151942849Y-91339891D01*
X151942849Y-91339891D02*
X151841834Y-91373562D01*
X151841834Y-91373562D02*
X151774490Y-91440906D01*
X151774490Y-91440906D02*
X151707147Y-91575593D01*
X151707147Y-91575593D02*
X151707147Y-92383715D01*
X151707147Y-92383715D02*
X151269414Y-91945982D01*
%TO.C,R15*%
X161353512Y-75201734D02*
X161252497Y-74629314D01*
X161757573Y-74797673D02*
X161050466Y-74090566D01*
X161050466Y-74090566D02*
X160781092Y-74359940D01*
X160781092Y-74359940D02*
X160747421Y-74460955D01*
X160747421Y-74460955D02*
X160747421Y-74528299D01*
X160747421Y-74528299D02*
X160781092Y-74629314D01*
X160781092Y-74629314D02*
X160882108Y-74730329D01*
X160882108Y-74730329D02*
X160983123Y-74764001D01*
X160983123Y-74764001D02*
X161050466Y-74764001D01*
X161050466Y-74764001D02*
X161151482Y-74730329D01*
X161151482Y-74730329D02*
X161420856Y-74460955D01*
X160680077Y-75875169D02*
X161084138Y-75471108D01*
X160882108Y-75673138D02*
X160175001Y-74966032D01*
X160175001Y-74966032D02*
X160343360Y-74999703D01*
X160343360Y-74999703D02*
X160478047Y-74999703D01*
X160478047Y-74999703D02*
X160579062Y-74966032D01*
X159333207Y-75807825D02*
X159669925Y-75471108D01*
X159669925Y-75471108D02*
X160040314Y-75774154D01*
X160040314Y-75774154D02*
X159972970Y-75774154D01*
X159972970Y-75774154D02*
X159871955Y-75807825D01*
X159871955Y-75807825D02*
X159703596Y-75976184D01*
X159703596Y-75976184D02*
X159669925Y-76077199D01*
X159669925Y-76077199D02*
X159669925Y-76144543D01*
X159669925Y-76144543D02*
X159703596Y-76245558D01*
X159703596Y-76245558D02*
X159871955Y-76413917D01*
X159871955Y-76413917D02*
X159972970Y-76447589D01*
X159972970Y-76447589D02*
X160040314Y-76447589D01*
X160040314Y-76447589D02*
X160141329Y-76413917D01*
X160141329Y-76413917D02*
X160309688Y-76245558D01*
X160309688Y-76245558D02*
X160343360Y-76144543D01*
X160343360Y-76144543D02*
X160343360Y-76077199D01*
%TO.C,C9*%
X184297380Y-100333333D02*
X184345000Y-100285714D01*
X184345000Y-100285714D02*
X184392619Y-100142857D01*
X184392619Y-100142857D02*
X184392619Y-100047619D01*
X184392619Y-100047619D02*
X184345000Y-99904762D01*
X184345000Y-99904762D02*
X184249761Y-99809524D01*
X184249761Y-99809524D02*
X184154523Y-99761905D01*
X184154523Y-99761905D02*
X183964047Y-99714286D01*
X183964047Y-99714286D02*
X183821190Y-99714286D01*
X183821190Y-99714286D02*
X183630714Y-99761905D01*
X183630714Y-99761905D02*
X183535476Y-99809524D01*
X183535476Y-99809524D02*
X183440238Y-99904762D01*
X183440238Y-99904762D02*
X183392619Y-100047619D01*
X183392619Y-100047619D02*
X183392619Y-100142857D01*
X183392619Y-100142857D02*
X183440238Y-100285714D01*
X183440238Y-100285714D02*
X183487857Y-100333333D01*
X184392619Y-100809524D02*
X184392619Y-101000000D01*
X184392619Y-101000000D02*
X184345000Y-101095238D01*
X184345000Y-101095238D02*
X184297380Y-101142857D01*
X184297380Y-101142857D02*
X184154523Y-101238095D01*
X184154523Y-101238095D02*
X183964047Y-101285714D01*
X183964047Y-101285714D02*
X183583095Y-101285714D01*
X183583095Y-101285714D02*
X183487857Y-101238095D01*
X183487857Y-101238095D02*
X183440238Y-101190476D01*
X183440238Y-101190476D02*
X183392619Y-101095238D01*
X183392619Y-101095238D02*
X183392619Y-100904762D01*
X183392619Y-100904762D02*
X183440238Y-100809524D01*
X183440238Y-100809524D02*
X183487857Y-100761905D01*
X183487857Y-100761905D02*
X183583095Y-100714286D01*
X183583095Y-100714286D02*
X183821190Y-100714286D01*
X183821190Y-100714286D02*
X183916428Y-100761905D01*
X183916428Y-100761905D02*
X183964047Y-100809524D01*
X183964047Y-100809524D02*
X184011666Y-100904762D01*
X184011666Y-100904762D02*
X184011666Y-101095238D01*
X184011666Y-101095238D02*
X183964047Y-101190476D01*
X183964047Y-101190476D02*
X183916428Y-101238095D01*
X183916428Y-101238095D02*
X183821190Y-101285714D01*
%TO.C,F1*%
X167333333Y-71368811D02*
X167666666Y-71368811D01*
X167666666Y-71892621D02*
X167666666Y-70892621D01*
X167666666Y-70892621D02*
X167190476Y-70892621D01*
X166285714Y-71892621D02*
X166857142Y-71892621D01*
X166571428Y-71892621D02*
X166571428Y-70892621D01*
X166571428Y-70892621D02*
X166666666Y-71035478D01*
X166666666Y-71035478D02*
X166761904Y-71130716D01*
X166761904Y-71130716D02*
X166857142Y-71178335D01*
%TO.C,Q4*%
X147057645Y-98337172D02*
X147091316Y-98236156D01*
X147091316Y-98236156D02*
X147091316Y-98101469D01*
X147091316Y-98101469D02*
X147091316Y-97899439D01*
X147091316Y-97899439D02*
X147124988Y-97798424D01*
X147124988Y-97798424D02*
X147192332Y-97731080D01*
X147327019Y-97933111D02*
X147360690Y-97832095D01*
X147360690Y-97832095D02*
X147360690Y-97697408D01*
X147360690Y-97697408D02*
X147259675Y-97529050D01*
X147259675Y-97529050D02*
X147023973Y-97293347D01*
X147023973Y-97293347D02*
X146855614Y-97192332D01*
X146855614Y-97192332D02*
X146720927Y-97192332D01*
X146720927Y-97192332D02*
X146619912Y-97226004D01*
X146619912Y-97226004D02*
X146485225Y-97360691D01*
X146485225Y-97360691D02*
X146451553Y-97461706D01*
X146451553Y-97461706D02*
X146451553Y-97596393D01*
X146451553Y-97596393D02*
X146552568Y-97764752D01*
X146552568Y-97764752D02*
X146788271Y-98000454D01*
X146788271Y-98000454D02*
X146956629Y-98101469D01*
X146956629Y-98101469D02*
X147091316Y-98101469D01*
X147091316Y-98101469D02*
X147192332Y-98067798D01*
X147192332Y-98067798D02*
X147327019Y-97933111D01*
X145946477Y-98370843D02*
X146417881Y-98842248D01*
X145845462Y-97933111D02*
X146518897Y-98269828D01*
X146518897Y-98269828D02*
X146081164Y-98707561D01*
%TO.C,R1*%
X177032619Y-57833333D02*
X176556428Y-57500000D01*
X177032619Y-57261905D02*
X176032619Y-57261905D01*
X176032619Y-57261905D02*
X176032619Y-57642857D01*
X176032619Y-57642857D02*
X176080238Y-57738095D01*
X176080238Y-57738095D02*
X176127857Y-57785714D01*
X176127857Y-57785714D02*
X176223095Y-57833333D01*
X176223095Y-57833333D02*
X176365952Y-57833333D01*
X176365952Y-57833333D02*
X176461190Y-57785714D01*
X176461190Y-57785714D02*
X176508809Y-57738095D01*
X176508809Y-57738095D02*
X176556428Y-57642857D01*
X176556428Y-57642857D02*
X176556428Y-57261905D01*
X177032619Y-58785714D02*
X177032619Y-58214286D01*
X177032619Y-58500000D02*
X176032619Y-58500000D01*
X176032619Y-58500000D02*
X176175476Y-58404762D01*
X176175476Y-58404762D02*
X176270714Y-58309524D01*
X176270714Y-58309524D02*
X176318333Y-58214286D01*
%TO.C,C4*%
X184927380Y-75333333D02*
X184975000Y-75285714D01*
X184975000Y-75285714D02*
X185022619Y-75142857D01*
X185022619Y-75142857D02*
X185022619Y-75047619D01*
X185022619Y-75047619D02*
X184975000Y-74904762D01*
X184975000Y-74904762D02*
X184879761Y-74809524D01*
X184879761Y-74809524D02*
X184784523Y-74761905D01*
X184784523Y-74761905D02*
X184594047Y-74714286D01*
X184594047Y-74714286D02*
X184451190Y-74714286D01*
X184451190Y-74714286D02*
X184260714Y-74761905D01*
X184260714Y-74761905D02*
X184165476Y-74809524D01*
X184165476Y-74809524D02*
X184070238Y-74904762D01*
X184070238Y-74904762D02*
X184022619Y-75047619D01*
X184022619Y-75047619D02*
X184022619Y-75142857D01*
X184022619Y-75142857D02*
X184070238Y-75285714D01*
X184070238Y-75285714D02*
X184117857Y-75333333D01*
X184355952Y-76190476D02*
X185022619Y-76190476D01*
X183975000Y-75952381D02*
X184689285Y-75714286D01*
X184689285Y-75714286D02*
X184689285Y-76333333D01*
%TO.C,J20*%
X174932619Y-96345476D02*
X175646904Y-96345476D01*
X175646904Y-96345476D02*
X175789761Y-96297857D01*
X175789761Y-96297857D02*
X175885000Y-96202619D01*
X175885000Y-96202619D02*
X175932619Y-96059762D01*
X175932619Y-96059762D02*
X175932619Y-95964524D01*
X175027857Y-96774048D02*
X174980238Y-96821667D01*
X174980238Y-96821667D02*
X174932619Y-96916905D01*
X174932619Y-96916905D02*
X174932619Y-97155000D01*
X174932619Y-97155000D02*
X174980238Y-97250238D01*
X174980238Y-97250238D02*
X175027857Y-97297857D01*
X175027857Y-97297857D02*
X175123095Y-97345476D01*
X175123095Y-97345476D02*
X175218333Y-97345476D01*
X175218333Y-97345476D02*
X175361190Y-97297857D01*
X175361190Y-97297857D02*
X175932619Y-96726429D01*
X175932619Y-96726429D02*
X175932619Y-97345476D01*
X174932619Y-97964524D02*
X174932619Y-98059762D01*
X174932619Y-98059762D02*
X174980238Y-98155000D01*
X174980238Y-98155000D02*
X175027857Y-98202619D01*
X175027857Y-98202619D02*
X175123095Y-98250238D01*
X175123095Y-98250238D02*
X175313571Y-98297857D01*
X175313571Y-98297857D02*
X175551666Y-98297857D01*
X175551666Y-98297857D02*
X175742142Y-98250238D01*
X175742142Y-98250238D02*
X175837380Y-98202619D01*
X175837380Y-98202619D02*
X175885000Y-98155000D01*
X175885000Y-98155000D02*
X175932619Y-98059762D01*
X175932619Y-98059762D02*
X175932619Y-97964524D01*
X175932619Y-97964524D02*
X175885000Y-97869286D01*
X175885000Y-97869286D02*
X175837380Y-97821667D01*
X175837380Y-97821667D02*
X175742142Y-97774048D01*
X175742142Y-97774048D02*
X175551666Y-97726429D01*
X175551666Y-97726429D02*
X175313571Y-97726429D01*
X175313571Y-97726429D02*
X175123095Y-97774048D01*
X175123095Y-97774048D02*
X175027857Y-97821667D01*
X175027857Y-97821667D02*
X174980238Y-97869286D01*
X174980238Y-97869286D02*
X174932619Y-97964524D01*
%TO.C,R9*%
X177032619Y-72833333D02*
X176556428Y-72500000D01*
X177032619Y-72261905D02*
X176032619Y-72261905D01*
X176032619Y-72261905D02*
X176032619Y-72642857D01*
X176032619Y-72642857D02*
X176080238Y-72738095D01*
X176080238Y-72738095D02*
X176127857Y-72785714D01*
X176127857Y-72785714D02*
X176223095Y-72833333D01*
X176223095Y-72833333D02*
X176365952Y-72833333D01*
X176365952Y-72833333D02*
X176461190Y-72785714D01*
X176461190Y-72785714D02*
X176508809Y-72738095D01*
X176508809Y-72738095D02*
X176556428Y-72642857D01*
X176556428Y-72642857D02*
X176556428Y-72261905D01*
X177032619Y-73309524D02*
X177032619Y-73500000D01*
X177032619Y-73500000D02*
X176985000Y-73595238D01*
X176985000Y-73595238D02*
X176937380Y-73642857D01*
X176937380Y-73642857D02*
X176794523Y-73738095D01*
X176794523Y-73738095D02*
X176604047Y-73785714D01*
X176604047Y-73785714D02*
X176223095Y-73785714D01*
X176223095Y-73785714D02*
X176127857Y-73738095D01*
X176127857Y-73738095D02*
X176080238Y-73690476D01*
X176080238Y-73690476D02*
X176032619Y-73595238D01*
X176032619Y-73595238D02*
X176032619Y-73404762D01*
X176032619Y-73404762D02*
X176080238Y-73309524D01*
X176080238Y-73309524D02*
X176127857Y-73261905D01*
X176127857Y-73261905D02*
X176223095Y-73214286D01*
X176223095Y-73214286D02*
X176461190Y-73214286D01*
X176461190Y-73214286D02*
X176556428Y-73261905D01*
X176556428Y-73261905D02*
X176604047Y-73309524D01*
X176604047Y-73309524D02*
X176651666Y-73404762D01*
X176651666Y-73404762D02*
X176651666Y-73595238D01*
X176651666Y-73595238D02*
X176604047Y-73690476D01*
X176604047Y-73690476D02*
X176556428Y-73738095D01*
X176556428Y-73738095D02*
X176461190Y-73785714D01*
%TO.C,C18*%
X152523973Y-69142523D02*
X152523973Y-69209866D01*
X152523973Y-69209866D02*
X152591316Y-69344553D01*
X152591316Y-69344553D02*
X152658660Y-69411897D01*
X152658660Y-69411897D02*
X152793347Y-69479240D01*
X152793347Y-69479240D02*
X152928034Y-69479240D01*
X152928034Y-69479240D02*
X153029049Y-69445569D01*
X153029049Y-69445569D02*
X153197408Y-69344553D01*
X153197408Y-69344553D02*
X153298423Y-69243538D01*
X153298423Y-69243538D02*
X153399438Y-69075179D01*
X153399438Y-69075179D02*
X153433110Y-68974164D01*
X153433110Y-68974164D02*
X153433110Y-68839477D01*
X153433110Y-68839477D02*
X153365766Y-68704790D01*
X153365766Y-68704790D02*
X153298423Y-68637446D01*
X153298423Y-68637446D02*
X153163736Y-68570103D01*
X153163736Y-68570103D02*
X153096392Y-68570103D01*
X151783194Y-68536431D02*
X152187255Y-68940492D01*
X151985225Y-68738462D02*
X152692331Y-68031355D01*
X152692331Y-68031355D02*
X152658660Y-68199714D01*
X152658660Y-68199714D02*
X152658660Y-68334401D01*
X152658660Y-68334401D02*
X152692331Y-68435416D01*
X151783194Y-67728309D02*
X151884209Y-67761981D01*
X151884209Y-67761981D02*
X151951553Y-67761981D01*
X151951553Y-67761981D02*
X152052568Y-67728309D01*
X152052568Y-67728309D02*
X152086240Y-67694637D01*
X152086240Y-67694637D02*
X152119912Y-67593622D01*
X152119912Y-67593622D02*
X152119912Y-67526279D01*
X152119912Y-67526279D02*
X152086240Y-67425263D01*
X152086240Y-67425263D02*
X151951553Y-67290576D01*
X151951553Y-67290576D02*
X151850538Y-67256905D01*
X151850538Y-67256905D02*
X151783194Y-67256905D01*
X151783194Y-67256905D02*
X151682179Y-67290576D01*
X151682179Y-67290576D02*
X151648507Y-67324248D01*
X151648507Y-67324248D02*
X151614835Y-67425263D01*
X151614835Y-67425263D02*
X151614835Y-67492607D01*
X151614835Y-67492607D02*
X151648507Y-67593622D01*
X151648507Y-67593622D02*
X151783194Y-67728309D01*
X151783194Y-67728309D02*
X151816866Y-67829324D01*
X151816866Y-67829324D02*
X151816866Y-67896668D01*
X151816866Y-67896668D02*
X151783194Y-67997683D01*
X151783194Y-67997683D02*
X151648507Y-68132370D01*
X151648507Y-68132370D02*
X151547492Y-68166042D01*
X151547492Y-68166042D02*
X151480148Y-68166042D01*
X151480148Y-68166042D02*
X151379133Y-68132370D01*
X151379133Y-68132370D02*
X151244446Y-67997683D01*
X151244446Y-67997683D02*
X151210774Y-67896668D01*
X151210774Y-67896668D02*
X151210774Y-67829324D01*
X151210774Y-67829324D02*
X151244446Y-67728309D01*
X151244446Y-67728309D02*
X151379133Y-67593622D01*
X151379133Y-67593622D02*
X151480148Y-67559950D01*
X151480148Y-67559950D02*
X151547492Y-67559950D01*
X151547492Y-67559950D02*
X151648507Y-67593622D01*
%TO.C,C1*%
X179797380Y-63333333D02*
X179845000Y-63285714D01*
X179845000Y-63285714D02*
X179892619Y-63142857D01*
X179892619Y-63142857D02*
X179892619Y-63047619D01*
X179892619Y-63047619D02*
X179845000Y-62904762D01*
X179845000Y-62904762D02*
X179749761Y-62809524D01*
X179749761Y-62809524D02*
X179654523Y-62761905D01*
X179654523Y-62761905D02*
X179464047Y-62714286D01*
X179464047Y-62714286D02*
X179321190Y-62714286D01*
X179321190Y-62714286D02*
X179130714Y-62761905D01*
X179130714Y-62761905D02*
X179035476Y-62809524D01*
X179035476Y-62809524D02*
X178940238Y-62904762D01*
X178940238Y-62904762D02*
X178892619Y-63047619D01*
X178892619Y-63047619D02*
X178892619Y-63142857D01*
X178892619Y-63142857D02*
X178940238Y-63285714D01*
X178940238Y-63285714D02*
X178987857Y-63333333D01*
X179892619Y-64285714D02*
X179892619Y-63714286D01*
X179892619Y-64000000D02*
X178892619Y-64000000D01*
X178892619Y-64000000D02*
X179035476Y-63904762D01*
X179035476Y-63904762D02*
X179130714Y-63809524D01*
X179130714Y-63809524D02*
X179178333Y-63714286D01*
%TO.C,R12*%
X144770526Y-88861389D02*
X144669511Y-88288969D01*
X145174587Y-88457328D02*
X144467480Y-87750221D01*
X144467480Y-87750221D02*
X144198106Y-88019595D01*
X144198106Y-88019595D02*
X144164435Y-88120610D01*
X144164435Y-88120610D02*
X144164435Y-88187954D01*
X144164435Y-88187954D02*
X144198106Y-88288969D01*
X144198106Y-88288969D02*
X144299122Y-88389984D01*
X144299122Y-88389984D02*
X144400137Y-88423656D01*
X144400137Y-88423656D02*
X144467480Y-88423656D01*
X144467480Y-88423656D02*
X144568496Y-88389984D01*
X144568496Y-88389984D02*
X144837870Y-88120610D01*
X144097091Y-89534824D02*
X144501152Y-89130763D01*
X144299122Y-89332793D02*
X143592015Y-88625687D01*
X143592015Y-88625687D02*
X143760374Y-88659358D01*
X143760374Y-88659358D02*
X143895061Y-88659358D01*
X143895061Y-88659358D02*
X143996076Y-88625687D01*
X143187954Y-89164435D02*
X143120610Y-89164435D01*
X143120610Y-89164435D02*
X143019595Y-89198106D01*
X143019595Y-89198106D02*
X142851236Y-89366465D01*
X142851236Y-89366465D02*
X142817565Y-89467480D01*
X142817565Y-89467480D02*
X142817565Y-89534824D01*
X142817565Y-89534824D02*
X142851236Y-89635839D01*
X142851236Y-89635839D02*
X142918580Y-89703183D01*
X142918580Y-89703183D02*
X143053267Y-89770526D01*
X143053267Y-89770526D02*
X143861389Y-89770526D01*
X143861389Y-89770526D02*
X143423656Y-90208259D01*
%TO.C,J14*%
X192325523Y-87390619D02*
X192325523Y-88104904D01*
X192325523Y-88104904D02*
X192373142Y-88247761D01*
X192373142Y-88247761D02*
X192468380Y-88343000D01*
X192468380Y-88343000D02*
X192611237Y-88390619D01*
X192611237Y-88390619D02*
X192706475Y-88390619D01*
X191325523Y-88390619D02*
X191896951Y-88390619D01*
X191611237Y-88390619D02*
X191611237Y-87390619D01*
X191611237Y-87390619D02*
X191706475Y-87533476D01*
X191706475Y-87533476D02*
X191801713Y-87628714D01*
X191801713Y-87628714D02*
X191896951Y-87676333D01*
X190468380Y-87723952D02*
X190468380Y-88390619D01*
X190706475Y-87343000D02*
X190944570Y-88057285D01*
X190944570Y-88057285D02*
X190325523Y-88057285D01*
%TO.C,C2*%
X177297380Y-63333333D02*
X177345000Y-63285714D01*
X177345000Y-63285714D02*
X177392619Y-63142857D01*
X177392619Y-63142857D02*
X177392619Y-63047619D01*
X177392619Y-63047619D02*
X177345000Y-62904762D01*
X177345000Y-62904762D02*
X177249761Y-62809524D01*
X177249761Y-62809524D02*
X177154523Y-62761905D01*
X177154523Y-62761905D02*
X176964047Y-62714286D01*
X176964047Y-62714286D02*
X176821190Y-62714286D01*
X176821190Y-62714286D02*
X176630714Y-62761905D01*
X176630714Y-62761905D02*
X176535476Y-62809524D01*
X176535476Y-62809524D02*
X176440238Y-62904762D01*
X176440238Y-62904762D02*
X176392619Y-63047619D01*
X176392619Y-63047619D02*
X176392619Y-63142857D01*
X176392619Y-63142857D02*
X176440238Y-63285714D01*
X176440238Y-63285714D02*
X176487857Y-63333333D01*
X176487857Y-63714286D02*
X176440238Y-63761905D01*
X176440238Y-63761905D02*
X176392619Y-63857143D01*
X176392619Y-63857143D02*
X176392619Y-64095238D01*
X176392619Y-64095238D02*
X176440238Y-64190476D01*
X176440238Y-64190476D02*
X176487857Y-64238095D01*
X176487857Y-64238095D02*
X176583095Y-64285714D01*
X176583095Y-64285714D02*
X176678333Y-64285714D01*
X176678333Y-64285714D02*
X176821190Y-64238095D01*
X176821190Y-64238095D02*
X177392619Y-63666667D01*
X177392619Y-63666667D02*
X177392619Y-64285714D01*
%TO.C,C21*%
X161183628Y-88725509D02*
X161183628Y-88792852D01*
X161183628Y-88792852D02*
X161250971Y-88927539D01*
X161250971Y-88927539D02*
X161318315Y-88994883D01*
X161318315Y-88994883D02*
X161453002Y-89062226D01*
X161453002Y-89062226D02*
X161587689Y-89062226D01*
X161587689Y-89062226D02*
X161688704Y-89028555D01*
X161688704Y-89028555D02*
X161857063Y-88927539D01*
X161857063Y-88927539D02*
X161958078Y-88826524D01*
X161958078Y-88826524D02*
X162059093Y-88658165D01*
X162059093Y-88658165D02*
X162092765Y-88557150D01*
X162092765Y-88557150D02*
X162092765Y-88422463D01*
X162092765Y-88422463D02*
X162025421Y-88287776D01*
X162025421Y-88287776D02*
X161958078Y-88220432D01*
X161958078Y-88220432D02*
X161823391Y-88153089D01*
X161823391Y-88153089D02*
X161756047Y-88153089D01*
X161486673Y-87883715D02*
X161486673Y-87816371D01*
X161486673Y-87816371D02*
X161453002Y-87715356D01*
X161453002Y-87715356D02*
X161284643Y-87546997D01*
X161284643Y-87546997D02*
X161183628Y-87513326D01*
X161183628Y-87513326D02*
X161116284Y-87513326D01*
X161116284Y-87513326D02*
X161015269Y-87546997D01*
X161015269Y-87546997D02*
X160947925Y-87614341D01*
X160947925Y-87614341D02*
X160880582Y-87749028D01*
X160880582Y-87749028D02*
X160880582Y-88557150D01*
X160880582Y-88557150D02*
X160442849Y-88119417D01*
X159769414Y-87445982D02*
X160173475Y-87850043D01*
X159971445Y-87648013D02*
X160678551Y-86940906D01*
X160678551Y-86940906D02*
X160644880Y-87109265D01*
X160644880Y-87109265D02*
X160644880Y-87243952D01*
X160644880Y-87243952D02*
X160678551Y-87344967D01*
%TO.C,C3*%
X179937380Y-75333333D02*
X179985000Y-75285714D01*
X179985000Y-75285714D02*
X180032619Y-75142857D01*
X180032619Y-75142857D02*
X180032619Y-75047619D01*
X180032619Y-75047619D02*
X179985000Y-74904762D01*
X179985000Y-74904762D02*
X179889761Y-74809524D01*
X179889761Y-74809524D02*
X179794523Y-74761905D01*
X179794523Y-74761905D02*
X179604047Y-74714286D01*
X179604047Y-74714286D02*
X179461190Y-74714286D01*
X179461190Y-74714286D02*
X179270714Y-74761905D01*
X179270714Y-74761905D02*
X179175476Y-74809524D01*
X179175476Y-74809524D02*
X179080238Y-74904762D01*
X179080238Y-74904762D02*
X179032619Y-75047619D01*
X179032619Y-75047619D02*
X179032619Y-75142857D01*
X179032619Y-75142857D02*
X179080238Y-75285714D01*
X179080238Y-75285714D02*
X179127857Y-75333333D01*
X179032619Y-75666667D02*
X179032619Y-76285714D01*
X179032619Y-76285714D02*
X179413571Y-75952381D01*
X179413571Y-75952381D02*
X179413571Y-76095238D01*
X179413571Y-76095238D02*
X179461190Y-76190476D01*
X179461190Y-76190476D02*
X179508809Y-76238095D01*
X179508809Y-76238095D02*
X179604047Y-76285714D01*
X179604047Y-76285714D02*
X179842142Y-76285714D01*
X179842142Y-76285714D02*
X179937380Y-76238095D01*
X179937380Y-76238095D02*
X179985000Y-76190476D01*
X179985000Y-76190476D02*
X180032619Y-76095238D01*
X180032619Y-76095238D02*
X180032619Y-75809524D01*
X180032619Y-75809524D02*
X179985000Y-75714286D01*
X179985000Y-75714286D02*
X179937380Y-75666667D01*
%TO.C,R4*%
X175166666Y-104032619D02*
X175499999Y-103556428D01*
X175738094Y-104032619D02*
X175738094Y-103032619D01*
X175738094Y-103032619D02*
X175357142Y-103032619D01*
X175357142Y-103032619D02*
X175261904Y-103080238D01*
X175261904Y-103080238D02*
X175214285Y-103127857D01*
X175214285Y-103127857D02*
X175166666Y-103223095D01*
X175166666Y-103223095D02*
X175166666Y-103365952D01*
X175166666Y-103365952D02*
X175214285Y-103461190D01*
X175214285Y-103461190D02*
X175261904Y-103508809D01*
X175261904Y-103508809D02*
X175357142Y-103556428D01*
X175357142Y-103556428D02*
X175738094Y-103556428D01*
X174309523Y-103365952D02*
X174309523Y-104032619D01*
X174547618Y-102985000D02*
X174785713Y-103699285D01*
X174785713Y-103699285D02*
X174166666Y-103699285D01*
%TO.C,R13*%
X177532619Y-83357142D02*
X177056428Y-83023809D01*
X177532619Y-82785714D02*
X176532619Y-82785714D01*
X176532619Y-82785714D02*
X176532619Y-83166666D01*
X176532619Y-83166666D02*
X176580238Y-83261904D01*
X176580238Y-83261904D02*
X176627857Y-83309523D01*
X176627857Y-83309523D02*
X176723095Y-83357142D01*
X176723095Y-83357142D02*
X176865952Y-83357142D01*
X176865952Y-83357142D02*
X176961190Y-83309523D01*
X176961190Y-83309523D02*
X177008809Y-83261904D01*
X177008809Y-83261904D02*
X177056428Y-83166666D01*
X177056428Y-83166666D02*
X177056428Y-82785714D01*
X177532619Y-84309523D02*
X177532619Y-83738095D01*
X177532619Y-84023809D02*
X176532619Y-84023809D01*
X176532619Y-84023809D02*
X176675476Y-83928571D01*
X176675476Y-83928571D02*
X176770714Y-83833333D01*
X176770714Y-83833333D02*
X176818333Y-83738095D01*
X176532619Y-84642857D02*
X176532619Y-85261904D01*
X176532619Y-85261904D02*
X176913571Y-84928571D01*
X176913571Y-84928571D02*
X176913571Y-85071428D01*
X176913571Y-85071428D02*
X176961190Y-85166666D01*
X176961190Y-85166666D02*
X177008809Y-85214285D01*
X177008809Y-85214285D02*
X177104047Y-85261904D01*
X177104047Y-85261904D02*
X177342142Y-85261904D01*
X177342142Y-85261904D02*
X177437380Y-85214285D01*
X177437380Y-85214285D02*
X177485000Y-85166666D01*
X177485000Y-85166666D02*
X177532619Y-85071428D01*
X177532619Y-85071428D02*
X177532619Y-84785714D01*
X177532619Y-84785714D02*
X177485000Y-84690476D01*
X177485000Y-84690476D02*
X177437380Y-84642857D01*
%TO.C,Q3*%
X143854501Y-93037544D02*
X143955517Y-93071215D01*
X143955517Y-93071215D02*
X144090204Y-93071215D01*
X144090204Y-93071215D02*
X144292234Y-93071215D01*
X144292234Y-93071215D02*
X144393249Y-93104887D01*
X144393249Y-93104887D02*
X144460593Y-93172231D01*
X144258562Y-93306918D02*
X144359578Y-93340589D01*
X144359578Y-93340589D02*
X144494265Y-93340589D01*
X144494265Y-93340589D02*
X144662623Y-93239574D01*
X144662623Y-93239574D02*
X144898326Y-93003872D01*
X144898326Y-93003872D02*
X144999341Y-92835513D01*
X144999341Y-92835513D02*
X144999341Y-92700826D01*
X144999341Y-92700826D02*
X144965669Y-92599811D01*
X144965669Y-92599811D02*
X144830982Y-92465124D01*
X144830982Y-92465124D02*
X144729967Y-92431452D01*
X144729967Y-92431452D02*
X144595280Y-92431452D01*
X144595280Y-92431452D02*
X144426921Y-92532467D01*
X144426921Y-92532467D02*
X144191219Y-92768170D01*
X144191219Y-92768170D02*
X144090204Y-92936528D01*
X144090204Y-92936528D02*
X144090204Y-93071215D01*
X144090204Y-93071215D02*
X144123875Y-93172231D01*
X144123875Y-93172231D02*
X144258562Y-93306918D01*
X144426921Y-92061063D02*
X143989188Y-91623330D01*
X143989188Y-91623330D02*
X143955517Y-92128406D01*
X143955517Y-92128406D02*
X143854501Y-92027391D01*
X143854501Y-92027391D02*
X143753486Y-91993719D01*
X143753486Y-91993719D02*
X143686143Y-91993719D01*
X143686143Y-91993719D02*
X143585127Y-92027391D01*
X143585127Y-92027391D02*
X143416769Y-92195750D01*
X143416769Y-92195750D02*
X143383097Y-92296765D01*
X143383097Y-92296765D02*
X143383097Y-92364109D01*
X143383097Y-92364109D02*
X143416769Y-92465124D01*
X143416769Y-92465124D02*
X143618799Y-92667154D01*
X143618799Y-92667154D02*
X143719814Y-92700826D01*
X143719814Y-92700826D02*
X143787158Y-92700826D01*
%TO.C,R6*%
X157032619Y-60070591D02*
X156556428Y-59737258D01*
X157032619Y-59499163D02*
X156032619Y-59499163D01*
X156032619Y-59499163D02*
X156032619Y-59880115D01*
X156032619Y-59880115D02*
X156080238Y-59975353D01*
X156080238Y-59975353D02*
X156127857Y-60022972D01*
X156127857Y-60022972D02*
X156223095Y-60070591D01*
X156223095Y-60070591D02*
X156365952Y-60070591D01*
X156365952Y-60070591D02*
X156461190Y-60022972D01*
X156461190Y-60022972D02*
X156508809Y-59975353D01*
X156508809Y-59975353D02*
X156556428Y-59880115D01*
X156556428Y-59880115D02*
X156556428Y-59499163D01*
X156032619Y-60927734D02*
X156032619Y-60737258D01*
X156032619Y-60737258D02*
X156080238Y-60642020D01*
X156080238Y-60642020D02*
X156127857Y-60594401D01*
X156127857Y-60594401D02*
X156270714Y-60499163D01*
X156270714Y-60499163D02*
X156461190Y-60451544D01*
X156461190Y-60451544D02*
X156842142Y-60451544D01*
X156842142Y-60451544D02*
X156937380Y-60499163D01*
X156937380Y-60499163D02*
X156985000Y-60546782D01*
X156985000Y-60546782D02*
X157032619Y-60642020D01*
X157032619Y-60642020D02*
X157032619Y-60832496D01*
X157032619Y-60832496D02*
X156985000Y-60927734D01*
X156985000Y-60927734D02*
X156937380Y-60975353D01*
X156937380Y-60975353D02*
X156842142Y-61022972D01*
X156842142Y-61022972D02*
X156604047Y-61022972D01*
X156604047Y-61022972D02*
X156508809Y-60975353D01*
X156508809Y-60975353D02*
X156461190Y-60927734D01*
X156461190Y-60927734D02*
X156413571Y-60832496D01*
X156413571Y-60832496D02*
X156413571Y-60642020D01*
X156413571Y-60642020D02*
X156461190Y-60546782D01*
X156461190Y-60546782D02*
X156508809Y-60499163D01*
X156508809Y-60499163D02*
X156604047Y-60451544D01*
%TO.C,C22*%
X147705954Y-73203183D02*
X147705954Y-73270526D01*
X147705954Y-73270526D02*
X147773297Y-73405213D01*
X147773297Y-73405213D02*
X147840641Y-73472557D01*
X147840641Y-73472557D02*
X147975328Y-73539900D01*
X147975328Y-73539900D02*
X148110015Y-73539900D01*
X148110015Y-73539900D02*
X148211030Y-73506229D01*
X148211030Y-73506229D02*
X148379389Y-73405213D01*
X148379389Y-73405213D02*
X148480404Y-73304198D01*
X148480404Y-73304198D02*
X148581419Y-73135839D01*
X148581419Y-73135839D02*
X148615091Y-73034824D01*
X148615091Y-73034824D02*
X148615091Y-72900137D01*
X148615091Y-72900137D02*
X148547747Y-72765450D01*
X148547747Y-72765450D02*
X148480404Y-72698106D01*
X148480404Y-72698106D02*
X148345717Y-72630763D01*
X148345717Y-72630763D02*
X148278373Y-72630763D01*
X148008999Y-72361389D02*
X148008999Y-72294045D01*
X148008999Y-72294045D02*
X147975328Y-72193030D01*
X147975328Y-72193030D02*
X147806969Y-72024671D01*
X147806969Y-72024671D02*
X147705954Y-71991000D01*
X147705954Y-71991000D02*
X147638610Y-71991000D01*
X147638610Y-71991000D02*
X147537595Y-72024671D01*
X147537595Y-72024671D02*
X147470251Y-72092015D01*
X147470251Y-72092015D02*
X147402908Y-72226702D01*
X147402908Y-72226702D02*
X147402908Y-73034824D01*
X147402908Y-73034824D02*
X146965175Y-72597091D01*
X147335564Y-71687954D02*
X147335564Y-71620610D01*
X147335564Y-71620610D02*
X147301893Y-71519595D01*
X147301893Y-71519595D02*
X147133534Y-71351236D01*
X147133534Y-71351236D02*
X147032519Y-71317565D01*
X147032519Y-71317565D02*
X146965175Y-71317565D01*
X146965175Y-71317565D02*
X146864160Y-71351236D01*
X146864160Y-71351236D02*
X146796816Y-71418580D01*
X146796816Y-71418580D02*
X146729473Y-71553267D01*
X146729473Y-71553267D02*
X146729473Y-72361389D01*
X146729473Y-72361389D02*
X146291740Y-71923656D01*
%TO.C,R10*%
X178892619Y-72357142D02*
X178416428Y-72023809D01*
X178892619Y-71785714D02*
X177892619Y-71785714D01*
X177892619Y-71785714D02*
X177892619Y-72166666D01*
X177892619Y-72166666D02*
X177940238Y-72261904D01*
X177940238Y-72261904D02*
X177987857Y-72309523D01*
X177987857Y-72309523D02*
X178083095Y-72357142D01*
X178083095Y-72357142D02*
X178225952Y-72357142D01*
X178225952Y-72357142D02*
X178321190Y-72309523D01*
X178321190Y-72309523D02*
X178368809Y-72261904D01*
X178368809Y-72261904D02*
X178416428Y-72166666D01*
X178416428Y-72166666D02*
X178416428Y-71785714D01*
X178892619Y-73309523D02*
X178892619Y-72738095D01*
X178892619Y-73023809D02*
X177892619Y-73023809D01*
X177892619Y-73023809D02*
X178035476Y-72928571D01*
X178035476Y-72928571D02*
X178130714Y-72833333D01*
X178130714Y-72833333D02*
X178178333Y-72738095D01*
X177892619Y-73928571D02*
X177892619Y-74023809D01*
X177892619Y-74023809D02*
X177940238Y-74119047D01*
X177940238Y-74119047D02*
X177987857Y-74166666D01*
X177987857Y-74166666D02*
X178083095Y-74214285D01*
X178083095Y-74214285D02*
X178273571Y-74261904D01*
X178273571Y-74261904D02*
X178511666Y-74261904D01*
X178511666Y-74261904D02*
X178702142Y-74214285D01*
X178702142Y-74214285D02*
X178797380Y-74166666D01*
X178797380Y-74166666D02*
X178845000Y-74119047D01*
X178845000Y-74119047D02*
X178892619Y-74023809D01*
X178892619Y-74023809D02*
X178892619Y-73928571D01*
X178892619Y-73928571D02*
X178845000Y-73833333D01*
X178845000Y-73833333D02*
X178797380Y-73785714D01*
X178797380Y-73785714D02*
X178702142Y-73738095D01*
X178702142Y-73738095D02*
X178511666Y-73690476D01*
X178511666Y-73690476D02*
X178273571Y-73690476D01*
X178273571Y-73690476D02*
X178083095Y-73738095D01*
X178083095Y-73738095D02*
X177987857Y-73785714D01*
X177987857Y-73785714D02*
X177940238Y-73833333D01*
X177940238Y-73833333D02*
X177892619Y-73928571D01*
%TO.C,C20*%
X151023973Y-70642523D02*
X151023973Y-70709866D01*
X151023973Y-70709866D02*
X151091316Y-70844553D01*
X151091316Y-70844553D02*
X151158660Y-70911897D01*
X151158660Y-70911897D02*
X151293347Y-70979240D01*
X151293347Y-70979240D02*
X151428034Y-70979240D01*
X151428034Y-70979240D02*
X151529049Y-70945569D01*
X151529049Y-70945569D02*
X151697408Y-70844553D01*
X151697408Y-70844553D02*
X151798423Y-70743538D01*
X151798423Y-70743538D02*
X151899438Y-70575179D01*
X151899438Y-70575179D02*
X151933110Y-70474164D01*
X151933110Y-70474164D02*
X151933110Y-70339477D01*
X151933110Y-70339477D02*
X151865766Y-70204790D01*
X151865766Y-70204790D02*
X151798423Y-70137446D01*
X151798423Y-70137446D02*
X151663736Y-70070103D01*
X151663736Y-70070103D02*
X151596392Y-70070103D01*
X151327018Y-69800729D02*
X151327018Y-69733385D01*
X151327018Y-69733385D02*
X151293347Y-69632370D01*
X151293347Y-69632370D02*
X151124988Y-69464011D01*
X151124988Y-69464011D02*
X151023973Y-69430340D01*
X151023973Y-69430340D02*
X150956629Y-69430340D01*
X150956629Y-69430340D02*
X150855614Y-69464011D01*
X150855614Y-69464011D02*
X150788270Y-69531355D01*
X150788270Y-69531355D02*
X150720927Y-69666042D01*
X150720927Y-69666042D02*
X150720927Y-70474164D01*
X150720927Y-70474164D02*
X150283194Y-70036431D01*
X150552568Y-68891592D02*
X150485225Y-68824248D01*
X150485225Y-68824248D02*
X150384209Y-68790576D01*
X150384209Y-68790576D02*
X150316866Y-68790576D01*
X150316866Y-68790576D02*
X150215851Y-68824248D01*
X150215851Y-68824248D02*
X150047492Y-68925263D01*
X150047492Y-68925263D02*
X149879133Y-69093622D01*
X149879133Y-69093622D02*
X149778118Y-69261981D01*
X149778118Y-69261981D02*
X149744446Y-69362996D01*
X149744446Y-69362996D02*
X149744446Y-69430340D01*
X149744446Y-69430340D02*
X149778118Y-69531355D01*
X149778118Y-69531355D02*
X149845461Y-69598698D01*
X149845461Y-69598698D02*
X149946477Y-69632370D01*
X149946477Y-69632370D02*
X150013820Y-69632370D01*
X150013820Y-69632370D02*
X150114835Y-69598698D01*
X150114835Y-69598698D02*
X150283194Y-69497683D01*
X150283194Y-69497683D02*
X150451553Y-69329324D01*
X150451553Y-69329324D02*
X150552568Y-69160966D01*
X150552568Y-69160966D02*
X150586240Y-69059950D01*
X150586240Y-69059950D02*
X150586240Y-68992607D01*
X150586240Y-68992607D02*
X150552568Y-68891592D01*
%TO.C,R5*%
X175166666Y-101032619D02*
X175499999Y-100556428D01*
X175738094Y-101032619D02*
X175738094Y-100032619D01*
X175738094Y-100032619D02*
X175357142Y-100032619D01*
X175357142Y-100032619D02*
X175261904Y-100080238D01*
X175261904Y-100080238D02*
X175214285Y-100127857D01*
X175214285Y-100127857D02*
X175166666Y-100223095D01*
X175166666Y-100223095D02*
X175166666Y-100365952D01*
X175166666Y-100365952D02*
X175214285Y-100461190D01*
X175214285Y-100461190D02*
X175261904Y-100508809D01*
X175261904Y-100508809D02*
X175357142Y-100556428D01*
X175357142Y-100556428D02*
X175738094Y-100556428D01*
X174261904Y-100032619D02*
X174738094Y-100032619D01*
X174738094Y-100032619D02*
X174785713Y-100508809D01*
X174785713Y-100508809D02*
X174738094Y-100461190D01*
X174738094Y-100461190D02*
X174642856Y-100413571D01*
X174642856Y-100413571D02*
X174404761Y-100413571D01*
X174404761Y-100413571D02*
X174309523Y-100461190D01*
X174309523Y-100461190D02*
X174261904Y-100508809D01*
X174261904Y-100508809D02*
X174214285Y-100604047D01*
X174214285Y-100604047D02*
X174214285Y-100842142D01*
X174214285Y-100842142D02*
X174261904Y-100937380D01*
X174261904Y-100937380D02*
X174309523Y-100985000D01*
X174309523Y-100985000D02*
X174404761Y-101032619D01*
X174404761Y-101032619D02*
X174642856Y-101032619D01*
X174642856Y-101032619D02*
X174738094Y-100985000D01*
X174738094Y-100985000D02*
X174785713Y-100937380D01*
D11*
%TO.C,J5*%
X162390000Y-121390000D02*
X157610000Y-121390000D01*
X162390000Y-122610000D02*
X157610000Y-122610000D01*
X162390000Y-124990000D02*
X157610000Y-124990000D01*
X162390000Y-126210000D02*
X157610000Y-126210000D01*
%TO.C,Y1*%
X150419060Y-88247487D02*
X153247487Y-85419060D01*
X152752513Y-90580940D02*
X150419060Y-88247487D01*
%TO.C,C5*%
X169490000Y-60140580D02*
X169490000Y-59859420D01*
X170510000Y-60140580D02*
X170510000Y-59859420D01*
%TO.C,J13*%
X209215922Y-117450671D02*
X207018308Y-122163471D01*
X190690991Y-108812354D02*
X209215922Y-117450671D01*
X190690991Y-108812354D02*
X189592184Y-111168754D01*
X191948584Y-112267561D02*
X190849777Y-114623962D01*
X189592184Y-111168754D02*
X191948584Y-112267561D01*
X189055459Y-112319765D02*
X188493376Y-113525154D01*
X190849777Y-114623962D02*
X207018308Y-122163471D01*
X188493376Y-113525154D02*
X189698766Y-114087236D01*
%TO.C,R16*%
X161537230Y-72201697D02*
X161201697Y-72537230D01*
X160798303Y-71462770D02*
X160462770Y-71798303D01*
%TO.C,U6*%
X171900000Y-78900000D02*
X171900000Y-81100000D01*
X174100000Y-78900000D02*
X174100000Y-81900000D01*
%TO.C,R2*%
X181522500Y-57762742D02*
X181522500Y-58237258D01*
X180477500Y-57762742D02*
X180477500Y-58237258D01*
%TO.C,R8*%
X157477500Y-64237258D02*
X157477500Y-63762742D01*
X158522500Y-64237258D02*
X158522500Y-63762742D01*
%TO.C,J22*%
X263825922Y-117450671D02*
X261628308Y-122163471D01*
X245300991Y-108812354D02*
X263825922Y-117450671D01*
X245300991Y-108812354D02*
X244202184Y-111168754D01*
X246558584Y-112267561D02*
X245459777Y-114623962D01*
X244202184Y-111168754D02*
X246558584Y-112267561D01*
X243665459Y-112319765D02*
X243103376Y-113525154D01*
X245459777Y-114623962D02*
X261628308Y-122163471D01*
X243103376Y-113525154D02*
X244308766Y-114087236D01*
%TO.C,J19*%
X217995991Y-53747646D02*
X215798376Y-49034846D01*
X236520922Y-45109329D02*
X217995991Y-53747646D01*
X236520922Y-45109329D02*
X235422115Y-42752929D01*
X233065714Y-43851736D02*
X231966907Y-41495336D01*
X235422115Y-42752929D02*
X233065714Y-43851736D01*
X234885389Y-41601918D02*
X234323307Y-40396528D01*
X231966907Y-41495336D02*
X215798376Y-49034846D01*
X234323307Y-40396528D02*
X233117918Y-40958611D01*
%TO.C,Q2*%
X172440000Y-66000000D02*
X172440000Y-66650000D01*
X172440000Y-66000000D02*
X172440000Y-65350000D01*
X175560000Y-66000000D02*
X175560000Y-67675000D01*
X175560000Y-66000000D02*
X175560000Y-65350000D01*
%TO.C,FB1*%
X170162779Y-71510000D02*
X169837221Y-71510000D01*
X170162779Y-70490000D02*
X169837221Y-70490000D01*
%TO.C,C15*%
X148460030Y-83261219D02*
X148261219Y-83460030D01*
X147738781Y-82539970D02*
X147539970Y-82738781D01*
%TO.C,C8*%
X185490000Y-98140580D02*
X185490000Y-97859420D01*
X186510000Y-98140580D02*
X186510000Y-97859420D01*
%TO.C,C19*%
X164539970Y-73738781D02*
X164738781Y-73539970D01*
X165261219Y-74460030D02*
X165460030Y-74261219D01*
%TO.C,C13*%
X166539970Y-74738781D02*
X166738781Y-74539970D01*
X167261219Y-75460030D02*
X167460030Y-75261219D01*
%TO.C,C14*%
X159039970Y-70238781D02*
X159238781Y-70039970D01*
X159761219Y-70960030D02*
X159960030Y-70761219D01*
%TO.C,J23*%
X245300991Y-53747646D02*
X243103376Y-49034846D01*
X263825922Y-45109329D02*
X245300991Y-53747646D01*
X263825922Y-45109329D02*
X262727115Y-42752929D01*
X260370714Y-43851736D02*
X259271907Y-41495336D01*
X262727115Y-42752929D02*
X260370714Y-43851736D01*
X262190389Y-41601918D02*
X261628307Y-40396528D01*
X259271907Y-41495336D02*
X243103376Y-49034846D01*
X261628307Y-40396528D02*
X260422918Y-40958611D01*
%TO.C,C7*%
X171510000Y-67859420D02*
X171510000Y-68140580D01*
X170490000Y-67859420D02*
X170490000Y-68140580D01*
%TO.C,U3*%
X162440000Y-68000000D02*
X162440000Y-68800000D01*
X162440000Y-68000000D02*
X162440000Y-67200000D01*
X165560000Y-68000000D02*
X165560000Y-69800000D01*
X165560000Y-68000000D02*
X165560000Y-67200000D01*
%TO.C,R7*%
X169477500Y-64237258D02*
X169477500Y-63762742D01*
X170522500Y-64237258D02*
X170522500Y-63762742D01*
%TO.C,C16*%
X166261219Y-82539970D02*
X166460030Y-82738781D01*
X165539970Y-83261219D02*
X165738781Y-83460030D01*
%TO.C,J21*%
X169330000Y-97670000D02*
X169330000Y-100330000D01*
X166730000Y-97670000D02*
X169330000Y-97670000D01*
X166730000Y-97670000D02*
X166730000Y-100330000D01*
X165460000Y-97670000D02*
X164130000Y-97670000D01*
X164130000Y-97670000D02*
X164130000Y-99000000D01*
X166730000Y-100330000D02*
X169330000Y-100330000D01*
%TO.C,J11*%
X181910922Y-117450671D02*
X179713308Y-122163471D01*
X163385991Y-108812354D02*
X181910922Y-117450671D01*
X163385991Y-108812354D02*
X162287184Y-111168754D01*
X164643584Y-112267561D02*
X163544777Y-114623962D01*
X162287184Y-111168754D02*
X164643584Y-112267561D01*
X161750459Y-112319765D02*
X161188376Y-113525154D01*
X163544777Y-114623962D02*
X179713308Y-122163471D01*
X161188376Y-113525154D02*
X162393766Y-114087236D01*
%TO.C,C11*%
X155460030Y-90261219D02*
X155261219Y-90460030D01*
X154738781Y-89539970D02*
X154539970Y-89738781D01*
%TO.C,U5*%
X157000000Y-85105311D02*
X157459619Y-84645692D01*
X156540381Y-84645692D02*
X157000000Y-85105311D01*
X161645692Y-79540381D02*
X162105311Y-80000000D01*
X152354308Y-80459619D02*
X151894689Y-80000000D01*
X157459619Y-75354308D02*
X157000000Y-74894689D01*
X151894689Y-80000000D02*
X152354308Y-79540381D01*
X157000000Y-74894689D02*
X156540381Y-75354308D01*
%TO.C,C10*%
X177859420Y-77490000D02*
X178140580Y-77490000D01*
X177859420Y-78510000D02*
X178140580Y-78510000D01*
%TO.C,R3*%
X175237258Y-108522500D02*
X174762742Y-108522500D01*
X175237258Y-107477500D02*
X174762742Y-107477500D01*
%TO.C,C6*%
X166490000Y-68140580D02*
X166490000Y-67859420D01*
X167510000Y-68140580D02*
X167510000Y-67859420D01*
%TO.C,R11*%
X150462770Y-95798303D02*
X150798303Y-95462770D01*
X151201697Y-96537230D02*
X151537230Y-96201697D01*
%TO.C,R17*%
X150462770Y-85798303D02*
X150798303Y-85462770D01*
X151201697Y-86537230D02*
X151537230Y-86201697D01*
%TO.C,J18*%
X236520922Y-117450671D02*
X234323308Y-122163471D01*
X217995991Y-108812354D02*
X236520922Y-117450671D01*
X217995991Y-108812354D02*
X216897184Y-111168754D01*
X219253584Y-112267561D02*
X218154777Y-114623962D01*
X216897184Y-111168754D02*
X219253584Y-112267561D01*
X216360459Y-112319765D02*
X215798376Y-113525154D01*
X218154777Y-114623962D02*
X234323308Y-122163471D01*
X215798376Y-113525154D02*
X217003766Y-114087236D01*
%TO.C,U4*%
X170275000Y-82725000D02*
X170535000Y-82725000D01*
X175465000Y-82725000D02*
X175465000Y-84400000D01*
X175725000Y-82725000D02*
X175465000Y-82725000D01*
X170275000Y-80000000D02*
X170275000Y-82725000D01*
X170275000Y-80000000D02*
X170275000Y-77275000D01*
X175725000Y-80000000D02*
X175725000Y-82725000D01*
X175725000Y-80000000D02*
X175725000Y-77275000D01*
X170275000Y-77275000D02*
X170535000Y-77275000D01*
X175725000Y-77275000D02*
X175465000Y-77275000D01*
%TO.C,U1*%
X180900000Y-71410000D02*
X186910000Y-71410000D01*
X183150000Y-64590000D02*
X186910000Y-64590000D01*
X186910000Y-64590000D02*
X186910000Y-65850000D01*
X186910000Y-71410000D02*
X186910000Y-70150000D01*
%TO.C,J12*%
X163385991Y-53747646D02*
X161188376Y-49034846D01*
X181910922Y-45109329D02*
X163385991Y-53747646D01*
X181910922Y-45109329D02*
X180812115Y-42752929D01*
X178455714Y-43851736D02*
X177356907Y-41495336D01*
X180812115Y-42752929D02*
X178455714Y-43851736D01*
X180275389Y-41601918D02*
X179713307Y-40396528D01*
X177356907Y-41495336D02*
X161188376Y-49034846D01*
X179713307Y-40396528D02*
X178507918Y-40958611D01*
%TO.C,Q1*%
X174000000Y-71560000D02*
X174750000Y-71560000D01*
X174000000Y-71560000D02*
X173250000Y-71560000D01*
X174000000Y-68440000D02*
X175850000Y-68440000D01*
X174000000Y-68440000D02*
X173250000Y-68440000D01*
%TO.C,J15*%
X199450000Y-85785000D02*
X196790000Y-85785000D01*
X199450000Y-78105000D02*
X199450000Y-85785000D01*
X199450000Y-78105000D02*
X196790000Y-78105000D01*
X199450000Y-76835000D02*
X199450000Y-75505000D01*
X199450000Y-75505000D02*
X198120000Y-75505000D01*
X196790000Y-78105000D02*
X196790000Y-85785000D01*
%TO.C,R14*%
X179522500Y-80762742D02*
X179522500Y-81237258D01*
X178477500Y-80762742D02*
X178477500Y-81237258D01*
%TO.C,C17*%
X149960030Y-84761219D02*
X149761219Y-84960030D01*
X149238781Y-84039970D02*
X149039970Y-84238781D01*
%TO.C,C12*%
X150761219Y-90039970D02*
X150960030Y-90238781D01*
X150039970Y-90761219D02*
X150238781Y-90960030D01*
%TO.C,R15*%
X161962770Y-73298303D02*
X162298303Y-72962770D01*
X162701697Y-74037230D02*
X163037230Y-73701697D01*
%TO.C,C9*%
X183490000Y-98140580D02*
X183490000Y-97859420D01*
X184510000Y-98140580D02*
X184510000Y-97859420D01*
%TO.C,F1*%
X169522500Y-67762742D02*
X169522500Y-68237258D01*
X168477500Y-67762742D02*
X168477500Y-68237258D01*
%TO.C,Q4*%
X146103087Y-97103087D02*
X146562706Y-96643467D01*
X146103087Y-97103087D02*
X145643467Y-97562706D01*
X143896913Y-94896913D02*
X145081317Y-93712510D01*
X143896913Y-94896913D02*
X143437294Y-95356533D01*
%TO.C,R1*%
X178522500Y-57762742D02*
X178522500Y-58237258D01*
X177477500Y-57762742D02*
X177477500Y-58237258D01*
%TO.C,C4*%
X183510000Y-73859420D02*
X183510000Y-74140580D01*
X182490000Y-73859420D02*
X182490000Y-74140580D01*
%TO.C,J20*%
X181670000Y-95825000D02*
X181670000Y-98485000D01*
X179070000Y-95825000D02*
X181670000Y-95825000D01*
X179070000Y-95825000D02*
X179070000Y-98485000D01*
X177800000Y-95825000D02*
X176470000Y-95825000D01*
X176470000Y-95825000D02*
X176470000Y-97155000D01*
X179070000Y-98485000D02*
X181670000Y-98485000D01*
%TO.C,R9*%
X177522500Y-69762742D02*
X177522500Y-70237258D01*
X176477500Y-69762742D02*
X176477500Y-70237258D01*
%TO.C,J16*%
X190690991Y-53747646D02*
X188493376Y-49034846D01*
X209215922Y-45109329D02*
X190690991Y-53747646D01*
X209215922Y-45109329D02*
X208117115Y-42752929D01*
X205760714Y-43851736D02*
X204661907Y-41495336D01*
X208117115Y-42752929D02*
X205760714Y-43851736D01*
X207580389Y-41601918D02*
X207018307Y-40396528D01*
X204661907Y-41495336D02*
X188493376Y-49034846D01*
X207018307Y-40396528D02*
X205812918Y-40958611D01*
%TO.C,C18*%
X154238781Y-70960030D02*
X154039970Y-70761219D01*
X154960030Y-70238781D02*
X154761219Y-70039970D01*
%TO.C,C1*%
X178490000Y-66140580D02*
X178490000Y-65859420D01*
X179510000Y-66140580D02*
X179510000Y-65859420D01*
%TO.C,R12*%
X145537230Y-90201697D02*
X145201697Y-90537230D01*
X144798303Y-89462770D02*
X144462770Y-89798303D01*
%TO.C,J14*%
X190186000Y-76648000D02*
X192846000Y-76648000D01*
X190186000Y-84328000D02*
X190186000Y-76648000D01*
X190186000Y-84328000D02*
X192846000Y-84328000D01*
X190186000Y-85598000D02*
X190186000Y-86928000D01*
X190186000Y-86928000D02*
X191516000Y-86928000D01*
X192846000Y-84328000D02*
X192846000Y-76648000D01*
%TO.C,C2*%
X176490000Y-66140580D02*
X176490000Y-65859420D01*
X177510000Y-66140580D02*
X177510000Y-65859420D01*
%TO.C,C21*%
X162261219Y-86539970D02*
X162460030Y-86738781D01*
X161539970Y-87261219D02*
X161738781Y-87460030D01*
%TO.C,C3*%
X181510000Y-73859420D02*
X181510000Y-74140580D01*
X180490000Y-73859420D02*
X180490000Y-74140580D01*
%TO.C,R4*%
X175237258Y-105522500D02*
X174762742Y-105522500D01*
X175237258Y-104477500D02*
X174762742Y-104477500D01*
%TO.C,R13*%
X177522500Y-80762742D02*
X177522500Y-81237258D01*
X176477500Y-80762742D02*
X176477500Y-81237258D01*
%TO.C,Q3*%
X149103087Y-91896913D02*
X148572756Y-91366583D01*
X149103087Y-91896913D02*
X149633417Y-92427244D01*
X146896913Y-94103087D02*
X145588766Y-92794939D01*
X146896913Y-94103087D02*
X147427244Y-94633417D01*
%TO.C,R6*%
X158522500Y-59762742D02*
X158522500Y-60237258D01*
X157477500Y-59762742D02*
X157477500Y-60237258D01*
%TO.C,C22*%
X149738781Y-75460030D02*
X149539970Y-75261219D01*
X150460030Y-74738781D02*
X150261219Y-74539970D01*
%TO.C,R10*%
X178477500Y-70237258D02*
X178477500Y-69762742D01*
X179522500Y-70237258D02*
X179522500Y-69762742D01*
%TO.C,kibuzzard-63D6B79B*%
G36*
X159216103Y-110224104D02*
G01*
X159116005Y-110342971D01*
X159000266Y-110288229D01*
X158956473Y-110131825D01*
X159039367Y-109930064D01*
X159216103Y-109829966D01*
X159216103Y-110224104D01*
G37*
G36*
X154973067Y-108253962D02*
G01*
X154903217Y-108438112D01*
X154693667Y-108530187D01*
X154482530Y-108438112D01*
X154411092Y-108247612D01*
X154411092Y-107847562D01*
X154973067Y-107847562D01*
X154973067Y-108253962D01*
G37*
G36*
X154973067Y-110251037D02*
G01*
X154903217Y-110438362D01*
X154693667Y-110530437D01*
X154482530Y-110438362D01*
X154411092Y-110247862D01*
X154411092Y-109850987D01*
X154973067Y-109850987D01*
X154973067Y-110251037D01*
G37*
G36*
X159450709Y-113048759D02*
G01*
X159546115Y-113123833D01*
X159622753Y-113327158D01*
X159544551Y-113533611D01*
X159447581Y-113611031D01*
X159313074Y-113636838D01*
X159179348Y-113612595D01*
X159084724Y-113539867D01*
X159009650Y-113330286D01*
X159087852Y-113120705D01*
X159184431Y-113047977D01*
X159317766Y-113023734D01*
X159450709Y-113048759D01*
G37*
G36*
X155295826Y-113763579D02*
G01*
X155495752Y-113823705D01*
X155615707Y-113923916D01*
X155655692Y-114064212D01*
X155616799Y-114207285D01*
X155500117Y-114309480D01*
X155305649Y-114370797D01*
X155033392Y-114391237D01*
X155014342Y-114391237D01*
X154735141Y-114370996D01*
X154535711Y-114310274D01*
X154416053Y-114209071D01*
X154376167Y-114067387D01*
X154416153Y-113925702D01*
X154536108Y-113824499D01*
X154736034Y-113763777D01*
X155015930Y-113743537D01*
X155295826Y-113763579D01*
G37*
G36*
X155295826Y-117573579D02*
G01*
X155495752Y-117633705D01*
X155615707Y-117733916D01*
X155655692Y-117874212D01*
X155616799Y-118017285D01*
X155500117Y-118119480D01*
X155305649Y-118180797D01*
X155033392Y-118201237D01*
X155014342Y-118201237D01*
X154735141Y-118180996D01*
X154535711Y-118120274D01*
X154416053Y-118019071D01*
X154376167Y-117877387D01*
X154416153Y-117735702D01*
X154536108Y-117634499D01*
X154736034Y-117573777D01*
X155015930Y-117553537D01*
X155295826Y-117573579D01*
G37*
G36*
X160847266Y-108813340D02*
G01*
X160847266Y-110136518D01*
X160847266Y-111359596D01*
X160847266Y-113330286D01*
X160847266Y-116508962D01*
X160847266Y-117880562D01*
X160847266Y-118763212D01*
X160847266Y-119424670D01*
X153152734Y-121733029D01*
X153152734Y-119424670D01*
X153152734Y-118763212D01*
X153152734Y-117877387D01*
X153814192Y-117877387D01*
X153835624Y-118082571D01*
X153899917Y-118259974D01*
X153995961Y-118406024D01*
X154112642Y-118517149D01*
X154250755Y-118601683D01*
X154411092Y-118667962D01*
X154605473Y-118720878D01*
X154807615Y-118752628D01*
X155017517Y-118763212D01*
X155289972Y-118747733D01*
X155532661Y-118701299D01*
X155745585Y-118623908D01*
X155928742Y-118515562D01*
X156044630Y-118405627D01*
X156138292Y-118259974D01*
X156200205Y-118083365D01*
X156220842Y-117880562D01*
X156199808Y-117676965D01*
X156136705Y-117497974D01*
X156042646Y-117349543D01*
X155928742Y-117237624D01*
X155793011Y-117152296D01*
X155633467Y-117083637D01*
X155443320Y-117032484D01*
X155236945Y-117001792D01*
X155014342Y-116991562D01*
X154812906Y-116999852D01*
X154631931Y-117024723D01*
X154471417Y-117066174D01*
X154270202Y-117145152D01*
X154117405Y-117232862D01*
X153999136Y-117343590D01*
X153901505Y-117491624D01*
X153836021Y-117671408D01*
X153814192Y-117877387D01*
X153152734Y-117877387D01*
X153152734Y-115553287D01*
X153836417Y-115553287D01*
X153858642Y-115699337D01*
X153939605Y-115866024D01*
X154061842Y-115921587D01*
X154195192Y-115899362D01*
X154204717Y-115896187D01*
X154979417Y-115702512D01*
X154979417Y-116220037D01*
X154112642Y-116220037D01*
X154004692Y-116224799D01*
X153925317Y-116254962D01*
X153863405Y-116342274D01*
X153845942Y-116504199D01*
X153866580Y-116664537D01*
X153933255Y-116750262D01*
X154017392Y-116780424D01*
X154128517Y-116785187D01*
X155893817Y-116785187D01*
X156076380Y-116755024D01*
X156154167Y-116662949D01*
X156173217Y-116508962D01*
X156157342Y-116362912D01*
X156119242Y-116280362D01*
X156055742Y-116239087D01*
X155890642Y-116220037D01*
X155503292Y-116220037D01*
X155503292Y-115359612D01*
X155473130Y-115182605D01*
X155382642Y-115096087D01*
X155246117Y-115080212D01*
X155119117Y-115089737D01*
X154055492Y-115353262D01*
X153944367Y-115386599D01*
X153871342Y-115443749D01*
X153836417Y-115553287D01*
X153152734Y-115553287D01*
X153152734Y-114067387D01*
X153814192Y-114067387D01*
X153835624Y-114272571D01*
X153899917Y-114449974D01*
X153995961Y-114596024D01*
X154112642Y-114707149D01*
X154250755Y-114791683D01*
X154411092Y-114857962D01*
X154605473Y-114910878D01*
X154807615Y-114942628D01*
X155017517Y-114953212D01*
X155289972Y-114937733D01*
X155532661Y-114891299D01*
X155745585Y-114813908D01*
X155928742Y-114705562D01*
X156044630Y-114595627D01*
X156138292Y-114449974D01*
X156200205Y-114273365D01*
X156220842Y-114070562D01*
X156199808Y-113866965D01*
X156136705Y-113687974D01*
X156042646Y-113539543D01*
X155928742Y-113427624D01*
X155793011Y-113342296D01*
X155772372Y-113333414D01*
X158459108Y-113333414D01*
X158486044Y-113549947D01*
X158566853Y-113749101D01*
X158701534Y-113930877D01*
X158872353Y-114070562D01*
X158877923Y-114075116D01*
X159083855Y-114161660D01*
X159319330Y-114190508D01*
X159564493Y-114156881D01*
X159780721Y-114056000D01*
X159955894Y-113907026D01*
X160077889Y-113729116D01*
X160149444Y-113533220D01*
X160173295Y-113330286D01*
X160147880Y-113126961D01*
X160071633Y-112929892D01*
X159945727Y-112751200D01*
X159771337Y-112603008D01*
X159559801Y-112503300D01*
X159322458Y-112470064D01*
X159086809Y-112499260D01*
X158880356Y-112586846D01*
X158703098Y-112732823D01*
X158676516Y-112768812D01*
X158567548Y-112916337D01*
X158486218Y-113116534D01*
X158459108Y-113333414D01*
X155772372Y-113333414D01*
X155633467Y-113273637D01*
X155443320Y-113222484D01*
X155236945Y-113191792D01*
X155014342Y-113181562D01*
X154812906Y-113189852D01*
X154631931Y-113214723D01*
X154471417Y-113256174D01*
X154270202Y-113335152D01*
X154117405Y-113422862D01*
X153999136Y-113533590D01*
X153901505Y-113681624D01*
X153836021Y-113861408D01*
X153814192Y-114067387D01*
X153152734Y-114067387D01*
X153152734Y-112103649D01*
X153814192Y-112103649D01*
X153843649Y-112342656D01*
X153932020Y-112549560D01*
X154079305Y-112724362D01*
X154264337Y-112856653D01*
X154465949Y-112936028D01*
X154684142Y-112962487D01*
X154860355Y-112942643D01*
X155027042Y-112883112D01*
X155173092Y-112795799D01*
X155287392Y-112692612D01*
X155462811Y-112470362D01*
X155569967Y-112273512D01*
X155601717Y-112194137D01*
X155617592Y-112194137D01*
X155617592Y-112775162D01*
X155647755Y-112960899D01*
X155739830Y-113035512D01*
X155901755Y-113054562D01*
X156062092Y-113033924D01*
X156144642Y-112965662D01*
X156182742Y-112768812D01*
X156182742Y-111974264D01*
X158481005Y-111974264D01*
X158488825Y-112097823D01*
X158515413Y-112207306D01*
X158579539Y-112305840D01*
X158724995Y-112344941D01*
X158943960Y-112285508D01*
X159062827Y-112113463D01*
X159037803Y-112005545D01*
X159012778Y-111869473D01*
X159072211Y-111711505D01*
X159216103Y-111637995D01*
X159873000Y-111637995D01*
X159980918Y-111633303D01*
X160063812Y-111603587D01*
X160124810Y-111519128D01*
X160145142Y-111359596D01*
X160091965Y-111143759D01*
X159957458Y-111087454D01*
X159866743Y-111087454D01*
X158768788Y-111087454D01*
X158660869Y-111092146D01*
X158581103Y-111118734D01*
X158517759Y-111201628D01*
X158496645Y-111362724D01*
X158514631Y-111515218D01*
X158568591Y-111597330D01*
X158671817Y-111631739D01*
X158618640Y-111677096D01*
X158534182Y-111803784D01*
X158481005Y-111974264D01*
X156182742Y-111974264D01*
X156182742Y-111527387D01*
X156097017Y-111330537D01*
X155896992Y-111247987D01*
X155732289Y-111277752D01*
X155581080Y-111367049D01*
X155446936Y-111498415D01*
X155333430Y-111654387D01*
X155231036Y-111822662D01*
X155130230Y-111990937D01*
X155023471Y-112146908D01*
X154903217Y-112278274D01*
X154772249Y-112367571D01*
X154633342Y-112397337D01*
X154552380Y-112375112D01*
X154466655Y-112325899D01*
X154404742Y-112241762D01*
X154376167Y-112083012D01*
X154450780Y-111906799D01*
X154598417Y-111822662D01*
X154671442Y-111809962D01*
X154690492Y-111809962D01*
X154795267Y-111805199D01*
X154874642Y-111775037D01*
X154931792Y-111689312D01*
X154950842Y-111527387D01*
X154920680Y-111350380D01*
X154830192Y-111263862D01*
X154668267Y-111247987D01*
X154455719Y-111274268D01*
X154258340Y-111353114D01*
X154076130Y-111484524D01*
X153930609Y-111658443D01*
X153843297Y-111864818D01*
X153814192Y-112103649D01*
X153152734Y-112103649D01*
X153152734Y-110251037D01*
X153849117Y-110251037D01*
X153871695Y-110435539D01*
X153939429Y-110616514D01*
X154052317Y-110793962D01*
X154168205Y-110912230D01*
X154319017Y-111006687D01*
X154496817Y-111068599D01*
X154693667Y-111089237D01*
X154890121Y-111068599D01*
X155066730Y-111006687D01*
X155216352Y-110912230D01*
X155331842Y-110793962D01*
X155444731Y-110616162D01*
X155512465Y-110434128D01*
X155535042Y-110247862D01*
X155535042Y-110139646D01*
X158462236Y-110139646D01*
X158481396Y-110342580D01*
X158538874Y-110516579D01*
X158634671Y-110661644D01*
X158768788Y-110777774D01*
X158938877Y-110857540D01*
X159123825Y-110884128D01*
X159291177Y-110860277D01*
X159408480Y-110788722D01*
X159500758Y-110577577D01*
X159500758Y-109836222D01*
X159647778Y-109939449D01*
X159707211Y-110145902D01*
X159697827Y-110307780D01*
X159669675Y-110430557D01*
X159657162Y-110464966D01*
X159622753Y-110590089D01*
X159763517Y-110762133D01*
X159907408Y-110802798D01*
X160029208Y-110761156D01*
X160116208Y-110636228D01*
X160168408Y-110428015D01*
X160185808Y-110136518D01*
X160165866Y-109917943D01*
X160106042Y-109725175D01*
X160013372Y-109565252D01*
X159894896Y-109445212D01*
X159719376Y-109335729D01*
X159530649Y-109270040D01*
X159328714Y-109248143D01*
X159083507Y-109276470D01*
X158873405Y-109361449D01*
X158698406Y-109503082D01*
X158651830Y-109568412D01*
X158567201Y-109687117D01*
X158488477Y-109899305D01*
X158462236Y-110139646D01*
X155535042Y-110139646D01*
X155535042Y-109850987D01*
X155893817Y-109850987D01*
X156003355Y-109846224D01*
X156087492Y-109816062D01*
X156151786Y-109731924D01*
X156173217Y-109568412D01*
X156143849Y-109392199D01*
X156055742Y-109308062D01*
X155890642Y-109289012D01*
X154128517Y-109289012D01*
X154018980Y-109293774D01*
X153934842Y-109323937D01*
X153870549Y-109408074D01*
X153849117Y-109571587D01*
X153849117Y-110251037D01*
X153152734Y-110251037D01*
X153152734Y-108253962D01*
X153849117Y-108253962D01*
X153871695Y-108438464D01*
X153939429Y-108619439D01*
X154052317Y-108796887D01*
X154168205Y-108912774D01*
X154319017Y-109006437D01*
X154496817Y-109068349D01*
X154693667Y-109088987D01*
X154918740Y-109062528D01*
X155115590Y-108983153D01*
X155284217Y-108850862D01*
X155414392Y-108905895D01*
X155580551Y-108977862D01*
X155782692Y-109066762D01*
X155947792Y-109114387D01*
X156058917Y-109065174D01*
X156150992Y-108917537D01*
X156195442Y-108754024D01*
X156165280Y-108652424D01*
X156103367Y-108593687D01*
X156012704Y-108552059D01*
X155821145Y-108469509D01*
X155528692Y-108346037D01*
X155535042Y-108247612D01*
X155535042Y-107847562D01*
X155893817Y-107847562D01*
X156003355Y-107842799D01*
X156087492Y-107812637D01*
X156151786Y-107728499D01*
X156173217Y-107564987D01*
X156164917Y-107515188D01*
X157849133Y-107515188D01*
X157849133Y-108754024D01*
X157849133Y-108772675D01*
X157886670Y-108910311D01*
X157986768Y-109011973D01*
X158133788Y-109047946D01*
X158268295Y-109010409D01*
X159610241Y-108040705D01*
X159610241Y-108819596D01*
X159639958Y-108996333D01*
X159725980Y-109071407D01*
X159869872Y-109091739D01*
X160010635Y-109076099D01*
X160091965Y-109038562D01*
X160132630Y-108972872D01*
X160151399Y-108813340D01*
X160151399Y-107512059D01*
X160113862Y-107374424D01*
X160012981Y-107271197D01*
X159866743Y-107236788D01*
X159735364Y-107274325D01*
X158393418Y-108244030D01*
X158393418Y-107524572D01*
X158388726Y-107413525D01*
X158362138Y-107327503D01*
X158281590Y-107259467D01*
X158127532Y-107236788D01*
X157966436Y-107257903D01*
X157883542Y-107321247D01*
X157853825Y-107404141D01*
X157849133Y-107515188D01*
X156164917Y-107515188D01*
X156143849Y-107388774D01*
X156055742Y-107304637D01*
X155890642Y-107285587D01*
X154128517Y-107285587D01*
X154018980Y-107290349D01*
X153934842Y-107320512D01*
X153870549Y-107404649D01*
X153849117Y-107568162D01*
X153849117Y-108253962D01*
X153152734Y-108253962D01*
X153152734Y-107236788D01*
X153152734Y-106575330D01*
X160847266Y-104266971D01*
X160847266Y-106575330D01*
X160847266Y-107236788D01*
X160847266Y-108813340D01*
G37*
%TO.C,C20*%
X152738781Y-72460030D02*
X152539970Y-72261219D01*
X153460030Y-71738781D02*
X153261219Y-71539970D01*
%TO.C,R5*%
X175237258Y-102522500D02*
X174762742Y-102522500D01*
X175237258Y-101477500D02*
X174762742Y-101477500D01*
%TD*%
%LPC*%
D12*
%TO.C,J10*%
X167850000Y-62675000D03*
X166750000Y-62675000D03*
X165650000Y-62675000D03*
X164550000Y-62675000D03*
X163450000Y-62675000D03*
X162350000Y-62675000D03*
X161250000Y-62675000D03*
X160150000Y-62675000D03*
X160150000Y-61325000D03*
X161250000Y-61325000D03*
X162350000Y-61325000D03*
X163450000Y-61325000D03*
X164550000Y-61325000D03*
X165650000Y-61325000D03*
X166750000Y-61325000D03*
X167850000Y-61325000D03*
D13*
X166500000Y-64150000D03*
X166500000Y-59850000D03*
X161500000Y-64150000D03*
X161500000Y-59850000D03*
%TD*%
D14*
%TO.C,Pmod6*%
X213360000Y-123190000D03*
D15*
X213360000Y-125730000D03*
X215900000Y-123190000D03*
X215900000Y-125730000D03*
X218440000Y-123190000D03*
X218440000Y-125730000D03*
X220980000Y-123190000D03*
X220980000Y-125730000D03*
X223520000Y-123190000D03*
X223520000Y-125730000D03*
X226060000Y-123190000D03*
X226060000Y-125730000D03*
%TD*%
D16*
%TO.C,Pmod1*%
X203200000Y-39370000D03*
D15*
X203200000Y-36830000D03*
X200660000Y-39370000D03*
X200660000Y-36830000D03*
X198120000Y-39370000D03*
X198120000Y-36830000D03*
X195580000Y-39370000D03*
X195580000Y-36830000D03*
X193040000Y-39370000D03*
X193040000Y-36830000D03*
X190500000Y-39370000D03*
X190500000Y-36830000D03*
%TD*%
D17*
%TO.C,A1*%
X129540000Y-120650000D03*
X132080000Y-120650000D03*
X134620000Y-120650000D03*
X137160000Y-120650000D03*
X139700000Y-120650000D03*
X142240000Y-120650000D03*
X144780000Y-120650000D03*
X144780000Y-105410000D03*
X142240000Y-105410000D03*
X139700000Y-105410000D03*
X137160000Y-105410000D03*
X134620000Y-105410000D03*
X132080000Y-105410000D03*
X129540000Y-105410000D03*
%TD*%
D18*
%TO.C,J1*%
X146050000Y-68580000D03*
D15*
X146050000Y-66040000D03*
X146050000Y-63500000D03*
%TD*%
D16*
%TO.C,Pmod3*%
X248920000Y-39370000D03*
D15*
X248920000Y-36830000D03*
X246380000Y-39370000D03*
X246380000Y-36830000D03*
X243840000Y-39370000D03*
X243840000Y-36830000D03*
X241300000Y-39370000D03*
X241300000Y-36830000D03*
X238760000Y-39370000D03*
X238760000Y-36830000D03*
X236220000Y-39370000D03*
X236220000Y-36830000D03*
%TD*%
D16*
%TO.C,Pmod2*%
X226060000Y-39370000D03*
D15*
X226060000Y-36830000D03*
X223520000Y-39370000D03*
X223520000Y-36830000D03*
X220980000Y-39370000D03*
X220980000Y-36830000D03*
X218440000Y-39370000D03*
X218440000Y-36830000D03*
X215900000Y-39370000D03*
X215900000Y-36830000D03*
X213360000Y-39370000D03*
X213360000Y-36830000D03*
%TD*%
D19*
%TO.C,J17*%
X145400000Y-52000000D03*
X145400000Y-56600000D03*
D20*
X158000000Y-52000000D03*
D21*
X158000000Y-56600000D03*
%TD*%
D22*
%TO.C,J4*%
X200660000Y-96520000D03*
D23*
X198120000Y-96520000D03*
D22*
X195580000Y-96520000D03*
X200660000Y-99695000D03*
X195580000Y-99695000D03*
D23*
X199136000Y-101600000D03*
X197104000Y-101600000D03*
%TD*%
D14*
%TO.C,J6*%
X266700000Y-81279999D03*
D15*
X269240000Y-81279999D03*
%TD*%
D18*
%TO.C,Pmod5*%
X266700000Y-99059999D03*
D15*
X269240000Y-99059999D03*
X266700000Y-96519999D03*
X269240000Y-96519999D03*
X266700000Y-93979999D03*
X269240000Y-93979999D03*
X266700000Y-91439999D03*
X269240000Y-91439999D03*
X266700000Y-88899999D03*
X269240000Y-88899999D03*
X266700000Y-86359999D03*
X269240000Y-86359999D03*
%TD*%
D18*
%TO.C,J8*%
X208280000Y-39370000D03*
D15*
X208280000Y-36830000D03*
%TD*%
D24*
%TO.C,N2*%
X205740000Y-88900000D03*
X205740000Y-86360000D03*
X205740000Y-83820000D03*
X205740000Y-81280000D03*
X205740000Y-78740000D03*
X205740000Y-76200000D03*
X205740000Y-73660000D03*
X208280000Y-88900000D03*
X208280000Y-86360000D03*
X208280000Y-83820000D03*
X208280000Y-81280000D03*
X208280000Y-78740000D03*
X208280000Y-76200000D03*
X208280000Y-73660000D03*
X210820000Y-88900000D03*
X210820000Y-86360000D03*
X210820000Y-83820000D03*
X210820000Y-81280000D03*
X210820000Y-78740000D03*
X210820000Y-76200000D03*
X210820000Y-73660000D03*
X213360000Y-88900000D03*
X213360000Y-86360000D03*
X213360000Y-83820000D03*
X213360000Y-81280000D03*
X213360000Y-78740000D03*
X213360000Y-76200000D03*
X213360000Y-73660000D03*
X215900000Y-88900000D03*
X215900000Y-86360000D03*
X215900000Y-83820000D03*
X215900000Y-81280000D03*
X215900000Y-78740000D03*
X215900000Y-76200000D03*
X215900000Y-73660000D03*
X218440000Y-88900000D03*
X218440000Y-86360000D03*
X218440000Y-83820000D03*
X218440000Y-81280000D03*
X218440000Y-78740000D03*
X218440000Y-76200000D03*
X218440000Y-73660000D03*
X220980000Y-88900000D03*
X220980000Y-86360000D03*
X220980000Y-83820000D03*
X220980000Y-81280000D03*
X220980000Y-78740000D03*
X220980000Y-76200000D03*
X220980000Y-73660000D03*
X223520000Y-88900000D03*
X223520000Y-86360000D03*
X223520000Y-83820000D03*
X223520000Y-81280000D03*
X223520000Y-78740000D03*
X223520000Y-76200000D03*
X223520000Y-73660000D03*
%TD*%
D18*
%TO.C,J7*%
X231140000Y-39370000D03*
D15*
X231140000Y-36830000D03*
%TD*%
D25*
%TO.C,J5*%
X163000000Y-122000000D03*
X157000000Y-122000000D03*
X163000000Y-125600000D03*
X157000000Y-125600000D03*
D26*
X169000000Y-122000000D03*
D27*
X169000000Y-125600000D03*
%TD*%
D24*
%TO.C,N4*%
X205740000Y-104140000D03*
X205740000Y-101600000D03*
X205740000Y-99060000D03*
X205740000Y-96520000D03*
X205740000Y-93980000D03*
X205740000Y-91440000D03*
X208280000Y-104140000D03*
X208280000Y-101600000D03*
X208280000Y-99060000D03*
X208280000Y-96520000D03*
X208280000Y-93980000D03*
X208280000Y-91440000D03*
X210820000Y-104140000D03*
X210820000Y-101600000D03*
X210820000Y-99060000D03*
X210820000Y-96520000D03*
X210820000Y-93980000D03*
X210820000Y-91440000D03*
X213360000Y-104140000D03*
X213360000Y-101600000D03*
X213360000Y-99060000D03*
X213360000Y-96520000D03*
X213360000Y-93980000D03*
X213360000Y-91440000D03*
X215900000Y-104140000D03*
X215900000Y-101600000D03*
X215900000Y-99060000D03*
X215900000Y-96520000D03*
X215900000Y-93980000D03*
X215900000Y-91440000D03*
X218440000Y-104140000D03*
X218440000Y-101600000D03*
X218440000Y-99060000D03*
X218440000Y-96520000D03*
X218440000Y-93980000D03*
X218440000Y-91440000D03*
X220980000Y-104140000D03*
X220980000Y-101600000D03*
X220980000Y-99060000D03*
X220980000Y-96520000D03*
X220980000Y-93980000D03*
X220980000Y-91440000D03*
X223520000Y-104140000D03*
X223520000Y-101600000D03*
X223520000Y-99060000D03*
X223520000Y-96520000D03*
X223520000Y-93980000D03*
X223520000Y-91440000D03*
X226060000Y-104140000D03*
X226060000Y-101600000D03*
X226060000Y-99060000D03*
X226060000Y-96520000D03*
X226060000Y-93980000D03*
X226060000Y-91440000D03*
X228600000Y-104140000D03*
X228600000Y-101600000D03*
X228600000Y-99060000D03*
X228600000Y-96520000D03*
X228600000Y-93980000D03*
X228600000Y-91440000D03*
X231140000Y-104140000D03*
X231140000Y-101600000D03*
X231140000Y-99060000D03*
X231140000Y-96520000D03*
X231140000Y-93980000D03*
X231140000Y-91440000D03*
X233680000Y-104140000D03*
X233680000Y-101600000D03*
X233680000Y-99060000D03*
X233680000Y-96520000D03*
X233680000Y-93980000D03*
X233680000Y-91440000D03*
X236220000Y-104140000D03*
X236220000Y-101600000D03*
X236220000Y-99060000D03*
X236220000Y-96520000D03*
X236220000Y-93980000D03*
X236220000Y-91440000D03*
X238760000Y-104140000D03*
X238760000Y-101600000D03*
X238760000Y-99060000D03*
X238760000Y-96520000D03*
X238760000Y-93980000D03*
X238760000Y-91440000D03*
X241300000Y-101600000D03*
X241300000Y-99060000D03*
X241300000Y-96520000D03*
X241300000Y-93980000D03*
X241300000Y-91440000D03*
X243840000Y-99060000D03*
X243840000Y-96520000D03*
X243840000Y-93980000D03*
X243840000Y-91440000D03*
X246380000Y-99060000D03*
X246380000Y-96520000D03*
X246380000Y-93980000D03*
X246380000Y-91440000D03*
%TD*%
D28*
%TO.C,J2*%
X194310000Y-69850000D03*
D24*
X191770000Y-69850000D03*
X194310000Y-67310000D03*
X191770000Y-67310000D03*
X194310000Y-64770000D03*
X191770000Y-64770000D03*
X194310000Y-62230000D03*
X191770000Y-62230000D03*
X194310000Y-59690000D03*
X191770000Y-59690000D03*
%TD*%
D14*
%TO.C,Pmod7*%
X190500000Y-123190000D03*
D15*
X190500000Y-125730000D03*
X193040000Y-123190000D03*
X193040000Y-125730000D03*
X195580000Y-123190000D03*
X195580000Y-125730000D03*
X198120000Y-123190000D03*
X198120000Y-125730000D03*
X200660000Y-123190000D03*
X200660000Y-125730000D03*
X203200000Y-123190000D03*
X203200000Y-125730000D03*
%TD*%
D29*
%TO.C,J9*%
X208280000Y-123190000D03*
D15*
X208280000Y-125730000D03*
%TD*%
D18*
%TO.C,Pmod4*%
X266700000Y-76199999D03*
D15*
X269240000Y-76199999D03*
X266700000Y-73659999D03*
X269240000Y-73659999D03*
X266700000Y-71119999D03*
X269240000Y-71119999D03*
X266700000Y-68579999D03*
X269240000Y-68579999D03*
X266700000Y-66039999D03*
X269240000Y-66039999D03*
X266700000Y-63499999D03*
X269240000Y-63499999D03*
%TD*%
D30*
%TO.C,J3*%
X187960000Y-96520000D03*
D31*
X189230000Y-96520000D03*
X187960000Y-97790000D03*
X189230000Y-97790000D03*
X187960000Y-99060000D03*
X189230000Y-99060000D03*
X187960000Y-100330000D03*
X189230000Y-100330000D03*
X187960000Y-101600000D03*
X189230000Y-101600000D03*
%TD*%
D24*
%TO.C,N3*%
X205740000Y-71120000D03*
X205740000Y-68580000D03*
X205740000Y-66040000D03*
X205740000Y-63500000D03*
X205740000Y-60960000D03*
X205740000Y-58420000D03*
X208280000Y-71120000D03*
X208280000Y-68580000D03*
X208280000Y-66040000D03*
X208280000Y-63500000D03*
X208280000Y-60960000D03*
X208280000Y-58420000D03*
X210820000Y-71120000D03*
X210820000Y-68580000D03*
X210820000Y-66040000D03*
X210820000Y-63500000D03*
X210820000Y-60960000D03*
X210820000Y-58420000D03*
X213360000Y-71120000D03*
X213360000Y-68580000D03*
X213360000Y-66040000D03*
X213360000Y-63500000D03*
X213360000Y-60960000D03*
X213360000Y-58420000D03*
X215900000Y-71120000D03*
X215900000Y-68580000D03*
X215900000Y-66040000D03*
X215900000Y-63500000D03*
X215900000Y-60960000D03*
X215900000Y-58420000D03*
X218440000Y-71120000D03*
X218440000Y-68580000D03*
X218440000Y-66040000D03*
X218440000Y-63500000D03*
X218440000Y-60960000D03*
X218440000Y-58420000D03*
X220980000Y-71120000D03*
X220980000Y-68580000D03*
X220980000Y-66040000D03*
X220980000Y-63500000D03*
X220980000Y-60960000D03*
X220980000Y-58420000D03*
X223520000Y-71120000D03*
X223520000Y-68580000D03*
X223520000Y-66040000D03*
X223520000Y-63500000D03*
X223520000Y-60960000D03*
X223520000Y-58420000D03*
X226060000Y-71120000D03*
X226060000Y-68580000D03*
X226060000Y-66040000D03*
X226060000Y-63500000D03*
X226060000Y-60960000D03*
X226060000Y-58420000D03*
X228600000Y-71120000D03*
X228600000Y-68580000D03*
X228600000Y-66040000D03*
X228600000Y-63500000D03*
X228600000Y-60960000D03*
X228600000Y-58420000D03*
X231140000Y-71120000D03*
X231140000Y-68580000D03*
X231140000Y-66040000D03*
X231140000Y-63500000D03*
X231140000Y-60960000D03*
X231140000Y-58420000D03*
X233680000Y-71120000D03*
X233680000Y-68580000D03*
X233680000Y-66040000D03*
X233680000Y-63500000D03*
X233680000Y-60960000D03*
X233680000Y-58420000D03*
X236220000Y-71120000D03*
X236220000Y-68580000D03*
X236220000Y-66040000D03*
X236220000Y-63500000D03*
X236220000Y-60960000D03*
X236220000Y-58420000D03*
X238760000Y-71120000D03*
X238760000Y-68580000D03*
X238760000Y-66040000D03*
X238760000Y-63500000D03*
X238760000Y-60960000D03*
X238760000Y-58420000D03*
X241300000Y-71120000D03*
X241300000Y-68580000D03*
X241300000Y-66040000D03*
X241300000Y-63500000D03*
X241300000Y-60960000D03*
X243840000Y-71120000D03*
X243840000Y-68580000D03*
X243840000Y-66040000D03*
X243840000Y-63500000D03*
X246380000Y-71120000D03*
X246380000Y-68580000D03*
X246380000Y-66040000D03*
X246380000Y-63500000D03*
%TD*%
D32*
%TO.C,Y1*%
X151621142Y-88176777D03*
X153176777Y-86621142D03*
X154378858Y-87823223D03*
X152823223Y-89378858D03*
%TD*%
D33*
%TO.C,C5*%
X170000000Y-60775000D03*
X170000000Y-59225000D03*
%TD*%
D34*
%TO.C,J13*%
X190260848Y-112881847D03*
D35*
X191334298Y-110579825D03*
X192562870Y-113955297D03*
X193636320Y-111653276D03*
X194864892Y-115028748D03*
X195938342Y-112726726D03*
X197166913Y-116102198D03*
X198240364Y-113800176D03*
X199468935Y-117175649D03*
X200542386Y-114873627D03*
X201770957Y-118249099D03*
X202844407Y-115947077D03*
X204072979Y-119322549D03*
X205146429Y-117020528D03*
X206375000Y-120396000D03*
X207448451Y-118093978D03*
%TD*%
D36*
%TO.C,R16*%
X161583363Y-71416637D03*
X160416637Y-72583363D03*
%TD*%
D37*
%TO.C,U6*%
X173750000Y-81550000D03*
X173250000Y-81550000D03*
X172750000Y-81550000D03*
X172250000Y-81550000D03*
X172250000Y-78450000D03*
X172750000Y-78450000D03*
X173250000Y-78450000D03*
X173750000Y-78450000D03*
%TD*%
D38*
%TO.C,R2*%
X181000000Y-57175000D03*
X181000000Y-58825000D03*
%TD*%
D39*
%TO.C,R8*%
X158000000Y-64825000D03*
X158000000Y-63175000D03*
%TD*%
D34*
%TO.C,J22*%
X244870848Y-112881847D03*
D35*
X245944298Y-110579825D03*
X247172870Y-113955297D03*
X248246320Y-111653276D03*
X249474892Y-115028748D03*
X250548342Y-112726726D03*
X251776913Y-116102198D03*
X252850364Y-113800176D03*
X254078935Y-117175649D03*
X255152386Y-114873627D03*
X256380957Y-118249099D03*
X257454407Y-115947077D03*
X258682979Y-119322549D03*
X259756429Y-117020528D03*
X260985000Y-120396000D03*
X262058451Y-118093978D03*
%TD*%
D40*
%TO.C,J19*%
X233680000Y-42164000D03*
D41*
X234753450Y-44466022D03*
X231377978Y-43237450D03*
X232451429Y-45539472D03*
X229075956Y-44310901D03*
X230149407Y-46612923D03*
X226773935Y-45384351D03*
X227847385Y-47686373D03*
X224471913Y-46457802D03*
X225545363Y-48759823D03*
X222169891Y-47531252D03*
X223243341Y-49833274D03*
X219867869Y-48604702D03*
X220941320Y-50906724D03*
X217565848Y-49678153D03*
X218639298Y-51980174D03*
%TD*%
D42*
%TO.C,Q2*%
X174950000Y-66937500D03*
X173050000Y-66937500D03*
X174000000Y-65062500D03*
%TD*%
D43*
%TO.C,FB1*%
X170787500Y-71000000D03*
X169212500Y-71000000D03*
%TD*%
D44*
%TO.C,C15*%
X148548008Y-82451992D03*
X147451992Y-83548008D03*
%TD*%
D33*
%TO.C,C8*%
X186000000Y-98775000D03*
X186000000Y-97225000D03*
%TD*%
D45*
%TO.C,C19*%
X164451992Y-74548008D03*
X165548008Y-73451992D03*
%TD*%
%TO.C,C13*%
X166451992Y-75548008D03*
X167548008Y-74451992D03*
%TD*%
%TO.C,C14*%
X158951992Y-71048008D03*
X160048008Y-69951992D03*
%TD*%
D40*
%TO.C,J23*%
X260985000Y-42164000D03*
D41*
X262058450Y-44466022D03*
X258682978Y-43237450D03*
X259756429Y-45539472D03*
X256380956Y-44310901D03*
X257454407Y-46612923D03*
X254078935Y-45384351D03*
X255152385Y-47686373D03*
X251776913Y-46457802D03*
X252850363Y-48759823D03*
X249474891Y-47531252D03*
X250548341Y-49833274D03*
X247172869Y-48604702D03*
X248246320Y-50906724D03*
X244870848Y-49678153D03*
X245944298Y-51980174D03*
%TD*%
D46*
%TO.C,C7*%
X171000000Y-67225000D03*
X171000000Y-68775000D03*
%TD*%
D47*
%TO.C,U3*%
X164950000Y-69137500D03*
X164000000Y-69137500D03*
X163050000Y-69137500D03*
X163050000Y-66862500D03*
X164000000Y-66862500D03*
X164950000Y-66862500D03*
%TD*%
D39*
%TO.C,R7*%
X170000000Y-64825000D03*
X170000000Y-63175000D03*
%TD*%
D48*
%TO.C,REF\u002A\u002A*%
X266065000Y-122555000D03*
X266065000Y-122555000D03*
%TD*%
D49*
%TO.C,C16*%
X165451992Y-82451992D03*
X166548008Y-83548008D03*
%TD*%
D16*
%TO.C,J21*%
X165460000Y-99000000D03*
D15*
X168000000Y-99000000D03*
%TD*%
D34*
%TO.C,J11*%
X162955848Y-112881847D03*
D35*
X164029298Y-110579825D03*
X165257870Y-113955297D03*
X166331320Y-111653276D03*
X167559892Y-115028748D03*
X168633342Y-112726726D03*
X169861913Y-116102198D03*
X170935364Y-113800176D03*
X172163935Y-117175649D03*
X173237386Y-114873627D03*
X174465957Y-118249099D03*
X175539407Y-115947077D03*
X176767979Y-119322549D03*
X177841429Y-117020528D03*
X179070000Y-120396000D03*
X180143451Y-118093978D03*
%TD*%
D44*
%TO.C,C11*%
X155548008Y-89451992D03*
X154451992Y-90548008D03*
%TD*%
D50*
%TO.C,U5*%
X161269157Y-80592202D03*
X160986314Y-80875045D03*
X160703472Y-81157887D03*
X160420629Y-81440730D03*
X160137786Y-81723573D03*
X159854944Y-82006415D03*
X159572101Y-82289258D03*
X159289258Y-82572101D03*
X159006415Y-82854944D03*
X158723573Y-83137786D03*
X158440730Y-83420629D03*
X158157887Y-83703472D03*
X157875045Y-83986314D03*
X157592202Y-84269157D03*
D51*
X156407798Y-84269157D03*
X156124955Y-83986314D03*
X155842113Y-83703472D03*
X155559270Y-83420629D03*
X155276427Y-83137786D03*
X154993585Y-82854944D03*
X154710742Y-82572101D03*
X154427899Y-82289258D03*
X154145056Y-82006415D03*
X153862214Y-81723573D03*
X153579371Y-81440730D03*
X153296528Y-81157887D03*
X153013686Y-80875045D03*
X152730843Y-80592202D03*
D50*
X152730843Y-79407798D03*
X153013686Y-79124955D03*
X153296528Y-78842113D03*
X153579371Y-78559270D03*
X153862214Y-78276427D03*
X154145056Y-77993585D03*
X154427899Y-77710742D03*
X154710742Y-77427899D03*
X154993585Y-77145056D03*
X155276427Y-76862214D03*
X155559270Y-76579371D03*
X155842113Y-76296528D03*
X156124955Y-76013686D03*
X156407798Y-75730843D03*
D51*
X157592202Y-75730843D03*
X157875045Y-76013686D03*
X158157887Y-76296528D03*
X158440730Y-76579371D03*
X158723573Y-76862214D03*
X159006415Y-77145056D03*
X159289258Y-77427899D03*
X159572101Y-77710742D03*
X159854944Y-77993585D03*
X160137786Y-78276427D03*
X160420629Y-78559270D03*
X160703472Y-78842113D03*
X160986314Y-79124955D03*
X161269157Y-79407798D03*
D52*
X157000000Y-80000000D03*
%TD*%
D53*
%TO.C,C10*%
X177225000Y-78000000D03*
X178775000Y-78000000D03*
%TD*%
D54*
%TO.C,R3*%
X175825000Y-108000000D03*
X174175000Y-108000000D03*
%TD*%
D33*
%TO.C,C6*%
X167000000Y-68775000D03*
X167000000Y-67225000D03*
%TD*%
D55*
%TO.C,R11*%
X150416637Y-96583363D03*
X151583363Y-95416637D03*
%TD*%
%TO.C,R17*%
X150416637Y-86583363D03*
X151583363Y-85416637D03*
%TD*%
D48*
%TO.C,REF\u002A\u002A*%
X266065000Y-40005000D03*
X266065000Y-40005000D03*
%TD*%
D34*
%TO.C,J18*%
X217565848Y-112881847D03*
D35*
X218639298Y-110579825D03*
X219867870Y-113955297D03*
X220941320Y-111653276D03*
X222169892Y-115028748D03*
X223243342Y-112726726D03*
X224471913Y-116102198D03*
X225545364Y-113800176D03*
X226773935Y-117175649D03*
X227847386Y-114873627D03*
X229075957Y-118249099D03*
X230149407Y-115947077D03*
X231377979Y-119322549D03*
X232451429Y-117020528D03*
X233680000Y-120396000D03*
X234753451Y-118093978D03*
%TD*%
D56*
%TO.C,U4*%
X174905000Y-83600000D03*
X173635000Y-83600000D03*
X172365000Y-83600000D03*
X171095000Y-83600000D03*
X171095000Y-76400000D03*
X172365000Y-76400000D03*
X173635000Y-76400000D03*
X174905000Y-76400000D03*
%TD*%
D57*
%TO.C,U1*%
X181850000Y-70300000D03*
X181850000Y-68000000D03*
D58*
X188150000Y-68000000D03*
D57*
X181850000Y-65700000D03*
%TD*%
D48*
%TO.C,REF\u002A\u002A*%
X167640000Y-40005000D03*
X167640000Y-40005000D03*
%TD*%
D40*
%TO.C,J12*%
X179070000Y-42164000D03*
D41*
X180143450Y-44466022D03*
X176767978Y-43237450D03*
X177841429Y-45539472D03*
X174465956Y-44310901D03*
X175539407Y-46612923D03*
X172163935Y-45384351D03*
X173237385Y-47686373D03*
X169861913Y-46457802D03*
X170935363Y-48759823D03*
X167559891Y-47531252D03*
X168633341Y-49833274D03*
X165257869Y-48604702D03*
X166331320Y-50906724D03*
X162955848Y-49678153D03*
X164029298Y-51980174D03*
%TD*%
D59*
%TO.C,Q1*%
X175137500Y-69050000D03*
X175137500Y-70000000D03*
X175137500Y-70950000D03*
X172862500Y-70950000D03*
X172862500Y-70000000D03*
X172862500Y-69050000D03*
%TD*%
D18*
%TO.C,J15*%
X198120000Y-76835000D03*
D15*
X198120000Y-79375000D03*
X198120000Y-81915000D03*
X198120000Y-84455000D03*
%TD*%
D38*
%TO.C,R14*%
X179000000Y-80175000D03*
X179000000Y-81825000D03*
%TD*%
D44*
%TO.C,C17*%
X150048008Y-83951992D03*
X148951992Y-85048008D03*
%TD*%
D49*
%TO.C,C12*%
X149951992Y-89951992D03*
X151048008Y-91048008D03*
%TD*%
D55*
%TO.C,R15*%
X161916637Y-74083363D03*
X163083363Y-72916637D03*
%TD*%
D33*
%TO.C,C9*%
X184000000Y-98775000D03*
X184000000Y-97225000D03*
%TD*%
D60*
%TO.C,U2*%
X129540000Y-104140000D03*
D17*
X129540000Y-105410000D03*
D60*
X132080000Y-104140000D03*
D17*
X132080000Y-105410000D03*
D60*
X134620000Y-104140000D03*
D17*
X134620000Y-105410000D03*
D60*
X137160000Y-104140000D03*
D17*
X137160000Y-105410000D03*
D60*
X139700000Y-104140000D03*
D17*
X139700000Y-105410000D03*
D60*
X142240000Y-104140000D03*
D17*
X142240000Y-105410000D03*
D60*
X144780000Y-104140000D03*
D17*
X144780000Y-105410000D03*
D60*
X147320000Y-104140000D03*
D17*
X147320000Y-105410000D03*
D60*
X149860000Y-104140000D03*
D17*
X149860000Y-105410000D03*
D61*
X151130000Y-107950000D03*
D17*
X149860000Y-107950000D03*
D61*
X151130000Y-110490000D03*
D17*
X149860000Y-110490000D03*
D61*
X151130000Y-113030000D03*
D17*
X149860000Y-113030000D03*
D61*
X151130000Y-115570000D03*
D17*
X149860000Y-115570000D03*
D61*
X151130000Y-118110000D03*
D17*
X149860000Y-118110000D03*
X149860000Y-120650000D03*
D60*
X149860000Y-121920000D03*
D17*
X147320000Y-120650000D03*
D60*
X147320000Y-121920000D03*
D17*
X144780000Y-120650000D03*
D60*
X144780000Y-121920000D03*
D17*
X142240000Y-120650000D03*
D60*
X142240000Y-121920000D03*
D17*
X139700000Y-120650000D03*
D60*
X139700000Y-121920000D03*
D17*
X137160000Y-120650000D03*
D60*
X137160000Y-121920000D03*
D17*
X134620000Y-120650000D03*
D60*
X134620000Y-121920000D03*
D17*
X132080000Y-120650000D03*
D60*
X132080000Y-121920000D03*
D17*
X129540000Y-120650000D03*
D60*
X129540000Y-121920000D03*
%TD*%
D38*
%TO.C,F1*%
X169000000Y-67175000D03*
X169000000Y-68825000D03*
%TD*%
D62*
%TO.C,Q4*%
X144991161Y-94665336D03*
X146334664Y-96008839D03*
X144337087Y-96662913D03*
%TD*%
D38*
%TO.C,R1*%
X178000000Y-57175000D03*
X178000000Y-58825000D03*
%TD*%
D46*
%TO.C,C4*%
X183000000Y-73225000D03*
X183000000Y-74775000D03*
%TD*%
D16*
%TO.C,J20*%
X177800000Y-97155000D03*
D15*
X180340000Y-97155000D03*
%TD*%
D38*
%TO.C,R9*%
X177000000Y-69175000D03*
X177000000Y-70825000D03*
%TD*%
D24*
%TO.C,N5*%
X248920000Y-99060000D03*
X251460000Y-99060000D03*
X248920000Y-96520000D03*
X251460000Y-96520000D03*
X248920000Y-93980000D03*
X251460000Y-93980000D03*
X248920000Y-91440000D03*
X251460000Y-91440000D03*
X248920000Y-88900000D03*
X251460000Y-88900000D03*
X248920000Y-86360000D03*
X251460000Y-86360000D03*
X248920000Y-83820000D03*
X251460000Y-83820000D03*
X248920000Y-81280000D03*
X251460000Y-81280000D03*
X248920000Y-78740000D03*
X251460000Y-78740000D03*
X248920000Y-76200000D03*
X251460000Y-76200000D03*
X248920000Y-73660000D03*
X251460000Y-73660000D03*
X248920000Y-71120000D03*
X251460000Y-71120000D03*
X248920000Y-68580000D03*
X251460000Y-68580000D03*
X248920000Y-66040000D03*
X251460000Y-66040000D03*
X248920000Y-63500000D03*
X251460000Y-63500000D03*
%TD*%
D40*
%TO.C,J16*%
X206375000Y-42164000D03*
D41*
X207448450Y-44466022D03*
X204072978Y-43237450D03*
X205146429Y-45539472D03*
X201770956Y-44310901D03*
X202844407Y-46612923D03*
X199468935Y-45384351D03*
X200542385Y-47686373D03*
X197166913Y-46457802D03*
X198240363Y-48759823D03*
X194864891Y-47531252D03*
X195938341Y-49833274D03*
X192562869Y-48604702D03*
X193636320Y-50906724D03*
X190260848Y-49678153D03*
X191334298Y-51980174D03*
%TD*%
D63*
%TO.C,C18*%
X155048008Y-71048008D03*
X153951992Y-69951992D03*
%TD*%
D33*
%TO.C,C1*%
X179000000Y-66775000D03*
X179000000Y-65225000D03*
%TD*%
D36*
%TO.C,R12*%
X145583363Y-89416637D03*
X144416637Y-90583363D03*
%TD*%
D29*
%TO.C,J14*%
X191516000Y-85598000D03*
D15*
X191516000Y-83058000D03*
X191516000Y-80518000D03*
X191516000Y-77978000D03*
%TD*%
D33*
%TO.C,C2*%
X177000000Y-66775000D03*
X177000000Y-65225000D03*
%TD*%
D49*
%TO.C,C21*%
X161451992Y-86451992D03*
X162548008Y-87548008D03*
%TD*%
D46*
%TO.C,C3*%
X181000000Y-73225000D03*
X181000000Y-74775000D03*
%TD*%
D54*
%TO.C,R4*%
X175825000Y-105000000D03*
X174175000Y-105000000D03*
%TD*%
D38*
%TO.C,R13*%
X177000000Y-80175000D03*
X177000000Y-81825000D03*
%TD*%
D64*
%TO.C,Q3*%
X146523915Y-92867417D03*
X147195666Y-92195666D03*
X147867417Y-91523915D03*
X149476085Y-93132583D03*
X148804334Y-93804334D03*
X148132583Y-94476085D03*
%TD*%
D38*
%TO.C,R6*%
X158000000Y-59175000D03*
X158000000Y-60825000D03*
%TD*%
D63*
%TO.C,C22*%
X150548008Y-75548008D03*
X149451992Y-74451992D03*
%TD*%
D39*
%TO.C,R10*%
X179000000Y-70825000D03*
X179000000Y-69175000D03*
%TD*%
D63*
%TO.C,C20*%
X153548008Y-72548008D03*
X152451992Y-71451992D03*
%TD*%
D54*
%TO.C,R5*%
X175825000Y-102000000D03*
X174175000Y-102000000D03*
%TD*%
M02*
