M48
; DRILL file {KiCad 6.0.9} date 2023-02-10T02:23:02 CET
; FORMAT={-:-/ absolute / inch / decimal}
; #@! TF.CreationDate,2023-02-10T02:23:02+01:00
; #@! TF.GenerationSoftware,Kicad,Pcbnew,6.0.9
; #@! TF.FileFunction,Plated,1,2,PTH
FMAT,2
INCH
; #@! TA.AperFunction,Plated,PTH,ViaDrill
T1C0.0157
; #@! TA.AperFunction,Plated,PTH,ComponentDrill
T2C0.0197
; #@! TA.AperFunction,Plated,PTH,ComponentDrill
T3C0.0236
; #@! TA.AperFunction,Plated,PTH,ComponentDrill
T4C0.0256
; #@! TA.AperFunction,Plated,PTH,ComponentDrill
T5C0.0394
; #@! TA.AperFunction,Plated,PTH,ComponentDrill
T6C0.0433
%
G90
G05
T1
X5.0787Y-3.9764
X5.0787Y-4.9213
X5.1575Y-4.8882
X5.3543Y-4.0157
X5.4331Y-3.937
X5.748Y-3.248
X5.748Y-4.0157
X5.7874Y-3.3661
X5.8268Y-2.9528
X5.8268Y-3.4055
X5.8268Y-3.7795
X5.8268Y-3.8583
X5.8268Y-3.937
X5.8465Y-2.8937
X5.8661Y-3.8189
X5.8661Y-3.8976
X5.8661Y-3.9764
X5.9055Y-3.0709
X5.9055Y-3.2283
X5.9449Y-2.8346
X5.9449Y-3.1496
X5.9646Y-2.7756
X5.9843Y-2.9134
X5.9843Y-4.1339
X5.9843Y-4.8031
X6.0236Y-2.7165
X6.0236Y-4.0945
X6.0236Y-4.8425
X6.063Y-2.9921
X6.063Y-3.1496
X6.063Y-4.0551
X6.063Y-4.4094
X6.063Y-4.8819
X6.0827Y-2.6969
X6.1024Y-4.0157
X6.1024Y-4.4488
X6.1024Y-4.685
X6.1024Y-4.9213
X6.1417Y-4.7244
X6.1811Y-3.0315
X6.1811Y-3.2677
X6.1811Y-4.0945
X6.1811Y-4.685
X6.2205Y-3.6614
X6.2205Y-4.7244
X6.2598Y-3.622
X6.2598Y-4.685
X6.2598Y-4.7638
X6.2598Y-4.8425
X6.2795Y-2.6969
X6.2795Y-3.5236
X6.2992Y-3.1496
X6.2992Y-4.8819
X6.3386Y-3.4646
X6.3386Y-3.5236
X6.3386Y-4.8425
X6.378Y-2.7165
X6.378Y-3.1496
X6.378Y-3.6614
X6.3976Y-3.622
X6.4173Y-2.5591
X6.4961Y-2.5591
X6.4961Y-2.8346
X6.5354Y-3.6614
X6.5748Y-2.8346
X6.5748Y-3.2283
X6.5748Y-3.3858
X6.5748Y-3.622
X6.5763Y-2.8755
X6.6142Y-2.6378
X6.6535Y-2.874
X6.811Y-3.1496
X6.8504Y-2.6378
X6.9291Y-2.6378
X6.9291Y-2.7165
X6.9685Y-2.7559
X7.0079Y-3.1102
X7.0472Y-2.8346
X7.0866Y-3.0709
X7.1654Y-2.8346
X7.2047Y-2.0079
X7.2441Y-2.0472
X7.3228Y-3.1496
X7.3228Y-3.3071
X7.3228Y-3.4646
X7.3228Y-3.622
X7.4409Y-2.9134
X7.6772Y-2.9921
X7.6772Y-3.1102
X7.6772Y-3.189
X7.6772Y-3.3071
X7.6772Y-3.3858
X8.0709Y-3.5827
X8.1102Y-3.6614
X8.1496Y-3.5827
X8.2Y-2.95
X8.2283Y-2.0866
X8.25Y-3.0
X8.2677Y-2.1654
X8.3071Y-2.0866
X8.3858Y-3.5827
X8.4252Y-3.6614
X8.4646Y-3.5827
X8.622Y-3.2283
X8.6614Y-3.189
X9.0Y-4.85
X9.0Y-4.95
X9.2913Y-2.0866
X9.2913Y-2.1654
X9.3701Y-2.0866
X9.9Y-1.45
X10.2Y-1.45
X10.2Y-4.85
X10.2Y-4.95
X10.315Y-3.189
X10.35Y-4.7
X10.3937Y-3.1496
X10.3937Y-3.2283
X10.5Y-1.85
X10.5Y-2.4
X10.5Y-4.0
X10.5Y-4.55
X10.55Y-1.5
X10.55Y-4.9
X10.6Y-1.85
X10.6Y-2.4
X10.6Y-4.0
X10.6Y-4.55
T2
X6.3051Y-2.4144
X6.3051Y-2.4675
X6.3484Y-2.4144
X6.3484Y-2.4675
X6.3917Y-2.4144
X6.3917Y-2.4675
X6.435Y-2.4144
X6.435Y-2.4675
X6.4783Y-2.4144
X6.4783Y-2.4675
X6.5217Y-2.4144
X6.5217Y-2.4675
X6.565Y-2.4144
X6.565Y-2.4675
X6.6083Y-2.4144
X6.6083Y-2.4675
T3
X6.6535Y-4.8031
X6.6535Y-4.9449
T4
X8.35Y-3.3
X8.35Y-3.35
X8.35Y-3.4
X8.35Y-3.45
X8.35Y-3.5
X8.4Y-3.3
X8.4Y-3.35
X8.4Y-3.4
X8.4Y-3.45
X8.4Y-3.5
T5
X5.1Y-4.15
X5.1Y-4.15
X5.1Y-4.75
X5.1Y-4.75
X5.2Y-4.15
X5.2Y-4.15
X5.2Y-4.75
X5.2Y-4.75
X5.3Y-4.15
X5.3Y-4.15
X5.3Y-4.75
X5.3Y-4.75
X5.4Y-4.15
X5.4Y-4.15
X5.4Y-4.75
X5.4Y-4.75
X5.5Y-4.15
X5.5Y-4.15
X5.5Y-4.75
X5.5Y-4.75
X5.6Y-4.15
X5.6Y-4.15
X5.6Y-4.75
X5.6Y-4.75
X5.7Y-4.15
X5.7Y-4.15
X5.7Y-4.75
X5.7Y-4.75
X5.8Y-4.15
X5.8Y-4.75
X5.9Y-4.15
X5.9Y-4.25
X5.9Y-4.35
X5.9Y-4.45
X5.9Y-4.55
X5.9Y-4.65
X5.9Y-4.75
X6.4156Y-1.9558
X6.4156Y-4.4442
X6.4578Y-2.0465
X6.4578Y-4.3535
X6.5062Y-1.9136
X6.5062Y-4.4864
X6.5142Y-3.8976
X6.5485Y-2.0042
X6.5485Y-4.3958
X6.5968Y-1.8713
X6.5968Y-4.5287
X6.6142Y-3.8976
X6.6391Y-1.9619
X6.6391Y-4.4381
X6.6875Y-1.829
X6.6875Y-4.571
X6.7297Y-1.9197
X6.7297Y-4.4803
X6.7781Y-1.7868
X6.7781Y-4.6132
X6.8204Y-1.8774
X6.8204Y-4.5226
X6.8687Y-1.7445
X6.8687Y-4.6555
X6.911Y-1.8352
X6.911Y-4.5648
X6.9594Y-1.7023
X6.9594Y-4.6977
X7.0Y-3.825
X7.0016Y-1.7929
X7.0016Y-4.6071
X7.05Y-1.66
X7.05Y-4.74
X7.0923Y-1.7506
X7.0923Y-4.6494
X7.1Y-3.825
X7.4906Y-1.9558
X7.4906Y-4.4442
X7.5Y-1.45
X7.5Y-1.55
X7.5Y-4.85
X7.5Y-4.95
X7.5328Y-2.0465
X7.5328Y-4.3535
X7.54Y-3.07
X7.54Y-3.17
X7.54Y-3.27
X7.54Y-3.37
X7.5812Y-1.9136
X7.5812Y-4.4864
X7.6Y-1.45
X7.6Y-1.55
X7.6Y-4.85
X7.6Y-4.95
X7.6235Y-2.0042
X7.6235Y-4.3958
X7.6718Y-1.8713
X7.6718Y-4.5287
X7.7Y-1.45
X7.7Y-1.55
X7.7Y-4.85
X7.7Y-4.95
X7.7141Y-1.9619
X7.7141Y-4.4381
X7.7625Y-1.829
X7.7625Y-4.571
X7.8Y-1.45
X7.8Y-1.55
X7.8Y-3.025
X7.8Y-3.125
X7.8Y-3.225
X7.8Y-3.325
X7.8Y-4.85
X7.8Y-4.95
X7.8047Y-1.9197
X7.8047Y-4.4803
X7.8531Y-1.7868
X7.8531Y-4.6132
X7.8954Y-1.8774
X7.8954Y-4.5226
X7.9Y-1.45
X7.9Y-1.55
X7.9Y-4.85
X7.9Y-4.95
X7.9437Y-1.7445
X7.9437Y-4.6555
X7.986Y-1.8352
X7.986Y-4.5648
X8.0Y-1.45
X8.0Y-1.55
X8.0Y-3.0
X8.0Y-3.1
X8.0Y-3.2
X8.0Y-3.3
X8.0Y-3.4
X8.0Y-4.85
X8.0Y-4.95
X8.0344Y-1.7023
X8.0344Y-4.6977
X8.0766Y-1.7929
X8.0766Y-4.6071
X8.1Y-3.0
X8.1Y-3.1
X8.1Y-3.2
X8.1Y-3.3
X8.1Y-3.4
X8.125Y-1.66
X8.125Y-4.74
X8.1673Y-1.7506
X8.1673Y-4.6494
X8.2Y-1.45
X8.2Y-1.55
X8.2Y-4.85
X8.2Y-4.95
X8.4Y-1.45
X8.4Y-1.55
X8.4Y-4.85
X8.4Y-4.95
X8.5Y-1.45
X8.5Y-1.55
X8.5Y-4.85
X8.5Y-4.95
X8.5656Y-1.9558
X8.5656Y-4.4442
X8.6Y-1.45
X8.6Y-1.55
X8.6Y-4.85
X8.6Y-4.95
X8.6078Y-2.0465
X8.6078Y-4.3535
X8.6562Y-1.9136
X8.6562Y-4.4864
X8.6985Y-2.0042
X8.6985Y-4.3958
X8.7Y-1.45
X8.7Y-1.55
X8.7Y-4.85
X8.7Y-4.95
X8.7468Y-1.8713
X8.7468Y-4.5287
X8.7891Y-1.9619
X8.7891Y-4.4381
X8.8Y-1.45
X8.8Y-1.55
X8.8Y-4.85
X8.8Y-4.95
X8.8375Y-1.829
X8.8375Y-4.571
X8.8797Y-1.9197
X8.8797Y-4.4803
X8.9Y-1.45
X8.9Y-1.55
X8.9Y-4.85
X8.9Y-4.95
X8.9281Y-1.7868
X8.9281Y-4.6132
X8.9704Y-1.8774
X8.9704Y-4.5226
X9.0187Y-1.7445
X9.0187Y-4.6555
X9.061Y-1.8352
X9.061Y-4.5648
X9.1Y-1.45
X9.1Y-1.55
X9.1094Y-1.7023
X9.1094Y-4.6977
X9.1516Y-1.7929
X9.1516Y-4.6071
X9.2Y-1.66
X9.2Y-4.74
X9.2423Y-1.7506
X9.2423Y-4.6494
X9.3Y-1.45
X9.3Y-1.55
X9.4Y-1.45
X9.4Y-1.55
X9.5Y-1.45
X9.5Y-1.55
X9.6Y-1.45
X9.6Y-1.55
X9.6406Y-1.9558
X9.6406Y-4.4442
X9.6828Y-2.0465
X9.6828Y-4.3535
X9.7Y-1.45
X9.7Y-1.55
X9.7312Y-1.9136
X9.7312Y-4.4864
X9.7735Y-2.0042
X9.7735Y-4.3958
X9.8Y-1.45
X9.8Y-1.55
X9.8218Y-1.8713
X9.8218Y-4.5287
X9.8641Y-1.9619
X9.8641Y-4.4381
X9.9125Y-1.829
X9.9125Y-4.571
X9.9547Y-1.9197
X9.9547Y-4.4803
X10.0031Y-1.7868
X10.0031Y-4.6132
X10.0454Y-1.8774
X10.0454Y-4.5226
X10.0937Y-1.7445
X10.0937Y-4.6555
X10.136Y-1.8352
X10.136Y-4.5648
X10.1844Y-1.7023
X10.1844Y-4.6977
X10.2266Y-1.7929
X10.2266Y-4.6071
X10.275Y-1.66
X10.275Y-4.74
X10.3173Y-1.7506
X10.3173Y-4.6494
X10.5Y-2.5
X10.5Y-2.6
X10.5Y-2.7
X10.5Y-2.8
X10.5Y-2.9
X10.5Y-3.0
X10.5Y-3.2
X10.5Y-3.4
X10.5Y-3.5
X10.5Y-3.6
X10.5Y-3.7
X10.5Y-3.8
X10.5Y-3.9
X10.6Y-2.5
X10.6Y-2.6
X10.6Y-2.7
X10.6Y-2.8
X10.6Y-2.9
X10.6Y-3.0
X10.6Y-3.2
X10.6Y-3.4
X10.6Y-3.5
X10.6Y-3.6
X10.6Y-3.7
X10.6Y-3.8
X10.6Y-3.9
T6
X6.2205Y-2.0472
X6.2205Y-2.2283
T3
G00X6.3733Y-2.3563
M15
G01X6.3432Y-2.3563
M16
G05
G00X6.3733Y-2.5256
M15
G01X6.3432Y-2.5256
M16
G05
G00X6.5702Y-2.3563
M15
G01X6.5401Y-2.3563
M16
G05
G00X6.5702Y-2.5256
M15
G01X6.5401Y-2.5256
M16
G05
T0
M30
