%TF.GenerationSoftware,KiCad,Pcbnew,7.0.1*%
%TF.CreationDate,2023-03-20T19:53:46+01:00*%
%TF.ProjectId,chubby-hat,63687562-6279-42d6-9861-742e6b696361,0.2.2*%
%TF.SameCoordinates,Original*%
%TF.FileFunction,Profile,NP*%
%FSLAX46Y46*%
G04 Gerber Fmt 4.6, Leading zero omitted, Abs format (unit mm)*
G04 Created by KiCad (PCBNEW 7.0.1) date 2023-03-20 19:53:46*
%MOMM*%
%LPD*%
G01*
G04 APERTURE LIST*
%TA.AperFunction,Profile*%
%ADD10C,0.100000*%
%TD*%
G04 APERTURE END LIST*
D10*
X126999999Y-105537000D02*
X127000000Y-103505000D01*
X146685000Y-48895000D02*
G75*
G03*
X142240000Y-53340000I0J-4445000D01*
G01*
X142240000Y-53340000D02*
X142240000Y-97155000D01*
X270510000Y-122555000D02*
X270510000Y-40005000D01*
X140335000Y-99060000D02*
X131445000Y-99060000D01*
X131445000Y-99060000D02*
G75*
G03*
X127000000Y-103505000I0J-4445000D01*
G01*
X266065000Y-127000000D02*
G75*
G03*
X270510000Y-122555000I0J4445000D01*
G01*
X266065000Y-35560000D02*
X167640000Y-35560000D01*
X167640000Y-35560000D02*
G75*
G03*
X163195000Y-40005000I0J-4445000D01*
G01*
X270510000Y-40005000D02*
G75*
G03*
X266065000Y-35560000I-4445000J0D01*
G01*
X148463001Y-117983000D02*
X148463001Y-108077000D01*
X163195000Y-40005000D02*
X163195000Y-44450000D01*
X128270000Y-119253000D02*
X147193000Y-119253001D01*
X158750000Y-48895000D02*
G75*
G03*
X163195000Y-44450000I0J4445000D01*
G01*
X148463001Y-108077000D02*
G75*
G03*
X147193000Y-106806999I-1270001J0D01*
G01*
X131445000Y-127000000D02*
X266065000Y-127000000D01*
X127000000Y-122555000D02*
G75*
G03*
X131445000Y-127000000I4445000J0D01*
G01*
X128270000Y-119252999D02*
G75*
G03*
X126999999Y-120523000I0J-1270001D01*
G01*
X147193000Y-106806999D02*
X128270000Y-106807000D01*
X140335000Y-99060000D02*
G75*
G03*
X142240000Y-97155000I1270000J635000D01*
G01*
X158750000Y-48895000D02*
X146685000Y-48895000D01*
X147193000Y-119253001D02*
G75*
G03*
X148463001Y-117983000I0J1270001D01*
G01*
X126999999Y-105537000D02*
G75*
G03*
X128270000Y-106807001I1270001J0D01*
G01*
X127000000Y-122555000D02*
X126999999Y-120523000D01*
M02*
