%TF.GenerationSoftware,KiCad,Pcbnew,6.0.9*%
%TF.CreationDate,2023-01-30T01:57:00+01:00*%
%TF.ProjectId,chubby-hat,63687562-6279-42d6-9861-742e6b696361,0.2.0*%
%TF.SameCoordinates,Original*%
%TF.FileFunction,Soldermask,Bot*%
%TF.FilePolarity,Negative*%
%FSLAX46Y46*%
G04 Gerber Fmt 4.6, Leading zero omitted, Abs format (unit mm)*
G04 Created by KiCad (PCBNEW 6.0.9) date 2023-01-30 01:57:00*
%MOMM*%
%LPD*%
G01*
G04 APERTURE LIST*
G04 Aperture macros list*
%AMRoundRect*
0 Rectangle with rounded corners*
0 $1 Rounding radius*
0 $2 $3 $4 $5 $6 $7 $8 $9 X,Y pos of 4 corners*
0 Add a 4 corners polygon primitive as box body*
4,1,4,$2,$3,$4,$5,$6,$7,$8,$9,$2,$3,0*
0 Add four circle primitives for the rounded corners*
1,1,$1+$1,$2,$3*
1,1,$1+$1,$4,$5*
1,1,$1+$1,$6,$7*
1,1,$1+$1,$8,$9*
0 Add four rect primitives between the rounded corners*
20,1,$1+$1,$2,$3,$4,$5,0*
20,1,$1+$1,$4,$5,$6,$7,0*
20,1,$1+$1,$6,$7,$8,$9,0*
20,1,$1+$1,$8,$9,$2,$3,0*%
%AMHorizOval*
0 Thick line with rounded ends*
0 $1 width*
0 $2 $3 position (X,Y) of the first rounded end (center of the circle)*
0 $4 $5 position (X,Y) of the second rounded end (center of the circle)*
0 Add line between two ends*
20,1,$1,$2,$3,$4,$5,0*
0 Add two circle primitives to create the rounded ends*
1,1,$1,$2,$3*
1,1,$1,$4,$5*%
G04 Aperture macros list end*
%ADD10C,0.100000*%
%ADD11C,0.150000*%
%ADD12C,0.300000*%
%ADD13C,0.400000*%
%ADD14C,3.000000*%
%ADD15C,0.900000*%
%ADD16O,1.100000X1.900000*%
%ADD17RoundRect,0.050000X0.850000X-0.850000X0.850000X0.850000X-0.850000X0.850000X-0.850000X-0.850000X0*%
%ADD18O,1.800000X1.800000*%
%ADD19RoundRect,0.050000X-0.850000X0.850000X-0.850000X-0.850000X0.850000X-0.850000X0.850000X0.850000X0*%
%ADD20C,1.879600*%
%ADD21C,2.700000*%
%ADD22RoundRect,0.300001X0.799999X0.799999X-0.799999X0.799999X-0.799999X-0.799999X0.799999X-0.799999X0*%
%ADD23C,2.200000*%
%ADD24C,2.474900*%
%ADD25C,1.090600*%
%ADD26RoundRect,0.050000X0.850000X0.850000X-0.850000X0.850000X-0.850000X-0.850000X0.850000X-0.850000X0*%
%ADD27C,1.600000*%
%ADD28RoundRect,0.300000X-0.550000X0.550000X-0.550000X-0.550000X0.550000X-0.550000X0.550000X0.550000X0*%
%ADD29C,1.700000*%
%ADD30RoundRect,0.300000X0.600000X0.600000X-0.600000X0.600000X-0.600000X-0.600000X0.600000X-0.600000X0*%
%ADD31C,1.800000*%
%ADD32RoundRect,0.050000X-0.850000X-0.850000X0.850000X-0.850000X0.850000X0.850000X-0.850000X0.850000X0*%
%ADD33RoundRect,0.050000X0.500000X0.500000X-0.500000X0.500000X-0.500000X-0.500000X0.500000X-0.500000X0*%
%ADD34O,1.100000X1.100000*%
%ADD35RoundRect,0.050000X0.700000X0.600000X-0.700000X0.600000X-0.700000X-0.600000X0.700000X-0.600000X0*%
%ADD36RoundRect,0.275000X-0.225000X-0.250000X0.225000X-0.250000X0.225000X0.250000X-0.225000X0.250000X0*%
%ADD37RoundRect,0.050000X-0.411136X1.129587X-1.129587X-0.411136X0.411136X-1.129587X1.129587X0.411136X0*%
%ADD38HorizOval,1.800000X0.000000X0.000000X0.000000X0.000000X0*%
%ADD39RoundRect,0.250000X-0.200000X-0.275000X0.200000X-0.275000X0.200000X0.275000X-0.200000X0.275000X0*%
%ADD40RoundRect,0.250000X0.200000X0.275000X-0.200000X0.275000X-0.200000X-0.275000X0.200000X-0.275000X0*%
%ADD41RoundRect,0.050000X1.129587X-0.411136X0.411136X1.129587X-1.129587X0.411136X-0.411136X-1.129587X0*%
%ADD42HorizOval,1.800000X0.000000X0.000000X0.000000X0.000000X0*%
%ADD43RoundRect,0.268750X0.256250X-0.218750X0.256250X0.218750X-0.256250X0.218750X-0.256250X-0.218750X0*%
%ADD44RoundRect,0.275000X0.250000X-0.225000X0.250000X0.225000X-0.250000X0.225000X-0.250000X-0.225000X0*%
%ADD45RoundRect,0.275000X0.225000X0.250000X-0.225000X0.250000X-0.225000X-0.250000X0.225000X-0.250000X0*%
%ADD46RoundRect,0.275000X-0.250000X0.225000X-0.250000X-0.225000X0.250000X-0.225000X0.250000X0.225000X0*%
%ADD47RoundRect,0.200000X0.512500X0.150000X-0.512500X0.150000X-0.512500X-0.150000X0.512500X-0.150000X0*%
%ADD48RoundRect,0.100000X-0.050000X0.387500X-0.050000X-0.387500X0.050000X-0.387500X0.050000X0.387500X0*%
%ADD49RoundRect,0.100000X-0.387500X0.050000X-0.387500X-0.050000X0.387500X-0.050000X0.387500X0.050000X0*%
%ADD50RoundRect,0.050000X-1.600000X1.600000X-1.600000X-1.600000X1.600000X-1.600000X1.600000X1.600000X0*%
%ADD51RoundRect,0.200000X-0.150000X0.650000X-0.150000X-0.650000X0.150000X-0.650000X0.150000X0.650000X0*%
%ADD52RoundRect,0.050000X-1.000000X-0.750000X1.000000X-0.750000X1.000000X0.750000X-1.000000X0.750000X0*%
%ADD53RoundRect,0.050000X-1.000000X-1.900000X1.000000X-1.900000X1.000000X1.900000X-1.000000X1.900000X0*%
%ADD54RoundRect,0.250000X0.275000X-0.200000X0.275000X0.200000X-0.275000X0.200000X-0.275000X-0.200000X0*%
%ADD55O,1.879600X3.657600*%
%ADD56O,3.657600X1.879600*%
%ADD57RoundRect,0.200000X-0.150000X0.587500X-0.150000X-0.587500X0.150000X-0.587500X0.150000X0.587500X0*%
G04 APERTURE END LIST*
D10*
D11*
X177002200Y-166007200D02*
X177002200Y-198007200D01*
X285002200Y-198007200D01*
X285002200Y-166007200D01*
X177002200Y-166007200D01*
D10*
D11*
X10000000Y-10000000D02*
X10000000Y-200007200D01*
X287002200Y-200007200D01*
X287002200Y-10000000D01*
X10000000Y-10000000D01*
D10*
D11*
X12000000Y-12000000D02*
X12000000Y-198007200D01*
X285002200Y-198007200D01*
X285002200Y-12000000D01*
X12000000Y-12000000D01*
D10*
D11*
X60000000Y-12000000D02*
X60000000Y-10000000D01*
D10*
D11*
X110000000Y-12000000D02*
X110000000Y-10000000D01*
D10*
D11*
X160000000Y-12000000D02*
X160000000Y-10000000D01*
D10*
D11*
X210000000Y-12000000D02*
X210000000Y-10000000D01*
D10*
D11*
X260000000Y-12000000D02*
X260000000Y-10000000D01*
D10*
D11*
X36065476Y-11588095D02*
X35322619Y-11588095D01*
X35694047Y-11588095D02*
X35694047Y-10288095D01*
X35570238Y-10473809D01*
X35446428Y-10597619D01*
X35322619Y-10659523D01*
D10*
D11*
X85322619Y-10411904D02*
X85384523Y-10350000D01*
X85508333Y-10288095D01*
X85817857Y-10288095D01*
X85941666Y-10350000D01*
X86003571Y-10411904D01*
X86065476Y-10535714D01*
X86065476Y-10659523D01*
X86003571Y-10845238D01*
X85260714Y-11588095D01*
X86065476Y-11588095D01*
D10*
D11*
X135260714Y-10288095D02*
X136065476Y-10288095D01*
X135632142Y-10783333D01*
X135817857Y-10783333D01*
X135941666Y-10845238D01*
X136003571Y-10907142D01*
X136065476Y-11030952D01*
X136065476Y-11340476D01*
X136003571Y-11464285D01*
X135941666Y-11526190D01*
X135817857Y-11588095D01*
X135446428Y-11588095D01*
X135322619Y-11526190D01*
X135260714Y-11464285D01*
D10*
D11*
X185941666Y-10721428D02*
X185941666Y-11588095D01*
X185632142Y-10226190D02*
X185322619Y-11154761D01*
X186127380Y-11154761D01*
D10*
D11*
X236003571Y-10288095D02*
X235384523Y-10288095D01*
X235322619Y-10907142D01*
X235384523Y-10845238D01*
X235508333Y-10783333D01*
X235817857Y-10783333D01*
X235941666Y-10845238D01*
X236003571Y-10907142D01*
X236065476Y-11030952D01*
X236065476Y-11340476D01*
X236003571Y-11464285D01*
X235941666Y-11526190D01*
X235817857Y-11588095D01*
X235508333Y-11588095D01*
X235384523Y-11526190D01*
X235322619Y-11464285D01*
D10*
D11*
X285941666Y-10288095D02*
X285694047Y-10288095D01*
X285570238Y-10350000D01*
X285508333Y-10411904D01*
X285384523Y-10597619D01*
X285322619Y-10845238D01*
X285322619Y-11340476D01*
X285384523Y-11464285D01*
X285446428Y-11526190D01*
X285570238Y-11588095D01*
X285817857Y-11588095D01*
X285941666Y-11526190D01*
X286003571Y-11464285D01*
X286065476Y-11340476D01*
X286065476Y-11030952D01*
X286003571Y-10907142D01*
X285941666Y-10845238D01*
X285817857Y-10783333D01*
X285570238Y-10783333D01*
X285446428Y-10845238D01*
X285384523Y-10907142D01*
X285322619Y-11030952D01*
D10*
D11*
X60000000Y-198007200D02*
X60000000Y-200007200D01*
D10*
D11*
X110000000Y-198007200D02*
X110000000Y-200007200D01*
D10*
D11*
X160000000Y-198007200D02*
X160000000Y-200007200D01*
D10*
D11*
X210000000Y-198007200D02*
X210000000Y-200007200D01*
D10*
D11*
X260000000Y-198007200D02*
X260000000Y-200007200D01*
D10*
D11*
X36065476Y-199595295D02*
X35322619Y-199595295D01*
X35694047Y-199595295D02*
X35694047Y-198295295D01*
X35570238Y-198481009D01*
X35446428Y-198604819D01*
X35322619Y-198666723D01*
D10*
D11*
X85322619Y-198419104D02*
X85384523Y-198357200D01*
X85508333Y-198295295D01*
X85817857Y-198295295D01*
X85941666Y-198357200D01*
X86003571Y-198419104D01*
X86065476Y-198542914D01*
X86065476Y-198666723D01*
X86003571Y-198852438D01*
X85260714Y-199595295D01*
X86065476Y-199595295D01*
D10*
D11*
X135260714Y-198295295D02*
X136065476Y-198295295D01*
X135632142Y-198790533D01*
X135817857Y-198790533D01*
X135941666Y-198852438D01*
X136003571Y-198914342D01*
X136065476Y-199038152D01*
X136065476Y-199347676D01*
X136003571Y-199471485D01*
X135941666Y-199533390D01*
X135817857Y-199595295D01*
X135446428Y-199595295D01*
X135322619Y-199533390D01*
X135260714Y-199471485D01*
D10*
D11*
X185941666Y-198728628D02*
X185941666Y-199595295D01*
X185632142Y-198233390D02*
X185322619Y-199161961D01*
X186127380Y-199161961D01*
D10*
D11*
X236003571Y-198295295D02*
X235384523Y-198295295D01*
X235322619Y-198914342D01*
X235384523Y-198852438D01*
X235508333Y-198790533D01*
X235817857Y-198790533D01*
X235941666Y-198852438D01*
X236003571Y-198914342D01*
X236065476Y-199038152D01*
X236065476Y-199347676D01*
X236003571Y-199471485D01*
X235941666Y-199533390D01*
X235817857Y-199595295D01*
X235508333Y-199595295D01*
X235384523Y-199533390D01*
X235322619Y-199471485D01*
D10*
D11*
X285941666Y-198295295D02*
X285694047Y-198295295D01*
X285570238Y-198357200D01*
X285508333Y-198419104D01*
X285384523Y-198604819D01*
X285322619Y-198852438D01*
X285322619Y-199347676D01*
X285384523Y-199471485D01*
X285446428Y-199533390D01*
X285570238Y-199595295D01*
X285817857Y-199595295D01*
X285941666Y-199533390D01*
X286003571Y-199471485D01*
X286065476Y-199347676D01*
X286065476Y-199038152D01*
X286003571Y-198914342D01*
X285941666Y-198852438D01*
X285817857Y-198790533D01*
X285570238Y-198790533D01*
X285446428Y-198852438D01*
X285384523Y-198914342D01*
X285322619Y-199038152D01*
D10*
D11*
X10000000Y-60000000D02*
X12000000Y-60000000D01*
D10*
D11*
X10000000Y-110000000D02*
X12000000Y-110000000D01*
D10*
D11*
X10000000Y-160000000D02*
X12000000Y-160000000D01*
D10*
D11*
X10690476Y-35216666D02*
X11309523Y-35216666D01*
X10566666Y-35588095D02*
X11000000Y-34288095D01*
X11433333Y-35588095D01*
D10*
D11*
X11092857Y-84907142D02*
X11278571Y-84969047D01*
X11340476Y-85030952D01*
X11402380Y-85154761D01*
X11402380Y-85340476D01*
X11340476Y-85464285D01*
X11278571Y-85526190D01*
X11154761Y-85588095D01*
X10659523Y-85588095D01*
X10659523Y-84288095D01*
X11092857Y-84288095D01*
X11216666Y-84350000D01*
X11278571Y-84411904D01*
X11340476Y-84535714D01*
X11340476Y-84659523D01*
X11278571Y-84783333D01*
X11216666Y-84845238D01*
X11092857Y-84907142D01*
X10659523Y-84907142D01*
D10*
D11*
X11402380Y-135464285D02*
X11340476Y-135526190D01*
X11154761Y-135588095D01*
X11030952Y-135588095D01*
X10845238Y-135526190D01*
X10721428Y-135402380D01*
X10659523Y-135278571D01*
X10597619Y-135030952D01*
X10597619Y-134845238D01*
X10659523Y-134597619D01*
X10721428Y-134473809D01*
X10845238Y-134350000D01*
X11030952Y-134288095D01*
X11154761Y-134288095D01*
X11340476Y-134350000D01*
X11402380Y-134411904D01*
D10*
D11*
X10659523Y-185588095D02*
X10659523Y-184288095D01*
X10969047Y-184288095D01*
X11154761Y-184350000D01*
X11278571Y-184473809D01*
X11340476Y-184597619D01*
X11402380Y-184845238D01*
X11402380Y-185030952D01*
X11340476Y-185278571D01*
X11278571Y-185402380D01*
X11154761Y-185526190D01*
X10969047Y-185588095D01*
X10659523Y-185588095D01*
D10*
D11*
X287002200Y-60000000D02*
X285002200Y-60000000D01*
D10*
D11*
X287002200Y-110000000D02*
X285002200Y-110000000D01*
D10*
D11*
X287002200Y-160000000D02*
X285002200Y-160000000D01*
D10*
D11*
X285692676Y-35216666D02*
X286311723Y-35216666D01*
X285568866Y-35588095D02*
X286002200Y-34288095D01*
X286435533Y-35588095D01*
D10*
D11*
X286095057Y-84907142D02*
X286280771Y-84969047D01*
X286342676Y-85030952D01*
X286404580Y-85154761D01*
X286404580Y-85340476D01*
X286342676Y-85464285D01*
X286280771Y-85526190D01*
X286156961Y-85588095D01*
X285661723Y-85588095D01*
X285661723Y-84288095D01*
X286095057Y-84288095D01*
X286218866Y-84350000D01*
X286280771Y-84411904D01*
X286342676Y-84535714D01*
X286342676Y-84659523D01*
X286280771Y-84783333D01*
X286218866Y-84845238D01*
X286095057Y-84907142D01*
X285661723Y-84907142D01*
D10*
D11*
X286404580Y-135464285D02*
X286342676Y-135526190D01*
X286156961Y-135588095D01*
X286033152Y-135588095D01*
X285847438Y-135526190D01*
X285723628Y-135402380D01*
X285661723Y-135278571D01*
X285599819Y-135030952D01*
X285599819Y-134845238D01*
X285661723Y-134597619D01*
X285723628Y-134473809D01*
X285847438Y-134350000D01*
X286033152Y-134288095D01*
X286156961Y-134288095D01*
X286342676Y-134350000D01*
X286404580Y-134411904D01*
D10*
D11*
X285661723Y-185588095D02*
X285661723Y-184288095D01*
X285971247Y-184288095D01*
X286156961Y-184350000D01*
X286280771Y-184473809D01*
X286342676Y-184597619D01*
X286404580Y-184845238D01*
X286404580Y-185030952D01*
X286342676Y-185278571D01*
X286280771Y-185402380D01*
X286156961Y-185526190D01*
X285971247Y-185588095D01*
X285661723Y-185588095D01*
D10*
D11*
X200434342Y-193785771D02*
X200434342Y-192285771D01*
X200791485Y-192285771D01*
X201005771Y-192357200D01*
X201148628Y-192500057D01*
X201220057Y-192642914D01*
X201291485Y-192928628D01*
X201291485Y-193142914D01*
X201220057Y-193428628D01*
X201148628Y-193571485D01*
X201005771Y-193714342D01*
X200791485Y-193785771D01*
X200434342Y-193785771D01*
X202577200Y-193785771D02*
X202577200Y-193000057D01*
X202505771Y-192857200D01*
X202362914Y-192785771D01*
X202077200Y-192785771D01*
X201934342Y-192857200D01*
X202577200Y-193714342D02*
X202434342Y-193785771D01*
X202077200Y-193785771D01*
X201934342Y-193714342D01*
X201862914Y-193571485D01*
X201862914Y-193428628D01*
X201934342Y-193285771D01*
X202077200Y-193214342D01*
X202434342Y-193214342D01*
X202577200Y-193142914D01*
X203077200Y-192785771D02*
X203648628Y-192785771D01*
X203291485Y-192285771D02*
X203291485Y-193571485D01*
X203362914Y-193714342D01*
X203505771Y-193785771D01*
X203648628Y-193785771D01*
X204720057Y-193714342D02*
X204577200Y-193785771D01*
X204291485Y-193785771D01*
X204148628Y-193714342D01*
X204077200Y-193571485D01*
X204077200Y-193000057D01*
X204148628Y-192857200D01*
X204291485Y-192785771D01*
X204577200Y-192785771D01*
X204720057Y-192857200D01*
X204791485Y-193000057D01*
X204791485Y-193142914D01*
X204077200Y-193285771D01*
X205434342Y-193642914D02*
X205505771Y-193714342D01*
X205434342Y-193785771D01*
X205362914Y-193714342D01*
X205434342Y-193642914D01*
X205434342Y-193785771D01*
X205434342Y-192857200D02*
X205505771Y-192928628D01*
X205434342Y-193000057D01*
X205362914Y-192928628D01*
X205434342Y-192857200D01*
X205434342Y-193000057D01*
X207220057Y-192428628D02*
X207291485Y-192357200D01*
X207434342Y-192285771D01*
X207791485Y-192285771D01*
X207934342Y-192357200D01*
X208005771Y-192428628D01*
X208077200Y-192571485D01*
X208077200Y-192714342D01*
X208005771Y-192928628D01*
X207148628Y-193785771D01*
X208077200Y-193785771D01*
X209005771Y-192285771D02*
X209148628Y-192285771D01*
X209291485Y-192357200D01*
X209362914Y-192428628D01*
X209434342Y-192571485D01*
X209505771Y-192857200D01*
X209505771Y-193214342D01*
X209434342Y-193500057D01*
X209362914Y-193642914D01*
X209291485Y-193714342D01*
X209148628Y-193785771D01*
X209005771Y-193785771D01*
X208862914Y-193714342D01*
X208791485Y-193642914D01*
X208720057Y-193500057D01*
X208648628Y-193214342D01*
X208648628Y-192857200D01*
X208720057Y-192571485D01*
X208791485Y-192428628D01*
X208862914Y-192357200D01*
X209005771Y-192285771D01*
X210077200Y-192428628D02*
X210148628Y-192357200D01*
X210291485Y-192285771D01*
X210648628Y-192285771D01*
X210791485Y-192357200D01*
X210862914Y-192428628D01*
X210934342Y-192571485D01*
X210934342Y-192714342D01*
X210862914Y-192928628D01*
X210005771Y-193785771D01*
X210934342Y-193785771D01*
X211434342Y-192285771D02*
X212362914Y-192285771D01*
X211862914Y-192857200D01*
X212077200Y-192857200D01*
X212220057Y-192928628D01*
X212291485Y-193000057D01*
X212362914Y-193142914D01*
X212362914Y-193500057D01*
X212291485Y-193642914D01*
X212220057Y-193714342D01*
X212077200Y-193785771D01*
X211648628Y-193785771D01*
X211505771Y-193714342D01*
X211434342Y-193642914D01*
X213005771Y-193214342D02*
X214148628Y-193214342D01*
X215148628Y-192285771D02*
X215291485Y-192285771D01*
X215434342Y-192357200D01*
X215505771Y-192428628D01*
X215577200Y-192571485D01*
X215648628Y-192857200D01*
X215648628Y-193214342D01*
X215577200Y-193500057D01*
X215505771Y-193642914D01*
X215434342Y-193714342D01*
X215291485Y-193785771D01*
X215148628Y-193785771D01*
X215005771Y-193714342D01*
X214934342Y-193642914D01*
X214862914Y-193500057D01*
X214791485Y-193214342D01*
X214791485Y-192857200D01*
X214862914Y-192571485D01*
X214934342Y-192428628D01*
X215005771Y-192357200D01*
X215148628Y-192285771D01*
X217077200Y-193785771D02*
X216220057Y-193785771D01*
X216648628Y-193785771D02*
X216648628Y-192285771D01*
X216505771Y-192500057D01*
X216362914Y-192642914D01*
X216220057Y-192714342D01*
X217720057Y-193214342D02*
X218862914Y-193214342D01*
X219505771Y-192428628D02*
X219577200Y-192357200D01*
X219720057Y-192285771D01*
X220077200Y-192285771D01*
X220220057Y-192357200D01*
X220291485Y-192428628D01*
X220362914Y-192571485D01*
X220362914Y-192714342D01*
X220291485Y-192928628D01*
X219434342Y-193785771D01*
X220362914Y-193785771D01*
X221077200Y-193785771D02*
X221362914Y-193785771D01*
X221505771Y-193714342D01*
X221577200Y-193642914D01*
X221720057Y-193428628D01*
X221791485Y-193142914D01*
X221791485Y-192571485D01*
X221720057Y-192428628D01*
X221648628Y-192357200D01*
X221505771Y-192285771D01*
X221220057Y-192285771D01*
X221077200Y-192357200D01*
X221005771Y-192428628D01*
X220934342Y-192571485D01*
X220934342Y-192928628D01*
X221005771Y-193071485D01*
X221077200Y-193142914D01*
X221220057Y-193214342D01*
X221505771Y-193214342D01*
X221648628Y-193142914D01*
X221720057Y-193071485D01*
X221791485Y-192928628D01*
D10*
D11*
X177002200Y-194507200D02*
X285002200Y-194507200D01*
D10*
D11*
X178434342Y-196585771D02*
X178434342Y-195085771D01*
X179291485Y-196585771D02*
X178648628Y-195728628D01*
X179291485Y-195085771D02*
X178434342Y-195942914D01*
X179934342Y-196585771D02*
X179934342Y-195585771D01*
X179934342Y-195085771D02*
X179862914Y-195157200D01*
X179934342Y-195228628D01*
X180005771Y-195157200D01*
X179934342Y-195085771D01*
X179934342Y-195228628D01*
X181505771Y-196442914D02*
X181434342Y-196514342D01*
X181220057Y-196585771D01*
X181077200Y-196585771D01*
X180862914Y-196514342D01*
X180720057Y-196371485D01*
X180648628Y-196228628D01*
X180577200Y-195942914D01*
X180577200Y-195728628D01*
X180648628Y-195442914D01*
X180720057Y-195300057D01*
X180862914Y-195157200D01*
X181077200Y-195085771D01*
X181220057Y-195085771D01*
X181434342Y-195157200D01*
X181505771Y-195228628D01*
X182791485Y-196585771D02*
X182791485Y-195800057D01*
X182720057Y-195657200D01*
X182577200Y-195585771D01*
X182291485Y-195585771D01*
X182148628Y-195657200D01*
X182791485Y-196514342D02*
X182648628Y-196585771D01*
X182291485Y-196585771D01*
X182148628Y-196514342D01*
X182077200Y-196371485D01*
X182077200Y-196228628D01*
X182148628Y-196085771D01*
X182291485Y-196014342D01*
X182648628Y-196014342D01*
X182791485Y-195942914D01*
X184148628Y-196585771D02*
X184148628Y-195085771D01*
X184148628Y-196514342D02*
X184005771Y-196585771D01*
X183720057Y-196585771D01*
X183577200Y-196514342D01*
X183505771Y-196442914D01*
X183434342Y-196300057D01*
X183434342Y-195871485D01*
X183505771Y-195728628D01*
X183577200Y-195657200D01*
X183720057Y-195585771D01*
X184005771Y-195585771D01*
X184148628Y-195657200D01*
X186005771Y-195800057D02*
X186505771Y-195800057D01*
X186720057Y-196585771D02*
X186005771Y-196585771D01*
X186005771Y-195085771D01*
X186720057Y-195085771D01*
X187362914Y-196442914D02*
X187434342Y-196514342D01*
X187362914Y-196585771D01*
X187291485Y-196514342D01*
X187362914Y-196442914D01*
X187362914Y-196585771D01*
X188077200Y-196585771D02*
X188077200Y-195085771D01*
X188434342Y-195085771D01*
X188648628Y-195157200D01*
X188791485Y-195300057D01*
X188862914Y-195442914D01*
X188934342Y-195728628D01*
X188934342Y-195942914D01*
X188862914Y-196228628D01*
X188791485Y-196371485D01*
X188648628Y-196514342D01*
X188434342Y-196585771D01*
X188077200Y-196585771D01*
X189577200Y-196442914D02*
X189648628Y-196514342D01*
X189577200Y-196585771D01*
X189505771Y-196514342D01*
X189577200Y-196442914D01*
X189577200Y-196585771D01*
X190220057Y-196157200D02*
X190934342Y-196157200D01*
X190077200Y-196585771D02*
X190577200Y-195085771D01*
X191077200Y-196585771D01*
X191577200Y-196442914D02*
X191648628Y-196514342D01*
X191577200Y-196585771D01*
X191505771Y-196514342D01*
X191577200Y-196442914D01*
X191577200Y-196585771D01*
X194577200Y-196585771D02*
X194577200Y-195085771D01*
X194720057Y-196014342D02*
X195148628Y-196585771D01*
X195148628Y-195585771D02*
X194577200Y-196157200D01*
X195791485Y-196585771D02*
X195791485Y-195585771D01*
X195791485Y-195085771D02*
X195720057Y-195157200D01*
X195791485Y-195228628D01*
X195862914Y-195157200D01*
X195791485Y-195085771D01*
X195791485Y-195228628D01*
X197148628Y-196514342D02*
X197005771Y-196585771D01*
X196720057Y-196585771D01*
X196577200Y-196514342D01*
X196505771Y-196442914D01*
X196434342Y-196300057D01*
X196434342Y-195871485D01*
X196505771Y-195728628D01*
X196577200Y-195657200D01*
X196720057Y-195585771D01*
X197005771Y-195585771D01*
X197148628Y-195657200D01*
X198434342Y-196585771D02*
X198434342Y-195800057D01*
X198362914Y-195657200D01*
X198220057Y-195585771D01*
X197934342Y-195585771D01*
X197791485Y-195657200D01*
X198434342Y-196514342D02*
X198291485Y-196585771D01*
X197934342Y-196585771D01*
X197791485Y-196514342D01*
X197720057Y-196371485D01*
X197720057Y-196228628D01*
X197791485Y-196085771D01*
X197934342Y-196014342D01*
X198291485Y-196014342D01*
X198434342Y-195942914D01*
X199791485Y-196585771D02*
X199791485Y-195085771D01*
X199791485Y-196514342D02*
X199648628Y-196585771D01*
X199362914Y-196585771D01*
X199220057Y-196514342D01*
X199148628Y-196442914D01*
X199077200Y-196300057D01*
X199077200Y-195871485D01*
X199148628Y-195728628D01*
X199220057Y-195657200D01*
X199362914Y-195585771D01*
X199648628Y-195585771D01*
X199791485Y-195657200D01*
X202291485Y-195085771D02*
X202005771Y-195085771D01*
X201862914Y-195157200D01*
X201791485Y-195228628D01*
X201648628Y-195442914D01*
X201577200Y-195728628D01*
X201577200Y-196300057D01*
X201648628Y-196442914D01*
X201720057Y-196514342D01*
X201862914Y-196585771D01*
X202148628Y-196585771D01*
X202291485Y-196514342D01*
X202362914Y-196442914D01*
X202434342Y-196300057D01*
X202434342Y-195942914D01*
X202362914Y-195800057D01*
X202291485Y-195728628D01*
X202148628Y-195657200D01*
X201862914Y-195657200D01*
X201720057Y-195728628D01*
X201648628Y-195800057D01*
X201577200Y-195942914D01*
X203077200Y-196442914D02*
X203148628Y-196514342D01*
X203077200Y-196585771D01*
X203005771Y-196514342D01*
X203077200Y-196442914D01*
X203077200Y-196585771D01*
X204077200Y-195085771D02*
X204220057Y-195085771D01*
X204362914Y-195157200D01*
X204434342Y-195228628D01*
X204505771Y-195371485D01*
X204577200Y-195657200D01*
X204577200Y-196014342D01*
X204505771Y-196300057D01*
X204434342Y-196442914D01*
X204362914Y-196514342D01*
X204220057Y-196585771D01*
X204077200Y-196585771D01*
X203934342Y-196514342D01*
X203862914Y-196442914D01*
X203791485Y-196300057D01*
X203720057Y-196014342D01*
X203720057Y-195657200D01*
X203791485Y-195371485D01*
X203862914Y-195228628D01*
X203934342Y-195157200D01*
X204077200Y-195085771D01*
X205220057Y-196442914D02*
X205291485Y-196514342D01*
X205220057Y-196585771D01*
X205148628Y-196514342D01*
X205220057Y-196442914D01*
X205220057Y-196585771D01*
X206005771Y-196585771D02*
X206291485Y-196585771D01*
X206434342Y-196514342D01*
X206505771Y-196442914D01*
X206648628Y-196228628D01*
X206720057Y-195942914D01*
X206720057Y-195371485D01*
X206648628Y-195228628D01*
X206577200Y-195157200D01*
X206434342Y-195085771D01*
X206148628Y-195085771D01*
X206005771Y-195157200D01*
X205934342Y-195228628D01*
X205862914Y-195371485D01*
X205862914Y-195728628D01*
X205934342Y-195871485D01*
X206005771Y-195942914D01*
X206148628Y-196014342D01*
X206434342Y-196014342D01*
X206577200Y-195942914D01*
X206648628Y-195871485D01*
X206720057Y-195728628D01*
D10*
D11*
X177002200Y-191507200D02*
X285002200Y-191507200D01*
D10*
D12*
X264411485Y-193785771D02*
X263911485Y-193071485D01*
X263554342Y-193785771D02*
X263554342Y-192285771D01*
X264125771Y-192285771D01*
X264268628Y-192357200D01*
X264340057Y-192428628D01*
X264411485Y-192571485D01*
X264411485Y-192785771D01*
X264340057Y-192928628D01*
X264268628Y-193000057D01*
X264125771Y-193071485D01*
X263554342Y-193071485D01*
X265625771Y-193714342D02*
X265482914Y-193785771D01*
X265197200Y-193785771D01*
X265054342Y-193714342D01*
X264982914Y-193571485D01*
X264982914Y-193000057D01*
X265054342Y-192857200D01*
X265197200Y-192785771D01*
X265482914Y-192785771D01*
X265625771Y-192857200D01*
X265697200Y-193000057D01*
X265697200Y-193142914D01*
X264982914Y-193285771D01*
X266197200Y-192785771D02*
X266554342Y-193785771D01*
X266911485Y-192785771D01*
X267482914Y-193642914D02*
X267554342Y-193714342D01*
X267482914Y-193785771D01*
X267411485Y-193714342D01*
X267482914Y-193642914D01*
X267482914Y-193785771D01*
X267482914Y-192857200D02*
X267554342Y-192928628D01*
X267482914Y-193000057D01*
X267411485Y-192928628D01*
X267482914Y-192857200D01*
X267482914Y-193000057D01*
X269625771Y-192285771D02*
X269768628Y-192285771D01*
X269911485Y-192357200D01*
X269982914Y-192428628D01*
X270054342Y-192571485D01*
X270125771Y-192857200D01*
X270125771Y-193214342D01*
X270054342Y-193500057D01*
X269982914Y-193642914D01*
X269911485Y-193714342D01*
X269768628Y-193785771D01*
X269625771Y-193785771D01*
X269482914Y-193714342D01*
X269411485Y-193642914D01*
X269340057Y-193500057D01*
X269268628Y-193214342D01*
X269268628Y-192857200D01*
X269340057Y-192571485D01*
X269411485Y-192428628D01*
X269482914Y-192357200D01*
X269625771Y-192285771D01*
X270768628Y-193642914D02*
X270840057Y-193714342D01*
X270768628Y-193785771D01*
X270697200Y-193714342D01*
X270768628Y-193642914D01*
X270768628Y-193785771D01*
X271411485Y-192428628D02*
X271482914Y-192357200D01*
X271625771Y-192285771D01*
X271982914Y-192285771D01*
X272125771Y-192357200D01*
X272197200Y-192428628D01*
X272268628Y-192571485D01*
X272268628Y-192714342D01*
X272197200Y-192928628D01*
X271340057Y-193785771D01*
X272268628Y-193785771D01*
X272911485Y-193642914D02*
X272982914Y-193714342D01*
X272911485Y-193785771D01*
X272840057Y-193714342D01*
X272911485Y-193642914D01*
X272911485Y-193785771D01*
X273911485Y-192285771D02*
X274054342Y-192285771D01*
X274197200Y-192357200D01*
X274268628Y-192428628D01*
X274340057Y-192571485D01*
X274411485Y-192857200D01*
X274411485Y-193214342D01*
X274340057Y-193500057D01*
X274268628Y-193642914D01*
X274197200Y-193714342D01*
X274054342Y-193785771D01*
X273911485Y-193785771D01*
X273768628Y-193714342D01*
X273697200Y-193642914D01*
X273625771Y-193500057D01*
X273554342Y-193214342D01*
X273554342Y-192857200D01*
X273625771Y-192571485D01*
X273697200Y-192428628D01*
X273768628Y-192357200D01*
X273911485Y-192285771D01*
D10*
D11*
X178362914Y-193714342D02*
X178577200Y-193785771D01*
X178934342Y-193785771D01*
X179077200Y-193714342D01*
X179148628Y-193642914D01*
X179220057Y-193500057D01*
X179220057Y-193357200D01*
X179148628Y-193214342D01*
X179077200Y-193142914D01*
X178934342Y-193071485D01*
X178648628Y-193000057D01*
X178505771Y-192928628D01*
X178434342Y-192857200D01*
X178362914Y-192714342D01*
X178362914Y-192571485D01*
X178434342Y-192428628D01*
X178505771Y-192357200D01*
X178648628Y-192285771D01*
X179005771Y-192285771D01*
X179220057Y-192357200D01*
X179862914Y-193785771D02*
X179862914Y-192785771D01*
X179862914Y-192285771D02*
X179791485Y-192357200D01*
X179862914Y-192428628D01*
X179934342Y-192357200D01*
X179862914Y-192285771D01*
X179862914Y-192428628D01*
X180434342Y-192785771D02*
X181220057Y-192785771D01*
X180434342Y-193785771D01*
X181220057Y-193785771D01*
X182362914Y-193714342D02*
X182220057Y-193785771D01*
X181934342Y-193785771D01*
X181791485Y-193714342D01*
X181720057Y-193571485D01*
X181720057Y-193000057D01*
X181791485Y-192857200D01*
X181934342Y-192785771D01*
X182220057Y-192785771D01*
X182362914Y-192857200D01*
X182434342Y-193000057D01*
X182434342Y-193142914D01*
X181720057Y-193285771D01*
X183077200Y-193642914D02*
X183148628Y-193714342D01*
X183077200Y-193785771D01*
X183005771Y-193714342D01*
X183077200Y-193642914D01*
X183077200Y-193785771D01*
X183077200Y-192857200D02*
X183148628Y-192928628D01*
X183077200Y-193000057D01*
X183005771Y-192928628D01*
X183077200Y-192857200D01*
X183077200Y-193000057D01*
X184862914Y-193357200D02*
X185577200Y-193357200D01*
X184720057Y-193785771D02*
X185220057Y-192285771D01*
X185720057Y-193785771D01*
X186862914Y-192785771D02*
X186862914Y-193785771D01*
X186505771Y-192214342D02*
X186148628Y-193285771D01*
X187077200Y-193285771D01*
D10*
D11*
X263434342Y-196585771D02*
X263434342Y-195085771D01*
X264791485Y-196585771D02*
X264791485Y-195085771D01*
X264791485Y-196514342D02*
X264648628Y-196585771D01*
X264362914Y-196585771D01*
X264220057Y-196514342D01*
X264148628Y-196442914D01*
X264077200Y-196300057D01*
X264077200Y-195871485D01*
X264148628Y-195728628D01*
X264220057Y-195657200D01*
X264362914Y-195585771D01*
X264648628Y-195585771D01*
X264791485Y-195657200D01*
X265505771Y-196442914D02*
X265577200Y-196514342D01*
X265505771Y-196585771D01*
X265434342Y-196514342D01*
X265505771Y-196442914D01*
X265505771Y-196585771D01*
X265505771Y-195657200D02*
X265577200Y-195728628D01*
X265505771Y-195800057D01*
X265434342Y-195728628D01*
X265505771Y-195657200D01*
X265505771Y-195800057D01*
X268148628Y-196585771D02*
X267291485Y-196585771D01*
X267720057Y-196585771D02*
X267720057Y-195085771D01*
X267577200Y-195300057D01*
X267434342Y-195442914D01*
X267291485Y-195514342D01*
X269862914Y-195014342D02*
X268577200Y-196942914D01*
X271148628Y-196585771D02*
X270291485Y-196585771D01*
X270720057Y-196585771D02*
X270720057Y-195085771D01*
X270577200Y-195300057D01*
X270434342Y-195442914D01*
X270291485Y-195514342D01*
D10*
D11*
X177002200Y-187507200D02*
X285002200Y-187507200D01*
D10*
D13*
X178714580Y-188211961D02*
X179857438Y-188211961D01*
X179036009Y-190211961D02*
X179286009Y-188211961D01*
X180274104Y-190211961D02*
X180440771Y-188878628D01*
X180524104Y-188211961D02*
X180416961Y-188307200D01*
X180500295Y-188402438D01*
X180607438Y-188307200D01*
X180524104Y-188211961D01*
X180500295Y-188402438D01*
X181107438Y-188878628D02*
X181869342Y-188878628D01*
X181476485Y-188211961D02*
X181262200Y-189926247D01*
X181333628Y-190116723D01*
X181512200Y-190211961D01*
X181702676Y-190211961D01*
X182655057Y-190211961D02*
X182476485Y-190116723D01*
X182405057Y-189926247D01*
X182619342Y-188211961D01*
X184190771Y-190116723D02*
X183988390Y-190211961D01*
X183607438Y-190211961D01*
X183428866Y-190116723D01*
X183357438Y-189926247D01*
X183452676Y-189164342D01*
X183571723Y-188973866D01*
X183774104Y-188878628D01*
X184155057Y-188878628D01*
X184333628Y-188973866D01*
X184405057Y-189164342D01*
X184381247Y-189354819D01*
X183405057Y-189545295D01*
X185155057Y-190021485D02*
X185238390Y-190116723D01*
X185131247Y-190211961D01*
X185047914Y-190116723D01*
X185155057Y-190021485D01*
X185131247Y-190211961D01*
X185286009Y-188973866D02*
X185369342Y-189069104D01*
X185262200Y-189164342D01*
X185178866Y-189069104D01*
X185286009Y-188973866D01*
X185262200Y-189164342D01*
X188774104Y-190021485D02*
X188666961Y-190116723D01*
X188369342Y-190211961D01*
X188178866Y-190211961D01*
X187905057Y-190116723D01*
X187738390Y-189926247D01*
X187666961Y-189735771D01*
X187619342Y-189354819D01*
X187655057Y-189069104D01*
X187797914Y-188688152D01*
X187916961Y-188497676D01*
X188131247Y-188307200D01*
X188428866Y-188211961D01*
X188619342Y-188211961D01*
X188893152Y-188307200D01*
X188976485Y-188402438D01*
X189607438Y-190211961D02*
X189857438Y-188211961D01*
X190464580Y-190211961D02*
X190595533Y-189164342D01*
X190524104Y-188973866D01*
X190345533Y-188878628D01*
X190059819Y-188878628D01*
X189857438Y-188973866D01*
X189750295Y-189069104D01*
X192440771Y-188878628D02*
X192274104Y-190211961D01*
X191583628Y-188878628D02*
X191452676Y-189926247D01*
X191524104Y-190116723D01*
X191702676Y-190211961D01*
X191988390Y-190211961D01*
X192190771Y-190116723D01*
X192297914Y-190021485D01*
X193226485Y-190211961D02*
X193476485Y-188211961D01*
X193381247Y-188973866D02*
X193583628Y-188878628D01*
X193964580Y-188878628D01*
X194143152Y-188973866D01*
X194226485Y-189069104D01*
X194297914Y-189259580D01*
X194226485Y-189831009D01*
X194107438Y-190021485D01*
X194000295Y-190116723D01*
X193797914Y-190211961D01*
X193416961Y-190211961D01*
X193238390Y-190116723D01*
X195036009Y-190211961D02*
X195286009Y-188211961D01*
X195190771Y-188973866D02*
X195393152Y-188878628D01*
X195774104Y-188878628D01*
X195952676Y-188973866D01*
X196036009Y-189069104D01*
X196107438Y-189259580D01*
X196036009Y-189831009D01*
X195916961Y-190021485D01*
X195809819Y-190116723D01*
X195607438Y-190211961D01*
X195226485Y-190211961D01*
X195047914Y-190116723D01*
X196821723Y-188878628D02*
X197131247Y-190211961D01*
X197774104Y-188878628D02*
X197131247Y-190211961D01*
X196881247Y-190688152D01*
X196774104Y-190783390D01*
X196571723Y-190878628D01*
X199893152Y-190211961D02*
X200143152Y-188211961D01*
X200024104Y-189164342D02*
X201166961Y-189164342D01*
X201036009Y-190211961D02*
X201286009Y-188211961D01*
X202845533Y-190211961D02*
X202976485Y-189164342D01*
X202905057Y-188973866D01*
X202726485Y-188878628D01*
X202345533Y-188878628D01*
X202143152Y-188973866D01*
X202857438Y-190116723D02*
X202655057Y-190211961D01*
X202178866Y-190211961D01*
X202000295Y-190116723D01*
X201928866Y-189926247D01*
X201952676Y-189735771D01*
X202071723Y-189545295D01*
X202274104Y-189450057D01*
X202750295Y-189450057D01*
X202952676Y-189354819D01*
X203678866Y-188878628D02*
X204440771Y-188878628D01*
X204047914Y-188211961D02*
X203833628Y-189926247D01*
X203905057Y-190116723D01*
X204083628Y-190211961D01*
X204274104Y-190211961D01*
D10*
D11*
X178934342Y-185600057D02*
X178434342Y-185600057D01*
X178434342Y-186385771D02*
X178434342Y-184885771D01*
X179148628Y-184885771D01*
X179720057Y-186385771D02*
X179720057Y-185385771D01*
X179720057Y-184885771D02*
X179648628Y-184957200D01*
X179720057Y-185028628D01*
X179791485Y-184957200D01*
X179720057Y-184885771D01*
X179720057Y-185028628D01*
X180648628Y-186385771D02*
X180505771Y-186314342D01*
X180434342Y-186171485D01*
X180434342Y-184885771D01*
X181791485Y-186314342D02*
X181648628Y-186385771D01*
X181362914Y-186385771D01*
X181220057Y-186314342D01*
X181148628Y-186171485D01*
X181148628Y-185600057D01*
X181220057Y-185457200D01*
X181362914Y-185385771D01*
X181648628Y-185385771D01*
X181791485Y-185457200D01*
X181862914Y-185600057D01*
X181862914Y-185742914D01*
X181148628Y-185885771D01*
X182505771Y-186242914D02*
X182577200Y-186314342D01*
X182505771Y-186385771D01*
X182434342Y-186314342D01*
X182505771Y-186242914D01*
X182505771Y-186385771D01*
X182505771Y-185457200D02*
X182577200Y-185528628D01*
X182505771Y-185600057D01*
X182434342Y-185528628D01*
X182505771Y-185457200D01*
X182505771Y-185600057D01*
X185005771Y-186314342D02*
X184862914Y-186385771D01*
X184577200Y-186385771D01*
X184434342Y-186314342D01*
X184362914Y-186242914D01*
X184291485Y-186100057D01*
X184291485Y-185671485D01*
X184362914Y-185528628D01*
X184434342Y-185457200D01*
X184577200Y-185385771D01*
X184862914Y-185385771D01*
X185005771Y-185457200D01*
X185648628Y-186385771D02*
X185648628Y-184885771D01*
X186291485Y-186385771D02*
X186291485Y-185600057D01*
X186220057Y-185457200D01*
X186077200Y-185385771D01*
X185862914Y-185385771D01*
X185720057Y-185457200D01*
X185648628Y-185528628D01*
X187648628Y-185385771D02*
X187648628Y-186385771D01*
X187005771Y-185385771D02*
X187005771Y-186171485D01*
X187077200Y-186314342D01*
X187220057Y-186385771D01*
X187434342Y-186385771D01*
X187577200Y-186314342D01*
X187648628Y-186242914D01*
X188362914Y-186385771D02*
X188362914Y-184885771D01*
X188362914Y-185457200D02*
X188505771Y-185385771D01*
X188791485Y-185385771D01*
X188934342Y-185457200D01*
X189005771Y-185528628D01*
X189077200Y-185671485D01*
X189077200Y-186100057D01*
X189005771Y-186242914D01*
X188934342Y-186314342D01*
X188791485Y-186385771D01*
X188505771Y-186385771D01*
X188362914Y-186314342D01*
X189720057Y-186385771D02*
X189720057Y-184885771D01*
X189720057Y-185457200D02*
X189862914Y-185385771D01*
X190148628Y-185385771D01*
X190291485Y-185457200D01*
X190362914Y-185528628D01*
X190434342Y-185671485D01*
X190434342Y-186100057D01*
X190362914Y-186242914D01*
X190291485Y-186314342D01*
X190148628Y-186385771D01*
X189862914Y-186385771D01*
X189720057Y-186314342D01*
X190934342Y-185385771D02*
X191291485Y-186385771D01*
X191648628Y-185385771D02*
X191291485Y-186385771D01*
X191148628Y-186742914D01*
X191077200Y-186814342D01*
X190934342Y-186885771D01*
X192220057Y-185814342D02*
X193362914Y-185814342D01*
X194077200Y-186385771D02*
X194077200Y-184885771D01*
X194720057Y-186385771D02*
X194720057Y-185600057D01*
X194648628Y-185457200D01*
X194505771Y-185385771D01*
X194291485Y-185385771D01*
X194148628Y-185457200D01*
X194077200Y-185528628D01*
X196077200Y-186385771D02*
X196077200Y-185600057D01*
X196005771Y-185457200D01*
X195862914Y-185385771D01*
X195577200Y-185385771D01*
X195434342Y-185457200D01*
X196077200Y-186314342D02*
X195934342Y-186385771D01*
X195577200Y-186385771D01*
X195434342Y-186314342D01*
X195362914Y-186171485D01*
X195362914Y-186028628D01*
X195434342Y-185885771D01*
X195577200Y-185814342D01*
X195934342Y-185814342D01*
X196077200Y-185742914D01*
X196577200Y-185385771D02*
X197148628Y-185385771D01*
X196791485Y-184885771D02*
X196791485Y-186171485D01*
X196862914Y-186314342D01*
X197005771Y-186385771D01*
X197148628Y-186385771D01*
X197648628Y-186242914D02*
X197720057Y-186314342D01*
X197648628Y-186385771D01*
X197577200Y-186314342D01*
X197648628Y-186242914D01*
X197648628Y-186385771D01*
X198362914Y-186385771D02*
X198362914Y-184885771D01*
X198505771Y-185814342D02*
X198934342Y-186385771D01*
X198934342Y-185385771D02*
X198362914Y-185957200D01*
X199577200Y-186385771D02*
X199577200Y-185385771D01*
X199577200Y-184885771D02*
X199505771Y-184957200D01*
X199577200Y-185028628D01*
X199648628Y-184957200D01*
X199577200Y-184885771D01*
X199577200Y-185028628D01*
X200934342Y-186314342D02*
X200791485Y-186385771D01*
X200505771Y-186385771D01*
X200362914Y-186314342D01*
X200291485Y-186242914D01*
X200220057Y-186100057D01*
X200220057Y-185671485D01*
X200291485Y-185528628D01*
X200362914Y-185457200D01*
X200505771Y-185385771D01*
X200791485Y-185385771D01*
X200934342Y-185457200D01*
X202220057Y-186385771D02*
X202220057Y-185600057D01*
X202148628Y-185457200D01*
X202005771Y-185385771D01*
X201720057Y-185385771D01*
X201577200Y-185457200D01*
X202220057Y-186314342D02*
X202077200Y-186385771D01*
X201720057Y-186385771D01*
X201577200Y-186314342D01*
X201505771Y-186171485D01*
X201505771Y-186028628D01*
X201577200Y-185885771D01*
X201720057Y-185814342D01*
X202077200Y-185814342D01*
X202220057Y-185742914D01*
X203577200Y-186385771D02*
X203577200Y-184885771D01*
X203577200Y-186314342D02*
X203434342Y-186385771D01*
X203148628Y-186385771D01*
X203005771Y-186314342D01*
X202934342Y-186242914D01*
X202862914Y-186100057D01*
X202862914Y-185671485D01*
X202934342Y-185528628D01*
X203005771Y-185457200D01*
X203148628Y-185385771D01*
X203434342Y-185385771D01*
X203577200Y-185457200D01*
X203934342Y-186528628D02*
X205077200Y-186528628D01*
X205434342Y-185385771D02*
X205434342Y-186885771D01*
X205434342Y-185457200D02*
X205577200Y-185385771D01*
X205862914Y-185385771D01*
X206005771Y-185457200D01*
X206077200Y-185528628D01*
X206148628Y-185671485D01*
X206148628Y-186100057D01*
X206077200Y-186242914D01*
X206005771Y-186314342D01*
X205862914Y-186385771D01*
X205577200Y-186385771D01*
X205434342Y-186314342D01*
X207434342Y-186314342D02*
X207291485Y-186385771D01*
X207005771Y-186385771D01*
X206862914Y-186314342D01*
X206791485Y-186242914D01*
X206720057Y-186100057D01*
X206720057Y-185671485D01*
X206791485Y-185528628D01*
X206862914Y-185457200D01*
X207005771Y-185385771D01*
X207291485Y-185385771D01*
X207434342Y-185457200D01*
X208077200Y-186385771D02*
X208077200Y-184885771D01*
X208077200Y-185457200D02*
X208220057Y-185385771D01*
X208505771Y-185385771D01*
X208648628Y-185457200D01*
X208720057Y-185528628D01*
X208791485Y-185671485D01*
X208791485Y-186100057D01*
X208720057Y-186242914D01*
X208648628Y-186314342D01*
X208505771Y-186385771D01*
X208220057Y-186385771D01*
X208077200Y-186314342D01*
D10*
D11*
X177002200Y-181507200D02*
X285002200Y-181507200D01*
D10*
D11*
X178362914Y-183614342D02*
X178577200Y-183685771D01*
X178934342Y-183685771D01*
X179077200Y-183614342D01*
X179148628Y-183542914D01*
X179220057Y-183400057D01*
X179220057Y-183257200D01*
X179148628Y-183114342D01*
X179077200Y-183042914D01*
X178934342Y-182971485D01*
X178648628Y-182900057D01*
X178505771Y-182828628D01*
X178434342Y-182757200D01*
X178362914Y-182614342D01*
X178362914Y-182471485D01*
X178434342Y-182328628D01*
X178505771Y-182257200D01*
X178648628Y-182185771D01*
X179005771Y-182185771D01*
X179220057Y-182257200D01*
X179862914Y-183685771D02*
X179862914Y-182185771D01*
X180505771Y-183685771D02*
X180505771Y-182900057D01*
X180434342Y-182757200D01*
X180291485Y-182685771D01*
X180077200Y-182685771D01*
X179934342Y-182757200D01*
X179862914Y-182828628D01*
X181791485Y-183614342D02*
X181648628Y-183685771D01*
X181362914Y-183685771D01*
X181220057Y-183614342D01*
X181148628Y-183471485D01*
X181148628Y-182900057D01*
X181220057Y-182757200D01*
X181362914Y-182685771D01*
X181648628Y-182685771D01*
X181791485Y-182757200D01*
X181862914Y-182900057D01*
X181862914Y-183042914D01*
X181148628Y-183185771D01*
X183077200Y-183614342D02*
X182934342Y-183685771D01*
X182648628Y-183685771D01*
X182505771Y-183614342D01*
X182434342Y-183471485D01*
X182434342Y-182900057D01*
X182505771Y-182757200D01*
X182648628Y-182685771D01*
X182934342Y-182685771D01*
X183077200Y-182757200D01*
X183148628Y-182900057D01*
X183148628Y-183042914D01*
X182434342Y-183185771D01*
X183577200Y-182685771D02*
X184148628Y-182685771D01*
X183791485Y-182185771D02*
X183791485Y-183471485D01*
X183862914Y-183614342D01*
X184005771Y-183685771D01*
X184148628Y-183685771D01*
X184648628Y-183542914D02*
X184720057Y-183614342D01*
X184648628Y-183685771D01*
X184577200Y-183614342D01*
X184648628Y-183542914D01*
X184648628Y-183685771D01*
X184648628Y-182757200D02*
X184720057Y-182828628D01*
X184648628Y-182900057D01*
X184577200Y-182828628D01*
X184648628Y-182757200D01*
X184648628Y-182900057D01*
D10*
D12*
D10*
D11*
X179077200Y-176685771D02*
X179077200Y-177900057D01*
X179005771Y-178042914D01*
X178934342Y-178114342D01*
X178791485Y-178185771D01*
X178577200Y-178185771D01*
X178434342Y-178114342D01*
X179077200Y-177614342D02*
X178934342Y-177685771D01*
X178648628Y-177685771D01*
X178505771Y-177614342D01*
X178434342Y-177542914D01*
X178362914Y-177400057D01*
X178362914Y-176971485D01*
X178434342Y-176828628D01*
X178505771Y-176757200D01*
X178648628Y-176685771D01*
X178934342Y-176685771D01*
X179077200Y-176757200D01*
X179791485Y-177685771D02*
X179791485Y-176685771D01*
X179791485Y-176185771D02*
X179720057Y-176257200D01*
X179791485Y-176328628D01*
X179862914Y-176257200D01*
X179791485Y-176185771D01*
X179791485Y-176328628D01*
X180291485Y-176685771D02*
X180862914Y-176685771D01*
X180505771Y-176185771D02*
X180505771Y-177471485D01*
X180577200Y-177614342D01*
X180720057Y-177685771D01*
X180862914Y-177685771D01*
X181362914Y-177685771D02*
X181362914Y-176185771D01*
X182005771Y-177685771D02*
X182005771Y-176900057D01*
X181934342Y-176757200D01*
X181791485Y-176685771D01*
X181577200Y-176685771D01*
X181434342Y-176757200D01*
X181362914Y-176828628D01*
X183362914Y-176685771D02*
X183362914Y-177685771D01*
X182720057Y-176685771D02*
X182720057Y-177471485D01*
X182791485Y-177614342D01*
X182934342Y-177685771D01*
X183148628Y-177685771D01*
X183291485Y-177614342D01*
X183362914Y-177542914D01*
X184077200Y-177685771D02*
X184077200Y-176185771D01*
X184077200Y-176757200D02*
X184220057Y-176685771D01*
X184505771Y-176685771D01*
X184648628Y-176757200D01*
X184720057Y-176828628D01*
X184791485Y-176971485D01*
X184791485Y-177400057D01*
X184720057Y-177542914D01*
X184648628Y-177614342D01*
X184505771Y-177685771D01*
X184220057Y-177685771D01*
X184077200Y-177614342D01*
X185434342Y-177542914D02*
X185505771Y-177614342D01*
X185434342Y-177685771D01*
X185362914Y-177614342D01*
X185434342Y-177542914D01*
X185434342Y-177685771D01*
X186791485Y-177614342D02*
X186648628Y-177685771D01*
X186362914Y-177685771D01*
X186220057Y-177614342D01*
X186148628Y-177542914D01*
X186077200Y-177400057D01*
X186077200Y-176971485D01*
X186148628Y-176828628D01*
X186220057Y-176757200D01*
X186362914Y-176685771D01*
X186648628Y-176685771D01*
X186791485Y-176757200D01*
X187648628Y-177685771D02*
X187505771Y-177614342D01*
X187434342Y-177542914D01*
X187362914Y-177400057D01*
X187362914Y-176971485D01*
X187434342Y-176828628D01*
X187505771Y-176757200D01*
X187648628Y-176685771D01*
X187862914Y-176685771D01*
X188005771Y-176757200D01*
X188077200Y-176828628D01*
X188148628Y-176971485D01*
X188148628Y-177400057D01*
X188077200Y-177542914D01*
X188005771Y-177614342D01*
X187862914Y-177685771D01*
X187648628Y-177685771D01*
X188791485Y-177685771D02*
X188791485Y-176685771D01*
X188791485Y-176828628D02*
X188862914Y-176757200D01*
X189005771Y-176685771D01*
X189220057Y-176685771D01*
X189362914Y-176757200D01*
X189434342Y-176900057D01*
X189434342Y-177685771D01*
X189434342Y-176900057D02*
X189505771Y-176757200D01*
X189648628Y-176685771D01*
X189862914Y-176685771D01*
X190005771Y-176757200D01*
X190077200Y-176900057D01*
X190077200Y-177685771D01*
X191862914Y-176114342D02*
X190577200Y-178042914D01*
X193005771Y-177614342D02*
X192862914Y-177685771D01*
X192577200Y-177685771D01*
X192434342Y-177614342D01*
X192362914Y-177542914D01*
X192291485Y-177400057D01*
X192291485Y-176971485D01*
X192362914Y-176828628D01*
X192434342Y-176757200D01*
X192577200Y-176685771D01*
X192862914Y-176685771D01*
X193005771Y-176757200D01*
X193505771Y-176685771D02*
X193862914Y-177685771D01*
X194220057Y-176685771D02*
X193862914Y-177685771D01*
X193720057Y-178042914D01*
X193648628Y-178114342D01*
X193505771Y-178185771D01*
X194791485Y-177685771D02*
X194791485Y-176185771D01*
X194791485Y-176757200D02*
X194934342Y-176685771D01*
X195220057Y-176685771D01*
X195362914Y-176757200D01*
X195434342Y-176828628D01*
X195505771Y-176971485D01*
X195505771Y-177400057D01*
X195434342Y-177542914D01*
X195362914Y-177614342D01*
X195220057Y-177685771D01*
X194934342Y-177685771D01*
X194791485Y-177614342D01*
X196720057Y-177614342D02*
X196577200Y-177685771D01*
X196291485Y-177685771D01*
X196148628Y-177614342D01*
X196077200Y-177471485D01*
X196077200Y-176900057D01*
X196148628Y-176757200D01*
X196291485Y-176685771D01*
X196577200Y-176685771D01*
X196720057Y-176757200D01*
X196791485Y-176900057D01*
X196791485Y-177042914D01*
X196077200Y-177185771D01*
X197434342Y-177685771D02*
X197434342Y-176685771D01*
X197434342Y-176971485D02*
X197505771Y-176828628D01*
X197577200Y-176757200D01*
X197720057Y-176685771D01*
X197862914Y-176685771D01*
X198362914Y-177114342D02*
X199505771Y-177114342D01*
X200220057Y-177685771D02*
X200220057Y-176685771D01*
X200220057Y-176828628D02*
X200291485Y-176757200D01*
X200434342Y-176685771D01*
X200648628Y-176685771D01*
X200791485Y-176757200D01*
X200862914Y-176900057D01*
X200862914Y-177685771D01*
X200862914Y-176900057D02*
X200934342Y-176757200D01*
X201077200Y-176685771D01*
X201291485Y-176685771D01*
X201434342Y-176757200D01*
X201505771Y-176900057D01*
X201505771Y-177685771D01*
X202862914Y-176685771D02*
X202862914Y-177685771D01*
X202220057Y-176685771D02*
X202220057Y-177471485D01*
X202291485Y-177614342D01*
X202434342Y-177685771D01*
X202648628Y-177685771D01*
X202791485Y-177614342D01*
X202862914Y-177542914D01*
X203577200Y-177685771D02*
X203577200Y-176685771D01*
X203577200Y-176971485D02*
X203648628Y-176828628D01*
X203720057Y-176757200D01*
X203862914Y-176685771D01*
X204005771Y-176685771D01*
X204505771Y-177685771D02*
X204505771Y-176685771D01*
X204505771Y-176828628D02*
X204577200Y-176757200D01*
X204720057Y-176685771D01*
X204934342Y-176685771D01*
X205077200Y-176757200D01*
X205148628Y-176900057D01*
X205148628Y-177685771D01*
X205148628Y-176900057D02*
X205220057Y-176757200D01*
X205362914Y-176685771D01*
X205577200Y-176685771D01*
X205720057Y-176757200D01*
X205791485Y-176900057D01*
X205791485Y-177685771D01*
X207077200Y-177614342D02*
X206934342Y-177685771D01*
X206648628Y-177685771D01*
X206505771Y-177614342D01*
X206434342Y-177471485D01*
X206434342Y-176900057D01*
X206505771Y-176757200D01*
X206648628Y-176685771D01*
X206934342Y-176685771D01*
X207077200Y-176757200D01*
X207148628Y-176900057D01*
X207148628Y-177042914D01*
X206434342Y-177185771D01*
X208005771Y-177685771D02*
X207862914Y-177614342D01*
X207791485Y-177471485D01*
X207791485Y-176185771D01*
X209648628Y-176114342D02*
X208362914Y-178042914D01*
X210791485Y-177614342D02*
X210648628Y-177685771D01*
X210362914Y-177685771D01*
X210220057Y-177614342D01*
X210148628Y-177542914D01*
X210077200Y-177400057D01*
X210077200Y-176971485D01*
X210148628Y-176828628D01*
X210220057Y-176757200D01*
X210362914Y-176685771D01*
X210648628Y-176685771D01*
X210791485Y-176757200D01*
X211434342Y-177685771D02*
X211434342Y-176185771D01*
X212077200Y-177685771D02*
X212077200Y-176900057D01*
X212005771Y-176757200D01*
X211862914Y-176685771D01*
X211648628Y-176685771D01*
X211505771Y-176757200D01*
X211434342Y-176828628D01*
X213434342Y-176685771D02*
X213434342Y-177685771D01*
X212791485Y-176685771D02*
X212791485Y-177471485D01*
X212862914Y-177614342D01*
X213005771Y-177685771D01*
X213220057Y-177685771D01*
X213362914Y-177614342D01*
X213434342Y-177542914D01*
X214148628Y-177685771D02*
X214148628Y-176185771D01*
X214148628Y-176757200D02*
X214291485Y-176685771D01*
X214577200Y-176685771D01*
X214720057Y-176757200D01*
X214791485Y-176828628D01*
X214862914Y-176971485D01*
X214862914Y-177400057D01*
X214791485Y-177542914D01*
X214720057Y-177614342D01*
X214577200Y-177685771D01*
X214291485Y-177685771D01*
X214148628Y-177614342D01*
X215505771Y-177685771D02*
X215505771Y-176185771D01*
X215505771Y-176757200D02*
X215648628Y-176685771D01*
X215934342Y-176685771D01*
X216077200Y-176757200D01*
X216148628Y-176828628D01*
X216220057Y-176971485D01*
X216220057Y-177400057D01*
X216148628Y-177542914D01*
X216077200Y-177614342D01*
X215934342Y-177685771D01*
X215648628Y-177685771D01*
X215505771Y-177614342D01*
X216720057Y-176685771D02*
X217077200Y-177685771D01*
X217434342Y-176685771D02*
X217077200Y-177685771D01*
X216934342Y-178042914D01*
X216862914Y-178114342D01*
X216720057Y-178185771D01*
X218005771Y-177114342D02*
X219148628Y-177114342D01*
X219862914Y-177685771D02*
X219862914Y-176185771D01*
X220505771Y-177685771D02*
X220505771Y-176900057D01*
X220434342Y-176757200D01*
X220291485Y-176685771D01*
X220077200Y-176685771D01*
X219934342Y-176757200D01*
X219862914Y-176828628D01*
X221862914Y-177685771D02*
X221862914Y-176900057D01*
X221791485Y-176757200D01*
X221648628Y-176685771D01*
X221362914Y-176685771D01*
X221220057Y-176757200D01*
X221862914Y-177614342D02*
X221720057Y-177685771D01*
X221362914Y-177685771D01*
X221220057Y-177614342D01*
X221148628Y-177471485D01*
X221148628Y-177328628D01*
X221220057Y-177185771D01*
X221362914Y-177114342D01*
X221720057Y-177114342D01*
X221862914Y-177042914D01*
X222362914Y-176685771D02*
X222934342Y-176685771D01*
X222577200Y-176185771D02*
X222577200Y-177471485D01*
X222648628Y-177614342D01*
X222791485Y-177685771D01*
X222934342Y-177685771D01*
D10*
D11*
D10*
D11*
D10*
D11*
D10*
D11*
X197002200Y-191507200D02*
X197002200Y-194507200D01*
D10*
D11*
X261002200Y-191507200D02*
X261002200Y-198007200D01*
D14*
%TO.C,REF\u002A\u002A*%
X167640000Y-40005000D03*
X167640000Y-40005000D03*
%TD*%
%TO.C,REF\u002A\u002A*%
X266065000Y-122555000D03*
X266065000Y-122555000D03*
%TD*%
%TO.C,REF\u002A\u002A*%
X266065000Y-40005000D03*
X266065000Y-40005000D03*
%TD*%
D15*
%TO.C,J17*%
X148675000Y-73150000D03*
X148675000Y-74250000D03*
X148675000Y-75350000D03*
X148675000Y-76450000D03*
X148675000Y-77550000D03*
X148675000Y-78650000D03*
X148675000Y-79750000D03*
X148675000Y-80850000D03*
X147325000Y-80850000D03*
X147325000Y-79750000D03*
X147325000Y-78650000D03*
X147325000Y-77550000D03*
X147325000Y-76450000D03*
X147325000Y-75350000D03*
X147325000Y-74250000D03*
X147325000Y-73150000D03*
D16*
X145850000Y-74500000D03*
X150150000Y-79500000D03*
X150150000Y-74500000D03*
X145850000Y-79500000D03*
%TD*%
D17*
%TO.C,Pmod6*%
X213360000Y-123190000D03*
D18*
X213360000Y-125730000D03*
X215900000Y-123190000D03*
X215900000Y-125730000D03*
X218440000Y-123190000D03*
X218440000Y-125730000D03*
X220980000Y-123190000D03*
X220980000Y-125730000D03*
X223520000Y-123190000D03*
X223520000Y-125730000D03*
X226060000Y-123190000D03*
X226060000Y-125730000D03*
%TD*%
D19*
%TO.C,Pmod1*%
X203200000Y-39370000D03*
D18*
X203200000Y-36830000D03*
X200660000Y-39370000D03*
X200660000Y-36830000D03*
X198120000Y-39370000D03*
X198120000Y-36830000D03*
X195580000Y-39370000D03*
X195580000Y-36830000D03*
X193040000Y-39370000D03*
X193040000Y-36830000D03*
X190500000Y-39370000D03*
X190500000Y-36830000D03*
%TD*%
D20*
%TO.C,A1*%
X129540000Y-120650000D03*
X132080000Y-120650000D03*
X134620000Y-120650000D03*
X137160000Y-120650000D03*
X139700000Y-120650000D03*
X142240000Y-120650000D03*
X144780000Y-120650000D03*
X144780000Y-105410000D03*
X142240000Y-105410000D03*
X139700000Y-105410000D03*
X137160000Y-105410000D03*
X134620000Y-105410000D03*
X132080000Y-105410000D03*
X129540000Y-105410000D03*
%TD*%
D19*
%TO.C,Pmod3*%
X248920000Y-39370000D03*
D18*
X248920000Y-36830000D03*
X246380000Y-39370000D03*
X246380000Y-36830000D03*
X243840000Y-39370000D03*
X243840000Y-36830000D03*
X241300000Y-39370000D03*
X241300000Y-36830000D03*
X238760000Y-39370000D03*
X238760000Y-36830000D03*
X236220000Y-39370000D03*
X236220000Y-36830000D03*
%TD*%
D19*
%TO.C,Pmod2*%
X226060000Y-39370000D03*
D18*
X226060000Y-36830000D03*
X223520000Y-39370000D03*
X223520000Y-36830000D03*
X220980000Y-39370000D03*
X220980000Y-36830000D03*
X218440000Y-39370000D03*
X218440000Y-36830000D03*
X215900000Y-39370000D03*
X215900000Y-36830000D03*
X213360000Y-39370000D03*
X213360000Y-36830000D03*
%TD*%
D21*
%TO.C,J19*%
X146400000Y-51400000D03*
X151000000Y-51400000D03*
D22*
X151000000Y-64000000D03*
D23*
X146400000Y-64000000D03*
%TD*%
D24*
%TO.C,J12*%
X211540000Y-68460000D03*
D25*
X206460000Y-72016000D03*
X211540000Y-71000000D03*
D24*
X211540000Y-73540000D03*
X208365000Y-68460000D03*
D25*
X206460000Y-69984000D03*
D24*
X208365000Y-73540000D03*
%TD*%
D17*
%TO.C,J13*%
X266700000Y-81279999D03*
D18*
X269240000Y-81279999D03*
%TD*%
D26*
%TO.C,Pmod7*%
X266700000Y-99059999D03*
D18*
X269240000Y-99059999D03*
X266700000Y-96519999D03*
X269240000Y-96519999D03*
X266700000Y-93979999D03*
X269240000Y-93979999D03*
X266700000Y-91439999D03*
X269240000Y-91439999D03*
X266700000Y-88899999D03*
X269240000Y-88899999D03*
X266700000Y-86359999D03*
X269240000Y-86359999D03*
%TD*%
D26*
%TO.C,J15*%
X208280000Y-39370000D03*
D18*
X208280000Y-36830000D03*
%TD*%
D26*
%TO.C,J14*%
X231140000Y-39370000D03*
D18*
X231140000Y-36830000D03*
%TD*%
D27*
%TO.C,J9*%
X163000000Y-122000000D03*
X157000000Y-125600000D03*
X157000000Y-122000000D03*
X163000000Y-125600000D03*
D28*
X169000000Y-122000000D03*
D29*
X169000000Y-125600000D03*
%TD*%
D30*
%TO.C,J10*%
X200660000Y-86360000D03*
D31*
X198120000Y-86360000D03*
X200660000Y-83820000D03*
X198120000Y-83820000D03*
X200660000Y-81280000D03*
X198120000Y-81280000D03*
X200660000Y-78740000D03*
X198120000Y-78740000D03*
X200660000Y-76200000D03*
X198120000Y-76200000D03*
%TD*%
D17*
%TO.C,Pmod5*%
X190500000Y-123190000D03*
D18*
X190500000Y-125730000D03*
X193040000Y-123190000D03*
X193040000Y-125730000D03*
X195580000Y-123190000D03*
X195580000Y-125730000D03*
X198120000Y-123190000D03*
X198120000Y-125730000D03*
X200660000Y-123190000D03*
X200660000Y-125730000D03*
X203200000Y-123190000D03*
X203200000Y-125730000D03*
%TD*%
D32*
%TO.C,J16*%
X208280000Y-123190000D03*
D18*
X208280000Y-125730000D03*
%TD*%
D26*
%TO.C,Pmod4*%
X266700000Y-76199999D03*
D18*
X269240000Y-76199999D03*
X266700000Y-73659999D03*
X269240000Y-73659999D03*
X266700000Y-71119999D03*
X269240000Y-71119999D03*
X266700000Y-68579999D03*
X269240000Y-68579999D03*
X266700000Y-66039999D03*
X269240000Y-66039999D03*
X266700000Y-63499999D03*
X269240000Y-63499999D03*
%TD*%
D33*
%TO.C,J11*%
X208280000Y-83819999D03*
D34*
X207010000Y-83819999D03*
X208280000Y-82549999D03*
X207010000Y-82549999D03*
X208280000Y-81279999D03*
X207010000Y-81279999D03*
X208280000Y-80009999D03*
X207010000Y-80009999D03*
X208280000Y-78739999D03*
X207010000Y-78739999D03*
%TD*%
D35*
%TO.C,Y1*%
X178100000Y-72850000D03*
X175900000Y-72850000D03*
X175900000Y-71150000D03*
X178100000Y-71150000D03*
%TD*%
D36*
%TO.C,C5*%
X147225000Y-85000000D03*
X148775000Y-85000000D03*
%TD*%
D37*
%TO.C,J6*%
X190260848Y-112881847D03*
D38*
X191334298Y-110579825D03*
X192562870Y-113955297D03*
X193636320Y-111653276D03*
X194864892Y-115028748D03*
X195938342Y-112726726D03*
X197166913Y-116102198D03*
X198240364Y-113800176D03*
X199468935Y-117175649D03*
X200542386Y-114873627D03*
X201770957Y-118249099D03*
X202844407Y-115947077D03*
X204072979Y-119322549D03*
X205146429Y-117020528D03*
X206375000Y-120396000D03*
X207448451Y-118093978D03*
%TD*%
D39*
%TO.C,R7*%
X159175000Y-78000000D03*
X160825000Y-78000000D03*
%TD*%
D40*
%TO.C,R3*%
X148825000Y-83000000D03*
X147175000Y-83000000D03*
%TD*%
D37*
%TO.C,J8*%
X244870848Y-112881847D03*
D38*
X245944298Y-110579825D03*
X247172870Y-113955297D03*
X248246320Y-111653276D03*
X249474892Y-115028748D03*
X250548342Y-112726726D03*
X251776913Y-116102198D03*
X252850364Y-113800176D03*
X254078935Y-117175649D03*
X255152386Y-114873627D03*
X256380957Y-118249099D03*
X257454407Y-115947077D03*
X258682979Y-119322549D03*
X259756429Y-117020528D03*
X260985000Y-120396000D03*
X262058451Y-118093978D03*
%TD*%
D41*
%TO.C,J2*%
X233680000Y-42164000D03*
D42*
X234753450Y-44466022D03*
X231377978Y-43237450D03*
X232451429Y-45539472D03*
X229075956Y-44310901D03*
X230149407Y-46612923D03*
X226773935Y-45384351D03*
X227847385Y-47686373D03*
X224471913Y-46457802D03*
X225545363Y-48759823D03*
X222169891Y-47531252D03*
X223243341Y-49833274D03*
X219867869Y-48604702D03*
X220941320Y-50906724D03*
X217565848Y-49678153D03*
X218639298Y-51980174D03*
%TD*%
D43*
%TO.C,FB1*%
X150999999Y-84787500D03*
X150999999Y-83212500D03*
%TD*%
D36*
%TO.C,C15*%
X176225000Y-79000000D03*
X177775000Y-79000000D03*
%TD*%
D44*
%TO.C,C8*%
X178000000Y-101775000D03*
X178000000Y-100225000D03*
%TD*%
D45*
%TO.C,C19*%
X160775000Y-74000000D03*
X159225000Y-74000000D03*
%TD*%
%TO.C,C13*%
X160775000Y-72000000D03*
X159225000Y-72000000D03*
%TD*%
%TO.C,C14*%
X160775000Y-80000000D03*
X159225000Y-80000000D03*
%TD*%
D41*
%TO.C,J1*%
X260985000Y-42164000D03*
D42*
X262058450Y-44466022D03*
X258682978Y-43237450D03*
X259756429Y-45539472D03*
X256380956Y-44310901D03*
X257454407Y-46612923D03*
X254078935Y-45384351D03*
X255152385Y-47686373D03*
X251776913Y-46457802D03*
X252850363Y-48759823D03*
X249474891Y-47531252D03*
X250548341Y-49833274D03*
X247172869Y-48604702D03*
X248246320Y-50906724D03*
X244870848Y-49678153D03*
X245944298Y-51980174D03*
%TD*%
D46*
%TO.C,C6*%
X153000000Y-83225000D03*
X153000000Y-84775000D03*
%TD*%
D47*
%TO.C,U3*%
X155137500Y-76050000D03*
X155137500Y-77000000D03*
X155137500Y-77950000D03*
X152862500Y-77950000D03*
X152862500Y-77000000D03*
X152862500Y-76050000D03*
%TD*%
D39*
%TO.C,R2*%
X147175000Y-71000000D03*
X148825000Y-71000000D03*
%TD*%
D44*
%TO.C,C16*%
X165000000Y-67775000D03*
X165000000Y-66225000D03*
%TD*%
D37*
%TO.C,J5*%
X162955848Y-112881847D03*
D38*
X164029298Y-110579825D03*
X165257870Y-113955297D03*
X166331320Y-111653276D03*
X167559892Y-115028748D03*
X168633342Y-112726726D03*
X169861913Y-116102198D03*
X170935364Y-113800176D03*
X172163935Y-117175649D03*
X173237386Y-114873627D03*
X174465957Y-118249099D03*
X175539407Y-115947077D03*
X176767979Y-119322549D03*
X177841429Y-117020528D03*
X179070000Y-120396000D03*
X180143451Y-118093978D03*
%TD*%
D36*
%TO.C,C11*%
X176225000Y-69000000D03*
X177775000Y-69000000D03*
%TD*%
D48*
%TO.C,U5*%
X165400000Y-71562500D03*
X165800000Y-71562500D03*
X166200000Y-71562500D03*
X166600000Y-71562500D03*
X167000000Y-71562500D03*
X167400000Y-71562500D03*
X167800000Y-71562500D03*
X168200000Y-71562500D03*
X168600000Y-71562500D03*
X169000000Y-71562500D03*
X169400000Y-71562500D03*
X169800000Y-71562500D03*
X170200000Y-71562500D03*
X170600000Y-71562500D03*
D49*
X171437500Y-72400000D03*
X171437500Y-72800000D03*
X171437500Y-73200000D03*
X171437500Y-73600000D03*
X171437500Y-74000000D03*
X171437500Y-74400000D03*
X171437500Y-74800000D03*
X171437500Y-75200000D03*
X171437500Y-75600000D03*
X171437500Y-76000000D03*
X171437500Y-76400000D03*
X171437500Y-76800000D03*
X171437500Y-77200000D03*
X171437500Y-77600000D03*
D48*
X170600000Y-78437500D03*
X170200000Y-78437500D03*
X169800000Y-78437500D03*
X169400000Y-78437500D03*
X169000000Y-78437500D03*
X168600000Y-78437500D03*
X168200000Y-78437500D03*
X167800000Y-78437500D03*
X167400000Y-78437500D03*
X167000000Y-78437500D03*
X166600000Y-78437500D03*
X166200000Y-78437500D03*
X165800000Y-78437500D03*
X165400000Y-78437500D03*
D49*
X164562500Y-77600000D03*
X164562500Y-77200000D03*
X164562500Y-76800000D03*
X164562500Y-76400000D03*
X164562500Y-76000000D03*
X164562500Y-75600000D03*
X164562500Y-75200000D03*
X164562500Y-74800000D03*
X164562500Y-74400000D03*
X164562500Y-74000000D03*
X164562500Y-73600000D03*
X164562500Y-73200000D03*
X164562500Y-72800000D03*
X164562500Y-72400000D03*
D50*
X168000000Y-75000000D03*
%TD*%
D45*
%TO.C,C10*%
X155775000Y-67000000D03*
X154225000Y-67000000D03*
%TD*%
%TO.C,C7*%
X154775000Y-80000000D03*
X153225000Y-80000000D03*
%TD*%
D40*
%TO.C,R8*%
X177825000Y-75000000D03*
X176175000Y-75000000D03*
%TD*%
D37*
%TO.C,J7*%
X217565848Y-112881847D03*
D38*
X218639298Y-110579825D03*
X219867870Y-113955297D03*
X220941320Y-111653276D03*
X222169892Y-115028748D03*
X223243342Y-112726726D03*
X224471913Y-116102198D03*
X225545364Y-113800176D03*
X226773935Y-117175649D03*
X227847386Y-114873627D03*
X229075957Y-118249099D03*
X230149407Y-115947077D03*
X231377979Y-119322549D03*
X232451429Y-117020528D03*
X233680000Y-120396000D03*
X234753451Y-118093978D03*
%TD*%
D51*
%TO.C,U4*%
X158095000Y-61400000D03*
X159365000Y-61400000D03*
X160635000Y-61400000D03*
X161905000Y-61400000D03*
X161905000Y-68600000D03*
X160635000Y-68600000D03*
X159365000Y-68600000D03*
X158095000Y-68600000D03*
%TD*%
D52*
%TO.C,U1*%
X154850000Y-94300000D03*
D53*
X161150000Y-92000000D03*
D52*
X154850000Y-92000000D03*
X154850000Y-89700000D03*
%TD*%
D41*
%TO.C,J4*%
X179070000Y-42164000D03*
D42*
X180143450Y-44466022D03*
X176767978Y-43237450D03*
X177841429Y-45539472D03*
X174465956Y-44310901D03*
X175539407Y-46612923D03*
X172163935Y-45384351D03*
X173237385Y-47686373D03*
X169861913Y-46457802D03*
X170935363Y-48759823D03*
X167559891Y-47531252D03*
X168633341Y-49833274D03*
X165257869Y-48604702D03*
X166331320Y-50906724D03*
X162955848Y-49678153D03*
X164029298Y-51980174D03*
%TD*%
D54*
%TO.C,R5*%
X154000000Y-64825000D03*
X154000000Y-63175000D03*
%TD*%
D36*
%TO.C,C17*%
X176225000Y-77000000D03*
X177775000Y-77000000D03*
%TD*%
D44*
%TO.C,C12*%
X180000000Y-72775000D03*
X180000000Y-71225000D03*
%TD*%
D40*
%TO.C,R6*%
X160825000Y-76000000D03*
X159175000Y-76000000D03*
%TD*%
D44*
%TO.C,C9*%
X180000000Y-101775000D03*
X180000000Y-100225000D03*
%TD*%
D55*
%TO.C,U2*%
X129540000Y-104140000D03*
D20*
X129540000Y-105410000D03*
D55*
X132080000Y-104140000D03*
D20*
X132080000Y-105410000D03*
X134620000Y-105410000D03*
D55*
X134620000Y-104140000D03*
D20*
X137160000Y-105410000D03*
D55*
X137160000Y-104140000D03*
D20*
X139700000Y-105410000D03*
D55*
X139700000Y-104140000D03*
D20*
X142240000Y-105410000D03*
D55*
X142240000Y-104140000D03*
X144780000Y-104140000D03*
D20*
X144780000Y-105410000D03*
D55*
X147320000Y-104140000D03*
D20*
X147320000Y-105410000D03*
D55*
X149860000Y-104140000D03*
D20*
X149860000Y-105410000D03*
X149860000Y-107950000D03*
D56*
X151130000Y-107950000D03*
X151130000Y-110490000D03*
D20*
X149860000Y-110490000D03*
X149860000Y-113030000D03*
D56*
X151130000Y-113030000D03*
D20*
X149860000Y-115570000D03*
D56*
X151130000Y-115570000D03*
D20*
X149860000Y-118110000D03*
D56*
X151130000Y-118110000D03*
D55*
X149860000Y-121920000D03*
D20*
X149860000Y-120650000D03*
X147320000Y-120650000D03*
D55*
X147320000Y-121920000D03*
X144780000Y-121920000D03*
D20*
X144780000Y-120650000D03*
X142240000Y-120650000D03*
D55*
X142240000Y-121920000D03*
D20*
X139700000Y-120650000D03*
D55*
X139700000Y-121920000D03*
X137160000Y-121920000D03*
D20*
X137160000Y-120650000D03*
D55*
X134620000Y-121920000D03*
D20*
X134620000Y-120650000D03*
X132080000Y-120650000D03*
D55*
X132080000Y-121920000D03*
X129540000Y-121920000D03*
D20*
X129540000Y-120650000D03*
%TD*%
D44*
%TO.C,C4*%
X164000000Y-92775000D03*
X164000000Y-91225000D03*
%TD*%
D19*
%TO.C,J20*%
X177800000Y-97155000D03*
D18*
X180340000Y-97155000D03*
%TD*%
D41*
%TO.C,J3*%
X206375000Y-42164000D03*
D42*
X207448450Y-44466022D03*
X204072978Y-43237450D03*
X205146429Y-45539472D03*
X201770956Y-44310901D03*
X202844407Y-46612923D03*
X199468935Y-45384351D03*
X200542385Y-47686373D03*
X197166913Y-46457802D03*
X198240363Y-48759823D03*
X194864891Y-47531252D03*
X195938341Y-49833274D03*
X192562869Y-48604702D03*
X193636320Y-50906724D03*
X190260848Y-49678153D03*
X191334298Y-51980174D03*
%TD*%
D46*
%TO.C,C18*%
X163000000Y-82225000D03*
X163000000Y-83775000D03*
%TD*%
D44*
%TO.C,C1*%
X152000000Y-92775000D03*
X152000000Y-91225000D03*
%TD*%
D32*
%TO.C,J18*%
X191516000Y-85598000D03*
D18*
X191516000Y-83058000D03*
X191516000Y-80518000D03*
X191516000Y-77978000D03*
%TD*%
D44*
%TO.C,C2*%
X150000000Y-92775000D03*
X150000000Y-91225000D03*
%TD*%
D57*
%TO.C,Q1*%
X155050000Y-83062500D03*
X156950000Y-83062500D03*
X156000000Y-84937500D03*
%TD*%
D44*
%TO.C,C21*%
X170000000Y-67775000D03*
X170000000Y-66225000D03*
%TD*%
%TO.C,C3*%
X166000000Y-92775000D03*
X166000000Y-91225000D03*
%TD*%
D54*
%TO.C,R4*%
X156000000Y-64825000D03*
X156000000Y-63175000D03*
%TD*%
D40*
%TO.C,R1*%
X148824999Y-69000000D03*
X147174999Y-69000000D03*
%TD*%
D46*
%TO.C,C22*%
X169000000Y-82225000D03*
X169000000Y-83775000D03*
%TD*%
%TO.C,C20*%
X165000000Y-82225000D03*
X165000000Y-83775000D03*
%TD*%
G36*
X207731222Y-83633636D02*
G01*
X207732000Y-83635220D01*
X207732000Y-84007754D01*
X207731000Y-84009486D01*
X207729000Y-84009486D01*
X207728098Y-84008372D01*
X207709202Y-83950216D01*
X207660253Y-83914652D01*
X207599751Y-83914652D01*
X207550636Y-83950337D01*
X207541678Y-83966530D01*
X207539965Y-83967562D01*
X207538215Y-83966594D01*
X207538080Y-83964797D01*
X207539310Y-83961827D01*
X207557983Y-83819999D01*
X207539310Y-83678171D01*
X207538477Y-83676159D01*
X207538738Y-83674176D01*
X207540586Y-83673411D01*
X207541886Y-83674144D01*
X207576253Y-83717042D01*
X207634613Y-83733007D01*
X207691210Y-83711621D01*
X207724535Y-83660888D01*
X207728018Y-83634954D01*
X207729239Y-83633370D01*
X207731222Y-83633636D01*
G37*
G36*
X207010000Y-83097982D02*
G01*
X207106723Y-83085248D01*
X207108571Y-83086013D01*
X207108832Y-83087996D01*
X207108011Y-83088947D01*
X207055627Y-83120298D01*
X207031889Y-83175951D01*
X207045396Y-83234926D01*
X207091178Y-83274865D01*
X207105603Y-83279719D01*
X207112817Y-83281531D01*
X207114253Y-83282923D01*
X207113766Y-83284863D01*
X207112069Y-83285454D01*
X207010000Y-83272016D01*
X206910776Y-83285080D01*
X206908928Y-83284315D01*
X206908667Y-83282332D01*
X206910048Y-83281152D01*
X206911647Y-83280768D01*
X206963517Y-83248982D01*
X206986670Y-83193083D01*
X206972546Y-83134252D01*
X206926340Y-83094789D01*
X206913875Y-83090594D01*
X206904322Y-83088088D01*
X206902900Y-83086681D01*
X206903407Y-83084746D01*
X206905090Y-83084170D01*
X207010000Y-83097982D01*
G37*
G36*
X208436910Y-83074145D02*
G01*
X208437675Y-83075993D01*
X208436719Y-83077448D01*
X208389604Y-83105644D01*
X208365866Y-83161296D01*
X208379373Y-83220273D01*
X208425058Y-83260128D01*
X208463774Y-83268040D01*
X208465271Y-83269366D01*
X208464871Y-83271326D01*
X208463374Y-83271999D01*
X208100368Y-83271999D01*
X208098636Y-83270999D01*
X208098636Y-83268999D01*
X208099750Y-83268097D01*
X208157906Y-83249201D01*
X208193470Y-83200252D01*
X208193470Y-83139750D01*
X208157824Y-83090688D01*
X208143636Y-83083966D01*
X208142499Y-83082321D01*
X208143355Y-83080514D01*
X208144753Y-83080176D01*
X208280000Y-83097982D01*
X208421828Y-83079309D01*
X208434927Y-83073884D01*
X208436910Y-83074145D01*
G37*
G36*
X207544266Y-82415569D02*
G01*
X207545286Y-82418269D01*
X207545401Y-82418736D01*
X207547892Y-82439328D01*
X207573505Y-82494508D01*
X207626371Y-82523933D01*
X207686437Y-82516665D01*
X207730857Y-82475388D01*
X207742460Y-82440302D01*
X207743953Y-82438972D01*
X207745852Y-82439600D01*
X207746342Y-82441191D01*
X207732017Y-82549999D01*
X207749210Y-82680591D01*
X207748445Y-82682439D01*
X207746462Y-82682700D01*
X207745349Y-82681539D01*
X207743364Y-82676114D01*
X207743254Y-82675646D01*
X207741775Y-82662246D01*
X207716739Y-82606799D01*
X207664185Y-82576823D01*
X207604047Y-82583463D01*
X207559197Y-82624273D01*
X207547827Y-82657483D01*
X207546320Y-82658798D01*
X207544428Y-82658150D01*
X207543952Y-82656574D01*
X207557983Y-82549999D01*
X207540412Y-82416537D01*
X207541177Y-82414689D01*
X207543160Y-82414428D01*
X207544266Y-82415569D01*
G37*
G36*
X207010000Y-81827982D02*
G01*
X207106723Y-81815248D01*
X207108571Y-81816013D01*
X207108832Y-81817996D01*
X207108011Y-81818947D01*
X207055627Y-81850298D01*
X207031889Y-81905951D01*
X207045396Y-81964926D01*
X207091178Y-82004865D01*
X207105603Y-82009719D01*
X207112817Y-82011531D01*
X207114253Y-82012923D01*
X207113766Y-82014863D01*
X207112069Y-82015454D01*
X207010000Y-82002016D01*
X206910776Y-82015080D01*
X206908928Y-82014315D01*
X206908667Y-82012332D01*
X206910048Y-82011152D01*
X206911647Y-82010768D01*
X206963517Y-81978982D01*
X206986670Y-81923083D01*
X206972546Y-81864252D01*
X206926340Y-81824789D01*
X206913875Y-81820594D01*
X206904322Y-81818088D01*
X206902900Y-81816681D01*
X206903407Y-81814746D01*
X206905090Y-81814170D01*
X207010000Y-81827982D01*
G37*
G36*
X208280000Y-81827982D02*
G01*
X208376723Y-81815248D01*
X208378571Y-81816013D01*
X208378832Y-81817996D01*
X208378011Y-81818947D01*
X208325627Y-81850298D01*
X208301889Y-81905951D01*
X208315396Y-81964926D01*
X208361178Y-82004865D01*
X208375603Y-82009719D01*
X208382817Y-82011531D01*
X208384253Y-82012923D01*
X208383766Y-82014863D01*
X208382069Y-82015454D01*
X208280000Y-82002016D01*
X208180776Y-82015080D01*
X208178928Y-82014315D01*
X208178667Y-82012332D01*
X208180048Y-82011152D01*
X208181647Y-82010768D01*
X208233517Y-81978982D01*
X208256670Y-81923083D01*
X208242546Y-81864252D01*
X208196340Y-81824789D01*
X208183875Y-81820594D01*
X208174322Y-81818088D01*
X208172900Y-81816681D01*
X208173407Y-81814746D01*
X208175090Y-81814170D01*
X208280000Y-81827982D01*
G37*
G36*
X207544266Y-81145569D02*
G01*
X207545286Y-81148269D01*
X207545401Y-81148736D01*
X207547892Y-81169328D01*
X207573505Y-81224508D01*
X207626371Y-81253933D01*
X207686437Y-81246665D01*
X207730857Y-81205388D01*
X207742460Y-81170302D01*
X207743953Y-81168972D01*
X207745852Y-81169600D01*
X207746342Y-81171191D01*
X207732017Y-81279999D01*
X207749210Y-81410591D01*
X207748445Y-81412439D01*
X207746462Y-81412700D01*
X207745349Y-81411539D01*
X207743364Y-81406114D01*
X207743254Y-81405646D01*
X207741775Y-81392246D01*
X207716739Y-81336799D01*
X207664185Y-81306823D01*
X207604047Y-81313463D01*
X207559197Y-81354273D01*
X207547827Y-81387483D01*
X207546320Y-81388798D01*
X207544428Y-81388150D01*
X207543952Y-81386574D01*
X207557983Y-81279999D01*
X207540412Y-81146537D01*
X207541177Y-81144689D01*
X207543160Y-81144428D01*
X207544266Y-81145569D01*
G37*
G36*
X208280000Y-80557982D02*
G01*
X208376723Y-80545248D01*
X208378571Y-80546013D01*
X208378832Y-80547996D01*
X208378011Y-80548947D01*
X208325627Y-80580298D01*
X208301889Y-80635951D01*
X208315396Y-80694926D01*
X208361178Y-80734865D01*
X208375603Y-80739719D01*
X208382817Y-80741531D01*
X208384253Y-80742923D01*
X208383766Y-80744863D01*
X208382069Y-80745454D01*
X208280000Y-80732016D01*
X208180776Y-80745080D01*
X208178928Y-80744315D01*
X208178667Y-80742332D01*
X208180048Y-80741152D01*
X208181647Y-80740768D01*
X208233517Y-80708982D01*
X208256670Y-80653083D01*
X208242546Y-80594252D01*
X208196340Y-80554789D01*
X208183875Y-80550594D01*
X208174322Y-80548088D01*
X208172900Y-80546681D01*
X208173407Y-80544746D01*
X208175090Y-80544170D01*
X208280000Y-80557982D01*
G37*
G36*
X207010000Y-80557982D02*
G01*
X207106723Y-80545248D01*
X207108571Y-80546013D01*
X207108832Y-80547996D01*
X207108011Y-80548947D01*
X207055627Y-80580298D01*
X207031889Y-80635951D01*
X207045396Y-80694926D01*
X207091178Y-80734865D01*
X207105603Y-80739719D01*
X207112817Y-80741531D01*
X207114253Y-80742923D01*
X207113766Y-80744863D01*
X207112069Y-80745454D01*
X207010000Y-80732016D01*
X206910776Y-80745080D01*
X206908928Y-80744315D01*
X206908667Y-80742332D01*
X206910048Y-80741152D01*
X206911647Y-80740768D01*
X206963517Y-80708982D01*
X206986670Y-80653083D01*
X206972546Y-80594252D01*
X206926340Y-80554789D01*
X206913875Y-80550594D01*
X206904322Y-80548088D01*
X206902900Y-80546681D01*
X206903407Y-80544746D01*
X206905090Y-80544170D01*
X207010000Y-80557982D01*
G37*
G36*
X207544266Y-79875569D02*
G01*
X207545286Y-79878269D01*
X207545401Y-79878736D01*
X207547892Y-79899328D01*
X207573505Y-79954508D01*
X207626371Y-79983933D01*
X207686437Y-79976665D01*
X207730857Y-79935388D01*
X207742460Y-79900302D01*
X207743953Y-79898972D01*
X207745852Y-79899600D01*
X207746342Y-79901191D01*
X207732017Y-80009999D01*
X207749210Y-80140591D01*
X207748445Y-80142439D01*
X207746462Y-80142700D01*
X207745349Y-80141539D01*
X207743364Y-80136114D01*
X207743254Y-80135646D01*
X207741775Y-80122246D01*
X207716739Y-80066799D01*
X207664185Y-80036823D01*
X207604047Y-80043463D01*
X207559197Y-80084273D01*
X207547827Y-80117483D01*
X207546320Y-80118798D01*
X207544428Y-80118150D01*
X207543952Y-80116574D01*
X207557983Y-80009999D01*
X207540412Y-79876537D01*
X207541177Y-79874689D01*
X207543160Y-79874428D01*
X207544266Y-79875569D01*
G37*
G36*
X208280000Y-79287982D02*
G01*
X208376723Y-79275248D01*
X208378571Y-79276013D01*
X208378832Y-79277996D01*
X208378011Y-79278947D01*
X208325627Y-79310298D01*
X208301889Y-79365951D01*
X208315396Y-79424926D01*
X208361178Y-79464865D01*
X208375603Y-79469719D01*
X208382817Y-79471531D01*
X208384253Y-79472923D01*
X208383766Y-79474863D01*
X208382069Y-79475454D01*
X208280000Y-79462016D01*
X208180776Y-79475080D01*
X208178928Y-79474315D01*
X208178667Y-79472332D01*
X208180048Y-79471152D01*
X208181647Y-79470768D01*
X208233517Y-79438982D01*
X208256670Y-79383083D01*
X208242546Y-79324252D01*
X208196340Y-79284789D01*
X208183875Y-79280594D01*
X208174322Y-79278088D01*
X208172900Y-79276681D01*
X208173407Y-79274746D01*
X208175090Y-79274170D01*
X208280000Y-79287982D01*
G37*
G36*
X207010000Y-79287982D02*
G01*
X207106723Y-79275248D01*
X207108571Y-79276013D01*
X207108832Y-79277996D01*
X207108011Y-79278947D01*
X207055627Y-79310298D01*
X207031889Y-79365951D01*
X207045396Y-79424926D01*
X207091178Y-79464865D01*
X207105603Y-79469719D01*
X207112817Y-79471531D01*
X207114253Y-79472923D01*
X207113766Y-79474863D01*
X207112069Y-79475454D01*
X207010000Y-79462016D01*
X206910776Y-79475080D01*
X206908928Y-79474315D01*
X206908667Y-79472332D01*
X206910048Y-79471152D01*
X206911647Y-79470768D01*
X206963517Y-79438982D01*
X206986670Y-79383083D01*
X206972546Y-79324252D01*
X206926340Y-79284789D01*
X206913875Y-79280594D01*
X206904322Y-79278088D01*
X206902900Y-79276681D01*
X206903407Y-79274746D01*
X206905090Y-79274170D01*
X207010000Y-79287982D01*
G37*
G36*
X167924612Y-77981802D02*
G01*
X167935011Y-77988750D01*
X167935138Y-77988842D01*
X167966116Y-78013264D01*
X168026571Y-78015640D01*
X168073913Y-77984010D01*
X168075909Y-77983879D01*
X168077020Y-77985542D01*
X168076687Y-77986784D01*
X168059497Y-78012511D01*
X168052000Y-78050199D01*
X168052000Y-78824801D01*
X168059497Y-78862489D01*
X168078162Y-78890424D01*
X168078293Y-78892420D01*
X168076630Y-78893531D01*
X168075388Y-78893198D01*
X168064989Y-78886250D01*
X168064862Y-78886158D01*
X168033884Y-78861736D01*
X167973429Y-78859360D01*
X167926087Y-78890990D01*
X167924091Y-78891121D01*
X167922980Y-78889458D01*
X167923313Y-78888216D01*
X167940503Y-78862489D01*
X167948000Y-78824801D01*
X167948000Y-78050199D01*
X167940503Y-78012511D01*
X167921838Y-77984576D01*
X167921707Y-77982580D01*
X167923370Y-77981469D01*
X167924612Y-77981802D01*
G37*
G36*
X168324612Y-77981802D02*
G01*
X168335011Y-77988750D01*
X168335138Y-77988842D01*
X168366116Y-78013264D01*
X168426571Y-78015640D01*
X168473913Y-77984010D01*
X168475909Y-77983879D01*
X168477020Y-77985542D01*
X168476687Y-77986784D01*
X168459497Y-78012511D01*
X168452000Y-78050199D01*
X168452000Y-78824801D01*
X168459497Y-78862489D01*
X168478162Y-78890424D01*
X168478293Y-78892420D01*
X168476630Y-78893531D01*
X168475388Y-78893198D01*
X168464989Y-78886250D01*
X168464862Y-78886158D01*
X168433884Y-78861736D01*
X168373429Y-78859360D01*
X168326087Y-78890990D01*
X168324091Y-78891121D01*
X168322980Y-78889458D01*
X168323313Y-78888216D01*
X168340503Y-78862489D01*
X168348000Y-78824801D01*
X168348000Y-78050199D01*
X168340503Y-78012511D01*
X168321838Y-77984576D01*
X168321707Y-77982580D01*
X168323370Y-77981469D01*
X168324612Y-77981802D01*
G37*
G36*
X167124612Y-77981802D02*
G01*
X167135011Y-77988750D01*
X167135138Y-77988842D01*
X167166116Y-78013264D01*
X167226571Y-78015640D01*
X167273913Y-77984010D01*
X167275909Y-77983879D01*
X167277020Y-77985542D01*
X167276687Y-77986784D01*
X167259497Y-78012511D01*
X167252000Y-78050199D01*
X167252000Y-78824801D01*
X167259497Y-78862489D01*
X167278162Y-78890424D01*
X167278293Y-78892420D01*
X167276630Y-78893531D01*
X167275388Y-78893198D01*
X167264989Y-78886250D01*
X167264862Y-78886158D01*
X167233884Y-78861736D01*
X167173429Y-78859360D01*
X167126087Y-78890990D01*
X167124091Y-78891121D01*
X167122980Y-78889458D01*
X167123313Y-78888216D01*
X167140503Y-78862489D01*
X167148000Y-78824801D01*
X167148000Y-78050199D01*
X167140503Y-78012511D01*
X167121838Y-77984576D01*
X167121707Y-77982580D01*
X167123370Y-77981469D01*
X167124612Y-77981802D01*
G37*
G36*
X168724612Y-77981802D02*
G01*
X168735011Y-77988750D01*
X168735138Y-77988842D01*
X168766116Y-78013264D01*
X168826571Y-78015640D01*
X168873913Y-77984010D01*
X168875909Y-77983879D01*
X168877020Y-77985542D01*
X168876687Y-77986784D01*
X168859497Y-78012511D01*
X168852000Y-78050199D01*
X168852000Y-78824801D01*
X168859497Y-78862489D01*
X168878162Y-78890424D01*
X168878293Y-78892420D01*
X168876630Y-78893531D01*
X168875388Y-78893198D01*
X168864989Y-78886250D01*
X168864862Y-78886158D01*
X168833884Y-78861736D01*
X168773429Y-78859360D01*
X168726087Y-78890990D01*
X168724091Y-78891121D01*
X168722980Y-78889458D01*
X168723313Y-78888216D01*
X168740503Y-78862489D01*
X168748000Y-78824801D01*
X168748000Y-78050199D01*
X168740503Y-78012511D01*
X168721838Y-77984576D01*
X168721707Y-77982580D01*
X168723370Y-77981469D01*
X168724612Y-77981802D01*
G37*
G36*
X166724612Y-77981802D02*
G01*
X166735011Y-77988750D01*
X166735138Y-77988842D01*
X166766116Y-78013264D01*
X166826571Y-78015640D01*
X166873913Y-77984010D01*
X166875909Y-77983879D01*
X166877020Y-77985542D01*
X166876687Y-77986784D01*
X166859497Y-78012511D01*
X166852000Y-78050199D01*
X166852000Y-78824801D01*
X166859497Y-78862489D01*
X166878162Y-78890424D01*
X166878293Y-78892420D01*
X166876630Y-78893531D01*
X166875388Y-78893198D01*
X166864989Y-78886250D01*
X166864862Y-78886158D01*
X166833884Y-78861736D01*
X166773429Y-78859360D01*
X166726087Y-78890990D01*
X166724091Y-78891121D01*
X166722980Y-78889458D01*
X166723313Y-78888216D01*
X166740503Y-78862489D01*
X166748000Y-78824801D01*
X166748000Y-78050199D01*
X166740503Y-78012511D01*
X166721838Y-77984576D01*
X166721707Y-77982580D01*
X166723370Y-77981469D01*
X166724612Y-77981802D01*
G37*
G36*
X169124612Y-77981802D02*
G01*
X169135011Y-77988750D01*
X169135138Y-77988842D01*
X169166116Y-78013264D01*
X169226571Y-78015640D01*
X169273913Y-77984010D01*
X169275909Y-77983879D01*
X169277020Y-77985542D01*
X169276687Y-77986784D01*
X169259497Y-78012511D01*
X169252000Y-78050199D01*
X169252000Y-78824801D01*
X169259497Y-78862489D01*
X169278162Y-78890424D01*
X169278293Y-78892420D01*
X169276630Y-78893531D01*
X169275388Y-78893198D01*
X169264989Y-78886250D01*
X169264862Y-78886158D01*
X169233884Y-78861736D01*
X169173429Y-78859360D01*
X169126087Y-78890990D01*
X169124091Y-78891121D01*
X169122980Y-78889458D01*
X169123313Y-78888216D01*
X169140503Y-78862489D01*
X169148000Y-78824801D01*
X169148000Y-78050199D01*
X169140503Y-78012511D01*
X169121838Y-77984576D01*
X169121707Y-77982580D01*
X169123370Y-77981469D01*
X169124612Y-77981802D01*
G37*
G36*
X166324612Y-77981802D02*
G01*
X166335011Y-77988750D01*
X166335138Y-77988842D01*
X166366116Y-78013264D01*
X166426571Y-78015640D01*
X166473913Y-77984010D01*
X166475909Y-77983879D01*
X166477020Y-77985542D01*
X166476687Y-77986784D01*
X166459497Y-78012511D01*
X166452000Y-78050199D01*
X166452000Y-78824801D01*
X166459497Y-78862489D01*
X166478162Y-78890424D01*
X166478293Y-78892420D01*
X166476630Y-78893531D01*
X166475388Y-78893198D01*
X166464989Y-78886250D01*
X166464862Y-78886158D01*
X166433884Y-78861736D01*
X166373429Y-78859360D01*
X166326087Y-78890990D01*
X166324091Y-78891121D01*
X166322980Y-78889458D01*
X166323313Y-78888216D01*
X166340503Y-78862489D01*
X166348000Y-78824801D01*
X166348000Y-78050199D01*
X166340503Y-78012511D01*
X166321838Y-77984576D01*
X166321707Y-77982580D01*
X166323370Y-77981469D01*
X166324612Y-77981802D01*
G37*
G36*
X169524612Y-77981802D02*
G01*
X169535011Y-77988750D01*
X169535138Y-77988842D01*
X169566116Y-78013264D01*
X169626571Y-78015640D01*
X169673913Y-77984010D01*
X169675909Y-77983879D01*
X169677020Y-77985542D01*
X169676687Y-77986784D01*
X169659497Y-78012511D01*
X169652000Y-78050199D01*
X169652000Y-78824801D01*
X169659497Y-78862489D01*
X169678162Y-78890424D01*
X169678293Y-78892420D01*
X169676630Y-78893531D01*
X169675388Y-78893198D01*
X169664989Y-78886250D01*
X169664862Y-78886158D01*
X169633884Y-78861736D01*
X169573429Y-78859360D01*
X169526087Y-78890990D01*
X169524091Y-78891121D01*
X169522980Y-78889458D01*
X169523313Y-78888216D01*
X169540503Y-78862489D01*
X169548000Y-78824801D01*
X169548000Y-78050199D01*
X169540503Y-78012511D01*
X169521838Y-77984576D01*
X169521707Y-77982580D01*
X169523370Y-77981469D01*
X169524612Y-77981802D01*
G37*
G36*
X165524612Y-77981802D02*
G01*
X165535011Y-77988750D01*
X165535138Y-77988842D01*
X165566116Y-78013264D01*
X165626571Y-78015640D01*
X165673913Y-77984010D01*
X165675909Y-77983879D01*
X165677020Y-77985542D01*
X165676687Y-77986784D01*
X165659497Y-78012511D01*
X165652000Y-78050199D01*
X165652000Y-78824801D01*
X165659497Y-78862489D01*
X165678162Y-78890424D01*
X165678293Y-78892420D01*
X165676630Y-78893531D01*
X165675388Y-78893198D01*
X165664989Y-78886250D01*
X165664862Y-78886158D01*
X165633884Y-78861736D01*
X165573429Y-78859360D01*
X165526087Y-78890990D01*
X165524091Y-78891121D01*
X165522980Y-78889458D01*
X165523313Y-78888216D01*
X165540503Y-78862489D01*
X165548000Y-78824801D01*
X165548000Y-78050199D01*
X165540503Y-78012511D01*
X165521838Y-77984576D01*
X165521707Y-77982580D01*
X165523370Y-77981469D01*
X165524612Y-77981802D01*
G37*
G36*
X169924612Y-77981802D02*
G01*
X169935011Y-77988750D01*
X169935138Y-77988842D01*
X169966116Y-78013264D01*
X170026571Y-78015640D01*
X170073913Y-77984010D01*
X170075909Y-77983879D01*
X170077020Y-77985542D01*
X170076687Y-77986784D01*
X170059497Y-78012511D01*
X170052000Y-78050199D01*
X170052000Y-78824801D01*
X170059497Y-78862489D01*
X170078162Y-78890424D01*
X170078293Y-78892420D01*
X170076630Y-78893531D01*
X170075388Y-78893198D01*
X170064989Y-78886250D01*
X170064862Y-78886158D01*
X170033884Y-78861736D01*
X169973429Y-78859360D01*
X169926087Y-78890990D01*
X169924091Y-78891121D01*
X169922980Y-78889458D01*
X169923313Y-78888216D01*
X169940503Y-78862489D01*
X169948000Y-78824801D01*
X169948000Y-78050199D01*
X169940503Y-78012511D01*
X169921838Y-77984576D01*
X169921707Y-77982580D01*
X169923370Y-77981469D01*
X169924612Y-77981802D01*
G37*
G36*
X165924612Y-77981802D02*
G01*
X165935011Y-77988750D01*
X165935138Y-77988842D01*
X165966116Y-78013264D01*
X166026571Y-78015640D01*
X166073913Y-77984010D01*
X166075909Y-77983879D01*
X166077020Y-77985542D01*
X166076687Y-77986784D01*
X166059497Y-78012511D01*
X166052000Y-78050199D01*
X166052000Y-78824801D01*
X166059497Y-78862489D01*
X166078162Y-78890424D01*
X166078293Y-78892420D01*
X166076630Y-78893531D01*
X166075388Y-78893198D01*
X166064989Y-78886250D01*
X166064862Y-78886158D01*
X166033884Y-78861736D01*
X165973429Y-78859360D01*
X165926087Y-78890990D01*
X165924091Y-78891121D01*
X165922980Y-78889458D01*
X165923313Y-78888216D01*
X165940503Y-78862489D01*
X165948000Y-78824801D01*
X165948000Y-78050199D01*
X165940503Y-78012511D01*
X165921838Y-77984576D01*
X165921707Y-77982580D01*
X165923370Y-77981469D01*
X165924612Y-77981802D01*
G37*
G36*
X170324612Y-77981802D02*
G01*
X170335011Y-77988750D01*
X170335138Y-77988842D01*
X170366116Y-78013264D01*
X170426571Y-78015640D01*
X170473913Y-77984010D01*
X170475909Y-77983879D01*
X170477020Y-77985542D01*
X170476687Y-77986784D01*
X170459497Y-78012511D01*
X170452000Y-78050199D01*
X170452000Y-78824801D01*
X170459497Y-78862489D01*
X170478162Y-78890424D01*
X170478293Y-78892420D01*
X170476630Y-78893531D01*
X170475388Y-78893198D01*
X170464989Y-78886250D01*
X170464862Y-78886158D01*
X170433884Y-78861736D01*
X170373429Y-78859360D01*
X170326087Y-78890990D01*
X170324091Y-78891121D01*
X170322980Y-78889458D01*
X170323313Y-78888216D01*
X170340503Y-78862489D01*
X170348000Y-78824801D01*
X170348000Y-78050199D01*
X170340503Y-78012511D01*
X170321838Y-77984576D01*
X170321707Y-77982580D01*
X170323370Y-77981469D01*
X170324612Y-77981802D01*
G37*
G36*
X167524612Y-77981802D02*
G01*
X167535011Y-77988750D01*
X167535138Y-77988842D01*
X167566116Y-78013264D01*
X167626571Y-78015640D01*
X167673913Y-77984010D01*
X167675909Y-77983879D01*
X167677020Y-77985542D01*
X167676687Y-77986784D01*
X167659497Y-78012511D01*
X167652000Y-78050199D01*
X167652000Y-78824801D01*
X167659497Y-78862489D01*
X167678162Y-78890424D01*
X167678293Y-78892420D01*
X167676630Y-78893531D01*
X167675388Y-78893198D01*
X167664989Y-78886250D01*
X167664862Y-78886158D01*
X167633884Y-78861736D01*
X167573429Y-78859360D01*
X167526087Y-78890990D01*
X167524091Y-78891121D01*
X167522980Y-78889458D01*
X167523313Y-78888216D01*
X167540503Y-78862489D01*
X167548000Y-78824801D01*
X167548000Y-78050199D01*
X167540503Y-78012511D01*
X167521838Y-77984576D01*
X167521707Y-77982580D01*
X167523370Y-77981469D01*
X167524612Y-77981802D01*
G37*
G36*
X207544266Y-78605569D02*
G01*
X207545286Y-78608269D01*
X207545401Y-78608736D01*
X207547892Y-78629328D01*
X207573505Y-78684508D01*
X207626371Y-78713933D01*
X207686437Y-78706665D01*
X207730857Y-78665388D01*
X207742460Y-78630302D01*
X207743953Y-78628972D01*
X207745852Y-78629600D01*
X207746342Y-78631191D01*
X207732017Y-78739999D01*
X207749210Y-78870591D01*
X207748445Y-78872439D01*
X207746462Y-78872700D01*
X207745349Y-78871539D01*
X207743364Y-78866114D01*
X207743254Y-78865646D01*
X207741775Y-78852246D01*
X207716739Y-78796799D01*
X207664185Y-78766823D01*
X207604047Y-78773463D01*
X207559197Y-78814273D01*
X207547827Y-78847483D01*
X207546320Y-78848798D01*
X207544428Y-78848150D01*
X207543952Y-78846574D01*
X207557983Y-78739999D01*
X207540412Y-78606537D01*
X207541177Y-78604689D01*
X207543160Y-78604428D01*
X207544266Y-78605569D01*
G37*
G36*
X165018531Y-77323370D02*
G01*
X165018198Y-77324612D01*
X165011250Y-77335011D01*
X165011158Y-77335138D01*
X164986736Y-77366116D01*
X164984360Y-77426571D01*
X165015990Y-77473913D01*
X165016121Y-77475909D01*
X165014458Y-77477020D01*
X165013216Y-77476687D01*
X164987489Y-77459497D01*
X164949801Y-77452000D01*
X164175199Y-77452000D01*
X164137511Y-77459497D01*
X164109576Y-77478162D01*
X164107580Y-77478293D01*
X164106469Y-77476630D01*
X164106802Y-77475388D01*
X164113750Y-77464989D01*
X164113842Y-77464862D01*
X164138264Y-77433884D01*
X164140640Y-77373429D01*
X164109010Y-77326087D01*
X164108879Y-77324091D01*
X164110542Y-77322980D01*
X164111784Y-77323313D01*
X164137511Y-77340503D01*
X164175199Y-77348000D01*
X164949801Y-77348000D01*
X164987489Y-77340503D01*
X165015424Y-77321838D01*
X165017420Y-77321707D01*
X165018531Y-77323370D01*
G37*
G36*
X171893531Y-77323370D02*
G01*
X171893198Y-77324612D01*
X171886250Y-77335011D01*
X171886158Y-77335138D01*
X171861736Y-77366116D01*
X171859360Y-77426571D01*
X171890990Y-77473913D01*
X171891121Y-77475909D01*
X171889458Y-77477020D01*
X171888216Y-77476687D01*
X171862489Y-77459497D01*
X171824801Y-77452000D01*
X171050199Y-77452000D01*
X171012511Y-77459497D01*
X170984576Y-77478162D01*
X170982580Y-77478293D01*
X170981469Y-77476630D01*
X170981802Y-77475388D01*
X170988750Y-77464989D01*
X170988842Y-77464862D01*
X171013264Y-77433884D01*
X171015640Y-77373429D01*
X170984010Y-77326087D01*
X170983879Y-77324091D01*
X170985542Y-77322980D01*
X170986784Y-77323313D01*
X171012511Y-77340503D01*
X171050199Y-77348000D01*
X171824801Y-77348000D01*
X171862489Y-77340503D01*
X171890424Y-77321838D01*
X171892420Y-77321707D01*
X171893531Y-77323370D01*
G37*
G36*
X171893531Y-76923370D02*
G01*
X171893198Y-76924612D01*
X171886250Y-76935011D01*
X171886158Y-76935138D01*
X171861736Y-76966116D01*
X171859360Y-77026571D01*
X171890990Y-77073913D01*
X171891121Y-77075909D01*
X171889458Y-77077020D01*
X171888216Y-77076687D01*
X171862489Y-77059497D01*
X171824801Y-77052000D01*
X171050199Y-77052000D01*
X171012511Y-77059497D01*
X170984576Y-77078162D01*
X170982580Y-77078293D01*
X170981469Y-77076630D01*
X170981802Y-77075388D01*
X170988750Y-77064989D01*
X170988842Y-77064862D01*
X171013264Y-77033884D01*
X171015640Y-76973429D01*
X170984010Y-76926087D01*
X170983879Y-76924091D01*
X170985542Y-76922980D01*
X170986784Y-76923313D01*
X171012511Y-76940503D01*
X171050199Y-76948000D01*
X171824801Y-76948000D01*
X171862489Y-76940503D01*
X171890424Y-76921838D01*
X171892420Y-76921707D01*
X171893531Y-76923370D01*
G37*
G36*
X165018531Y-76923370D02*
G01*
X165018198Y-76924612D01*
X165011250Y-76935011D01*
X165011158Y-76935138D01*
X164986736Y-76966116D01*
X164984360Y-77026571D01*
X165015990Y-77073913D01*
X165016121Y-77075909D01*
X165014458Y-77077020D01*
X165013216Y-77076687D01*
X164987489Y-77059497D01*
X164949801Y-77052000D01*
X164175199Y-77052000D01*
X164137511Y-77059497D01*
X164109576Y-77078162D01*
X164107580Y-77078293D01*
X164106469Y-77076630D01*
X164106802Y-77075388D01*
X164113750Y-77064989D01*
X164113842Y-77064862D01*
X164138264Y-77033884D01*
X164140640Y-76973429D01*
X164109010Y-76926087D01*
X164108879Y-76924091D01*
X164110542Y-76922980D01*
X164111784Y-76923313D01*
X164137511Y-76940503D01*
X164175199Y-76948000D01*
X164949801Y-76948000D01*
X164987489Y-76940503D01*
X165015424Y-76921838D01*
X165017420Y-76921707D01*
X165018531Y-76923370D01*
G37*
G36*
X171893531Y-76523370D02*
G01*
X171893198Y-76524612D01*
X171886250Y-76535011D01*
X171886158Y-76535138D01*
X171861736Y-76566116D01*
X171859360Y-76626571D01*
X171890990Y-76673913D01*
X171891121Y-76675909D01*
X171889458Y-76677020D01*
X171888216Y-76676687D01*
X171862489Y-76659497D01*
X171824801Y-76652000D01*
X171050199Y-76652000D01*
X171012511Y-76659497D01*
X170984576Y-76678162D01*
X170982580Y-76678293D01*
X170981469Y-76676630D01*
X170981802Y-76675388D01*
X170988750Y-76664989D01*
X170988842Y-76664862D01*
X171013264Y-76633884D01*
X171015640Y-76573429D01*
X170984010Y-76526087D01*
X170983879Y-76524091D01*
X170985542Y-76522980D01*
X170986784Y-76523313D01*
X171012511Y-76540503D01*
X171050199Y-76548000D01*
X171824801Y-76548000D01*
X171862489Y-76540503D01*
X171890424Y-76521838D01*
X171892420Y-76521707D01*
X171893531Y-76523370D01*
G37*
G36*
X165018531Y-76523370D02*
G01*
X165018198Y-76524612D01*
X165011250Y-76535011D01*
X165011158Y-76535138D01*
X164986736Y-76566116D01*
X164984360Y-76626571D01*
X165015990Y-76673913D01*
X165016121Y-76675909D01*
X165014458Y-76677020D01*
X165013216Y-76676687D01*
X164987489Y-76659497D01*
X164949801Y-76652000D01*
X164175199Y-76652000D01*
X164137511Y-76659497D01*
X164109576Y-76678162D01*
X164107580Y-76678293D01*
X164106469Y-76676630D01*
X164106802Y-76675388D01*
X164113750Y-76664989D01*
X164113842Y-76664862D01*
X164138264Y-76633884D01*
X164140640Y-76573429D01*
X164109010Y-76526087D01*
X164108879Y-76524091D01*
X164110542Y-76522980D01*
X164111784Y-76523313D01*
X164137511Y-76540503D01*
X164175199Y-76548000D01*
X164949801Y-76548000D01*
X164987489Y-76540503D01*
X165015424Y-76521838D01*
X165017420Y-76521707D01*
X165018531Y-76523370D01*
G37*
G36*
X165018531Y-76123370D02*
G01*
X165018198Y-76124612D01*
X165011250Y-76135011D01*
X165011158Y-76135138D01*
X164986736Y-76166116D01*
X164984360Y-76226571D01*
X165015990Y-76273913D01*
X165016121Y-76275909D01*
X165014458Y-76277020D01*
X165013216Y-76276687D01*
X164987489Y-76259497D01*
X164949801Y-76252000D01*
X164175199Y-76252000D01*
X164137511Y-76259497D01*
X164109576Y-76278162D01*
X164107580Y-76278293D01*
X164106469Y-76276630D01*
X164106802Y-76275388D01*
X164113750Y-76264989D01*
X164113842Y-76264862D01*
X164138264Y-76233884D01*
X164140640Y-76173429D01*
X164109010Y-76126087D01*
X164108879Y-76124091D01*
X164110542Y-76122980D01*
X164111784Y-76123313D01*
X164137511Y-76140503D01*
X164175199Y-76148000D01*
X164949801Y-76148000D01*
X164987489Y-76140503D01*
X165015424Y-76121838D01*
X165017420Y-76121707D01*
X165018531Y-76123370D01*
G37*
G36*
X171893531Y-76123370D02*
G01*
X171893198Y-76124612D01*
X171886250Y-76135011D01*
X171886158Y-76135138D01*
X171861736Y-76166116D01*
X171859360Y-76226571D01*
X171890990Y-76273913D01*
X171891121Y-76275909D01*
X171889458Y-76277020D01*
X171888216Y-76276687D01*
X171862489Y-76259497D01*
X171824801Y-76252000D01*
X171050199Y-76252000D01*
X171012511Y-76259497D01*
X170984576Y-76278162D01*
X170982580Y-76278293D01*
X170981469Y-76276630D01*
X170981802Y-76275388D01*
X170988750Y-76264989D01*
X170988842Y-76264862D01*
X171013264Y-76233884D01*
X171015640Y-76173429D01*
X170984010Y-76126087D01*
X170983879Y-76124091D01*
X170985542Y-76122980D01*
X170986784Y-76123313D01*
X171012511Y-76140503D01*
X171050199Y-76148000D01*
X171824801Y-76148000D01*
X171862489Y-76140503D01*
X171890424Y-76121838D01*
X171892420Y-76121707D01*
X171893531Y-76123370D01*
G37*
G36*
X165018531Y-75723370D02*
G01*
X165018198Y-75724612D01*
X165011250Y-75735011D01*
X165011158Y-75735138D01*
X164986736Y-75766116D01*
X164984360Y-75826571D01*
X165015990Y-75873913D01*
X165016121Y-75875909D01*
X165014458Y-75877020D01*
X165013216Y-75876687D01*
X164987489Y-75859497D01*
X164949801Y-75852000D01*
X164175199Y-75852000D01*
X164137511Y-75859497D01*
X164109576Y-75878162D01*
X164107580Y-75878293D01*
X164106469Y-75876630D01*
X164106802Y-75875388D01*
X164113750Y-75864989D01*
X164113842Y-75864862D01*
X164138264Y-75833884D01*
X164140640Y-75773429D01*
X164109010Y-75726087D01*
X164108879Y-75724091D01*
X164110542Y-75722980D01*
X164111784Y-75723313D01*
X164137511Y-75740503D01*
X164175199Y-75748000D01*
X164949801Y-75748000D01*
X164987489Y-75740503D01*
X165015424Y-75721838D01*
X165017420Y-75721707D01*
X165018531Y-75723370D01*
G37*
G36*
X171893531Y-75723370D02*
G01*
X171893198Y-75724612D01*
X171886250Y-75735011D01*
X171886158Y-75735138D01*
X171861736Y-75766116D01*
X171859360Y-75826571D01*
X171890990Y-75873913D01*
X171891121Y-75875909D01*
X171889458Y-75877020D01*
X171888216Y-75876687D01*
X171862489Y-75859497D01*
X171824801Y-75852000D01*
X171050199Y-75852000D01*
X171012511Y-75859497D01*
X170984576Y-75878162D01*
X170982580Y-75878293D01*
X170981469Y-75876630D01*
X170981802Y-75875388D01*
X170988750Y-75864989D01*
X170988842Y-75864862D01*
X171013264Y-75833884D01*
X171015640Y-75773429D01*
X170984010Y-75726087D01*
X170983879Y-75724091D01*
X170985542Y-75722980D01*
X170986784Y-75723313D01*
X171012511Y-75740503D01*
X171050199Y-75748000D01*
X171824801Y-75748000D01*
X171862489Y-75740503D01*
X171890424Y-75721838D01*
X171892420Y-75721707D01*
X171893531Y-75723370D01*
G37*
G36*
X165018531Y-75323370D02*
G01*
X165018198Y-75324612D01*
X165011250Y-75335011D01*
X165011158Y-75335138D01*
X164986736Y-75366116D01*
X164984360Y-75426571D01*
X165015990Y-75473913D01*
X165016121Y-75475909D01*
X165014458Y-75477020D01*
X165013216Y-75476687D01*
X164987489Y-75459497D01*
X164949801Y-75452000D01*
X164175199Y-75452000D01*
X164137511Y-75459497D01*
X164109576Y-75478162D01*
X164107580Y-75478293D01*
X164106469Y-75476630D01*
X164106802Y-75475388D01*
X164113750Y-75464989D01*
X164113842Y-75464862D01*
X164138264Y-75433884D01*
X164140640Y-75373429D01*
X164109010Y-75326087D01*
X164108879Y-75324091D01*
X164110542Y-75322980D01*
X164111784Y-75323313D01*
X164137511Y-75340503D01*
X164175199Y-75348000D01*
X164949801Y-75348000D01*
X164987489Y-75340503D01*
X165015424Y-75321838D01*
X165017420Y-75321707D01*
X165018531Y-75323370D01*
G37*
G36*
X171893531Y-75323370D02*
G01*
X171893198Y-75324612D01*
X171886250Y-75335011D01*
X171886158Y-75335138D01*
X171861736Y-75366116D01*
X171859360Y-75426571D01*
X171890990Y-75473913D01*
X171891121Y-75475909D01*
X171889458Y-75477020D01*
X171888216Y-75476687D01*
X171862489Y-75459497D01*
X171824801Y-75452000D01*
X171050199Y-75452000D01*
X171012511Y-75459497D01*
X170984576Y-75478162D01*
X170982580Y-75478293D01*
X170981469Y-75476630D01*
X170981802Y-75475388D01*
X170988750Y-75464989D01*
X170988842Y-75464862D01*
X171013264Y-75433884D01*
X171015640Y-75373429D01*
X170984010Y-75326087D01*
X170983879Y-75324091D01*
X170985542Y-75322980D01*
X170986784Y-75323313D01*
X171012511Y-75340503D01*
X171050199Y-75348000D01*
X171824801Y-75348000D01*
X171862489Y-75340503D01*
X171890424Y-75321838D01*
X171892420Y-75321707D01*
X171893531Y-75323370D01*
G37*
G36*
X165018531Y-74923370D02*
G01*
X165018198Y-74924612D01*
X165011250Y-74935011D01*
X165011158Y-74935138D01*
X164986736Y-74966116D01*
X164984360Y-75026571D01*
X165015990Y-75073913D01*
X165016121Y-75075909D01*
X165014458Y-75077020D01*
X165013216Y-75076687D01*
X164987489Y-75059497D01*
X164949801Y-75052000D01*
X164175199Y-75052000D01*
X164137511Y-75059497D01*
X164109576Y-75078162D01*
X164107580Y-75078293D01*
X164106469Y-75076630D01*
X164106802Y-75075388D01*
X164113750Y-75064989D01*
X164113842Y-75064862D01*
X164138264Y-75033884D01*
X164140640Y-74973429D01*
X164109010Y-74926087D01*
X164108879Y-74924091D01*
X164110542Y-74922980D01*
X164111784Y-74923313D01*
X164137511Y-74940503D01*
X164175199Y-74948000D01*
X164949801Y-74948000D01*
X164987489Y-74940503D01*
X165015424Y-74921838D01*
X165017420Y-74921707D01*
X165018531Y-74923370D01*
G37*
G36*
X171893531Y-74923370D02*
G01*
X171893198Y-74924612D01*
X171886250Y-74935011D01*
X171886158Y-74935138D01*
X171861736Y-74966116D01*
X171859360Y-75026571D01*
X171890990Y-75073913D01*
X171891121Y-75075909D01*
X171889458Y-75077020D01*
X171888216Y-75076687D01*
X171862489Y-75059497D01*
X171824801Y-75052000D01*
X171050199Y-75052000D01*
X171012511Y-75059497D01*
X170984576Y-75078162D01*
X170982580Y-75078293D01*
X170981469Y-75076630D01*
X170981802Y-75075388D01*
X170988750Y-75064989D01*
X170988842Y-75064862D01*
X171013264Y-75033884D01*
X171015640Y-74973429D01*
X170984010Y-74926087D01*
X170983879Y-74924091D01*
X170985542Y-74922980D01*
X170986784Y-74923313D01*
X171012511Y-74940503D01*
X171050199Y-74948000D01*
X171824801Y-74948000D01*
X171862489Y-74940503D01*
X171890424Y-74921838D01*
X171892420Y-74921707D01*
X171893531Y-74923370D01*
G37*
G36*
X165018531Y-74523370D02*
G01*
X165018198Y-74524612D01*
X165011250Y-74535011D01*
X165011158Y-74535138D01*
X164986736Y-74566116D01*
X164984360Y-74626571D01*
X165015990Y-74673913D01*
X165016121Y-74675909D01*
X165014458Y-74677020D01*
X165013216Y-74676687D01*
X164987489Y-74659497D01*
X164949801Y-74652000D01*
X164175199Y-74652000D01*
X164137511Y-74659497D01*
X164109576Y-74678162D01*
X164107580Y-74678293D01*
X164106469Y-74676630D01*
X164106802Y-74675388D01*
X164113750Y-74664989D01*
X164113842Y-74664862D01*
X164138264Y-74633884D01*
X164140640Y-74573429D01*
X164109010Y-74526087D01*
X164108879Y-74524091D01*
X164110542Y-74522980D01*
X164111784Y-74523313D01*
X164137511Y-74540503D01*
X164175199Y-74548000D01*
X164949801Y-74548000D01*
X164987489Y-74540503D01*
X165015424Y-74521838D01*
X165017420Y-74521707D01*
X165018531Y-74523370D01*
G37*
G36*
X171893531Y-74523370D02*
G01*
X171893198Y-74524612D01*
X171886250Y-74535011D01*
X171886158Y-74535138D01*
X171861736Y-74566116D01*
X171859360Y-74626571D01*
X171890990Y-74673913D01*
X171891121Y-74675909D01*
X171889458Y-74677020D01*
X171888216Y-74676687D01*
X171862489Y-74659497D01*
X171824801Y-74652000D01*
X171050199Y-74652000D01*
X171012511Y-74659497D01*
X170984576Y-74678162D01*
X170982580Y-74678293D01*
X170981469Y-74676630D01*
X170981802Y-74675388D01*
X170988750Y-74664989D01*
X170988842Y-74664862D01*
X171013264Y-74633884D01*
X171015640Y-74573429D01*
X170984010Y-74526087D01*
X170983879Y-74524091D01*
X170985542Y-74522980D01*
X170986784Y-74523313D01*
X171012511Y-74540503D01*
X171050199Y-74548000D01*
X171824801Y-74548000D01*
X171862489Y-74540503D01*
X171890424Y-74521838D01*
X171892420Y-74521707D01*
X171893531Y-74523370D01*
G37*
G36*
X165018531Y-74123370D02*
G01*
X165018198Y-74124612D01*
X165011250Y-74135011D01*
X165011158Y-74135138D01*
X164986736Y-74166116D01*
X164984360Y-74226571D01*
X165015990Y-74273913D01*
X165016121Y-74275909D01*
X165014458Y-74277020D01*
X165013216Y-74276687D01*
X164987489Y-74259497D01*
X164949801Y-74252000D01*
X164175199Y-74252000D01*
X164137511Y-74259497D01*
X164109576Y-74278162D01*
X164107580Y-74278293D01*
X164106469Y-74276630D01*
X164106802Y-74275388D01*
X164113750Y-74264989D01*
X164113842Y-74264862D01*
X164138264Y-74233884D01*
X164140640Y-74173429D01*
X164109010Y-74126087D01*
X164108879Y-74124091D01*
X164110542Y-74122980D01*
X164111784Y-74123313D01*
X164137511Y-74140503D01*
X164175199Y-74148000D01*
X164949801Y-74148000D01*
X164987489Y-74140503D01*
X165015424Y-74121838D01*
X165017420Y-74121707D01*
X165018531Y-74123370D01*
G37*
G36*
X171893531Y-74123370D02*
G01*
X171893198Y-74124612D01*
X171886250Y-74135011D01*
X171886158Y-74135138D01*
X171861736Y-74166116D01*
X171859360Y-74226571D01*
X171890990Y-74273913D01*
X171891121Y-74275909D01*
X171889458Y-74277020D01*
X171888216Y-74276687D01*
X171862489Y-74259497D01*
X171824801Y-74252000D01*
X171050199Y-74252000D01*
X171012511Y-74259497D01*
X170984576Y-74278162D01*
X170982580Y-74278293D01*
X170981469Y-74276630D01*
X170981802Y-74275388D01*
X170988750Y-74264989D01*
X170988842Y-74264862D01*
X171013264Y-74233884D01*
X171015640Y-74173429D01*
X170984010Y-74126087D01*
X170983879Y-74124091D01*
X170985542Y-74122980D01*
X170986784Y-74123313D01*
X171012511Y-74140503D01*
X171050199Y-74148000D01*
X171824801Y-74148000D01*
X171862489Y-74140503D01*
X171890424Y-74121838D01*
X171892420Y-74121707D01*
X171893531Y-74123370D01*
G37*
G36*
X165018531Y-73723370D02*
G01*
X165018198Y-73724612D01*
X165011250Y-73735011D01*
X165011158Y-73735138D01*
X164986736Y-73766116D01*
X164984360Y-73826571D01*
X165015990Y-73873913D01*
X165016121Y-73875909D01*
X165014458Y-73877020D01*
X165013216Y-73876687D01*
X164987489Y-73859497D01*
X164949801Y-73852000D01*
X164175199Y-73852000D01*
X164137511Y-73859497D01*
X164109576Y-73878162D01*
X164107580Y-73878293D01*
X164106469Y-73876630D01*
X164106802Y-73875388D01*
X164113750Y-73864989D01*
X164113842Y-73864862D01*
X164138264Y-73833884D01*
X164140640Y-73773429D01*
X164109010Y-73726087D01*
X164108879Y-73724091D01*
X164110542Y-73722980D01*
X164111784Y-73723313D01*
X164137511Y-73740503D01*
X164175199Y-73748000D01*
X164949801Y-73748000D01*
X164987489Y-73740503D01*
X165015424Y-73721838D01*
X165017420Y-73721707D01*
X165018531Y-73723370D01*
G37*
G36*
X171893531Y-73723370D02*
G01*
X171893198Y-73724612D01*
X171886250Y-73735011D01*
X171886158Y-73735138D01*
X171861736Y-73766116D01*
X171859360Y-73826571D01*
X171890990Y-73873913D01*
X171891121Y-73875909D01*
X171889458Y-73877020D01*
X171888216Y-73876687D01*
X171862489Y-73859497D01*
X171824801Y-73852000D01*
X171050199Y-73852000D01*
X171012511Y-73859497D01*
X170984576Y-73878162D01*
X170982580Y-73878293D01*
X170981469Y-73876630D01*
X170981802Y-73875388D01*
X170988750Y-73864989D01*
X170988842Y-73864862D01*
X171013264Y-73833884D01*
X171015640Y-73773429D01*
X170984010Y-73726087D01*
X170983879Y-73724091D01*
X170985542Y-73722980D01*
X170986784Y-73723313D01*
X171012511Y-73740503D01*
X171050199Y-73748000D01*
X171824801Y-73748000D01*
X171862489Y-73740503D01*
X171890424Y-73721838D01*
X171892420Y-73721707D01*
X171893531Y-73723370D01*
G37*
G36*
X171893531Y-73323370D02*
G01*
X171893198Y-73324612D01*
X171886250Y-73335011D01*
X171886158Y-73335138D01*
X171861736Y-73366116D01*
X171859360Y-73426571D01*
X171890990Y-73473913D01*
X171891121Y-73475909D01*
X171889458Y-73477020D01*
X171888216Y-73476687D01*
X171862489Y-73459497D01*
X171824801Y-73452000D01*
X171050199Y-73452000D01*
X171012511Y-73459497D01*
X170984576Y-73478162D01*
X170982580Y-73478293D01*
X170981469Y-73476630D01*
X170981802Y-73475388D01*
X170988750Y-73464989D01*
X170988842Y-73464862D01*
X171013264Y-73433884D01*
X171015640Y-73373429D01*
X170984010Y-73326087D01*
X170983879Y-73324091D01*
X170985542Y-73322980D01*
X170986784Y-73323313D01*
X171012511Y-73340503D01*
X171050199Y-73348000D01*
X171824801Y-73348000D01*
X171862489Y-73340503D01*
X171890424Y-73321838D01*
X171892420Y-73321707D01*
X171893531Y-73323370D01*
G37*
G36*
X165018531Y-73323370D02*
G01*
X165018198Y-73324612D01*
X165011250Y-73335011D01*
X165011158Y-73335138D01*
X164986736Y-73366116D01*
X164984360Y-73426571D01*
X165015990Y-73473913D01*
X165016121Y-73475909D01*
X165014458Y-73477020D01*
X165013216Y-73476687D01*
X164987489Y-73459497D01*
X164949801Y-73452000D01*
X164175199Y-73452000D01*
X164137511Y-73459497D01*
X164109576Y-73478162D01*
X164107580Y-73478293D01*
X164106469Y-73476630D01*
X164106802Y-73475388D01*
X164113750Y-73464989D01*
X164113842Y-73464862D01*
X164138264Y-73433884D01*
X164140640Y-73373429D01*
X164109010Y-73326087D01*
X164108879Y-73324091D01*
X164110542Y-73322980D01*
X164111784Y-73323313D01*
X164137511Y-73340503D01*
X164175199Y-73348000D01*
X164949801Y-73348000D01*
X164987489Y-73340503D01*
X165015424Y-73321838D01*
X165017420Y-73321707D01*
X165018531Y-73323370D01*
G37*
G36*
X165018531Y-72923370D02*
G01*
X165018198Y-72924612D01*
X165011250Y-72935011D01*
X165011158Y-72935138D01*
X164986736Y-72966116D01*
X164984360Y-73026571D01*
X165015990Y-73073913D01*
X165016121Y-73075909D01*
X165014458Y-73077020D01*
X165013216Y-73076687D01*
X164987489Y-73059497D01*
X164949801Y-73052000D01*
X164175199Y-73052000D01*
X164137511Y-73059497D01*
X164109576Y-73078162D01*
X164107580Y-73078293D01*
X164106469Y-73076630D01*
X164106802Y-73075388D01*
X164113750Y-73064989D01*
X164113842Y-73064862D01*
X164138264Y-73033884D01*
X164140640Y-72973429D01*
X164109010Y-72926087D01*
X164108879Y-72924091D01*
X164110542Y-72922980D01*
X164111784Y-72923313D01*
X164137511Y-72940503D01*
X164175199Y-72948000D01*
X164949801Y-72948000D01*
X164987489Y-72940503D01*
X165015424Y-72921838D01*
X165017420Y-72921707D01*
X165018531Y-72923370D01*
G37*
G36*
X171893531Y-72923370D02*
G01*
X171893198Y-72924612D01*
X171886250Y-72935011D01*
X171886158Y-72935138D01*
X171861736Y-72966116D01*
X171859360Y-73026571D01*
X171890990Y-73073913D01*
X171891121Y-73075909D01*
X171889458Y-73077020D01*
X171888216Y-73076687D01*
X171862489Y-73059497D01*
X171824801Y-73052000D01*
X171050199Y-73052000D01*
X171012511Y-73059497D01*
X170984576Y-73078162D01*
X170982580Y-73078293D01*
X170981469Y-73076630D01*
X170981802Y-73075388D01*
X170988750Y-73064989D01*
X170988842Y-73064862D01*
X171013264Y-73033884D01*
X171015640Y-72973429D01*
X170984010Y-72926087D01*
X170983879Y-72924091D01*
X170985542Y-72922980D01*
X170986784Y-72923313D01*
X171012511Y-72940503D01*
X171050199Y-72948000D01*
X171824801Y-72948000D01*
X171862489Y-72940503D01*
X171890424Y-72921838D01*
X171892420Y-72921707D01*
X171893531Y-72923370D01*
G37*
G36*
X165018531Y-72523370D02*
G01*
X165018198Y-72524612D01*
X165011250Y-72535011D01*
X165011158Y-72535138D01*
X164986736Y-72566116D01*
X164984360Y-72626571D01*
X165015990Y-72673913D01*
X165016121Y-72675909D01*
X165014458Y-72677020D01*
X165013216Y-72676687D01*
X164987489Y-72659497D01*
X164949801Y-72652000D01*
X164175199Y-72652000D01*
X164137511Y-72659497D01*
X164109576Y-72678162D01*
X164107580Y-72678293D01*
X164106469Y-72676630D01*
X164106802Y-72675388D01*
X164113750Y-72664989D01*
X164113842Y-72664862D01*
X164138264Y-72633884D01*
X164140640Y-72573429D01*
X164109010Y-72526087D01*
X164108879Y-72524091D01*
X164110542Y-72522980D01*
X164111784Y-72523313D01*
X164137511Y-72540503D01*
X164175199Y-72548000D01*
X164949801Y-72548000D01*
X164987489Y-72540503D01*
X165015424Y-72521838D01*
X165017420Y-72521707D01*
X165018531Y-72523370D01*
G37*
G36*
X171893531Y-72523370D02*
G01*
X171893198Y-72524612D01*
X171886250Y-72535011D01*
X171886158Y-72535138D01*
X171861736Y-72566116D01*
X171859360Y-72626571D01*
X171890990Y-72673913D01*
X171891121Y-72675909D01*
X171889458Y-72677020D01*
X171888216Y-72676687D01*
X171862489Y-72659497D01*
X171824801Y-72652000D01*
X171050199Y-72652000D01*
X171012511Y-72659497D01*
X170984576Y-72678162D01*
X170982580Y-72678293D01*
X170981469Y-72676630D01*
X170981802Y-72675388D01*
X170988750Y-72664989D01*
X170988842Y-72664862D01*
X171013264Y-72633884D01*
X171015640Y-72573429D01*
X170984010Y-72526087D01*
X170983879Y-72524091D01*
X170985542Y-72522980D01*
X170986784Y-72523313D01*
X171012511Y-72540503D01*
X171050199Y-72548000D01*
X171824801Y-72548000D01*
X171862489Y-72540503D01*
X171890424Y-72521838D01*
X171892420Y-72521707D01*
X171893531Y-72523370D01*
G37*
G36*
X169924612Y-71106802D02*
G01*
X169935011Y-71113750D01*
X169935138Y-71113842D01*
X169966116Y-71138264D01*
X170026571Y-71140640D01*
X170073913Y-71109010D01*
X170075909Y-71108879D01*
X170077020Y-71110542D01*
X170076687Y-71111784D01*
X170059497Y-71137511D01*
X170052000Y-71175199D01*
X170052000Y-71949801D01*
X170059497Y-71987489D01*
X170078162Y-72015424D01*
X170078293Y-72017420D01*
X170076630Y-72018531D01*
X170075388Y-72018198D01*
X170064989Y-72011250D01*
X170064862Y-72011158D01*
X170033884Y-71986736D01*
X169973429Y-71984360D01*
X169926087Y-72015990D01*
X169924091Y-72016121D01*
X169922980Y-72014458D01*
X169923313Y-72013216D01*
X169940503Y-71987489D01*
X169948000Y-71949801D01*
X169948000Y-71175199D01*
X169940503Y-71137511D01*
X169921838Y-71109576D01*
X169921707Y-71107580D01*
X169923370Y-71106469D01*
X169924612Y-71106802D01*
G37*
G36*
X170324612Y-71106802D02*
G01*
X170335011Y-71113750D01*
X170335138Y-71113842D01*
X170366116Y-71138264D01*
X170426571Y-71140640D01*
X170473913Y-71109010D01*
X170475909Y-71108879D01*
X170477020Y-71110542D01*
X170476687Y-71111784D01*
X170459497Y-71137511D01*
X170452000Y-71175199D01*
X170452000Y-71949801D01*
X170459497Y-71987489D01*
X170478162Y-72015424D01*
X170478293Y-72017420D01*
X170476630Y-72018531D01*
X170475388Y-72018198D01*
X170464989Y-72011250D01*
X170464862Y-72011158D01*
X170433884Y-71986736D01*
X170373429Y-71984360D01*
X170326087Y-72015990D01*
X170324091Y-72016121D01*
X170322980Y-72014458D01*
X170323313Y-72013216D01*
X170340503Y-71987489D01*
X170348000Y-71949801D01*
X170348000Y-71175199D01*
X170340503Y-71137511D01*
X170321838Y-71109576D01*
X170321707Y-71107580D01*
X170323370Y-71106469D01*
X170324612Y-71106802D01*
G37*
G36*
X169524612Y-71106802D02*
G01*
X169535011Y-71113750D01*
X169535138Y-71113842D01*
X169566116Y-71138264D01*
X169626571Y-71140640D01*
X169673913Y-71109010D01*
X169675909Y-71108879D01*
X169677020Y-71110542D01*
X169676687Y-71111784D01*
X169659497Y-71137511D01*
X169652000Y-71175199D01*
X169652000Y-71949801D01*
X169659497Y-71987489D01*
X169678162Y-72015424D01*
X169678293Y-72017420D01*
X169676630Y-72018531D01*
X169675388Y-72018198D01*
X169664989Y-72011250D01*
X169664862Y-72011158D01*
X169633884Y-71986736D01*
X169573429Y-71984360D01*
X169526087Y-72015990D01*
X169524091Y-72016121D01*
X169522980Y-72014458D01*
X169523313Y-72013216D01*
X169540503Y-71987489D01*
X169548000Y-71949801D01*
X169548000Y-71175199D01*
X169540503Y-71137511D01*
X169521838Y-71109576D01*
X169521707Y-71107580D01*
X169523370Y-71106469D01*
X169524612Y-71106802D01*
G37*
G36*
X169124612Y-71106802D02*
G01*
X169135011Y-71113750D01*
X169135138Y-71113842D01*
X169166116Y-71138264D01*
X169226571Y-71140640D01*
X169273913Y-71109010D01*
X169275909Y-71108879D01*
X169277020Y-71110542D01*
X169276687Y-71111784D01*
X169259497Y-71137511D01*
X169252000Y-71175199D01*
X169252000Y-71949801D01*
X169259497Y-71987489D01*
X169278162Y-72015424D01*
X169278293Y-72017420D01*
X169276630Y-72018531D01*
X169275388Y-72018198D01*
X169264989Y-72011250D01*
X169264862Y-72011158D01*
X169233884Y-71986736D01*
X169173429Y-71984360D01*
X169126087Y-72015990D01*
X169124091Y-72016121D01*
X169122980Y-72014458D01*
X169123313Y-72013216D01*
X169140503Y-71987489D01*
X169148000Y-71949801D01*
X169148000Y-71175199D01*
X169140503Y-71137511D01*
X169121838Y-71109576D01*
X169121707Y-71107580D01*
X169123370Y-71106469D01*
X169124612Y-71106802D01*
G37*
G36*
X168724612Y-71106802D02*
G01*
X168735011Y-71113750D01*
X168735138Y-71113842D01*
X168766116Y-71138264D01*
X168826571Y-71140640D01*
X168873913Y-71109010D01*
X168875909Y-71108879D01*
X168877020Y-71110542D01*
X168876687Y-71111784D01*
X168859497Y-71137511D01*
X168852000Y-71175199D01*
X168852000Y-71949801D01*
X168859497Y-71987489D01*
X168878162Y-72015424D01*
X168878293Y-72017420D01*
X168876630Y-72018531D01*
X168875388Y-72018198D01*
X168864989Y-72011250D01*
X168864862Y-72011158D01*
X168833884Y-71986736D01*
X168773429Y-71984360D01*
X168726087Y-72015990D01*
X168724091Y-72016121D01*
X168722980Y-72014458D01*
X168723313Y-72013216D01*
X168740503Y-71987489D01*
X168748000Y-71949801D01*
X168748000Y-71175199D01*
X168740503Y-71137511D01*
X168721838Y-71109576D01*
X168721707Y-71107580D01*
X168723370Y-71106469D01*
X168724612Y-71106802D01*
G37*
G36*
X168324612Y-71106802D02*
G01*
X168335011Y-71113750D01*
X168335138Y-71113842D01*
X168366116Y-71138264D01*
X168426571Y-71140640D01*
X168473913Y-71109010D01*
X168475909Y-71108879D01*
X168477020Y-71110542D01*
X168476687Y-71111784D01*
X168459497Y-71137511D01*
X168452000Y-71175199D01*
X168452000Y-71949801D01*
X168459497Y-71987489D01*
X168478162Y-72015424D01*
X168478293Y-72017420D01*
X168476630Y-72018531D01*
X168475388Y-72018198D01*
X168464989Y-72011250D01*
X168464862Y-72011158D01*
X168433884Y-71986736D01*
X168373429Y-71984360D01*
X168326087Y-72015990D01*
X168324091Y-72016121D01*
X168322980Y-72014458D01*
X168323313Y-72013216D01*
X168340503Y-71987489D01*
X168348000Y-71949801D01*
X168348000Y-71175199D01*
X168340503Y-71137511D01*
X168321838Y-71109576D01*
X168321707Y-71107580D01*
X168323370Y-71106469D01*
X168324612Y-71106802D01*
G37*
G36*
X167924612Y-71106802D02*
G01*
X167935011Y-71113750D01*
X167935138Y-71113842D01*
X167966116Y-71138264D01*
X168026571Y-71140640D01*
X168073913Y-71109010D01*
X168075909Y-71108879D01*
X168077020Y-71110542D01*
X168076687Y-71111784D01*
X168059497Y-71137511D01*
X168052000Y-71175199D01*
X168052000Y-71949801D01*
X168059497Y-71987489D01*
X168078162Y-72015424D01*
X168078293Y-72017420D01*
X168076630Y-72018531D01*
X168075388Y-72018198D01*
X168064989Y-72011250D01*
X168064862Y-72011158D01*
X168033884Y-71986736D01*
X167973429Y-71984360D01*
X167926087Y-72015990D01*
X167924091Y-72016121D01*
X167922980Y-72014458D01*
X167923313Y-72013216D01*
X167940503Y-71987489D01*
X167948000Y-71949801D01*
X167948000Y-71175199D01*
X167940503Y-71137511D01*
X167921838Y-71109576D01*
X167921707Y-71107580D01*
X167923370Y-71106469D01*
X167924612Y-71106802D01*
G37*
G36*
X167524612Y-71106802D02*
G01*
X167535011Y-71113750D01*
X167535138Y-71113842D01*
X167566116Y-71138264D01*
X167626571Y-71140640D01*
X167673913Y-71109010D01*
X167675909Y-71108879D01*
X167677020Y-71110542D01*
X167676687Y-71111784D01*
X167659497Y-71137511D01*
X167652000Y-71175199D01*
X167652000Y-71949801D01*
X167659497Y-71987489D01*
X167678162Y-72015424D01*
X167678293Y-72017420D01*
X167676630Y-72018531D01*
X167675388Y-72018198D01*
X167664989Y-72011250D01*
X167664862Y-72011158D01*
X167633884Y-71986736D01*
X167573429Y-71984360D01*
X167526087Y-72015990D01*
X167524091Y-72016121D01*
X167522980Y-72014458D01*
X167523313Y-72013216D01*
X167540503Y-71987489D01*
X167548000Y-71949801D01*
X167548000Y-71175199D01*
X167540503Y-71137511D01*
X167521838Y-71109576D01*
X167521707Y-71107580D01*
X167523370Y-71106469D01*
X167524612Y-71106802D01*
G37*
G36*
X167124612Y-71106802D02*
G01*
X167135011Y-71113750D01*
X167135138Y-71113842D01*
X167166116Y-71138264D01*
X167226571Y-71140640D01*
X167273913Y-71109010D01*
X167275909Y-71108879D01*
X167277020Y-71110542D01*
X167276687Y-71111784D01*
X167259497Y-71137511D01*
X167252000Y-71175199D01*
X167252000Y-71949801D01*
X167259497Y-71987489D01*
X167278162Y-72015424D01*
X167278293Y-72017420D01*
X167276630Y-72018531D01*
X167275388Y-72018198D01*
X167264989Y-72011250D01*
X167264862Y-72011158D01*
X167233884Y-71986736D01*
X167173429Y-71984360D01*
X167126087Y-72015990D01*
X167124091Y-72016121D01*
X167122980Y-72014458D01*
X167123313Y-72013216D01*
X167140503Y-71987489D01*
X167148000Y-71949801D01*
X167148000Y-71175199D01*
X167140503Y-71137511D01*
X167121838Y-71109576D01*
X167121707Y-71107580D01*
X167123370Y-71106469D01*
X167124612Y-71106802D01*
G37*
G36*
X166724612Y-71106802D02*
G01*
X166735011Y-71113750D01*
X166735138Y-71113842D01*
X166766116Y-71138264D01*
X166826571Y-71140640D01*
X166873913Y-71109010D01*
X166875909Y-71108879D01*
X166877020Y-71110542D01*
X166876687Y-71111784D01*
X166859497Y-71137511D01*
X166852000Y-71175199D01*
X166852000Y-71949801D01*
X166859497Y-71987489D01*
X166878162Y-72015424D01*
X166878293Y-72017420D01*
X166876630Y-72018531D01*
X166875388Y-72018198D01*
X166864989Y-72011250D01*
X166864862Y-72011158D01*
X166833884Y-71986736D01*
X166773429Y-71984360D01*
X166726087Y-72015990D01*
X166724091Y-72016121D01*
X166722980Y-72014458D01*
X166723313Y-72013216D01*
X166740503Y-71987489D01*
X166748000Y-71949801D01*
X166748000Y-71175199D01*
X166740503Y-71137511D01*
X166721838Y-71109576D01*
X166721707Y-71107580D01*
X166723370Y-71106469D01*
X166724612Y-71106802D01*
G37*
G36*
X165524612Y-71106802D02*
G01*
X165535011Y-71113750D01*
X165535138Y-71113842D01*
X165566116Y-71138264D01*
X165626571Y-71140640D01*
X165673913Y-71109010D01*
X165675909Y-71108879D01*
X165677020Y-71110542D01*
X165676687Y-71111784D01*
X165659497Y-71137511D01*
X165652000Y-71175199D01*
X165652000Y-71949801D01*
X165659497Y-71987489D01*
X165678162Y-72015424D01*
X165678293Y-72017420D01*
X165676630Y-72018531D01*
X165675388Y-72018198D01*
X165664989Y-72011250D01*
X165664862Y-72011158D01*
X165633884Y-71986736D01*
X165573429Y-71984360D01*
X165526087Y-72015990D01*
X165524091Y-72016121D01*
X165522980Y-72014458D01*
X165523313Y-72013216D01*
X165540503Y-71987489D01*
X165548000Y-71949801D01*
X165548000Y-71175199D01*
X165540503Y-71137511D01*
X165521838Y-71109576D01*
X165521707Y-71107580D01*
X165523370Y-71106469D01*
X165524612Y-71106802D01*
G37*
G36*
X166324612Y-71106802D02*
G01*
X166335011Y-71113750D01*
X166335138Y-71113842D01*
X166366116Y-71138264D01*
X166426571Y-71140640D01*
X166473913Y-71109010D01*
X166475909Y-71108879D01*
X166477020Y-71110542D01*
X166476687Y-71111784D01*
X166459497Y-71137511D01*
X166452000Y-71175199D01*
X166452000Y-71949801D01*
X166459497Y-71987489D01*
X166478162Y-72015424D01*
X166478293Y-72017420D01*
X166476630Y-72018531D01*
X166475388Y-72018198D01*
X166464989Y-72011250D01*
X166464862Y-72011158D01*
X166433884Y-71986736D01*
X166373429Y-71984360D01*
X166326087Y-72015990D01*
X166324091Y-72016121D01*
X166322980Y-72014458D01*
X166323313Y-72013216D01*
X166340503Y-71987489D01*
X166348000Y-71949801D01*
X166348000Y-71175199D01*
X166340503Y-71137511D01*
X166321838Y-71109576D01*
X166321707Y-71107580D01*
X166323370Y-71106469D01*
X166324612Y-71106802D01*
G37*
G36*
X165924612Y-71106802D02*
G01*
X165935011Y-71113750D01*
X165935138Y-71113842D01*
X165966116Y-71138264D01*
X166026571Y-71140640D01*
X166073913Y-71109010D01*
X166075909Y-71108879D01*
X166077020Y-71110542D01*
X166076687Y-71111784D01*
X166059497Y-71137511D01*
X166052000Y-71175199D01*
X166052000Y-71949801D01*
X166059497Y-71987489D01*
X166078162Y-72015424D01*
X166078293Y-72017420D01*
X166076630Y-72018531D01*
X166075388Y-72018198D01*
X166064989Y-72011250D01*
X166064862Y-72011158D01*
X166033884Y-71986736D01*
X165973429Y-71984360D01*
X165926087Y-72015990D01*
X165924091Y-72016121D01*
X165922980Y-72014458D01*
X165923313Y-72013216D01*
X165940503Y-71987489D01*
X165948000Y-71949801D01*
X165948000Y-71175199D01*
X165940503Y-71137511D01*
X165921838Y-71109576D01*
X165921707Y-71107580D01*
X165923370Y-71106469D01*
X165924612Y-71106802D01*
G37*
M02*
