%TF.GenerationSoftware,KiCad,Pcbnew,6.0.9*%
%TF.CreationDate,2023-01-30T01:56:59+01:00*%
%TF.ProjectId,chubby-hat,63687562-6279-42d6-9861-742e6b696361,0.2.0*%
%TF.SameCoordinates,Original*%
%TF.FileFunction,Paste,Bot*%
%TF.FilePolarity,Positive*%
%FSLAX46Y46*%
G04 Gerber Fmt 4.6, Leading zero omitted, Abs format (unit mm)*
G04 Created by KiCad (PCBNEW 6.0.9) date 2023-01-30 01:56:59*
%MOMM*%
%LPD*%
G01*
G04 APERTURE LIST*
G04 Aperture macros list*
%AMRoundRect*
0 Rectangle with rounded corners*
0 $1 Rounding radius*
0 $2 $3 $4 $5 $6 $7 $8 $9 X,Y pos of 4 corners*
0 Add a 4 corners polygon primitive as box body*
4,1,4,$2,$3,$4,$5,$6,$7,$8,$9,$2,$3,0*
0 Add four circle primitives for the rounded corners*
1,1,$1+$1,$2,$3*
1,1,$1+$1,$4,$5*
1,1,$1+$1,$6,$7*
1,1,$1+$1,$8,$9*
0 Add four rect primitives between the rounded corners*
20,1,$1+$1,$2,$3,$4,$5,0*
20,1,$1+$1,$4,$5,$6,$7,0*
20,1,$1+$1,$6,$7,$8,$9,0*
20,1,$1+$1,$8,$9,$2,$3,0*%
G04 Aperture macros list end*
%ADD10C,0.100000*%
%ADD11C,0.150000*%
%ADD12C,0.300000*%
%ADD13C,0.400000*%
%ADD14R,1.400000X1.200000*%
%ADD15RoundRect,0.225000X-0.225000X-0.250000X0.225000X-0.250000X0.225000X0.250000X-0.225000X0.250000X0*%
%ADD16RoundRect,0.200000X-0.200000X-0.275000X0.200000X-0.275000X0.200000X0.275000X-0.200000X0.275000X0*%
%ADD17RoundRect,0.200000X0.200000X0.275000X-0.200000X0.275000X-0.200000X-0.275000X0.200000X-0.275000X0*%
%ADD18RoundRect,0.218750X0.256250X-0.218750X0.256250X0.218750X-0.256250X0.218750X-0.256250X-0.218750X0*%
%ADD19RoundRect,0.225000X0.250000X-0.225000X0.250000X0.225000X-0.250000X0.225000X-0.250000X-0.225000X0*%
%ADD20RoundRect,0.225000X0.225000X0.250000X-0.225000X0.250000X-0.225000X-0.250000X0.225000X-0.250000X0*%
%ADD21RoundRect,0.225000X-0.250000X0.225000X-0.250000X-0.225000X0.250000X-0.225000X0.250000X0.225000X0*%
%ADD22RoundRect,0.150000X0.512500X0.150000X-0.512500X0.150000X-0.512500X-0.150000X0.512500X-0.150000X0*%
%ADD23RoundRect,0.249999X-0.395001X0.395001X-0.395001X-0.395001X0.395001X-0.395001X0.395001X0.395001X0*%
%ADD24RoundRect,0.050000X-0.050000X0.387500X-0.050000X-0.387500X0.050000X-0.387500X0.050000X0.387500X0*%
%ADD25RoundRect,0.050000X-0.387500X0.050000X-0.387500X-0.050000X0.387500X-0.050000X0.387500X0.050000X0*%
%ADD26RoundRect,0.150000X-0.150000X0.650000X-0.150000X-0.650000X0.150000X-0.650000X0.150000X0.650000X0*%
%ADD27R,2.000000X1.500000*%
%ADD28R,2.000000X3.800000*%
%ADD29RoundRect,0.200000X0.275000X-0.200000X0.275000X0.200000X-0.275000X0.200000X-0.275000X-0.200000X0*%
%ADD30O,1.778000X3.556000*%
%ADD31O,3.556000X1.778000*%
%ADD32RoundRect,0.150000X-0.150000X0.587500X-0.150000X-0.587500X0.150000X-0.587500X0.150000X0.587500X0*%
G04 APERTURE END LIST*
D10*
D11*
X177002200Y-166007200D02*
X177002200Y-198007200D01*
X285002200Y-198007200D01*
X285002200Y-166007200D01*
X177002200Y-166007200D01*
D10*
D11*
X10000000Y-10000000D02*
X10000000Y-200007200D01*
X287002200Y-200007200D01*
X287002200Y-10000000D01*
X10000000Y-10000000D01*
D10*
D11*
X12000000Y-12000000D02*
X12000000Y-198007200D01*
X285002200Y-198007200D01*
X285002200Y-12000000D01*
X12000000Y-12000000D01*
D10*
D11*
X60000000Y-12000000D02*
X60000000Y-10000000D01*
D10*
D11*
X110000000Y-12000000D02*
X110000000Y-10000000D01*
D10*
D11*
X160000000Y-12000000D02*
X160000000Y-10000000D01*
D10*
D11*
X210000000Y-12000000D02*
X210000000Y-10000000D01*
D10*
D11*
X260000000Y-12000000D02*
X260000000Y-10000000D01*
D10*
D11*
X36065476Y-11588095D02*
X35322619Y-11588095D01*
X35694047Y-11588095D02*
X35694047Y-10288095D01*
X35570238Y-10473809D01*
X35446428Y-10597619D01*
X35322619Y-10659523D01*
D10*
D11*
X85322619Y-10411904D02*
X85384523Y-10350000D01*
X85508333Y-10288095D01*
X85817857Y-10288095D01*
X85941666Y-10350000D01*
X86003571Y-10411904D01*
X86065476Y-10535714D01*
X86065476Y-10659523D01*
X86003571Y-10845238D01*
X85260714Y-11588095D01*
X86065476Y-11588095D01*
D10*
D11*
X135260714Y-10288095D02*
X136065476Y-10288095D01*
X135632142Y-10783333D01*
X135817857Y-10783333D01*
X135941666Y-10845238D01*
X136003571Y-10907142D01*
X136065476Y-11030952D01*
X136065476Y-11340476D01*
X136003571Y-11464285D01*
X135941666Y-11526190D01*
X135817857Y-11588095D01*
X135446428Y-11588095D01*
X135322619Y-11526190D01*
X135260714Y-11464285D01*
D10*
D11*
X185941666Y-10721428D02*
X185941666Y-11588095D01*
X185632142Y-10226190D02*
X185322619Y-11154761D01*
X186127380Y-11154761D01*
D10*
D11*
X236003571Y-10288095D02*
X235384523Y-10288095D01*
X235322619Y-10907142D01*
X235384523Y-10845238D01*
X235508333Y-10783333D01*
X235817857Y-10783333D01*
X235941666Y-10845238D01*
X236003571Y-10907142D01*
X236065476Y-11030952D01*
X236065476Y-11340476D01*
X236003571Y-11464285D01*
X235941666Y-11526190D01*
X235817857Y-11588095D01*
X235508333Y-11588095D01*
X235384523Y-11526190D01*
X235322619Y-11464285D01*
D10*
D11*
X285941666Y-10288095D02*
X285694047Y-10288095D01*
X285570238Y-10350000D01*
X285508333Y-10411904D01*
X285384523Y-10597619D01*
X285322619Y-10845238D01*
X285322619Y-11340476D01*
X285384523Y-11464285D01*
X285446428Y-11526190D01*
X285570238Y-11588095D01*
X285817857Y-11588095D01*
X285941666Y-11526190D01*
X286003571Y-11464285D01*
X286065476Y-11340476D01*
X286065476Y-11030952D01*
X286003571Y-10907142D01*
X285941666Y-10845238D01*
X285817857Y-10783333D01*
X285570238Y-10783333D01*
X285446428Y-10845238D01*
X285384523Y-10907142D01*
X285322619Y-11030952D01*
D10*
D11*
X60000000Y-198007200D02*
X60000000Y-200007200D01*
D10*
D11*
X110000000Y-198007200D02*
X110000000Y-200007200D01*
D10*
D11*
X160000000Y-198007200D02*
X160000000Y-200007200D01*
D10*
D11*
X210000000Y-198007200D02*
X210000000Y-200007200D01*
D10*
D11*
X260000000Y-198007200D02*
X260000000Y-200007200D01*
D10*
D11*
X36065476Y-199595295D02*
X35322619Y-199595295D01*
X35694047Y-199595295D02*
X35694047Y-198295295D01*
X35570238Y-198481009D01*
X35446428Y-198604819D01*
X35322619Y-198666723D01*
D10*
D11*
X85322619Y-198419104D02*
X85384523Y-198357200D01*
X85508333Y-198295295D01*
X85817857Y-198295295D01*
X85941666Y-198357200D01*
X86003571Y-198419104D01*
X86065476Y-198542914D01*
X86065476Y-198666723D01*
X86003571Y-198852438D01*
X85260714Y-199595295D01*
X86065476Y-199595295D01*
D10*
D11*
X135260714Y-198295295D02*
X136065476Y-198295295D01*
X135632142Y-198790533D01*
X135817857Y-198790533D01*
X135941666Y-198852438D01*
X136003571Y-198914342D01*
X136065476Y-199038152D01*
X136065476Y-199347676D01*
X136003571Y-199471485D01*
X135941666Y-199533390D01*
X135817857Y-199595295D01*
X135446428Y-199595295D01*
X135322619Y-199533390D01*
X135260714Y-199471485D01*
D10*
D11*
X185941666Y-198728628D02*
X185941666Y-199595295D01*
X185632142Y-198233390D02*
X185322619Y-199161961D01*
X186127380Y-199161961D01*
D10*
D11*
X236003571Y-198295295D02*
X235384523Y-198295295D01*
X235322619Y-198914342D01*
X235384523Y-198852438D01*
X235508333Y-198790533D01*
X235817857Y-198790533D01*
X235941666Y-198852438D01*
X236003571Y-198914342D01*
X236065476Y-199038152D01*
X236065476Y-199347676D01*
X236003571Y-199471485D01*
X235941666Y-199533390D01*
X235817857Y-199595295D01*
X235508333Y-199595295D01*
X235384523Y-199533390D01*
X235322619Y-199471485D01*
D10*
D11*
X285941666Y-198295295D02*
X285694047Y-198295295D01*
X285570238Y-198357200D01*
X285508333Y-198419104D01*
X285384523Y-198604819D01*
X285322619Y-198852438D01*
X285322619Y-199347676D01*
X285384523Y-199471485D01*
X285446428Y-199533390D01*
X285570238Y-199595295D01*
X285817857Y-199595295D01*
X285941666Y-199533390D01*
X286003571Y-199471485D01*
X286065476Y-199347676D01*
X286065476Y-199038152D01*
X286003571Y-198914342D01*
X285941666Y-198852438D01*
X285817857Y-198790533D01*
X285570238Y-198790533D01*
X285446428Y-198852438D01*
X285384523Y-198914342D01*
X285322619Y-199038152D01*
D10*
D11*
X10000000Y-60000000D02*
X12000000Y-60000000D01*
D10*
D11*
X10000000Y-110000000D02*
X12000000Y-110000000D01*
D10*
D11*
X10000000Y-160000000D02*
X12000000Y-160000000D01*
D10*
D11*
X10690476Y-35216666D02*
X11309523Y-35216666D01*
X10566666Y-35588095D02*
X11000000Y-34288095D01*
X11433333Y-35588095D01*
D10*
D11*
X11092857Y-84907142D02*
X11278571Y-84969047D01*
X11340476Y-85030952D01*
X11402380Y-85154761D01*
X11402380Y-85340476D01*
X11340476Y-85464285D01*
X11278571Y-85526190D01*
X11154761Y-85588095D01*
X10659523Y-85588095D01*
X10659523Y-84288095D01*
X11092857Y-84288095D01*
X11216666Y-84350000D01*
X11278571Y-84411904D01*
X11340476Y-84535714D01*
X11340476Y-84659523D01*
X11278571Y-84783333D01*
X11216666Y-84845238D01*
X11092857Y-84907142D01*
X10659523Y-84907142D01*
D10*
D11*
X11402380Y-135464285D02*
X11340476Y-135526190D01*
X11154761Y-135588095D01*
X11030952Y-135588095D01*
X10845238Y-135526190D01*
X10721428Y-135402380D01*
X10659523Y-135278571D01*
X10597619Y-135030952D01*
X10597619Y-134845238D01*
X10659523Y-134597619D01*
X10721428Y-134473809D01*
X10845238Y-134350000D01*
X11030952Y-134288095D01*
X11154761Y-134288095D01*
X11340476Y-134350000D01*
X11402380Y-134411904D01*
D10*
D11*
X10659523Y-185588095D02*
X10659523Y-184288095D01*
X10969047Y-184288095D01*
X11154761Y-184350000D01*
X11278571Y-184473809D01*
X11340476Y-184597619D01*
X11402380Y-184845238D01*
X11402380Y-185030952D01*
X11340476Y-185278571D01*
X11278571Y-185402380D01*
X11154761Y-185526190D01*
X10969047Y-185588095D01*
X10659523Y-185588095D01*
D10*
D11*
X287002200Y-60000000D02*
X285002200Y-60000000D01*
D10*
D11*
X287002200Y-110000000D02*
X285002200Y-110000000D01*
D10*
D11*
X287002200Y-160000000D02*
X285002200Y-160000000D01*
D10*
D11*
X285692676Y-35216666D02*
X286311723Y-35216666D01*
X285568866Y-35588095D02*
X286002200Y-34288095D01*
X286435533Y-35588095D01*
D10*
D11*
X286095057Y-84907142D02*
X286280771Y-84969047D01*
X286342676Y-85030952D01*
X286404580Y-85154761D01*
X286404580Y-85340476D01*
X286342676Y-85464285D01*
X286280771Y-85526190D01*
X286156961Y-85588095D01*
X285661723Y-85588095D01*
X285661723Y-84288095D01*
X286095057Y-84288095D01*
X286218866Y-84350000D01*
X286280771Y-84411904D01*
X286342676Y-84535714D01*
X286342676Y-84659523D01*
X286280771Y-84783333D01*
X286218866Y-84845238D01*
X286095057Y-84907142D01*
X285661723Y-84907142D01*
D10*
D11*
X286404580Y-135464285D02*
X286342676Y-135526190D01*
X286156961Y-135588095D01*
X286033152Y-135588095D01*
X285847438Y-135526190D01*
X285723628Y-135402380D01*
X285661723Y-135278571D01*
X285599819Y-135030952D01*
X285599819Y-134845238D01*
X285661723Y-134597619D01*
X285723628Y-134473809D01*
X285847438Y-134350000D01*
X286033152Y-134288095D01*
X286156961Y-134288095D01*
X286342676Y-134350000D01*
X286404580Y-134411904D01*
D10*
D11*
X285661723Y-185588095D02*
X285661723Y-184288095D01*
X285971247Y-184288095D01*
X286156961Y-184350000D01*
X286280771Y-184473809D01*
X286342676Y-184597619D01*
X286404580Y-184845238D01*
X286404580Y-185030952D01*
X286342676Y-185278571D01*
X286280771Y-185402380D01*
X286156961Y-185526190D01*
X285971247Y-185588095D01*
X285661723Y-185588095D01*
D10*
D11*
X200434342Y-193785771D02*
X200434342Y-192285771D01*
X200791485Y-192285771D01*
X201005771Y-192357200D01*
X201148628Y-192500057D01*
X201220057Y-192642914D01*
X201291485Y-192928628D01*
X201291485Y-193142914D01*
X201220057Y-193428628D01*
X201148628Y-193571485D01*
X201005771Y-193714342D01*
X200791485Y-193785771D01*
X200434342Y-193785771D01*
X202577200Y-193785771D02*
X202577200Y-193000057D01*
X202505771Y-192857200D01*
X202362914Y-192785771D01*
X202077200Y-192785771D01*
X201934342Y-192857200D01*
X202577200Y-193714342D02*
X202434342Y-193785771D01*
X202077200Y-193785771D01*
X201934342Y-193714342D01*
X201862914Y-193571485D01*
X201862914Y-193428628D01*
X201934342Y-193285771D01*
X202077200Y-193214342D01*
X202434342Y-193214342D01*
X202577200Y-193142914D01*
X203077200Y-192785771D02*
X203648628Y-192785771D01*
X203291485Y-192285771D02*
X203291485Y-193571485D01*
X203362914Y-193714342D01*
X203505771Y-193785771D01*
X203648628Y-193785771D01*
X204720057Y-193714342D02*
X204577200Y-193785771D01*
X204291485Y-193785771D01*
X204148628Y-193714342D01*
X204077200Y-193571485D01*
X204077200Y-193000057D01*
X204148628Y-192857200D01*
X204291485Y-192785771D01*
X204577200Y-192785771D01*
X204720057Y-192857200D01*
X204791485Y-193000057D01*
X204791485Y-193142914D01*
X204077200Y-193285771D01*
X205434342Y-193642914D02*
X205505771Y-193714342D01*
X205434342Y-193785771D01*
X205362914Y-193714342D01*
X205434342Y-193642914D01*
X205434342Y-193785771D01*
X205434342Y-192857200D02*
X205505771Y-192928628D01*
X205434342Y-193000057D01*
X205362914Y-192928628D01*
X205434342Y-192857200D01*
X205434342Y-193000057D01*
X207220057Y-192428628D02*
X207291485Y-192357200D01*
X207434342Y-192285771D01*
X207791485Y-192285771D01*
X207934342Y-192357200D01*
X208005771Y-192428628D01*
X208077200Y-192571485D01*
X208077200Y-192714342D01*
X208005771Y-192928628D01*
X207148628Y-193785771D01*
X208077200Y-193785771D01*
X209005771Y-192285771D02*
X209148628Y-192285771D01*
X209291485Y-192357200D01*
X209362914Y-192428628D01*
X209434342Y-192571485D01*
X209505771Y-192857200D01*
X209505771Y-193214342D01*
X209434342Y-193500057D01*
X209362914Y-193642914D01*
X209291485Y-193714342D01*
X209148628Y-193785771D01*
X209005771Y-193785771D01*
X208862914Y-193714342D01*
X208791485Y-193642914D01*
X208720057Y-193500057D01*
X208648628Y-193214342D01*
X208648628Y-192857200D01*
X208720057Y-192571485D01*
X208791485Y-192428628D01*
X208862914Y-192357200D01*
X209005771Y-192285771D01*
X210077200Y-192428628D02*
X210148628Y-192357200D01*
X210291485Y-192285771D01*
X210648628Y-192285771D01*
X210791485Y-192357200D01*
X210862914Y-192428628D01*
X210934342Y-192571485D01*
X210934342Y-192714342D01*
X210862914Y-192928628D01*
X210005771Y-193785771D01*
X210934342Y-193785771D01*
X211434342Y-192285771D02*
X212362914Y-192285771D01*
X211862914Y-192857200D01*
X212077200Y-192857200D01*
X212220057Y-192928628D01*
X212291485Y-193000057D01*
X212362914Y-193142914D01*
X212362914Y-193500057D01*
X212291485Y-193642914D01*
X212220057Y-193714342D01*
X212077200Y-193785771D01*
X211648628Y-193785771D01*
X211505771Y-193714342D01*
X211434342Y-193642914D01*
X213005771Y-193214342D02*
X214148628Y-193214342D01*
X215148628Y-192285771D02*
X215291485Y-192285771D01*
X215434342Y-192357200D01*
X215505771Y-192428628D01*
X215577200Y-192571485D01*
X215648628Y-192857200D01*
X215648628Y-193214342D01*
X215577200Y-193500057D01*
X215505771Y-193642914D01*
X215434342Y-193714342D01*
X215291485Y-193785771D01*
X215148628Y-193785771D01*
X215005771Y-193714342D01*
X214934342Y-193642914D01*
X214862914Y-193500057D01*
X214791485Y-193214342D01*
X214791485Y-192857200D01*
X214862914Y-192571485D01*
X214934342Y-192428628D01*
X215005771Y-192357200D01*
X215148628Y-192285771D01*
X217077200Y-193785771D02*
X216220057Y-193785771D01*
X216648628Y-193785771D02*
X216648628Y-192285771D01*
X216505771Y-192500057D01*
X216362914Y-192642914D01*
X216220057Y-192714342D01*
X217720057Y-193214342D02*
X218862914Y-193214342D01*
X219505771Y-192428628D02*
X219577200Y-192357200D01*
X219720057Y-192285771D01*
X220077200Y-192285771D01*
X220220057Y-192357200D01*
X220291485Y-192428628D01*
X220362914Y-192571485D01*
X220362914Y-192714342D01*
X220291485Y-192928628D01*
X219434342Y-193785771D01*
X220362914Y-193785771D01*
X221077200Y-193785771D02*
X221362914Y-193785771D01*
X221505771Y-193714342D01*
X221577200Y-193642914D01*
X221720057Y-193428628D01*
X221791485Y-193142914D01*
X221791485Y-192571485D01*
X221720057Y-192428628D01*
X221648628Y-192357200D01*
X221505771Y-192285771D01*
X221220057Y-192285771D01*
X221077200Y-192357200D01*
X221005771Y-192428628D01*
X220934342Y-192571485D01*
X220934342Y-192928628D01*
X221005771Y-193071485D01*
X221077200Y-193142914D01*
X221220057Y-193214342D01*
X221505771Y-193214342D01*
X221648628Y-193142914D01*
X221720057Y-193071485D01*
X221791485Y-192928628D01*
D10*
D11*
X177002200Y-194507200D02*
X285002200Y-194507200D01*
D10*
D11*
X178434342Y-196585771D02*
X178434342Y-195085771D01*
X179291485Y-196585771D02*
X178648628Y-195728628D01*
X179291485Y-195085771D02*
X178434342Y-195942914D01*
X179934342Y-196585771D02*
X179934342Y-195585771D01*
X179934342Y-195085771D02*
X179862914Y-195157200D01*
X179934342Y-195228628D01*
X180005771Y-195157200D01*
X179934342Y-195085771D01*
X179934342Y-195228628D01*
X181505771Y-196442914D02*
X181434342Y-196514342D01*
X181220057Y-196585771D01*
X181077200Y-196585771D01*
X180862914Y-196514342D01*
X180720057Y-196371485D01*
X180648628Y-196228628D01*
X180577200Y-195942914D01*
X180577200Y-195728628D01*
X180648628Y-195442914D01*
X180720057Y-195300057D01*
X180862914Y-195157200D01*
X181077200Y-195085771D01*
X181220057Y-195085771D01*
X181434342Y-195157200D01*
X181505771Y-195228628D01*
X182791485Y-196585771D02*
X182791485Y-195800057D01*
X182720057Y-195657200D01*
X182577200Y-195585771D01*
X182291485Y-195585771D01*
X182148628Y-195657200D01*
X182791485Y-196514342D02*
X182648628Y-196585771D01*
X182291485Y-196585771D01*
X182148628Y-196514342D01*
X182077200Y-196371485D01*
X182077200Y-196228628D01*
X182148628Y-196085771D01*
X182291485Y-196014342D01*
X182648628Y-196014342D01*
X182791485Y-195942914D01*
X184148628Y-196585771D02*
X184148628Y-195085771D01*
X184148628Y-196514342D02*
X184005771Y-196585771D01*
X183720057Y-196585771D01*
X183577200Y-196514342D01*
X183505771Y-196442914D01*
X183434342Y-196300057D01*
X183434342Y-195871485D01*
X183505771Y-195728628D01*
X183577200Y-195657200D01*
X183720057Y-195585771D01*
X184005771Y-195585771D01*
X184148628Y-195657200D01*
X186005771Y-195800057D02*
X186505771Y-195800057D01*
X186720057Y-196585771D02*
X186005771Y-196585771D01*
X186005771Y-195085771D01*
X186720057Y-195085771D01*
X187362914Y-196442914D02*
X187434342Y-196514342D01*
X187362914Y-196585771D01*
X187291485Y-196514342D01*
X187362914Y-196442914D01*
X187362914Y-196585771D01*
X188077200Y-196585771D02*
X188077200Y-195085771D01*
X188434342Y-195085771D01*
X188648628Y-195157200D01*
X188791485Y-195300057D01*
X188862914Y-195442914D01*
X188934342Y-195728628D01*
X188934342Y-195942914D01*
X188862914Y-196228628D01*
X188791485Y-196371485D01*
X188648628Y-196514342D01*
X188434342Y-196585771D01*
X188077200Y-196585771D01*
X189577200Y-196442914D02*
X189648628Y-196514342D01*
X189577200Y-196585771D01*
X189505771Y-196514342D01*
X189577200Y-196442914D01*
X189577200Y-196585771D01*
X190220057Y-196157200D02*
X190934342Y-196157200D01*
X190077200Y-196585771D02*
X190577200Y-195085771D01*
X191077200Y-196585771D01*
X191577200Y-196442914D02*
X191648628Y-196514342D01*
X191577200Y-196585771D01*
X191505771Y-196514342D01*
X191577200Y-196442914D01*
X191577200Y-196585771D01*
X194577200Y-196585771D02*
X194577200Y-195085771D01*
X194720057Y-196014342D02*
X195148628Y-196585771D01*
X195148628Y-195585771D02*
X194577200Y-196157200D01*
X195791485Y-196585771D02*
X195791485Y-195585771D01*
X195791485Y-195085771D02*
X195720057Y-195157200D01*
X195791485Y-195228628D01*
X195862914Y-195157200D01*
X195791485Y-195085771D01*
X195791485Y-195228628D01*
X197148628Y-196514342D02*
X197005771Y-196585771D01*
X196720057Y-196585771D01*
X196577200Y-196514342D01*
X196505771Y-196442914D01*
X196434342Y-196300057D01*
X196434342Y-195871485D01*
X196505771Y-195728628D01*
X196577200Y-195657200D01*
X196720057Y-195585771D01*
X197005771Y-195585771D01*
X197148628Y-195657200D01*
X198434342Y-196585771D02*
X198434342Y-195800057D01*
X198362914Y-195657200D01*
X198220057Y-195585771D01*
X197934342Y-195585771D01*
X197791485Y-195657200D01*
X198434342Y-196514342D02*
X198291485Y-196585771D01*
X197934342Y-196585771D01*
X197791485Y-196514342D01*
X197720057Y-196371485D01*
X197720057Y-196228628D01*
X197791485Y-196085771D01*
X197934342Y-196014342D01*
X198291485Y-196014342D01*
X198434342Y-195942914D01*
X199791485Y-196585771D02*
X199791485Y-195085771D01*
X199791485Y-196514342D02*
X199648628Y-196585771D01*
X199362914Y-196585771D01*
X199220057Y-196514342D01*
X199148628Y-196442914D01*
X199077200Y-196300057D01*
X199077200Y-195871485D01*
X199148628Y-195728628D01*
X199220057Y-195657200D01*
X199362914Y-195585771D01*
X199648628Y-195585771D01*
X199791485Y-195657200D01*
X202291485Y-195085771D02*
X202005771Y-195085771D01*
X201862914Y-195157200D01*
X201791485Y-195228628D01*
X201648628Y-195442914D01*
X201577200Y-195728628D01*
X201577200Y-196300057D01*
X201648628Y-196442914D01*
X201720057Y-196514342D01*
X201862914Y-196585771D01*
X202148628Y-196585771D01*
X202291485Y-196514342D01*
X202362914Y-196442914D01*
X202434342Y-196300057D01*
X202434342Y-195942914D01*
X202362914Y-195800057D01*
X202291485Y-195728628D01*
X202148628Y-195657200D01*
X201862914Y-195657200D01*
X201720057Y-195728628D01*
X201648628Y-195800057D01*
X201577200Y-195942914D01*
X203077200Y-196442914D02*
X203148628Y-196514342D01*
X203077200Y-196585771D01*
X203005771Y-196514342D01*
X203077200Y-196442914D01*
X203077200Y-196585771D01*
X204077200Y-195085771D02*
X204220057Y-195085771D01*
X204362914Y-195157200D01*
X204434342Y-195228628D01*
X204505771Y-195371485D01*
X204577200Y-195657200D01*
X204577200Y-196014342D01*
X204505771Y-196300057D01*
X204434342Y-196442914D01*
X204362914Y-196514342D01*
X204220057Y-196585771D01*
X204077200Y-196585771D01*
X203934342Y-196514342D01*
X203862914Y-196442914D01*
X203791485Y-196300057D01*
X203720057Y-196014342D01*
X203720057Y-195657200D01*
X203791485Y-195371485D01*
X203862914Y-195228628D01*
X203934342Y-195157200D01*
X204077200Y-195085771D01*
X205220057Y-196442914D02*
X205291485Y-196514342D01*
X205220057Y-196585771D01*
X205148628Y-196514342D01*
X205220057Y-196442914D01*
X205220057Y-196585771D01*
X206005771Y-196585771D02*
X206291485Y-196585771D01*
X206434342Y-196514342D01*
X206505771Y-196442914D01*
X206648628Y-196228628D01*
X206720057Y-195942914D01*
X206720057Y-195371485D01*
X206648628Y-195228628D01*
X206577200Y-195157200D01*
X206434342Y-195085771D01*
X206148628Y-195085771D01*
X206005771Y-195157200D01*
X205934342Y-195228628D01*
X205862914Y-195371485D01*
X205862914Y-195728628D01*
X205934342Y-195871485D01*
X206005771Y-195942914D01*
X206148628Y-196014342D01*
X206434342Y-196014342D01*
X206577200Y-195942914D01*
X206648628Y-195871485D01*
X206720057Y-195728628D01*
D10*
D11*
X177002200Y-191507200D02*
X285002200Y-191507200D01*
D10*
D12*
X264411485Y-193785771D02*
X263911485Y-193071485D01*
X263554342Y-193785771D02*
X263554342Y-192285771D01*
X264125771Y-192285771D01*
X264268628Y-192357200D01*
X264340057Y-192428628D01*
X264411485Y-192571485D01*
X264411485Y-192785771D01*
X264340057Y-192928628D01*
X264268628Y-193000057D01*
X264125771Y-193071485D01*
X263554342Y-193071485D01*
X265625771Y-193714342D02*
X265482914Y-193785771D01*
X265197200Y-193785771D01*
X265054342Y-193714342D01*
X264982914Y-193571485D01*
X264982914Y-193000057D01*
X265054342Y-192857200D01*
X265197200Y-192785771D01*
X265482914Y-192785771D01*
X265625771Y-192857200D01*
X265697200Y-193000057D01*
X265697200Y-193142914D01*
X264982914Y-193285771D01*
X266197200Y-192785771D02*
X266554342Y-193785771D01*
X266911485Y-192785771D01*
X267482914Y-193642914D02*
X267554342Y-193714342D01*
X267482914Y-193785771D01*
X267411485Y-193714342D01*
X267482914Y-193642914D01*
X267482914Y-193785771D01*
X267482914Y-192857200D02*
X267554342Y-192928628D01*
X267482914Y-193000057D01*
X267411485Y-192928628D01*
X267482914Y-192857200D01*
X267482914Y-193000057D01*
X269625771Y-192285771D02*
X269768628Y-192285771D01*
X269911485Y-192357200D01*
X269982914Y-192428628D01*
X270054342Y-192571485D01*
X270125771Y-192857200D01*
X270125771Y-193214342D01*
X270054342Y-193500057D01*
X269982914Y-193642914D01*
X269911485Y-193714342D01*
X269768628Y-193785771D01*
X269625771Y-193785771D01*
X269482914Y-193714342D01*
X269411485Y-193642914D01*
X269340057Y-193500057D01*
X269268628Y-193214342D01*
X269268628Y-192857200D01*
X269340057Y-192571485D01*
X269411485Y-192428628D01*
X269482914Y-192357200D01*
X269625771Y-192285771D01*
X270768628Y-193642914D02*
X270840057Y-193714342D01*
X270768628Y-193785771D01*
X270697200Y-193714342D01*
X270768628Y-193642914D01*
X270768628Y-193785771D01*
X271411485Y-192428628D02*
X271482914Y-192357200D01*
X271625771Y-192285771D01*
X271982914Y-192285771D01*
X272125771Y-192357200D01*
X272197200Y-192428628D01*
X272268628Y-192571485D01*
X272268628Y-192714342D01*
X272197200Y-192928628D01*
X271340057Y-193785771D01*
X272268628Y-193785771D01*
X272911485Y-193642914D02*
X272982914Y-193714342D01*
X272911485Y-193785771D01*
X272840057Y-193714342D01*
X272911485Y-193642914D01*
X272911485Y-193785771D01*
X273911485Y-192285771D02*
X274054342Y-192285771D01*
X274197200Y-192357200D01*
X274268628Y-192428628D01*
X274340057Y-192571485D01*
X274411485Y-192857200D01*
X274411485Y-193214342D01*
X274340057Y-193500057D01*
X274268628Y-193642914D01*
X274197200Y-193714342D01*
X274054342Y-193785771D01*
X273911485Y-193785771D01*
X273768628Y-193714342D01*
X273697200Y-193642914D01*
X273625771Y-193500057D01*
X273554342Y-193214342D01*
X273554342Y-192857200D01*
X273625771Y-192571485D01*
X273697200Y-192428628D01*
X273768628Y-192357200D01*
X273911485Y-192285771D01*
D10*
D11*
X178362914Y-193714342D02*
X178577200Y-193785771D01*
X178934342Y-193785771D01*
X179077200Y-193714342D01*
X179148628Y-193642914D01*
X179220057Y-193500057D01*
X179220057Y-193357200D01*
X179148628Y-193214342D01*
X179077200Y-193142914D01*
X178934342Y-193071485D01*
X178648628Y-193000057D01*
X178505771Y-192928628D01*
X178434342Y-192857200D01*
X178362914Y-192714342D01*
X178362914Y-192571485D01*
X178434342Y-192428628D01*
X178505771Y-192357200D01*
X178648628Y-192285771D01*
X179005771Y-192285771D01*
X179220057Y-192357200D01*
X179862914Y-193785771D02*
X179862914Y-192785771D01*
X179862914Y-192285771D02*
X179791485Y-192357200D01*
X179862914Y-192428628D01*
X179934342Y-192357200D01*
X179862914Y-192285771D01*
X179862914Y-192428628D01*
X180434342Y-192785771D02*
X181220057Y-192785771D01*
X180434342Y-193785771D01*
X181220057Y-193785771D01*
X182362914Y-193714342D02*
X182220057Y-193785771D01*
X181934342Y-193785771D01*
X181791485Y-193714342D01*
X181720057Y-193571485D01*
X181720057Y-193000057D01*
X181791485Y-192857200D01*
X181934342Y-192785771D01*
X182220057Y-192785771D01*
X182362914Y-192857200D01*
X182434342Y-193000057D01*
X182434342Y-193142914D01*
X181720057Y-193285771D01*
X183077200Y-193642914D02*
X183148628Y-193714342D01*
X183077200Y-193785771D01*
X183005771Y-193714342D01*
X183077200Y-193642914D01*
X183077200Y-193785771D01*
X183077200Y-192857200D02*
X183148628Y-192928628D01*
X183077200Y-193000057D01*
X183005771Y-192928628D01*
X183077200Y-192857200D01*
X183077200Y-193000057D01*
X184862914Y-193357200D02*
X185577200Y-193357200D01*
X184720057Y-193785771D02*
X185220057Y-192285771D01*
X185720057Y-193785771D01*
X186862914Y-192785771D02*
X186862914Y-193785771D01*
X186505771Y-192214342D02*
X186148628Y-193285771D01*
X187077200Y-193285771D01*
D10*
D11*
X263434342Y-196585771D02*
X263434342Y-195085771D01*
X264791485Y-196585771D02*
X264791485Y-195085771D01*
X264791485Y-196514342D02*
X264648628Y-196585771D01*
X264362914Y-196585771D01*
X264220057Y-196514342D01*
X264148628Y-196442914D01*
X264077200Y-196300057D01*
X264077200Y-195871485D01*
X264148628Y-195728628D01*
X264220057Y-195657200D01*
X264362914Y-195585771D01*
X264648628Y-195585771D01*
X264791485Y-195657200D01*
X265505771Y-196442914D02*
X265577200Y-196514342D01*
X265505771Y-196585771D01*
X265434342Y-196514342D01*
X265505771Y-196442914D01*
X265505771Y-196585771D01*
X265505771Y-195657200D02*
X265577200Y-195728628D01*
X265505771Y-195800057D01*
X265434342Y-195728628D01*
X265505771Y-195657200D01*
X265505771Y-195800057D01*
X268148628Y-196585771D02*
X267291485Y-196585771D01*
X267720057Y-196585771D02*
X267720057Y-195085771D01*
X267577200Y-195300057D01*
X267434342Y-195442914D01*
X267291485Y-195514342D01*
X269862914Y-195014342D02*
X268577200Y-196942914D01*
X271148628Y-196585771D02*
X270291485Y-196585771D01*
X270720057Y-196585771D02*
X270720057Y-195085771D01*
X270577200Y-195300057D01*
X270434342Y-195442914D01*
X270291485Y-195514342D01*
D10*
D11*
X177002200Y-187507200D02*
X285002200Y-187507200D01*
D10*
D13*
X178714580Y-188211961D02*
X179857438Y-188211961D01*
X179036009Y-190211961D02*
X179286009Y-188211961D01*
X180274104Y-190211961D02*
X180440771Y-188878628D01*
X180524104Y-188211961D02*
X180416961Y-188307200D01*
X180500295Y-188402438D01*
X180607438Y-188307200D01*
X180524104Y-188211961D01*
X180500295Y-188402438D01*
X181107438Y-188878628D02*
X181869342Y-188878628D01*
X181476485Y-188211961D02*
X181262200Y-189926247D01*
X181333628Y-190116723D01*
X181512200Y-190211961D01*
X181702676Y-190211961D01*
X182655057Y-190211961D02*
X182476485Y-190116723D01*
X182405057Y-189926247D01*
X182619342Y-188211961D01*
X184190771Y-190116723D02*
X183988390Y-190211961D01*
X183607438Y-190211961D01*
X183428866Y-190116723D01*
X183357438Y-189926247D01*
X183452676Y-189164342D01*
X183571723Y-188973866D01*
X183774104Y-188878628D01*
X184155057Y-188878628D01*
X184333628Y-188973866D01*
X184405057Y-189164342D01*
X184381247Y-189354819D01*
X183405057Y-189545295D01*
X185155057Y-190021485D02*
X185238390Y-190116723D01*
X185131247Y-190211961D01*
X185047914Y-190116723D01*
X185155057Y-190021485D01*
X185131247Y-190211961D01*
X185286009Y-188973866D02*
X185369342Y-189069104D01*
X185262200Y-189164342D01*
X185178866Y-189069104D01*
X185286009Y-188973866D01*
X185262200Y-189164342D01*
X188774104Y-190021485D02*
X188666961Y-190116723D01*
X188369342Y-190211961D01*
X188178866Y-190211961D01*
X187905057Y-190116723D01*
X187738390Y-189926247D01*
X187666961Y-189735771D01*
X187619342Y-189354819D01*
X187655057Y-189069104D01*
X187797914Y-188688152D01*
X187916961Y-188497676D01*
X188131247Y-188307200D01*
X188428866Y-188211961D01*
X188619342Y-188211961D01*
X188893152Y-188307200D01*
X188976485Y-188402438D01*
X189607438Y-190211961D02*
X189857438Y-188211961D01*
X190464580Y-190211961D02*
X190595533Y-189164342D01*
X190524104Y-188973866D01*
X190345533Y-188878628D01*
X190059819Y-188878628D01*
X189857438Y-188973866D01*
X189750295Y-189069104D01*
X192440771Y-188878628D02*
X192274104Y-190211961D01*
X191583628Y-188878628D02*
X191452676Y-189926247D01*
X191524104Y-190116723D01*
X191702676Y-190211961D01*
X191988390Y-190211961D01*
X192190771Y-190116723D01*
X192297914Y-190021485D01*
X193226485Y-190211961D02*
X193476485Y-188211961D01*
X193381247Y-188973866D02*
X193583628Y-188878628D01*
X193964580Y-188878628D01*
X194143152Y-188973866D01*
X194226485Y-189069104D01*
X194297914Y-189259580D01*
X194226485Y-189831009D01*
X194107438Y-190021485D01*
X194000295Y-190116723D01*
X193797914Y-190211961D01*
X193416961Y-190211961D01*
X193238390Y-190116723D01*
X195036009Y-190211961D02*
X195286009Y-188211961D01*
X195190771Y-188973866D02*
X195393152Y-188878628D01*
X195774104Y-188878628D01*
X195952676Y-188973866D01*
X196036009Y-189069104D01*
X196107438Y-189259580D01*
X196036009Y-189831009D01*
X195916961Y-190021485D01*
X195809819Y-190116723D01*
X195607438Y-190211961D01*
X195226485Y-190211961D01*
X195047914Y-190116723D01*
X196821723Y-188878628D02*
X197131247Y-190211961D01*
X197774104Y-188878628D02*
X197131247Y-190211961D01*
X196881247Y-190688152D01*
X196774104Y-190783390D01*
X196571723Y-190878628D01*
X199893152Y-190211961D02*
X200143152Y-188211961D01*
X200024104Y-189164342D02*
X201166961Y-189164342D01*
X201036009Y-190211961D02*
X201286009Y-188211961D01*
X202845533Y-190211961D02*
X202976485Y-189164342D01*
X202905057Y-188973866D01*
X202726485Y-188878628D01*
X202345533Y-188878628D01*
X202143152Y-188973866D01*
X202857438Y-190116723D02*
X202655057Y-190211961D01*
X202178866Y-190211961D01*
X202000295Y-190116723D01*
X201928866Y-189926247D01*
X201952676Y-189735771D01*
X202071723Y-189545295D01*
X202274104Y-189450057D01*
X202750295Y-189450057D01*
X202952676Y-189354819D01*
X203678866Y-188878628D02*
X204440771Y-188878628D01*
X204047914Y-188211961D02*
X203833628Y-189926247D01*
X203905057Y-190116723D01*
X204083628Y-190211961D01*
X204274104Y-190211961D01*
D10*
D11*
X178934342Y-185600057D02*
X178434342Y-185600057D01*
X178434342Y-186385771D02*
X178434342Y-184885771D01*
X179148628Y-184885771D01*
X179720057Y-186385771D02*
X179720057Y-185385771D01*
X179720057Y-184885771D02*
X179648628Y-184957200D01*
X179720057Y-185028628D01*
X179791485Y-184957200D01*
X179720057Y-184885771D01*
X179720057Y-185028628D01*
X180648628Y-186385771D02*
X180505771Y-186314342D01*
X180434342Y-186171485D01*
X180434342Y-184885771D01*
X181791485Y-186314342D02*
X181648628Y-186385771D01*
X181362914Y-186385771D01*
X181220057Y-186314342D01*
X181148628Y-186171485D01*
X181148628Y-185600057D01*
X181220057Y-185457200D01*
X181362914Y-185385771D01*
X181648628Y-185385771D01*
X181791485Y-185457200D01*
X181862914Y-185600057D01*
X181862914Y-185742914D01*
X181148628Y-185885771D01*
X182505771Y-186242914D02*
X182577200Y-186314342D01*
X182505771Y-186385771D01*
X182434342Y-186314342D01*
X182505771Y-186242914D01*
X182505771Y-186385771D01*
X182505771Y-185457200D02*
X182577200Y-185528628D01*
X182505771Y-185600057D01*
X182434342Y-185528628D01*
X182505771Y-185457200D01*
X182505771Y-185600057D01*
X185005771Y-186314342D02*
X184862914Y-186385771D01*
X184577200Y-186385771D01*
X184434342Y-186314342D01*
X184362914Y-186242914D01*
X184291485Y-186100057D01*
X184291485Y-185671485D01*
X184362914Y-185528628D01*
X184434342Y-185457200D01*
X184577200Y-185385771D01*
X184862914Y-185385771D01*
X185005771Y-185457200D01*
X185648628Y-186385771D02*
X185648628Y-184885771D01*
X186291485Y-186385771D02*
X186291485Y-185600057D01*
X186220057Y-185457200D01*
X186077200Y-185385771D01*
X185862914Y-185385771D01*
X185720057Y-185457200D01*
X185648628Y-185528628D01*
X187648628Y-185385771D02*
X187648628Y-186385771D01*
X187005771Y-185385771D02*
X187005771Y-186171485D01*
X187077200Y-186314342D01*
X187220057Y-186385771D01*
X187434342Y-186385771D01*
X187577200Y-186314342D01*
X187648628Y-186242914D01*
X188362914Y-186385771D02*
X188362914Y-184885771D01*
X188362914Y-185457200D02*
X188505771Y-185385771D01*
X188791485Y-185385771D01*
X188934342Y-185457200D01*
X189005771Y-185528628D01*
X189077200Y-185671485D01*
X189077200Y-186100057D01*
X189005771Y-186242914D01*
X188934342Y-186314342D01*
X188791485Y-186385771D01*
X188505771Y-186385771D01*
X188362914Y-186314342D01*
X189720057Y-186385771D02*
X189720057Y-184885771D01*
X189720057Y-185457200D02*
X189862914Y-185385771D01*
X190148628Y-185385771D01*
X190291485Y-185457200D01*
X190362914Y-185528628D01*
X190434342Y-185671485D01*
X190434342Y-186100057D01*
X190362914Y-186242914D01*
X190291485Y-186314342D01*
X190148628Y-186385771D01*
X189862914Y-186385771D01*
X189720057Y-186314342D01*
X190934342Y-185385771D02*
X191291485Y-186385771D01*
X191648628Y-185385771D02*
X191291485Y-186385771D01*
X191148628Y-186742914D01*
X191077200Y-186814342D01*
X190934342Y-186885771D01*
X192220057Y-185814342D02*
X193362914Y-185814342D01*
X194077200Y-186385771D02*
X194077200Y-184885771D01*
X194720057Y-186385771D02*
X194720057Y-185600057D01*
X194648628Y-185457200D01*
X194505771Y-185385771D01*
X194291485Y-185385771D01*
X194148628Y-185457200D01*
X194077200Y-185528628D01*
X196077200Y-186385771D02*
X196077200Y-185600057D01*
X196005771Y-185457200D01*
X195862914Y-185385771D01*
X195577200Y-185385771D01*
X195434342Y-185457200D01*
X196077200Y-186314342D02*
X195934342Y-186385771D01*
X195577200Y-186385771D01*
X195434342Y-186314342D01*
X195362914Y-186171485D01*
X195362914Y-186028628D01*
X195434342Y-185885771D01*
X195577200Y-185814342D01*
X195934342Y-185814342D01*
X196077200Y-185742914D01*
X196577200Y-185385771D02*
X197148628Y-185385771D01*
X196791485Y-184885771D02*
X196791485Y-186171485D01*
X196862914Y-186314342D01*
X197005771Y-186385771D01*
X197148628Y-186385771D01*
X197648628Y-186242914D02*
X197720057Y-186314342D01*
X197648628Y-186385771D01*
X197577200Y-186314342D01*
X197648628Y-186242914D01*
X197648628Y-186385771D01*
X198362914Y-186385771D02*
X198362914Y-184885771D01*
X198505771Y-185814342D02*
X198934342Y-186385771D01*
X198934342Y-185385771D02*
X198362914Y-185957200D01*
X199577200Y-186385771D02*
X199577200Y-185385771D01*
X199577200Y-184885771D02*
X199505771Y-184957200D01*
X199577200Y-185028628D01*
X199648628Y-184957200D01*
X199577200Y-184885771D01*
X199577200Y-185028628D01*
X200934342Y-186314342D02*
X200791485Y-186385771D01*
X200505771Y-186385771D01*
X200362914Y-186314342D01*
X200291485Y-186242914D01*
X200220057Y-186100057D01*
X200220057Y-185671485D01*
X200291485Y-185528628D01*
X200362914Y-185457200D01*
X200505771Y-185385771D01*
X200791485Y-185385771D01*
X200934342Y-185457200D01*
X202220057Y-186385771D02*
X202220057Y-185600057D01*
X202148628Y-185457200D01*
X202005771Y-185385771D01*
X201720057Y-185385771D01*
X201577200Y-185457200D01*
X202220057Y-186314342D02*
X202077200Y-186385771D01*
X201720057Y-186385771D01*
X201577200Y-186314342D01*
X201505771Y-186171485D01*
X201505771Y-186028628D01*
X201577200Y-185885771D01*
X201720057Y-185814342D01*
X202077200Y-185814342D01*
X202220057Y-185742914D01*
X203577200Y-186385771D02*
X203577200Y-184885771D01*
X203577200Y-186314342D02*
X203434342Y-186385771D01*
X203148628Y-186385771D01*
X203005771Y-186314342D01*
X202934342Y-186242914D01*
X202862914Y-186100057D01*
X202862914Y-185671485D01*
X202934342Y-185528628D01*
X203005771Y-185457200D01*
X203148628Y-185385771D01*
X203434342Y-185385771D01*
X203577200Y-185457200D01*
X203934342Y-186528628D02*
X205077200Y-186528628D01*
X205434342Y-185385771D02*
X205434342Y-186885771D01*
X205434342Y-185457200D02*
X205577200Y-185385771D01*
X205862914Y-185385771D01*
X206005771Y-185457200D01*
X206077200Y-185528628D01*
X206148628Y-185671485D01*
X206148628Y-186100057D01*
X206077200Y-186242914D01*
X206005771Y-186314342D01*
X205862914Y-186385771D01*
X205577200Y-186385771D01*
X205434342Y-186314342D01*
X207434342Y-186314342D02*
X207291485Y-186385771D01*
X207005771Y-186385771D01*
X206862914Y-186314342D01*
X206791485Y-186242914D01*
X206720057Y-186100057D01*
X206720057Y-185671485D01*
X206791485Y-185528628D01*
X206862914Y-185457200D01*
X207005771Y-185385771D01*
X207291485Y-185385771D01*
X207434342Y-185457200D01*
X208077200Y-186385771D02*
X208077200Y-184885771D01*
X208077200Y-185457200D02*
X208220057Y-185385771D01*
X208505771Y-185385771D01*
X208648628Y-185457200D01*
X208720057Y-185528628D01*
X208791485Y-185671485D01*
X208791485Y-186100057D01*
X208720057Y-186242914D01*
X208648628Y-186314342D01*
X208505771Y-186385771D01*
X208220057Y-186385771D01*
X208077200Y-186314342D01*
D10*
D11*
X177002200Y-181507200D02*
X285002200Y-181507200D01*
D10*
D11*
X178362914Y-183614342D02*
X178577200Y-183685771D01*
X178934342Y-183685771D01*
X179077200Y-183614342D01*
X179148628Y-183542914D01*
X179220057Y-183400057D01*
X179220057Y-183257200D01*
X179148628Y-183114342D01*
X179077200Y-183042914D01*
X178934342Y-182971485D01*
X178648628Y-182900057D01*
X178505771Y-182828628D01*
X178434342Y-182757200D01*
X178362914Y-182614342D01*
X178362914Y-182471485D01*
X178434342Y-182328628D01*
X178505771Y-182257200D01*
X178648628Y-182185771D01*
X179005771Y-182185771D01*
X179220057Y-182257200D01*
X179862914Y-183685771D02*
X179862914Y-182185771D01*
X180505771Y-183685771D02*
X180505771Y-182900057D01*
X180434342Y-182757200D01*
X180291485Y-182685771D01*
X180077200Y-182685771D01*
X179934342Y-182757200D01*
X179862914Y-182828628D01*
X181791485Y-183614342D02*
X181648628Y-183685771D01*
X181362914Y-183685771D01*
X181220057Y-183614342D01*
X181148628Y-183471485D01*
X181148628Y-182900057D01*
X181220057Y-182757200D01*
X181362914Y-182685771D01*
X181648628Y-182685771D01*
X181791485Y-182757200D01*
X181862914Y-182900057D01*
X181862914Y-183042914D01*
X181148628Y-183185771D01*
X183077200Y-183614342D02*
X182934342Y-183685771D01*
X182648628Y-183685771D01*
X182505771Y-183614342D01*
X182434342Y-183471485D01*
X182434342Y-182900057D01*
X182505771Y-182757200D01*
X182648628Y-182685771D01*
X182934342Y-182685771D01*
X183077200Y-182757200D01*
X183148628Y-182900057D01*
X183148628Y-183042914D01*
X182434342Y-183185771D01*
X183577200Y-182685771D02*
X184148628Y-182685771D01*
X183791485Y-182185771D02*
X183791485Y-183471485D01*
X183862914Y-183614342D01*
X184005771Y-183685771D01*
X184148628Y-183685771D01*
X184648628Y-183542914D02*
X184720057Y-183614342D01*
X184648628Y-183685771D01*
X184577200Y-183614342D01*
X184648628Y-183542914D01*
X184648628Y-183685771D01*
X184648628Y-182757200D02*
X184720057Y-182828628D01*
X184648628Y-182900057D01*
X184577200Y-182828628D01*
X184648628Y-182757200D01*
X184648628Y-182900057D01*
D10*
D12*
D10*
D11*
X179077200Y-176685771D02*
X179077200Y-177900057D01*
X179005771Y-178042914D01*
X178934342Y-178114342D01*
X178791485Y-178185771D01*
X178577200Y-178185771D01*
X178434342Y-178114342D01*
X179077200Y-177614342D02*
X178934342Y-177685771D01*
X178648628Y-177685771D01*
X178505771Y-177614342D01*
X178434342Y-177542914D01*
X178362914Y-177400057D01*
X178362914Y-176971485D01*
X178434342Y-176828628D01*
X178505771Y-176757200D01*
X178648628Y-176685771D01*
X178934342Y-176685771D01*
X179077200Y-176757200D01*
X179791485Y-177685771D02*
X179791485Y-176685771D01*
X179791485Y-176185771D02*
X179720057Y-176257200D01*
X179791485Y-176328628D01*
X179862914Y-176257200D01*
X179791485Y-176185771D01*
X179791485Y-176328628D01*
X180291485Y-176685771D02*
X180862914Y-176685771D01*
X180505771Y-176185771D02*
X180505771Y-177471485D01*
X180577200Y-177614342D01*
X180720057Y-177685771D01*
X180862914Y-177685771D01*
X181362914Y-177685771D02*
X181362914Y-176185771D01*
X182005771Y-177685771D02*
X182005771Y-176900057D01*
X181934342Y-176757200D01*
X181791485Y-176685771D01*
X181577200Y-176685771D01*
X181434342Y-176757200D01*
X181362914Y-176828628D01*
X183362914Y-176685771D02*
X183362914Y-177685771D01*
X182720057Y-176685771D02*
X182720057Y-177471485D01*
X182791485Y-177614342D01*
X182934342Y-177685771D01*
X183148628Y-177685771D01*
X183291485Y-177614342D01*
X183362914Y-177542914D01*
X184077200Y-177685771D02*
X184077200Y-176185771D01*
X184077200Y-176757200D02*
X184220057Y-176685771D01*
X184505771Y-176685771D01*
X184648628Y-176757200D01*
X184720057Y-176828628D01*
X184791485Y-176971485D01*
X184791485Y-177400057D01*
X184720057Y-177542914D01*
X184648628Y-177614342D01*
X184505771Y-177685771D01*
X184220057Y-177685771D01*
X184077200Y-177614342D01*
X185434342Y-177542914D02*
X185505771Y-177614342D01*
X185434342Y-177685771D01*
X185362914Y-177614342D01*
X185434342Y-177542914D01*
X185434342Y-177685771D01*
X186791485Y-177614342D02*
X186648628Y-177685771D01*
X186362914Y-177685771D01*
X186220057Y-177614342D01*
X186148628Y-177542914D01*
X186077200Y-177400057D01*
X186077200Y-176971485D01*
X186148628Y-176828628D01*
X186220057Y-176757200D01*
X186362914Y-176685771D01*
X186648628Y-176685771D01*
X186791485Y-176757200D01*
X187648628Y-177685771D02*
X187505771Y-177614342D01*
X187434342Y-177542914D01*
X187362914Y-177400057D01*
X187362914Y-176971485D01*
X187434342Y-176828628D01*
X187505771Y-176757200D01*
X187648628Y-176685771D01*
X187862914Y-176685771D01*
X188005771Y-176757200D01*
X188077200Y-176828628D01*
X188148628Y-176971485D01*
X188148628Y-177400057D01*
X188077200Y-177542914D01*
X188005771Y-177614342D01*
X187862914Y-177685771D01*
X187648628Y-177685771D01*
X188791485Y-177685771D02*
X188791485Y-176685771D01*
X188791485Y-176828628D02*
X188862914Y-176757200D01*
X189005771Y-176685771D01*
X189220057Y-176685771D01*
X189362914Y-176757200D01*
X189434342Y-176900057D01*
X189434342Y-177685771D01*
X189434342Y-176900057D02*
X189505771Y-176757200D01*
X189648628Y-176685771D01*
X189862914Y-176685771D01*
X190005771Y-176757200D01*
X190077200Y-176900057D01*
X190077200Y-177685771D01*
X191862914Y-176114342D02*
X190577200Y-178042914D01*
X193005771Y-177614342D02*
X192862914Y-177685771D01*
X192577200Y-177685771D01*
X192434342Y-177614342D01*
X192362914Y-177542914D01*
X192291485Y-177400057D01*
X192291485Y-176971485D01*
X192362914Y-176828628D01*
X192434342Y-176757200D01*
X192577200Y-176685771D01*
X192862914Y-176685771D01*
X193005771Y-176757200D01*
X193505771Y-176685771D02*
X193862914Y-177685771D01*
X194220057Y-176685771D02*
X193862914Y-177685771D01*
X193720057Y-178042914D01*
X193648628Y-178114342D01*
X193505771Y-178185771D01*
X194791485Y-177685771D02*
X194791485Y-176185771D01*
X194791485Y-176757200D02*
X194934342Y-176685771D01*
X195220057Y-176685771D01*
X195362914Y-176757200D01*
X195434342Y-176828628D01*
X195505771Y-176971485D01*
X195505771Y-177400057D01*
X195434342Y-177542914D01*
X195362914Y-177614342D01*
X195220057Y-177685771D01*
X194934342Y-177685771D01*
X194791485Y-177614342D01*
X196720057Y-177614342D02*
X196577200Y-177685771D01*
X196291485Y-177685771D01*
X196148628Y-177614342D01*
X196077200Y-177471485D01*
X196077200Y-176900057D01*
X196148628Y-176757200D01*
X196291485Y-176685771D01*
X196577200Y-176685771D01*
X196720057Y-176757200D01*
X196791485Y-176900057D01*
X196791485Y-177042914D01*
X196077200Y-177185771D01*
X197434342Y-177685771D02*
X197434342Y-176685771D01*
X197434342Y-176971485D02*
X197505771Y-176828628D01*
X197577200Y-176757200D01*
X197720057Y-176685771D01*
X197862914Y-176685771D01*
X198362914Y-177114342D02*
X199505771Y-177114342D01*
X200220057Y-177685771D02*
X200220057Y-176685771D01*
X200220057Y-176828628D02*
X200291485Y-176757200D01*
X200434342Y-176685771D01*
X200648628Y-176685771D01*
X200791485Y-176757200D01*
X200862914Y-176900057D01*
X200862914Y-177685771D01*
X200862914Y-176900057D02*
X200934342Y-176757200D01*
X201077200Y-176685771D01*
X201291485Y-176685771D01*
X201434342Y-176757200D01*
X201505771Y-176900057D01*
X201505771Y-177685771D01*
X202862914Y-176685771D02*
X202862914Y-177685771D01*
X202220057Y-176685771D02*
X202220057Y-177471485D01*
X202291485Y-177614342D01*
X202434342Y-177685771D01*
X202648628Y-177685771D01*
X202791485Y-177614342D01*
X202862914Y-177542914D01*
X203577200Y-177685771D02*
X203577200Y-176685771D01*
X203577200Y-176971485D02*
X203648628Y-176828628D01*
X203720057Y-176757200D01*
X203862914Y-176685771D01*
X204005771Y-176685771D01*
X204505771Y-177685771D02*
X204505771Y-176685771D01*
X204505771Y-176828628D02*
X204577200Y-176757200D01*
X204720057Y-176685771D01*
X204934342Y-176685771D01*
X205077200Y-176757200D01*
X205148628Y-176900057D01*
X205148628Y-177685771D01*
X205148628Y-176900057D02*
X205220057Y-176757200D01*
X205362914Y-176685771D01*
X205577200Y-176685771D01*
X205720057Y-176757200D01*
X205791485Y-176900057D01*
X205791485Y-177685771D01*
X207077200Y-177614342D02*
X206934342Y-177685771D01*
X206648628Y-177685771D01*
X206505771Y-177614342D01*
X206434342Y-177471485D01*
X206434342Y-176900057D01*
X206505771Y-176757200D01*
X206648628Y-176685771D01*
X206934342Y-176685771D01*
X207077200Y-176757200D01*
X207148628Y-176900057D01*
X207148628Y-177042914D01*
X206434342Y-177185771D01*
X208005771Y-177685771D02*
X207862914Y-177614342D01*
X207791485Y-177471485D01*
X207791485Y-176185771D01*
X209648628Y-176114342D02*
X208362914Y-178042914D01*
X210791485Y-177614342D02*
X210648628Y-177685771D01*
X210362914Y-177685771D01*
X210220057Y-177614342D01*
X210148628Y-177542914D01*
X210077200Y-177400057D01*
X210077200Y-176971485D01*
X210148628Y-176828628D01*
X210220057Y-176757200D01*
X210362914Y-176685771D01*
X210648628Y-176685771D01*
X210791485Y-176757200D01*
X211434342Y-177685771D02*
X211434342Y-176185771D01*
X212077200Y-177685771D02*
X212077200Y-176900057D01*
X212005771Y-176757200D01*
X211862914Y-176685771D01*
X211648628Y-176685771D01*
X211505771Y-176757200D01*
X211434342Y-176828628D01*
X213434342Y-176685771D02*
X213434342Y-177685771D01*
X212791485Y-176685771D02*
X212791485Y-177471485D01*
X212862914Y-177614342D01*
X213005771Y-177685771D01*
X213220057Y-177685771D01*
X213362914Y-177614342D01*
X213434342Y-177542914D01*
X214148628Y-177685771D02*
X214148628Y-176185771D01*
X214148628Y-176757200D02*
X214291485Y-176685771D01*
X214577200Y-176685771D01*
X214720057Y-176757200D01*
X214791485Y-176828628D01*
X214862914Y-176971485D01*
X214862914Y-177400057D01*
X214791485Y-177542914D01*
X214720057Y-177614342D01*
X214577200Y-177685771D01*
X214291485Y-177685771D01*
X214148628Y-177614342D01*
X215505771Y-177685771D02*
X215505771Y-176185771D01*
X215505771Y-176757200D02*
X215648628Y-176685771D01*
X215934342Y-176685771D01*
X216077200Y-176757200D01*
X216148628Y-176828628D01*
X216220057Y-176971485D01*
X216220057Y-177400057D01*
X216148628Y-177542914D01*
X216077200Y-177614342D01*
X215934342Y-177685771D01*
X215648628Y-177685771D01*
X215505771Y-177614342D01*
X216720057Y-176685771D02*
X217077200Y-177685771D01*
X217434342Y-176685771D02*
X217077200Y-177685771D01*
X216934342Y-178042914D01*
X216862914Y-178114342D01*
X216720057Y-178185771D01*
X218005771Y-177114342D02*
X219148628Y-177114342D01*
X219862914Y-177685771D02*
X219862914Y-176185771D01*
X220505771Y-177685771D02*
X220505771Y-176900057D01*
X220434342Y-176757200D01*
X220291485Y-176685771D01*
X220077200Y-176685771D01*
X219934342Y-176757200D01*
X219862914Y-176828628D01*
X221862914Y-177685771D02*
X221862914Y-176900057D01*
X221791485Y-176757200D01*
X221648628Y-176685771D01*
X221362914Y-176685771D01*
X221220057Y-176757200D01*
X221862914Y-177614342D02*
X221720057Y-177685771D01*
X221362914Y-177685771D01*
X221220057Y-177614342D01*
X221148628Y-177471485D01*
X221148628Y-177328628D01*
X221220057Y-177185771D01*
X221362914Y-177114342D01*
X221720057Y-177114342D01*
X221862914Y-177042914D01*
X222362914Y-176685771D02*
X222934342Y-176685771D01*
X222577200Y-176185771D02*
X222577200Y-177471485D01*
X222648628Y-177614342D01*
X222791485Y-177685771D01*
X222934342Y-177685771D01*
D10*
D11*
D10*
D11*
D10*
D11*
D10*
D11*
X197002200Y-191507200D02*
X197002200Y-194507200D01*
D10*
D11*
X261002200Y-191507200D02*
X261002200Y-198007200D01*
D14*
%TO.C,Y1*%
X178100000Y-72850000D03*
X175900000Y-72850000D03*
X175900000Y-71150000D03*
X178100000Y-71150000D03*
%TD*%
D15*
%TO.C,C5*%
X147225000Y-85000000D03*
X148775000Y-85000000D03*
%TD*%
D16*
%TO.C,R7*%
X159175000Y-78000000D03*
X160825000Y-78000000D03*
%TD*%
D17*
%TO.C,R3*%
X148825000Y-83000000D03*
X147175000Y-83000000D03*
%TD*%
D18*
%TO.C,FB1*%
X150999999Y-84787500D03*
X150999999Y-83212500D03*
%TD*%
D15*
%TO.C,C15*%
X176225000Y-79000000D03*
X177775000Y-79000000D03*
%TD*%
D19*
%TO.C,C8*%
X178000000Y-101775000D03*
X178000000Y-100225000D03*
%TD*%
D20*
%TO.C,C19*%
X160775000Y-74000000D03*
X159225000Y-74000000D03*
%TD*%
%TO.C,C13*%
X160775000Y-72000000D03*
X159225000Y-72000000D03*
%TD*%
%TO.C,C14*%
X160775000Y-80000000D03*
X159225000Y-80000000D03*
%TD*%
D21*
%TO.C,C6*%
X153000000Y-83225000D03*
X153000000Y-84775000D03*
%TD*%
D22*
%TO.C,U3*%
X155137500Y-76050000D03*
X155137500Y-77000000D03*
X155137500Y-77950000D03*
X152862500Y-77950000D03*
X152862500Y-77000000D03*
X152862500Y-76050000D03*
%TD*%
D16*
%TO.C,R2*%
X147175000Y-71000000D03*
X148825000Y-71000000D03*
%TD*%
D19*
%TO.C,C16*%
X165000000Y-67775000D03*
X165000000Y-66225000D03*
%TD*%
D15*
%TO.C,C11*%
X176225000Y-69000000D03*
X177775000Y-69000000D03*
%TD*%
D23*
%TO.C,U5*%
X168800000Y-75800000D03*
X168800000Y-74200000D03*
X167200000Y-75800000D03*
X167200000Y-74200000D03*
D24*
X165400000Y-71562500D03*
X165800000Y-71562500D03*
X166200000Y-71562500D03*
X166600000Y-71562500D03*
X167000000Y-71562500D03*
X167400000Y-71562500D03*
X167800000Y-71562500D03*
X168200000Y-71562500D03*
X168600000Y-71562500D03*
X169000000Y-71562500D03*
X169400000Y-71562500D03*
X169800000Y-71562500D03*
X170200000Y-71562500D03*
X170600000Y-71562500D03*
D25*
X171437500Y-72400000D03*
X171437500Y-72800000D03*
X171437500Y-73200000D03*
X171437500Y-73600000D03*
X171437500Y-74000000D03*
X171437500Y-74400000D03*
X171437500Y-74800000D03*
X171437500Y-75200000D03*
X171437500Y-75600000D03*
X171437500Y-76000000D03*
X171437500Y-76400000D03*
X171437500Y-76800000D03*
X171437500Y-77200000D03*
X171437500Y-77600000D03*
D24*
X170600000Y-78437500D03*
X170200000Y-78437500D03*
X169800000Y-78437500D03*
X169400000Y-78437500D03*
X169000000Y-78437500D03*
X168600000Y-78437500D03*
X168200000Y-78437500D03*
X167800000Y-78437500D03*
X167400000Y-78437500D03*
X167000000Y-78437500D03*
X166600000Y-78437500D03*
X166200000Y-78437500D03*
X165800000Y-78437500D03*
X165400000Y-78437500D03*
D25*
X164562500Y-77600000D03*
X164562500Y-77200000D03*
X164562500Y-76800000D03*
X164562500Y-76400000D03*
X164562500Y-76000000D03*
X164562500Y-75600000D03*
X164562500Y-75200000D03*
X164562500Y-74800000D03*
X164562500Y-74400000D03*
X164562500Y-74000000D03*
X164562500Y-73600000D03*
X164562500Y-73200000D03*
X164562500Y-72800000D03*
X164562500Y-72400000D03*
%TD*%
D20*
%TO.C,C10*%
X155775000Y-67000000D03*
X154225000Y-67000000D03*
%TD*%
%TO.C,C7*%
X154775000Y-80000000D03*
X153225000Y-80000000D03*
%TD*%
D17*
%TO.C,R8*%
X177825000Y-75000000D03*
X176175000Y-75000000D03*
%TD*%
D26*
%TO.C,U4*%
X158095000Y-61400000D03*
X159365000Y-61400000D03*
X160635000Y-61400000D03*
X161905000Y-61400000D03*
X161905000Y-68600000D03*
X160635000Y-68600000D03*
X159365000Y-68600000D03*
X158095000Y-68600000D03*
%TD*%
D27*
%TO.C,U1*%
X154850000Y-94300000D03*
D28*
X161150000Y-92000000D03*
D27*
X154850000Y-92000000D03*
X154850000Y-89700000D03*
%TD*%
D29*
%TO.C,R5*%
X154000000Y-64825000D03*
X154000000Y-63175000D03*
%TD*%
D15*
%TO.C,C17*%
X176225000Y-77000000D03*
X177775000Y-77000000D03*
%TD*%
D19*
%TO.C,C12*%
X180000000Y-72775000D03*
X180000000Y-71225000D03*
%TD*%
D17*
%TO.C,R6*%
X160825000Y-76000000D03*
X159175000Y-76000000D03*
%TD*%
D19*
%TO.C,C9*%
X180000000Y-101775000D03*
X180000000Y-100225000D03*
%TD*%
D30*
%TO.C,U2*%
X129540000Y-104140000D03*
X132080000Y-104140000D03*
X134620000Y-104140000D03*
X137160000Y-104140000D03*
X139700000Y-104140000D03*
X142240000Y-104140000D03*
X144780000Y-104140000D03*
X147320000Y-104140000D03*
X149860000Y-104140000D03*
D31*
X151130000Y-107950000D03*
X151130000Y-110490000D03*
X151130000Y-113030000D03*
X151130000Y-115570000D03*
X151130000Y-118110000D03*
D30*
X149860000Y-121920000D03*
X147320000Y-121920000D03*
X144780000Y-121920000D03*
X142240000Y-121920000D03*
X139700000Y-121920000D03*
X137160000Y-121920000D03*
X134620000Y-121920000D03*
X132080000Y-121920000D03*
X129540000Y-121920000D03*
%TD*%
D19*
%TO.C,C4*%
X164000000Y-92775000D03*
X164000000Y-91225000D03*
%TD*%
D21*
%TO.C,C18*%
X163000000Y-82225000D03*
X163000000Y-83775000D03*
%TD*%
D19*
%TO.C,C1*%
X152000000Y-92775000D03*
X152000000Y-91225000D03*
%TD*%
%TO.C,C2*%
X150000000Y-92775000D03*
X150000000Y-91225000D03*
%TD*%
D32*
%TO.C,Q1*%
X155050000Y-83062500D03*
X156950000Y-83062500D03*
X156000000Y-84937500D03*
%TD*%
D19*
%TO.C,C21*%
X170000000Y-67775000D03*
X170000000Y-66225000D03*
%TD*%
%TO.C,C3*%
X166000000Y-92775000D03*
X166000000Y-91225000D03*
%TD*%
D29*
%TO.C,R4*%
X156000000Y-64825000D03*
X156000000Y-63175000D03*
%TD*%
D17*
%TO.C,R1*%
X148824999Y-69000000D03*
X147174999Y-69000000D03*
%TD*%
D21*
%TO.C,C22*%
X169000000Y-82225000D03*
X169000000Y-83775000D03*
%TD*%
%TO.C,C20*%
X165000000Y-82225000D03*
X165000000Y-83775000D03*
%TD*%
M02*
